G04 (created by PCBNEW-RS274X (2012-02-19 BZR 3421)-stable) date jue 22 mar 2012 00:35:12 COT*
G01*
G70*
G90*
%MOIN*%
G04 Gerber Fmt 3.4, Leading zero omitted, Abs format*
%FSLAX34Y34*%
G04 APERTURE LIST*
%ADD10C,0.006000*%
%ADD11R,0.016000X0.050000*%
%ADD12R,0.060000X0.080000*%
%ADD13R,0.035000X0.055000*%
%ADD14R,0.055000X0.035000*%
%ADD15R,0.060000X0.060000*%
%ADD16C,0.060000*%
%ADD17R,0.047200X0.047200*%
%ADD18C,0.150000*%
%ADD19C,0.059100*%
%ADD20C,0.137800*%
%ADD21C,0.010000*%
G04 APERTURE END LIST*
G54D10*
G54D11*
X96650Y-47300D03*
X96400Y-47300D03*
X96140Y-47300D03*
X95880Y-47300D03*
X95630Y-47300D03*
X95370Y-47300D03*
X95110Y-47300D03*
X94860Y-47300D03*
X94600Y-47300D03*
X94350Y-47300D03*
X94090Y-47300D03*
X93830Y-47300D03*
X93580Y-47300D03*
X93320Y-47300D03*
X93320Y-50100D03*
X93580Y-50100D03*
X93820Y-50100D03*
X94090Y-50100D03*
X94350Y-50100D03*
X94600Y-50100D03*
X94860Y-50100D03*
X95110Y-50100D03*
X95370Y-50100D03*
X95630Y-50100D03*
X95880Y-50100D03*
X96140Y-50100D03*
X96400Y-50100D03*
X96650Y-50100D03*
X101100Y-43900D03*
X101350Y-43900D03*
X101610Y-43900D03*
X101870Y-43900D03*
X102120Y-43900D03*
X102380Y-43900D03*
X102640Y-43900D03*
X102890Y-43900D03*
X103150Y-43900D03*
X103400Y-43900D03*
X103660Y-43900D03*
X103920Y-43900D03*
X104170Y-43900D03*
X104430Y-43900D03*
X104430Y-41100D03*
X104170Y-41100D03*
X103930Y-41100D03*
X103660Y-41100D03*
X103400Y-41100D03*
X103150Y-41100D03*
X102890Y-41100D03*
X102640Y-41100D03*
X102380Y-41100D03*
X102120Y-41100D03*
X101870Y-41100D03*
X101610Y-41100D03*
X101350Y-41100D03*
X101100Y-41100D03*
G54D12*
X96050Y-51200D03*
X94750Y-51200D03*
G54D13*
X100175Y-42400D03*
X99425Y-42400D03*
X99575Y-50350D03*
X100325Y-50350D03*
X99575Y-51350D03*
X100325Y-51350D03*
G54D14*
X100300Y-44125D03*
X100300Y-44875D03*
G54D13*
X101125Y-40200D03*
X101875Y-40200D03*
X91275Y-50300D03*
X90525Y-50300D03*
X100325Y-48350D03*
X99575Y-48350D03*
X100325Y-47350D03*
X99575Y-47350D03*
X100325Y-49350D03*
X99575Y-49350D03*
G54D14*
X101600Y-45075D03*
X101600Y-45825D03*
X100100Y-41675D03*
X100100Y-40925D03*
G54D15*
X93000Y-42000D03*
G54D16*
X92000Y-42000D03*
X91000Y-42000D03*
X90000Y-42000D03*
X89000Y-42000D03*
G54D15*
X88200Y-47800D03*
G54D16*
X89200Y-47800D03*
X90200Y-47800D03*
G54D17*
X98613Y-51300D03*
X97787Y-51300D03*
X98613Y-50100D03*
X97787Y-50100D03*
G54D18*
X100050Y-33750D03*
X90050Y-33750D03*
G54D15*
X97200Y-34750D03*
G54D16*
X96100Y-34750D03*
X95000Y-34750D03*
X93950Y-34750D03*
X92850Y-34750D03*
X93400Y-33750D03*
X94500Y-33750D03*
X95550Y-33750D03*
X96650Y-33750D03*
G54D19*
X96010Y-53780D03*
X96990Y-53780D03*
X96990Y-52990D03*
X96010Y-52990D03*
G54D20*
X94130Y-54850D03*
X98870Y-54850D03*
G54D13*
X100175Y-43300D03*
X99425Y-43300D03*
G54D21*
X101350Y-44350D02*
X101350Y-43900D01*
X100825Y-44875D02*
X101350Y-44350D01*
X100300Y-44875D02*
X100825Y-44875D01*
X101610Y-45065D02*
X101600Y-45075D01*
X101610Y-43900D02*
X101610Y-45065D01*
X100300Y-44125D02*
X100875Y-44125D01*
X100875Y-44125D02*
X101100Y-43900D01*
X102120Y-41100D02*
X102120Y-40445D01*
X102120Y-40445D02*
X101875Y-40200D01*
X101100Y-41100D02*
X101100Y-40225D01*
X101100Y-40225D02*
X101125Y-40200D01*
X101350Y-41650D02*
X101350Y-41100D01*
X100300Y-41775D02*
X101225Y-41775D01*
X101225Y-41775D02*
X101350Y-41650D01*
X100175Y-43300D02*
X100175Y-42400D01*
X100175Y-42400D02*
X101300Y-42400D01*
X101300Y-42400D02*
X101800Y-41900D01*
X101800Y-41900D02*
X101800Y-41600D01*
X101610Y-41100D02*
X101610Y-41410D01*
X102640Y-41560D02*
X102640Y-41100D01*
X102600Y-41600D02*
X102640Y-41560D01*
X101800Y-41600D02*
X101900Y-41600D01*
X101900Y-41600D02*
X102600Y-41600D01*
X101610Y-41410D02*
X101800Y-41600D01*
M02*
