0
SECTION
2
HEADER
9
$ANGBASE
50
0.0
9
$ANGDIR
70
0
0
ENDSEC
0
SECTION
2
TABLES
0
TABLE
2
LTYPE
70
1
0
LTYPE
2
CONTINUOUS
70
0
3
Solid line
72
65
73
0
40
0.0
0
ENDTAB
0
TABLE
2
LAYER
70
24
0
LAYER
2
BLACK
70
0
62
1
6
CONTINUOUS
0
LAYER
2
BLUE
70
0
62
2
6
CONTINUOUS
0
LAYER
2
GREEN
70
0
62
3
6
CONTINUOUS
0
LAYER
2
CYAN
70
0
62
4
6
CONTINUOUS
0
LAYER
2
RED
70
0
62
5
6
CONTINUOUS
0
LAYER
2
MAGENTA
70
0
62
6
6
CONTINUOUS
0
LAYER
2
BROWN
70
0
62
7
6
CONTINUOUS
0
LAYER
2
GRAY
70
0
62
8
6
CONTINUOUS
0
LAYER
2
DARKGRAY
70
0
62
9
6
CONTINUOUS
0
LAYER
2
LIGHTBLUE
70
0
62
10
6
CONTINUOUS
0
LAYER
2
LIGHTGREEN
70
0
62
11
6
CONTINUOUS
0
LAYER
2
LIGHTCYAN
70
0
62
12
6
CONTINUOUS
0
LAYER
2
LIGHTRED
70
0
62
13
6
CONTINUOUS
0
LAYER
2
LIGHTMAGENTA
70
0
62
14
6
CONTINUOUS
0
LAYER
2
YELLOW
70
0
62
15
6
CONTINUOUS
0
LAYER
2
WHITE
70
0
62
16
6
CONTINUOUS
0
LAYER
2
DARKDARKGRAY
70
0
62
17
6
CONTINUOUS
0
LAYER
2
DARKBLUE
70
0
62
18
6
CONTINUOUS
0
LAYER
2
DARKGREEN
70
0
62
19
6
CONTINUOUS
0
LAYER
2
DARKCYAN
70
0
62
20
6
CONTINUOUS
0
LAYER
2
DARKRED
70
0
62
21
6
CONTINUOUS
0
LAYER
2
DARKMAGENTA
70
0
62
22
6
CONTINUOUS
0
LAYER
2
DARKBROWN
70
0
62
23
6
CONTINUOUS
0
LAYER
2
LIGHTYELLOW
70
0
62
24
6
CONTINUOUS
0
ENDTAB
0
ENDSEC
0
SECTION
2
ENTITIES
0
LINE
8
BLACK
10
33030.0
20
28739.0
11
33030.0
21
29199.0
0
LINE
8
BLACK
10
32880.0
20
28739.0
11
32880.0
21
29199.0
0
ARC
8
BLACK
10
32955.0
20
29199.0
40
75.0
50
360.0
51
540.0
0
ARC
8
BLACK
10
32955.0
20
28739.0
40
75.0
50
180.0
51
360.0
0
LINE
8
BLACK
10
33011.0
20
29249.0
11
33009.0
21
29251.0
0
LINE
8
BLACK
10
32905.0
20
29143.0
11
32903.0
21
29145.0
0
ARC
8
BLACK
10
32956.0
20
29198.0
40
75.0
50
405.0
51
585.0
0
ARC
8
BLACK
10
32958.0
20
29196.0
40
75.0
50
225.0
51
405.0
0
ARC
8
BLACK
10
34333.0
20
28746.0
40
1362.0
50
-178.0
51
-88.0
0
LINE
8
BLACK
10
68030.0
20
29207.0
11
68030.0
21
48207.0
0
LINE
8
BLACK
10
67880.0
20
29207.0
11
67880.0
21
48207.0
0
ARC
8
BLACK
10
67955.0
20
48207.0
40
75.0
50
360.0
51
540.0
0
ARC
8
BLACK
10
67955.0
20
29207.0
40
75.0
50
180.0
51
360.0
0
LINE
8
BLACK
10
34455.0
20
27285.0
11
66455.0
21
27285.0
0
LINE
8
BLACK
10
34455.0
20
27435.0
11
66455.0
21
27435.0
0
ARC
8
BLACK
10
66455.0
20
27360.0
40
75.0
50
270.0
51
450.0
0
ARC
8
BLACK
10
34455.0
20
27360.0
40
75.0
50
90.0
51
270.0
0
LINE
8
BLACK
10
33030.0
20
29207.0
11
33030.0
21
48207.0
0
LINE
8
BLACK
10
32880.0
20
29207.0
11
32880.0
21
48207.0
0
ARC
8
BLACK
10
32955.0
20
48207.0
40
75.0
50
360.0
51
540.0
0
ARC
8
BLACK
10
32955.0
20
29207.0
40
75.0
50
180.0
51
360.0
0
LINE
8
BLACK
10
34455.0
20
49632.0
11
66455.0
21
49632.0
0
LINE
8
BLACK
10
34455.0
20
49782.0
11
66455.0
21
49782.0
0
ARC
8
BLACK
10
66455.0
20
49707.0
40
75.0
50
270.0
51
450.0
0
ARC
8
BLACK
10
34455.0
20
49707.0
40
75.0
50
90.0
51
270.0
0
ARC
8
BLACK
10
66455.0
20
48207.0
40
1500.0
50
0.0
51
90.0
0
ARC
8
BLACK
10
34455.0
20
48207.0
40
1500.0
50
90.0
51
180.0
0
LINE
8
BLACK
10
43449.0
20
36345.0
11
44515.0
21
36345.0
0
LINE
8
BLACK
10
44515.0
20
36345.0
11
44515.0
21
36781.0
0
LINE
8
BLACK
10
44515.0
20
36781.0
11
43449.0
21
36781.0
0
LINE
8
BLACK
10
43449.0
20
36781.0
11
43449.0
21
36345.0
0
LINE
8
BLACK
10
43449.0
20
36845.0
11
44515.0
21
36845.0
0
LINE
8
BLACK
10
44515.0
20
36845.0
11
44515.0
21
37281.0
0
LINE
8
BLACK
10
44515.0
20
37281.0
11
43449.0
21
37281.0
0
LINE
8
BLACK
10
43449.0
20
37281.0
11
43449.0
21
36845.0
0
LINE
8
BLACK
10
43449.0
20
37345.0
11
44515.0
21
37345.0
0
LINE
8
BLACK
10
44515.0
20
37345.0
11
44515.0
21
37781.0
0
LINE
8
BLACK
10
44515.0
20
37781.0
11
43449.0
21
37781.0
0
LINE
8
BLACK
10
43449.0
20
37781.0
11
43449.0
21
37345.0
0
LINE
8
BLACK
10
43449.0
20
37845.0
11
44515.0
21
37845.0
0
LINE
8
BLACK
10
44515.0
20
37845.0
11
44515.0
21
38281.0
0
LINE
8
BLACK
10
44515.0
20
38281.0
11
43449.0
21
38281.0
0
LINE
8
BLACK
10
43449.0
20
38281.0
11
43449.0
21
37845.0
0
LINE
8
BLACK
10
41403.0
20
37845.0
11
42469.0
21
37845.0
0
LINE
8
BLACK
10
42469.0
20
37845.0
11
42469.0
21
38281.0
0
LINE
8
BLACK
10
42469.0
20
38281.0
11
41403.0
21
38281.0
0
LINE
8
BLACK
10
41403.0
20
38281.0
11
41403.0
21
37845.0
0
LINE
8
BLACK
10
41403.0
20
37345.0
11
42469.0
21
37345.0
0
LINE
8
BLACK
10
42469.0
20
37345.0
11
42469.0
21
37781.0
0
LINE
8
BLACK
10
42469.0
20
37781.0
11
41403.0
21
37781.0
0
LINE
8
BLACK
10
41403.0
20
37781.0
11
41403.0
21
37345.0
0
LINE
8
BLACK
10
41403.0
20
36845.0
11
42469.0
21
36845.0
0
LINE
8
BLACK
10
42469.0
20
36845.0
11
42469.0
21
37281.0
0
LINE
8
BLACK
10
42469.0
20
37281.0
11
41403.0
21
37281.0
0
LINE
8
BLACK
10
41403.0
20
37281.0
11
41403.0
21
36845.0
0
LINE
8
BLACK
10
41403.0
20
36345.0
11
42469.0
21
36345.0
0
LINE
8
BLACK
10
42469.0
20
36345.0
11
42469.0
21
36781.0
0
LINE
8
BLACK
10
42469.0
20
36781.0
11
41403.0
21
36781.0
0
LINE
8
BLACK
10
41403.0
20
36781.0
11
41403.0
21
36345.0
0
LINE
8
BLACK
10
62928.0
20
44942.0
11
63994.0
21
44942.0
0
LINE
8
BLACK
10
63994.0
20
44942.0
11
63994.0
21
45378.0
0
LINE
8
BLACK
10
63994.0
20
45378.0
11
62928.0
21
45378.0
0
LINE
8
BLACK
10
62928.0
20
45378.0
11
62928.0
21
44942.0
0
LINE
8
BLACK
10
62928.0
20
45442.0
11
63994.0
21
45442.0
0
LINE
8
BLACK
10
63994.0
20
45442.0
11
63994.0
21
45878.0
0
LINE
8
BLACK
10
63994.0
20
45878.0
11
62928.0
21
45878.0
0
LINE
8
BLACK
10
62928.0
20
45878.0
11
62928.0
21
45442.0
0
LINE
8
BLACK
10
62928.0
20
45942.0
11
63994.0
21
45942.0
0
LINE
8
BLACK
10
63994.0
20
45942.0
11
63994.0
21
46378.0
0
LINE
8
BLACK
10
63994.0
20
46378.0
11
62928.0
21
46378.0
0
LINE
8
BLACK
10
62928.0
20
46378.0
11
62928.0
21
45942.0
0
LINE
8
BLACK
10
62928.0
20
46442.0
11
63994.0
21
46442.0
0
LINE
8
BLACK
10
63994.0
20
46442.0
11
63994.0
21
46878.0
0
LINE
8
BLACK
10
63994.0
20
46878.0
11
62928.0
21
46878.0
0
LINE
8
BLACK
10
62928.0
20
46878.0
11
62928.0
21
46442.0
0
LINE
8
BLACK
10
59306.0
20
46442.0
11
60372.0
21
46442.0
0
LINE
8
BLACK
10
60372.0
20
46442.0
11
60372.0
21
46878.0
0
LINE
8
BLACK
10
60372.0
20
46878.0
11
59306.0
21
46878.0
0
LINE
8
BLACK
10
59306.0
20
46878.0
11
59306.0
21
46442.0
0
LINE
8
BLACK
10
59306.0
20
45942.0
11
60372.0
21
45942.0
0
LINE
8
BLACK
10
60372.0
20
45942.0
11
60372.0
21
46378.0
0
LINE
8
BLACK
10
60372.0
20
46378.0
11
59306.0
21
46378.0
0
LINE
8
BLACK
10
59306.0
20
46378.0
11
59306.0
21
45942.0
0
LINE
8
BLACK
10
59306.0
20
45442.0
11
60372.0
21
45442.0
0
LINE
8
BLACK
10
60372.0
20
45442.0
11
60372.0
21
45878.0
0
LINE
8
BLACK
10
60372.0
20
45878.0
11
59306.0
21
45878.0
0
LINE
8
BLACK
10
59306.0
20
45878.0
11
59306.0
21
45442.0
0
LINE
8
BLACK
10
59306.0
20
44942.0
11
60372.0
21
44942.0
0
LINE
8
BLACK
10
60372.0
20
44942.0
11
60372.0
21
45378.0
0
LINE
8
BLACK
10
60372.0
20
45378.0
11
59306.0
21
45378.0
0
LINE
8
BLACK
10
59306.0
20
45378.0
11
59306.0
21
44942.0
0
LINE
8
BLACK
10
39007.0
20
36345.0
11
40073.0
21
36345.0
0
LINE
8
BLACK
10
40073.0
20
36345.0
11
40073.0
21
36781.0
0
LINE
8
BLACK
10
40073.0
20
36781.0
11
39007.0
21
36781.0
0
LINE
8
BLACK
10
39007.0
20
36781.0
11
39007.0
21
36345.0
0
LINE
8
BLACK
10
39007.0
20
36845.0
11
40073.0
21
36845.0
0
LINE
8
BLACK
10
40073.0
20
36845.0
11
40073.0
21
37281.0
0
LINE
8
BLACK
10
40073.0
20
37281.0
11
39007.0
21
37281.0
0
LINE
8
BLACK
10
39007.0
20
37281.0
11
39007.0
21
36845.0
0
LINE
8
BLACK
10
39007.0
20
37345.0
11
40073.0
21
37345.0
0
LINE
8
BLACK
10
40073.0
20
37345.0
11
40073.0
21
37781.0
0
LINE
8
BLACK
10
40073.0
20
37781.0
11
39007.0
21
37781.0
0
LINE
8
BLACK
10
39007.0
20
37781.0
11
39007.0
21
37345.0
0
LINE
8
BLACK
10
39007.0
20
37845.0
11
40073.0
21
37845.0
0
LINE
8
BLACK
10
40073.0
20
37845.0
11
40073.0
21
38281.0
0
LINE
8
BLACK
10
40073.0
20
38281.0
11
39007.0
21
38281.0
0
LINE
8
BLACK
10
39007.0
20
38281.0
11
39007.0
21
37845.0
0
LINE
8
BLACK
10
36961.0
20
37845.0
11
38027.0
21
37845.0
0
LINE
8
BLACK
10
38027.0
20
37845.0
11
38027.0
21
38281.0
0
LINE
8
BLACK
10
38027.0
20
38281.0
11
36961.0
21
38281.0
0
LINE
8
BLACK
10
36961.0
20
38281.0
11
36961.0
21
37845.0
0
LINE
8
BLACK
10
36961.0
20
37345.0
11
38027.0
21
37345.0
0
LINE
8
BLACK
10
38027.0
20
37345.0
11
38027.0
21
37781.0
0
LINE
8
BLACK
10
38027.0
20
37781.0
11
36961.0
21
37781.0
0
LINE
8
BLACK
10
36961.0
20
37781.0
11
36961.0
21
37345.0
0
LINE
8
BLACK
10
36961.0
20
36845.0
11
38027.0
21
36845.0
0
LINE
8
BLACK
10
38027.0
20
36845.0
11
38027.0
21
37281.0
0
LINE
8
BLACK
10
38027.0
20
37281.0
11
36961.0
21
37281.0
0
LINE
8
BLACK
10
36961.0
20
37281.0
11
36961.0
21
36845.0
0
LINE
8
BLACK
10
36961.0
20
36345.0
11
38027.0
21
36345.0
0
LINE
8
BLACK
10
38027.0
20
36345.0
11
38027.0
21
36781.0
0
LINE
8
BLACK
10
38027.0
20
36781.0
11
36961.0
21
36781.0
0
LINE
8
BLACK
10
36961.0
20
36781.0
11
36961.0
21
36345.0
0
LINE
8
BLACK
10
43475.0
20
30761.0
11
44541.0
21
30761.0
0
LINE
8
BLACK
10
44541.0
20
30761.0
11
44541.0
21
31197.0
0
LINE
8
BLACK
10
44541.0
20
31197.0
11
43475.0
21
31197.0
0
LINE
8
BLACK
10
43475.0
20
31197.0
11
43475.0
21
30761.0
0
LINE
8
BLACK
10
43475.0
20
31261.0
11
44541.0
21
31261.0
0
LINE
8
BLACK
10
44541.0
20
31261.0
11
44541.0
21
31697.0
0
LINE
8
BLACK
10
44541.0
20
31697.0
11
43475.0
21
31697.0
0
LINE
8
BLACK
10
43475.0
20
31697.0
11
43475.0
21
31261.0
0
LINE
8
BLACK
10
43475.0
20
31761.0
11
44541.0
21
31761.0
0
LINE
8
BLACK
10
44541.0
20
31761.0
11
44541.0
21
32197.0
0
LINE
8
BLACK
10
44541.0
20
32197.0
11
43475.0
21
32197.0
0
LINE
8
BLACK
10
43475.0
20
32197.0
11
43475.0
21
31761.0
0
LINE
8
BLACK
10
43475.0
20
32261.0
11
44541.0
21
32261.0
0
LINE
8
BLACK
10
44541.0
20
32261.0
11
44541.0
21
32697.0
0
LINE
8
BLACK
10
44541.0
20
32697.0
11
43475.0
21
32697.0
0
LINE
8
BLACK
10
43475.0
20
32697.0
11
43475.0
21
32261.0
0
LINE
8
BLACK
10
41429.0
20
32261.0
11
42495.0
21
32261.0
0
LINE
8
BLACK
10
42495.0
20
32261.0
11
42495.0
21
32697.0
0
LINE
8
BLACK
10
42495.0
20
32697.0
11
41429.0
21
32697.0
0
LINE
8
BLACK
10
41429.0
20
32697.0
11
41429.0
21
32261.0
0
LINE
8
BLACK
10
41429.0
20
31761.0
11
42495.0
21
31761.0
0
LINE
8
BLACK
10
42495.0
20
31761.0
11
42495.0
21
32197.0
0
LINE
8
BLACK
10
42495.0
20
32197.0
11
41429.0
21
32197.0
0
LINE
8
BLACK
10
41429.0
20
32197.0
11
41429.0
21
31761.0
0
LINE
8
BLACK
10
41429.0
20
31261.0
11
42495.0
21
31261.0
0
LINE
8
BLACK
10
42495.0
20
31261.0
11
42495.0
21
31697.0
0
LINE
8
BLACK
10
42495.0
20
31697.0
11
41429.0
21
31697.0
0
LINE
8
BLACK
10
41429.0
20
31697.0
11
41429.0
21
31261.0
0
LINE
8
BLACK
10
41429.0
20
30761.0
11
42495.0
21
30761.0
0
LINE
8
BLACK
10
42495.0
20
30761.0
11
42495.0
21
31197.0
0
LINE
8
BLACK
10
42495.0
20
31197.0
11
41429.0
21
31197.0
0
LINE
8
BLACK
10
41429.0
20
31197.0
11
41429.0
21
30761.0
0
LINE
8
BLACK
10
38885.0
20
30765.0
11
39951.0
21
30765.0
0
LINE
8
BLACK
10
39951.0
20
30765.0
11
39951.0
21
31201.0
0
LINE
8
BLACK
10
39951.0
20
31201.0
11
38885.0
21
31201.0
0
LINE
8
BLACK
10
38885.0
20
31201.0
11
38885.0
21
30765.0
0
LINE
8
BLACK
10
38885.0
20
31265.0
11
39951.0
21
31265.0
0
LINE
8
BLACK
10
39951.0
20
31265.0
11
39951.0
21
31701.0
0
LINE
8
BLACK
10
39951.0
20
31701.0
11
38885.0
21
31701.0
0
LINE
8
BLACK
10
38885.0
20
31701.0
11
38885.0
21
31265.0
0
LINE
8
BLACK
10
38885.0
20
31765.0
11
39951.0
21
31765.0
0
LINE
8
BLACK
10
39951.0
20
31765.0
11
39951.0
21
32201.0
0
LINE
8
BLACK
10
39951.0
20
32201.0
11
38885.0
21
32201.0
0
LINE
8
BLACK
10
38885.0
20
32201.0
11
38885.0
21
31765.0
0
LINE
8
BLACK
10
38885.0
20
32265.0
11
39951.0
21
32265.0
0
LINE
8
BLACK
10
39951.0
20
32265.0
11
39951.0
21
32701.0
0
LINE
8
BLACK
10
39951.0
20
32701.0
11
38885.0
21
32701.0
0
LINE
8
BLACK
10
38885.0
20
32701.0
11
38885.0
21
32265.0
0
LINE
8
BLACK
10
36839.0
20
32265.0
11
37905.0
21
32265.0
0
LINE
8
BLACK
10
37905.0
20
32265.0
11
37905.0
21
32701.0
0
LINE
8
BLACK
10
37905.0
20
32701.0
11
36839.0
21
32701.0
0
LINE
8
BLACK
10
36839.0
20
32701.0
11
36839.0
21
32265.0
0
LINE
8
BLACK
10
36839.0
20
31765.0
11
37905.0
21
31765.0
0
LINE
8
BLACK
10
37905.0
20
31765.0
11
37905.0
21
32201.0
0
LINE
8
BLACK
10
37905.0
20
32201.0
11
36839.0
21
32201.0
0
LINE
8
BLACK
10
36839.0
20
32201.0
11
36839.0
21
31765.0
0
LINE
8
BLACK
10
36839.0
20
31265.0
11
37905.0
21
31265.0
0
LINE
8
BLACK
10
37905.0
20
31265.0
11
37905.0
21
31701.0
0
LINE
8
BLACK
10
37905.0
20
31701.0
11
36839.0
21
31701.0
0
LINE
8
BLACK
10
36839.0
20
31701.0
11
36839.0
21
31265.0
0
LINE
8
BLACK
10
36839.0
20
30765.0
11
37905.0
21
30765.0
0
LINE
8
BLACK
10
37905.0
20
30765.0
11
37905.0
21
31201.0
0
LINE
8
BLACK
10
37905.0
20
31201.0
11
36839.0
21
31201.0
0
LINE
8
BLACK
10
36839.0
20
31201.0
11
36839.0
21
30765.0
0
CIRCLE
8
BLACK
10
66500.0
20
29170.0
40
1084
0
CIRCLE
8
BLACK
10
34500.0
20
48170.0
40
1084
0
CIRCLE
8
BLACK
10
34500.0
20
29170.0
40
1084
0
CIRCLE
8
BLACK
10
66500.0
20
48171.0
40
1084
0
LINE
8
BLACK
10
50401.0
20
29036.0
11
51481.0
21
29036.0
0
LINE
8
BLACK
10
51481.0
20
29036.0
11
51481.0
21
29716.0
0
LINE
8
BLACK
10
51481.0
20
29716.0
11
50401.0
21
29716.0
0
LINE
8
BLACK
10
50401.0
20
29716.0
11
50401.0
21
29036.0
0
LINE
8
BLACK
10
50401.0
20
29936.0
11
51481.0
21
29936.0
0
LINE
8
BLACK
10
51481.0
20
29936.0
11
51481.0
21
30616.0
0
LINE
8
BLACK
10
51481.0
20
30616.0
11
50401.0
21
30616.0
0
LINE
8
BLACK
10
50401.0
20
30616.0
11
50401.0
21
29936.0
0
LINE
8
BLACK
10
50401.0
20
30836.0
11
51481.0
21
30836.0
0
LINE
8
BLACK
10
51481.0
20
30836.0
11
51481.0
21
31516.0
0
LINE
8
BLACK
10
51481.0
20
31516.0
11
50401.0
21
31516.0
0
LINE
8
BLACK
10
50401.0
20
31516.0
11
50401.0
21
30836.0
0
LINE
8
BLACK
10
47961.0
20
29466.0
11
49041.0
21
29466.0
0
LINE
8
BLACK
10
49041.0
20
29466.0
11
49041.0
21
31086.0
0
LINE
8
BLACK
10
49041.0
20
31086.0
11
47961.0
21
31086.0
0
LINE
8
BLACK
10
47961.0
20
31086.0
11
47961.0
21
29466.0
0
LINE
8
BLACK
10
63846.0
20
30149.0
11
64596.0
21
30149.0
0
LINE
8
BLACK
10
64596.0
20
30149.0
11
64596.0
21
30899.0
0
LINE
8
BLACK
10
64596.0
20
30899.0
11
63846.0
21
30899.0
0
LINE
8
BLACK
10
63846.0
20
30899.0
11
63846.0
21
30149.0
0
LINE
8
BLACK
10
63846.0
20
28653.0
11
64596.0
21
28653.0
0
LINE
8
BLACK
10
64596.0
20
28653.0
11
64596.0
21
29403.0
0
LINE
8
BLACK
10
64596.0
20
29403.0
11
63846.0
21
29403.0
0
LINE
8
BLACK
10
63846.0
20
29403.0
11
63846.0
21
28653.0
0
LINE
8
BLACK
10
63144.0
20
35817.0
11
63144.0
21
36409.0
0
LINE
8
BLACK
10
63144.0
20
36409.0
11
62788.0
21
36409.0
0
LINE
8
BLACK
10
62788.0
20
36409.0
11
62788.0
21
35817.0
0
LINE
8
BLACK
10
62788.0
20
35817.0
11
63144.0
21
35817.0
0
LINE
8
BLACK
10
62894.0
20
35817.0
11
62894.0
21
36409.0
0
LINE
8
BLACK
10
62894.0
20
36409.0
11
62538.0
21
36409.0
0
LINE
8
BLACK
10
62538.0
20
36409.0
11
62538.0
21
35817.0
0
LINE
8
BLACK
10
62538.0
20
35817.0
11
62894.0
21
35817.0
0
LINE
8
BLACK
10
62644.0
20
35817.0
11
62644.0
21
36409.0
0
LINE
8
BLACK
10
62644.0
20
36409.0
11
62288.0
21
36409.0
0
LINE
8
BLACK
10
62288.0
20
36409.0
11
62288.0
21
35817.0
0
LINE
8
BLACK
10
62288.0
20
35817.0
11
62644.0
21
35817.0
0
LINE
8
BLACK
10
62394.0
20
35817.0
11
62394.0
21
36409.0
0
LINE
8
BLACK
10
62394.0
20
36409.0
11
62038.0
21
36409.0
0
LINE
8
BLACK
10
62038.0
20
36409.0
11
62038.0
21
35817.0
0
LINE
8
BLACK
10
62038.0
20
35817.0
11
62394.0
21
35817.0
0
LINE
8
BLACK
10
62144.0
20
35817.0
11
62144.0
21
36409.0
0
LINE
8
BLACK
10
62144.0
20
36409.0
11
61788.0
21
36409.0
0
LINE
8
BLACK
10
61788.0
20
36409.0
11
61788.0
21
35817.0
0
LINE
8
BLACK
10
61788.0
20
35817.0
11
62144.0
21
35817.0
0
LINE
8
BLACK
10
61894.0
20
35817.0
11
61894.0
21
36409.0
0
LINE
8
BLACK
10
61894.0
20
36409.0
11
61538.0
21
36409.0
0
LINE
8
BLACK
10
61538.0
20
36409.0
11
61538.0
21
35817.0
0
LINE
8
BLACK
10
61538.0
20
35817.0
11
61894.0
21
35817.0
0
LINE
8
BLACK
10
61644.0
20
35817.0
11
61644.0
21
36409.0
0
LINE
8
BLACK
10
61644.0
20
36409.0
11
61288.0
21
36409.0
0
LINE
8
BLACK
10
61288.0
20
36409.0
11
61288.0
21
35817.0
0
LINE
8
BLACK
10
61288.0
20
35817.0
11
61644.0
21
35817.0
0
LINE
8
BLACK
10
61394.0
20
35817.0
11
61394.0
21
36409.0
0
LINE
8
BLACK
10
61394.0
20
36409.0
11
61038.0
21
36409.0
0
LINE
8
BLACK
10
61038.0
20
36409.0
11
61038.0
21
35817.0
0
LINE
8
BLACK
10
61038.0
20
35817.0
11
61394.0
21
35817.0
0
LINE
8
BLACK
10
61394.0
20
33653.0
11
61394.0
21
34245.0
0
LINE
8
BLACK
10
61394.0
20
34245.0
11
61038.0
21
34245.0
0
LINE
8
BLACK
10
61038.0
20
34245.0
11
61038.0
21
33653.0
0
LINE
8
BLACK
10
61038.0
20
33653.0
11
61394.0
21
33653.0
0
LINE
8
BLACK
10
61644.0
20
33653.0
11
61644.0
21
34245.0
0
LINE
8
BLACK
10
61644.0
20
34245.0
11
61288.0
21
34245.0
0
LINE
8
BLACK
10
61288.0
20
34245.0
11
61288.0
21
33653.0
0
LINE
8
BLACK
10
61288.0
20
33653.0
11
61644.0
21
33653.0
0
LINE
8
BLACK
10
61894.0
20
33653.0
11
61894.0
21
34245.0
0
LINE
8
BLACK
10
61894.0
20
34245.0
11
61538.0
21
34245.0
0
LINE
8
BLACK
10
61538.0
20
34245.0
11
61538.0
21
33653.0
0
LINE
8
BLACK
10
61538.0
20
33653.0
11
61894.0
21
33653.0
0
LINE
8
BLACK
10
62144.0
20
33653.0
11
62144.0
21
34245.0
0
LINE
8
BLACK
10
62144.0
20
34245.0
11
61788.0
21
34245.0
0
LINE
8
BLACK
10
61788.0
20
34245.0
11
61788.0
21
33653.0
0
LINE
8
BLACK
10
61788.0
20
33653.0
11
62144.0
21
33653.0
0
LINE
8
BLACK
10
62394.0
20
33653.0
11
62394.0
21
34245.0
0
LINE
8
BLACK
10
62394.0
20
34245.0
11
62038.0
21
34245.0
0
LINE
8
BLACK
10
62038.0
20
34245.0
11
62038.0
21
33653.0
0
LINE
8
BLACK
10
62038.0
20
33653.0
11
62394.0
21
33653.0
0
LINE
8
BLACK
10
62644.0
20
33653.0
11
62644.0
21
34245.0
0
LINE
8
BLACK
10
62644.0
20
34245.0
11
62288.0
21
34245.0
0
LINE
8
BLACK
10
62288.0
20
34245.0
11
62288.0
21
33653.0
0
LINE
8
BLACK
10
62288.0
20
33653.0
11
62644.0
21
33653.0
0
LINE
8
BLACK
10
62894.0
20
33653.0
11
62894.0
21
34245.0
0
LINE
8
BLACK
10
62894.0
20
34245.0
11
62538.0
21
34245.0
0
LINE
8
BLACK
10
62538.0
20
34245.0
11
62538.0
21
33653.0
0
LINE
8
BLACK
10
62538.0
20
33653.0
11
62894.0
21
33653.0
0
LINE
8
BLACK
10
63144.0
20
33653.0
11
63144.0
21
34245.0
0
LINE
8
BLACK
10
63144.0
20
34245.0
11
62788.0
21
34245.0
0
LINE
8
BLACK
10
62788.0
20
34245.0
11
62788.0
21
33653.0
0
LINE
8
BLACK
10
62788.0
20
33653.0
11
63144.0
21
33653.0
0
LINE
8
BLACK
10
58194.0
20
39756.0
11
57644.0
21
39756.0
0
LINE
8
BLACK
10
57644.0
20
39756.0
11
57644.0
21
39476.0
0
LINE
8
BLACK
10
57644.0
20
39476.0
11
58194.0
21
39476.0
0
LINE
8
BLACK
10
58194.0
20
39476.0
11
58194.0
21
39756.0
0
LINE
8
BLACK
10
57368.0
20
44900.0
11
57368.0
21
45450.0
0
LINE
8
BLACK
10
57368.0
20
45450.0
11
57088.0
21
45450.0
0
LINE
8
BLACK
10
57088.0
20
45450.0
11
57088.0
21
44900.0
0
LINE
8
BLACK
10
57088.0
20
44900.0
11
57368.0
21
44900.0
0
LINE
8
BLACK
10
51394.0
20
44344.0
11
51944.0
21
44344.0
0
LINE
8
BLACK
10
51944.0
20
44344.0
11
51944.0
21
44624.0
0
LINE
8
BLACK
10
51944.0
20
44624.0
11
51394.0
21
44624.0
0
LINE
8
BLACK
10
51394.0
20
44624.0
11
51394.0
21
44344.0
0
LINE
8
BLACK
10
52500.0
20
38650.0
11
52500.0
21
39200.0
0
LINE
8
BLACK
10
52500.0
20
39200.0
11
52220.0
21
39200.0
0
LINE
8
BLACK
10
52220.0
20
39200.0
11
52220.0
21
38650.0
0
LINE
8
BLACK
10
52220.0
20
38650.0
11
52500.0
21
38650.0
0
LINE
8
BLACK
10
58194.0
20
39913.0
11
57644.0
21
39913.0
0
LINE
8
BLACK
10
57644.0
20
39913.0
11
57644.0
21
39633.0
0
LINE
8
BLACK
10
57644.0
20
39633.0
11
58194.0
21
39633.0
0
LINE
8
BLACK
10
58194.0
20
39633.0
11
58194.0
21
39913.0
0
LINE
8
BLACK
10
57211.0
20
44900.0
11
57211.0
21
45450.0
0
LINE
8
BLACK
10
57211.0
20
45450.0
11
56931.0
21
45450.0
0
LINE
8
BLACK
10
56931.0
20
45450.0
11
56931.0
21
44900.0
0
LINE
8
BLACK
10
56931.0
20
44900.0
11
57211.0
21
44900.0
0
LINE
8
BLACK
10
51394.0
20
44187.0
11
51944.0
21
44187.0
0
LINE
8
BLACK
10
51944.0
20
44187.0
11
51944.0
21
44467.0
0
LINE
8
BLACK
10
51944.0
20
44467.0
11
51394.0
21
44467.0
0
LINE
8
BLACK
10
51394.0
20
44467.0
11
51394.0
21
44187.0
0
LINE
8
BLACK
10
52657.0
20
38650.0
11
52657.0
21
39200.0
0
LINE
8
BLACK
10
52657.0
20
39200.0
11
52377.0
21
39200.0
0
LINE
8
BLACK
10
52377.0
20
39200.0
11
52377.0
21
38650.0
0
LINE
8
BLACK
10
52377.0
20
38650.0
11
52657.0
21
38650.0
0
LINE
8
BLACK
10
58194.0
20
40070.0
11
57644.0
21
40070.0
0
LINE
8
BLACK
10
57644.0
20
40070.0
11
57644.0
21
39790.0
0
LINE
8
BLACK
10
57644.0
20
39790.0
11
58194.0
21
39790.0
0
LINE
8
BLACK
10
58194.0
20
39790.0
11
58194.0
21
40070.0
0
LINE
8
BLACK
10
57054.0
20
44900.0
11
57054.0
21
45450.0
0
LINE
8
BLACK
10
57054.0
20
45450.0
11
56774.0
21
45450.0
0
LINE
8
BLACK
10
56774.0
20
45450.0
11
56774.0
21
44900.0
0
LINE
8
BLACK
10
56774.0
20
44900.0
11
57054.0
21
44900.0
0
LINE
8
BLACK
10
51394.0
20
44030.0
11
51944.0
21
44030.0
0
LINE
8
BLACK
10
51944.0
20
44030.0
11
51944.0
21
44310.0
0
LINE
8
BLACK
10
51944.0
20
44310.0
11
51394.0
21
44310.0
0
LINE
8
BLACK
10
51394.0
20
44310.0
11
51394.0
21
44030.0
0
LINE
8
BLACK
10
52814.0
20
38650.0
11
52814.0
21
39200.0
0
LINE
8
BLACK
10
52814.0
20
39200.0
11
52534.0
21
39200.0
0
LINE
8
BLACK
10
52534.0
20
39200.0
11
52534.0
21
38650.0
0
LINE
8
BLACK
10
52534.0
20
38650.0
11
52814.0
21
38650.0
0
LINE
8
BLACK
10
58194.0
20
40227.0
11
57644.0
21
40227.0
0
LINE
8
BLACK
10
57644.0
20
40227.0
11
57644.0
21
39947.0
0
LINE
8
BLACK
10
57644.0
20
39947.0
11
58194.0
21
39947.0
0
LINE
8
BLACK
10
58194.0
20
39947.0
11
58194.0
21
40227.0
0
LINE
8
BLACK
10
56897.0
20
44900.0
11
56897.0
21
45450.0
0
LINE
8
BLACK
10
56897.0
20
45450.0
11
56617.0
21
45450.0
0
LINE
8
BLACK
10
56617.0
20
45450.0
11
56617.0
21
44900.0
0
LINE
8
BLACK
10
56617.0
20
44900.0
11
56897.0
21
44900.0
0
LINE
8
BLACK
10
51394.0
20
43873.0
11
51944.0
21
43873.0
0
LINE
8
BLACK
10
51944.0
20
43873.0
11
51944.0
21
44153.0
0
LINE
8
BLACK
10
51944.0
20
44153.0
11
51394.0
21
44153.0
0
LINE
8
BLACK
10
51394.0
20
44153.0
11
51394.0
21
43873.0
0
LINE
8
BLACK
10
52971.0
20
38650.0
11
52971.0
21
39200.0
0
LINE
8
BLACK
10
52971.0
20
39200.0
11
52691.0
21
39200.0
0
LINE
8
BLACK
10
52691.0
20
39200.0
11
52691.0
21
38650.0
0
LINE
8
BLACK
10
52691.0
20
38650.0
11
52971.0
21
38650.0
0
LINE
8
BLACK
10
58194.0
20
40384.0
11
57644.0
21
40384.0
0
LINE
8
BLACK
10
57644.0
20
40384.0
11
57644.0
21
40104.0
0
LINE
8
BLACK
10
57644.0
20
40104.0
11
58194.0
21
40104.0
0
LINE
8
BLACK
10
58194.0
20
40104.0
11
58194.0
21
40384.0
0
LINE
8
BLACK
10
56740.0
20
44900.0
11
56740.0
21
45450.0
0
LINE
8
BLACK
10
56740.0
20
45450.0
11
56460.0
21
45450.0
0
LINE
8
BLACK
10
56460.0
20
45450.0
11
56460.0
21
44900.0
0
LINE
8
BLACK
10
56460.0
20
44900.0
11
56740.0
21
44900.0
0
LINE
8
BLACK
10
51394.0
20
43716.0
11
51944.0
21
43716.0
0
LINE
8
BLACK
10
51944.0
20
43716.0
11
51944.0
21
43996.0
0
LINE
8
BLACK
10
51944.0
20
43996.0
11
51394.0
21
43996.0
0
LINE
8
BLACK
10
51394.0
20
43996.0
11
51394.0
21
43716.0
0
LINE
8
BLACK
10
53128.0
20
38650.0
11
53128.0
21
39200.0
0
LINE
8
BLACK
10
53128.0
20
39200.0
11
52848.0
21
39200.0
0
LINE
8
BLACK
10
52848.0
20
39200.0
11
52848.0
21
38650.0
0
LINE
8
BLACK
10
52848.0
20
38650.0
11
53128.0
21
38650.0
0
LINE
8
BLACK
10
58194.0
20
40541.0
11
57644.0
21
40541.0
0
LINE
8
BLACK
10
57644.0
20
40541.0
11
57644.0
21
40261.0
0
LINE
8
BLACK
10
57644.0
20
40261.0
11
58194.0
21
40261.0
0
LINE
8
BLACK
10
58194.0
20
40261.0
11
58194.0
21
40541.0
0
LINE
8
BLACK
10
56583.0
20
44900.0
11
56583.0
21
45450.0
0
LINE
8
BLACK
10
56583.0
20
45450.0
11
56303.0
21
45450.0
0
LINE
8
BLACK
10
56303.0
20
45450.0
11
56303.0
21
44900.0
0
LINE
8
BLACK
10
56303.0
20
44900.0
11
56583.0
21
44900.0
0
LINE
8
BLACK
10
51394.0
20
43559.0
11
51944.0
21
43559.0
0
LINE
8
BLACK
10
51944.0
20
43559.0
11
51944.0
21
43839.0
0
LINE
8
BLACK
10
51944.0
20
43839.0
11
51394.0
21
43839.0
0
LINE
8
BLACK
10
51394.0
20
43839.0
11
51394.0
21
43559.0
0
LINE
8
BLACK
10
53285.0
20
38650.0
11
53285.0
21
39200.0
0
LINE
8
BLACK
10
53285.0
20
39200.0
11
53005.0
21
39200.0
0
LINE
8
BLACK
10
53005.0
20
39200.0
11
53005.0
21
38650.0
0
LINE
8
BLACK
10
53005.0
20
38650.0
11
53285.0
21
38650.0
0
LINE
8
BLACK
10
58194.0
20
40698.0
11
57644.0
21
40698.0
0
LINE
8
BLACK
10
57644.0
20
40698.0
11
57644.0
21
40418.0
0
LINE
8
BLACK
10
57644.0
20
40418.0
11
58194.0
21
40418.0
0
LINE
8
BLACK
10
58194.0
20
40418.0
11
58194.0
21
40698.0
0
LINE
8
BLACK
10
56426.0
20
44900.0
11
56426.0
21
45450.0
0
LINE
8
BLACK
10
56426.0
20
45450.0
11
56146.0
21
45450.0
0
LINE
8
BLACK
10
56146.0
20
45450.0
11
56146.0
21
44900.0
0
LINE
8
BLACK
10
56146.0
20
44900.0
11
56426.0
21
44900.0
0
LINE
8
BLACK
10
51394.0
20
43402.0
11
51944.0
21
43402.0
0
LINE
8
BLACK
10
51944.0
20
43402.0
11
51944.0
21
43682.0
0
LINE
8
BLACK
10
51944.0
20
43682.0
11
51394.0
21
43682.0
0
LINE
8
BLACK
10
51394.0
20
43682.0
11
51394.0
21
43402.0
0
LINE
8
BLACK
10
53442.0
20
38650.0
11
53442.0
21
39200.0
0
LINE
8
BLACK
10
53442.0
20
39200.0
11
53162.0
21
39200.0
0
LINE
8
BLACK
10
53162.0
20
39200.0
11
53162.0
21
38650.0
0
LINE
8
BLACK
10
53162.0
20
38650.0
11
53442.0
21
38650.0
0
LINE
8
BLACK
10
58194.0
20
40855.0
11
57644.0
21
40855.0
0
LINE
8
BLACK
10
57644.0
20
40855.0
11
57644.0
21
40575.0
0
LINE
8
BLACK
10
57644.0
20
40575.0
11
58194.0
21
40575.0
0
LINE
8
BLACK
10
58194.0
20
40575.0
11
58194.0
21
40855.0
0
LINE
8
BLACK
10
56269.0
20
44900.0
11
56269.0
21
45450.0
0
LINE
8
BLACK
10
56269.0
20
45450.0
11
55989.0
21
45450.0
0
LINE
8
BLACK
10
55989.0
20
45450.0
11
55989.0
21
44900.0
0
LINE
8
BLACK
10
55989.0
20
44900.0
11
56269.0
21
44900.0
0
LINE
8
BLACK
10
51394.0
20
43245.0
11
51944.0
21
43245.0
0
LINE
8
BLACK
10
51944.0
20
43245.0
11
51944.0
21
43525.0
0
LINE
8
BLACK
10
51944.0
20
43525.0
11
51394.0
21
43525.0
0
LINE
8
BLACK
10
51394.0
20
43525.0
11
51394.0
21
43245.0
0
LINE
8
BLACK
10
53599.0
20
38650.0
11
53599.0
21
39200.0
0
LINE
8
BLACK
10
53599.0
20
39200.0
11
53319.0
21
39200.0
0
LINE
8
BLACK
10
53319.0
20
39200.0
11
53319.0
21
38650.0
0
LINE
8
BLACK
10
53319.0
20
38650.0
11
53599.0
21
38650.0
0
LINE
8
BLACK
10
58194.0
20
41012.0
11
57644.0
21
41012.0
0
LINE
8
BLACK
10
57644.0
20
41012.0
11
57644.0
21
40732.0
0
LINE
8
BLACK
10
57644.0
20
40732.0
11
58194.0
21
40732.0
0
LINE
8
BLACK
10
58194.0
20
40732.0
11
58194.0
21
41012.0
0
LINE
8
BLACK
10
56112.0
20
44900.0
11
56112.0
21
45450.0
0
LINE
8
BLACK
10
56112.0
20
45450.0
11
55832.0
21
45450.0
0
LINE
8
BLACK
10
55832.0
20
45450.0
11
55832.0
21
44900.0
0
LINE
8
BLACK
10
55832.0
20
44900.0
11
56112.0
21
44900.0
0
LINE
8
BLACK
10
51394.0
20
43088.0
11
51944.0
21
43088.0
0
LINE
8
BLACK
10
51944.0
20
43088.0
11
51944.0
21
43368.0
0
LINE
8
BLACK
10
51944.0
20
43368.0
11
51394.0
21
43368.0
0
LINE
8
BLACK
10
51394.0
20
43368.0
11
51394.0
21
43088.0
0
LINE
8
BLACK
10
53756.0
20
38650.0
11
53756.0
21
39200.0
0
LINE
8
BLACK
10
53756.0
20
39200.0
11
53476.0
21
39200.0
0
LINE
8
BLACK
10
53476.0
20
39200.0
11
53476.0
21
38650.0
0
LINE
8
BLACK
10
53476.0
20
38650.0
11
53756.0
21
38650.0
0
LINE
8
BLACK
10
58194.0
20
41169.0
11
57644.0
21
41169.0
0
LINE
8
BLACK
10
57644.0
20
41169.0
11
57644.0
21
40889.0
0
LINE
8
BLACK
10
57644.0
20
40889.0
11
58194.0
21
40889.0
0
LINE
8
BLACK
10
58194.0
20
40889.0
11
58194.0
21
41169.0
0
LINE
8
BLACK
10
55955.0
20
44900.0
11
55955.0
21
45450.0
0
LINE
8
BLACK
10
55955.0
20
45450.0
11
55675.0
21
45450.0
0
LINE
8
BLACK
10
55675.0
20
45450.0
11
55675.0
21
44900.0
0
LINE
8
BLACK
10
55675.0
20
44900.0
11
55955.0
21
44900.0
0
LINE
8
BLACK
10
51394.0
20
42931.0
11
51944.0
21
42931.0
0
LINE
8
BLACK
10
51944.0
20
42931.0
11
51944.0
21
43211.0
0
LINE
8
BLACK
10
51944.0
20
43211.0
11
51394.0
21
43211.0
0
LINE
8
BLACK
10
51394.0
20
43211.0
11
51394.0
21
42931.0
0
LINE
8
BLACK
10
53913.0
20
38650.0
11
53913.0
21
39200.0
0
LINE
8
BLACK
10
53913.0
20
39200.0
11
53633.0
21
39200.0
0
LINE
8
BLACK
10
53633.0
20
39200.0
11
53633.0
21
38650.0
0
LINE
8
BLACK
10
53633.0
20
38650.0
11
53913.0
21
38650.0
0
LINE
8
BLACK
10
58194.0
20
41326.0
11
57644.0
21
41326.0
0
LINE
8
BLACK
10
57644.0
20
41326.0
11
57644.0
21
41046.0
0
LINE
8
BLACK
10
57644.0
20
41046.0
11
58194.0
21
41046.0
0
LINE
8
BLACK
10
58194.0
20
41046.0
11
58194.0
21
41326.0
0
LINE
8
BLACK
10
55798.0
20
44900.0
11
55798.0
21
45450.0
0
LINE
8
BLACK
10
55798.0
20
45450.0
11
55518.0
21
45450.0
0
LINE
8
BLACK
10
55518.0
20
45450.0
11
55518.0
21
44900.0
0
LINE
8
BLACK
10
55518.0
20
44900.0
11
55798.0
21
44900.0
0
LINE
8
BLACK
10
51394.0
20
42774.0
11
51944.0
21
42774.0
0
LINE
8
BLACK
10
51944.0
20
42774.0
11
51944.0
21
43054.0
0
LINE
8
BLACK
10
51944.0
20
43054.0
11
51394.0
21
43054.0
0
LINE
8
BLACK
10
51394.0
20
43054.0
11
51394.0
21
42774.0
0
LINE
8
BLACK
10
54070.0
20
38650.0
11
54070.0
21
39200.0
0
LINE
8
BLACK
10
54070.0
20
39200.0
11
53790.0
21
39200.0
0
LINE
8
BLACK
10
53790.0
20
39200.0
11
53790.0
21
38650.0
0
LINE
8
BLACK
10
53790.0
20
38650.0
11
54070.0
21
38650.0
0
LINE
8
BLACK
10
58194.0
20
41483.0
11
57644.0
21
41483.0
0
LINE
8
BLACK
10
57644.0
20
41483.0
11
57644.0
21
41203.0
0
LINE
8
BLACK
10
57644.0
20
41203.0
11
58194.0
21
41203.0
0
LINE
8
BLACK
10
58194.0
20
41203.0
11
58194.0
21
41483.0
0
LINE
8
BLACK
10
55641.0
20
44900.0
11
55641.0
21
45450.0
0
LINE
8
BLACK
10
55641.0
20
45450.0
11
55361.0
21
45450.0
0
LINE
8
BLACK
10
55361.0
20
45450.0
11
55361.0
21
44900.0
0
LINE
8
BLACK
10
55361.0
20
44900.0
11
55641.0
21
44900.0
0
LINE
8
BLACK
10
51394.0
20
42617.0
11
51944.0
21
42617.0
0
LINE
8
BLACK
10
51944.0
20
42617.0
11
51944.0
21
42897.0
0
LINE
8
BLACK
10
51944.0
20
42897.0
11
51394.0
21
42897.0
0
LINE
8
BLACK
10
51394.0
20
42897.0
11
51394.0
21
42617.0
0
LINE
8
BLACK
10
54227.0
20
38650.0
11
54227.0
21
39200.0
0
LINE
8
BLACK
10
54227.0
20
39200.0
11
53947.0
21
39200.0
0
LINE
8
BLACK
10
53947.0
20
39200.0
11
53947.0
21
38650.0
0
LINE
8
BLACK
10
53947.0
20
38650.0
11
54227.0
21
38650.0
0
LINE
8
BLACK
10
58194.0
20
41640.0
11
57644.0
21
41640.0
0
LINE
8
BLACK
10
57644.0
20
41640.0
11
57644.0
21
41360.0
0
LINE
8
BLACK
10
57644.0
20
41360.0
11
58194.0
21
41360.0
0
LINE
8
BLACK
10
58194.0
20
41360.0
11
58194.0
21
41640.0
0
LINE
8
BLACK
10
55484.0
20
44900.0
11
55484.0
21
45450.0
0
LINE
8
BLACK
10
55484.0
20
45450.0
11
55204.0
21
45450.0
0
LINE
8
BLACK
10
55204.0
20
45450.0
11
55204.0
21
44900.0
0
LINE
8
BLACK
10
55204.0
20
44900.0
11
55484.0
21
44900.0
0
LINE
8
BLACK
10
51394.0
20
42460.0
11
51944.0
21
42460.0
0
LINE
8
BLACK
10
51944.0
20
42460.0
11
51944.0
21
42740.0
0
LINE
8
BLACK
10
51944.0
20
42740.0
11
51394.0
21
42740.0
0
LINE
8
BLACK
10
51394.0
20
42740.0
11
51394.0
21
42460.0
0
LINE
8
BLACK
10
54384.0
20
38650.0
11
54384.0
21
39200.0
0
LINE
8
BLACK
10
54384.0
20
39200.0
11
54104.0
21
39200.0
0
LINE
8
BLACK
10
54104.0
20
39200.0
11
54104.0
21
38650.0
0
LINE
8
BLACK
10
54104.0
20
38650.0
11
54384.0
21
38650.0
0
LINE
8
BLACK
10
58194.0
20
41797.0
11
57644.0
21
41797.0
0
LINE
8
BLACK
10
57644.0
20
41797.0
11
57644.0
21
41517.0
0
LINE
8
BLACK
10
57644.0
20
41517.0
11
58194.0
21
41517.0
0
LINE
8
BLACK
10
58194.0
20
41517.0
11
58194.0
21
41797.0
0
LINE
8
BLACK
10
55327.0
20
44900.0
11
55327.0
21
45450.0
0
LINE
8
BLACK
10
55327.0
20
45450.0
11
55047.0
21
45450.0
0
LINE
8
BLACK
10
55047.0
20
45450.0
11
55047.0
21
44900.0
0
LINE
8
BLACK
10
55047.0
20
44900.0
11
55327.0
21
44900.0
0
LINE
8
BLACK
10
51394.0
20
42303.0
11
51944.0
21
42303.0
0
LINE
8
BLACK
10
51944.0
20
42303.0
11
51944.0
21
42583.0
0
LINE
8
BLACK
10
51944.0
20
42583.0
11
51394.0
21
42583.0
0
LINE
8
BLACK
10
51394.0
20
42583.0
11
51394.0
21
42303.0
0
LINE
8
BLACK
10
54541.0
20
38650.0
11
54541.0
21
39200.0
0
LINE
8
BLACK
10
54541.0
20
39200.0
11
54261.0
21
39200.0
0
LINE
8
BLACK
10
54261.0
20
39200.0
11
54261.0
21
38650.0
0
LINE
8
BLACK
10
54261.0
20
38650.0
11
54541.0
21
38650.0
0
LINE
8
BLACK
10
58194.0
20
41954.0
11
57644.0
21
41954.0
0
LINE
8
BLACK
10
57644.0
20
41954.0
11
57644.0
21
41674.0
0
LINE
8
BLACK
10
57644.0
20
41674.0
11
58194.0
21
41674.0
0
LINE
8
BLACK
10
58194.0
20
41674.0
11
58194.0
21
41954.0
0
LINE
8
BLACK
10
55170.0
20
44900.0
11
55170.0
21
45450.0
0
LINE
8
BLACK
10
55170.0
20
45450.0
11
54890.0
21
45450.0
0
LINE
8
BLACK
10
54890.0
20
45450.0
11
54890.0
21
44900.0
0
LINE
8
BLACK
10
54890.0
20
44900.0
11
55170.0
21
44900.0
0
LINE
8
BLACK
10
51394.0
20
42146.0
11
51944.0
21
42146.0
0
LINE
8
BLACK
10
51944.0
20
42146.0
11
51944.0
21
42426.0
0
LINE
8
BLACK
10
51944.0
20
42426.0
11
51394.0
21
42426.0
0
LINE
8
BLACK
10
51394.0
20
42426.0
11
51394.0
21
42146.0
0
LINE
8
BLACK
10
54698.0
20
38650.0
11
54698.0
21
39200.0
0
LINE
8
BLACK
10
54698.0
20
39200.0
11
54418.0
21
39200.0
0
LINE
8
BLACK
10
54418.0
20
39200.0
11
54418.0
21
38650.0
0
LINE
8
BLACK
10
54418.0
20
38650.0
11
54698.0
21
38650.0
0
LINE
8
BLACK
10
58194.0
20
42111.0
11
57644.0
21
42111.0
0
LINE
8
BLACK
10
57644.0
20
42111.0
11
57644.0
21
41831.0
0
LINE
8
BLACK
10
57644.0
20
41831.0
11
58194.0
21
41831.0
0
LINE
8
BLACK
10
58194.0
20
41831.0
11
58194.0
21
42111.0
0
LINE
8
BLACK
10
55013.0
20
44900.0
11
55013.0
21
45450.0
0
LINE
8
BLACK
10
55013.0
20
45450.0
11
54733.0
21
45450.0
0
LINE
8
BLACK
10
54733.0
20
45450.0
11
54733.0
21
44900.0
0
LINE
8
BLACK
10
54733.0
20
44900.0
11
55013.0
21
44900.0
0
LINE
8
BLACK
10
51394.0
20
41989.0
11
51944.0
21
41989.0
0
LINE
8
BLACK
10
51944.0
20
41989.0
11
51944.0
21
42269.0
0
LINE
8
BLACK
10
51944.0
20
42269.0
11
51394.0
21
42269.0
0
LINE
8
BLACK
10
51394.0
20
42269.0
11
51394.0
21
41989.0
0
LINE
8
BLACK
10
54855.0
20
38650.0
11
54855.0
21
39200.0
0
LINE
8
BLACK
10
54855.0
20
39200.0
11
54575.0
21
39200.0
0
LINE
8
BLACK
10
54575.0
20
39200.0
11
54575.0
21
38650.0
0
LINE
8
BLACK
10
54575.0
20
38650.0
11
54855.0
21
38650.0
0
LINE
8
BLACK
10
58194.0
20
42268.0
11
57644.0
21
42268.0
0
LINE
8
BLACK
10
57644.0
20
42268.0
11
57644.0
21
41988.0
0
LINE
8
BLACK
10
57644.0
20
41988.0
11
58194.0
21
41988.0
0
LINE
8
BLACK
10
58194.0
20
41988.0
11
58194.0
21
42268.0
0
LINE
8
BLACK
10
54856.0
20
44900.0
11
54856.0
21
45450.0
0
LINE
8
BLACK
10
54856.0
20
45450.0
11
54576.0
21
45450.0
0
LINE
8
BLACK
10
54576.0
20
45450.0
11
54576.0
21
44900.0
0
LINE
8
BLACK
10
54576.0
20
44900.0
11
54856.0
21
44900.0
0
LINE
8
BLACK
10
51394.0
20
41832.0
11
51944.0
21
41832.0
0
LINE
8
BLACK
10
51944.0
20
41832.0
11
51944.0
21
42112.0
0
LINE
8
BLACK
10
51944.0
20
42112.0
11
51394.0
21
42112.0
0
LINE
8
BLACK
10
51394.0
20
42112.0
11
51394.0
21
41832.0
0
LINE
8
BLACK
10
55012.0
20
38650.0
11
55012.0
21
39200.0
0
LINE
8
BLACK
10
55012.0
20
39200.0
11
54732.0
21
39200.0
0
LINE
8
BLACK
10
54732.0
20
39200.0
11
54732.0
21
38650.0
0
LINE
8
BLACK
10
54732.0
20
38650.0
11
55012.0
21
38650.0
0
LINE
8
BLACK
10
58194.0
20
42425.0
11
57644.0
21
42425.0
0
LINE
8
BLACK
10
57644.0
20
42425.0
11
57644.0
21
42145.0
0
LINE
8
BLACK
10
57644.0
20
42145.0
11
58194.0
21
42145.0
0
LINE
8
BLACK
10
58194.0
20
42145.0
11
58194.0
21
42425.0
0
LINE
8
BLACK
10
54699.0
20
44900.0
11
54699.0
21
45450.0
0
LINE
8
BLACK
10
54699.0
20
45450.0
11
54419.0
21
45450.0
0
LINE
8
BLACK
10
54419.0
20
45450.0
11
54419.0
21
44900.0
0
LINE
8
BLACK
10
54419.0
20
44900.0
11
54699.0
21
44900.0
0
LINE
8
BLACK
10
51394.0
20
41675.0
11
51944.0
21
41675.0
0
LINE
8
BLACK
10
51944.0
20
41675.0
11
51944.0
21
41955.0
0
LINE
8
BLACK
10
51944.0
20
41955.0
11
51394.0
21
41955.0
0
LINE
8
BLACK
10
51394.0
20
41955.0
11
51394.0
21
41675.0
0
LINE
8
BLACK
10
55169.0
20
38650.0
11
55169.0
21
39200.0
0
LINE
8
BLACK
10
55169.0
20
39200.0
11
54889.0
21
39200.0
0
LINE
8
BLACK
10
54889.0
20
39200.0
11
54889.0
21
38650.0
0
LINE
8
BLACK
10
54889.0
20
38650.0
11
55169.0
21
38650.0
0
LINE
8
BLACK
10
58194.0
20
42582.0
11
57644.0
21
42582.0
0
LINE
8
BLACK
10
57644.0
20
42582.0
11
57644.0
21
42302.0
0
LINE
8
BLACK
10
57644.0
20
42302.0
11
58194.0
21
42302.0
0
LINE
8
BLACK
10
58194.0
20
42302.0
11
58194.0
21
42582.0
0
LINE
8
BLACK
10
54542.0
20
44900.0
11
54542.0
21
45450.0
0
LINE
8
BLACK
10
54542.0
20
45450.0
11
54262.0
21
45450.0
0
LINE
8
BLACK
10
54262.0
20
45450.0
11
54262.0
21
44900.0
0
LINE
8
BLACK
10
54262.0
20
44900.0
11
54542.0
21
44900.0
0
LINE
8
BLACK
10
51394.0
20
41518.0
11
51944.0
21
41518.0
0
LINE
8
BLACK
10
51944.0
20
41518.0
11
51944.0
21
41798.0
0
LINE
8
BLACK
10
51944.0
20
41798.0
11
51394.0
21
41798.0
0
LINE
8
BLACK
10
51394.0
20
41798.0
11
51394.0
21
41518.0
0
LINE
8
BLACK
10
55326.0
20
38650.0
11
55326.0
21
39200.0
0
LINE
8
BLACK
10
55326.0
20
39200.0
11
55046.0
21
39200.0
0
LINE
8
BLACK
10
55046.0
20
39200.0
11
55046.0
21
38650.0
0
LINE
8
BLACK
10
55046.0
20
38650.0
11
55326.0
21
38650.0
0
LINE
8
BLACK
10
58194.0
20
42739.0
11
57644.0
21
42739.0
0
LINE
8
BLACK
10
57644.0
20
42739.0
11
57644.0
21
42459.0
0
LINE
8
BLACK
10
57644.0
20
42459.0
11
58194.0
21
42459.0
0
LINE
8
BLACK
10
58194.0
20
42459.0
11
58194.0
21
42739.0
0
LINE
8
BLACK
10
54385.0
20
44900.0
11
54385.0
21
45450.0
0
LINE
8
BLACK
10
54385.0
20
45450.0
11
54105.0
21
45450.0
0
LINE
8
BLACK
10
54105.0
20
45450.0
11
54105.0
21
44900.0
0
LINE
8
BLACK
10
54105.0
20
44900.0
11
54385.0
21
44900.0
0
LINE
8
BLACK
10
51394.0
20
41361.0
11
51944.0
21
41361.0
0
LINE
8
BLACK
10
51944.0
20
41361.0
11
51944.0
21
41641.0
0
LINE
8
BLACK
10
51944.0
20
41641.0
11
51394.0
21
41641.0
0
LINE
8
BLACK
10
51394.0
20
41641.0
11
51394.0
21
41361.0
0
LINE
8
BLACK
10
55483.0
20
38650.0
11
55483.0
21
39200.0
0
LINE
8
BLACK
10
55483.0
20
39200.0
11
55203.0
21
39200.0
0
LINE
8
BLACK
10
55203.0
20
39200.0
11
55203.0
21
38650.0
0
LINE
8
BLACK
10
55203.0
20
38650.0
11
55483.0
21
38650.0
0
LINE
8
BLACK
10
58194.0
20
42896.0
11
57644.0
21
42896.0
0
LINE
8
BLACK
10
57644.0
20
42896.0
11
57644.0
21
42616.0
0
LINE
8
BLACK
10
57644.0
20
42616.0
11
58194.0
21
42616.0
0
LINE
8
BLACK
10
58194.0
20
42616.0
11
58194.0
21
42896.0
0
LINE
8
BLACK
10
54228.0
20
44900.0
11
54228.0
21
45450.0
0
LINE
8
BLACK
10
54228.0
20
45450.0
11
53948.0
21
45450.0
0
LINE
8
BLACK
10
53948.0
20
45450.0
11
53948.0
21
44900.0
0
LINE
8
BLACK
10
53948.0
20
44900.0
11
54228.0
21
44900.0
0
LINE
8
BLACK
10
51394.0
20
41204.0
11
51944.0
21
41204.0
0
LINE
8
BLACK
10
51944.0
20
41204.0
11
51944.0
21
41484.0
0
LINE
8
BLACK
10
51944.0
20
41484.0
11
51394.0
21
41484.0
0
LINE
8
BLACK
10
51394.0
20
41484.0
11
51394.0
21
41204.0
0
LINE
8
BLACK
10
55640.0
20
38650.0
11
55640.0
21
39200.0
0
LINE
8
BLACK
10
55640.0
20
39200.0
11
55360.0
21
39200.0
0
LINE
8
BLACK
10
55360.0
20
39200.0
11
55360.0
21
38650.0
0
LINE
8
BLACK
10
55360.0
20
38650.0
11
55640.0
21
38650.0
0
LINE
8
BLACK
10
58194.0
20
43053.0
11
57644.0
21
43053.0
0
LINE
8
BLACK
10
57644.0
20
43053.0
11
57644.0
21
42773.0
0
LINE
8
BLACK
10
57644.0
20
42773.0
11
58194.0
21
42773.0
0
LINE
8
BLACK
10
58194.0
20
42773.0
11
58194.0
21
43053.0
0
LINE
8
BLACK
10
54071.0
20
44900.0
11
54071.0
21
45450.0
0
LINE
8
BLACK
10
54071.0
20
45450.0
11
53791.0
21
45450.0
0
LINE
8
BLACK
10
53791.0
20
45450.0
11
53791.0
21
44900.0
0
LINE
8
BLACK
10
53791.0
20
44900.0
11
54071.0
21
44900.0
0
LINE
8
BLACK
10
51394.0
20
41047.0
11
51944.0
21
41047.0
0
LINE
8
BLACK
10
51944.0
20
41047.0
11
51944.0
21
41327.0
0
LINE
8
BLACK
10
51944.0
20
41327.0
11
51394.0
21
41327.0
0
LINE
8
BLACK
10
51394.0
20
41327.0
11
51394.0
21
41047.0
0
LINE
8
BLACK
10
55797.0
20
38650.0
11
55797.0
21
39200.0
0
LINE
8
BLACK
10
55797.0
20
39200.0
11
55517.0
21
39200.0
0
LINE
8
BLACK
10
55517.0
20
39200.0
11
55517.0
21
38650.0
0
LINE
8
BLACK
10
55517.0
20
38650.0
11
55797.0
21
38650.0
0
LINE
8
BLACK
10
58194.0
20
43210.0
11
57644.0
21
43210.0
0
LINE
8
BLACK
10
57644.0
20
43210.0
11
57644.0
21
42930.0
0
LINE
8
BLACK
10
57644.0
20
42930.0
11
58194.0
21
42930.0
0
LINE
8
BLACK
10
58194.0
20
42930.0
11
58194.0
21
43210.0
0
LINE
8
BLACK
10
53914.0
20
44900.0
11
53914.0
21
45450.0
0
LINE
8
BLACK
10
53914.0
20
45450.0
11
53634.0
21
45450.0
0
LINE
8
BLACK
10
53634.0
20
45450.0
11
53634.0
21
44900.0
0
LINE
8
BLACK
10
53634.0
20
44900.0
11
53914.0
21
44900.0
0
LINE
8
BLACK
10
51394.0
20
40890.0
11
51944.0
21
40890.0
0
LINE
8
BLACK
10
51944.0
20
40890.0
11
51944.0
21
41170.0
0
LINE
8
BLACK
10
51944.0
20
41170.0
11
51394.0
21
41170.0
0
LINE
8
BLACK
10
51394.0
20
41170.0
11
51394.0
21
40890.0
0
LINE
8
BLACK
10
55954.0
20
38650.0
11
55954.0
21
39200.0
0
LINE
8
BLACK
10
55954.0
20
39200.0
11
55674.0
21
39200.0
0
LINE
8
BLACK
10
55674.0
20
39200.0
11
55674.0
21
38650.0
0
LINE
8
BLACK
10
55674.0
20
38650.0
11
55954.0
21
38650.0
0
LINE
8
BLACK
10
58194.0
20
43367.0
11
57644.0
21
43367.0
0
LINE
8
BLACK
10
57644.0
20
43367.0
11
57644.0
21
43087.0
0
LINE
8
BLACK
10
57644.0
20
43087.0
11
58194.0
21
43087.0
0
LINE
8
BLACK
10
58194.0
20
43087.0
11
58194.0
21
43367.0
0
LINE
8
BLACK
10
53757.0
20
44900.0
11
53757.0
21
45450.0
0
LINE
8
BLACK
10
53757.0
20
45450.0
11
53477.0
21
45450.0
0
LINE
8
BLACK
10
53477.0
20
45450.0
11
53477.0
21
44900.0
0
LINE
8
BLACK
10
53477.0
20
44900.0
11
53757.0
21
44900.0
0
LINE
8
BLACK
10
51394.0
20
40733.0
11
51944.0
21
40733.0
0
LINE
8
BLACK
10
51944.0
20
40733.0
11
51944.0
21
41013.0
0
LINE
8
BLACK
10
51944.0
20
41013.0
11
51394.0
21
41013.0
0
LINE
8
BLACK
10
51394.0
20
41013.0
11
51394.0
21
40733.0
0
LINE
8
BLACK
10
56111.0
20
38650.0
11
56111.0
21
39200.0
0
LINE
8
BLACK
10
56111.0
20
39200.0
11
55831.0
21
39200.0
0
LINE
8
BLACK
10
55831.0
20
39200.0
11
55831.0
21
38650.0
0
LINE
8
BLACK
10
55831.0
20
38650.0
11
56111.0
21
38650.0
0
LINE
8
BLACK
10
58194.0
20
43524.0
11
57644.0
21
43524.0
0
LINE
8
BLACK
10
57644.0
20
43524.0
11
57644.0
21
43244.0
0
LINE
8
BLACK
10
57644.0
20
43244.0
11
58194.0
21
43244.0
0
LINE
8
BLACK
10
58194.0
20
43244.0
11
58194.0
21
43524.0
0
LINE
8
BLACK
10
53600.0
20
44900.0
11
53600.0
21
45450.0
0
LINE
8
BLACK
10
53600.0
20
45450.0
11
53320.0
21
45450.0
0
LINE
8
BLACK
10
53320.0
20
45450.0
11
53320.0
21
44900.0
0
LINE
8
BLACK
10
53320.0
20
44900.0
11
53600.0
21
44900.0
0
LINE
8
BLACK
10
51394.0
20
40576.0
11
51944.0
21
40576.0
0
LINE
8
BLACK
10
51944.0
20
40576.0
11
51944.0
21
40856.0
0
LINE
8
BLACK
10
51944.0
20
40856.0
11
51394.0
21
40856.0
0
LINE
8
BLACK
10
51394.0
20
40856.0
11
51394.0
21
40576.0
0
LINE
8
BLACK
10
56268.0
20
38650.0
11
56268.0
21
39200.0
0
LINE
8
BLACK
10
56268.0
20
39200.0
11
55988.0
21
39200.0
0
LINE
8
BLACK
10
55988.0
20
39200.0
11
55988.0
21
38650.0
0
LINE
8
BLACK
10
55988.0
20
38650.0
11
56268.0
21
38650.0
0
LINE
8
BLACK
10
58194.0
20
43681.0
11
57644.0
21
43681.0
0
LINE
8
BLACK
10
57644.0
20
43681.0
11
57644.0
21
43401.0
0
LINE
8
BLACK
10
57644.0
20
43401.0
11
58194.0
21
43401.0
0
LINE
8
BLACK
10
58194.0
20
43401.0
11
58194.0
21
43681.0
0
LINE
8
BLACK
10
53443.0
20
44900.0
11
53443.0
21
45450.0
0
LINE
8
BLACK
10
53443.0
20
45450.0
11
53163.0
21
45450.0
0
LINE
8
BLACK
10
53163.0
20
45450.0
11
53163.0
21
44900.0
0
LINE
8
BLACK
10
53163.0
20
44900.0
11
53443.0
21
44900.0
0
LINE
8
BLACK
10
51394.0
20
40419.0
11
51944.0
21
40419.0
0
LINE
8
BLACK
10
51944.0
20
40419.0
11
51944.0
21
40699.0
0
LINE
8
BLACK
10
51944.0
20
40699.0
11
51394.0
21
40699.0
0
LINE
8
BLACK
10
51394.0
20
40699.0
11
51394.0
21
40419.0
0
LINE
8
BLACK
10
56425.0
20
38650.0
11
56425.0
21
39200.0
0
LINE
8
BLACK
10
56425.0
20
39200.0
11
56145.0
21
39200.0
0
LINE
8
BLACK
10
56145.0
20
39200.0
11
56145.0
21
38650.0
0
LINE
8
BLACK
10
56145.0
20
38650.0
11
56425.0
21
38650.0
0
LINE
8
BLACK
10
58194.0
20
43838.0
11
57644.0
21
43838.0
0
LINE
8
BLACK
10
57644.0
20
43838.0
11
57644.0
21
43558.0
0
LINE
8
BLACK
10
57644.0
20
43558.0
11
58194.0
21
43558.0
0
LINE
8
BLACK
10
58194.0
20
43558.0
11
58194.0
21
43838.0
0
LINE
8
BLACK
10
53286.0
20
44900.0
11
53286.0
21
45450.0
0
LINE
8
BLACK
10
53286.0
20
45450.0
11
53006.0
21
45450.0
0
LINE
8
BLACK
10
53006.0
20
45450.0
11
53006.0
21
44900.0
0
LINE
8
BLACK
10
53006.0
20
44900.0
11
53286.0
21
44900.0
0
LINE
8
BLACK
10
51394.0
20
40262.0
11
51944.0
21
40262.0
0
LINE
8
BLACK
10
51944.0
20
40262.0
11
51944.0
21
40542.0
0
LINE
8
BLACK
10
51944.0
20
40542.0
11
51394.0
21
40542.0
0
LINE
8
BLACK
10
51394.0
20
40542.0
11
51394.0
21
40262.0
0
LINE
8
BLACK
10
56582.0
20
38650.0
11
56582.0
21
39200.0
0
LINE
8
BLACK
10
56582.0
20
39200.0
11
56302.0
21
39200.0
0
LINE
8
BLACK
10
56302.0
20
39200.0
11
56302.0
21
38650.0
0
LINE
8
BLACK
10
56302.0
20
38650.0
11
56582.0
21
38650.0
0
LINE
8
BLACK
10
58194.0
20
43995.0
11
57644.0
21
43995.0
0
LINE
8
BLACK
10
57644.0
20
43995.0
11
57644.0
21
43715.0
0
LINE
8
BLACK
10
57644.0
20
43715.0
11
58194.0
21
43715.0
0
LINE
8
BLACK
10
58194.0
20
43715.0
11
58194.0
21
43995.0
0
LINE
8
BLACK
10
53129.0
20
44900.0
11
53129.0
21
45450.0
0
LINE
8
BLACK
10
53129.0
20
45450.0
11
52849.0
21
45450.0
0
LINE
8
BLACK
10
52849.0
20
45450.0
11
52849.0
21
44900.0
0
LINE
8
BLACK
10
52849.0
20
44900.0
11
53129.0
21
44900.0
0
LINE
8
BLACK
10
51394.0
20
40105.0
11
51944.0
21
40105.0
0
LINE
8
BLACK
10
51944.0
20
40105.0
11
51944.0
21
40385.0
0
LINE
8
BLACK
10
51944.0
20
40385.0
11
51394.0
21
40385.0
0
LINE
8
BLACK
10
51394.0
20
40385.0
11
51394.0
21
40105.0
0
LINE
8
BLACK
10
56739.0
20
38650.0
11
56739.0
21
39200.0
0
LINE
8
BLACK
10
56739.0
20
39200.0
11
56459.0
21
39200.0
0
LINE
8
BLACK
10
56459.0
20
39200.0
11
56459.0
21
38650.0
0
LINE
8
BLACK
10
56459.0
20
38650.0
11
56739.0
21
38650.0
0
LINE
8
BLACK
10
58194.0
20
44152.0
11
57644.0
21
44152.0
0
LINE
8
BLACK
10
57644.0
20
44152.0
11
57644.0
21
43872.0
0
LINE
8
BLACK
10
57644.0
20
43872.0
11
58194.0
21
43872.0
0
LINE
8
BLACK
10
58194.0
20
43872.0
11
58194.0
21
44152.0
0
LINE
8
BLACK
10
52972.0
20
44900.0
11
52972.0
21
45450.0
0
LINE
8
BLACK
10
52972.0
20
45450.0
11
52692.0
21
45450.0
0
LINE
8
BLACK
10
52692.0
20
45450.0
11
52692.0
21
44900.0
0
LINE
8
BLACK
10
52692.0
20
44900.0
11
52972.0
21
44900.0
0
LINE
8
BLACK
10
51394.0
20
39948.0
11
51944.0
21
39948.0
0
LINE
8
BLACK
10
51944.0
20
39948.0
11
51944.0
21
40228.0
0
LINE
8
BLACK
10
51944.0
20
40228.0
11
51394.0
21
40228.0
0
LINE
8
BLACK
10
51394.0
20
40228.0
11
51394.0
21
39948.0
0
LINE
8
BLACK
10
56896.0
20
38650.0
11
56896.0
21
39200.0
0
LINE
8
BLACK
10
56896.0
20
39200.0
11
56616.0
21
39200.0
0
LINE
8
BLACK
10
56616.0
20
39200.0
11
56616.0
21
38650.0
0
LINE
8
BLACK
10
56616.0
20
38650.0
11
56896.0
21
38650.0
0
LINE
8
BLACK
10
58194.0
20
44309.0
11
57644.0
21
44309.0
0
LINE
8
BLACK
10
57644.0
20
44309.0
11
57644.0
21
44029.0
0
LINE
8
BLACK
10
57644.0
20
44029.0
11
58194.0
21
44029.0
0
LINE
8
BLACK
10
58194.0
20
44029.0
11
58194.0
21
44309.0
0
LINE
8
BLACK
10
52815.0
20
44900.0
11
52815.0
21
45450.0
0
LINE
8
BLACK
10
52815.0
20
45450.0
11
52535.0
21
45450.0
0
LINE
8
BLACK
10
52535.0
20
45450.0
11
52535.0
21
44900.0
0
LINE
8
BLACK
10
52535.0
20
44900.0
11
52815.0
21
44900.0
0
LINE
8
BLACK
10
51394.0
20
39791.0
11
51944.0
21
39791.0
0
LINE
8
BLACK
10
51944.0
20
39791.0
11
51944.0
21
40071.0
0
LINE
8
BLACK
10
51944.0
20
40071.0
11
51394.0
21
40071.0
0
LINE
8
BLACK
10
51394.0
20
40071.0
11
51394.0
21
39791.0
0
LINE
8
BLACK
10
57053.0
20
38650.0
11
57053.0
21
39200.0
0
LINE
8
BLACK
10
57053.0
20
39200.0
11
56773.0
21
39200.0
0
LINE
8
BLACK
10
56773.0
20
39200.0
11
56773.0
21
38650.0
0
LINE
8
BLACK
10
56773.0
20
38650.0
11
57053.0
21
38650.0
0
LINE
8
BLACK
10
58194.0
20
44466.0
11
57644.0
21
44466.0
0
LINE
8
BLACK
10
57644.0
20
44466.0
11
57644.0
21
44186.0
0
LINE
8
BLACK
10
57644.0
20
44186.0
11
58194.0
21
44186.0
0
LINE
8
BLACK
10
58194.0
20
44186.0
11
58194.0
21
44466.0
0
LINE
8
BLACK
10
52658.0
20
44900.0
11
52658.0
21
45450.0
0
LINE
8
BLACK
10
52658.0
20
45450.0
11
52378.0
21
45450.0
0
LINE
8
BLACK
10
52378.0
20
45450.0
11
52378.0
21
44900.0
0
LINE
8
BLACK
10
52378.0
20
44900.0
11
52658.0
21
44900.0
0
LINE
8
BLACK
10
51394.0
20
39634.0
11
51944.0
21
39634.0
0
LINE
8
BLACK
10
51944.0
20
39634.0
11
51944.0
21
39914.0
0
LINE
8
BLACK
10
51944.0
20
39914.0
11
51394.0
21
39914.0
0
LINE
8
BLACK
10
51394.0
20
39914.0
11
51394.0
21
39634.0
0
LINE
8
BLACK
10
57210.0
20
38650.0
11
57210.0
21
39200.0
0
LINE
8
BLACK
10
57210.0
20
39200.0
11
56930.0
21
39200.0
0
LINE
8
BLACK
10
56930.0
20
39200.0
11
56930.0
21
38650.0
0
LINE
8
BLACK
10
56930.0
20
38650.0
11
57210.0
21
38650.0
0
LINE
8
BLACK
10
58194.0
20
44623.0
11
57644.0
21
44623.0
0
LINE
8
BLACK
10
57644.0
20
44623.0
11
57644.0
21
44343.0
0
LINE
8
BLACK
10
57644.0
20
44343.0
11
58194.0
21
44343.0
0
LINE
8
BLACK
10
58194.0
20
44343.0
11
58194.0
21
44623.0
0
LINE
8
BLACK
10
52501.0
20
44900.0
11
52501.0
21
45450.0
0
LINE
8
BLACK
10
52501.0
20
45450.0
11
52221.0
21
45450.0
0
LINE
8
BLACK
10
52221.0
20
45450.0
11
52221.0
21
44900.0
0
LINE
8
BLACK
10
52221.0
20
44900.0
11
52501.0
21
44900.0
0
LINE
8
BLACK
10
51394.0
20
39477.0
11
51944.0
21
39477.0
0
LINE
8
BLACK
10
51944.0
20
39477.0
11
51944.0
21
39757.0
0
LINE
8
BLACK
10
51944.0
20
39757.0
11
51394.0
21
39757.0
0
LINE
8
BLACK
10
51394.0
20
39757.0
11
51394.0
21
39477.0
0
LINE
8
BLACK
10
57367.0
20
38650.0
11
57367.0
21
39200.0
0
LINE
8
BLACK
10
57367.0
20
39200.0
11
57087.0
21
39200.0
0
LINE
8
BLACK
10
57087.0
20
39200.0
11
57087.0
21
38650.0
0
LINE
8
BLACK
10
57087.0
20
38650.0
11
57367.0
21
38650.0
0
LINE
8
BLACK
10
62290.0
20
37097.0
11
62290.0
21
36447.0
0
LINE
8
BLACK
10
62290.0
20
36447.0
11
62740.0
21
36447.0
0
LINE
8
BLACK
10
62740.0
20
36447.0
11
62740.0
21
37097.0
0
LINE
8
BLACK
10
62740.0
20
37097.0
11
62290.0
21
37097.0
0
LINE
8
BLACK
10
62890.0
20
37097.0
11
62890.0
21
36447.0
0
LINE
8
BLACK
10
62890.0
20
36447.0
11
63340.0
21
36447.0
0
LINE
8
BLACK
10
63340.0
20
36447.0
11
63340.0
21
37097.0
0
LINE
8
BLACK
10
63340.0
20
37097.0
11
62890.0
21
37097.0
0
LINE
8
BLACK
10
62061.0
20
36411.0
11
62061.0
21
37061.0
0
LINE
8
BLACK
10
62061.0
20
37061.0
11
61611.0
21
37061.0
0
LINE
8
BLACK
10
61611.0
20
37061.0
11
61611.0
21
36411.0
0
LINE
8
BLACK
10
61611.0
20
36411.0
11
62061.0
21
36411.0
0
LINE
8
BLACK
10
61461.0
20
36411.0
11
61461.0
21
37061.0
0
LINE
8
BLACK
10
61461.0
20
37061.0
11
61011.0
21
37061.0
0
LINE
8
BLACK
10
61011.0
20
37061.0
11
61011.0
21
36411.0
0
LINE
8
BLACK
10
61011.0
20
36411.0
11
61461.0
21
36411.0
0
LINE
8
BLACK
10
63368.0
20
32978.0
11
63368.0
21
33628.0
0
LINE
8
BLACK
10
63368.0
20
33628.0
11
62918.0
21
33628.0
0
LINE
8
BLACK
10
62918.0
20
33628.0
11
62918.0
21
32978.0
0
LINE
8
BLACK
10
62918.0
20
32978.0
11
63368.0
21
32978.0
0
LINE
8
BLACK
10
62768.0
20
32978.0
11
62768.0
21
33628.0
0
LINE
8
BLACK
10
62768.0
20
33628.0
11
62318.0
21
33628.0
0
LINE
8
BLACK
10
62318.0
20
33628.0
11
62318.0
21
32978.0
0
LINE
8
BLACK
10
62318.0
20
32978.0
11
62768.0
21
32978.0
0
LINE
8
BLACK
10
61903.0
20
32987.0
11
61903.0
21
33637.0
0
LINE
8
BLACK
10
61903.0
20
33637.0
11
61453.0
21
33637.0
0
LINE
8
BLACK
10
61453.0
20
33637.0
11
61453.0
21
32987.0
0
LINE
8
BLACK
10
61453.0
20
32987.0
11
61903.0
21
32987.0
0
LINE
8
BLACK
10
61303.0
20
32987.0
11
61303.0
21
33637.0
0
LINE
8
BLACK
10
61303.0
20
33637.0
11
60853.0
21
33637.0
0
LINE
8
BLACK
10
60853.0
20
33637.0
11
60853.0
21
32987.0
0
LINE
8
BLACK
10
60853.0
20
32987.0
11
61303.0
21
32987.0
0
LINE
8
BLACK
10
52467.0
20
46243.0
11
52467.0
21
45593.0
0
LINE
8
BLACK
10
52467.0
20
45593.0
11
52917.0
21
45593.0
0
LINE
8
BLACK
10
52917.0
20
45593.0
11
52917.0
21
46243.0
0
LINE
8
BLACK
10
52917.0
20
46243.0
11
52467.0
21
46243.0
0
LINE
8
BLACK
10
53067.0
20
46243.0
11
53067.0
21
45593.0
0
LINE
8
BLACK
10
53067.0
20
45593.0
11
53517.0
21
45593.0
0
LINE
8
BLACK
10
53517.0
20
45593.0
11
53517.0
21
46243.0
0
LINE
8
BLACK
10
53517.0
20
46243.0
11
53067.0
21
46243.0
0
LINE
8
BLACK
10
64833.0
20
47408.0
11
64183.0
21
47408.0
0
LINE
8
BLACK
10
64183.0
20
47408.0
11
64183.0
21
46958.0
0
LINE
8
BLACK
10
64183.0
20
46958.0
11
64833.0
21
46958.0
0
LINE
8
BLACK
10
64833.0
20
46958.0
11
64833.0
21
47408.0
0
LINE
8
BLACK
10
64833.0
20
46808.0
11
64183.0
21
46808.0
0
LINE
8
BLACK
10
64183.0
20
46808.0
11
64183.0
21
46358.0
0
LINE
8
BLACK
10
64183.0
20
46358.0
11
64833.0
21
46358.0
0
LINE
8
BLACK
10
64833.0
20
46358.0
11
64833.0
21
46808.0
0
LINE
8
BLACK
10
48688.0
20
38920.0
11
48688.0
21
38270.0
0
LINE
8
BLACK
10
48688.0
20
38270.0
11
49138.0
21
38270.0
0
LINE
8
BLACK
10
49138.0
20
38270.0
11
49138.0
21
38920.0
0
LINE
8
BLACK
10
49138.0
20
38920.0
11
48688.0
21
38920.0
0
LINE
8
BLACK
10
49288.0
20
38920.0
11
49288.0
21
38270.0
0
LINE
8
BLACK
10
49288.0
20
38270.0
11
49738.0
21
38270.0
0
LINE
8
BLACK
10
49738.0
20
38270.0
11
49738.0
21
38920.0
0
LINE
8
BLACK
10
49738.0
20
38920.0
11
49288.0
21
38920.0
0
LINE
8
BLACK
10
64265.0
20
47306.0
11
64265.0
21
47956.0
0
LINE
8
BLACK
10
64265.0
20
47956.0
11
63815.0
21
47956.0
0
LINE
8
BLACK
10
63815.0
20
47956.0
11
63815.0
21
47306.0
0
LINE
8
BLACK
10
63815.0
20
47306.0
11
64265.0
21
47306.0
0
LINE
8
BLACK
10
63665.0
20
47306.0
11
63665.0
21
47956.0
0
LINE
8
BLACK
10
63665.0
20
47956.0
11
63215.0
21
47956.0
0
LINE
8
BLACK
10
63215.0
20
47956.0
11
63215.0
21
47306.0
0
LINE
8
BLACK
10
63215.0
20
47306.0
11
63665.0
21
47306.0
0
LINE
8
BLACK
10
57884.0
20
45275.0
11
58534.0
21
45275.0
0
LINE
8
BLACK
10
58534.0
20
45275.0
11
58534.0
21
45725.0
0
LINE
8
BLACK
10
58534.0
20
45725.0
11
57884.0
21
45725.0
0
LINE
8
BLACK
10
57884.0
20
45725.0
11
57884.0
21
45275.0
0
LINE
8
BLACK
10
57884.0
20
45875.0
11
58534.0
21
45875.0
0
LINE
8
BLACK
10
58534.0
20
45875.0
11
58534.0
21
46325.0
0
LINE
8
BLACK
10
58534.0
20
46325.0
11
57884.0
21
46325.0
0
LINE
8
BLACK
10
57884.0
20
46325.0
11
57884.0
21
45875.0
0
LINE
8
BLACK
10
51436.0
20
33164.0
11
51436.0
21
33814.0
0
LINE
8
BLACK
10
51436.0
20
33814.0
11
50986.0
21
33814.0
0
LINE
8
BLACK
10
50986.0
20
33814.0
11
50986.0
21
33164.0
0
LINE
8
BLACK
10
50986.0
20
33164.0
11
51436.0
21
33164.0
0
LINE
8
BLACK
10
50836.0
20
33164.0
11
50836.0
21
33814.0
0
LINE
8
BLACK
10
50836.0
20
33814.0
11
50386.0
21
33814.0
0
LINE
8
BLACK
10
50386.0
20
33814.0
11
50386.0
21
33164.0
0
LINE
8
BLACK
10
50386.0
20
33164.0
11
50836.0
21
33164.0
0
LINE
8
BLACK
10
60494.0
20
38723.0
11
60494.0
21
39373.0
0
LINE
8
BLACK
10
60494.0
20
39373.0
11
60044.0
21
39373.0
0
LINE
8
BLACK
10
60044.0
20
39373.0
11
60044.0
21
38723.0
0
LINE
8
BLACK
10
60044.0
20
38723.0
11
60494.0
21
38723.0
0
LINE
8
BLACK
10
59894.0
20
38723.0
11
59894.0
21
39373.0
0
LINE
8
BLACK
10
59894.0
20
39373.0
11
59444.0
21
39373.0
0
LINE
8
BLACK
10
59444.0
20
39373.0
11
59444.0
21
38723.0
0
LINE
8
BLACK
10
59444.0
20
38723.0
11
59894.0
21
38723.0
0
LINE
8
BLACK
10
65900.0
20
46570.0
11
65100.0
21
46570.0
0
LINE
8
BLACK
10
65100.0
20
46570.0
11
65100.0
21
45770.0
0
LINE
8
BLACK
10
65100.0
20
45770.0
11
65900.0
21
45770.0
0
LINE
8
BLACK
10
65900.0
20
45770.0
11
65900.0
21
46570.0
0
CIRCLE
8
BLACK
10
66500.0
20
46170.0
40
400
0
CIRCLE
8
BLACK
10
65500.0
20
45170.0
40
400
0
CIRCLE
8
BLACK
10
66500.0
20
45170.0
40
400
0
CIRCLE
8
BLACK
10
65500.0
20
44170.0
40
400
0
CIRCLE
8
BLACK
10
66500.0
20
44170.0
40
400
0
CIRCLE
8
BLACK
10
65500.0
20
43170.0
40
400
0
CIRCLE
8
BLACK
10
66500.0
20
43170.0
40
400
0
CIRCLE
8
BLACK
10
65500.0
20
42170.0
40
400
0
CIRCLE
8
BLACK
10
66500.0
20
42170.0
40
400
0
CIRCLE
8
BLACK
10
65500.0
20
41170.0
40
400
0
CIRCLE
8
BLACK
10
66500.0
20
41170.0
40
400
0
CIRCLE
8
BLACK
10
65500.0
20
40170.0
40
400
0
CIRCLE
8
BLACK
10
66500.0
20
40170.0
40
400
0
CIRCLE
8
BLACK
10
65500.0
20
39170.0
40
400
0
CIRCLE
8
BLACK
10
66500.0
20
39170.0
40
400
0
CIRCLE
8
BLACK
10
65500.0
20
38170.0
40
400
0
CIRCLE
8
BLACK
10
66500.0
20
38170.0
40
400
0
CIRCLE
8
BLACK
10
65500.0
20
37170.0
40
400
0
CIRCLE
8
BLACK
10
66500.0
20
37170.0
40
400
0
CIRCLE
8
BLACK
10
65500.0
20
36170.0
40
400
0
CIRCLE
8
BLACK
10
66500.0
20
36170.0
40
400
0
CIRCLE
8
BLACK
10
65500.0
20
35170.0
40
400
0
CIRCLE
8
BLACK
10
66500.0
20
35170.0
40
400
0
CIRCLE
8
BLACK
10
57607.0
20
28823.0
40
430
0
CIRCLE
8
BLACK
10
59377.0
20
28823.0
40
430
0
CIRCLE
8
BLACK
10
57107.0
20
29803.0
40
480
0
CIRCLE
8
BLACK
10
59867.0
20
29803.0
40
480
0
LINE
8
BLACK
10
50500.0
20
36988.0
11
49500.0
21
36988.0
0
LINE
8
BLACK
10
49500.0
20
36988.0
11
49500.0
21
36188.0
0
LINE
8
BLACK
10
49500.0
20
36188.0
11
50500.0
21
36188.0
0
LINE
8
BLACK
10
50500.0
20
36188.0
11
50500.0
21
36988.0
0
LINE
8
BLACK
10
50500.0
20
35688.0
11
49500.0
21
35688.0
0
LINE
8
BLACK
10
49500.0
20
35688.0
11
49500.0
21
34888.0
0
LINE
8
BLACK
10
49500.0
20
34888.0
11
50500.0
21
34888.0
0
LINE
8
BLACK
10
50500.0
20
34888.0
11
50500.0
21
35688.0
0
LINE
8
BLACK
10
52213.0
20
38543.0
11
52213.0
21
39293.0
0
LINE
8
BLACK
10
52213.0
20
39293.0
11
51663.0
21
39293.0
0
LINE
8
BLACK
10
51663.0
20
39293.0
11
51663.0
21
38543.0
0
LINE
8
BLACK
10
51663.0
20
38543.0
11
52213.0
21
38543.0
0
LINE
8
BLACK
10
51463.0
20
38543.0
11
51463.0
21
39293.0
0
LINE
8
BLACK
10
51463.0
20
39293.0
11
50913.0
21
39293.0
0
LINE
8
BLACK
10
50913.0
20
39293.0
11
50913.0
21
38543.0
0
LINE
8
BLACK
10
50913.0
20
38543.0
11
51463.0
21
38543.0
0
LINE
8
BLACK
10
51860.0
20
46850.0
11
52510.0
21
46850.0
0
LINE
8
BLACK
10
52510.0
20
46850.0
11
52510.0
21
47300.0
0
LINE
8
BLACK
10
52510.0
20
47300.0
11
51860.0
21
47300.0
0
LINE
8
BLACK
10
51860.0
20
47300.0
11
51860.0
21
46850.0
0
LINE
8
BLACK
10
51860.0
20
47450.0
11
52510.0
21
47450.0
0
LINE
8
BLACK
10
52510.0
20
47450.0
11
52510.0
21
47900.0
0
LINE
8
BLACK
10
52510.0
20
47900.0
11
51860.0
21
47900.0
0
LINE
8
BLACK
10
51860.0
20
47900.0
11
51860.0
21
47450.0
0
LINE
8
BLACK
10
51151.0
20
46633.0
11
51801.0
21
46633.0
0
LINE
8
BLACK
10
51801.0
20
46633.0
11
51801.0
21
47083.0
0
LINE
8
BLACK
10
51801.0
20
47083.0
11
51151.0
21
47083.0
0
LINE
8
BLACK
10
51151.0
20
47083.0
11
51151.0
21
46633.0
0
LINE
8
BLACK
10
51151.0
20
47233.0
11
51801.0
21
47233.0
0
LINE
8
BLACK
10
51801.0
20
47233.0
11
51801.0
21
47683.0
0
LINE
8
BLACK
10
51801.0
20
47683.0
11
51151.0
21
47683.0
0
LINE
8
BLACK
10
51151.0
20
47683.0
11
51151.0
21
47233.0
0
LINE
8
BLACK
10
54206.0
20
47778.0
11
54206.0
21
48428.0
0
LINE
8
BLACK
10
54206.0
20
48428.0
11
53756.0
21
48428.0
0
LINE
8
BLACK
10
53756.0
20
48428.0
11
53756.0
21
47778.0
0
LINE
8
BLACK
10
53756.0
20
47778.0
11
54206.0
21
47778.0
0
LINE
8
BLACK
10
53606.0
20
47778.0
11
53606.0
21
48428.0
0
LINE
8
BLACK
10
53606.0
20
48428.0
11
53156.0
21
48428.0
0
LINE
8
BLACK
10
53156.0
20
48428.0
11
53156.0
21
47778.0
0
LINE
8
BLACK
10
53156.0
20
47778.0
11
53606.0
21
47778.0
0
LINE
8
BLACK
10
54206.0
20
47128.0
11
54206.0
21
47778.0
0
LINE
8
BLACK
10
54206.0
20
47778.0
11
53756.0
21
47778.0
0
LINE
8
BLACK
10
53756.0
20
47778.0
11
53756.0
21
47128.0
0
LINE
8
BLACK
10
53756.0
20
47128.0
11
54206.0
21
47128.0
0
LINE
8
BLACK
10
53606.0
20
47128.0
11
53606.0
21
47778.0
0
LINE
8
BLACK
10
53606.0
20
47778.0
11
53156.0
21
47778.0
0
LINE
8
BLACK
10
53156.0
20
47778.0
11
53156.0
21
47128.0
0
LINE
8
BLACK
10
53156.0
20
47128.0
11
53606.0
21
47128.0
0
LINE
8
BLACK
10
54337.0
20
47778.0
11
54337.0
21
47128.0
0
LINE
8
BLACK
10
54337.0
20
47128.0
11
54787.0
21
47128.0
0
LINE
8
BLACK
10
54787.0
20
47128.0
11
54787.0
21
47778.0
0
LINE
8
BLACK
10
54787.0
20
47778.0
11
54337.0
21
47778.0
0
LINE
8
BLACK
10
54937.0
20
47778.0
11
54937.0
21
47128.0
0
LINE
8
BLACK
10
54937.0
20
47128.0
11
55387.0
21
47128.0
0
LINE
8
BLACK
10
55387.0
20
47128.0
11
55387.0
21
47778.0
0
LINE
8
BLACK
10
55387.0
20
47778.0
11
54937.0
21
47778.0
0
LINE
8
BLACK
10
56109.0
20
48152.0
11
56109.0
21
47502.0
0
LINE
8
BLACK
10
56109.0
20
47502.0
11
56559.0
21
47502.0
0
LINE
8
BLACK
10
56559.0
20
47502.0
11
56559.0
21
48152.0
0
LINE
8
BLACK
10
56559.0
20
48152.0
11
56109.0
21
48152.0
0
LINE
8
BLACK
10
56709.0
20
48152.0
11
56709.0
21
47502.0
0
LINE
8
BLACK
10
56709.0
20
47502.0
11
57159.0
21
47502.0
0
LINE
8
BLACK
10
57159.0
20
47502.0
11
57159.0
21
48152.0
0
LINE
8
BLACK
10
57159.0
20
48152.0
11
56709.0
21
48152.0
0
LINE
8
BLACK
10
58534.0
20
47742.0
11
57884.0
21
47742.0
0
LINE
8
BLACK
10
57884.0
20
47742.0
11
57884.0
21
47292.0
0
LINE
8
BLACK
10
57884.0
20
47292.0
11
58534.0
21
47292.0
0
LINE
8
BLACK
10
58534.0
20
47292.0
11
58534.0
21
47742.0
0
LINE
8
BLACK
10
58534.0
20
47142.0
11
57884.0
21
47142.0
0
LINE
8
BLACK
10
57884.0
20
47142.0
11
57884.0
21
46692.0
0
LINE
8
BLACK
10
57884.0
20
46692.0
11
58534.0
21
46692.0
0
LINE
8
BLACK
10
58534.0
20
46692.0
11
58534.0
21
47142.0
0
LINE
8
BLACK
10
56762.0
20
45747.0
11
57412.0
21
45747.0
0
LINE
8
BLACK
10
57412.0
20
45747.0
11
57412.0
21
46197.0
0
LINE
8
BLACK
10
57412.0
20
46197.0
11
56762.0
21
46197.0
0
LINE
8
BLACK
10
56762.0
20
46197.0
11
56762.0
21
45747.0
0
LINE
8
BLACK
10
56762.0
20
46347.0
11
57412.0
21
46347.0
0
LINE
8
BLACK
10
57412.0
20
46347.0
11
57412.0
21
46797.0
0
LINE
8
BLACK
10
57412.0
20
46797.0
11
56762.0
21
46797.0
0
LINE
8
BLACK
10
56762.0
20
46797.0
11
56762.0
21
46347.0
0
LINE
8
BLACK
10
55801.0
20
45711.0
11
55801.0
21
46361.0
0
LINE
8
BLACK
10
55801.0
20
46361.0
11
55351.0
21
46361.0
0
LINE
8
BLACK
10
55351.0
20
46361.0
11
55351.0
21
45711.0
0
LINE
8
BLACK
10
55351.0
20
45711.0
11
55801.0
21
45711.0
0
LINE
8
BLACK
10
55201.0
20
45711.0
11
55201.0
21
46361.0
0
LINE
8
BLACK
10
55201.0
20
46361.0
11
54751.0
21
46361.0
0
LINE
8
BLACK
10
54751.0
20
46361.0
11
54751.0
21
45711.0
0
LINE
8
BLACK
10
54751.0
20
45711.0
11
55201.0
21
45711.0
0
LINE
8
BLACK
10
58640.0
20
47011.0
11
59290.0
21
47011.0
0
LINE
8
BLACK
10
59290.0
20
47011.0
11
59290.0
21
47461.0
0
LINE
8
BLACK
10
59290.0
20
47461.0
11
58640.0
21
47461.0
0
LINE
8
BLACK
10
58640.0
20
47461.0
11
58640.0
21
47011.0
0
LINE
8
BLACK
10
58640.0
20
47611.0
11
59290.0
21
47611.0
0
LINE
8
BLACK
10
59290.0
20
47611.0
11
59290.0
21
48061.0
0
LINE
8
BLACK
10
59290.0
20
48061.0
11
58640.0
21
48061.0
0
LINE
8
BLACK
10
58640.0
20
48061.0
11
58640.0
21
47611.0
0
LINE
8
BLACK
10
62350.0
20
38534.0
11
61700.0
21
38534.0
0
LINE
8
BLACK
10
61700.0
20
38534.0
11
61700.0
21
38084.0
0
LINE
8
BLACK
10
61700.0
20
38084.0
11
62350.0
21
38084.0
0
LINE
8
BLACK
10
62350.0
20
38084.0
11
62350.0
21
38534.0
0
LINE
8
BLACK
10
62350.0
20
37934.0
11
61700.0
21
37934.0
0
LINE
8
BLACK
10
61700.0
20
37934.0
11
61700.0
21
37484.0
0
LINE
8
BLACK
10
61700.0
20
37484.0
11
62350.0
21
37484.0
0
LINE
8
BLACK
10
62350.0
20
37484.0
11
62350.0
21
37934.0
0
LINE
8
BLACK
10
64030.0
20
36365.0
11
63380.0
21
36365.0
0
LINE
8
BLACK
10
63380.0
20
36365.0
11
63380.0
21
35915.0
0
LINE
8
BLACK
10
63380.0
20
35915.0
11
64030.0
21
35915.0
0
LINE
8
BLACK
10
64030.0
20
35915.0
11
64030.0
21
36365.0
0
LINE
8
BLACK
10
64030.0
20
35765.0
11
63380.0
21
35765.0
0
LINE
8
BLACK
10
63380.0
20
35765.0
11
63380.0
21
35315.0
0
LINE
8
BLACK
10
63380.0
20
35315.0
11
64030.0
21
35315.0
0
LINE
8
BLACK
10
64030.0
20
35315.0
11
64030.0
21
35765.0
0
LINE
8
BLACK
10
61700.0
20
38452.0
11
62350.0
21
38452.0
0
LINE
8
BLACK
10
62350.0
20
38452.0
11
62350.0
21
38902.0
0
LINE
8
BLACK
10
62350.0
20
38902.0
11
61700.0
21
38902.0
0
LINE
8
BLACK
10
61700.0
20
38902.0
11
61700.0
21
38452.0
0
LINE
8
BLACK
10
61700.0
20
39052.0
11
62350.0
21
39052.0
0
LINE
8
BLACK
10
62350.0
20
39052.0
11
62350.0
21
39502.0
0
LINE
8
BLACK
10
62350.0
20
39502.0
11
61700.0
21
39502.0
0
LINE
8
BLACK
10
61700.0
20
39502.0
11
61700.0
21
39052.0
0
LINE
8
BLACK
10
63632.0
20
41535.0
11
64282.0
21
41535.0
0
LINE
8
BLACK
10
64282.0
20
41535.0
11
64282.0
21
41985.0
0
LINE
8
BLACK
10
64282.0
20
41985.0
11
63632.0
21
41985.0
0
LINE
8
BLACK
10
63632.0
20
41985.0
11
63632.0
21
41535.0
0
LINE
8
BLACK
10
63632.0
20
42135.0
11
64282.0
21
42135.0
0
LINE
8
BLACK
10
64282.0
20
42135.0
11
64282.0
21
42585.0
0
LINE
8
BLACK
10
64282.0
20
42585.0
11
63632.0
21
42585.0
0
LINE
8
BLACK
10
63632.0
20
42585.0
11
63632.0
21
42135.0
0
LINE
8
BLACK
10
64029.0
20
37478.0
11
63379.0
21
37478.0
0
LINE
8
BLACK
10
63379.0
20
37478.0
11
63379.0
21
37028.0
0
LINE
8
BLACK
10
63379.0
20
37028.0
11
64029.0
21
37028.0
0
LINE
8
BLACK
10
64029.0
20
37028.0
11
64029.0
21
37478.0
0
LINE
8
BLACK
10
64029.0
20
36878.0
11
63379.0
21
36878.0
0
LINE
8
BLACK
10
63379.0
20
36878.0
11
63379.0
21
36428.0
0
LINE
8
BLACK
10
63379.0
20
36428.0
11
64029.0
21
36428.0
0
LINE
8
BLACK
10
64029.0
20
36428.0
11
64029.0
21
36878.0
0
LINE
8
BLACK
10
55635.0
20
33628.0
11
55635.0
21
34278.0
0
LINE
8
BLACK
10
55635.0
20
34278.0
11
55185.0
21
34278.0
0
LINE
8
BLACK
10
55185.0
20
34278.0
11
55185.0
21
33628.0
0
LINE
8
BLACK
10
55185.0
20
33628.0
11
55635.0
21
33628.0
0
LINE
8
BLACK
10
55035.0
20
33628.0
11
55035.0
21
34278.0
0
LINE
8
BLACK
10
55035.0
20
34278.0
11
54585.0
21
34278.0
0
LINE
8
BLACK
10
54585.0
20
34278.0
11
54585.0
21
33628.0
0
LINE
8
BLACK
10
54585.0
20
33628.0
11
55035.0
21
33628.0
0
LINE
8
BLACK
10
55635.0
20
34199.0
11
55635.0
21
34849.0
0
LINE
8
BLACK
10
55635.0
20
34849.0
11
55185.0
21
34849.0
0
LINE
8
BLACK
10
55185.0
20
34849.0
11
55185.0
21
34199.0
0
LINE
8
BLACK
10
55185.0
20
34199.0
11
55635.0
21
34199.0
0
LINE
8
BLACK
10
55035.0
20
34199.0
11
55035.0
21
34849.0
0
LINE
8
BLACK
10
55035.0
20
34849.0
11
54585.0
21
34849.0
0
LINE
8
BLACK
10
54585.0
20
34849.0
11
54585.0
21
34199.0
0
LINE
8
BLACK
10
54585.0
20
34199.0
11
55035.0
21
34199.0
0
LINE
8
BLACK
10
55635.0
20
34774.0
11
55635.0
21
35424.0
0
LINE
8
BLACK
10
55635.0
20
35424.0
11
55185.0
21
35424.0
0
LINE
8
BLACK
10
55185.0
20
35424.0
11
55185.0
21
34774.0
0
LINE
8
BLACK
10
55185.0
20
34774.0
11
55635.0
21
34774.0
0
LINE
8
BLACK
10
55035.0
20
34774.0
11
55035.0
21
35424.0
0
LINE
8
BLACK
10
55035.0
20
35424.0
11
54585.0
21
35424.0
0
LINE
8
BLACK
10
54585.0
20
35424.0
11
54585.0
21
34774.0
0
LINE
8
BLACK
10
54585.0
20
34774.0
11
55035.0
21
34774.0
0
LINE
8
BLACK
10
52734.0
20
37345.0
11
52084.0
21
37345.0
0
LINE
8
BLACK
10
52084.0
20
37345.0
11
52084.0
21
36895.0
0
LINE
8
BLACK
10
52084.0
20
36895.0
11
52734.0
21
36895.0
0
LINE
8
BLACK
10
52734.0
20
36895.0
11
52734.0
21
37345.0
0
LINE
8
BLACK
10
52734.0
20
36745.0
11
52084.0
21
36745.0
0
LINE
8
BLACK
10
52084.0
20
36745.0
11
52084.0
21
36295.0
0
LINE
8
BLACK
10
52084.0
20
36295.0
11
52734.0
21
36295.0
0
LINE
8
BLACK
10
52734.0
20
36295.0
11
52734.0
21
36745.0
0
LINE
8
BLACK
10
51588.0
20
36290.0
11
51588.0
21
36940.0
0
LINE
8
BLACK
10
51588.0
20
36940.0
11
51138.0
21
36940.0
0
LINE
8
BLACK
10
51138.0
20
36940.0
11
51138.0
21
36290.0
0
LINE
8
BLACK
10
51138.0
20
36290.0
11
51588.0
21
36290.0
0
LINE
8
BLACK
10
50988.0
20
36290.0
11
50988.0
21
36940.0
0
LINE
8
BLACK
10
50988.0
20
36940.0
11
50538.0
21
36940.0
0
LINE
8
BLACK
10
50538.0
20
36940.0
11
50538.0
21
36290.0
0
LINE
8
BLACK
10
50538.0
20
36290.0
11
50988.0
21
36290.0
0
LINE
8
BLACK
10
51510.0
20
36295.0
11
52160.0
21
36295.0
0
LINE
8
BLACK
10
52160.0
20
36295.0
11
52160.0
21
36745.0
0
LINE
8
BLACK
10
52160.0
20
36745.0
11
51510.0
21
36745.0
0
LINE
8
BLACK
10
51510.0
20
36745.0
11
51510.0
21
36295.0
0
LINE
8
BLACK
10
51510.0
20
36895.0
11
52160.0
21
36895.0
0
LINE
8
BLACK
10
52160.0
20
36895.0
11
52160.0
21
37345.0
0
LINE
8
BLACK
10
52160.0
20
37345.0
11
51510.0
21
37345.0
0
LINE
8
BLACK
10
51510.0
20
37345.0
11
51510.0
21
36895.0
0
LINE
8
BLACK
10
54490.0
20
36986.0
11
53840.0
21
36986.0
0
LINE
8
BLACK
10
53840.0
20
36986.0
11
53840.0
21
36536.0
0
LINE
8
BLACK
10
53840.0
20
36536.0
11
54490.0
21
36536.0
0
LINE
8
BLACK
10
54490.0
20
36536.0
11
54490.0
21
36986.0
0
LINE
8
BLACK
10
54490.0
20
36386.0
11
53840.0
21
36386.0
0
LINE
8
BLACK
10
53840.0
20
36386.0
11
53840.0
21
35936.0
0
LINE
8
BLACK
10
53840.0
20
35936.0
11
54490.0
21
35936.0
0
LINE
8
BLACK
10
54490.0
20
35936.0
11
54490.0
21
36386.0
0
LINE
8
BLACK
10
56065.0
20
38270.0
11
55415.0
21
38270.0
0
LINE
8
BLACK
10
55415.0
20
38270.0
11
55415.0
21
37820.0
0
LINE
8
BLACK
10
55415.0
20
37820.0
11
56065.0
21
37820.0
0
LINE
8
BLACK
10
56065.0
20
37820.0
11
56065.0
21
38270.0
0
LINE
8
BLACK
10
56065.0
20
37670.0
11
55415.0
21
37670.0
0
LINE
8
BLACK
10
55415.0
20
37670.0
11
55415.0
21
37220.0
0
LINE
8
BLACK
10
55415.0
20
37220.0
11
56065.0
21
37220.0
0
LINE
8
BLACK
10
56065.0
20
37220.0
11
56065.0
21
37670.0
0
LINE
8
BLACK
10
65900.0
20
34570.0
11
65100.0
21
34570.0
0
LINE
8
BLACK
10
65100.0
20
34570.0
11
65100.0
21
33770.0
0
LINE
8
BLACK
10
65100.0
20
33770.0
11
65900.0
21
33770.0
0
LINE
8
BLACK
10
65900.0
20
33770.0
11
65900.0
21
34570.0
0
CIRCLE
8
BLACK
10
66500.0
20
34170.0
40
400
0
CIRCLE
8
BLACK
10
65500.0
20
33170.0
40
400
0
CIRCLE
8
BLACK
10
66500.0
20
33170.0
40
400
0
CIRCLE
8
BLACK
10
65500.0
20
32170.0
40
400
0
CIRCLE
8
BLACK
10
66500.0
20
32170.0
40
400
0
CIRCLE
8
BLACK
10
65500.0
20
31170.0
40
400
0
CIRCLE
8
BLACK
10
66500.0
20
31170.0
40
400
0
LINE
8
BLACK
10
64100.0
20
34770.0
11
64900.0
21
34770.0
0
LINE
8
BLACK
10
64900.0
20
34770.0
11
64900.0
21
35570.0
0
LINE
8
BLACK
10
64900.0
20
35570.0
11
64100.0
21
35570.0
0
LINE
8
BLACK
10
64100.0
20
35570.0
11
64100.0
21
34770.0
0
CIRCLE
8
BLACK
10
64500.0
20
36170.0
40
400
0
LINE
8
BLACK
10
64100.0
20
36770.0
11
64900.0
21
36770.0
0
LINE
8
BLACK
10
64900.0
20
36770.0
11
64900.0
21
37570.0
0
LINE
8
BLACK
10
64900.0
20
37570.0
11
64100.0
21
37570.0
0
LINE
8
BLACK
10
64100.0
20
37570.0
11
64100.0
21
36770.0
0
CIRCLE
8
BLACK
10
64500.0
20
38170.0
40
400
0
LINE
8
BLACK
10
47900.0
20
33770.0
11
47900.0
21
34570.0
0
LINE
8
BLACK
10
47900.0
20
34570.0
11
47100.0
21
34570.0
0
LINE
8
BLACK
10
47100.0
20
34570.0
11
47100.0
21
33770.0
0
LINE
8
BLACK
10
47100.0
20
33770.0
11
47900.0
21
33770.0
0
CIRCLE
8
BLACK
10
46500.0
20
34170.0
40
400
0
LINE
8
BLACK
10
47900.0
20
32770.0
11
47900.0
21
33570.0
0
LINE
8
BLACK
10
47900.0
20
33570.0
11
47100.0
21
33570.0
0
LINE
8
BLACK
10
47100.0
20
33570.0
11
47100.0
21
32770.0
0
LINE
8
BLACK
10
47100.0
20
32770.0
11
47900.0
21
32770.0
0
CIRCLE
8
BLACK
10
46500.0
20
33170.0
40
400
0
LINE
8
BLACK
10
63251.0
20
39397.0
11
62451.0
21
39397.0
0
LINE
8
BLACK
10
62451.0
20
39397.0
11
62451.0
21
38597.0
0
LINE
8
BLACK
10
62451.0
20
38597.0
11
63251.0
21
38597.0
0
LINE
8
BLACK
10
63251.0
20
38597.0
11
63251.0
21
39397.0
0
CIRCLE
8
BLACK
10
62851.0
20
37997.0
40
400
0
LINE
8
BLACK
10
64029.0
20
38443.0
11
63379.0
21
38443.0
0
LINE
8
BLACK
10
63379.0
20
38443.0
11
63379.0
21
37993.0
0
LINE
8
BLACK
10
63379.0
20
37993.0
11
64029.0
21
37993.0
0
LINE
8
BLACK
10
64029.0
20
37993.0
11
64029.0
21
38443.0
0
LINE
8
BLACK
10
64029.0
20
37843.0
11
63379.0
21
37843.0
0
LINE
8
BLACK
10
63379.0
20
37843.0
11
63379.0
21
37393.0
0
LINE
8
BLACK
10
63379.0
20
37393.0
11
64029.0
21
37393.0
0
LINE
8
BLACK
10
64029.0
20
37393.0
11
64029.0
21
37843.0
0
LINE
8
BLACK
10
58251.0
20
39731.0
11
58251.0
21
39081.0
0
LINE
8
BLACK
10
58251.0
20
39081.0
11
58701.0
21
39081.0
0
LINE
8
BLACK
10
58701.0
20
39081.0
11
58701.0
21
39731.0
0
LINE
8
BLACK
10
58701.0
20
39731.0
11
58251.0
21
39731.0
0
LINE
8
BLACK
10
58851.0
20
39731.0
11
58851.0
21
39081.0
0
LINE
8
BLACK
10
58851.0
20
39081.0
11
59301.0
21
39081.0
0
LINE
8
BLACK
10
59301.0
20
39081.0
11
59301.0
21
39731.0
0
LINE
8
BLACK
10
59301.0
20
39731.0
11
58851.0
21
39731.0
0
LINE
8
BLACK
10
63384.0
20
34347.0
11
64034.0
21
34347.0
0
LINE
8
BLACK
10
64034.0
20
34347.0
11
64034.0
21
34797.0
0
LINE
8
BLACK
10
64034.0
20
34797.0
11
63384.0
21
34797.0
0
LINE
8
BLACK
10
63384.0
20
34797.0
11
63384.0
21
34347.0
0
LINE
8
BLACK
10
63384.0
20
34947.0
11
64034.0
21
34947.0
0
LINE
8
BLACK
10
64034.0
20
34947.0
11
64034.0
21
35397.0
0
LINE
8
BLACK
10
64034.0
20
35397.0
11
63384.0
21
35397.0
0
LINE
8
BLACK
10
63384.0
20
35397.0
11
63384.0
21
34947.0
0
LINE
8
BLACK
10
61490.0
20
38723.0
11
61490.0
21
39373.0
0
LINE
8
BLACK
10
61490.0
20
39373.0
11
61040.0
21
39373.0
0
LINE
8
BLACK
10
61040.0
20
39373.0
11
61040.0
21
38723.0
0
LINE
8
BLACK
10
61040.0
20
38723.0
11
61490.0
21
38723.0
0
LINE
8
BLACK
10
60890.0
20
38723.0
11
60890.0
21
39373.0
0
LINE
8
BLACK
10
60890.0
20
39373.0
11
60440.0
21
39373.0
0
LINE
8
BLACK
10
60440.0
20
39373.0
11
60440.0
21
38723.0
0
LINE
8
BLACK
10
60440.0
20
38723.0
11
60890.0
21
38723.0
0
LINE
8
BLACK
10
59672.0
20
34163.0
11
60372.0
21
34163.0
0
LINE
8
BLACK
10
60372.0
20
34163.0
11
60372.0
21
34523.0
0
LINE
8
BLACK
10
60372.0
20
34523.0
11
59672.0
21
34523.0
0
LINE
8
BLACK
10
59672.0
20
34523.0
11
59672.0
21
34163.0
0
LINE
8
BLACK
10
59672.0
20
34413.0
11
60372.0
21
34413.0
0
LINE
8
BLACK
10
60372.0
20
34413.0
11
60372.0
21
34773.0
0
LINE
8
BLACK
10
60372.0
20
34773.0
11
59672.0
21
34773.0
0
LINE
8
BLACK
10
59672.0
20
34773.0
11
59672.0
21
34413.0
0
LINE
8
BLACK
10
59672.0
20
34673.0
11
60372.0
21
34673.0
0
LINE
8
BLACK
10
60372.0
20
34673.0
11
60372.0
21
35033.0
0
LINE
8
BLACK
10
60372.0
20
35033.0
11
59672.0
21
35033.0
0
LINE
8
BLACK
10
59672.0
20
35033.0
11
59672.0
21
34673.0
0
LINE
8
BLACK
10
59672.0
20
34933.0
11
60372.0
21
34933.0
0
LINE
8
BLACK
10
60372.0
20
34933.0
11
60372.0
21
35293.0
0
LINE
8
BLACK
10
60372.0
20
35293.0
11
59672.0
21
35293.0
0
LINE
8
BLACK
10
59672.0
20
35293.0
11
59672.0
21
34933.0
0
LINE
8
BLACK
10
59672.0
20
35183.0
11
60372.0
21
35183.0
0
LINE
8
BLACK
10
60372.0
20
35183.0
11
60372.0
21
35543.0
0
LINE
8
BLACK
10
60372.0
20
35543.0
11
59672.0
21
35543.0
0
LINE
8
BLACK
10
59672.0
20
35543.0
11
59672.0
21
35183.0
0
LINE
8
BLACK
10
59672.0
20
35443.0
11
60372.0
21
35443.0
0
LINE
8
BLACK
10
60372.0
20
35443.0
11
60372.0
21
35803.0
0
LINE
8
BLACK
10
60372.0
20
35803.0
11
59672.0
21
35803.0
0
LINE
8
BLACK
10
59672.0
20
35803.0
11
59672.0
21
35443.0
0
LINE
8
BLACK
10
59672.0
20
35703.0
11
60372.0
21
35703.0
0
LINE
8
BLACK
10
60372.0
20
35703.0
11
60372.0
21
36063.0
0
LINE
8
BLACK
10
60372.0
20
36063.0
11
59672.0
21
36063.0
0
LINE
8
BLACK
10
59672.0
20
36063.0
11
59672.0
21
35703.0
0
LINE
8
BLACK
10
59672.0
20
35953.0
11
60372.0
21
35953.0
0
LINE
8
BLACK
10
60372.0
20
35953.0
11
60372.0
21
36313.0
0
LINE
8
BLACK
10
60372.0
20
36313.0
11
59672.0
21
36313.0
0
LINE
8
BLACK
10
59672.0
20
36313.0
11
59672.0
21
35953.0
0
LINE
8
BLACK
10
59672.0
20
36213.0
11
60372.0
21
36213.0
0
LINE
8
BLACK
10
60372.0
20
36213.0
11
60372.0
21
36573.0
0
LINE
8
BLACK
10
60372.0
20
36573.0
11
59672.0
21
36573.0
0
LINE
8
BLACK
10
59672.0
20
36573.0
11
59672.0
21
36213.0
0
LINE
8
BLACK
10
59672.0
20
36463.0
11
60372.0
21
36463.0
0
LINE
8
BLACK
10
60372.0
20
36463.0
11
60372.0
21
36823.0
0
LINE
8
BLACK
10
60372.0
20
36823.0
11
59672.0
21
36823.0
0
LINE
8
BLACK
10
59672.0
20
36823.0
11
59672.0
21
36463.0
0
LINE
8
BLACK
10
59672.0
20
36723.0
11
60372.0
21
36723.0
0
LINE
8
BLACK
10
60372.0
20
36723.0
11
60372.0
21
37083.0
0
LINE
8
BLACK
10
60372.0
20
37083.0
11
59672.0
21
37083.0
0
LINE
8
BLACK
10
59672.0
20
37083.0
11
59672.0
21
36723.0
0
LINE
8
BLACK
10
59672.0
20
36983.0
11
60372.0
21
36983.0
0
LINE
8
BLACK
10
60372.0
20
36983.0
11
60372.0
21
37343.0
0
LINE
8
BLACK
10
60372.0
20
37343.0
11
59672.0
21
37343.0
0
LINE
8
BLACK
10
59672.0
20
37343.0
11
59672.0
21
36983.0
0
LINE
8
BLACK
10
59672.0
20
37233.0
11
60372.0
21
37233.0
0
LINE
8
BLACK
10
60372.0
20
37233.0
11
60372.0
21
37593.0
0
LINE
8
BLACK
10
60372.0
20
37593.0
11
59672.0
21
37593.0
0
LINE
8
BLACK
10
59672.0
20
37593.0
11
59672.0
21
37233.0
0
LINE
8
BLACK
10
59672.0
20
37493.0
11
60372.0
21
37493.0
0
LINE
8
BLACK
10
60372.0
20
37493.0
11
60372.0
21
37853.0
0
LINE
8
BLACK
10
60372.0
20
37853.0
11
59672.0
21
37853.0
0
LINE
8
BLACK
10
59672.0
20
37853.0
11
59672.0
21
37493.0
0
LINE
8
BLACK
10
56872.0
20
37493.0
11
57572.0
21
37493.0
0
LINE
8
BLACK
10
57572.0
20
37493.0
11
57572.0
21
37853.0
0
LINE
8
BLACK
10
57572.0
20
37853.0
11
56872.0
21
37853.0
0
LINE
8
BLACK
10
56872.0
20
37853.0
11
56872.0
21
37493.0
0
LINE
8
BLACK
10
56872.0
20
37233.0
11
57572.0
21
37233.0
0
LINE
8
BLACK
10
57572.0
20
37233.0
11
57572.0
21
37593.0
0
LINE
8
BLACK
10
57572.0
20
37593.0
11
56872.0
21
37593.0
0
LINE
8
BLACK
10
56872.0
20
37593.0
11
56872.0
21
37233.0
0
LINE
8
BLACK
10
56872.0
20
36993.0
11
57572.0
21
36993.0
0
LINE
8
BLACK
10
57572.0
20
36993.0
11
57572.0
21
37353.0
0
LINE
8
BLACK
10
57572.0
20
37353.0
11
56872.0
21
37353.0
0
LINE
8
BLACK
10
56872.0
20
37353.0
11
56872.0
21
36993.0
0
LINE
8
BLACK
10
56872.0
20
36723.0
11
57572.0
21
36723.0
0
LINE
8
BLACK
10
57572.0
20
36723.0
11
57572.0
21
37083.0
0
LINE
8
BLACK
10
57572.0
20
37083.0
11
56872.0
21
37083.0
0
LINE
8
BLACK
10
56872.0
20
37083.0
11
56872.0
21
36723.0
0
LINE
8
BLACK
10
56872.0
20
36463.0
11
57572.0
21
36463.0
0
LINE
8
BLACK
10
57572.0
20
36463.0
11
57572.0
21
36823.0
0
LINE
8
BLACK
10
57572.0
20
36823.0
11
56872.0
21
36823.0
0
LINE
8
BLACK
10
56872.0
20
36823.0
11
56872.0
21
36463.0
0
LINE
8
BLACK
10
56872.0
20
36213.0
11
57572.0
21
36213.0
0
LINE
8
BLACK
10
57572.0
20
36213.0
11
57572.0
21
36573.0
0
LINE
8
BLACK
10
57572.0
20
36573.0
11
56872.0
21
36573.0
0
LINE
8
BLACK
10
56872.0
20
36573.0
11
56872.0
21
36213.0
0
LINE
8
BLACK
10
56872.0
20
35953.0
11
57572.0
21
35953.0
0
LINE
8
BLACK
10
57572.0
20
35953.0
11
57572.0
21
36313.0
0
LINE
8
BLACK
10
57572.0
20
36313.0
11
56872.0
21
36313.0
0
LINE
8
BLACK
10
56872.0
20
36313.0
11
56872.0
21
35953.0
0
LINE
8
BLACK
10
56872.0
20
35703.0
11
57572.0
21
35703.0
0
LINE
8
BLACK
10
57572.0
20
35703.0
11
57572.0
21
36063.0
0
LINE
8
BLACK
10
57572.0
20
36063.0
11
56872.0
21
36063.0
0
LINE
8
BLACK
10
56872.0
20
36063.0
11
56872.0
21
35703.0
0
LINE
8
BLACK
10
56872.0
20
35443.0
11
57572.0
21
35443.0
0
LINE
8
BLACK
10
57572.0
20
35443.0
11
57572.0
21
35803.0
0
LINE
8
BLACK
10
57572.0
20
35803.0
11
56872.0
21
35803.0
0
LINE
8
BLACK
10
56872.0
20
35803.0
11
56872.0
21
35443.0
0
LINE
8
BLACK
10
56872.0
20
35183.0
11
57572.0
21
35183.0
0
LINE
8
BLACK
10
57572.0
20
35183.0
11
57572.0
21
35543.0
0
LINE
8
BLACK
10
57572.0
20
35543.0
11
56872.0
21
35543.0
0
LINE
8
BLACK
10
56872.0
20
35543.0
11
56872.0
21
35183.0
0
LINE
8
BLACK
10
56872.0
20
34933.0
11
57572.0
21
34933.0
0
LINE
8
BLACK
10
57572.0
20
34933.0
11
57572.0
21
35293.0
0
LINE
8
BLACK
10
57572.0
20
35293.0
11
56872.0
21
35293.0
0
LINE
8
BLACK
10
56872.0
20
35293.0
11
56872.0
21
34933.0
0
LINE
8
BLACK
10
56872.0
20
34673.0
11
57572.0
21
34673.0
0
LINE
8
BLACK
10
57572.0
20
34673.0
11
57572.0
21
35033.0
0
LINE
8
BLACK
10
57572.0
20
35033.0
11
56872.0
21
35033.0
0
LINE
8
BLACK
10
56872.0
20
35033.0
11
56872.0
21
34673.0
0
LINE
8
BLACK
10
56872.0
20
34413.0
11
57572.0
21
34413.0
0
LINE
8
BLACK
10
57572.0
20
34413.0
11
57572.0
21
34773.0
0
LINE
8
BLACK
10
57572.0
20
34773.0
11
56872.0
21
34773.0
0
LINE
8
BLACK
10
56872.0
20
34773.0
11
56872.0
21
34413.0
0
LINE
8
BLACK
10
56872.0
20
34163.0
11
57572.0
21
34163.0
0
LINE
8
BLACK
10
57572.0
20
34163.0
11
57572.0
21
34523.0
0
LINE
8
BLACK
10
57572.0
20
34523.0
11
56872.0
21
34523.0
0
LINE
8
BLACK
10
56872.0
20
34523.0
11
56872.0
21
34163.0
0
LINE
8
BLACK
10
60368.0
20
33661.0
11
61018.0
21
33661.0
0
LINE
8
BLACK
10
61018.0
20
33661.0
11
61018.0
21
34111.0
0
LINE
8
BLACK
10
61018.0
20
34111.0
11
60368.0
21
34111.0
0
LINE
8
BLACK
10
60368.0
20
34111.0
11
60368.0
21
33661.0
0
LINE
8
BLACK
10
60368.0
20
34261.0
11
61018.0
21
34261.0
0
LINE
8
BLACK
10
61018.0
20
34261.0
11
61018.0
21
34711.0
0
LINE
8
BLACK
10
61018.0
20
34711.0
11
60368.0
21
34711.0
0
LINE
8
BLACK
10
60368.0
20
34711.0
11
60368.0
21
34261.0
0
LINE
8
BLACK
10
60372.0
20
36015.0
11
61022.0
21
36015.0
0
LINE
8
BLACK
10
61022.0
20
36015.0
11
61022.0
21
36465.0
0
LINE
8
BLACK
10
61022.0
20
36465.0
11
60372.0
21
36465.0
0
LINE
8
BLACK
10
60372.0
20
36465.0
11
60372.0
21
36015.0
0
LINE
8
BLACK
10
60372.0
20
36615.0
11
61022.0
21
36615.0
0
LINE
8
BLACK
10
61022.0
20
36615.0
11
61022.0
21
37065.0
0
LINE
8
BLACK
10
61022.0
20
37065.0
11
60372.0
21
37065.0
0
LINE
8
BLACK
10
60372.0
20
37065.0
11
60372.0
21
36615.0
0
LINE
8
BLACK
10
61022.0
20
35915.0
11
60372.0
21
35915.0
0
LINE
8
BLACK
10
60372.0
20
35915.0
11
60372.0
21
35465.0
0
LINE
8
BLACK
10
60372.0
20
35465.0
11
61022.0
21
35465.0
0
LINE
8
BLACK
10
61022.0
20
35465.0
11
61022.0
21
35915.0
0
LINE
8
BLACK
10
61022.0
20
35315.0
11
60372.0
21
35315.0
0
LINE
8
BLACK
10
60372.0
20
35315.0
11
60372.0
21
34865.0
0
LINE
8
BLACK
10
60372.0
20
34865.0
11
61022.0
21
34865.0
0
LINE
8
BLACK
10
61022.0
20
34865.0
11
61022.0
21
35315.0
0
LINE
8
BLACK
10
46900.0
20
46570.0
11
46100.0
21
46570.0
0
LINE
8
BLACK
10
46100.0
20
46570.0
11
46100.0
21
45770.0
0
LINE
8
BLACK
10
46100.0
20
45770.0
11
46900.0
21
45770.0
0
LINE
8
BLACK
10
46900.0
20
45770.0
11
46900.0
21
46570.0
0
CIRCLE
8
BLACK
10
47500.0
20
46170.0
40
400
0
CIRCLE
8
BLACK
10
46500.0
20
45170.0
40
400
0
CIRCLE
8
BLACK
10
47500.0
20
45170.0
40
400
0
CIRCLE
8
BLACK
10
46500.0
20
44170.0
40
400
0
CIRCLE
8
BLACK
10
47500.0
20
44170.0
40
400
0
CIRCLE
8
BLACK
10
46500.0
20
43170.0
40
400
0
CIRCLE
8
BLACK
10
47500.0
20
43170.0
40
400
0
CIRCLE
8
BLACK
10
46500.0
20
42170.0
40
400
0
CIRCLE
8
BLACK
10
47500.0
20
42170.0
40
400
0
CIRCLE
8
BLACK
10
46500.0
20
41170.0
40
400
0
CIRCLE
8
BLACK
10
47500.0
20
41170.0
40
400
0
CIRCLE
8
BLACK
10
46500.0
20
40170.0
40
400
0
CIRCLE
8
BLACK
10
47500.0
20
40170.0
40
400
0
CIRCLE
8
BLACK
10
46500.0
20
39170.0
40
400
0
CIRCLE
8
BLACK
10
47500.0
20
39170.0
40
400
0
CIRCLE
8
BLACK
10
46500.0
20
38170.0
40
400
0
CIRCLE
8
BLACK
10
47500.0
20
38170.0
40
400
0
CIRCLE
8
BLACK
10
46500.0
20
37170.0
40
400
0
CIRCLE
8
BLACK
10
47500.0
20
37170.0
40
400
0
CIRCLE
8
BLACK
10
46500.0
20
36170.0
40
400
0
CIRCLE
8
BLACK
10
47500.0
20
36170.0
40
400
0
CIRCLE
8
BLACK
10
46500.0
20
35170.0
40
400
0
CIRCLE
8
BLACK
10
47500.0
20
35170.0
40
400
0
LINE
8
BLACK
10
64672.0
20
29094.0
11
65322.0
21
29094.0
0
LINE
8
BLACK
10
65322.0
20
29094.0
11
65322.0
21
29544.0
0
LINE
8
BLACK
10
65322.0
20
29544.0
11
64672.0
21
29544.0
0
LINE
8
BLACK
10
64672.0
20
29544.0
11
64672.0
21
29094.0
0
LINE
8
BLACK
10
64672.0
20
29694.0
11
65322.0
21
29694.0
0
LINE
8
BLACK
10
65322.0
20
29694.0
11
65322.0
21
30144.0
0
LINE
8
BLACK
10
65322.0
20
30144.0
11
64672.0
21
30144.0
0
LINE
8
BLACK
10
64672.0
20
30144.0
11
64672.0
21
29694.0
0
LINE
8
BLACK
10
60405.0
20
37720.0
11
60405.0
21
37284.0
0
LINE
8
BLACK
10
60405.0
20
37284.0
11
60801.0
21
37284.0
0
LINE
8
BLACK
10
60801.0
20
37284.0
11
60801.0
21
37720.0
0
LINE
8
BLACK
10
60801.0
20
37720.0
11
60405.0
21
37720.0
0
LINE
8
BLACK
10
60797.0
20
37720.0
11
60797.0
21
37284.0
0
LINE
8
BLACK
10
60797.0
20
37284.0
11
61193.0
21
37284.0
0
LINE
8
BLACK
10
61193.0
20
37284.0
11
61193.0
21
37720.0
0
LINE
8
BLACK
10
61193.0
20
37720.0
11
60797.0
21
37720.0
0
LINE
8
BLACK
10
60601.0
20
38230.0
11
60601.0
21
37794.0
0
LINE
8
BLACK
10
60601.0
20
37794.0
11
60997.0
21
37794.0
0
LINE
8
BLACK
10
60997.0
20
37794.0
11
60997.0
21
38230.0
0
LINE
8
BLACK
10
60997.0
20
38230.0
11
60601.0
21
38230.0
0
LINE
8
BLACK
10
53783.0
20
36526.0
11
53783.0
21
37040.0
0
LINE
8
BLACK
10
53783.0
20
37040.0
11
53427.0
21
37040.0
0
LINE
8
BLACK
10
53427.0
20
37040.0
11
53427.0
21
36526.0
0
LINE
8
BLACK
10
53427.0
20
36526.0
11
53783.0
21
36526.0
0
LINE
8
BLACK
10
53528.0
20
36526.0
11
53528.0
21
37040.0
0
LINE
8
BLACK
10
53528.0
20
37040.0
11
53172.0
21
37040.0
0
LINE
8
BLACK
10
53172.0
20
37040.0
11
53172.0
21
36526.0
0
LINE
8
BLACK
10
53172.0
20
36526.0
11
53528.0
21
36526.0
0
LINE
8
BLACK
10
53273.0
20
36526.0
11
53273.0
21
37040.0
0
LINE
8
BLACK
10
53273.0
20
37040.0
11
52917.0
21
37040.0
0
LINE
8
BLACK
10
52917.0
20
37040.0
11
52917.0
21
36526.0
0
LINE
8
BLACK
10
52917.0
20
36526.0
11
53273.0
21
36526.0
0
LINE
8
BLACK
10
53273.0
20
35898.0
11
53273.0
21
36412.0
0
LINE
8
BLACK
10
53273.0
20
36412.0
11
52917.0
21
36412.0
0
LINE
8
BLACK
10
52917.0
20
36412.0
11
52917.0
21
35898.0
0
LINE
8
BLACK
10
52917.0
20
35898.0
11
53273.0
21
35898.0
0
LINE
8
BLACK
10
53528.0
20
35898.0
11
53528.0
21
36412.0
0
LINE
8
BLACK
10
53528.0
20
36412.0
11
53172.0
21
36412.0
0
LINE
8
BLACK
10
53172.0
20
36412.0
11
53172.0
21
35898.0
0
LINE
8
BLACK
10
53172.0
20
35898.0
11
53528.0
21
35898.0
0
LINE
8
BLACK
10
53783.0
20
35898.0
11
53783.0
21
36412.0
0
LINE
8
BLACK
10
53783.0
20
36412.0
11
53427.0
21
36412.0
0
LINE
8
BLACK
10
53427.0
20
36412.0
11
53427.0
21
35898.0
0
LINE
8
BLACK
10
53427.0
20
35898.0
11
53783.0
21
35898.0
0
CIRCLE
8
BLACK
10
53449.0
20
29178.0
40
1045
0
LINE
8
BLACK
10
52404.0
20
30533.0
11
54494.0
21
30533.0
0
LINE
8
BLACK
10
54494.0
20
30533.0
11
54494.0
21
32623.0
0
LINE
8
BLACK
10
54494.0
20
32623.0
11
52404.0
21
32623.0
0
LINE
8
BLACK
10
52404.0
20
32623.0
11
52404.0
21
30533.0
0
CIRCLE
8
BLACK
10
55449.0
20
30078.0
40
1045
0
LINE
8
BLACK
10
57244.0
20
32680.0
11
57582.0
21
32680.0
0
LINE
8
BLACK
10
57582.0
20
32680.0
11
57582.0
21
33234.0
0
LINE
8
BLACK
10
57582.0
20
33234.0
11
57244.0
21
33234.0
0
LINE
8
BLACK
10
57244.0
20
33234.0
11
57244.0
21
32680.0
0
LINE
8
BLACK
10
57244.0
20
33349.0
11
57582.0
21
33349.0
0
LINE
8
BLACK
10
57582.0
20
33349.0
11
57582.0
21
33903.0
0
LINE
8
BLACK
10
57582.0
20
33903.0
11
57244.0
21
33903.0
0
LINE
8
BLACK
10
57244.0
20
33903.0
11
57244.0
21
33349.0
0
LINE
8
BLACK
10
57579.0
20
33349.0
11
57917.0
21
33349.0
0
LINE
8
BLACK
10
57917.0
20
33349.0
11
57917.0
21
33903.0
0
LINE
8
BLACK
10
57917.0
20
33903.0
11
57579.0
21
33903.0
0
LINE
8
BLACK
10
57579.0
20
33903.0
11
57579.0
21
33349.0
0
LINE
8
BLACK
10
57579.0
20
32680.0
11
57917.0
21
32680.0
0
LINE
8
BLACK
10
57917.0
20
32680.0
11
57917.0
21
33234.0
0
LINE
8
BLACK
10
57917.0
20
33234.0
11
57579.0
21
33234.0
0
LINE
8
BLACK
10
57579.0
20
33234.0
11
57579.0
21
32680.0
0
LINE
8
BLACK
10
59303.0
20
32680.0
11
59641.0
21
32680.0
0
LINE
8
BLACK
10
59641.0
20
32680.0
11
59641.0
21
33234.0
0
LINE
8
BLACK
10
59641.0
20
33234.0
11
59303.0
21
33234.0
0
LINE
8
BLACK
10
59303.0
20
33234.0
11
59303.0
21
32680.0
0
LINE
8
BLACK
10
59303.0
20
33349.0
11
59641.0
21
33349.0
0
LINE
8
BLACK
10
59641.0
20
33349.0
11
59641.0
21
33903.0
0
LINE
8
BLACK
10
59641.0
20
33903.0
11
59303.0
21
33903.0
0
LINE
8
BLACK
10
59303.0
20
33903.0
11
59303.0
21
33349.0
0
LINE
8
BLACK
10
59638.0
20
33349.0
11
59976.0
21
33349.0
0
LINE
8
BLACK
10
59976.0
20
33349.0
11
59976.0
21
33903.0
0
LINE
8
BLACK
10
59976.0
20
33903.0
11
59638.0
21
33903.0
0
LINE
8
BLACK
10
59638.0
20
33903.0
11
59638.0
21
33349.0
0
LINE
8
BLACK
10
59638.0
20
32680.0
11
59976.0
21
32680.0
0
LINE
8
BLACK
10
59976.0
20
32680.0
11
59976.0
21
33234.0
0
LINE
8
BLACK
10
59976.0
20
33234.0
11
59638.0
21
33234.0
0
LINE
8
BLACK
10
59638.0
20
33234.0
11
59638.0
21
32680.0
0
LINE
8
BLACK
10
58595.0
20
32673.0
11
58933.0
21
32673.0
0
LINE
8
BLACK
10
58933.0
20
32673.0
11
58933.0
21
33227.0
0
LINE
8
BLACK
10
58933.0
20
33227.0
11
58595.0
21
33227.0
0
LINE
8
BLACK
10
58595.0
20
33227.0
11
58595.0
21
32673.0
0
LINE
8
BLACK
10
58595.0
20
33342.0
11
58933.0
21
33342.0
0
LINE
8
BLACK
10
58933.0
20
33342.0
11
58933.0
21
33896.0
0
LINE
8
BLACK
10
58933.0
20
33896.0
11
58595.0
21
33896.0
0
LINE
8
BLACK
10
58595.0
20
33896.0
11
58595.0
21
33342.0
0
LINE
8
BLACK
10
58930.0
20
33342.0
11
59268.0
21
33342.0
0
LINE
8
BLACK
10
59268.0
20
33342.0
11
59268.0
21
33896.0
0
LINE
8
BLACK
10
59268.0
20
33896.0
11
58930.0
21
33896.0
0
LINE
8
BLACK
10
58930.0
20
33896.0
11
58930.0
21
33342.0
0
LINE
8
BLACK
10
58930.0
20
32673.0
11
59268.0
21
32673.0
0
LINE
8
BLACK
10
59268.0
20
32673.0
11
59268.0
21
33227.0
0
LINE
8
BLACK
10
59268.0
20
33227.0
11
58930.0
21
33227.0
0
LINE
8
BLACK
10
58930.0
20
33227.0
11
58930.0
21
32673.0
0
LINE
8
BLACK
10
57914.0
20
32680.0
11
58252.0
21
32680.0
0
LINE
8
BLACK
10
58252.0
20
32680.0
11
58252.0
21
33234.0
0
LINE
8
BLACK
10
58252.0
20
33234.0
11
57914.0
21
33234.0
0
LINE
8
BLACK
10
57914.0
20
33234.0
11
57914.0
21
32680.0
0
LINE
8
BLACK
10
57914.0
20
33349.0
11
58252.0
21
33349.0
0
LINE
8
BLACK
10
58252.0
20
33349.0
11
58252.0
21
33903.0
0
LINE
8
BLACK
10
58252.0
20
33903.0
11
57914.0
21
33903.0
0
LINE
8
BLACK
10
57914.0
20
33903.0
11
57914.0
21
33349.0
0
LINE
8
BLACK
10
58249.0
20
33349.0
11
58587.0
21
33349.0
0
LINE
8
BLACK
10
58587.0
20
33349.0
11
58587.0
21
33903.0
0
LINE
8
BLACK
10
58587.0
20
33903.0
11
58249.0
21
33903.0
0
LINE
8
BLACK
10
58249.0
20
33903.0
11
58249.0
21
33349.0
0
LINE
8
BLACK
10
58249.0
20
32680.0
11
58587.0
21
32680.0
0
LINE
8
BLACK
10
58587.0
20
32680.0
11
58587.0
21
33234.0
0
LINE
8
BLACK
10
58587.0
20
33234.0
11
58249.0
21
33234.0
0
LINE
8
BLACK
10
58249.0
20
33234.0
11
58249.0
21
32680.0
0
LINE
8
BLACK
10
56115.0
20
36472.0
11
56115.0
21
37144.0
0
LINE
8
BLACK
10
56115.0
20
37144.0
11
55365.0
21
37144.0
0
LINE
8
BLACK
10
55365.0
20
37144.0
11
55365.0
21
36472.0
0
LINE
8
BLACK
10
55365.0
20
36472.0
11
56115.0
21
36472.0
0
LINE
8
BLACK
10
55249.0
20
36472.0
11
55249.0
21
37144.0
0
LINE
8
BLACK
10
55249.0
20
37144.0
11
54499.0
21
37144.0
0
LINE
8
BLACK
10
54499.0
20
37144.0
11
54499.0
21
36472.0
0
LINE
8
BLACK
10
54499.0
20
36472.0
11
55249.0
21
36472.0
0
LINE
8
BLACK
10
55249.0
20
35803.0
11
55249.0
21
36475.0
0
LINE
8
BLACK
10
55249.0
20
36475.0
11
54499.0
21
36475.0
0
LINE
8
BLACK
10
54499.0
20
36475.0
11
54499.0
21
35803.0
0
LINE
8
BLACK
10
54499.0
20
35803.0
11
55249.0
21
35803.0
0
LINE
8
BLACK
10
56115.0
20
35803.0
11
56115.0
21
36475.0
0
LINE
8
BLACK
10
56115.0
20
36475.0
11
55365.0
21
36475.0
0
LINE
8
BLACK
10
55365.0
20
36475.0
11
55365.0
21
35803.0
0
LINE
8
BLACK
10
55365.0
20
35803.0
11
56115.0
21
35803.0
0
LINE
8
BLACK
10
56593.0
20
32616.0
11
56593.0
21
33416.0
0
LINE
8
BLACK
10
56593.0
20
33416.0
11
55793.0
21
33416.0
0
LINE
8
BLACK
10
55793.0
20
33416.0
11
55793.0
21
32616.0
0
LINE
8
BLACK
10
55793.0
20
32616.0
11
56593.0
21
32616.0
0
CIRCLE
8
BLACK
10
55193.0
20
33016.0
40
400
0
LINE
8
BLACK
10
49158.0
20
33746.0
11
49158.0
21
33232.0
0
LINE
8
BLACK
10
49158.0
20
33232.0
11
49672.0
21
33232.0
0
LINE
8
BLACK
10
49672.0
20
33232.0
11
49672.0
21
33746.0
0
LINE
8
BLACK
10
49672.0
20
33746.0
11
49158.0
21
33746.0
0
LINE
8
BLACK
10
49748.0
20
33746.0
11
49748.0
21
33232.0
0
LINE
8
BLACK
10
49748.0
20
33232.0
11
50262.0
21
33232.0
0
LINE
8
BLACK
10
50262.0
20
33232.0
11
50262.0
21
33746.0
0
LINE
8
BLACK
10
50262.0
20
33746.0
11
49748.0
21
33746.0
0
LINE
8
BLACK
10
64725.0
20
48004.0
11
64725.0
21
48518.0
0
LINE
8
BLACK
10
64725.0
20
48518.0
11
64211.0
21
48518.0
0
LINE
8
BLACK
10
64211.0
20
48518.0
11
64211.0
21
48004.0
0
LINE
8
BLACK
10
64211.0
20
48004.0
11
64725.0
21
48004.0
0
LINE
8
BLACK
10
64135.0
20
48004.0
11
64135.0
21
48518.0
0
LINE
8
BLACK
10
64135.0
20
48518.0
11
63621.0
21
48518.0
0
LINE
8
BLACK
10
63621.0
20
48518.0
11
63621.0
21
48004.0
0
LINE
8
BLACK
10
63621.0
20
48004.0
11
64135.0
21
48004.0
0
LINE
8
BLACK
10
48680.0
20
39502.0
11
48680.0
21
38988.0
0
LINE
8
BLACK
10
48680.0
20
38988.0
11
49194.0
21
38988.0
0
LINE
8
BLACK
10
49194.0
20
38988.0
11
49194.0
21
39502.0
0
LINE
8
BLACK
10
49194.0
20
39502.0
11
48680.0
21
39502.0
0
LINE
8
BLACK
10
49270.0
20
39502.0
11
49270.0
21
38988.0
0
LINE
8
BLACK
10
49270.0
20
38988.0
11
49784.0
21
38988.0
0
LINE
8
BLACK
10
49784.0
20
38988.0
11
49784.0
21
39502.0
0
LINE
8
BLACK
10
49784.0
20
39502.0
11
49270.0
21
39502.0
0
LINE
8
BLACK
10
35105.0
20
33557.0
11
34105.0
21
33557.0
0
LINE
8
BLACK
10
34105.0
20
33557.0
11
34105.0
21
32757.0
0
LINE
8
BLACK
10
34105.0
20
32757.0
11
35105.0
21
32757.0
0
LINE
8
BLACK
10
35105.0
20
32757.0
11
35105.0
21
33557.0
0
LINE
8
BLACK
10
35105.0
20
32257.0
11
34105.0
21
32257.0
0
LINE
8
BLACK
10
34105.0
20
32257.0
11
34105.0
21
31457.0
0
LINE
8
BLACK
10
34105.0
20
31457.0
11
35105.0
21
31457.0
0
LINE
8
BLACK
10
35105.0
20
31457.0
11
35105.0
21
32257.0
0
LINE
8
BLACK
10
50120.0
20
28282.0
11
50120.0
21
28932.0
0
LINE
8
BLACK
10
50120.0
20
28932.0
11
49670.0
21
28932.0
0
LINE
8
BLACK
10
49670.0
20
28932.0
11
49670.0
21
28282.0
0
LINE
8
BLACK
10
49670.0
20
28282.0
11
50120.0
21
28282.0
0
LINE
8
BLACK
10
49520.0
20
28282.0
11
49520.0
21
28932.0
0
LINE
8
BLACK
10
49520.0
20
28932.0
11
49070.0
21
28932.0
0
LINE
8
BLACK
10
49070.0
20
28932.0
11
49070.0
21
28282.0
0
LINE
8
BLACK
10
49070.0
20
28282.0
11
49520.0
21
28282.0
0
LINE
8
BLACK
10
48004.0
20
28932.0
11
48004.0
21
28282.0
0
LINE
8
BLACK
10
48004.0
20
28282.0
11
48454.0
21
28282.0
0
LINE
8
BLACK
10
48454.0
20
28282.0
11
48454.0
21
28932.0
0
LINE
8
BLACK
10
48454.0
20
28932.0
11
48004.0
21
28932.0
0
LINE
8
BLACK
10
48604.0
20
28932.0
11
48604.0
21
28282.0
0
LINE
8
BLACK
10
48604.0
20
28282.0
11
49054.0
21
28282.0
0
LINE
8
BLACK
10
49054.0
20
28282.0
11
49054.0
21
28932.0
0
LINE
8
BLACK
10
49054.0
20
28932.0
11
48604.0
21
28932.0
0
LINE
8
BLACK
10
45405.0
20
45757.0
11
45405.0
21
46407.0
0
LINE
8
BLACK
10
45405.0
20
46407.0
11
44955.0
21
46407.0
0
LINE
8
BLACK
10
44955.0
20
46407.0
11
44955.0
21
45757.0
0
LINE
8
BLACK
10
44955.0
20
45757.0
11
45405.0
21
45757.0
0
LINE
8
BLACK
10
44805.0
20
45757.0
11
44805.0
21
46407.0
0
LINE
8
BLACK
10
44805.0
20
46407.0
11
44355.0
21
46407.0
0
LINE
8
BLACK
10
44355.0
20
46407.0
11
44355.0
21
45757.0
0
LINE
8
BLACK
10
44355.0
20
45757.0
11
44805.0
21
45757.0
0
LINE
8
BLACK
10
43305.0
20
46432.0
11
43305.0
21
45782.0
0
LINE
8
BLACK
10
43305.0
20
45782.0
11
43755.0
21
45782.0
0
LINE
8
BLACK
10
43755.0
20
45782.0
11
43755.0
21
46432.0
0
LINE
8
BLACK
10
43755.0
20
46432.0
11
43305.0
21
46432.0
0
LINE
8
BLACK
10
43905.0
20
46432.0
11
43905.0
21
45782.0
0
LINE
8
BLACK
10
43905.0
20
45782.0
11
44355.0
21
45782.0
0
LINE
8
BLACK
10
44355.0
20
45782.0
11
44355.0
21
46432.0
0
LINE
8
BLACK
10
44355.0
20
46432.0
11
43905.0
21
46432.0
0
LINE
8
BLACK
10
44380.0
20
44632.0
11
44380.0
21
43982.0
0
LINE
8
BLACK
10
44380.0
20
43982.0
11
44830.0
21
43982.0
0
LINE
8
BLACK
10
44830.0
20
43982.0
11
44830.0
21
44632.0
0
LINE
8
BLACK
10
44830.0
20
44632.0
11
44380.0
21
44632.0
0
LINE
8
BLACK
10
44980.0
20
44632.0
11
44980.0
21
43982.0
0
LINE
8
BLACK
10
44980.0
20
43982.0
11
45430.0
21
43982.0
0
LINE
8
BLACK
10
45430.0
20
43982.0
11
45430.0
21
44632.0
0
LINE
8
BLACK
10
45430.0
20
44632.0
11
44980.0
21
44632.0
0
LINE
8
BLACK
10
42264.0
20
44889.0
11
42264.0
21
45689.0
0
LINE
8
BLACK
10
42264.0
20
45689.0
11
41966.0
21
45689.0
0
LINE
8
BLACK
10
41966.0
20
45689.0
11
41966.0
21
44889.0
0
LINE
8
BLACK
10
41966.0
20
44889.0
11
42264.0
21
44889.0
0
LINE
8
BLACK
10
42067.0
20
45038.0
11
42067.0
21
45540.0
0
LINE
8
BLACK
10
41769.0
20
45038.0
11
41769.0
21
45540.0
0
ARC
8
BLACK
10
41918.0
20
45540.0
40
149.0
50
360.0
51
540.0
0
ARC
8
BLACK
10
41918.0
20
45038.0
40
149.0
50
180.0
51
360.0
0
LINE
8
BLACK
10
41870.0
20
45038.0
11
41870.0
21
45540.0
0
LINE
8
BLACK
10
41572.0
20
45038.0
11
41572.0
21
45540.0
0
ARC
8
BLACK
10
41721.0
20
45540.0
40
149.0
50
360.0
51
540.0
0
ARC
8
BLACK
10
41721.0
20
45038.0
40
149.0
50
180.0
51
360.0
0
LINE
8
BLACK
10
41673.0
20
45038.0
11
41673.0
21
45540.0
0
LINE
8
BLACK
10
41375.0
20
45038.0
11
41375.0
21
45540.0
0
ARC
8
BLACK
10
41524.0
20
45540.0
40
149.0
50
360.0
51
540.0
0
ARC
8
BLACK
10
41524.0
20
45038.0
40
149.0
50
180.0
51
360.0
0
LINE
8
BLACK
10
41476.0
20
45038.0
11
41476.0
21
45540.0
0
LINE
8
BLACK
10
41178.0
20
45038.0
11
41178.0
21
45540.0
0
ARC
8
BLACK
10
41327.0
20
45540.0
40
149.0
50
360.0
51
540.0
0
ARC
8
BLACK
10
41327.0
20
45038.0
40
149.0
50
180.0
51
360.0
0
LINE
8
BLACK
10
41280.0
20
45038.0
11
41280.0
21
45540.0
0
LINE
8
BLACK
10
40982.0
20
45038.0
11
40982.0
21
45540.0
0
ARC
8
BLACK
10
41131.0
20
45540.0
40
149.0
50
360.0
51
540.0
0
ARC
8
BLACK
10
41131.0
20
45038.0
40
149.0
50
180.0
51
360.0
0
LINE
8
BLACK
10
41083.0
20
45038.0
11
41083.0
21
45540.0
0
LINE
8
BLACK
10
40785.0
20
45038.0
11
40785.0
21
45540.0
0
ARC
8
BLACK
10
40934.0
20
45540.0
40
149.0
50
360.0
51
540.0
0
ARC
8
BLACK
10
40934.0
20
45038.0
40
149.0
50
180.0
51
360.0
0
LINE
8
BLACK
10
40886.0
20
45038.0
11
40886.0
21
45540.0
0
LINE
8
BLACK
10
40588.0
20
45038.0
11
40588.0
21
45540.0
0
ARC
8
BLACK
10
40737.0
20
45540.0
40
149.0
50
360.0
51
540.0
0
ARC
8
BLACK
10
40737.0
20
45038.0
40
149.0
50
180.0
51
360.0
0
LINE
8
BLACK
10
40689.0
20
45038.0
11
40689.0
21
45540.0
0
LINE
8
BLACK
10
40391.0
20
45038.0
11
40391.0
21
45540.0
0
ARC
8
BLACK
10
40540.0
20
45540.0
40
149.0
50
360.0
51
540.0
0
ARC
8
BLACK
10
40540.0
20
45038.0
40
149.0
50
180.0
51
360.0
0
LINE
8
BLACK
10
40492.0
20
45038.0
11
40492.0
21
45540.0
0
LINE
8
BLACK
10
40194.0
20
45038.0
11
40194.0
21
45540.0
0
ARC
8
BLACK
10
40343.0
20
45540.0
40
149.0
50
360.0
51
540.0
0
ARC
8
BLACK
10
40343.0
20
45038.0
40
149.0
50
180.0
51
360.0
0
LINE
8
BLACK
10
40295.0
20
45038.0
11
40295.0
21
45540.0
0
LINE
8
BLACK
10
39997.0
20
45038.0
11
39997.0
21
45540.0
0
ARC
8
BLACK
10
40146.0
20
45540.0
40
149.0
50
360.0
51
540.0
0
ARC
8
BLACK
10
40146.0
20
45038.0
40
149.0
50
180.0
51
360.0
0
LINE
8
BLACK
10
40099.0
20
45038.0
11
40099.0
21
45540.0
0
LINE
8
BLACK
10
39801.0
20
45038.0
11
39801.0
21
45540.0
0
ARC
8
BLACK
10
39950.0
20
45540.0
40
149.0
50
360.0
51
540.0
0
ARC
8
BLACK
10
39950.0
20
45038.0
40
149.0
50
180.0
51
360.0
0
LINE
8
BLACK
10
39902.0
20
45038.0
11
39902.0
21
45540.0
0
LINE
8
BLACK
10
39604.0
20
45038.0
11
39604.0
21
45540.0
0
ARC
8
BLACK
10
39753.0
20
45540.0
40
149.0
50
360.0
51
540.0
0
ARC
8
BLACK
10
39753.0
20
45038.0
40
149.0
50
180.0
51
360.0
0
LINE
8
BLACK
10
39705.0
20
45038.0
11
39705.0
21
45540.0
0
LINE
8
BLACK
10
39407.0
20
45038.0
11
39407.0
21
45540.0
0
ARC
8
BLACK
10
39556.0
20
45540.0
40
149.0
50
360.0
51
540.0
0
ARC
8
BLACK
10
39556.0
20
45038.0
40
149.0
50
180.0
51
360.0
0
LINE
8
BLACK
10
39508.0
20
45038.0
11
39508.0
21
45540.0
0
LINE
8
BLACK
10
39210.0
20
45038.0
11
39210.0
21
45540.0
0
ARC
8
BLACK
10
39359.0
20
45540.0
40
149.0
50
360.0
51
540.0
0
ARC
8
BLACK
10
39359.0
20
45038.0
40
149.0
50
180.0
51
360.0
0
LINE
8
BLACK
10
39311.0
20
45038.0
11
39311.0
21
45540.0
0
LINE
8
BLACK
10
39013.0
20
45038.0
11
39013.0
21
45540.0
0
ARC
8
BLACK
10
39162.0
20
45540.0
40
149.0
50
360.0
51
540.0
0
ARC
8
BLACK
10
39162.0
20
45038.0
40
149.0
50
180.0
51
360.0
0
LINE
8
BLACK
10
38515.0
20
44603.0
11
38013.0
21
44603.0
0
LINE
8
BLACK
10
38515.0
20
44305.0
11
38013.0
21
44305.0
0
ARC
8
BLACK
10
38013.0
20
44454.0
40
149.0
50
450.0
51
630.0
0
ARC
8
BLACK
10
38515.0
20
44454.0
40
149.0
50
270.0
51
450.0
0
LINE
8
BLACK
10
38515.0
20
44406.0
11
38013.0
21
44406.0
0
LINE
8
BLACK
10
38515.0
20
44108.0
11
38013.0
21
44108.0
0
ARC
8
BLACK
10
38013.0
20
44257.0
40
149.0
50
450.0
51
630.0
0
ARC
8
BLACK
10
38515.0
20
44257.0
40
149.0
50
270.0
51
450.0
0
LINE
8
BLACK
10
38515.0
20
44209.0
11
38013.0
21
44209.0
0
LINE
8
BLACK
10
38515.0
20
43911.0
11
38013.0
21
43911.0
0
ARC
8
BLACK
10
38013.0
20
44060.0
40
149.0
50
450.0
51
630.0
0
ARC
8
BLACK
10
38515.0
20
44060.0
40
149.0
50
270.0
51
450.0
0
LINE
8
BLACK
10
38515.0
20
44012.0
11
38013.0
21
44012.0
0
LINE
8
BLACK
10
38515.0
20
43714.0
11
38013.0
21
43714.0
0
ARC
8
BLACK
10
38013.0
20
43863.0
40
149.0
50
450.0
51
630.0
0
ARC
8
BLACK
10
38515.0
20
43863.0
40
149.0
50
270.0
51
450.0
0
LINE
8
BLACK
10
38515.0
20
43815.0
11
38013.0
21
43815.0
0
LINE
8
BLACK
10
38515.0
20
43517.0
11
38013.0
21
43517.0
0
ARC
8
BLACK
10
38013.0
20
43666.0
40
149.0
50
450.0
51
630.0
0
ARC
8
BLACK
10
38515.0
20
43666.0
40
149.0
50
270.0
51
450.0
0
LINE
8
BLACK
10
38515.0
20
43619.0
11
38013.0
21
43619.0
0
LINE
8
BLACK
10
38515.0
20
43321.0
11
38013.0
21
43321.0
0
ARC
8
BLACK
10
38013.0
20
43470.0
40
149.0
50
450.0
51
630.0
0
ARC
8
BLACK
10
38515.0
20
43470.0
40
149.0
50
270.0
51
450.0
0
LINE
8
BLACK
10
38515.0
20
43422.0
11
38013.0
21
43422.0
0
LINE
8
BLACK
10
38515.0
20
43124.0
11
38013.0
21
43124.0
0
ARC
8
BLACK
10
38013.0
20
43273.0
40
149.0
50
450.0
51
630.0
0
ARC
8
BLACK
10
38515.0
20
43273.0
40
149.0
50
270.0
51
450.0
0
LINE
8
BLACK
10
38515.0
20
43225.0
11
38013.0
21
43225.0
0
LINE
8
BLACK
10
38515.0
20
42927.0
11
38013.0
21
42927.0
0
ARC
8
BLACK
10
38013.0
20
43076.0
40
149.0
50
450.0
51
630.0
0
ARC
8
BLACK
10
38515.0
20
43076.0
40
149.0
50
270.0
51
450.0
0
LINE
8
BLACK
10
38515.0
20
43028.0
11
38013.0
21
43028.0
0
LINE
8
BLACK
10
38515.0
20
42730.0
11
38013.0
21
42730.0
0
ARC
8
BLACK
10
38013.0
20
42879.0
40
149.0
50
450.0
51
630.0
0
ARC
8
BLACK
10
38515.0
20
42879.0
40
149.0
50
270.0
51
450.0
0
LINE
8
BLACK
10
38515.0
20
42831.0
11
38013.0
21
42831.0
0
LINE
8
BLACK
10
38515.0
20
42533.0
11
38013.0
21
42533.0
0
ARC
8
BLACK
10
38013.0
20
42682.0
40
149.0
50
450.0
51
630.0
0
ARC
8
BLACK
10
38515.0
20
42682.0
40
149.0
50
270.0
51
450.0
0
LINE
8
BLACK
10
38515.0
20
42634.0
11
38013.0
21
42634.0
0
LINE
8
BLACK
10
38515.0
20
42336.0
11
38013.0
21
42336.0
0
ARC
8
BLACK
10
38013.0
20
42485.0
40
149.0
50
450.0
51
630.0
0
ARC
8
BLACK
10
38515.0
20
42485.0
40
149.0
50
270.0
51
450.0
0
LINE
8
BLACK
10
38515.0
20
42438.0
11
38013.0
21
42438.0
0
LINE
8
BLACK
10
38515.0
20
42140.0
11
38013.0
21
42140.0
0
ARC
8
BLACK
10
38013.0
20
42289.0
40
149.0
50
450.0
51
630.0
0
ARC
8
BLACK
10
38515.0
20
42289.0
40
149.0
50
270.0
51
450.0
0
LINE
8
BLACK
10
38515.0
20
42241.0
11
38013.0
21
42241.0
0
LINE
8
BLACK
10
38515.0
20
41943.0
11
38013.0
21
41943.0
0
ARC
8
BLACK
10
38013.0
20
42092.0
40
149.0
50
450.0
51
630.0
0
ARC
8
BLACK
10
38515.0
20
42092.0
40
149.0
50
270.0
51
450.0
0
LINE
8
BLACK
10
38515.0
20
42044.0
11
38013.0
21
42044.0
0
LINE
8
BLACK
10
38515.0
20
41746.0
11
38013.0
21
41746.0
0
ARC
8
BLACK
10
38013.0
20
41895.0
40
149.0
50
450.0
51
630.0
0
ARC
8
BLACK
10
38515.0
20
41895.0
40
149.0
50
270.0
51
450.0
0
LINE
8
BLACK
10
38515.0
20
41847.0
11
38013.0
21
41847.0
0
LINE
8
BLACK
10
38515.0
20
41549.0
11
38013.0
21
41549.0
0
ARC
8
BLACK
10
38013.0
20
41698.0
40
149.0
50
450.0
51
630.0
0
ARC
8
BLACK
10
38515.0
20
41698.0
40
149.0
50
270.0
51
450.0
0
LINE
8
BLACK
10
38515.0
20
41650.0
11
38013.0
21
41650.0
0
LINE
8
BLACK
10
38515.0
20
41352.0
11
38013.0
21
41352.0
0
ARC
8
BLACK
10
38013.0
20
41501.0
40
149.0
50
450.0
51
630.0
0
ARC
8
BLACK
10
38515.0
20
41501.0
40
149.0
50
270.0
51
450.0
0
LINE
8
BLACK
10
39311.0
20
40352.0
11
39311.0
21
40854.0
0
LINE
8
BLACK
10
39013.0
20
40352.0
11
39013.0
21
40854.0
0
ARC
8
BLACK
10
39162.0
20
40854.0
40
149.0
50
360.0
51
540.0
0
ARC
8
BLACK
10
39162.0
20
40352.0
40
149.0
50
180.0
51
360.0
0
LINE
8
BLACK
10
39508.0
20
40352.0
11
39508.0
21
40854.0
0
LINE
8
BLACK
10
39210.0
20
40352.0
11
39210.0
21
40854.0
0
ARC
8
BLACK
10
39359.0
20
40854.0
40
149.0
50
360.0
51
540.0
0
ARC
8
BLACK
10
39359.0
20
40352.0
40
149.0
50
180.0
51
360.0
0
LINE
8
BLACK
10
39705.0
20
40352.0
11
39705.0
21
40854.0
0
LINE
8
BLACK
10
39407.0
20
40352.0
11
39407.0
21
40854.0
0
ARC
8
BLACK
10
39556.0
20
40854.0
40
149.0
50
360.0
51
540.0
0
ARC
8
BLACK
10
39556.0
20
40352.0
40
149.0
50
180.0
51
360.0
0
LINE
8
BLACK
10
39902.0
20
40352.0
11
39902.0
21
40854.0
0
LINE
8
BLACK
10
39604.0
20
40352.0
11
39604.0
21
40854.0
0
ARC
8
BLACK
10
39753.0
20
40854.0
40
149.0
50
360.0
51
540.0
0
ARC
8
BLACK
10
39753.0
20
40352.0
40
149.0
50
180.0
51
360.0
0
LINE
8
BLACK
10
40099.0
20
40352.0
11
40099.0
21
40854.0
0
LINE
8
BLACK
10
39801.0
20
40352.0
11
39801.0
21
40854.0
0
ARC
8
BLACK
10
39950.0
20
40854.0
40
149.0
50
360.0
51
540.0
0
ARC
8
BLACK
10
39950.0
20
40352.0
40
149.0
50
180.0
51
360.0
0
LINE
8
BLACK
10
40295.0
20
40352.0
11
40295.0
21
40854.0
0
LINE
8
BLACK
10
39997.0
20
40352.0
11
39997.0
21
40854.0
0
ARC
8
BLACK
10
40146.0
20
40854.0
40
149.0
50
360.0
51
540.0
0
ARC
8
BLACK
10
40146.0
20
40352.0
40
149.0
50
180.0
51
360.0
0
LINE
8
BLACK
10
40492.0
20
40352.0
11
40492.0
21
40854.0
0
LINE
8
BLACK
10
40194.0
20
40352.0
11
40194.0
21
40854.0
0
ARC
8
BLACK
10
40343.0
20
40854.0
40
149.0
50
360.0
51
540.0
0
ARC
8
BLACK
10
40343.0
20
40352.0
40
149.0
50
180.0
51
360.0
0
LINE
8
BLACK
10
40689.0
20
40352.0
11
40689.0
21
40854.0
0
LINE
8
BLACK
10
40391.0
20
40352.0
11
40391.0
21
40854.0
0
ARC
8
BLACK
10
40540.0
20
40854.0
40
149.0
50
360.0
51
540.0
0
ARC
8
BLACK
10
40540.0
20
40352.0
40
149.0
50
180.0
51
360.0
0
LINE
8
BLACK
10
40886.0
20
40352.0
11
40886.0
21
40854.0
0
LINE
8
BLACK
10
40588.0
20
40352.0
11
40588.0
21
40854.0
0
ARC
8
BLACK
10
40737.0
20
40854.0
40
149.0
50
360.0
51
540.0
0
ARC
8
BLACK
10
40737.0
20
40352.0
40
149.0
50
180.0
51
360.0
0
LINE
8
BLACK
10
41083.0
20
40352.0
11
41083.0
21
40854.0
0
LINE
8
BLACK
10
40785.0
20
40352.0
11
40785.0
21
40854.0
0
ARC
8
BLACK
10
40934.0
20
40854.0
40
149.0
50
360.0
51
540.0
0
ARC
8
BLACK
10
40934.0
20
40352.0
40
149.0
50
180.0
51
360.0
0
LINE
8
BLACK
10
41280.0
20
40352.0
11
41280.0
21
40854.0
0
LINE
8
BLACK
10
40982.0
20
40352.0
11
40982.0
21
40854.0
0
ARC
8
BLACK
10
41131.0
20
40854.0
40
149.0
50
360.0
51
540.0
0
ARC
8
BLACK
10
41131.0
20
40352.0
40
149.0
50
180.0
51
360.0
0
LINE
8
BLACK
10
41476.0
20
40352.0
11
41476.0
21
40854.0
0
LINE
8
BLACK
10
41178.0
20
40352.0
11
41178.0
21
40854.0
0
ARC
8
BLACK
10
41327.0
20
40854.0
40
149.0
50
360.0
51
540.0
0
ARC
8
BLACK
10
41327.0
20
40352.0
40
149.0
50
180.0
51
360.0
0
LINE
8
BLACK
10
41673.0
20
40352.0
11
41673.0
21
40854.0
0
LINE
8
BLACK
10
41375.0
20
40352.0
11
41375.0
21
40854.0
0
ARC
8
BLACK
10
41524.0
20
40854.0
40
149.0
50
360.0
51
540.0
0
ARC
8
BLACK
10
41524.0
20
40352.0
40
149.0
50
180.0
51
360.0
0
LINE
8
BLACK
10
41870.0
20
40352.0
11
41870.0
21
40854.0
0
LINE
8
BLACK
10
41572.0
20
40352.0
11
41572.0
21
40854.0
0
ARC
8
BLACK
10
41721.0
20
40854.0
40
149.0
50
360.0
51
540.0
0
ARC
8
BLACK
10
41721.0
20
40352.0
40
149.0
50
180.0
51
360.0
0
LINE
8
BLACK
10
42067.0
20
40352.0
11
42067.0
21
40854.0
0
LINE
8
BLACK
10
41769.0
20
40352.0
11
41769.0
21
40854.0
0
ARC
8
BLACK
10
41918.0
20
40854.0
40
149.0
50
360.0
51
540.0
0
ARC
8
BLACK
10
41918.0
20
40352.0
40
149.0
50
180.0
51
360.0
0
LINE
8
BLACK
10
42264.0
20
40352.0
11
42264.0
21
40854.0
0
LINE
8
BLACK
10
41966.0
20
40352.0
11
41966.0
21
40854.0
0
ARC
8
BLACK
10
42115.0
20
40854.0
40
149.0
50
360.0
51
540.0
0
ARC
8
BLACK
10
42115.0
20
40352.0
40
149.0
50
180.0
51
360.0
0
LINE
8
BLACK
10
43201.0
20
41650.0
11
42699.0
21
41650.0
0
LINE
8
BLACK
10
43201.0
20
41352.0
11
42699.0
21
41352.0
0
ARC
8
BLACK
10
42699.0
20
41501.0
40
149.0
50
450.0
51
630.0
0
ARC
8
BLACK
10
43201.0
20
41501.0
40
149.0
50
270.0
51
450.0
0
LINE
8
BLACK
10
43201.0
20
41847.0
11
42699.0
21
41847.0
0
LINE
8
BLACK
10
43201.0
20
41549.0
11
42699.0
21
41549.0
0
ARC
8
BLACK
10
42699.0
20
41698.0
40
149.0
50
450.0
51
630.0
0
ARC
8
BLACK
10
43201.0
20
41698.0
40
149.0
50
270.0
51
450.0
0
LINE
8
BLACK
10
43201.0
20
42241.0
11
42699.0
21
42241.0
0
LINE
8
BLACK
10
43201.0
20
41943.0
11
42699.0
21
41943.0
0
ARC
8
BLACK
10
42699.0
20
42092.0
40
149.0
50
450.0
51
630.0
0
ARC
8
BLACK
10
43201.0
20
42092.0
40
149.0
50
270.0
51
450.0
0
LINE
8
BLACK
10
43208.0
20
42044.0
11
42706.0
21
42044.0
0
LINE
8
BLACK
10
43208.0
20
41746.0
11
42706.0
21
41746.0
0
ARC
8
BLACK
10
42706.0
20
41895.0
40
149.0
50
450.0
51
630.0
0
ARC
8
BLACK
10
43208.0
20
41895.0
40
149.0
50
270.0
51
450.0
0
LINE
8
BLACK
10
43201.0
20
42438.0
11
42699.0
21
42438.0
0
LINE
8
BLACK
10
43201.0
20
42140.0
11
42699.0
21
42140.0
0
ARC
8
BLACK
10
42699.0
20
42289.0
40
149.0
50
450.0
51
630.0
0
ARC
8
BLACK
10
43201.0
20
42289.0
40
149.0
50
270.0
51
450.0
0
LINE
8
BLACK
10
43201.0
20
42634.0
11
42699.0
21
42634.0
0
LINE
8
BLACK
10
43201.0
20
42336.0
11
42699.0
21
42336.0
0
ARC
8
BLACK
10
42699.0
20
42485.0
40
149.0
50
450.0
51
630.0
0
ARC
8
BLACK
10
43201.0
20
42485.0
40
149.0
50
270.0
51
450.0
0
LINE
8
BLACK
10
43201.0
20
42831.0
11
42699.0
21
42831.0
0
LINE
8
BLACK
10
43201.0
20
42533.0
11
42699.0
21
42533.0
0
ARC
8
BLACK
10
42699.0
20
42682.0
40
149.0
50
450.0
51
630.0
0
ARC
8
BLACK
10
43201.0
20
42682.0
40
149.0
50
270.0
51
450.0
0
LINE
8
BLACK
10
43201.0
20
43028.0
11
42699.0
21
43028.0
0
LINE
8
BLACK
10
43201.0
20
42730.0
11
42699.0
21
42730.0
0
ARC
8
BLACK
10
42699.0
20
42879.0
40
149.0
50
450.0
51
630.0
0
ARC
8
BLACK
10
43201.0
20
42879.0
40
149.0
50
270.0
51
450.0
0
LINE
8
BLACK
10
43201.0
20
43225.0
11
42699.0
21
43225.0
0
LINE
8
BLACK
10
43201.0
20
42927.0
11
42699.0
21
42927.0
0
ARC
8
BLACK
10
42699.0
20
43076.0
40
149.0
50
450.0
51
630.0
0
ARC
8
BLACK
10
43201.0
20
43076.0
40
149.0
50
270.0
51
450.0
0
LINE
8
BLACK
10
43201.0
20
43422.0
11
42699.0
21
43422.0
0
LINE
8
BLACK
10
43201.0
20
43124.0
11
42699.0
21
43124.0
0
ARC
8
BLACK
10
42699.0
20
43273.0
40
149.0
50
450.0
51
630.0
0
ARC
8
BLACK
10
43201.0
20
43273.0
40
149.0
50
270.0
51
450.0
0
LINE
8
BLACK
10
43201.0
20
43616.0
11
42699.0
21
43616.0
0
LINE
8
BLACK
10
43201.0
20
43318.0
11
42699.0
21
43318.0
0
ARC
8
BLACK
10
42699.0
20
43467.0
40
149.0
50
450.0
51
630.0
0
ARC
8
BLACK
10
43201.0
20
43467.0
40
149.0
50
270.0
51
450.0
0
LINE
8
BLACK
10
43201.0
20
43813.0
11
42699.0
21
43813.0
0
LINE
8
BLACK
10
43201.0
20
43515.0
11
42699.0
21
43515.0
0
ARC
8
BLACK
10
42699.0
20
43664.0
40
149.0
50
450.0
51
630.0
0
ARC
8
BLACK
10
43201.0
20
43664.0
40
149.0
50
270.0
51
450.0
0
LINE
8
BLACK
10
43201.0
20
44010.0
11
42699.0
21
44010.0
0
LINE
8
BLACK
10
43201.0
20
43712.0
11
42699.0
21
43712.0
0
ARC
8
BLACK
10
42699.0
20
43861.0
40
149.0
50
450.0
51
630.0
0
ARC
8
BLACK
10
43201.0
20
43861.0
40
149.0
50
270.0
51
450.0
0
LINE
8
BLACK
10
43201.0
20
44207.0
11
42699.0
21
44207.0
0
LINE
8
BLACK
10
43201.0
20
43909.0
11
42699.0
21
43909.0
0
ARC
8
BLACK
10
42699.0
20
44058.0
40
149.0
50
450.0
51
630.0
0
ARC
8
BLACK
10
43201.0
20
44058.0
40
149.0
50
270.0
51
450.0
0
LINE
8
BLACK
10
43201.0
20
44403.0
11
42699.0
21
44403.0
0
LINE
8
BLACK
10
43201.0
20
44105.0
11
42699.0
21
44105.0
0
ARC
8
BLACK
10
42699.0
20
44254.0
40
149.0
50
450.0
51
630.0
0
ARC
8
BLACK
10
43201.0
20
44254.0
40
149.0
50
270.0
51
450.0
0
LINE
8
BLACK
10
43201.0
20
44600.0
11
42699.0
21
44600.0
0
LINE
8
BLACK
10
43201.0
20
44302.0
11
42699.0
21
44302.0
0
ARC
8
BLACK
10
42699.0
20
44451.0
40
149.0
50
450.0
51
630.0
0
ARC
8
BLACK
10
43201.0
20
44451.0
40
149.0
50
270.0
51
450.0
0
LINE
8
BLACK
10
47898.0
20
30673.0
11
46898.0
21
30673.0
0
LINE
8
BLACK
10
46898.0
20
30673.0
11
46898.0
21
29873.0
0
LINE
8
BLACK
10
46898.0
20
29873.0
11
47898.0
21
29873.0
0
LINE
8
BLACK
10
47898.0
20
29873.0
11
47898.0
21
30673.0
0
LINE
8
BLACK
10
47898.0
20
29373.0
11
46898.0
21
29373.0
0
LINE
8
BLACK
10
46898.0
20
29373.0
11
46898.0
21
28573.0
0
LINE
8
BLACK
10
46898.0
20
28573.0
11
47898.0
21
28573.0
0
LINE
8
BLACK
10
47898.0
20
28573.0
11
47898.0
21
29373.0
0
LINE
8
BLACK
10
47069.0
20
30657.0
11
47719.0
21
30657.0
0
LINE
8
BLACK
10
47719.0
20
30657.0
11
47719.0
21
31107.0
0
LINE
8
BLACK
10
47719.0
20
31107.0
11
47069.0
21
31107.0
0
LINE
8
BLACK
10
47069.0
20
31107.0
11
47069.0
21
30657.0
0
LINE
8
BLACK
10
47069.0
20
31257.0
11
47719.0
21
31257.0
0
LINE
8
BLACK
10
47719.0
20
31257.0
11
47719.0
21
31707.0
0
LINE
8
BLACK
10
47719.0
20
31707.0
11
47069.0
21
31707.0
0
LINE
8
BLACK
10
47069.0
20
31707.0
11
47069.0
21
31257.0
0
LINE
8
BLACK
10
34900.0
20
46570.0
11
34100.0
21
46570.0
0
LINE
8
BLACK
10
34100.0
20
46570.0
11
34100.0
21
45770.0
0
LINE
8
BLACK
10
34100.0
20
45770.0
11
34900.0
21
45770.0
0
LINE
8
BLACK
10
34900.0
20
45770.0
11
34900.0
21
46570.0
0
CIRCLE
8
BLACK
10
35500.0
20
46170.0
40
400
0
CIRCLE
8
BLACK
10
34500.0
20
45170.0
40
400
0
CIRCLE
8
BLACK
10
35500.0
20
45170.0
40
400
0
CIRCLE
8
BLACK
10
34500.0
20
44170.0
40
400
0
CIRCLE
8
BLACK
10
35500.0
20
44170.0
40
400
0
CIRCLE
8
BLACK
10
34500.0
20
43170.0
40
400
0
CIRCLE
8
BLACK
10
35500.0
20
43170.0
40
400
0
CIRCLE
8
BLACK
10
34500.0
20
42170.0
40
400
0
CIRCLE
8
BLACK
10
35500.0
20
42170.0
40
400
0
CIRCLE
8
BLACK
10
34500.0
20
41170.0
40
400
0
CIRCLE
8
BLACK
10
35500.0
20
41170.0
40
400
0
CIRCLE
8
BLACK
10
34500.0
20
40170.0
40
400
0
CIRCLE
8
BLACK
10
35500.0
20
40170.0
40
400
0
CIRCLE
8
BLACK
10
34500.0
20
39170.0
40
400
0
CIRCLE
8
BLACK
10
35500.0
20
39170.0
40
400
0
CIRCLE
8
BLACK
10
34500.0
20
38170.0
40
400
0
CIRCLE
8
BLACK
10
35500.0
20
38170.0
40
400
0
CIRCLE
8
BLACK
10
34500.0
20
37170.0
40
400
0
CIRCLE
8
BLACK
10
35500.0
20
37170.0
40
400
0
CIRCLE
8
BLACK
10
34500.0
20
36170.0
40
400
0
CIRCLE
8
BLACK
10
35500.0
20
36170.0
40
400
0
CIRCLE
8
BLACK
10
34500.0
20
35170.0
40
400
0
CIRCLE
8
BLACK
10
35500.0
20
35170.0
40
400
0
LINE
8
BLACK
10
47900.0
20
47770.0
11
47900.0
21
48570.0
0
LINE
8
BLACK
10
47900.0
20
48570.0
11
47100.0
21
48570.0
0
LINE
8
BLACK
10
47100.0
20
48570.0
11
47100.0
21
47770.0
0
LINE
8
BLACK
10
47100.0
20
47770.0
11
47900.0
21
47770.0
0
CIRCLE
8
BLACK
10
47500.0
20
47170.0
40
400
0
CIRCLE
8
BLACK
10
46500.0
20
48170.0
40
400
0
CIRCLE
8
BLACK
10
46500.0
20
47170.0
40
400
0
CIRCLE
8
BLACK
10
45500.0
20
48170.0
40
400
0
CIRCLE
8
BLACK
10
45500.0
20
47170.0
40
400
0
CIRCLE
8
BLACK
10
44500.0
20
48170.0
40
400
0
CIRCLE
8
BLACK
10
44500.0
20
47170.0
40
400
0
CIRCLE
8
BLACK
10
43500.0
20
48170.0
40
400
0
CIRCLE
8
BLACK
10
43500.0
20
47170.0
40
400
0
CIRCLE
8
BLACK
10
42500.0
20
48170.0
40
400
0
CIRCLE
8
BLACK
10
42500.0
20
47170.0
40
400
0
CIRCLE
8
BLACK
10
41500.0
20
48170.0
40
400
0
CIRCLE
8
BLACK
10
41500.0
20
47170.0
40
400
0
CIRCLE
8
BLACK
10
40500.0
20
48170.0
40
400
0
CIRCLE
8
BLACK
10
40500.0
20
47170.0
40
400
0
CIRCLE
8
BLACK
10
39500.0
20
48170.0
40
400
0
CIRCLE
8
BLACK
10
39500.0
20
47170.0
40
400
0
CIRCLE
8
BLACK
10
38500.0
20
48170.0
40
400
0
CIRCLE
8
BLACK
10
38500.0
20
47170.0
40
400
0
CIRCLE
8
BLACK
10
37500.0
20
48170.0
40
400
0
CIRCLE
8
BLACK
10
37500.0
20
47170.0
40
400
0
CIRCLE
8
BLACK
10
36500.0
20
48170.0
40
400
0
CIRCLE
8
BLACK
10
36500.0
20
47170.0
40
400
0
LINE
8
BLACK
10
36280.0
20
37307.0
11
36930.0
21
37307.0
0
LINE
8
BLACK
10
36930.0
20
37307.0
11
36930.0
21
37757.0
0
LINE
8
BLACK
10
36930.0
20
37757.0
11
36280.0
21
37757.0
0
LINE
8
BLACK
10
36280.0
20
37757.0
11
36280.0
21
37307.0
0
LINE
8
BLACK
10
36280.0
20
37907.0
11
36930.0
21
37907.0
0
LINE
8
BLACK
10
36930.0
20
37907.0
11
36930.0
21
38357.0
0
LINE
8
BLACK
10
36930.0
20
38357.0
11
36280.0
21
38357.0
0
LINE
8
BLACK
10
36280.0
20
38357.0
11
36280.0
21
37907.0
0
LINE
8
BLACK
10
36930.0
20
37282.0
11
36280.0
21
37282.0
0
LINE
8
BLACK
10
36280.0
20
37282.0
11
36280.0
21
36832.0
0
LINE
8
BLACK
10
36280.0
20
36832.0
11
36930.0
21
36832.0
0
LINE
8
BLACK
10
36930.0
20
36832.0
11
36930.0
21
37282.0
0
LINE
8
BLACK
10
36930.0
20
36682.0
11
36280.0
21
36682.0
0
LINE
8
BLACK
10
36280.0
20
36682.0
11
36280.0
21
36232.0
0
LINE
8
BLACK
10
36280.0
20
36232.0
11
36930.0
21
36232.0
0
LINE
8
BLACK
10
36930.0
20
36232.0
11
36930.0
21
36682.0
0
LINE
8
BLACK
10
37200.0
20
34961.0
11
37200.0
21
34161.0
0
LINE
8
BLACK
10
37200.0
20
34161.0
11
38000.0
21
34161.0
0
LINE
8
BLACK
10
38000.0
20
34161.0
11
38000.0
21
34961.0
0
LINE
8
BLACK
10
38000.0
20
34961.0
11
37200.0
21
34961.0
0
CIRCLE
8
BLACK
10
37600.0
20
35561.0
40
400
0
CIRCLE
8
BLACK
10
38600.0
20
34561.0
40
400
0
CIRCLE
8
BLACK
10
38600.0
20
35561.0
40
400
0
CIRCLE
8
BLACK
10
39600.0
20
34561.0
40
400
0
CIRCLE
8
BLACK
10
39600.0
20
35561.0
40
400
0
LINE
8
BLACK
10
41617.0
20
28866.0
11
41617.0
21
28066.0
0
LINE
8
BLACK
10
41617.0
20
28066.0
11
42417.0
21
28066.0
0
LINE
8
BLACK
10
42417.0
20
28066.0
11
42417.0
21
28866.0
0
LINE
8
BLACK
10
42417.0
20
28866.0
11
41617.0
21
28866.0
0
CIRCLE
8
BLACK
10
42017.0
20
29466.0
40
400
0
CIRCLE
8
BLACK
10
43017.0
20
28466.0
40
400
0
CIRCLE
8
BLACK
10
43017.0
20
29466.0
40
400
0
CIRCLE
8
BLACK
10
44017.0
20
28466.0
40
400
0
CIRCLE
8
BLACK
10
44017.0
20
29466.0
40
400
0
LINE
8
BLACK
10
37058.0
20
28869.0
11
37058.0
21
28069.0
0
LINE
8
BLACK
10
37058.0
20
28069.0
11
37858.0
21
28069.0
0
LINE
8
BLACK
10
37858.0
20
28069.0
11
37858.0
21
28869.0
0
LINE
8
BLACK
10
37858.0
20
28869.0
11
37058.0
21
28869.0
0
CIRCLE
8
BLACK
10
37458.0
20
29469.0
40
400
0
CIRCLE
8
BLACK
10
38458.0
20
28469.0
40
400
0
CIRCLE
8
BLACK
10
38458.0
20
29469.0
40
400
0
CIRCLE
8
BLACK
10
39458.0
20
28469.0
40
400
0
CIRCLE
8
BLACK
10
39458.0
20
29469.0
40
400
0
LINE
8
BLACK
10
56845.0
20
33939.0
11
56845.0
21
34589.0
0
LINE
8
BLACK
10
56845.0
20
34589.0
11
56395.0
21
34589.0
0
LINE
8
BLACK
10
56395.0
20
34589.0
11
56395.0
21
33939.0
0
LINE
8
BLACK
10
56395.0
20
33939.0
11
56845.0
21
33939.0
0
LINE
8
BLACK
10
56245.0
20
33939.0
11
56245.0
21
34589.0
0
LINE
8
BLACK
10
56245.0
20
34589.0
11
55795.0
21
34589.0
0
LINE
8
BLACK
10
55795.0
20
34589.0
11
55795.0
21
33939.0
0
LINE
8
BLACK
10
55795.0
20
33939.0
11
56245.0
21
33939.0
0
LINE
8
BLACK
10
56837.0
20
34743.0
11
56837.0
21
35393.0
0
LINE
8
BLACK
10
56837.0
20
35393.0
11
56387.0
21
35393.0
0
LINE
8
BLACK
10
56387.0
20
35393.0
11
56387.0
21
34743.0
0
LINE
8
BLACK
10
56387.0
20
34743.0
11
56837.0
21
34743.0
0
LINE
8
BLACK
10
56237.0
20
34743.0
11
56237.0
21
35393.0
0
LINE
8
BLACK
10
56237.0
20
35393.0
11
55787.0
21
35393.0
0
LINE
8
BLACK
10
55787.0
20
35393.0
11
55787.0
21
34743.0
0
LINE
8
BLACK
10
55787.0
20
34743.0
11
56237.0
21
34743.0
0
LINE
8
BLACK
10
41371.0
20
37295.0
11
40721.0
21
37295.0
0
LINE
8
BLACK
10
40721.0
20
37295.0
11
40721.0
21
36845.0
0
LINE
8
BLACK
10
40721.0
20
36845.0
11
41371.0
21
36845.0
0
LINE
8
BLACK
10
41371.0
20
36845.0
11
41371.0
21
37295.0
0
LINE
8
BLACK
10
41371.0
20
36695.0
11
40721.0
21
36695.0
0
LINE
8
BLACK
10
40721.0
20
36695.0
11
40721.0
21
36245.0
0
LINE
8
BLACK
10
40721.0
20
36245.0
11
41371.0
21
36245.0
0
LINE
8
BLACK
10
41371.0
20
36245.0
11
41371.0
21
36695.0
0
LINE
8
BLACK
10
40713.0
20
37233.0
11
41363.0
21
37233.0
0
LINE
8
BLACK
10
41363.0
20
37233.0
11
41363.0
21
37683.0
0
LINE
8
BLACK
10
41363.0
20
37683.0
11
40713.0
21
37683.0
0
LINE
8
BLACK
10
40713.0
20
37683.0
11
40713.0
21
37233.0
0
LINE
8
BLACK
10
40713.0
20
37833.0
11
41363.0
21
37833.0
0
LINE
8
BLACK
10
41363.0
20
37833.0
11
41363.0
21
38283.0
0
LINE
8
BLACK
10
41363.0
20
38283.0
11
40713.0
21
38283.0
0
LINE
8
BLACK
10
40713.0
20
38283.0
11
40713.0
21
37833.0
0
LINE
8
BLACK
10
41618.0
20
34961.0
11
41618.0
21
34161.0
0
LINE
8
BLACK
10
41618.0
20
34161.0
11
42418.0
21
34161.0
0
LINE
8
BLACK
10
42418.0
20
34161.0
11
42418.0
21
34961.0
0
LINE
8
BLACK
10
42418.0
20
34961.0
11
41618.0
21
34961.0
0
CIRCLE
8
BLACK
10
42018.0
20
35561.0
40
400
0
CIRCLE
8
BLACK
10
43018.0
20
34561.0
40
400
0
CIRCLE
8
BLACK
10
43018.0
20
35561.0
40
400
0
CIRCLE
8
BLACK
10
44018.0
20
34561.0
40
400
0
CIRCLE
8
BLACK
10
44018.0
20
35561.0
40
400
0
ENDSEC
0
EOF
