G04 (created by PCBNEW-RS274X (2011-05-31)-stable) date Mon 19 Sep 2011 01:54:13 PM COT*
G01*
G70*
G90*
%MOIN*%
G04 Gerber Fmt 3.4, Leading zero omitted, Abs format*
%FSLAX34Y34*%
G04 APERTURE LIST*
%ADD10C,0.006000*%
%ADD11C,0.007900*%
%ADD12C,0.005900*%
%ADD13C,0.004300*%
%ADD14C,0.004500*%
%ADD15C,0.003900*%
%ADD16C,0.007000*%
%ADD17C,0.005000*%
%ADD18C,0.008000*%
%ADD19C,0.004000*%
G04 APERTURE END LIST*
G54D10*
G54D11*
X67232Y-50494D02*
X67494Y-50374D01*
X67307Y-50254D01*
X67494Y-50134D01*
X67232Y-50014D01*
X67232Y-49834D02*
X67494Y-49714D01*
X67307Y-49594D01*
X67494Y-49474D01*
X67232Y-49354D01*
X67232Y-49174D02*
X67494Y-49054D01*
X67307Y-48934D01*
X67494Y-48814D01*
X67232Y-48694D01*
X67457Y-48454D02*
X67476Y-48424D01*
X67494Y-48454D01*
X67476Y-48484D01*
X67457Y-48454D01*
X67494Y-48454D01*
X67494Y-48064D02*
X67476Y-48124D01*
X67438Y-48154D01*
X67100Y-48154D01*
X67494Y-47824D02*
X67232Y-47824D01*
X67100Y-47824D02*
X67119Y-47854D01*
X67138Y-47824D01*
X67119Y-47794D01*
X67100Y-47824D01*
X67138Y-47824D01*
X67232Y-47524D02*
X67494Y-47524D01*
X67269Y-47524D02*
X67251Y-47494D01*
X67232Y-47434D01*
X67232Y-47344D01*
X67251Y-47284D01*
X67288Y-47254D01*
X67494Y-47254D01*
X67232Y-46684D02*
X67494Y-46684D01*
X67232Y-46954D02*
X67438Y-46954D01*
X67476Y-46924D01*
X67494Y-46864D01*
X67494Y-46774D01*
X67476Y-46714D01*
X67457Y-46684D01*
X67494Y-46444D02*
X67232Y-46114D01*
X67232Y-46444D02*
X67494Y-46114D01*
X67476Y-45634D02*
X67494Y-45694D01*
X67494Y-45814D01*
X67476Y-45874D01*
X67438Y-45904D01*
X67288Y-45904D01*
X67251Y-45874D01*
X67232Y-45814D01*
X67232Y-45694D01*
X67251Y-45634D01*
X67288Y-45604D01*
X67326Y-45604D01*
X67363Y-45904D01*
X67232Y-45334D02*
X67494Y-45334D01*
X67269Y-45334D02*
X67251Y-45304D01*
X67232Y-45244D01*
X67232Y-45154D01*
X67251Y-45094D01*
X67288Y-45064D01*
X67494Y-45064D01*
X67476Y-44494D02*
X67494Y-44554D01*
X67494Y-44674D01*
X67476Y-44734D01*
X67457Y-44764D01*
X67419Y-44794D01*
X67307Y-44794D01*
X67269Y-44764D01*
X67251Y-44734D01*
X67232Y-44674D01*
X67232Y-44554D01*
X67251Y-44494D01*
X67494Y-43954D02*
X67288Y-43954D01*
X67251Y-43984D01*
X67232Y-44044D01*
X67232Y-44164D01*
X67251Y-44224D01*
X67476Y-43954D02*
X67494Y-44014D01*
X67494Y-44164D01*
X67476Y-44224D01*
X67438Y-44254D01*
X67401Y-44254D01*
X67363Y-44224D01*
X67344Y-44164D01*
X67344Y-44014D01*
X67326Y-43954D01*
X67232Y-43654D02*
X67570Y-43654D01*
X67607Y-43684D01*
X67626Y-43744D01*
X67626Y-43774D01*
X67100Y-43654D02*
X67119Y-43684D01*
X67138Y-43654D01*
X67119Y-43624D01*
X67100Y-43654D01*
X67138Y-43654D01*
X67494Y-43084D02*
X67288Y-43084D01*
X67251Y-43114D01*
X67232Y-43174D01*
X67232Y-43294D01*
X67251Y-43354D01*
X67476Y-43084D02*
X67494Y-43144D01*
X67494Y-43294D01*
X67476Y-43354D01*
X67438Y-43384D01*
X67401Y-43384D01*
X67363Y-43354D01*
X67344Y-43294D01*
X67344Y-43144D01*
X67326Y-43084D01*
X67457Y-42784D02*
X67476Y-42754D01*
X67494Y-42784D01*
X67476Y-42814D01*
X67457Y-42784D01*
X67494Y-42784D01*
X67232Y-42484D02*
X67494Y-42484D01*
X67269Y-42484D02*
X67251Y-42454D01*
X67232Y-42394D01*
X67232Y-42304D01*
X67251Y-42244D01*
X67288Y-42214D01*
X67494Y-42214D01*
X67476Y-41674D02*
X67494Y-41734D01*
X67494Y-41854D01*
X67476Y-41914D01*
X67438Y-41944D01*
X67288Y-41944D01*
X67251Y-41914D01*
X67232Y-41854D01*
X67232Y-41734D01*
X67251Y-41674D01*
X67288Y-41644D01*
X67326Y-41644D01*
X67363Y-41944D01*
X67232Y-41464D02*
X67232Y-41224D01*
X67100Y-41374D02*
X67438Y-41374D01*
X67476Y-41344D01*
X67494Y-41284D01*
X67494Y-41224D01*
G54D12*
X66445Y-41301D02*
X66445Y-41025D01*
X66360Y-41025D01*
X66310Y-41038D01*
X66276Y-41064D01*
X66259Y-41090D01*
X66242Y-41143D01*
X66242Y-41182D01*
X66259Y-41235D01*
X66276Y-41261D01*
X66310Y-41288D01*
X66360Y-41301D01*
X66445Y-41301D01*
X65956Y-41288D02*
X65990Y-41301D01*
X66057Y-41301D01*
X66091Y-41288D01*
X66108Y-41261D01*
X66108Y-41156D01*
X66091Y-41130D01*
X66057Y-41117D01*
X65990Y-41117D01*
X65956Y-41130D01*
X65939Y-41156D01*
X65939Y-41182D01*
X66108Y-41209D01*
X65805Y-41288D02*
X65771Y-41301D01*
X65703Y-41301D01*
X65670Y-41288D01*
X65653Y-41261D01*
X65653Y-41248D01*
X65670Y-41222D01*
X65703Y-41209D01*
X65754Y-41209D01*
X65788Y-41196D01*
X65805Y-41169D01*
X65805Y-41156D01*
X65788Y-41130D01*
X65754Y-41117D01*
X65703Y-41117D01*
X65670Y-41130D01*
X65501Y-41301D02*
X65501Y-41117D01*
X65501Y-41025D02*
X65518Y-41038D01*
X65501Y-41051D01*
X65484Y-41038D01*
X65501Y-41025D01*
X65501Y-41051D01*
X65180Y-41117D02*
X65180Y-41340D01*
X65197Y-41366D01*
X65214Y-41380D01*
X65247Y-41393D01*
X65298Y-41393D01*
X65332Y-41380D01*
X65180Y-41288D02*
X65214Y-41301D01*
X65281Y-41301D01*
X65315Y-41288D01*
X65332Y-41274D01*
X65349Y-41248D01*
X65349Y-41169D01*
X65332Y-41143D01*
X65315Y-41130D01*
X65281Y-41117D01*
X65214Y-41117D01*
X65180Y-41130D01*
X65012Y-41117D02*
X65012Y-41301D01*
X65012Y-41143D02*
X64995Y-41130D01*
X64961Y-41117D01*
X64911Y-41117D01*
X64877Y-41130D01*
X64860Y-41156D01*
X64860Y-41301D01*
X64557Y-41288D02*
X64591Y-41301D01*
X64658Y-41301D01*
X64692Y-41288D01*
X64709Y-41261D01*
X64709Y-41156D01*
X64692Y-41130D01*
X64658Y-41117D01*
X64591Y-41117D01*
X64557Y-41130D01*
X64540Y-41156D01*
X64540Y-41182D01*
X64709Y-41209D01*
X64237Y-41301D02*
X64237Y-41025D01*
X64237Y-41288D02*
X64271Y-41301D01*
X64338Y-41301D01*
X64372Y-41288D01*
X64389Y-41274D01*
X64406Y-41248D01*
X64406Y-41169D01*
X64389Y-41143D01*
X64372Y-41130D01*
X64338Y-41117D01*
X64271Y-41117D01*
X64237Y-41130D01*
X63799Y-41301D02*
X63799Y-41025D01*
X63799Y-41130D02*
X63765Y-41117D01*
X63698Y-41117D01*
X63664Y-41130D01*
X63647Y-41143D01*
X63630Y-41169D01*
X63630Y-41248D01*
X63647Y-41274D01*
X63664Y-41288D01*
X63698Y-41301D01*
X63765Y-41301D01*
X63799Y-41288D01*
X63512Y-41117D02*
X63428Y-41301D01*
X63344Y-41117D02*
X63428Y-41301D01*
X63462Y-41366D01*
X63479Y-41380D01*
X63512Y-41393D01*
X67699Y-41719D02*
X67716Y-41733D01*
X67767Y-41746D01*
X67801Y-41746D01*
X67851Y-41733D01*
X67885Y-41706D01*
X67902Y-41680D01*
X67919Y-41627D01*
X67919Y-41588D01*
X67902Y-41535D01*
X67885Y-41509D01*
X67851Y-41483D01*
X67801Y-41470D01*
X67767Y-41470D01*
X67716Y-41483D01*
X67699Y-41496D01*
X67565Y-41667D02*
X67396Y-41667D01*
X67598Y-41746D02*
X67480Y-41470D01*
X67362Y-41746D01*
X67245Y-41746D02*
X67245Y-41470D01*
X67076Y-41746D02*
X67076Y-41470D01*
X66873Y-41746D01*
X66873Y-41470D01*
X66620Y-41838D02*
X66620Y-41443D01*
X66165Y-41719D02*
X66182Y-41733D01*
X66233Y-41746D01*
X66267Y-41746D01*
X66317Y-41733D01*
X66351Y-41706D01*
X66368Y-41680D01*
X66385Y-41627D01*
X66385Y-41588D01*
X66368Y-41535D01*
X66351Y-41509D01*
X66317Y-41483D01*
X66267Y-41470D01*
X66233Y-41470D01*
X66182Y-41483D01*
X66165Y-41496D01*
X65963Y-41746D02*
X65997Y-41733D01*
X66014Y-41719D01*
X66031Y-41693D01*
X66031Y-41614D01*
X66014Y-41588D01*
X65997Y-41575D01*
X65963Y-41562D01*
X65913Y-41562D01*
X65879Y-41575D01*
X65862Y-41588D01*
X65845Y-41614D01*
X65845Y-41693D01*
X65862Y-41719D01*
X65879Y-41733D01*
X65913Y-41746D01*
X65963Y-41746D01*
X65694Y-41746D02*
X65694Y-41562D01*
X65694Y-41614D02*
X65677Y-41588D01*
X65660Y-41575D01*
X65626Y-41562D01*
X65593Y-41562D01*
X65475Y-41746D02*
X65475Y-41562D01*
X65475Y-41614D02*
X65458Y-41588D01*
X65441Y-41575D01*
X65407Y-41562D01*
X65374Y-41562D01*
X65121Y-41733D02*
X65155Y-41746D01*
X65222Y-41746D01*
X65256Y-41733D01*
X65273Y-41706D01*
X65273Y-41601D01*
X65256Y-41575D01*
X65222Y-41562D01*
X65155Y-41562D01*
X65121Y-41575D01*
X65104Y-41601D01*
X65104Y-41627D01*
X65273Y-41654D01*
X64784Y-41746D02*
X64953Y-41746D01*
X64953Y-41470D01*
X64666Y-41746D02*
X64666Y-41562D01*
X64666Y-41470D02*
X64683Y-41483D01*
X64666Y-41496D01*
X64649Y-41483D01*
X64666Y-41470D01*
X64666Y-41496D01*
X64497Y-41746D02*
X64497Y-41470D01*
X64497Y-41575D02*
X64463Y-41562D01*
X64396Y-41562D01*
X64362Y-41575D01*
X64345Y-41588D01*
X64328Y-41614D01*
X64328Y-41693D01*
X64345Y-41719D01*
X64362Y-41733D01*
X64396Y-41746D01*
X64463Y-41746D01*
X64497Y-41733D01*
X64177Y-41746D02*
X64177Y-41562D01*
X64177Y-41614D02*
X64160Y-41588D01*
X64143Y-41575D01*
X64109Y-41562D01*
X64076Y-41562D01*
X63823Y-41733D02*
X63857Y-41746D01*
X63924Y-41746D01*
X63958Y-41733D01*
X63975Y-41706D01*
X63975Y-41601D01*
X63958Y-41575D01*
X63924Y-41562D01*
X63857Y-41562D01*
X63823Y-41575D01*
X63806Y-41601D01*
X63806Y-41627D01*
X63975Y-41654D01*
X63570Y-41838D02*
X63570Y-41443D01*
X63183Y-41733D02*
X63217Y-41746D01*
X63284Y-41746D01*
X63318Y-41733D01*
X63335Y-41706D01*
X63335Y-41601D01*
X63318Y-41575D01*
X63284Y-41562D01*
X63217Y-41562D01*
X63183Y-41575D01*
X63166Y-41601D01*
X63166Y-41627D01*
X63335Y-41654D01*
X63015Y-41746D02*
X63015Y-41562D01*
X63015Y-41588D02*
X62998Y-41575D01*
X62964Y-41562D01*
X62914Y-41562D01*
X62880Y-41575D01*
X62863Y-41601D01*
X62863Y-41746D01*
X62863Y-41601D02*
X62846Y-41575D01*
X62812Y-41562D01*
X62762Y-41562D01*
X62728Y-41575D01*
X62711Y-41601D01*
X62711Y-41746D01*
X62307Y-41772D02*
X62340Y-41759D01*
X62374Y-41733D01*
X62425Y-41693D01*
X62458Y-41680D01*
X62492Y-41680D01*
X62475Y-41746D02*
X62509Y-41733D01*
X62543Y-41706D01*
X62560Y-41654D01*
X62560Y-41562D01*
X62543Y-41509D01*
X62509Y-41483D01*
X62475Y-41470D01*
X62408Y-41470D01*
X62374Y-41483D01*
X62340Y-41509D01*
X62324Y-41562D01*
X62324Y-41654D01*
X62340Y-41706D01*
X62374Y-41733D01*
X62408Y-41746D01*
X62475Y-41746D01*
X62172Y-41746D02*
X62172Y-41470D01*
X62172Y-41575D02*
X62138Y-41562D01*
X62071Y-41562D01*
X62037Y-41575D01*
X62020Y-41588D01*
X62003Y-41614D01*
X62003Y-41693D01*
X62020Y-41719D01*
X62037Y-41733D01*
X62071Y-41746D01*
X62138Y-41746D01*
X62172Y-41733D01*
X61852Y-41746D02*
X61852Y-41562D01*
X61852Y-41470D02*
X61869Y-41483D01*
X61852Y-41496D01*
X61835Y-41483D01*
X61852Y-41470D01*
X61852Y-41496D01*
X61733Y-41562D02*
X61598Y-41562D01*
X61683Y-41470D02*
X61683Y-41706D01*
X61666Y-41733D01*
X61632Y-41746D01*
X61598Y-41746D01*
G54D13*
X65219Y-52533D02*
X65088Y-52533D01*
X65246Y-52612D02*
X65154Y-52336D01*
X65062Y-52612D01*
X51419Y-51828D02*
X51288Y-51828D01*
X51446Y-51907D02*
X51354Y-51631D01*
X51262Y-51907D01*
X51419Y-51828D02*
X51288Y-51828D01*
X51446Y-51907D02*
X51354Y-51631D01*
X51262Y-51907D01*
X60211Y-43747D02*
X60001Y-43747D01*
X60106Y-43852D02*
X60106Y-43641D01*
X63585Y-54413D02*
X63375Y-54413D01*
X63480Y-54518D02*
X63480Y-54307D01*
X54562Y-52279D02*
X54352Y-52279D01*
X54457Y-52384D02*
X54457Y-52173D01*
X48542Y-43487D02*
X48332Y-43487D01*
X48437Y-43592D02*
X48437Y-43381D01*
X54904Y-46802D02*
X54694Y-46802D01*
X54799Y-46907D02*
X54799Y-46696D01*
X50971Y-44487D02*
X50761Y-44487D01*
X50866Y-44592D02*
X50866Y-44381D01*
G54D14*
X50718Y-46944D02*
X50581Y-46944D01*
X50650Y-47050D02*
X50650Y-46837D01*
G54D15*
X53779Y-52074D02*
X53779Y-51366D01*
X53779Y-51366D02*
X53740Y-51346D01*
X53740Y-51346D02*
X53740Y-51366D01*
X53740Y-52094D02*
X53779Y-52074D01*
X52972Y-52094D02*
X52972Y-51366D01*
X52972Y-51366D02*
X52933Y-51366D01*
X52933Y-51366D02*
X52933Y-52094D01*
X52244Y-52094D02*
X53740Y-52094D01*
X53740Y-52094D02*
X53740Y-51366D01*
X53740Y-51366D02*
X53740Y-51346D01*
X53740Y-51346D02*
X51496Y-51346D01*
X51496Y-51346D02*
X51496Y-52094D01*
X51496Y-52094D02*
X52244Y-52094D01*
X64272Y-54397D02*
X64980Y-54397D01*
X64980Y-54397D02*
X65000Y-54358D01*
X65000Y-54358D02*
X64980Y-54358D01*
X64252Y-54358D02*
X64272Y-54397D01*
X64252Y-53590D02*
X64980Y-53590D01*
X64980Y-53590D02*
X64980Y-53551D01*
X64980Y-53551D02*
X64252Y-53551D01*
X64252Y-52862D02*
X64252Y-54358D01*
X64252Y-54358D02*
X64980Y-54358D01*
X64980Y-54358D02*
X65000Y-54358D01*
X65000Y-54358D02*
X65000Y-52114D01*
X65000Y-52114D02*
X64252Y-52114D01*
X64252Y-52114D02*
X64252Y-52862D01*
G54D11*
X52752Y-49107D02*
X54205Y-49103D01*
X54216Y-49083D02*
X54216Y-48607D01*
X54216Y-48607D02*
X52756Y-48611D01*
X52756Y-48611D02*
X52756Y-49071D01*
G54D16*
X58026Y-38889D02*
X58026Y-34029D01*
X58026Y-34029D02*
X58076Y-33979D01*
X58076Y-33979D02*
X64816Y-33979D01*
X64816Y-33979D02*
X64816Y-39689D01*
X64816Y-39689D02*
X63806Y-39689D01*
X63806Y-39689D02*
X63806Y-39919D01*
X63806Y-39919D02*
X58576Y-39919D01*
X58576Y-39919D02*
X58576Y-39709D01*
X58576Y-39709D02*
X58016Y-39709D01*
X58016Y-39709D02*
X58016Y-38859D01*
G54D17*
X54913Y-41917D02*
X54912Y-41926D01*
X54909Y-41936D01*
X54904Y-41944D01*
X54898Y-41952D01*
X54890Y-41958D01*
X54882Y-41963D01*
X54873Y-41965D01*
X54863Y-41966D01*
X54854Y-41966D01*
X54845Y-41963D01*
X54836Y-41958D01*
X54829Y-41952D01*
X54822Y-41945D01*
X54818Y-41936D01*
X54815Y-41927D01*
X54814Y-41917D01*
X54814Y-41908D01*
X54817Y-41899D01*
X54821Y-41890D01*
X54828Y-41883D01*
X54835Y-41876D01*
X54843Y-41872D01*
X54853Y-41869D01*
X54862Y-41868D01*
X54871Y-41868D01*
X54881Y-41871D01*
X54889Y-41875D01*
X54897Y-41881D01*
X54903Y-41889D01*
X54908Y-41897D01*
X54911Y-41906D01*
X54912Y-41916D01*
X54913Y-41917D01*
X54863Y-42367D02*
X54863Y-41967D01*
X54863Y-41967D02*
X54263Y-41967D01*
X54263Y-41967D02*
X54263Y-42367D01*
X54263Y-42767D02*
X54263Y-43167D01*
X54263Y-43167D02*
X54863Y-43167D01*
X54863Y-43167D02*
X54863Y-42767D01*
X64643Y-41994D02*
X63743Y-41994D01*
X63743Y-41994D02*
X63743Y-42494D01*
X63743Y-42494D02*
X64643Y-42494D01*
X64643Y-42494D02*
X64643Y-41994D01*
X62746Y-47856D02*
X62746Y-46956D01*
X62746Y-46956D02*
X62246Y-46956D01*
X62246Y-46956D02*
X62246Y-47856D01*
X62246Y-47856D02*
X62746Y-47856D01*
X50850Y-47371D02*
X50850Y-46471D01*
X50850Y-46471D02*
X51500Y-46471D01*
X52200Y-47371D02*
X52850Y-47371D01*
X52850Y-47371D02*
X52850Y-46471D01*
X52850Y-46471D02*
X52200Y-46471D01*
X51500Y-47371D02*
X50850Y-47371D01*
X54786Y-47035D02*
X55686Y-47035D01*
X55686Y-47035D02*
X55686Y-47685D01*
X54786Y-48385D02*
X54786Y-49035D01*
X54786Y-49035D02*
X55686Y-49035D01*
X55686Y-49035D02*
X55686Y-48385D01*
X54786Y-47685D02*
X54786Y-47035D01*
X51189Y-43385D02*
X51189Y-44285D01*
X51189Y-44285D02*
X50539Y-44285D01*
X49839Y-43385D02*
X49189Y-43385D01*
X49189Y-43385D02*
X49189Y-44285D01*
X49189Y-44285D02*
X49839Y-44285D01*
X50539Y-43385D02*
X51189Y-43385D01*
X49458Y-43217D02*
X48558Y-43217D01*
X48558Y-43217D02*
X48558Y-42567D01*
X49458Y-41867D02*
X49458Y-41217D01*
X49458Y-41217D02*
X48558Y-41217D01*
X48558Y-41217D02*
X48558Y-41867D01*
X49458Y-42567D02*
X49458Y-43217D01*
X53251Y-34817D02*
X54151Y-34817D01*
X54151Y-34817D02*
X54151Y-34317D01*
X54151Y-34317D02*
X53251Y-34317D01*
X53251Y-34317D02*
X53251Y-34817D01*
X53107Y-34140D02*
X52207Y-34140D01*
X52207Y-34140D02*
X52207Y-34640D01*
X52207Y-34640D02*
X53107Y-34640D01*
X53107Y-34640D02*
X53107Y-34140D01*
X48978Y-40219D02*
X48978Y-41119D01*
X48978Y-41119D02*
X49478Y-41119D01*
X49478Y-41119D02*
X49478Y-40219D01*
X49478Y-40219D02*
X48978Y-40219D01*
X56541Y-40302D02*
X56541Y-41202D01*
X56541Y-41202D02*
X57041Y-41202D01*
X57041Y-41202D02*
X57041Y-40302D01*
X57041Y-40302D02*
X56541Y-40302D01*
X57116Y-40302D02*
X57116Y-41202D01*
X57116Y-41202D02*
X57616Y-41202D01*
X57616Y-41202D02*
X57616Y-40302D01*
X57616Y-40302D02*
X57116Y-40302D01*
X52805Y-40298D02*
X52805Y-41198D01*
X52805Y-41198D02*
X53305Y-41198D01*
X53305Y-41198D02*
X53305Y-40298D01*
X53305Y-40298D02*
X52805Y-40298D01*
X53585Y-40298D02*
X53585Y-41198D01*
X53585Y-41198D02*
X54085Y-41198D01*
X54085Y-41198D02*
X54085Y-40298D01*
X54085Y-40298D02*
X53585Y-40298D01*
X55128Y-40302D02*
X55128Y-41202D01*
X55128Y-41202D02*
X55628Y-41202D01*
X55628Y-41202D02*
X55628Y-40302D01*
X55628Y-40302D02*
X55128Y-40302D01*
X55490Y-44475D02*
X55490Y-45375D01*
X55490Y-45375D02*
X55990Y-45375D01*
X55990Y-45375D02*
X55990Y-44475D01*
X55990Y-44475D02*
X55490Y-44475D01*
X50686Y-42817D02*
X49786Y-42817D01*
X49786Y-42817D02*
X49786Y-43317D01*
X49786Y-43317D02*
X50686Y-43317D01*
X50686Y-43317D02*
X50686Y-42817D01*
X47727Y-49974D02*
X48627Y-49974D01*
X48627Y-49974D02*
X48627Y-49474D01*
X48627Y-49474D02*
X47727Y-49474D01*
X47727Y-49474D02*
X47727Y-49974D01*
X47727Y-49337D02*
X48627Y-49337D01*
X48627Y-49337D02*
X48627Y-48837D01*
X48627Y-48837D02*
X47727Y-48837D01*
X47727Y-48837D02*
X47727Y-49337D01*
X51203Y-45492D02*
X51203Y-46392D01*
X51203Y-46392D02*
X51703Y-46392D01*
X51703Y-46392D02*
X51703Y-45492D01*
X51703Y-45492D02*
X51203Y-45492D01*
X51786Y-45211D02*
X52686Y-45211D01*
X52686Y-45211D02*
X52686Y-44711D01*
X52686Y-44711D02*
X51786Y-44711D01*
X51786Y-44711D02*
X51786Y-45211D01*
X51794Y-45806D02*
X52694Y-45806D01*
X52694Y-45806D02*
X52694Y-45306D01*
X52694Y-45306D02*
X51794Y-45306D01*
X51794Y-45306D02*
X51794Y-45806D01*
X51794Y-46393D02*
X52694Y-46393D01*
X52694Y-46393D02*
X52694Y-45893D01*
X52694Y-45893D02*
X51794Y-45893D01*
X51794Y-45893D02*
X51794Y-46393D01*
X53778Y-48522D02*
X54678Y-48522D01*
X54678Y-48522D02*
X54678Y-48022D01*
X54678Y-48022D02*
X53778Y-48022D01*
X53778Y-48022D02*
X53778Y-48522D01*
X53778Y-47947D02*
X54678Y-47947D01*
X54678Y-47947D02*
X54678Y-47447D01*
X54678Y-47447D02*
X53778Y-47447D01*
X53778Y-47447D02*
X53778Y-47947D01*
X58786Y-40907D02*
X59686Y-40907D01*
X59686Y-40907D02*
X59686Y-40407D01*
X59686Y-40407D02*
X58786Y-40407D01*
X58786Y-40407D02*
X58786Y-40907D01*
X52435Y-42596D02*
X52435Y-41696D01*
X52435Y-41696D02*
X51935Y-41696D01*
X51935Y-41696D02*
X51935Y-42596D01*
X51935Y-42596D02*
X52435Y-42596D01*
X54081Y-42981D02*
X54081Y-42081D01*
X54081Y-42081D02*
X53581Y-42081D01*
X53581Y-42081D02*
X53581Y-42981D01*
X53581Y-42981D02*
X54081Y-42981D01*
X53514Y-42981D02*
X53514Y-42081D01*
X53514Y-42081D02*
X53014Y-42081D01*
X53014Y-42081D02*
X53014Y-42981D01*
X53014Y-42981D02*
X53514Y-42981D01*
X50623Y-42569D02*
X50623Y-41669D01*
X50623Y-41669D02*
X50123Y-41669D01*
X50123Y-41669D02*
X50123Y-42569D01*
X50123Y-42569D02*
X50623Y-42569D01*
X51639Y-41805D02*
X50739Y-41805D01*
X50739Y-41805D02*
X50739Y-42305D01*
X50739Y-42305D02*
X51639Y-42305D01*
X51639Y-42305D02*
X51639Y-41805D01*
X50049Y-42569D02*
X50049Y-41669D01*
X50049Y-41669D02*
X49549Y-41669D01*
X49549Y-41669D02*
X49549Y-42569D01*
X49549Y-42569D02*
X50049Y-42569D01*
X51896Y-43152D02*
X51896Y-44052D01*
X51896Y-44052D02*
X52396Y-44052D01*
X52396Y-44052D02*
X52396Y-43152D01*
X52396Y-43152D02*
X51896Y-43152D01*
X52763Y-42006D02*
X53663Y-42006D01*
X53663Y-42006D02*
X53663Y-41506D01*
X53663Y-41506D02*
X52763Y-41506D01*
X52763Y-41506D02*
X52763Y-42006D01*
X57104Y-42895D02*
X57104Y-41995D01*
X57104Y-41995D02*
X56604Y-41995D01*
X56604Y-41995D02*
X56604Y-42895D01*
X56604Y-42895D02*
X57104Y-42895D01*
X57862Y-44541D02*
X57862Y-43641D01*
X57862Y-43641D02*
X58512Y-43641D01*
X59212Y-44541D02*
X59862Y-44541D01*
X59862Y-44541D02*
X59862Y-43641D01*
X59862Y-43641D02*
X59212Y-43641D01*
X58512Y-44541D02*
X57862Y-44541D01*
X59061Y-46436D02*
X59061Y-47336D01*
X59061Y-47336D02*
X59561Y-47336D01*
X59561Y-47336D02*
X59561Y-46436D01*
X59561Y-46436D02*
X59061Y-46436D01*
X58915Y-45467D02*
X58015Y-45467D01*
X58015Y-45467D02*
X58015Y-45967D01*
X58015Y-45967D02*
X58915Y-45967D01*
X58915Y-45967D02*
X58915Y-45467D01*
X57790Y-49179D02*
X58690Y-49179D01*
X58690Y-49179D02*
X58690Y-48679D01*
X58690Y-48679D02*
X57790Y-48679D01*
X57790Y-48679D02*
X57790Y-49179D01*
X60629Y-47537D02*
X61529Y-47537D01*
X61529Y-47537D02*
X61529Y-47037D01*
X61529Y-47037D02*
X60629Y-47037D01*
X60629Y-47037D02*
X60629Y-47537D01*
X59849Y-45557D02*
X60749Y-45557D01*
X60749Y-45557D02*
X60749Y-45057D01*
X60749Y-45057D02*
X59849Y-45057D01*
X59849Y-45057D02*
X59849Y-45557D01*
X60597Y-48719D02*
X61497Y-48719D01*
X61497Y-48719D02*
X61497Y-48219D01*
X61497Y-48219D02*
X60597Y-48219D01*
X60597Y-48219D02*
X60597Y-48719D01*
X59849Y-46128D02*
X60749Y-46128D01*
X60749Y-46128D02*
X60749Y-45628D01*
X60749Y-45628D02*
X59849Y-45628D01*
X59849Y-45628D02*
X59849Y-46128D01*
X57470Y-44719D02*
X56570Y-44719D01*
X56570Y-44719D02*
X56570Y-45219D01*
X56570Y-45219D02*
X57470Y-45219D01*
X57470Y-45219D02*
X57470Y-44719D01*
X58078Y-48281D02*
X58978Y-48281D01*
X58978Y-48281D02*
X58978Y-47781D01*
X58978Y-47781D02*
X58078Y-47781D01*
X58078Y-47781D02*
X58078Y-48281D01*
X58471Y-43514D02*
X59371Y-43514D01*
X59371Y-43514D02*
X59371Y-43014D01*
X59371Y-43014D02*
X58471Y-43014D01*
X58471Y-43014D02*
X58471Y-43514D01*
X62683Y-53111D02*
X62683Y-52211D01*
X62683Y-52211D02*
X62183Y-52211D01*
X62183Y-52211D02*
X62183Y-53111D01*
X62183Y-53111D02*
X62683Y-53111D01*
X55640Y-52706D02*
X55640Y-51806D01*
X55640Y-51806D02*
X55140Y-51806D01*
X55140Y-51806D02*
X55140Y-52706D01*
X55140Y-52706D02*
X55640Y-52706D01*
X59500Y-51878D02*
X59499Y-51887D01*
X59496Y-51897D01*
X59491Y-51905D01*
X59485Y-51913D01*
X59477Y-51919D01*
X59469Y-51924D01*
X59460Y-51926D01*
X59450Y-51927D01*
X59441Y-51927D01*
X59432Y-51924D01*
X59423Y-51919D01*
X59416Y-51913D01*
X59409Y-51906D01*
X59405Y-51897D01*
X59402Y-51888D01*
X59401Y-51878D01*
X59401Y-51869D01*
X59404Y-51860D01*
X59408Y-51851D01*
X59415Y-51844D01*
X59422Y-51837D01*
X59430Y-51833D01*
X59440Y-51830D01*
X59449Y-51829D01*
X59458Y-51829D01*
X59468Y-51832D01*
X59476Y-51836D01*
X59484Y-51842D01*
X59490Y-51850D01*
X59495Y-51858D01*
X59498Y-51867D01*
X59499Y-51877D01*
X59500Y-51878D01*
X59450Y-52328D02*
X59450Y-51928D01*
X59450Y-51928D02*
X58850Y-51928D01*
X58850Y-51928D02*
X58850Y-52328D01*
X58850Y-52728D02*
X58850Y-53128D01*
X58850Y-53128D02*
X59450Y-53128D01*
X59450Y-53128D02*
X59450Y-52728D01*
X56500Y-51909D02*
X56499Y-51918D01*
X56496Y-51928D01*
X56491Y-51936D01*
X56485Y-51944D01*
X56477Y-51950D01*
X56469Y-51955D01*
X56460Y-51957D01*
X56450Y-51958D01*
X56441Y-51958D01*
X56432Y-51955D01*
X56423Y-51950D01*
X56416Y-51944D01*
X56409Y-51937D01*
X56405Y-51928D01*
X56402Y-51919D01*
X56401Y-51909D01*
X56401Y-51900D01*
X56404Y-51891D01*
X56408Y-51882D01*
X56415Y-51875D01*
X56422Y-51868D01*
X56430Y-51864D01*
X56440Y-51861D01*
X56449Y-51860D01*
X56458Y-51860D01*
X56468Y-51863D01*
X56476Y-51867D01*
X56484Y-51873D01*
X56490Y-51881D01*
X56495Y-51889D01*
X56498Y-51898D01*
X56499Y-51908D01*
X56500Y-51909D01*
X56450Y-52359D02*
X56450Y-51959D01*
X56450Y-51959D02*
X55850Y-51959D01*
X55850Y-51959D02*
X55850Y-52359D01*
X55850Y-52759D02*
X55850Y-53159D01*
X55850Y-53159D02*
X56450Y-53159D01*
X56450Y-53159D02*
X56450Y-52759D01*
X55974Y-43221D02*
X55973Y-43230D01*
X55970Y-43240D01*
X55965Y-43248D01*
X55959Y-43256D01*
X55951Y-43262D01*
X55943Y-43267D01*
X55934Y-43269D01*
X55924Y-43270D01*
X55915Y-43270D01*
X55906Y-43267D01*
X55897Y-43262D01*
X55890Y-43256D01*
X55883Y-43249D01*
X55879Y-43240D01*
X55876Y-43231D01*
X55875Y-43221D01*
X55875Y-43212D01*
X55878Y-43203D01*
X55882Y-43194D01*
X55889Y-43187D01*
X55896Y-43180D01*
X55904Y-43176D01*
X55914Y-43173D01*
X55923Y-43172D01*
X55932Y-43172D01*
X55942Y-43175D01*
X55950Y-43179D01*
X55958Y-43185D01*
X55964Y-43193D01*
X55969Y-43201D01*
X55972Y-43210D01*
X55973Y-43220D01*
X55974Y-43221D01*
X55924Y-42771D02*
X55924Y-43171D01*
X55924Y-43171D02*
X56524Y-43171D01*
X56524Y-43171D02*
X56524Y-42771D01*
X56524Y-42371D02*
X56524Y-41971D01*
X56524Y-41971D02*
X55924Y-41971D01*
X55924Y-41971D02*
X55924Y-42371D01*
X57994Y-44688D02*
X57993Y-44697D01*
X57990Y-44707D01*
X57985Y-44715D01*
X57979Y-44723D01*
X57971Y-44729D01*
X57963Y-44734D01*
X57954Y-44736D01*
X57944Y-44737D01*
X57935Y-44737D01*
X57926Y-44734D01*
X57917Y-44729D01*
X57910Y-44723D01*
X57903Y-44716D01*
X57899Y-44707D01*
X57896Y-44698D01*
X57895Y-44688D01*
X57895Y-44679D01*
X57898Y-44670D01*
X57902Y-44661D01*
X57909Y-44654D01*
X57916Y-44647D01*
X57924Y-44643D01*
X57934Y-44640D01*
X57943Y-44639D01*
X57952Y-44639D01*
X57962Y-44642D01*
X57970Y-44646D01*
X57978Y-44652D01*
X57984Y-44660D01*
X57989Y-44668D01*
X57992Y-44677D01*
X57993Y-44687D01*
X57994Y-44688D01*
X58394Y-44688D02*
X57994Y-44688D01*
X57994Y-44688D02*
X57994Y-45288D01*
X57994Y-45288D02*
X58394Y-45288D01*
X58794Y-45288D02*
X59194Y-45288D01*
X59194Y-45288D02*
X59194Y-44688D01*
X59194Y-44688D02*
X58794Y-44688D01*
X55222Y-43221D02*
X55221Y-43230D01*
X55218Y-43240D01*
X55213Y-43248D01*
X55207Y-43256D01*
X55199Y-43262D01*
X55191Y-43267D01*
X55182Y-43269D01*
X55172Y-43270D01*
X55163Y-43270D01*
X55154Y-43267D01*
X55145Y-43262D01*
X55138Y-43256D01*
X55131Y-43249D01*
X55127Y-43240D01*
X55124Y-43231D01*
X55123Y-43221D01*
X55123Y-43212D01*
X55126Y-43203D01*
X55130Y-43194D01*
X55137Y-43187D01*
X55144Y-43180D01*
X55152Y-43176D01*
X55162Y-43173D01*
X55171Y-43172D01*
X55180Y-43172D01*
X55190Y-43175D01*
X55198Y-43179D01*
X55206Y-43185D01*
X55212Y-43193D01*
X55217Y-43201D01*
X55220Y-43210D01*
X55221Y-43220D01*
X55222Y-43221D01*
X55172Y-42771D02*
X55172Y-43171D01*
X55172Y-43171D02*
X55772Y-43171D01*
X55772Y-43171D02*
X55772Y-42771D01*
X55772Y-42371D02*
X55772Y-41971D01*
X55772Y-41971D02*
X55172Y-41971D01*
X55172Y-41971D02*
X55172Y-42371D01*
X64009Y-53890D02*
X63109Y-53890D01*
X63109Y-53890D02*
X63109Y-53240D01*
X64009Y-52540D02*
X64009Y-51890D01*
X64009Y-51890D02*
X63109Y-51890D01*
X63109Y-51890D02*
X63109Y-52540D01*
X64009Y-53240D02*
X64009Y-53890D01*
X54919Y-52059D02*
X54019Y-52059D01*
X54019Y-52059D02*
X54019Y-51409D01*
X54919Y-50709D02*
X54919Y-50059D01*
X54919Y-50059D02*
X54019Y-50059D01*
X54019Y-50059D02*
X54019Y-50709D01*
X54919Y-51409D02*
X54919Y-52059D01*
X61070Y-52882D02*
X61070Y-52096D01*
X61070Y-52096D02*
X62018Y-52096D01*
X62018Y-52096D02*
X62018Y-52882D01*
X62018Y-52882D02*
X61070Y-52882D01*
X57601Y-52925D02*
X57601Y-52139D01*
X57601Y-52139D02*
X58549Y-52139D01*
X58549Y-52139D02*
X58549Y-52925D01*
X58549Y-52925D02*
X57601Y-52925D01*
X64813Y-50981D02*
X64813Y-51767D01*
X64813Y-51767D02*
X63865Y-51767D01*
X63865Y-51767D02*
X63865Y-50981D01*
X63865Y-50981D02*
X64813Y-50981D01*
X64813Y-49961D02*
X64813Y-50747D01*
X64813Y-50747D02*
X63865Y-50747D01*
X63865Y-50747D02*
X63865Y-49961D01*
X63865Y-49961D02*
X64813Y-49961D01*
G54D18*
X57338Y-38691D02*
X57332Y-38744D01*
X57317Y-38796D01*
X57291Y-38844D01*
X57257Y-38886D01*
X57215Y-38921D01*
X57167Y-38947D01*
X57115Y-38963D01*
X57061Y-38968D01*
X57008Y-38964D01*
X56956Y-38948D01*
X56908Y-38923D01*
X56866Y-38889D01*
X56831Y-38848D01*
X56805Y-38800D01*
X56789Y-38748D01*
X56783Y-38694D01*
X56787Y-38641D01*
X56802Y-38589D01*
X56827Y-38541D01*
X56861Y-38498D01*
X56902Y-38463D01*
X56949Y-38437D01*
X57001Y-38420D01*
X57055Y-38414D01*
X57108Y-38418D01*
X57160Y-38432D01*
X57208Y-38457D01*
X57251Y-38490D01*
X57287Y-38531D01*
X57313Y-38578D01*
X57331Y-38630D01*
X57337Y-38684D01*
X57338Y-38691D01*
X57355Y-36919D02*
X57651Y-36919D01*
X57355Y-36132D02*
X57651Y-36132D01*
X49285Y-37018D02*
X48989Y-37018D01*
X49285Y-36230D02*
X48989Y-36230D01*
X49302Y-37017D02*
X49335Y-36982D01*
X49365Y-36943D01*
X49391Y-36902D01*
X49413Y-36859D01*
X49432Y-36814D01*
X49447Y-36768D01*
X49457Y-36720D01*
X49463Y-36672D01*
X49466Y-36624D01*
X49463Y-36576D01*
X49457Y-36528D01*
X49447Y-36480D01*
X49432Y-36434D01*
X49413Y-36389D01*
X49391Y-36346D01*
X49365Y-36305D01*
X49335Y-36266D01*
X49302Y-36231D01*
X57338Y-36133D02*
X57305Y-36168D01*
X57275Y-36207D01*
X57249Y-36248D01*
X57227Y-36291D01*
X57208Y-36336D01*
X57193Y-36382D01*
X57183Y-36430D01*
X57177Y-36478D01*
X57174Y-36526D01*
X57177Y-36574D01*
X57183Y-36622D01*
X57193Y-36670D01*
X57208Y-36716D01*
X57227Y-36761D01*
X57249Y-36804D01*
X57275Y-36845D01*
X57305Y-36884D01*
X57338Y-36919D01*
X57690Y-39510D02*
X57513Y-39510D01*
X48950Y-39510D02*
X49127Y-39510D01*
X48950Y-35510D02*
X49127Y-35510D01*
X57690Y-35510D02*
X57513Y-35510D01*
X57694Y-35510D02*
X57694Y-39510D01*
X48946Y-35510D02*
X48946Y-39510D01*
G54D11*
X57504Y-47890D02*
X57504Y-46000D01*
X57504Y-46000D02*
X58961Y-46000D01*
X58961Y-46000D02*
X58961Y-47771D01*
X58961Y-47771D02*
X57426Y-47771D01*
X57426Y-47771D02*
X57347Y-47771D01*
X57347Y-47771D02*
X57347Y-47890D01*
X57347Y-47890D02*
X57465Y-47890D01*
G54D17*
X48754Y-48787D02*
X48753Y-48796D01*
X48750Y-48806D01*
X48745Y-48814D01*
X48739Y-48822D01*
X48731Y-48828D01*
X48723Y-48833D01*
X48714Y-48835D01*
X48704Y-48836D01*
X48695Y-48836D01*
X48686Y-48833D01*
X48677Y-48828D01*
X48670Y-48822D01*
X48663Y-48815D01*
X48659Y-48806D01*
X48656Y-48797D01*
X48655Y-48787D01*
X48655Y-48778D01*
X48658Y-48769D01*
X48662Y-48760D01*
X48669Y-48753D01*
X48676Y-48746D01*
X48684Y-48742D01*
X48694Y-48739D01*
X48703Y-48738D01*
X48712Y-48738D01*
X48722Y-48741D01*
X48730Y-48745D01*
X48738Y-48751D01*
X48744Y-48759D01*
X48749Y-48767D01*
X48752Y-48776D01*
X48753Y-48786D01*
X48754Y-48787D01*
X49154Y-48787D02*
X48754Y-48787D01*
X48754Y-48787D02*
X48754Y-49387D01*
X48754Y-49387D02*
X49154Y-49387D01*
X49554Y-49387D02*
X49954Y-49387D01*
X49954Y-49387D02*
X49954Y-48787D01*
X49954Y-48787D02*
X49554Y-48787D01*
X51389Y-41540D02*
X51388Y-41549D01*
X51385Y-41559D01*
X51380Y-41567D01*
X51374Y-41575D01*
X51366Y-41581D01*
X51358Y-41586D01*
X51349Y-41588D01*
X51339Y-41589D01*
X51330Y-41589D01*
X51321Y-41586D01*
X51312Y-41581D01*
X51305Y-41575D01*
X51298Y-41568D01*
X51294Y-41559D01*
X51291Y-41550D01*
X51290Y-41540D01*
X51290Y-41531D01*
X51293Y-41522D01*
X51297Y-41513D01*
X51304Y-41506D01*
X51311Y-41499D01*
X51319Y-41495D01*
X51329Y-41492D01*
X51338Y-41491D01*
X51347Y-41491D01*
X51357Y-41494D01*
X51365Y-41498D01*
X51373Y-41504D01*
X51379Y-41512D01*
X51384Y-41520D01*
X51387Y-41529D01*
X51388Y-41539D01*
X51389Y-41540D01*
X50889Y-41540D02*
X51289Y-41540D01*
X51289Y-41540D02*
X51289Y-40940D01*
X51289Y-40940D02*
X50889Y-40940D01*
X50489Y-40940D02*
X50089Y-40940D01*
X50089Y-40940D02*
X50089Y-41540D01*
X50089Y-41540D02*
X50489Y-41540D01*
X51035Y-34560D02*
X51034Y-34569D01*
X51031Y-34579D01*
X51026Y-34587D01*
X51020Y-34595D01*
X51012Y-34601D01*
X51004Y-34606D01*
X50995Y-34608D01*
X50985Y-34609D01*
X50976Y-34609D01*
X50967Y-34606D01*
X50958Y-34601D01*
X50951Y-34595D01*
X50944Y-34588D01*
X50940Y-34579D01*
X50937Y-34570D01*
X50936Y-34560D01*
X50936Y-34551D01*
X50939Y-34542D01*
X50943Y-34533D01*
X50950Y-34526D01*
X50957Y-34519D01*
X50965Y-34515D01*
X50975Y-34512D01*
X50984Y-34511D01*
X50993Y-34511D01*
X51003Y-34514D01*
X51011Y-34518D01*
X51019Y-34524D01*
X51025Y-34532D01*
X51030Y-34540D01*
X51033Y-34549D01*
X51034Y-34559D01*
X51035Y-34560D01*
X50535Y-34560D02*
X50935Y-34560D01*
X50935Y-34560D02*
X50935Y-33960D01*
X50935Y-33960D02*
X50535Y-33960D01*
X50135Y-33960D02*
X49735Y-33960D01*
X49735Y-33960D02*
X49735Y-34560D01*
X49735Y-34560D02*
X50135Y-34560D01*
X45951Y-48980D02*
X45950Y-48989D01*
X45947Y-48999D01*
X45942Y-49007D01*
X45936Y-49015D01*
X45928Y-49021D01*
X45920Y-49026D01*
X45911Y-49028D01*
X45901Y-49029D01*
X45892Y-49029D01*
X45883Y-49026D01*
X45874Y-49021D01*
X45867Y-49015D01*
X45860Y-49008D01*
X45856Y-48999D01*
X45853Y-48990D01*
X45852Y-48980D01*
X45852Y-48971D01*
X45855Y-48962D01*
X45859Y-48953D01*
X45866Y-48946D01*
X45873Y-48939D01*
X45881Y-48935D01*
X45891Y-48932D01*
X45900Y-48931D01*
X45909Y-48931D01*
X45919Y-48934D01*
X45927Y-48938D01*
X45935Y-48944D01*
X45941Y-48952D01*
X45946Y-48960D01*
X45949Y-48969D01*
X45950Y-48979D01*
X45951Y-48980D01*
X46351Y-48980D02*
X45951Y-48980D01*
X45951Y-48980D02*
X45951Y-49580D01*
X45951Y-49580D02*
X46351Y-49580D01*
X46751Y-49580D02*
X47151Y-49580D01*
X47151Y-49580D02*
X47151Y-48980D01*
X47151Y-48980D02*
X46751Y-48980D01*
X55518Y-33881D02*
X55517Y-33890D01*
X55514Y-33900D01*
X55509Y-33908D01*
X55503Y-33916D01*
X55495Y-33922D01*
X55487Y-33927D01*
X55478Y-33929D01*
X55468Y-33930D01*
X55459Y-33930D01*
X55450Y-33927D01*
X55441Y-33922D01*
X55434Y-33916D01*
X55427Y-33909D01*
X55423Y-33900D01*
X55420Y-33891D01*
X55419Y-33881D01*
X55419Y-33872D01*
X55422Y-33863D01*
X55426Y-33854D01*
X55433Y-33847D01*
X55440Y-33840D01*
X55448Y-33836D01*
X55458Y-33833D01*
X55467Y-33832D01*
X55476Y-33832D01*
X55486Y-33835D01*
X55494Y-33839D01*
X55502Y-33845D01*
X55508Y-33853D01*
X55513Y-33861D01*
X55516Y-33870D01*
X55517Y-33880D01*
X55518Y-33881D01*
X55918Y-33881D02*
X55518Y-33881D01*
X55518Y-33881D02*
X55518Y-34481D01*
X55518Y-34481D02*
X55918Y-34481D01*
X56318Y-34481D02*
X56718Y-34481D01*
X56718Y-34481D02*
X56718Y-33881D01*
X56718Y-33881D02*
X56318Y-33881D01*
G54D13*
X52829Y-51281D02*
X52829Y-51005D01*
X52764Y-51005D01*
X52724Y-51018D01*
X52698Y-51044D01*
X52685Y-51070D01*
X52672Y-51123D01*
X52672Y-51162D01*
X52685Y-51215D01*
X52698Y-51241D01*
X52724Y-51268D01*
X52764Y-51281D01*
X52829Y-51281D01*
X52435Y-51005D02*
X52488Y-51005D01*
X52514Y-51018D01*
X52527Y-51031D01*
X52553Y-51070D01*
X52566Y-51123D01*
X52566Y-51228D01*
X52553Y-51254D01*
X52540Y-51268D01*
X52514Y-51281D01*
X52461Y-51281D01*
X52435Y-51268D01*
X52422Y-51254D01*
X52409Y-51228D01*
X52409Y-51162D01*
X52422Y-51136D01*
X52435Y-51123D01*
X52461Y-51110D01*
X52514Y-51110D01*
X52540Y-51123D01*
X52553Y-51136D01*
X52566Y-51162D01*
X65289Y-53041D02*
X65013Y-53041D01*
X65013Y-53106D01*
X65026Y-53146D01*
X65052Y-53172D01*
X65078Y-53185D01*
X65131Y-53198D01*
X65170Y-53198D01*
X65223Y-53185D01*
X65249Y-53172D01*
X65276Y-53146D01*
X65289Y-53106D01*
X65289Y-53041D01*
X65013Y-53290D02*
X65013Y-53474D01*
X65289Y-53356D01*
G54D14*
X53589Y-49495D02*
X53589Y-49215D01*
X53546Y-49215D01*
X53521Y-49229D01*
X53503Y-49255D01*
X53495Y-49282D01*
X53486Y-49335D01*
X53486Y-49375D01*
X53495Y-49429D01*
X53503Y-49455D01*
X53521Y-49482D01*
X53546Y-49495D01*
X53589Y-49495D01*
X53315Y-49495D02*
X53418Y-49495D01*
X53366Y-49495D02*
X53366Y-49215D01*
X53383Y-49255D01*
X53401Y-49282D01*
X53418Y-49295D01*
G54D15*
X62426Y-40139D02*
X62426Y-40336D01*
X62440Y-40375D01*
X62466Y-40402D01*
X62505Y-40415D01*
X62532Y-40415D01*
X62151Y-40415D02*
X62308Y-40415D01*
X62230Y-40415D02*
X62230Y-40139D01*
X62256Y-40178D01*
X62282Y-40204D01*
X62308Y-40218D01*
G54D17*
X54731Y-43404D02*
X54731Y-43285D01*
X54481Y-43285D01*
X54505Y-43475D02*
X54493Y-43487D01*
X54481Y-43510D01*
X54481Y-43570D01*
X54493Y-43594D01*
X54505Y-43606D01*
X54529Y-43617D01*
X54553Y-43617D01*
X54588Y-43606D01*
X54731Y-43463D01*
X54731Y-43617D01*
G54D14*
X64302Y-42919D02*
X64362Y-42786D01*
X64405Y-42919D02*
X64405Y-42639D01*
X64337Y-42639D01*
X64319Y-42653D01*
X64311Y-42666D01*
X64302Y-42693D01*
X64302Y-42733D01*
X64311Y-42759D01*
X64319Y-42773D01*
X64337Y-42786D01*
X64405Y-42786D01*
X64242Y-42639D02*
X64131Y-42639D01*
X64191Y-42746D01*
X64165Y-42746D01*
X64148Y-42759D01*
X64139Y-42773D01*
X64131Y-42799D01*
X64131Y-42866D01*
X64139Y-42893D01*
X64148Y-42906D01*
X64165Y-42919D01*
X64217Y-42919D01*
X64234Y-42906D01*
X64242Y-42893D01*
X64063Y-42666D02*
X64054Y-42653D01*
X64037Y-42639D01*
X63994Y-42639D01*
X63977Y-42653D01*
X63968Y-42666D01*
X63960Y-42693D01*
X63960Y-42719D01*
X63968Y-42759D01*
X64071Y-42919D01*
X63960Y-42919D01*
X63134Y-47333D02*
X63147Y-47324D01*
X63160Y-47298D01*
X63160Y-47281D01*
X63147Y-47256D01*
X63120Y-47238D01*
X63094Y-47230D01*
X63040Y-47221D01*
X63000Y-47221D01*
X62947Y-47230D01*
X62920Y-47238D01*
X62894Y-47256D01*
X62880Y-47281D01*
X62880Y-47298D01*
X62894Y-47324D01*
X62907Y-47333D01*
X62880Y-47393D02*
X62880Y-47504D01*
X62987Y-47444D01*
X62987Y-47470D01*
X63000Y-47487D01*
X63014Y-47496D01*
X63040Y-47504D01*
X63107Y-47504D01*
X63134Y-47496D01*
X63147Y-47487D01*
X63160Y-47470D01*
X63160Y-47418D01*
X63147Y-47401D01*
X63134Y-47393D01*
X53324Y-47016D02*
X53333Y-47029D01*
X53359Y-47042D01*
X53376Y-47042D01*
X53401Y-47029D01*
X53419Y-47002D01*
X53427Y-46976D01*
X53436Y-46922D01*
X53436Y-46882D01*
X53427Y-46829D01*
X53419Y-46802D01*
X53401Y-46776D01*
X53376Y-46762D01*
X53359Y-46762D01*
X53333Y-46776D01*
X53324Y-46789D01*
X53170Y-46856D02*
X53170Y-47042D01*
X53213Y-46749D02*
X53256Y-46949D01*
X53144Y-46949D01*
X53042Y-46762D02*
X53025Y-46762D01*
X53008Y-46776D01*
X52999Y-46789D01*
X52990Y-46816D01*
X52982Y-46869D01*
X52982Y-46936D01*
X52990Y-46989D01*
X52999Y-47016D01*
X53008Y-47029D01*
X53025Y-47042D01*
X53042Y-47042D01*
X53059Y-47029D01*
X53068Y-47016D01*
X53076Y-46989D01*
X53085Y-46936D01*
X53085Y-46869D01*
X53076Y-46816D01*
X53068Y-46789D01*
X53059Y-46776D01*
X53042Y-46762D01*
X55308Y-46926D02*
X55317Y-46939D01*
X55343Y-46952D01*
X55360Y-46952D01*
X55385Y-46939D01*
X55403Y-46912D01*
X55411Y-46886D01*
X55420Y-46832D01*
X55420Y-46792D01*
X55411Y-46739D01*
X55403Y-46712D01*
X55385Y-46686D01*
X55360Y-46672D01*
X55343Y-46672D01*
X55317Y-46686D01*
X55308Y-46699D01*
X55154Y-46766D02*
X55154Y-46952D01*
X55197Y-46659D02*
X55240Y-46859D01*
X55128Y-46859D01*
X55034Y-46792D02*
X55052Y-46779D01*
X55060Y-46766D01*
X55069Y-46739D01*
X55069Y-46726D01*
X55060Y-46699D01*
X55052Y-46686D01*
X55034Y-46672D01*
X55000Y-46672D01*
X54983Y-46686D01*
X54974Y-46699D01*
X54966Y-46726D01*
X54966Y-46739D01*
X54974Y-46766D01*
X54983Y-46779D01*
X55000Y-46792D01*
X55034Y-46792D01*
X55052Y-46806D01*
X55060Y-46819D01*
X55069Y-46846D01*
X55069Y-46899D01*
X55060Y-46926D01*
X55052Y-46939D01*
X55034Y-46952D01*
X55000Y-46952D01*
X54983Y-46939D01*
X54974Y-46926D01*
X54966Y-46899D01*
X54966Y-46846D01*
X54974Y-46819D01*
X54983Y-46806D01*
X55000Y-46792D01*
X50328Y-44595D02*
X50337Y-44608D01*
X50363Y-44621D01*
X50380Y-44621D01*
X50405Y-44608D01*
X50423Y-44581D01*
X50431Y-44555D01*
X50440Y-44501D01*
X50440Y-44461D01*
X50431Y-44408D01*
X50423Y-44381D01*
X50405Y-44355D01*
X50380Y-44341D01*
X50363Y-44341D01*
X50337Y-44355D01*
X50328Y-44368D01*
X50268Y-44341D02*
X50157Y-44341D01*
X50217Y-44448D01*
X50191Y-44448D01*
X50174Y-44461D01*
X50165Y-44475D01*
X50157Y-44501D01*
X50157Y-44568D01*
X50165Y-44595D01*
X50174Y-44608D01*
X50191Y-44621D01*
X50243Y-44621D01*
X50260Y-44608D01*
X50268Y-44595D01*
X49994Y-44341D02*
X50080Y-44341D01*
X50089Y-44475D01*
X50080Y-44461D01*
X50063Y-44448D01*
X50020Y-44448D01*
X50003Y-44461D01*
X49994Y-44475D01*
X49986Y-44501D01*
X49986Y-44568D01*
X49994Y-44595D01*
X50003Y-44608D01*
X50020Y-44621D01*
X50063Y-44621D01*
X50080Y-44608D01*
X50089Y-44595D01*
X48958Y-43571D02*
X48967Y-43584D01*
X48993Y-43597D01*
X49010Y-43597D01*
X49035Y-43584D01*
X49053Y-43557D01*
X49061Y-43531D01*
X49070Y-43477D01*
X49070Y-43437D01*
X49061Y-43384D01*
X49053Y-43357D01*
X49035Y-43331D01*
X49010Y-43317D01*
X48993Y-43317D01*
X48967Y-43331D01*
X48958Y-43344D01*
X48898Y-43317D02*
X48787Y-43317D01*
X48847Y-43424D01*
X48821Y-43424D01*
X48804Y-43437D01*
X48795Y-43451D01*
X48787Y-43477D01*
X48787Y-43544D01*
X48795Y-43571D01*
X48804Y-43584D01*
X48821Y-43597D01*
X48873Y-43597D01*
X48890Y-43584D01*
X48898Y-43571D01*
X48702Y-43597D02*
X48667Y-43597D01*
X48650Y-43584D01*
X48642Y-43571D01*
X48624Y-43531D01*
X48616Y-43477D01*
X48616Y-43371D01*
X48624Y-43344D01*
X48633Y-43331D01*
X48650Y-43317D01*
X48684Y-43317D01*
X48702Y-43331D01*
X48710Y-43344D01*
X48719Y-43371D01*
X48719Y-43437D01*
X48710Y-43464D01*
X48702Y-43477D01*
X48684Y-43491D01*
X48650Y-43491D01*
X48633Y-43477D01*
X48624Y-43464D01*
X48616Y-43437D01*
X53835Y-34219D02*
X53895Y-34086D01*
X53938Y-34219D02*
X53938Y-33939D01*
X53870Y-33939D01*
X53852Y-33953D01*
X53844Y-33966D01*
X53835Y-33993D01*
X53835Y-34033D01*
X53844Y-34059D01*
X53852Y-34073D01*
X53870Y-34086D01*
X53938Y-34086D01*
X53767Y-33966D02*
X53758Y-33953D01*
X53741Y-33939D01*
X53698Y-33939D01*
X53681Y-33953D01*
X53672Y-33966D01*
X53664Y-33993D01*
X53664Y-34019D01*
X53672Y-34059D01*
X53775Y-34219D01*
X53664Y-34219D01*
X53501Y-33939D02*
X53587Y-33939D01*
X53596Y-34073D01*
X53587Y-34059D01*
X53570Y-34046D01*
X53527Y-34046D01*
X53510Y-34059D01*
X53501Y-34073D01*
X53493Y-34099D01*
X53493Y-34166D01*
X53501Y-34193D01*
X53510Y-34206D01*
X53527Y-34219D01*
X53570Y-34219D01*
X53587Y-34206D01*
X53596Y-34193D01*
X51954Y-34485D02*
X51963Y-34498D01*
X51989Y-34511D01*
X52006Y-34511D01*
X52031Y-34498D01*
X52049Y-34471D01*
X52057Y-34445D01*
X52066Y-34391D01*
X52066Y-34351D01*
X52057Y-34298D01*
X52049Y-34271D01*
X52031Y-34245D01*
X52006Y-34231D01*
X51989Y-34231D01*
X51963Y-34245D01*
X51954Y-34258D01*
X51894Y-34231D02*
X51774Y-34231D01*
X51851Y-34511D01*
X51612Y-34511D02*
X51715Y-34511D01*
X51663Y-34511D02*
X51663Y-34231D01*
X51680Y-34271D01*
X51698Y-34298D01*
X51715Y-34311D01*
X48790Y-40537D02*
X48803Y-40528D01*
X48816Y-40502D01*
X48816Y-40485D01*
X48803Y-40460D01*
X48776Y-40442D01*
X48750Y-40434D01*
X48696Y-40425D01*
X48656Y-40425D01*
X48603Y-40434D01*
X48576Y-40442D01*
X48550Y-40460D01*
X48536Y-40485D01*
X48536Y-40502D01*
X48550Y-40528D01*
X48563Y-40537D01*
X48536Y-40691D02*
X48536Y-40657D01*
X48550Y-40640D01*
X48563Y-40631D01*
X48603Y-40614D01*
X48656Y-40605D01*
X48763Y-40605D01*
X48790Y-40614D01*
X48803Y-40622D01*
X48816Y-40640D01*
X48816Y-40674D01*
X48803Y-40691D01*
X48790Y-40700D01*
X48763Y-40708D01*
X48696Y-40708D01*
X48670Y-40700D01*
X48656Y-40691D01*
X48643Y-40674D01*
X48643Y-40640D01*
X48656Y-40622D01*
X48670Y-40614D01*
X48696Y-40605D01*
X48816Y-40879D02*
X48816Y-40776D01*
X48816Y-40828D02*
X48536Y-40828D01*
X48576Y-40811D01*
X48603Y-40793D01*
X48616Y-40776D01*
X56861Y-41406D02*
X56874Y-41397D01*
X56887Y-41371D01*
X56887Y-41354D01*
X56874Y-41329D01*
X56847Y-41311D01*
X56821Y-41303D01*
X56767Y-41294D01*
X56727Y-41294D01*
X56674Y-41303D01*
X56647Y-41311D01*
X56621Y-41329D01*
X56607Y-41354D01*
X56607Y-41371D01*
X56621Y-41397D01*
X56634Y-41406D01*
X56607Y-41560D02*
X56607Y-41526D01*
X56621Y-41509D01*
X56634Y-41500D01*
X56674Y-41483D01*
X56727Y-41474D01*
X56834Y-41474D01*
X56861Y-41483D01*
X56874Y-41491D01*
X56887Y-41509D01*
X56887Y-41543D01*
X56874Y-41560D01*
X56861Y-41569D01*
X56834Y-41577D01*
X56767Y-41577D01*
X56741Y-41569D01*
X56727Y-41560D01*
X56714Y-41543D01*
X56714Y-41509D01*
X56727Y-41491D01*
X56741Y-41483D01*
X56767Y-41474D01*
X56634Y-41645D02*
X56621Y-41654D01*
X56607Y-41671D01*
X56607Y-41714D01*
X56621Y-41731D01*
X56634Y-41740D01*
X56661Y-41748D01*
X56687Y-41748D01*
X56727Y-41740D01*
X56887Y-41637D01*
X56887Y-41748D01*
X57493Y-41413D02*
X57506Y-41404D01*
X57519Y-41378D01*
X57519Y-41361D01*
X57506Y-41336D01*
X57479Y-41318D01*
X57453Y-41310D01*
X57399Y-41301D01*
X57359Y-41301D01*
X57306Y-41310D01*
X57279Y-41318D01*
X57253Y-41336D01*
X57239Y-41361D01*
X57239Y-41378D01*
X57253Y-41404D01*
X57266Y-41413D01*
X57239Y-41567D02*
X57239Y-41533D01*
X57253Y-41516D01*
X57266Y-41507D01*
X57306Y-41490D01*
X57359Y-41481D01*
X57466Y-41481D01*
X57493Y-41490D01*
X57506Y-41498D01*
X57519Y-41516D01*
X57519Y-41550D01*
X57506Y-41567D01*
X57493Y-41576D01*
X57466Y-41584D01*
X57399Y-41584D01*
X57373Y-41576D01*
X57359Y-41567D01*
X57346Y-41550D01*
X57346Y-41516D01*
X57359Y-41498D01*
X57373Y-41490D01*
X57399Y-41481D01*
X57239Y-41644D02*
X57239Y-41755D01*
X57346Y-41695D01*
X57346Y-41721D01*
X57359Y-41738D01*
X57373Y-41747D01*
X57399Y-41755D01*
X57466Y-41755D01*
X57493Y-41747D01*
X57506Y-41738D01*
X57519Y-41721D01*
X57519Y-41669D01*
X57506Y-41652D01*
X57493Y-41644D01*
X52654Y-40613D02*
X52667Y-40604D01*
X52680Y-40578D01*
X52680Y-40561D01*
X52667Y-40536D01*
X52640Y-40518D01*
X52614Y-40510D01*
X52560Y-40501D01*
X52520Y-40501D01*
X52467Y-40510D01*
X52440Y-40518D01*
X52414Y-40536D01*
X52400Y-40561D01*
X52400Y-40578D01*
X52414Y-40604D01*
X52427Y-40613D01*
X52400Y-40767D02*
X52400Y-40733D01*
X52414Y-40716D01*
X52427Y-40707D01*
X52467Y-40690D01*
X52520Y-40681D01*
X52627Y-40681D01*
X52654Y-40690D01*
X52667Y-40698D01*
X52680Y-40716D01*
X52680Y-40750D01*
X52667Y-40767D01*
X52654Y-40776D01*
X52627Y-40784D01*
X52560Y-40784D01*
X52534Y-40776D01*
X52520Y-40767D01*
X52507Y-40750D01*
X52507Y-40716D01*
X52520Y-40698D01*
X52534Y-40690D01*
X52560Y-40681D01*
X52680Y-40869D02*
X52680Y-40904D01*
X52667Y-40921D01*
X52654Y-40929D01*
X52614Y-40947D01*
X52560Y-40955D01*
X52454Y-40955D01*
X52427Y-40947D01*
X52414Y-40938D01*
X52400Y-40921D01*
X52400Y-40887D01*
X52414Y-40869D01*
X52427Y-40861D01*
X52454Y-40852D01*
X52520Y-40852D01*
X52547Y-40861D01*
X52560Y-40869D01*
X52574Y-40887D01*
X52574Y-40921D01*
X52560Y-40938D01*
X52547Y-40947D01*
X52520Y-40955D01*
X54453Y-40637D02*
X54466Y-40628D01*
X54479Y-40602D01*
X54479Y-40585D01*
X54466Y-40560D01*
X54439Y-40542D01*
X54413Y-40534D01*
X54359Y-40525D01*
X54319Y-40525D01*
X54266Y-40534D01*
X54239Y-40542D01*
X54213Y-40560D01*
X54199Y-40585D01*
X54199Y-40602D01*
X54213Y-40628D01*
X54226Y-40637D01*
X54199Y-40791D02*
X54199Y-40757D01*
X54213Y-40740D01*
X54226Y-40731D01*
X54266Y-40714D01*
X54319Y-40705D01*
X54426Y-40705D01*
X54453Y-40714D01*
X54466Y-40722D01*
X54479Y-40740D01*
X54479Y-40774D01*
X54466Y-40791D01*
X54453Y-40800D01*
X54426Y-40808D01*
X54359Y-40808D01*
X54333Y-40800D01*
X54319Y-40791D01*
X54306Y-40774D01*
X54306Y-40740D01*
X54319Y-40722D01*
X54333Y-40714D01*
X54359Y-40705D01*
X54199Y-40868D02*
X54199Y-40988D01*
X54479Y-40911D01*
X55521Y-41552D02*
X55530Y-41565D01*
X55556Y-41578D01*
X55573Y-41578D01*
X55598Y-41565D01*
X55616Y-41538D01*
X55624Y-41512D01*
X55633Y-41458D01*
X55633Y-41418D01*
X55624Y-41365D01*
X55616Y-41338D01*
X55598Y-41312D01*
X55573Y-41298D01*
X55556Y-41298D01*
X55530Y-41312D01*
X55521Y-41325D01*
X55367Y-41298D02*
X55401Y-41298D01*
X55418Y-41312D01*
X55427Y-41325D01*
X55444Y-41365D01*
X55453Y-41418D01*
X55453Y-41525D01*
X55444Y-41552D01*
X55436Y-41565D01*
X55418Y-41578D01*
X55384Y-41578D01*
X55367Y-41565D01*
X55358Y-41552D01*
X55350Y-41525D01*
X55350Y-41458D01*
X55358Y-41432D01*
X55367Y-41418D01*
X55384Y-41405D01*
X55418Y-41405D01*
X55436Y-41418D01*
X55444Y-41432D01*
X55453Y-41458D01*
X55196Y-41298D02*
X55230Y-41298D01*
X55247Y-41312D01*
X55256Y-41325D01*
X55273Y-41365D01*
X55282Y-41418D01*
X55282Y-41525D01*
X55273Y-41552D01*
X55265Y-41565D01*
X55247Y-41578D01*
X55213Y-41578D01*
X55196Y-41565D01*
X55187Y-41552D01*
X55179Y-41525D01*
X55179Y-41458D01*
X55187Y-41432D01*
X55196Y-41418D01*
X55213Y-41405D01*
X55247Y-41405D01*
X55265Y-41418D01*
X55273Y-41432D01*
X55282Y-41458D01*
X55859Y-45717D02*
X55868Y-45730D01*
X55894Y-45743D01*
X55911Y-45743D01*
X55936Y-45730D01*
X55954Y-45703D01*
X55962Y-45677D01*
X55971Y-45623D01*
X55971Y-45583D01*
X55962Y-45530D01*
X55954Y-45503D01*
X55936Y-45477D01*
X55911Y-45463D01*
X55894Y-45463D01*
X55868Y-45477D01*
X55859Y-45490D01*
X55791Y-45490D02*
X55782Y-45477D01*
X55765Y-45463D01*
X55722Y-45463D01*
X55705Y-45477D01*
X55696Y-45490D01*
X55688Y-45517D01*
X55688Y-45543D01*
X55696Y-45583D01*
X55799Y-45743D01*
X55688Y-45743D01*
X55628Y-45463D02*
X55517Y-45463D01*
X55577Y-45570D01*
X55551Y-45570D01*
X55534Y-45583D01*
X55525Y-45597D01*
X55517Y-45623D01*
X55517Y-45690D01*
X55525Y-45717D01*
X55534Y-45730D01*
X55551Y-45743D01*
X55603Y-45743D01*
X55620Y-45730D01*
X55628Y-45717D01*
X51135Y-43123D02*
X51144Y-43136D01*
X51170Y-43149D01*
X51187Y-43149D01*
X51212Y-43136D01*
X51230Y-43109D01*
X51238Y-43083D01*
X51247Y-43029D01*
X51247Y-42989D01*
X51238Y-42936D01*
X51230Y-42909D01*
X51212Y-42883D01*
X51187Y-42869D01*
X51170Y-42869D01*
X51144Y-42883D01*
X51135Y-42896D01*
X51067Y-42896D02*
X51058Y-42883D01*
X51041Y-42869D01*
X50998Y-42869D01*
X50981Y-42883D01*
X50972Y-42896D01*
X50964Y-42923D01*
X50964Y-42949D01*
X50972Y-42989D01*
X51075Y-43149D01*
X50964Y-43149D01*
X50879Y-43149D02*
X50844Y-43149D01*
X50827Y-43136D01*
X50819Y-43123D01*
X50801Y-43083D01*
X50793Y-43029D01*
X50793Y-42923D01*
X50801Y-42896D01*
X50810Y-42883D01*
X50827Y-42869D01*
X50861Y-42869D01*
X50879Y-42883D01*
X50887Y-42896D01*
X50896Y-42923D01*
X50896Y-42989D01*
X50887Y-43016D01*
X50879Y-43029D01*
X50861Y-43043D01*
X50827Y-43043D01*
X50810Y-43029D01*
X50801Y-43016D01*
X50793Y-42989D01*
X47508Y-49848D02*
X47517Y-49861D01*
X47543Y-49874D01*
X47560Y-49874D01*
X47585Y-49861D01*
X47603Y-49834D01*
X47611Y-49808D01*
X47620Y-49754D01*
X47620Y-49714D01*
X47611Y-49661D01*
X47603Y-49634D01*
X47585Y-49608D01*
X47560Y-49594D01*
X47543Y-49594D01*
X47517Y-49608D01*
X47508Y-49621D01*
X47448Y-49594D02*
X47337Y-49594D01*
X47397Y-49701D01*
X47371Y-49701D01*
X47354Y-49714D01*
X47345Y-49728D01*
X47337Y-49754D01*
X47337Y-49821D01*
X47345Y-49848D01*
X47354Y-49861D01*
X47371Y-49874D01*
X47423Y-49874D01*
X47440Y-49861D01*
X47448Y-49848D01*
X47269Y-49621D02*
X47260Y-49608D01*
X47243Y-49594D01*
X47200Y-49594D01*
X47183Y-49608D01*
X47174Y-49621D01*
X47166Y-49648D01*
X47166Y-49674D01*
X47174Y-49714D01*
X47277Y-49874D01*
X47166Y-49874D01*
X47447Y-49169D02*
X47507Y-49036D01*
X47550Y-49169D02*
X47550Y-48889D01*
X47482Y-48889D01*
X47464Y-48903D01*
X47456Y-48916D01*
X47447Y-48943D01*
X47447Y-48983D01*
X47456Y-49009D01*
X47464Y-49023D01*
X47482Y-49036D01*
X47550Y-49036D01*
X47276Y-49169D02*
X47379Y-49169D01*
X47327Y-49169D02*
X47327Y-48889D01*
X47344Y-48929D01*
X47362Y-48956D01*
X47379Y-48969D01*
X51490Y-45400D02*
X51550Y-45267D01*
X51593Y-45400D02*
X51593Y-45120D01*
X51525Y-45120D01*
X51507Y-45134D01*
X51499Y-45147D01*
X51490Y-45174D01*
X51490Y-45214D01*
X51499Y-45240D01*
X51507Y-45254D01*
X51525Y-45267D01*
X51593Y-45267D01*
X51422Y-45147D02*
X51413Y-45134D01*
X51396Y-45120D01*
X51353Y-45120D01*
X51336Y-45134D01*
X51327Y-45147D01*
X51319Y-45174D01*
X51319Y-45200D01*
X51327Y-45240D01*
X51430Y-45400D01*
X51319Y-45400D01*
X53123Y-45091D02*
X53132Y-45104D01*
X53158Y-45117D01*
X53175Y-45117D01*
X53200Y-45104D01*
X53218Y-45077D01*
X53226Y-45051D01*
X53235Y-44997D01*
X53235Y-44957D01*
X53226Y-44904D01*
X53218Y-44877D01*
X53200Y-44851D01*
X53175Y-44837D01*
X53158Y-44837D01*
X53132Y-44851D01*
X53123Y-44864D01*
X52969Y-44931D02*
X52969Y-45117D01*
X53012Y-44824D02*
X53055Y-45024D01*
X52943Y-45024D01*
X52781Y-45117D02*
X52884Y-45117D01*
X52832Y-45117D02*
X52832Y-44837D01*
X52849Y-44877D01*
X52867Y-44904D01*
X52884Y-44917D01*
X53119Y-45622D02*
X53128Y-45635D01*
X53154Y-45648D01*
X53171Y-45648D01*
X53196Y-45635D01*
X53214Y-45608D01*
X53222Y-45582D01*
X53231Y-45528D01*
X53231Y-45488D01*
X53222Y-45435D01*
X53214Y-45408D01*
X53196Y-45382D01*
X53171Y-45368D01*
X53154Y-45368D01*
X53128Y-45382D01*
X53119Y-45395D01*
X52965Y-45462D02*
X52965Y-45648D01*
X53008Y-45355D02*
X53051Y-45555D01*
X52939Y-45555D01*
X52888Y-45368D02*
X52777Y-45368D01*
X52837Y-45475D01*
X52811Y-45475D01*
X52794Y-45488D01*
X52785Y-45502D01*
X52777Y-45528D01*
X52777Y-45595D01*
X52785Y-45622D01*
X52794Y-45635D01*
X52811Y-45648D01*
X52863Y-45648D01*
X52880Y-45635D01*
X52888Y-45622D01*
X53115Y-46221D02*
X53124Y-46234D01*
X53150Y-46247D01*
X53167Y-46247D01*
X53192Y-46234D01*
X53210Y-46207D01*
X53218Y-46181D01*
X53227Y-46127D01*
X53227Y-46087D01*
X53218Y-46034D01*
X53210Y-46007D01*
X53192Y-45981D01*
X53167Y-45967D01*
X53150Y-45967D01*
X53124Y-45981D01*
X53115Y-45994D01*
X52961Y-46061D02*
X52961Y-46247D01*
X53004Y-45954D02*
X53047Y-46154D01*
X52935Y-46154D01*
X52781Y-45967D02*
X52867Y-45967D01*
X52876Y-46101D01*
X52867Y-46087D01*
X52850Y-46074D01*
X52807Y-46074D01*
X52790Y-46087D01*
X52781Y-46101D01*
X52773Y-46127D01*
X52773Y-46194D01*
X52781Y-46221D01*
X52790Y-46234D01*
X52807Y-46247D01*
X52850Y-46247D01*
X52867Y-46234D01*
X52876Y-46221D01*
X53525Y-48381D02*
X53585Y-48248D01*
X53628Y-48381D02*
X53628Y-48101D01*
X53560Y-48101D01*
X53542Y-48115D01*
X53534Y-48128D01*
X53525Y-48155D01*
X53525Y-48195D01*
X53534Y-48221D01*
X53542Y-48235D01*
X53560Y-48248D01*
X53628Y-48248D01*
X53465Y-48101D02*
X53354Y-48101D01*
X53414Y-48208D01*
X53388Y-48208D01*
X53371Y-48221D01*
X53362Y-48235D01*
X53354Y-48261D01*
X53354Y-48328D01*
X53362Y-48355D01*
X53371Y-48368D01*
X53388Y-48381D01*
X53440Y-48381D01*
X53457Y-48368D01*
X53465Y-48355D01*
X53548Y-47811D02*
X53557Y-47824D01*
X53583Y-47837D01*
X53600Y-47837D01*
X53625Y-47824D01*
X53643Y-47797D01*
X53651Y-47771D01*
X53660Y-47717D01*
X53660Y-47677D01*
X53651Y-47624D01*
X53643Y-47597D01*
X53625Y-47571D01*
X53600Y-47557D01*
X53583Y-47557D01*
X53557Y-47571D01*
X53548Y-47584D01*
X53385Y-47557D02*
X53471Y-47557D01*
X53480Y-47691D01*
X53471Y-47677D01*
X53454Y-47664D01*
X53411Y-47664D01*
X53394Y-47677D01*
X53385Y-47691D01*
X53377Y-47717D01*
X53377Y-47784D01*
X53385Y-47811D01*
X53394Y-47824D01*
X53411Y-47837D01*
X53454Y-47837D01*
X53471Y-47824D01*
X53480Y-47811D01*
X53266Y-47557D02*
X53249Y-47557D01*
X53232Y-47571D01*
X53223Y-47584D01*
X53214Y-47611D01*
X53206Y-47664D01*
X53206Y-47731D01*
X53214Y-47784D01*
X53223Y-47811D01*
X53232Y-47824D01*
X53249Y-47837D01*
X53266Y-47837D01*
X53283Y-47824D01*
X53292Y-47811D01*
X53300Y-47784D01*
X53309Y-47731D01*
X53309Y-47664D01*
X53300Y-47611D01*
X53292Y-47584D01*
X53283Y-47571D01*
X53266Y-47557D01*
X59371Y-41252D02*
X59380Y-41265D01*
X59406Y-41278D01*
X59423Y-41278D01*
X59448Y-41265D01*
X59466Y-41238D01*
X59474Y-41212D01*
X59483Y-41158D01*
X59483Y-41118D01*
X59474Y-41065D01*
X59466Y-41038D01*
X59448Y-41012D01*
X59423Y-40998D01*
X59406Y-40998D01*
X59380Y-41012D01*
X59371Y-41025D01*
X59303Y-41025D02*
X59294Y-41012D01*
X59277Y-40998D01*
X59234Y-40998D01*
X59217Y-41012D01*
X59208Y-41025D01*
X59200Y-41052D01*
X59200Y-41078D01*
X59208Y-41118D01*
X59311Y-41278D01*
X59200Y-41278D01*
X59132Y-41025D02*
X59123Y-41012D01*
X59106Y-40998D01*
X59063Y-40998D01*
X59046Y-41012D01*
X59037Y-41025D01*
X59029Y-41052D01*
X59029Y-41078D01*
X59037Y-41118D01*
X59140Y-41278D01*
X59029Y-41278D01*
X52800Y-42224D02*
X52813Y-42215D01*
X52826Y-42189D01*
X52826Y-42172D01*
X52813Y-42147D01*
X52786Y-42129D01*
X52760Y-42121D01*
X52706Y-42112D01*
X52666Y-42112D01*
X52613Y-42121D01*
X52586Y-42129D01*
X52560Y-42147D01*
X52546Y-42172D01*
X52546Y-42189D01*
X52560Y-42215D01*
X52573Y-42224D01*
X52573Y-42292D02*
X52560Y-42301D01*
X52546Y-42318D01*
X52546Y-42361D01*
X52560Y-42378D01*
X52573Y-42387D01*
X52600Y-42395D01*
X52626Y-42395D01*
X52666Y-42387D01*
X52826Y-42284D01*
X52826Y-42395D01*
X52640Y-42549D02*
X52826Y-42549D01*
X52533Y-42506D02*
X52733Y-42463D01*
X52733Y-42575D01*
X53894Y-43255D02*
X53907Y-43246D01*
X53920Y-43220D01*
X53920Y-43203D01*
X53907Y-43178D01*
X53880Y-43160D01*
X53854Y-43152D01*
X53800Y-43143D01*
X53760Y-43143D01*
X53707Y-43152D01*
X53680Y-43160D01*
X53654Y-43178D01*
X53640Y-43203D01*
X53640Y-43220D01*
X53654Y-43246D01*
X53667Y-43255D01*
X53640Y-43315D02*
X53640Y-43426D01*
X53747Y-43366D01*
X53747Y-43392D01*
X53760Y-43409D01*
X53774Y-43418D01*
X53800Y-43426D01*
X53867Y-43426D01*
X53894Y-43418D01*
X53907Y-43409D01*
X53920Y-43392D01*
X53920Y-43340D01*
X53907Y-43323D01*
X53894Y-43315D01*
X53920Y-43597D02*
X53920Y-43494D01*
X53920Y-43546D02*
X53640Y-43546D01*
X53680Y-43529D01*
X53707Y-43511D01*
X53720Y-43494D01*
X54099Y-41863D02*
X54108Y-41876D01*
X54134Y-41889D01*
X54151Y-41889D01*
X54176Y-41876D01*
X54194Y-41849D01*
X54202Y-41823D01*
X54211Y-41769D01*
X54211Y-41729D01*
X54202Y-41676D01*
X54194Y-41649D01*
X54176Y-41623D01*
X54151Y-41609D01*
X54134Y-41609D01*
X54108Y-41623D01*
X54099Y-41636D01*
X54039Y-41609D02*
X53928Y-41609D01*
X53988Y-41716D01*
X53962Y-41716D01*
X53945Y-41729D01*
X53936Y-41743D01*
X53928Y-41769D01*
X53928Y-41836D01*
X53936Y-41863D01*
X53945Y-41876D01*
X53962Y-41889D01*
X54014Y-41889D01*
X54031Y-41876D01*
X54039Y-41863D01*
X53817Y-41609D02*
X53800Y-41609D01*
X53783Y-41623D01*
X53774Y-41636D01*
X53765Y-41663D01*
X53757Y-41716D01*
X53757Y-41783D01*
X53765Y-41836D01*
X53774Y-41863D01*
X53783Y-41876D01*
X53800Y-41889D01*
X53817Y-41889D01*
X53834Y-41876D01*
X53843Y-41863D01*
X53851Y-41836D01*
X53860Y-41783D01*
X53860Y-41716D01*
X53851Y-41663D01*
X53843Y-41636D01*
X53834Y-41623D01*
X53817Y-41609D01*
X51080Y-42697D02*
X51089Y-42710D01*
X51115Y-42723D01*
X51132Y-42723D01*
X51157Y-42710D01*
X51175Y-42683D01*
X51183Y-42657D01*
X51192Y-42603D01*
X51192Y-42563D01*
X51183Y-42510D01*
X51175Y-42483D01*
X51157Y-42457D01*
X51132Y-42443D01*
X51115Y-42443D01*
X51089Y-42457D01*
X51080Y-42470D01*
X51020Y-42443D02*
X50909Y-42443D01*
X50969Y-42550D01*
X50943Y-42550D01*
X50926Y-42563D01*
X50917Y-42577D01*
X50909Y-42603D01*
X50909Y-42670D01*
X50917Y-42697D01*
X50926Y-42710D01*
X50943Y-42723D01*
X50995Y-42723D01*
X51012Y-42710D01*
X51020Y-42697D01*
X50755Y-42443D02*
X50789Y-42443D01*
X50806Y-42457D01*
X50815Y-42470D01*
X50832Y-42510D01*
X50841Y-42563D01*
X50841Y-42670D01*
X50832Y-42697D01*
X50824Y-42710D01*
X50806Y-42723D01*
X50772Y-42723D01*
X50755Y-42710D01*
X50746Y-42697D01*
X50738Y-42670D01*
X50738Y-42603D01*
X50746Y-42577D01*
X50755Y-42563D01*
X50772Y-42550D01*
X50806Y-42550D01*
X50824Y-42563D01*
X50832Y-42577D01*
X50841Y-42603D01*
X51780Y-41342D02*
X51793Y-41333D01*
X51806Y-41307D01*
X51806Y-41290D01*
X51793Y-41265D01*
X51766Y-41247D01*
X51740Y-41239D01*
X51686Y-41230D01*
X51646Y-41230D01*
X51593Y-41239D01*
X51566Y-41247D01*
X51540Y-41265D01*
X51526Y-41290D01*
X51526Y-41307D01*
X51540Y-41333D01*
X51553Y-41342D01*
X51526Y-41402D02*
X51526Y-41513D01*
X51633Y-41453D01*
X51633Y-41479D01*
X51646Y-41496D01*
X51660Y-41505D01*
X51686Y-41513D01*
X51753Y-41513D01*
X51780Y-41505D01*
X51793Y-41496D01*
X51806Y-41479D01*
X51806Y-41427D01*
X51793Y-41410D01*
X51780Y-41402D01*
X51526Y-41573D02*
X51526Y-41693D01*
X51806Y-41616D01*
X49910Y-41184D02*
X49923Y-41175D01*
X49936Y-41149D01*
X49936Y-41132D01*
X49923Y-41107D01*
X49896Y-41089D01*
X49870Y-41081D01*
X49816Y-41072D01*
X49776Y-41072D01*
X49723Y-41081D01*
X49696Y-41089D01*
X49670Y-41107D01*
X49656Y-41132D01*
X49656Y-41149D01*
X49670Y-41175D01*
X49683Y-41184D01*
X49656Y-41244D02*
X49656Y-41355D01*
X49763Y-41295D01*
X49763Y-41321D01*
X49776Y-41338D01*
X49790Y-41347D01*
X49816Y-41355D01*
X49883Y-41355D01*
X49910Y-41347D01*
X49923Y-41338D01*
X49936Y-41321D01*
X49936Y-41269D01*
X49923Y-41252D01*
X49910Y-41244D01*
X49776Y-41458D02*
X49763Y-41440D01*
X49750Y-41432D01*
X49723Y-41423D01*
X49710Y-41423D01*
X49683Y-41432D01*
X49670Y-41440D01*
X49656Y-41458D01*
X49656Y-41492D01*
X49670Y-41509D01*
X49683Y-41518D01*
X49710Y-41526D01*
X49723Y-41526D01*
X49750Y-41518D01*
X49763Y-41509D01*
X49776Y-41492D01*
X49776Y-41458D01*
X49790Y-41440D01*
X49803Y-41432D01*
X49830Y-41423D01*
X49883Y-41423D01*
X49910Y-41432D01*
X49923Y-41440D01*
X49936Y-41458D01*
X49936Y-41492D01*
X49923Y-41509D01*
X49910Y-41518D01*
X49883Y-41526D01*
X49830Y-41526D01*
X49803Y-41518D01*
X49790Y-41509D01*
X49776Y-41492D01*
X52780Y-43499D02*
X52793Y-43490D01*
X52806Y-43464D01*
X52806Y-43447D01*
X52793Y-43422D01*
X52766Y-43404D01*
X52740Y-43396D01*
X52686Y-43387D01*
X52646Y-43387D01*
X52593Y-43396D01*
X52566Y-43404D01*
X52540Y-43422D01*
X52526Y-43447D01*
X52526Y-43464D01*
X52540Y-43490D01*
X52553Y-43499D01*
X52620Y-43653D02*
X52806Y-43653D01*
X52513Y-43610D02*
X52713Y-43567D01*
X52713Y-43679D01*
X52526Y-43730D02*
X52526Y-43850D01*
X52806Y-43773D01*
X53402Y-43243D02*
X53415Y-43234D01*
X53428Y-43208D01*
X53428Y-43191D01*
X53415Y-43166D01*
X53388Y-43148D01*
X53362Y-43140D01*
X53308Y-43131D01*
X53268Y-43131D01*
X53215Y-43140D01*
X53188Y-43148D01*
X53162Y-43166D01*
X53148Y-43191D01*
X53148Y-43208D01*
X53162Y-43234D01*
X53175Y-43243D01*
X53242Y-43397D02*
X53428Y-43397D01*
X53135Y-43354D02*
X53335Y-43311D01*
X53335Y-43423D01*
X53175Y-43482D02*
X53162Y-43491D01*
X53148Y-43508D01*
X53148Y-43551D01*
X53162Y-43568D01*
X53175Y-43577D01*
X53202Y-43585D01*
X53228Y-43585D01*
X53268Y-43577D01*
X53428Y-43474D01*
X53428Y-43585D01*
X56969Y-43172D02*
X56982Y-43163D01*
X56995Y-43137D01*
X56995Y-43120D01*
X56982Y-43095D01*
X56955Y-43077D01*
X56929Y-43069D01*
X56875Y-43060D01*
X56835Y-43060D01*
X56782Y-43069D01*
X56755Y-43077D01*
X56729Y-43095D01*
X56715Y-43120D01*
X56715Y-43137D01*
X56729Y-43163D01*
X56742Y-43172D01*
X56715Y-43335D02*
X56715Y-43249D01*
X56849Y-43240D01*
X56835Y-43249D01*
X56822Y-43266D01*
X56822Y-43309D01*
X56835Y-43326D01*
X56849Y-43335D01*
X56875Y-43343D01*
X56942Y-43343D01*
X56969Y-43335D01*
X56982Y-43326D01*
X56995Y-43309D01*
X56995Y-43266D01*
X56982Y-43249D01*
X56969Y-43240D01*
X56995Y-43514D02*
X56995Y-43411D01*
X56995Y-43463D02*
X56715Y-43463D01*
X56755Y-43446D01*
X56782Y-43428D01*
X56795Y-43411D01*
G54D17*
X60539Y-44207D02*
X60553Y-44221D01*
X60596Y-44235D01*
X60625Y-44235D01*
X60668Y-44221D01*
X60696Y-44193D01*
X60711Y-44164D01*
X60725Y-44107D01*
X60725Y-44064D01*
X60711Y-44007D01*
X60696Y-43978D01*
X60668Y-43950D01*
X60625Y-43935D01*
X60596Y-43935D01*
X60553Y-43950D01*
X60539Y-43964D01*
X60253Y-44235D02*
X60425Y-44235D01*
X60339Y-44235D02*
X60339Y-43935D01*
X60368Y-43978D01*
X60396Y-44007D01*
X60425Y-44021D01*
X59996Y-44035D02*
X59996Y-44235D01*
X60067Y-43921D02*
X60139Y-44135D01*
X59953Y-44135D01*
G54D14*
X59944Y-46771D02*
X59811Y-46711D01*
X59944Y-46668D02*
X59664Y-46668D01*
X59664Y-46736D01*
X59678Y-46754D01*
X59691Y-46762D01*
X59718Y-46771D01*
X59758Y-46771D01*
X59784Y-46762D01*
X59798Y-46754D01*
X59811Y-46736D01*
X59811Y-46668D01*
X59691Y-46839D02*
X59678Y-46848D01*
X59664Y-46865D01*
X59664Y-46908D01*
X59678Y-46925D01*
X59691Y-46934D01*
X59718Y-46942D01*
X59744Y-46942D01*
X59784Y-46934D01*
X59944Y-46831D01*
X59944Y-46942D01*
X59664Y-47053D02*
X59664Y-47070D01*
X59678Y-47087D01*
X59691Y-47096D01*
X59718Y-47105D01*
X59771Y-47113D01*
X59838Y-47113D01*
X59891Y-47105D01*
X59918Y-47096D01*
X59931Y-47087D01*
X59944Y-47070D01*
X59944Y-47053D01*
X59931Y-47036D01*
X59918Y-47027D01*
X59891Y-47019D01*
X59838Y-47010D01*
X59771Y-47010D01*
X59718Y-47019D01*
X59691Y-47027D01*
X59678Y-47036D01*
X59664Y-47053D01*
X57792Y-45857D02*
X57852Y-45724D01*
X57895Y-45857D02*
X57895Y-45577D01*
X57827Y-45577D01*
X57809Y-45591D01*
X57801Y-45604D01*
X57792Y-45631D01*
X57792Y-45671D01*
X57801Y-45697D01*
X57809Y-45711D01*
X57827Y-45724D01*
X57895Y-45724D01*
X57724Y-45604D02*
X57715Y-45591D01*
X57698Y-45577D01*
X57655Y-45577D01*
X57638Y-45591D01*
X57629Y-45604D01*
X57621Y-45631D01*
X57621Y-45657D01*
X57629Y-45697D01*
X57732Y-45857D01*
X57621Y-45857D01*
X57450Y-45857D02*
X57553Y-45857D01*
X57501Y-45857D02*
X57501Y-45577D01*
X57518Y-45617D01*
X57536Y-45644D01*
X57553Y-45657D01*
X58371Y-49528D02*
X58380Y-49541D01*
X58406Y-49554D01*
X58423Y-49554D01*
X58448Y-49541D01*
X58466Y-49514D01*
X58474Y-49488D01*
X58483Y-49434D01*
X58483Y-49394D01*
X58474Y-49341D01*
X58466Y-49314D01*
X58448Y-49288D01*
X58423Y-49274D01*
X58406Y-49274D01*
X58380Y-49288D01*
X58371Y-49301D01*
X58200Y-49554D02*
X58303Y-49554D01*
X58251Y-49554D02*
X58251Y-49274D01*
X58268Y-49314D01*
X58286Y-49341D01*
X58303Y-49354D01*
X58046Y-49274D02*
X58080Y-49274D01*
X58097Y-49288D01*
X58106Y-49301D01*
X58123Y-49341D01*
X58132Y-49394D01*
X58132Y-49501D01*
X58123Y-49528D01*
X58115Y-49541D01*
X58097Y-49554D01*
X58063Y-49554D01*
X58046Y-49541D01*
X58037Y-49528D01*
X58029Y-49501D01*
X58029Y-49434D01*
X58037Y-49408D01*
X58046Y-49394D01*
X58063Y-49381D01*
X58097Y-49381D01*
X58115Y-49394D01*
X58123Y-49408D01*
X58132Y-49434D01*
X61190Y-46933D02*
X61199Y-46946D01*
X61225Y-46959D01*
X61242Y-46959D01*
X61267Y-46946D01*
X61285Y-46919D01*
X61293Y-46893D01*
X61302Y-46839D01*
X61302Y-46799D01*
X61293Y-46746D01*
X61285Y-46719D01*
X61267Y-46693D01*
X61242Y-46679D01*
X61225Y-46679D01*
X61199Y-46693D01*
X61190Y-46706D01*
X61019Y-46959D02*
X61122Y-46959D01*
X61070Y-46959D02*
X61070Y-46679D01*
X61087Y-46719D01*
X61105Y-46746D01*
X61122Y-46759D01*
X60908Y-46679D02*
X60891Y-46679D01*
X60874Y-46693D01*
X60865Y-46706D01*
X60856Y-46733D01*
X60848Y-46786D01*
X60848Y-46853D01*
X60856Y-46906D01*
X60865Y-46933D01*
X60874Y-46946D01*
X60891Y-46959D01*
X60908Y-46959D01*
X60925Y-46946D01*
X60934Y-46933D01*
X60942Y-46906D01*
X60951Y-46853D01*
X60951Y-46786D01*
X60942Y-46733D01*
X60934Y-46706D01*
X60925Y-46693D01*
X60908Y-46679D01*
X60406Y-44914D02*
X60415Y-44927D01*
X60441Y-44940D01*
X60458Y-44940D01*
X60483Y-44927D01*
X60501Y-44900D01*
X60509Y-44874D01*
X60518Y-44820D01*
X60518Y-44780D01*
X60509Y-44727D01*
X60501Y-44700D01*
X60483Y-44674D01*
X60458Y-44660D01*
X60441Y-44660D01*
X60415Y-44674D01*
X60406Y-44687D01*
X60235Y-44940D02*
X60338Y-44940D01*
X60286Y-44940D02*
X60286Y-44660D01*
X60303Y-44700D01*
X60321Y-44727D01*
X60338Y-44740D01*
X60064Y-44940D02*
X60167Y-44940D01*
X60115Y-44940D02*
X60115Y-44660D01*
X60132Y-44700D01*
X60150Y-44727D01*
X60167Y-44740D01*
X61084Y-49075D02*
X61093Y-49088D01*
X61119Y-49101D01*
X61136Y-49101D01*
X61161Y-49088D01*
X61179Y-49061D01*
X61187Y-49035D01*
X61196Y-48981D01*
X61196Y-48941D01*
X61187Y-48888D01*
X61179Y-48861D01*
X61161Y-48835D01*
X61136Y-48821D01*
X61119Y-48821D01*
X61093Y-48835D01*
X61084Y-48848D01*
X60999Y-49101D02*
X60964Y-49101D01*
X60947Y-49088D01*
X60939Y-49075D01*
X60921Y-49035D01*
X60913Y-48981D01*
X60913Y-48875D01*
X60921Y-48848D01*
X60930Y-48835D01*
X60947Y-48821D01*
X60981Y-48821D01*
X60999Y-48835D01*
X61007Y-48848D01*
X61016Y-48875D01*
X61016Y-48941D01*
X61007Y-48968D01*
X60999Y-48981D01*
X60981Y-48995D01*
X60947Y-48995D01*
X60930Y-48981D01*
X60921Y-48968D01*
X60913Y-48941D01*
X60340Y-46457D02*
X60349Y-46470D01*
X60375Y-46483D01*
X60392Y-46483D01*
X60417Y-46470D01*
X60435Y-46443D01*
X60443Y-46417D01*
X60452Y-46363D01*
X60452Y-46323D01*
X60443Y-46270D01*
X60435Y-46243D01*
X60417Y-46217D01*
X60392Y-46203D01*
X60375Y-46203D01*
X60349Y-46217D01*
X60340Y-46230D01*
X60237Y-46323D02*
X60255Y-46310D01*
X60263Y-46297D01*
X60272Y-46270D01*
X60272Y-46257D01*
X60263Y-46230D01*
X60255Y-46217D01*
X60237Y-46203D01*
X60203Y-46203D01*
X60186Y-46217D01*
X60177Y-46230D01*
X60169Y-46257D01*
X60169Y-46270D01*
X60177Y-46297D01*
X60186Y-46310D01*
X60203Y-46323D01*
X60237Y-46323D01*
X60255Y-46337D01*
X60263Y-46350D01*
X60272Y-46377D01*
X60272Y-46430D01*
X60263Y-46457D01*
X60255Y-46470D01*
X60237Y-46483D01*
X60203Y-46483D01*
X60186Y-46470D01*
X60177Y-46457D01*
X60169Y-46430D01*
X60169Y-46377D01*
X60177Y-46350D01*
X60186Y-46337D01*
X60203Y-46323D01*
X57135Y-45556D02*
X57144Y-45569D01*
X57170Y-45582D01*
X57187Y-45582D01*
X57212Y-45569D01*
X57230Y-45542D01*
X57238Y-45516D01*
X57247Y-45462D01*
X57247Y-45422D01*
X57238Y-45369D01*
X57230Y-45342D01*
X57212Y-45316D01*
X57187Y-45302D01*
X57170Y-45302D01*
X57144Y-45316D01*
X57135Y-45329D01*
X56964Y-45582D02*
X57067Y-45582D01*
X57015Y-45582D02*
X57015Y-45302D01*
X57032Y-45342D01*
X57050Y-45369D01*
X57067Y-45382D01*
X56896Y-45329D02*
X56887Y-45316D01*
X56870Y-45302D01*
X56827Y-45302D01*
X56810Y-45316D01*
X56801Y-45329D01*
X56793Y-45356D01*
X56793Y-45382D01*
X56801Y-45422D01*
X56904Y-45582D01*
X56793Y-45582D01*
X58658Y-48614D02*
X58667Y-48627D01*
X58693Y-48640D01*
X58710Y-48640D01*
X58735Y-48627D01*
X58753Y-48600D01*
X58761Y-48574D01*
X58770Y-48520D01*
X58770Y-48480D01*
X58761Y-48427D01*
X58753Y-48400D01*
X58735Y-48374D01*
X58710Y-48360D01*
X58693Y-48360D01*
X58667Y-48374D01*
X58658Y-48387D01*
X58487Y-48640D02*
X58590Y-48640D01*
X58538Y-48640D02*
X58538Y-48360D01*
X58555Y-48400D01*
X58573Y-48427D01*
X58590Y-48440D01*
X58427Y-48360D02*
X58316Y-48360D01*
X58376Y-48467D01*
X58350Y-48467D01*
X58333Y-48480D01*
X58324Y-48494D01*
X58316Y-48520D01*
X58316Y-48587D01*
X58324Y-48614D01*
X58333Y-48627D01*
X58350Y-48640D01*
X58402Y-48640D01*
X58419Y-48627D01*
X58427Y-48614D01*
X59021Y-42902D02*
X59030Y-42915D01*
X59056Y-42928D01*
X59073Y-42928D01*
X59098Y-42915D01*
X59116Y-42888D01*
X59124Y-42862D01*
X59133Y-42808D01*
X59133Y-42768D01*
X59124Y-42715D01*
X59116Y-42688D01*
X59098Y-42662D01*
X59073Y-42648D01*
X59056Y-42648D01*
X59030Y-42662D01*
X59021Y-42675D01*
X58850Y-42928D02*
X58953Y-42928D01*
X58901Y-42928D02*
X58901Y-42648D01*
X58918Y-42688D01*
X58936Y-42715D01*
X58953Y-42728D01*
X58687Y-42648D02*
X58773Y-42648D01*
X58782Y-42782D01*
X58773Y-42768D01*
X58756Y-42755D01*
X58713Y-42755D01*
X58696Y-42768D01*
X58687Y-42782D01*
X58679Y-42808D01*
X58679Y-42875D01*
X58687Y-42902D01*
X58696Y-42915D01*
X58713Y-42928D01*
X58756Y-42928D01*
X58773Y-42915D01*
X58782Y-42902D01*
X63000Y-52574D02*
X63013Y-52565D01*
X63026Y-52539D01*
X63026Y-52522D01*
X63013Y-52497D01*
X62986Y-52479D01*
X62960Y-52471D01*
X62906Y-52462D01*
X62866Y-52462D01*
X62813Y-52471D01*
X62786Y-52479D01*
X62760Y-52497D01*
X62746Y-52522D01*
X62746Y-52539D01*
X62760Y-52565D01*
X62773Y-52574D01*
X62773Y-52642D02*
X62760Y-52651D01*
X62746Y-52668D01*
X62746Y-52711D01*
X62760Y-52728D01*
X62773Y-52737D01*
X62800Y-52745D01*
X62826Y-52745D01*
X62866Y-52737D01*
X63026Y-52634D01*
X63026Y-52745D01*
X63026Y-52916D02*
X63026Y-52813D01*
X63026Y-52865D02*
X62746Y-52865D01*
X62786Y-52848D01*
X62813Y-52830D01*
X62826Y-52813D01*
X55528Y-53032D02*
X55537Y-53045D01*
X55563Y-53058D01*
X55580Y-53058D01*
X55605Y-53045D01*
X55623Y-53018D01*
X55631Y-52992D01*
X55640Y-52938D01*
X55640Y-52898D01*
X55631Y-52845D01*
X55623Y-52818D01*
X55605Y-52792D01*
X55580Y-52778D01*
X55563Y-52778D01*
X55537Y-52792D01*
X55528Y-52805D01*
X55460Y-52805D02*
X55451Y-52792D01*
X55434Y-52778D01*
X55391Y-52778D01*
X55374Y-52792D01*
X55365Y-52805D01*
X55357Y-52832D01*
X55357Y-52858D01*
X55365Y-52898D01*
X55468Y-53058D01*
X55357Y-53058D01*
X55246Y-52778D02*
X55229Y-52778D01*
X55212Y-52792D01*
X55203Y-52805D01*
X55194Y-52832D01*
X55186Y-52885D01*
X55186Y-52952D01*
X55194Y-53005D01*
X55203Y-53032D01*
X55212Y-53045D01*
X55229Y-53058D01*
X55246Y-53058D01*
X55263Y-53045D01*
X55272Y-53032D01*
X55280Y-53005D01*
X55289Y-52952D01*
X55289Y-52885D01*
X55280Y-52832D01*
X55272Y-52805D01*
X55263Y-52792D01*
X55246Y-52778D01*
G54D17*
X59825Y-52348D02*
X59825Y-52229D01*
X59575Y-52229D01*
X59825Y-52561D02*
X59825Y-52419D01*
X59825Y-52490D02*
X59575Y-52490D01*
X59611Y-52466D01*
X59635Y-52442D01*
X59647Y-52419D01*
X59575Y-52716D02*
X59575Y-52740D01*
X59587Y-52764D01*
X59599Y-52776D01*
X59623Y-52788D01*
X59670Y-52799D01*
X59730Y-52799D01*
X59778Y-52788D01*
X59801Y-52776D01*
X59813Y-52764D01*
X59825Y-52740D01*
X59825Y-52716D01*
X59813Y-52692D01*
X59801Y-52680D01*
X59778Y-52669D01*
X59730Y-52657D01*
X59670Y-52657D01*
X59623Y-52669D01*
X59599Y-52680D01*
X59587Y-52692D01*
X59575Y-52716D01*
X56202Y-53487D02*
X56321Y-53487D01*
X56321Y-53237D01*
X56108Y-53487D02*
X56060Y-53487D01*
X56036Y-53475D01*
X56024Y-53463D01*
X56000Y-53428D01*
X55989Y-53380D01*
X55989Y-53285D01*
X56000Y-53261D01*
X56012Y-53249D01*
X56036Y-53237D01*
X56084Y-53237D01*
X56108Y-53249D01*
X56119Y-53261D01*
X56131Y-53285D01*
X56131Y-53344D01*
X56119Y-53368D01*
X56108Y-53380D01*
X56084Y-53392D01*
X56036Y-53392D01*
X56012Y-53380D01*
X56000Y-53368D01*
X55989Y-53344D01*
X56357Y-43416D02*
X56357Y-43297D01*
X56107Y-43297D01*
X56214Y-43534D02*
X56202Y-43510D01*
X56191Y-43499D01*
X56167Y-43487D01*
X56155Y-43487D01*
X56131Y-43499D01*
X56119Y-43510D01*
X56107Y-43534D01*
X56107Y-43582D01*
X56119Y-43606D01*
X56131Y-43618D01*
X56155Y-43629D01*
X56167Y-43629D01*
X56191Y-43618D01*
X56202Y-43606D01*
X56214Y-43582D01*
X56214Y-43534D01*
X56226Y-43510D01*
X56238Y-43499D01*
X56262Y-43487D01*
X56310Y-43487D01*
X56333Y-43499D01*
X56345Y-43510D01*
X56357Y-43534D01*
X56357Y-43582D01*
X56345Y-43606D01*
X56333Y-43618D01*
X56310Y-43629D01*
X56262Y-43629D01*
X56238Y-43618D01*
X56226Y-43606D01*
X56214Y-43582D01*
X59513Y-45097D02*
X59632Y-45097D01*
X59632Y-44847D01*
X59454Y-44847D02*
X59288Y-44847D01*
X59395Y-45097D01*
X55605Y-43430D02*
X55617Y-43418D01*
X55629Y-43383D01*
X55629Y-43359D01*
X55617Y-43323D01*
X55593Y-43299D01*
X55570Y-43288D01*
X55522Y-43276D01*
X55486Y-43276D01*
X55439Y-43288D01*
X55415Y-43299D01*
X55391Y-43323D01*
X55379Y-43359D01*
X55379Y-43383D01*
X55391Y-43418D01*
X55403Y-43430D01*
X55629Y-43668D02*
X55629Y-43526D01*
X55629Y-43597D02*
X55379Y-43597D01*
X55415Y-43573D01*
X55439Y-43549D01*
X55451Y-43526D01*
X55379Y-43752D02*
X55379Y-43918D01*
X55629Y-43811D01*
X63748Y-54203D02*
X63762Y-54217D01*
X63805Y-54231D01*
X63834Y-54231D01*
X63877Y-54217D01*
X63905Y-54189D01*
X63920Y-54160D01*
X63934Y-54103D01*
X63934Y-54060D01*
X63920Y-54003D01*
X63905Y-53974D01*
X63877Y-53946D01*
X63834Y-53931D01*
X63805Y-53931D01*
X63762Y-53946D01*
X63748Y-53960D01*
X63462Y-54231D02*
X63634Y-54231D01*
X63548Y-54231D02*
X63548Y-53931D01*
X63577Y-53974D01*
X63605Y-54003D01*
X63634Y-54017D01*
X63319Y-54231D02*
X63262Y-54231D01*
X63234Y-54217D01*
X63219Y-54203D01*
X63191Y-54160D01*
X63176Y-54103D01*
X63176Y-53989D01*
X63191Y-53960D01*
X63205Y-53946D01*
X63234Y-53931D01*
X63291Y-53931D01*
X63319Y-53946D01*
X63334Y-53960D01*
X63348Y-53989D01*
X63348Y-54060D01*
X63334Y-54089D01*
X63319Y-54103D01*
X63291Y-54117D01*
X63234Y-54117D01*
X63205Y-54103D01*
X63191Y-54089D01*
X63176Y-54060D01*
X53817Y-50791D02*
X53831Y-50777D01*
X53845Y-50734D01*
X53845Y-50705D01*
X53831Y-50662D01*
X53803Y-50634D01*
X53774Y-50619D01*
X53717Y-50605D01*
X53674Y-50605D01*
X53617Y-50619D01*
X53588Y-50634D01*
X53560Y-50662D01*
X53545Y-50705D01*
X53545Y-50734D01*
X53560Y-50777D01*
X53574Y-50791D01*
X53845Y-51077D02*
X53845Y-50905D01*
X53845Y-50991D02*
X53545Y-50991D01*
X53588Y-50962D01*
X53617Y-50934D01*
X53631Y-50905D01*
X53674Y-51248D02*
X53660Y-51220D01*
X53645Y-51205D01*
X53617Y-51191D01*
X53603Y-51191D01*
X53574Y-51205D01*
X53560Y-51220D01*
X53545Y-51248D01*
X53545Y-51305D01*
X53560Y-51334D01*
X53574Y-51348D01*
X53603Y-51363D01*
X53617Y-51363D01*
X53645Y-51348D01*
X53660Y-51334D01*
X53674Y-51305D01*
X53674Y-51248D01*
X53688Y-51220D01*
X53703Y-51205D01*
X53731Y-51191D01*
X53788Y-51191D01*
X53817Y-51205D01*
X53831Y-51220D01*
X53845Y-51248D01*
X53845Y-51305D01*
X53831Y-51334D01*
X53817Y-51348D01*
X53788Y-51363D01*
X53731Y-51363D01*
X53703Y-51348D01*
X53688Y-51334D01*
X53674Y-51305D01*
G54D19*
X61691Y-51834D02*
X61691Y-51996D01*
X61682Y-52015D01*
X61672Y-52024D01*
X61653Y-52034D01*
X61615Y-52034D01*
X61596Y-52024D01*
X61587Y-52015D01*
X61577Y-51996D01*
X61577Y-51834D01*
X61453Y-51920D02*
X61472Y-51910D01*
X61481Y-51901D01*
X61491Y-51882D01*
X61491Y-51872D01*
X61481Y-51853D01*
X61472Y-51843D01*
X61453Y-51834D01*
X61415Y-51834D01*
X61396Y-51843D01*
X61386Y-51853D01*
X61377Y-51872D01*
X61377Y-51882D01*
X61386Y-51901D01*
X61396Y-51910D01*
X61415Y-51920D01*
X61453Y-51920D01*
X61472Y-51929D01*
X61481Y-51939D01*
X61491Y-51958D01*
X61491Y-51996D01*
X61481Y-52015D01*
X61472Y-52024D01*
X61453Y-52034D01*
X61415Y-52034D01*
X61396Y-52024D01*
X61386Y-52015D01*
X61377Y-51996D01*
X61377Y-51958D01*
X61386Y-51939D01*
X61396Y-51929D01*
X61415Y-51920D01*
X58231Y-52995D02*
X58231Y-53157D01*
X58222Y-53176D01*
X58212Y-53185D01*
X58193Y-53195D01*
X58155Y-53195D01*
X58136Y-53185D01*
X58127Y-53176D01*
X58117Y-53157D01*
X58117Y-52995D01*
X58040Y-52995D02*
X57907Y-52995D01*
X57993Y-53195D01*
X63758Y-51255D02*
X63758Y-51417D01*
X63749Y-51436D01*
X63739Y-51445D01*
X63720Y-51455D01*
X63682Y-51455D01*
X63663Y-51445D01*
X63654Y-51436D01*
X63644Y-51417D01*
X63644Y-51255D01*
X63463Y-51255D02*
X63501Y-51255D01*
X63520Y-51264D01*
X63529Y-51274D01*
X63548Y-51303D01*
X63558Y-51341D01*
X63558Y-51417D01*
X63548Y-51436D01*
X63539Y-51445D01*
X63520Y-51455D01*
X63482Y-51455D01*
X63463Y-51445D01*
X63453Y-51436D01*
X63444Y-51417D01*
X63444Y-51369D01*
X63453Y-51350D01*
X63463Y-51341D01*
X63482Y-51331D01*
X63520Y-51331D01*
X63539Y-51341D01*
X63548Y-51350D01*
X63558Y-51369D01*
X63798Y-50322D02*
X63798Y-50484D01*
X63789Y-50503D01*
X63779Y-50512D01*
X63760Y-50522D01*
X63722Y-50522D01*
X63703Y-50512D01*
X63694Y-50503D01*
X63684Y-50484D01*
X63684Y-50322D01*
X63493Y-50322D02*
X63588Y-50322D01*
X63598Y-50417D01*
X63588Y-50408D01*
X63569Y-50398D01*
X63522Y-50398D01*
X63503Y-50408D01*
X63493Y-50417D01*
X63484Y-50436D01*
X63484Y-50484D01*
X63493Y-50503D01*
X63503Y-50512D01*
X63522Y-50522D01*
X63569Y-50522D01*
X63588Y-50512D01*
X63598Y-50503D01*
G54D18*
X48957Y-35010D02*
X48957Y-35301D01*
X48942Y-35335D01*
X48926Y-35353D01*
X48896Y-35370D01*
X48835Y-35370D01*
X48804Y-35353D01*
X48789Y-35335D01*
X48774Y-35301D01*
X48774Y-35010D01*
X48637Y-35044D02*
X48622Y-35027D01*
X48591Y-35010D01*
X48515Y-35010D01*
X48485Y-35027D01*
X48469Y-35044D01*
X48454Y-35078D01*
X48454Y-35113D01*
X48469Y-35164D01*
X48652Y-35370D01*
X48454Y-35370D01*
G54D15*
X57369Y-46773D02*
X57133Y-47127D01*
X57133Y-46773D02*
X57369Y-47127D01*
X57016Y-46807D02*
X56999Y-46790D01*
X56965Y-46773D01*
X56881Y-46773D01*
X56847Y-46790D01*
X56830Y-46807D01*
X56813Y-46841D01*
X56813Y-46874D01*
X56830Y-46925D01*
X57032Y-47127D01*
X56813Y-47127D01*
G54D17*
X49515Y-48656D02*
X49527Y-48668D01*
X49562Y-48680D01*
X49586Y-48680D01*
X49622Y-48668D01*
X49646Y-48644D01*
X49657Y-48621D01*
X49669Y-48573D01*
X49669Y-48537D01*
X49657Y-48490D01*
X49646Y-48466D01*
X49622Y-48442D01*
X49586Y-48430D01*
X49562Y-48430D01*
X49527Y-48442D01*
X49515Y-48454D01*
X49431Y-48430D02*
X49277Y-48430D01*
X49360Y-48525D01*
X49324Y-48525D01*
X49300Y-48537D01*
X49288Y-48549D01*
X49277Y-48573D01*
X49277Y-48633D01*
X49288Y-48656D01*
X49300Y-48668D01*
X49324Y-48680D01*
X49396Y-48680D01*
X49419Y-48668D01*
X49431Y-48656D01*
X49062Y-48514D02*
X49062Y-48680D01*
X49122Y-48418D02*
X49181Y-48597D01*
X49027Y-48597D01*
X50850Y-40790D02*
X50862Y-40802D01*
X50897Y-40814D01*
X50921Y-40814D01*
X50957Y-40802D01*
X50981Y-40778D01*
X50992Y-40755D01*
X51004Y-40707D01*
X51004Y-40671D01*
X50992Y-40624D01*
X50981Y-40600D01*
X50957Y-40576D01*
X50921Y-40564D01*
X50897Y-40564D01*
X50862Y-40576D01*
X50850Y-40588D01*
X50754Y-40588D02*
X50742Y-40576D01*
X50719Y-40564D01*
X50659Y-40564D01*
X50635Y-40576D01*
X50623Y-40588D01*
X50612Y-40612D01*
X50612Y-40636D01*
X50623Y-40671D01*
X50766Y-40814D01*
X50612Y-40814D01*
X50385Y-40564D02*
X50504Y-40564D01*
X50516Y-40683D01*
X50504Y-40671D01*
X50481Y-40659D01*
X50421Y-40659D01*
X50397Y-40671D01*
X50385Y-40683D01*
X50374Y-40707D01*
X50374Y-40767D01*
X50385Y-40790D01*
X50397Y-40802D01*
X50421Y-40814D01*
X50481Y-40814D01*
X50504Y-40802D01*
X50516Y-40790D01*
X49451Y-34345D02*
X49570Y-34345D01*
X49570Y-34095D01*
X49238Y-34345D02*
X49380Y-34345D01*
X49309Y-34345D02*
X49309Y-34095D01*
X49333Y-34131D01*
X49357Y-34155D01*
X49380Y-34167D01*
X49154Y-34095D02*
X49000Y-34095D01*
X49083Y-34190D01*
X49047Y-34190D01*
X49023Y-34202D01*
X49011Y-34214D01*
X49000Y-34238D01*
X49000Y-34298D01*
X49011Y-34321D01*
X49023Y-34333D01*
X49047Y-34345D01*
X49119Y-34345D01*
X49142Y-34333D01*
X49154Y-34321D01*
X46707Y-48818D02*
X46826Y-48818D01*
X46826Y-48568D01*
X46494Y-48818D02*
X46636Y-48818D01*
X46565Y-48818D02*
X46565Y-48568D01*
X46589Y-48604D01*
X46613Y-48628D01*
X46636Y-48640D01*
X46398Y-48592D02*
X46386Y-48580D01*
X46363Y-48568D01*
X46303Y-48568D01*
X46279Y-48580D01*
X46267Y-48592D01*
X46256Y-48616D01*
X46256Y-48640D01*
X46267Y-48675D01*
X46410Y-48818D01*
X46256Y-48818D01*
X57329Y-34270D02*
X57448Y-34270D01*
X57448Y-34020D01*
X57116Y-34270D02*
X57258Y-34270D01*
X57187Y-34270D02*
X57187Y-34020D01*
X57211Y-34056D01*
X57235Y-34080D01*
X57258Y-34092D01*
X56878Y-34270D02*
X57020Y-34270D01*
X56949Y-34270D02*
X56949Y-34020D01*
X56973Y-34056D01*
X56997Y-34080D01*
X57020Y-34092D01*
M02*
