M48
;DRILL file {PCBnew (2011-05-31)-stable} date Mon 19 Sep 2011 01:54:22 PM COT
;FORMAT={3:3/ absolute / metric / keep zeros}
FMAT,2
METRIC,TZ
T1C0.201
T2C0.300
T3C0.399
T4C0.813
T5C0.899
T6C0.965
T7C1.016
T8C1.300
T9C1.321
T10C2.997
%
G90
G05
M71
T1
X123449Y111951
X125860Y099601
X126561Y099670
X126751Y098100
X126944Y100233
X127500Y098049
X127599Y097351
X128349Y097300
X128415Y102433
X128450Y096599
X129149Y096449
X129195Y102426
X129939Y102271
X130051Y109350
X130099Y096700
X130241Y108189
X130500Y093901
X131133Y093563
X131501Y091150
X132199Y108900
X132250Y090851
X132304Y097135
X132319Y104719
X132354Y097843
X132380Y098679
X132499Y112230
X132700Y107399
X132799Y091399
X132834Y101895
X132900Y088450
X132941Y099990
X133939Y112220
X134750Y103381
X134869Y112230
X134950Y088450
X135199Y096980
X135611Y111991
X135651Y096459
X136149Y093350
X136309Y096911
X136380Y110180
X136411Y111991
X136591Y117160
X136731Y103381
X137010Y096789
X137470Y110051
X137660Y093091
X137711Y096731
X138039Y096129
X138049Y099644
X138069Y092560
X138331Y112179
X138570Y108110
X138651Y088600
X138725Y094325
X138781Y093261
X139101Y110081
X139189Y099550
X139924Y099525
X140040Y114379
X140200Y131150
X140320Y096129
X140449Y088400
X140670Y103391
X140701Y099510
X140980Y108181
X141125Y094348
X141331Y119019
X141600Y110109
X141709Y099550
X141879Y112441
X142601Y088450
X143050Y092601
X143231Y097041
X143353Y099124
X143789Y099746
X144249Y103391
X144343Y099096
X144381Y113000
X144549Y096149
X145070Y109350
X145301Y090899
X145349Y094300
X145710Y103391
X146431Y131719
X146520Y121481
X146741Y109751
X146820Y116251
X147681Y122989
X148351Y102451
X148410Y087269
X148481Y097671
X148750Y096799
X148920Y123010
X149499Y123530
X149601Y092649
X150310Y122649
X150650Y120739
X150701Y100701
X150779Y118951
X151059Y121719
X151239Y127249
X151511Y109591
X151671Y123520
X151699Y101249
X152151Y097600
X152359Y129060
X152639Y113810
X152959Y126660
X152999Y097650
X153119Y129019
X153149Y091951
X153700Y124889
X154150Y094699
X154181Y121610
X155219Y113551
X155499Y115550
X155539Y126520
X155699Y109629
X156319Y114859
X156360Y101869
X157350Y099601
X157391Y119451
X157439Y114940
X157551Y111089
X158049Y097500
X158399Y100000
X158750Y096799
X160609Y119720
X161811Y115969
T2
X135621Y119741
X135621Y122009
X147130Y121890
X150670Y116820
X152819Y123960
X162921Y114699
T3
X131249Y087851
X138661Y090640
X142611Y090599
X145539Y088080
X146769Y114430
X153170Y095580
X155999Y121559
X157640Y120670
X160360Y087300
X161201Y103891
T4
X118760Y093401
X166754Y093401
T5
X144620Y130312
X144620Y132311
X144620Y134313
X144620Y136312
X153680Y130332
X153680Y132331
X153680Y134333
X153680Y136332
T6
X151196Y089685
X159197Y089685
T7
X118760Y095941
X118760Y098481
X118760Y101021
X118760Y103561
X118760Y106101
X118760Y108641
X118760Y111181
X118760Y113721
X118760Y116261
X118760Y118801
X118760Y121341
X121300Y093401
X121300Y095941
X121300Y098481
X121300Y101021
X121300Y103561
X121300Y106101
X121300Y108641
X121300Y111181
X121300Y113721
X121300Y116261
X121300Y118801
X121300Y121341
X125651Y127290
X128191Y127290
X130439Y121770
X132890Y136881
X132979Y121770
X137386Y136881
X140190Y126121
X142720Y121021
X142720Y123561
X142730Y126121
X159642Y110929
X159642Y113469
X163888Y113662
X163888Y116202
X163891Y118918
X163891Y121458
X166754Y095941
X166754Y098481
X166754Y101021
X166754Y103561
X166754Y106101
X166754Y108641
X166754Y111181
X166754Y113721
X166754Y116261
X166754Y118801
X166754Y121341
X166799Y124280
X166799Y126820
X166799Y129360
X166799Y131900
X169294Y093401
X169294Y095941
X169294Y098481
X169294Y101021
X169294Y103561
X169294Y106101
X169294Y108641
X169294Y111181
X169294Y113721
X169294Y116261
X169294Y118801
X169294Y121341
X169339Y124280
X169339Y126820
X169339Y129360
X169339Y131900
T8
X141900Y130043
X141900Y137041
X147340Y130043
X147340Y137041
X150960Y130063
X150960Y137061
X156401Y130063
X156401Y137061
T9
X131620Y134391
X138631Y134391
T10
X120249Y088202
X168499Y088222
X168559Y136312
T7
X120838Y129774G85X122362Y129774
G05
X120838Y135870G85X122362Y135870
G05
X126680Y134346G85X126680Y132822
G05
T0
M30
