G04 (created by PCBNEW-RS274X (2011-05-31)-stable) date Mon 19 Sep 2011 01:54:13 PM COT*
G01*
G70*
G90*
%MOIN*%
G04 Gerber Fmt 3.4, Leading zero omitted, Abs format*
%FSLAX34Y34*%
G04 APERTURE LIST*
%ADD10C,0.006000*%
%ADD11R,0.015700X0.039300*%
%ADD12R,0.035000X0.008000*%
%ADD13R,0.008000X0.035000*%
%ADD14R,0.025000X0.045000*%
%ADD15R,0.045000X0.025000*%
%ADD16R,0.060000X0.060000*%
%ADD17C,0.060000*%
%ADD18C,0.066000*%
%ADD19C,0.076000*%
%ADD20R,0.080000X0.060000*%
%ADD21R,0.035000X0.055000*%
%ADD22R,0.050000X0.016000*%
%ADD23R,0.019600X0.023600*%
%ADD24C,0.086600*%
%ADD25C,0.059100*%
%ADD26R,0.015700X0.031400*%
%ADD27C,0.189000*%
%ADD28R,0.189000X0.189000*%
%ADD29R,0.013800X0.035400*%
%ADD30R,0.055100X0.047200*%
%ADD31C,0.196900*%
%ADD32R,0.031400X0.031400*%
%ADD33R,0.086600X0.023600*%
%ADD34C,0.019700*%
%ADD35C,0.027600*%
%ADD36C,0.023600*%
%ADD37C,0.005900*%
%ADD38C,0.007900*%
%ADD39C,0.011800*%
%ADD40C,0.011400*%
%ADD41C,0.015700*%
%ADD42C,0.031500*%
%ADD43C,0.023600*%
%ADD44C,0.019700*%
%ADD45C,0.010000*%
G04 APERTURE END LIST*
G54D10*
G54D11*
X62966Y-46557D03*
X62716Y-46557D03*
X62466Y-46557D03*
X62216Y-46557D03*
X61966Y-46557D03*
X61716Y-46557D03*
X61466Y-46557D03*
X61216Y-46557D03*
X61216Y-48721D03*
X61466Y-48721D03*
X61716Y-48721D03*
X61966Y-48721D03*
X62216Y-48721D03*
X62466Y-48721D03*
X62716Y-48721D03*
X62966Y-48721D03*
G54D12*
X57919Y-43054D03*
G54D13*
X57228Y-37495D03*
G54D12*
X51669Y-38186D03*
G54D13*
X52360Y-43745D03*
G54D12*
X57919Y-42897D03*
G54D13*
X57071Y-37495D03*
G54D12*
X51669Y-38343D03*
G54D13*
X52517Y-43745D03*
G54D12*
X57919Y-42740D03*
G54D13*
X56914Y-37495D03*
G54D12*
X51669Y-38500D03*
G54D13*
X52674Y-43745D03*
G54D12*
X57919Y-42583D03*
G54D13*
X56757Y-37495D03*
G54D12*
X51669Y-38657D03*
G54D13*
X52831Y-43745D03*
G54D12*
X57919Y-42426D03*
G54D13*
X56600Y-37495D03*
G54D12*
X51669Y-38814D03*
G54D13*
X52988Y-43745D03*
G54D12*
X57919Y-42269D03*
G54D13*
X56443Y-37495D03*
G54D12*
X51669Y-38971D03*
G54D13*
X53145Y-43745D03*
G54D12*
X57919Y-42112D03*
G54D13*
X56286Y-37495D03*
G54D12*
X51669Y-39128D03*
G54D13*
X53302Y-43745D03*
G54D12*
X57919Y-41955D03*
G54D13*
X56129Y-37495D03*
G54D12*
X51669Y-39285D03*
G54D13*
X53459Y-43745D03*
G54D12*
X57919Y-41798D03*
G54D13*
X55972Y-37495D03*
G54D12*
X51669Y-39442D03*
G54D13*
X53616Y-43745D03*
G54D12*
X57919Y-41641D03*
G54D13*
X55815Y-37495D03*
G54D12*
X51669Y-39599D03*
G54D13*
X53773Y-43745D03*
G54D12*
X57919Y-41484D03*
G54D13*
X55658Y-37495D03*
G54D12*
X51669Y-39756D03*
G54D13*
X53930Y-43745D03*
G54D12*
X57919Y-41327D03*
G54D13*
X55501Y-37495D03*
G54D12*
X51669Y-39913D03*
G54D13*
X54087Y-43745D03*
G54D12*
X57919Y-41170D03*
G54D13*
X55344Y-37495D03*
G54D12*
X51669Y-40070D03*
G54D13*
X54244Y-43745D03*
G54D12*
X57919Y-41013D03*
G54D13*
X55187Y-37495D03*
G54D12*
X51669Y-40227D03*
G54D13*
X54401Y-43745D03*
G54D12*
X57919Y-40856D03*
G54D13*
X55030Y-37495D03*
G54D12*
X51669Y-40384D03*
G54D13*
X54558Y-43745D03*
G54D12*
X57919Y-40699D03*
G54D13*
X54873Y-37495D03*
G54D12*
X51669Y-40541D03*
G54D13*
X54715Y-43745D03*
G54D12*
X57919Y-40542D03*
G54D13*
X54716Y-37495D03*
G54D12*
X51669Y-40698D03*
G54D13*
X54872Y-43745D03*
G54D12*
X57919Y-40385D03*
G54D13*
X54559Y-37495D03*
G54D12*
X51669Y-40855D03*
G54D13*
X55029Y-43745D03*
G54D12*
X57919Y-40228D03*
G54D13*
X54402Y-37495D03*
G54D12*
X51669Y-41012D03*
G54D13*
X55186Y-43745D03*
G54D12*
X57919Y-40071D03*
G54D13*
X54245Y-37495D03*
G54D12*
X51669Y-41169D03*
G54D13*
X55343Y-43745D03*
G54D12*
X57919Y-39914D03*
G54D13*
X54088Y-37495D03*
G54D12*
X51669Y-41326D03*
G54D13*
X55500Y-43745D03*
G54D12*
X57919Y-39757D03*
G54D13*
X53931Y-37495D03*
G54D12*
X51669Y-41483D03*
G54D13*
X55657Y-43745D03*
G54D12*
X57919Y-39600D03*
G54D13*
X53774Y-37495D03*
G54D12*
X51669Y-41640D03*
G54D13*
X55814Y-43745D03*
G54D12*
X57919Y-39443D03*
G54D13*
X53617Y-37495D03*
G54D12*
X51669Y-41797D03*
G54D13*
X55971Y-43745D03*
G54D12*
X57919Y-39286D03*
G54D13*
X53460Y-37495D03*
G54D12*
X51669Y-41954D03*
G54D13*
X56128Y-43745D03*
G54D12*
X57919Y-39129D03*
G54D13*
X53303Y-37495D03*
G54D12*
X51669Y-42111D03*
G54D13*
X56285Y-43745D03*
G54D12*
X57919Y-38972D03*
G54D13*
X53146Y-37495D03*
G54D12*
X51669Y-42268D03*
G54D13*
X56442Y-43745D03*
G54D12*
X57919Y-38815D03*
G54D13*
X52989Y-37495D03*
G54D12*
X51669Y-42425D03*
G54D13*
X56599Y-43745D03*
G54D12*
X57919Y-38658D03*
G54D13*
X52832Y-37495D03*
G54D12*
X51669Y-42582D03*
G54D13*
X56756Y-43745D03*
G54D12*
X57919Y-38501D03*
G54D13*
X52675Y-37495D03*
G54D12*
X51669Y-42739D03*
G54D13*
X56913Y-43745D03*
G54D12*
X57919Y-38344D03*
G54D13*
X52518Y-37495D03*
G54D12*
X51669Y-42896D03*
G54D13*
X57070Y-43745D03*
G54D12*
X57919Y-38187D03*
G54D13*
X52361Y-37495D03*
G54D12*
X51669Y-43053D03*
G54D13*
X57227Y-43745D03*
G54D14*
X62515Y-45898D03*
X63115Y-45898D03*
X61836Y-45934D03*
X61236Y-45934D03*
X63143Y-49367D03*
X62543Y-49367D03*
X61678Y-49358D03*
X61078Y-49358D03*
X52692Y-36752D03*
X53292Y-36752D03*
G54D15*
X64508Y-35487D03*
X64508Y-36087D03*
G54D14*
X48913Y-44075D03*
X49513Y-44075D03*
X64040Y-35039D03*
X63440Y-35039D03*
G54D15*
X58209Y-37170D03*
X58209Y-36570D03*
G54D14*
X49631Y-48976D03*
X49031Y-48976D03*
X60269Y-43622D03*
X59669Y-43622D03*
G54D16*
X65651Y-36772D03*
G54D17*
X66651Y-36772D03*
X65651Y-37772D03*
X66651Y-37772D03*
X65651Y-38772D03*
X66651Y-38772D03*
X65651Y-39772D03*
X66651Y-39772D03*
X65651Y-40772D03*
X66651Y-40772D03*
X65651Y-41772D03*
X66651Y-41772D03*
X65651Y-42772D03*
X66651Y-42772D03*
X65651Y-43772D03*
X66651Y-43772D03*
X65651Y-44772D03*
X66651Y-44772D03*
X65651Y-45772D03*
X66651Y-45772D03*
X65651Y-46772D03*
X66651Y-46772D03*
X65651Y-47772D03*
X66651Y-47772D03*
G54D18*
X52319Y-53890D03*
X54089Y-53890D03*
G54D19*
X51819Y-52910D03*
X54579Y-52910D03*
G54D20*
X50000Y-46082D03*
X50000Y-47382D03*
G54D21*
X51938Y-43752D03*
X51188Y-43752D03*
G54D15*
X52185Y-35595D03*
X52185Y-34995D03*
X51476Y-35812D03*
X51476Y-35212D03*
G54D14*
X53981Y-34567D03*
X53381Y-34567D03*
X53981Y-35217D03*
X53381Y-35217D03*
X54562Y-35217D03*
X55162Y-35217D03*
X56334Y-34843D03*
X56934Y-34843D03*
G54D15*
X58209Y-35153D03*
X58209Y-35753D03*
X57087Y-36698D03*
X57087Y-36098D03*
G54D14*
X55576Y-36634D03*
X54976Y-36634D03*
G54D15*
X58965Y-35434D03*
X58965Y-34834D03*
X62025Y-44361D03*
X62025Y-44961D03*
X63705Y-46530D03*
X63705Y-47130D03*
X62025Y-43993D03*
X62025Y-43393D03*
X63957Y-40910D03*
X63957Y-40310D03*
X63704Y-45417D03*
X63704Y-46017D03*
G54D14*
X55410Y-48717D03*
X54810Y-48717D03*
X55410Y-48146D03*
X54810Y-48146D03*
X55410Y-47571D03*
X54810Y-47571D03*
G54D15*
X52409Y-45550D03*
X52409Y-46150D03*
G54D14*
X51363Y-46055D03*
X50763Y-46055D03*
G54D15*
X51835Y-46150D03*
X51835Y-45550D03*
X54165Y-45909D03*
X54165Y-46509D03*
X55740Y-44625D03*
X55740Y-45225D03*
G54D16*
X65669Y-48929D03*
G54D17*
X66669Y-48929D03*
X65669Y-49929D03*
X66669Y-49929D03*
X65669Y-50929D03*
X66669Y-50929D03*
X65669Y-51929D03*
X66669Y-51929D03*
G54D16*
X64524Y-47818D03*
G54D17*
X64524Y-46818D03*
G54D16*
X64523Y-45749D03*
G54D17*
X64523Y-44749D03*
G54D16*
X51354Y-47941D03*
G54D17*
X52354Y-47941D03*
G54D16*
X50469Y-50114D03*
G54D17*
X49469Y-50114D03*
G54D16*
X62851Y-43673D03*
G54D17*
X62851Y-44673D03*
G54D15*
X63704Y-44452D03*
X63704Y-45052D03*
G54D14*
X58476Y-43264D03*
X59076Y-43264D03*
G54D15*
X63709Y-48098D03*
X63709Y-47498D03*
G54D14*
X61265Y-43622D03*
X60665Y-43622D03*
G54D22*
X60022Y-48327D03*
X60022Y-48077D03*
X60022Y-47817D03*
X60022Y-47557D03*
X60022Y-47307D03*
X60022Y-47047D03*
X60022Y-46787D03*
X60022Y-46537D03*
X60022Y-46277D03*
X60022Y-46027D03*
X60022Y-45767D03*
X60022Y-45507D03*
X60022Y-45257D03*
X60022Y-44997D03*
X57222Y-44997D03*
X57222Y-45257D03*
X57222Y-45497D03*
X57222Y-45767D03*
X57222Y-46027D03*
X57222Y-46277D03*
X57222Y-46537D03*
X57222Y-46787D03*
X57222Y-47047D03*
X57222Y-47307D03*
X57222Y-47557D03*
X57222Y-47817D03*
X57222Y-48077D03*
X57222Y-48327D03*
G54D15*
X60693Y-48784D03*
X60693Y-48184D03*
X60697Y-46430D03*
X60697Y-45830D03*
X60697Y-46980D03*
X60697Y-47580D03*
G54D16*
X46756Y-36772D03*
G54D17*
X47756Y-36772D03*
X46756Y-37772D03*
X47756Y-37772D03*
X46756Y-38772D03*
X47756Y-38772D03*
X46756Y-39772D03*
X47756Y-39772D03*
X46756Y-40772D03*
X47756Y-40772D03*
X46756Y-41772D03*
X47756Y-41772D03*
X46756Y-42772D03*
X47756Y-42772D03*
X46756Y-43772D03*
X47756Y-43772D03*
X46756Y-44772D03*
X47756Y-44772D03*
X46756Y-45772D03*
X47756Y-45772D03*
X46756Y-46772D03*
X47756Y-46772D03*
X46756Y-47772D03*
X47756Y-47772D03*
G54D23*
X60603Y-45168D03*
X60995Y-45168D03*
X60799Y-44658D03*
G54D24*
X59433Y-51206D03*
X61575Y-51206D03*
G54D25*
X60504Y-53674D03*
X60504Y-52887D03*
X60504Y-52099D03*
X60504Y-51312D03*
G54D24*
X61575Y-53961D03*
X59433Y-53961D03*
X55866Y-51198D03*
X58008Y-51198D03*
G54D25*
X56937Y-53666D03*
X56937Y-52879D03*
X56937Y-52091D03*
X56937Y-51304D03*
G54D24*
X58008Y-53953D03*
X55866Y-53953D03*
G54D26*
X53605Y-45887D03*
X53350Y-45887D03*
X53095Y-45887D03*
X53095Y-46515D03*
X53350Y-46515D03*
X53605Y-46515D03*
G54D27*
X47874Y-53492D03*
G54D28*
X47874Y-51092D03*
G54D27*
X49874Y-52592D03*
G54D29*
X57413Y-49713D03*
X57413Y-49044D03*
X57748Y-49044D03*
X57748Y-49713D03*
X59472Y-49713D03*
X59472Y-49044D03*
X59807Y-49044D03*
X59807Y-49713D03*
X58764Y-49720D03*
X58764Y-49051D03*
X59099Y-49051D03*
X59099Y-49720D03*
X58083Y-49713D03*
X58083Y-49044D03*
X58418Y-49044D03*
X58418Y-49713D03*
G54D30*
X55740Y-45862D03*
X54874Y-45862D03*
X54874Y-46531D03*
X55740Y-46531D03*
G54D31*
X66338Y-34733D03*
X47342Y-34725D03*
G54D16*
X56189Y-47646D03*
G54D17*
X56189Y-48646D03*
G54D16*
X56193Y-49654D03*
G54D17*
X55193Y-49654D03*
G54D31*
X66362Y-53666D03*
G54D32*
X47827Y-48980D03*
X48417Y-48980D03*
X64468Y-34409D03*
X63878Y-34409D03*
X48937Y-43425D03*
X49527Y-43425D03*
G54D33*
X63461Y-37510D03*
X63461Y-37010D03*
X63461Y-36510D03*
X63461Y-36010D03*
X59839Y-36010D03*
X59839Y-36510D03*
X59839Y-37010D03*
X59839Y-37510D03*
G54D34*
X49978Y-39462D03*
X51220Y-38071D03*
X51378Y-36969D03*
X51627Y-36836D03*
X49827Y-39240D03*
X49551Y-39213D03*
X50571Y-38031D03*
X50864Y-40325D03*
X52088Y-38242D03*
X51772Y-35886D03*
X52339Y-39366D03*
X52067Y-35768D03*
X56610Y-39270D03*
X54217Y-38083D03*
X53665Y-38154D03*
X53406Y-37976D03*
X56319Y-36457D03*
X55791Y-39193D03*
X55394Y-39177D03*
X54799Y-39193D03*
X54350Y-39230D03*
X56390Y-38205D03*
X55561Y-37145D03*
X52108Y-38521D03*
X59724Y-39862D03*
X60236Y-38445D03*
X57685Y-47827D03*
G54D35*
X57783Y-45051D03*
G54D34*
X58858Y-48634D03*
X59177Y-48287D03*
X58142Y-48421D03*
X58630Y-48429D03*
X59713Y-48630D03*
X59472Y-47921D03*
X59311Y-47535D03*
X59362Y-46831D03*
X50557Y-40328D03*
X49902Y-38622D03*
X50197Y-38602D03*
X50236Y-38327D03*
X50531Y-38307D03*
X50846Y-37972D03*
X51157Y-40264D03*
X52118Y-38850D03*
X52283Y-35984D03*
X52323Y-34823D03*
X56828Y-39014D03*
X53941Y-38106D03*
X53228Y-38181D03*
X56438Y-39025D03*
X55088Y-39183D03*
X54358Y-36441D03*
X54197Y-36650D03*
X54616Y-37136D03*
X53602Y-36752D03*
X52297Y-40116D03*
X59331Y-39646D03*
X59902Y-38425D03*
X60689Y-37283D03*
X62362Y-39370D03*
X61949Y-39213D03*
X62500Y-38110D03*
X62224Y-38386D03*
X58563Y-38110D03*
X60295Y-36201D03*
X61559Y-40106D03*
X58898Y-36476D03*
X57224Y-37126D03*
X54461Y-44165D03*
X61543Y-45220D03*
X61965Y-47028D03*
X55504Y-42591D03*
X55197Y-51634D03*
X48602Y-44075D03*
X56909Y-37854D03*
X57205Y-35787D03*
X55642Y-46858D03*
G54D35*
X63134Y-34370D03*
G54D34*
X52165Y-44185D03*
X54638Y-36717D03*
X60094Y-44807D03*
X61220Y-45492D03*
X59650Y-43146D03*
X58457Y-38453D03*
G54D35*
X57299Y-34677D03*
X51673Y-34587D03*
G54D34*
X54764Y-43339D03*
X53705Y-44091D03*
X53776Y-46126D03*
X55134Y-45031D03*
X55748Y-43350D03*
X56843Y-44488D03*
X62028Y-43736D03*
X61110Y-44705D03*
X60512Y-49169D03*
X61236Y-49811D03*
X60701Y-47878D03*
X58429Y-34358D03*
X63705Y-45657D03*
X63232Y-47134D03*
X55295Y-34803D03*
X54555Y-42563D03*
X53130Y-34823D03*
X57803Y-45768D03*
X60220Y-49866D03*
X60283Y-50795D03*
X57650Y-51858D03*
X59984Y-50811D03*
X59543Y-50098D03*
X53098Y-44185D03*
X53390Y-44091D03*
G54D36*
X53394Y-48035D03*
X53394Y-47142D03*
X57925Y-47988D03*
G54D34*
X54122Y-43327D03*
X51201Y-43051D03*
X51276Y-42594D03*
X57114Y-43051D03*
X57772Y-43209D03*
G54D35*
X60303Y-37630D03*
X61417Y-47858D03*
G54D36*
X59319Y-45992D03*
X60165Y-48803D03*
G54D35*
X62063Y-47508D03*
G54D34*
X61299Y-43161D03*
X61984Y-45252D03*
X52094Y-41228D03*
G54D35*
X63465Y-40902D03*
G54D34*
X58406Y-40335D03*
G54D36*
X64142Y-45157D03*
G54D34*
X52244Y-42283D03*
X52047Y-42874D03*
X54587Y-34882D03*
X56142Y-34823D03*
X53693Y-43378D03*
X53051Y-40701D03*
X53831Y-40701D03*
X55382Y-40705D03*
X57366Y-40705D03*
X56791Y-40705D03*
G54D35*
X56146Y-35669D03*
X54591Y-35685D03*
G54D34*
X54346Y-37846D03*
X55244Y-37846D03*
X52732Y-44181D03*
X55858Y-44268D03*
G54D37*
X50272Y-39756D02*
X49978Y-39462D01*
X50272Y-39756D02*
X51669Y-39756D01*
G54D38*
X51669Y-38343D02*
X51433Y-38343D01*
X51220Y-38130D02*
X51220Y-38071D01*
X51433Y-38343D02*
X51220Y-38130D01*
G54D37*
X51811Y-38110D02*
X51811Y-38150D01*
X51378Y-36969D02*
X51811Y-37402D01*
X51811Y-37402D02*
X51811Y-38110D01*
X51811Y-38150D02*
X51669Y-38186D01*
X52286Y-37495D02*
X51627Y-36836D01*
X52361Y-37495D02*
X52286Y-37495D01*
X50434Y-39599D02*
X50075Y-39240D01*
X50075Y-39240D02*
X49827Y-39240D01*
X50434Y-39599D02*
X51669Y-39599D01*
X50493Y-39442D02*
X50059Y-39008D01*
X50059Y-39008D02*
X49756Y-39008D01*
X49756Y-39008D02*
X49551Y-39213D01*
X51669Y-39442D02*
X50493Y-39442D01*
G54D38*
X51197Y-38657D02*
X50571Y-38031D01*
X51197Y-38657D02*
X51669Y-38657D01*
G54D37*
X51080Y-40541D02*
X50864Y-40325D01*
X51080Y-40541D02*
X51669Y-40541D01*
G54D38*
X52692Y-36752D02*
X52692Y-36855D01*
X52518Y-37029D02*
X52518Y-37495D01*
X52692Y-36855D02*
X52518Y-37029D01*
G54D37*
X52088Y-38242D02*
X52518Y-37812D01*
X52518Y-37812D02*
X52518Y-37495D01*
X51698Y-35812D02*
X51476Y-35812D01*
X51772Y-35886D02*
X51698Y-35812D01*
X52339Y-39803D02*
X52492Y-39956D01*
X52492Y-39956D02*
X52492Y-40209D01*
X52492Y-40209D02*
X52394Y-40307D01*
X52394Y-40307D02*
X52216Y-40307D01*
X52216Y-40307D02*
X52136Y-40227D01*
X52136Y-40227D02*
X51669Y-40227D01*
X52339Y-39366D02*
X52339Y-39803D01*
X51669Y-40231D02*
X51669Y-40227D01*
G54D38*
X56757Y-37495D02*
X56757Y-36383D01*
X52515Y-35925D02*
X52185Y-35595D01*
X56299Y-35925D02*
X52515Y-35925D01*
X56757Y-36383D02*
X56299Y-35925D01*
X52185Y-35650D02*
X52185Y-35595D01*
X52067Y-35768D02*
X52185Y-35650D01*
G54D37*
X56179Y-39065D02*
X56185Y-39065D01*
X55658Y-37495D02*
X55658Y-38544D01*
X55658Y-38544D02*
X56179Y-39065D01*
X56390Y-39270D02*
X56610Y-39270D01*
X56185Y-39065D02*
X56390Y-39270D01*
X53931Y-37495D02*
X53931Y-37797D01*
X53931Y-37797D02*
X54217Y-38083D01*
X53460Y-37719D02*
X53618Y-37877D01*
X53618Y-37877D02*
X53618Y-38107D01*
X53618Y-38107D02*
X53665Y-38154D01*
X53460Y-37495D02*
X53460Y-37719D01*
X53303Y-37495D02*
X53303Y-37873D01*
X53303Y-37873D02*
X53406Y-37976D01*
G54D38*
X52989Y-37495D02*
X52989Y-36696D01*
X56319Y-36457D02*
X56299Y-36437D01*
X56299Y-36437D02*
X55964Y-36437D01*
X55964Y-36437D02*
X55767Y-36240D01*
X55767Y-36240D02*
X53386Y-36240D01*
X53189Y-36240D02*
X53386Y-36240D01*
X52992Y-36437D02*
X53189Y-36240D01*
X52992Y-36693D02*
X52992Y-36437D01*
X52989Y-36696D02*
X52992Y-36693D01*
G54D37*
X55504Y-38906D02*
X55791Y-39193D01*
X55501Y-37495D02*
X55501Y-38906D01*
X55501Y-38906D02*
X55504Y-38906D01*
X55030Y-38813D02*
X55394Y-39177D01*
X55030Y-37495D02*
X55030Y-38747D01*
X55030Y-38747D02*
X55030Y-38813D01*
X54716Y-39020D02*
X54716Y-39110D01*
X54716Y-39110D02*
X54799Y-39193D01*
X54716Y-37495D02*
X54716Y-39020D01*
X54716Y-39020D02*
X54716Y-39023D01*
X54354Y-39056D02*
X54354Y-39226D01*
X54559Y-37495D02*
X54559Y-38851D01*
X54354Y-39056D02*
X54559Y-38851D01*
X54354Y-39226D02*
X54350Y-39230D01*
X56286Y-37495D02*
X56286Y-38101D01*
X56286Y-38101D02*
X56390Y-38205D01*
X56129Y-37495D02*
X56129Y-37262D01*
X56012Y-37145D02*
X55561Y-37145D01*
X56129Y-37262D02*
X56012Y-37145D01*
X52675Y-37954D02*
X52108Y-38521D01*
X52675Y-37954D02*
X52675Y-37495D01*
X61575Y-37106D02*
X63365Y-37106D01*
X61437Y-37244D02*
X61575Y-37106D01*
X60463Y-38218D02*
X61437Y-37244D01*
X63365Y-37106D02*
X63461Y-37010D01*
G54D38*
X57919Y-39757D02*
X58989Y-39757D01*
X59645Y-39941D02*
X59724Y-39862D01*
X59173Y-39941D02*
X59645Y-39941D01*
X58989Y-39757D02*
X59173Y-39941D01*
G54D37*
X60463Y-38218D02*
X60236Y-38445D01*
X60463Y-38218D02*
X60512Y-38169D01*
X57919Y-39761D02*
X57919Y-39757D01*
X62330Y-38642D02*
X62330Y-38641D01*
X61540Y-38972D02*
X61870Y-38642D01*
X61870Y-38642D02*
X62330Y-38642D01*
X57919Y-38972D02*
X61540Y-38972D01*
X62330Y-38641D02*
X63461Y-37510D01*
X63929Y-37508D02*
X63463Y-37508D01*
X63929Y-37508D02*
X64508Y-36929D01*
X64508Y-36087D02*
X64508Y-36929D01*
X63463Y-37508D02*
X63461Y-37510D01*
G54D38*
X57685Y-47827D02*
X57697Y-47815D01*
X57697Y-47815D02*
X57697Y-47410D01*
X57697Y-47410D02*
X57594Y-47307D01*
X57222Y-47307D02*
X57594Y-47307D01*
G54D39*
X60995Y-45168D02*
X60995Y-44971D01*
X57783Y-44895D02*
X57783Y-45051D01*
X58040Y-44638D02*
X57783Y-44895D01*
X59914Y-44638D02*
X58040Y-44638D01*
G54D40*
X60021Y-44531D02*
X59914Y-44638D01*
X60231Y-44531D02*
X60021Y-44531D01*
X60617Y-44917D02*
X60231Y-44531D01*
G54D39*
X60941Y-44917D02*
X60617Y-44917D01*
X60995Y-44971D02*
X60941Y-44917D01*
G54D41*
X57747Y-45257D02*
X57222Y-45257D01*
X57768Y-45236D02*
X57747Y-45257D01*
X57768Y-45066D02*
X57768Y-45236D01*
G54D39*
X57783Y-45051D02*
X57768Y-45066D01*
X57222Y-45257D02*
X56889Y-45257D01*
X56902Y-47307D02*
X57222Y-47307D01*
X56843Y-47248D02*
X56902Y-47307D01*
X56843Y-45303D02*
X56843Y-47248D01*
X56889Y-45257D02*
X56843Y-45303D01*
G54D37*
X57222Y-48077D02*
X57596Y-48077D01*
X57413Y-49282D02*
X57413Y-49044D01*
X57509Y-49378D02*
X57413Y-49282D01*
X57827Y-49378D02*
X57509Y-49378D01*
X57914Y-49291D02*
X57827Y-49378D01*
X57914Y-48395D02*
X57914Y-49291D01*
X57596Y-48077D02*
X57914Y-48395D01*
X59472Y-48237D02*
X59472Y-49044D01*
X59632Y-48077D02*
X59472Y-48237D01*
X60022Y-48077D02*
X59632Y-48077D01*
G54D38*
X59110Y-48224D02*
X59114Y-48224D01*
G54D37*
X59719Y-46537D02*
X59678Y-46496D01*
X59678Y-46496D02*
X59156Y-46496D01*
X59156Y-46496D02*
X59110Y-46542D01*
X59110Y-46542D02*
X59110Y-48224D01*
X58858Y-48634D02*
X58764Y-48728D01*
X58764Y-49051D02*
X58764Y-48728D01*
X59719Y-46537D02*
X60022Y-46537D01*
G54D38*
X59114Y-48224D02*
X59177Y-48287D01*
G54D37*
X60022Y-45767D02*
X58757Y-45767D01*
X58083Y-48480D02*
X58083Y-49044D01*
X58142Y-48421D02*
X58083Y-48480D01*
X58630Y-45894D02*
X58630Y-48429D01*
X58757Y-45767D02*
X58630Y-45894D01*
X57222Y-48327D02*
X57674Y-48327D01*
X57748Y-48401D02*
X57748Y-49044D01*
X57674Y-48327D02*
X57748Y-48401D01*
X59807Y-49044D02*
X59807Y-48724D01*
X59807Y-48724D02*
X59713Y-48630D01*
X59576Y-47817D02*
X60022Y-47817D01*
X59472Y-47921D02*
X59576Y-47817D01*
X60022Y-46277D02*
X59631Y-46277D01*
X59099Y-48536D02*
X59099Y-49051D01*
X58909Y-48346D02*
X59099Y-48536D01*
X58909Y-46505D02*
X58909Y-48346D01*
X59138Y-46276D02*
X58909Y-46505D01*
X59630Y-46276D02*
X59138Y-46276D01*
X59631Y-46277D02*
X59630Y-46276D01*
X60022Y-45507D02*
X58537Y-45507D01*
X58418Y-45626D02*
X58418Y-49044D01*
X58537Y-45507D02*
X58418Y-45626D01*
X60204Y-49374D02*
X60228Y-49374D01*
X58764Y-49532D02*
X58922Y-49374D01*
X58922Y-49374D02*
X60204Y-49374D01*
X58764Y-49720D02*
X58764Y-49532D01*
X65468Y-50130D02*
X65669Y-49929D01*
X60984Y-50130D02*
X65468Y-50130D01*
X60228Y-49374D02*
X60984Y-50130D01*
X65638Y-49898D02*
X65669Y-49929D01*
G54D38*
X60022Y-47047D02*
X60630Y-47047D01*
X60630Y-47047D02*
X60697Y-46980D01*
G54D37*
X60022Y-47047D02*
X59512Y-47047D01*
X59311Y-47248D02*
X59311Y-47535D01*
X59512Y-47047D02*
X59311Y-47248D01*
G54D38*
X60022Y-46787D02*
X60340Y-46787D01*
X60340Y-46787D02*
X60697Y-46430D01*
G54D37*
X60022Y-46787D02*
X59406Y-46787D01*
X59406Y-46787D02*
X59362Y-46831D01*
X50557Y-40207D02*
X50851Y-39913D01*
X51669Y-39913D02*
X50851Y-39913D01*
X50557Y-40328D02*
X50557Y-40207D01*
G54D38*
X50565Y-39285D02*
X49902Y-38622D01*
X50565Y-39285D02*
X51669Y-39285D01*
X50723Y-39128D02*
X50197Y-38602D01*
X50723Y-39128D02*
X51669Y-39128D01*
X50880Y-38971D02*
X50236Y-38327D01*
X50880Y-38971D02*
X51669Y-38971D01*
X51038Y-38814D02*
X50531Y-38307D01*
X51038Y-38814D02*
X51669Y-38814D01*
X51334Y-38500D02*
X51669Y-38500D01*
X51334Y-38500D02*
X50846Y-38012D01*
X50846Y-37972D02*
X50846Y-38012D01*
G54D37*
X51669Y-40384D02*
X51277Y-40384D01*
X51277Y-40384D02*
X51157Y-40264D01*
X52118Y-38850D02*
X52836Y-38132D01*
X52836Y-38132D02*
X52836Y-37495D01*
X52832Y-37495D02*
X52836Y-37495D01*
G54D38*
X56600Y-37495D02*
X56600Y-36423D01*
X52365Y-36066D02*
X52283Y-35984D01*
X56243Y-36066D02*
X52365Y-36066D01*
X56600Y-36423D02*
X56243Y-36066D01*
G54D37*
X52185Y-34995D02*
X52185Y-34961D01*
X52185Y-34961D02*
X52323Y-34823D01*
X56828Y-39014D02*
X55976Y-38166D01*
X55976Y-38166D02*
X55976Y-37495D01*
X55972Y-37495D02*
X55976Y-37495D01*
X53774Y-37947D02*
X53933Y-38106D01*
X53933Y-38106D02*
X53941Y-38106D01*
X53774Y-37495D02*
X53774Y-37947D01*
X53770Y-37493D02*
X53774Y-37495D01*
X53146Y-37495D02*
X53146Y-38099D01*
X53146Y-38099D02*
X53228Y-38181D01*
X56238Y-38821D02*
X56238Y-38825D01*
X56238Y-38821D02*
X55815Y-38398D01*
X55815Y-38398D02*
X55815Y-37495D01*
X56238Y-38825D02*
X56438Y-39025D01*
X54873Y-38879D02*
X54873Y-38968D01*
X54873Y-38968D02*
X55088Y-39183D01*
X54873Y-37495D02*
X54873Y-38879D01*
X55088Y-39183D02*
X55094Y-39189D01*
X54402Y-36485D02*
X54402Y-37495D01*
X54358Y-36441D02*
X54402Y-36485D01*
X54245Y-36698D02*
X54245Y-37495D01*
X54197Y-36650D02*
X54245Y-36698D01*
X54616Y-37136D02*
X54655Y-37175D01*
X54655Y-37175D02*
X55092Y-37175D01*
X55092Y-37175D02*
X55191Y-37274D01*
X55191Y-37274D02*
X55187Y-37274D01*
X55187Y-37495D02*
X55187Y-37274D01*
X55187Y-37274D02*
X55187Y-37274D01*
X55183Y-37495D02*
X55187Y-37495D01*
G54D38*
X53617Y-36767D02*
X53617Y-37495D01*
X53602Y-36752D02*
X53617Y-36767D01*
G54D37*
X51669Y-40070D02*
X52251Y-40070D01*
X52251Y-40070D02*
X52297Y-40116D01*
X49008Y-39602D02*
X49008Y-37619D01*
X51669Y-40855D02*
X50261Y-40855D01*
X50261Y-40855D02*
X49008Y-39602D01*
X48161Y-36772D02*
X47756Y-36772D01*
X49008Y-37619D02*
X48161Y-36772D01*
X49173Y-39570D02*
X49173Y-37048D01*
X50301Y-40698D02*
X49173Y-39570D01*
X51669Y-40698D02*
X50301Y-40698D01*
X47252Y-36276D02*
X46756Y-36772D01*
X48401Y-36276D02*
X47252Y-36276D01*
X49173Y-37048D02*
X48401Y-36276D01*
X61826Y-36500D02*
X63451Y-36500D01*
X61516Y-36811D02*
X61516Y-36810D01*
X61516Y-36810D02*
X61826Y-36500D01*
X60414Y-37913D02*
X61516Y-36811D01*
X63451Y-36500D02*
X63461Y-36510D01*
X59902Y-38425D02*
X60414Y-37913D01*
X60414Y-37913D02*
X60453Y-37874D01*
X57919Y-39600D02*
X59285Y-39600D01*
X59285Y-39600D02*
X59331Y-39646D01*
X60394Y-37008D02*
X59841Y-37008D01*
X60394Y-37008D02*
X60669Y-37283D01*
X60669Y-37283D02*
X60689Y-37283D01*
X59841Y-37008D02*
X59839Y-37010D01*
X62350Y-39443D02*
X62350Y-39382D01*
X62350Y-39382D02*
X62362Y-39370D01*
G54D38*
X62350Y-39443D02*
X57919Y-39443D01*
X62356Y-39449D02*
X62350Y-39443D01*
G54D37*
X57919Y-39286D02*
X61856Y-39286D01*
X61929Y-39213D02*
X61949Y-39213D01*
X61856Y-39286D02*
X61929Y-39213D01*
X57919Y-39290D02*
X57919Y-39286D01*
X57919Y-39129D02*
X61717Y-39129D01*
X66651Y-37753D02*
X66181Y-37283D01*
X66181Y-37283D02*
X64902Y-37283D01*
X64902Y-37283D02*
X63268Y-38917D01*
X63268Y-38917D02*
X62008Y-38917D01*
X66651Y-37753D02*
X66651Y-37772D01*
X61929Y-38917D02*
X62008Y-38917D01*
X61717Y-39129D02*
X61929Y-38917D01*
G54D40*
X64468Y-34409D02*
X64468Y-34626D01*
X66080Y-36201D02*
X66651Y-36772D01*
X65768Y-36201D02*
X66080Y-36201D01*
X64882Y-35315D02*
X65768Y-36201D01*
X64882Y-35040D02*
X64882Y-35315D01*
X64468Y-34626D02*
X64882Y-35040D01*
G54D37*
X57919Y-38658D02*
X61283Y-38658D01*
X61831Y-38110D02*
X62500Y-38110D01*
X61283Y-38658D02*
X61831Y-38110D01*
X57919Y-38815D02*
X61382Y-38815D01*
X62204Y-38406D02*
X62224Y-38386D01*
X61791Y-38406D02*
X62204Y-38406D01*
X61382Y-38815D02*
X61791Y-38406D01*
X58209Y-37170D02*
X58209Y-38091D01*
X58209Y-38091D02*
X58113Y-38187D01*
X57919Y-38187D02*
X58113Y-38187D01*
X58113Y-38187D02*
X58486Y-38187D01*
X58486Y-38187D02*
X58563Y-38110D01*
X59839Y-36010D02*
X60104Y-36010D01*
X60104Y-36010D02*
X60295Y-36201D01*
X57919Y-39914D02*
X58878Y-39914D01*
X61555Y-40102D02*
X61559Y-40106D01*
X59066Y-40102D02*
X61555Y-40102D01*
X58878Y-39914D02*
X59066Y-40102D01*
X59839Y-36510D02*
X58932Y-36510D01*
X58932Y-36510D02*
X58898Y-36476D01*
X57228Y-37495D02*
X57228Y-37130D01*
X57228Y-37130D02*
X57224Y-37126D01*
X54872Y-43745D02*
X54872Y-44241D01*
X48571Y-45772D02*
X47756Y-45772D01*
X49458Y-44885D02*
X48571Y-45772D01*
X54228Y-44885D02*
X49458Y-44885D01*
X54872Y-44241D02*
X54228Y-44885D01*
X54244Y-43745D02*
X54244Y-44256D01*
X47268Y-44260D02*
X46756Y-44772D01*
X48040Y-44260D02*
X47268Y-44260D01*
X48423Y-44643D02*
X48040Y-44260D01*
X53857Y-44643D02*
X48423Y-44643D01*
X54244Y-44256D02*
X53857Y-44643D01*
X47756Y-44772D02*
X49370Y-44772D01*
X54461Y-44355D02*
X54461Y-44165D01*
X54052Y-44764D02*
X54461Y-44355D01*
X49378Y-44764D02*
X54052Y-44764D01*
X49370Y-44772D02*
X49378Y-44764D01*
X47823Y-44705D02*
X47756Y-44772D01*
X66165Y-46311D02*
X66252Y-46311D01*
X57070Y-44000D02*
X57193Y-44123D01*
X57193Y-44123D02*
X61497Y-44123D01*
X61497Y-44123D02*
X61650Y-43970D01*
X61650Y-43970D02*
X61650Y-43233D01*
X61650Y-43233D02*
X61722Y-43161D01*
X61722Y-43161D02*
X63539Y-43161D01*
X63539Y-43161D02*
X64917Y-44539D01*
X64917Y-44539D02*
X64917Y-46086D01*
X64917Y-46086D02*
X65142Y-46311D01*
X65142Y-46311D02*
X66165Y-46311D01*
X57070Y-43745D02*
X57070Y-44000D01*
X66651Y-46710D02*
X66651Y-46772D01*
X66252Y-46311D02*
X66651Y-46710D01*
X65071Y-45197D02*
X65076Y-45197D01*
X65076Y-45197D02*
X65651Y-45772D01*
X57227Y-43745D02*
X57359Y-43745D01*
X57359Y-43745D02*
X57615Y-44001D01*
X57615Y-44001D02*
X61387Y-44001D01*
X61387Y-44001D02*
X61518Y-43870D01*
X61518Y-43870D02*
X61518Y-43128D01*
X61518Y-43128D02*
X61622Y-43024D01*
X61622Y-43024D02*
X63571Y-43024D01*
X63571Y-43024D02*
X65071Y-44524D01*
X65071Y-44524D02*
X65071Y-45197D01*
X65071Y-45197D02*
X65071Y-45217D01*
X66651Y-41772D02*
X66651Y-41770D01*
X65052Y-41641D02*
X57919Y-41641D01*
X65413Y-41280D02*
X65052Y-41641D01*
X66161Y-41280D02*
X65413Y-41280D01*
X66651Y-41770D02*
X66161Y-41280D01*
X66142Y-45303D02*
X66182Y-45303D01*
X66182Y-45303D02*
X66651Y-45772D01*
X63705Y-46530D02*
X64236Y-46530D01*
X64236Y-46530D02*
X64524Y-46818D01*
X62972Y-42897D02*
X63629Y-42897D01*
X57919Y-42897D02*
X62972Y-42897D01*
X65590Y-45303D02*
X66142Y-45303D01*
X66142Y-45303D02*
X66157Y-45303D01*
X65252Y-44965D02*
X65590Y-45303D01*
X65252Y-44520D02*
X65252Y-44965D01*
X63629Y-42897D02*
X65252Y-44520D01*
G54D38*
X63704Y-44452D02*
X64226Y-44452D01*
X64226Y-44452D02*
X64523Y-44749D01*
G54D37*
X65651Y-44772D02*
X65651Y-44747D01*
X57927Y-42732D02*
X57919Y-42740D01*
X63636Y-42732D02*
X57927Y-42732D01*
X65651Y-44747D02*
X63636Y-42732D01*
X66341Y-44487D02*
X66366Y-44487D01*
X66366Y-44487D02*
X66651Y-44772D01*
X57919Y-42583D02*
X57531Y-42583D01*
X58323Y-43417D02*
X58476Y-43264D01*
X57641Y-43417D02*
X58323Y-43417D01*
X57429Y-43205D02*
X57641Y-43417D01*
X57429Y-42685D02*
X57429Y-43205D01*
X57531Y-42583D02*
X57429Y-42685D01*
X57919Y-42583D02*
X63670Y-42583D01*
X66137Y-44283D02*
X66341Y-44487D01*
X66341Y-44487D02*
X66651Y-44797D01*
X65370Y-44283D02*
X66137Y-44283D01*
X63670Y-42583D02*
X65370Y-44283D01*
G54D38*
X65077Y-43797D02*
X65626Y-43797D01*
G54D37*
X63706Y-42426D02*
X65077Y-43797D01*
X57919Y-42426D02*
X63706Y-42426D01*
G54D38*
X65626Y-43797D02*
X65651Y-43772D01*
G54D37*
X62025Y-44361D02*
X62539Y-44361D01*
X62539Y-44361D02*
X62851Y-44673D01*
X66348Y-43494D02*
X66373Y-43494D01*
X66373Y-43494D02*
X66651Y-43772D01*
X57919Y-42269D02*
X63729Y-42269D01*
X66145Y-43291D02*
X66348Y-43494D01*
X66348Y-43494D02*
X66651Y-43797D01*
X64751Y-43291D02*
X66145Y-43291D01*
X63729Y-42269D02*
X64751Y-43291D01*
X57919Y-42112D02*
X64711Y-42112D01*
X65371Y-42772D02*
X65651Y-42772D01*
X64711Y-42112D02*
X65371Y-42772D01*
X66376Y-42522D02*
X66401Y-42522D01*
X66401Y-42522D02*
X66651Y-42772D01*
X57919Y-41955D02*
X65247Y-41955D01*
X66149Y-42295D02*
X66376Y-42522D01*
X66376Y-42522D02*
X66651Y-42797D01*
X65587Y-42295D02*
X66149Y-42295D01*
X65247Y-41955D02*
X65587Y-42295D01*
X57919Y-41798D02*
X65625Y-41798D01*
X65625Y-41798D02*
X65651Y-41772D01*
X65651Y-37772D02*
X65279Y-37772D01*
X62509Y-40542D02*
X57919Y-40542D01*
X65279Y-37772D02*
X62509Y-40542D01*
X57919Y-41484D02*
X64939Y-41484D01*
X64939Y-41484D02*
X65651Y-40772D01*
X57919Y-40856D02*
X62747Y-40856D01*
X64831Y-38772D02*
X65651Y-38772D01*
X62747Y-40856D02*
X64831Y-38772D01*
X66651Y-40772D02*
X66520Y-40772D01*
X66520Y-40772D02*
X66063Y-40315D01*
X66063Y-40315D02*
X65473Y-40315D01*
X65473Y-40315D02*
X64461Y-41327D01*
X64461Y-41327D02*
X57919Y-41327D01*
X63957Y-40310D02*
X64336Y-40310D01*
X66190Y-39311D02*
X66651Y-39772D01*
X65335Y-39311D02*
X66190Y-39311D01*
X64336Y-40310D02*
X65335Y-39311D01*
X57919Y-41013D02*
X63003Y-41013D01*
X63706Y-40310D02*
X63957Y-40310D01*
X63003Y-41013D02*
X63706Y-40310D01*
X57919Y-40699D02*
X62608Y-40699D01*
X66186Y-38307D02*
X66651Y-38772D01*
X65000Y-38307D02*
X66186Y-38307D01*
X62608Y-40699D02*
X65000Y-38307D01*
X65651Y-39772D02*
X65651Y-39782D01*
X64263Y-41170D02*
X57919Y-41170D01*
X65651Y-39782D02*
X64263Y-41170D01*
X48370Y-46314D02*
X48370Y-46473D01*
X48071Y-46772D02*
X47756Y-46772D01*
X48370Y-46473D02*
X48071Y-46772D01*
X55186Y-43745D02*
X55186Y-44283D01*
X49557Y-45127D02*
X48370Y-46314D01*
X48370Y-46314D02*
X48366Y-46318D01*
X54342Y-45127D02*
X49557Y-45127D01*
X55186Y-44283D02*
X54342Y-45127D01*
X55029Y-43745D02*
X55029Y-44264D01*
X47267Y-46283D02*
X46756Y-45772D01*
X48230Y-46283D02*
X47267Y-46283D01*
X49507Y-45006D02*
X48230Y-46283D01*
X54287Y-45006D02*
X49507Y-45006D01*
X55029Y-44264D02*
X54287Y-45006D01*
X49795Y-43488D02*
X49795Y-43161D01*
X54087Y-43745D02*
X54087Y-44224D01*
X53795Y-44516D02*
X54087Y-44224D01*
X50256Y-44516D02*
X53795Y-44516D01*
X49795Y-44055D02*
X50256Y-44516D01*
X49795Y-43488D02*
X49795Y-44055D01*
X49406Y-42772D02*
X47756Y-42772D01*
X49795Y-43161D02*
X49406Y-42772D01*
X47756Y-42772D02*
X49079Y-42772D01*
X46756Y-42772D02*
X46858Y-42772D01*
X53930Y-44192D02*
X53930Y-43745D01*
X53740Y-44382D02*
X53930Y-44192D01*
X50351Y-44382D02*
X53740Y-44382D01*
X49980Y-44011D02*
X50351Y-44382D01*
X49980Y-43007D02*
X49980Y-44011D01*
X49225Y-42252D02*
X49980Y-43007D01*
X47378Y-42252D02*
X49225Y-42252D01*
X46858Y-42772D02*
X47378Y-42252D01*
X48496Y-46360D02*
X48496Y-46678D01*
X55343Y-44316D02*
X54407Y-45252D01*
X54407Y-45252D02*
X49604Y-45252D01*
X49604Y-45252D02*
X48496Y-46360D01*
X55343Y-43745D02*
X55343Y-44316D01*
X47220Y-47236D02*
X46756Y-46772D01*
X47938Y-47236D02*
X47220Y-47236D01*
X48496Y-46678D02*
X47938Y-47236D01*
X51835Y-45550D02*
X52409Y-45550D01*
X52409Y-45550D02*
X49525Y-45550D01*
X55814Y-43745D02*
X55814Y-44016D01*
X52581Y-45378D02*
X52409Y-45550D01*
X54452Y-45378D02*
X52581Y-45378D01*
X55814Y-44016D02*
X54452Y-45378D01*
X49525Y-45550D02*
X48626Y-46449D01*
X48626Y-46449D02*
X48626Y-46902D01*
X48626Y-46902D02*
X47756Y-47772D01*
X61331Y-45279D02*
X61331Y-45320D01*
X56756Y-44091D02*
X57038Y-44373D01*
X57038Y-44373D02*
X61101Y-44373D01*
X61101Y-44373D02*
X61331Y-44603D01*
X61331Y-44603D02*
X61331Y-45279D01*
X56756Y-43745D02*
X56756Y-44091D01*
X62216Y-45664D02*
X62216Y-46557D01*
X62044Y-45492D02*
X62216Y-45664D01*
X61503Y-45492D02*
X62044Y-45492D01*
X61331Y-45320D02*
X61503Y-45492D01*
X56913Y-43745D02*
X56913Y-43505D01*
X59448Y-43843D02*
X59669Y-43622D01*
X57706Y-43843D02*
X59448Y-43843D01*
X57335Y-43472D02*
X57706Y-43843D01*
X56946Y-43472D02*
X57335Y-43472D01*
X56913Y-43505D02*
X56946Y-43472D01*
X56913Y-44063D02*
X57097Y-44247D01*
X57097Y-44247D02*
X61176Y-44247D01*
X61176Y-44247D02*
X61543Y-44614D01*
X61543Y-44614D02*
X61543Y-45220D01*
X56913Y-43745D02*
X56913Y-44063D01*
X61966Y-47027D02*
X61966Y-46557D01*
X61965Y-47028D02*
X61966Y-47027D01*
X51669Y-42268D02*
X50001Y-42268D01*
X47256Y-41272D02*
X46756Y-41772D01*
X49005Y-41272D02*
X47256Y-41272D01*
X50001Y-42268D02*
X49005Y-41272D01*
X62216Y-48721D02*
X62216Y-49165D01*
X64205Y-48929D02*
X65669Y-48929D01*
X63390Y-49744D02*
X64205Y-48929D01*
X62319Y-49744D02*
X63390Y-49744D01*
X62264Y-49689D02*
X62319Y-49744D01*
X62264Y-49213D02*
X62264Y-49689D01*
X62216Y-49165D02*
X62264Y-49213D01*
X51669Y-41954D02*
X50065Y-41954D01*
X47256Y-40272D02*
X46756Y-40772D01*
X48383Y-40272D02*
X47256Y-40272D01*
X50065Y-41954D02*
X48383Y-40272D01*
X48843Y-39627D02*
X48843Y-38153D01*
X51669Y-41012D02*
X50228Y-41012D01*
X50228Y-41012D02*
X48843Y-39627D01*
X47272Y-37256D02*
X46756Y-37772D01*
X47946Y-37256D02*
X47272Y-37256D01*
X48843Y-38153D02*
X47946Y-37256D01*
X48681Y-39642D02*
X48681Y-38355D01*
X51669Y-41169D02*
X50208Y-41169D01*
X48681Y-39642D02*
X50208Y-41169D01*
X48098Y-37772D02*
X47756Y-37772D01*
X48681Y-38355D02*
X48098Y-37772D01*
X48531Y-39680D02*
X48531Y-38641D01*
X51669Y-41326D02*
X50177Y-41326D01*
X50177Y-41326D02*
X48531Y-39680D01*
X47252Y-38276D02*
X46756Y-38772D01*
X48166Y-38276D02*
X47252Y-38276D01*
X48531Y-38641D02*
X48166Y-38276D01*
X50125Y-41452D02*
X51157Y-41452D01*
X48406Y-39068D02*
X48110Y-38772D01*
X47756Y-38772D02*
X48110Y-38772D01*
X50125Y-41452D02*
X48406Y-39733D01*
X48406Y-39733D02*
X48406Y-39068D01*
X51188Y-41483D02*
X51669Y-41483D01*
X51157Y-41452D02*
X51188Y-41483D01*
X51669Y-41640D02*
X50120Y-41640D01*
X47252Y-39276D02*
X46756Y-39772D01*
X47898Y-39276D02*
X47252Y-39276D01*
X48244Y-39622D02*
X47898Y-39276D01*
X48244Y-39764D02*
X48244Y-39622D01*
X50120Y-41640D02*
X48244Y-39764D01*
X51669Y-41797D02*
X50097Y-41797D01*
X48072Y-39772D02*
X47756Y-39772D01*
X50097Y-41797D02*
X48072Y-39772D01*
X51669Y-42111D02*
X50028Y-42111D01*
X48689Y-40772D02*
X47756Y-40772D01*
X50028Y-42111D02*
X48689Y-40772D01*
X61966Y-48721D02*
X61966Y-49230D01*
X66165Y-49433D02*
X66669Y-48929D01*
X64441Y-49433D02*
X66165Y-49433D01*
X64004Y-49870D02*
X64441Y-49433D01*
X62185Y-49870D02*
X64004Y-49870D01*
X62051Y-49736D02*
X62185Y-49870D01*
X62051Y-49315D02*
X62051Y-49736D01*
X61966Y-49230D02*
X62051Y-49315D01*
X56442Y-43745D02*
X56442Y-47393D01*
X56442Y-47393D02*
X56189Y-47646D01*
X55795Y-49118D02*
X55795Y-49350D01*
X56599Y-47035D02*
X56579Y-47055D01*
X56579Y-47055D02*
X56579Y-48039D01*
X56579Y-48039D02*
X56366Y-48252D01*
X56366Y-48252D02*
X55961Y-48252D01*
X55961Y-48252D02*
X55795Y-48418D01*
X55795Y-48418D02*
X55795Y-49118D01*
X56599Y-43745D02*
X56599Y-47035D01*
X55491Y-49654D02*
X55193Y-49654D01*
X55795Y-49350D02*
X55491Y-49654D01*
X58083Y-49713D02*
X58083Y-49843D01*
X65086Y-50929D02*
X65669Y-50929D01*
X64751Y-50594D02*
X65086Y-50929D01*
X58834Y-50594D02*
X64751Y-50594D01*
X58083Y-49843D02*
X58834Y-50594D01*
X58418Y-49713D02*
X58418Y-50008D01*
X66248Y-50508D02*
X66669Y-50929D01*
X64855Y-50508D02*
X66248Y-50508D01*
X64804Y-50457D02*
X64855Y-50508D01*
X58867Y-50457D02*
X64804Y-50457D01*
X58418Y-50008D02*
X58867Y-50457D01*
X59099Y-49720D02*
X59099Y-50072D01*
X66212Y-50386D02*
X66669Y-49929D01*
X64937Y-50386D02*
X66212Y-50386D01*
X64870Y-50319D02*
X64937Y-50386D01*
X59346Y-50319D02*
X64870Y-50319D01*
X59099Y-50072D02*
X59346Y-50319D01*
X55500Y-43745D02*
X55500Y-42595D01*
X55500Y-42595D02*
X55504Y-42591D01*
X50796Y-43252D02*
X52296Y-43252D01*
X50796Y-43252D02*
X49316Y-41772D01*
X47756Y-41772D02*
X49316Y-41772D01*
X53459Y-43062D02*
X53459Y-43745D01*
X53394Y-42997D02*
X53459Y-43062D01*
X52551Y-42997D02*
X53394Y-42997D01*
X52296Y-43252D02*
X52551Y-42997D01*
X53095Y-45887D02*
X53095Y-45676D01*
X55457Y-45508D02*
X55740Y-45225D01*
X53263Y-45508D02*
X55457Y-45508D01*
X53095Y-45676D02*
X53263Y-45508D01*
X55740Y-45862D02*
X55740Y-45225D01*
X56128Y-43745D02*
X56128Y-45474D01*
X56128Y-45474D02*
X55740Y-45862D01*
X53605Y-46515D02*
X54159Y-46515D01*
X54159Y-46515D02*
X54165Y-46509D01*
X54175Y-46531D02*
X54874Y-46531D01*
X54159Y-46515D02*
X54175Y-46531D01*
X56285Y-43745D02*
X56285Y-46810D01*
X54874Y-46866D02*
X54874Y-46531D01*
X55079Y-47071D02*
X54874Y-46866D01*
X56024Y-47071D02*
X55079Y-47071D01*
X56285Y-46810D02*
X56024Y-47071D01*
G54D39*
X63440Y-35039D02*
X63440Y-35989D01*
X63440Y-35989D02*
X63461Y-36010D01*
G54D40*
X55197Y-51634D02*
X55197Y-51654D01*
G54D39*
X48913Y-44075D02*
X48621Y-44075D01*
X48621Y-44075D02*
X48602Y-44075D01*
G54D38*
X56914Y-37495D02*
X56914Y-37849D01*
X56914Y-37849D02*
X56909Y-37854D01*
G54D37*
X57087Y-36098D02*
X57087Y-35905D01*
X57087Y-35905D02*
X57205Y-35787D01*
G54D38*
X55740Y-46531D02*
X55740Y-46760D01*
X55740Y-46760D02*
X55642Y-46858D01*
G54D41*
X63464Y-35063D02*
X63440Y-35039D01*
X63440Y-35039D02*
X63440Y-34676D01*
X63440Y-34676D02*
X63134Y-34370D01*
G54D40*
X52402Y-44181D02*
X52158Y-44181D01*
G54D37*
X52162Y-44185D02*
X52165Y-44185D01*
X52158Y-44181D02*
X52162Y-44185D01*
G54D38*
X52517Y-43745D02*
X52517Y-44066D01*
X52517Y-44066D02*
X52402Y-44181D01*
X52402Y-44181D02*
X52398Y-44185D01*
G54D37*
X54976Y-36634D02*
X54721Y-36634D01*
X54721Y-36634D02*
X54638Y-36717D01*
G54D40*
X60022Y-44997D02*
X60022Y-44879D01*
X60022Y-44879D02*
X60094Y-44807D01*
G54D38*
X60697Y-45830D02*
X60697Y-45661D01*
X60866Y-45492D02*
X61220Y-45492D01*
X60697Y-45661D02*
X60866Y-45492D01*
G54D37*
X59390Y-43264D02*
X59508Y-43146D01*
X59650Y-43146D02*
X59508Y-43146D01*
X59390Y-43264D02*
X59076Y-43264D01*
G54D38*
X57919Y-38501D02*
X58409Y-38501D01*
X58409Y-38501D02*
X58457Y-38453D01*
G54D41*
X56934Y-34843D02*
X57133Y-34843D01*
X57133Y-34843D02*
X57299Y-34677D01*
X51476Y-35212D02*
X51476Y-34740D01*
X51629Y-34587D02*
X51673Y-34587D01*
X51476Y-34740D02*
X51629Y-34587D01*
G54D38*
X54715Y-43745D02*
X54715Y-43388D01*
X54715Y-43388D02*
X54764Y-43339D01*
X53616Y-43745D02*
X53616Y-44002D01*
X53616Y-44002D02*
X53705Y-44091D01*
X53350Y-46515D02*
X53350Y-46299D01*
X53605Y-46044D02*
X53605Y-45887D01*
X53350Y-46299D02*
X53605Y-46044D01*
X53095Y-46515D02*
X53350Y-46515D01*
X53605Y-45887D02*
X53605Y-45955D01*
X53605Y-45955D02*
X53776Y-46126D01*
X53605Y-45887D02*
X54143Y-45887D01*
X54143Y-45887D02*
X54165Y-45909D01*
G54D41*
X54165Y-45909D02*
X54827Y-45909D01*
G54D37*
X54827Y-45909D02*
X54874Y-45862D01*
G54D38*
X55740Y-44625D02*
X55540Y-44625D01*
X55540Y-44625D02*
X55134Y-45031D01*
X55657Y-43745D02*
X55657Y-43441D01*
X55657Y-43441D02*
X55748Y-43350D01*
X57222Y-44997D02*
X57222Y-44876D01*
X56843Y-44497D02*
X56843Y-44488D01*
X57222Y-44876D02*
X56843Y-44497D01*
X62025Y-43993D02*
X62025Y-43739D01*
X62025Y-43739D02*
X62028Y-43736D01*
X60799Y-44658D02*
X61063Y-44658D01*
X61063Y-44658D02*
X61110Y-44705D01*
X60693Y-48784D02*
X60693Y-48988D01*
X60693Y-48988D02*
X60512Y-49169D01*
X60693Y-48784D02*
X61153Y-48784D01*
X61153Y-48784D02*
X61216Y-48721D01*
X61078Y-49358D02*
X61078Y-49653D01*
X61078Y-49653D02*
X61236Y-49811D01*
X60697Y-47580D02*
X60697Y-47874D01*
X60697Y-47874D02*
X60701Y-47878D01*
X63704Y-45417D02*
X63704Y-45656D01*
X63704Y-45656D02*
X63705Y-45657D01*
X63705Y-47130D02*
X63236Y-47130D01*
X63236Y-47130D02*
X63232Y-47134D01*
X55162Y-35217D02*
X55162Y-34936D01*
X55162Y-34936D02*
X55295Y-34803D01*
G54D37*
X54874Y-45862D02*
X55071Y-45862D01*
G54D38*
X55071Y-45862D02*
X55740Y-46531D01*
G54D42*
X55866Y-51198D02*
X55866Y-53953D01*
X59433Y-53961D02*
X59433Y-51206D01*
X58008Y-53953D02*
X58008Y-51198D01*
X61575Y-53961D02*
X61575Y-51206D01*
G54D37*
X62025Y-43393D02*
X62571Y-43393D01*
X62571Y-43393D02*
X62851Y-43673D01*
X63704Y-46017D02*
X64255Y-46017D01*
X64255Y-46017D02*
X64523Y-45749D01*
X54810Y-48717D02*
X54810Y-49142D01*
X53882Y-53683D02*
X54089Y-53890D01*
X53882Y-50070D02*
X53882Y-53683D01*
X54810Y-49142D02*
X53882Y-50070D01*
X62716Y-46557D02*
X62716Y-46099D01*
X62716Y-46099D02*
X62515Y-45898D01*
X48417Y-48980D02*
X49027Y-48980D01*
X49027Y-48980D02*
X49031Y-48976D01*
X48417Y-48980D02*
X48897Y-48980D01*
X61466Y-48721D02*
X61466Y-49146D01*
X61466Y-49146D02*
X61678Y-49358D01*
X61466Y-46557D02*
X61466Y-46304D01*
X61466Y-46304D02*
X61836Y-45934D01*
X63709Y-47498D02*
X64204Y-47498D01*
X64204Y-47498D02*
X64524Y-47818D01*
G54D39*
X49527Y-43425D02*
X49527Y-44061D01*
X49527Y-44061D02*
X49513Y-44075D01*
G54D37*
X49527Y-44061D02*
X49513Y-44075D01*
G54D42*
X64040Y-35039D02*
X64040Y-34571D01*
X64040Y-34571D02*
X63878Y-34409D01*
G54D37*
X62966Y-46557D02*
X62966Y-46047D01*
X62966Y-46047D02*
X63115Y-45898D01*
X62966Y-48721D02*
X62966Y-49190D01*
X62966Y-49190D02*
X63143Y-49367D01*
X62716Y-48721D02*
X62716Y-49194D01*
X62716Y-49194D02*
X62543Y-49367D01*
G54D38*
X60269Y-43622D02*
X60665Y-43622D01*
G54D37*
X55410Y-48717D02*
X55410Y-48146D01*
X55410Y-48146D02*
X55410Y-47571D01*
X54354Y-46874D02*
X54359Y-46874D01*
X55020Y-47181D02*
X55410Y-47571D01*
X54666Y-47181D02*
X55020Y-47181D01*
X54359Y-46874D02*
X54666Y-47181D01*
X53350Y-45887D02*
X53350Y-46107D01*
X52941Y-46874D02*
X54354Y-46874D01*
X54354Y-46874D02*
X54343Y-46874D01*
X52807Y-46740D02*
X52941Y-46874D01*
X52807Y-46319D02*
X52807Y-46740D01*
X52925Y-46201D02*
X52807Y-46319D01*
X53256Y-46201D02*
X52925Y-46201D01*
X53350Y-46107D02*
X53256Y-46201D01*
X51835Y-46150D02*
X51458Y-46150D01*
X51458Y-46150D02*
X51363Y-46055D01*
X54558Y-42566D02*
X54558Y-43745D01*
X54555Y-42563D02*
X54558Y-42566D01*
X54554Y-43745D02*
X54558Y-43745D01*
X54554Y-43745D02*
X54558Y-43745D01*
X51938Y-43752D02*
X52353Y-43752D01*
X52353Y-43752D02*
X52360Y-43745D01*
X52674Y-43745D02*
X52674Y-43465D01*
X51567Y-43373D02*
X51188Y-43752D01*
X52582Y-43373D02*
X51567Y-43373D01*
X52674Y-43465D02*
X52582Y-43373D01*
G54D38*
X53150Y-34803D02*
X53381Y-34803D01*
X53130Y-34823D02*
X53150Y-34803D01*
X53381Y-34567D02*
X53381Y-34803D01*
X53381Y-34803D02*
X53381Y-35217D01*
G54D37*
X60022Y-47557D02*
X60324Y-47557D01*
X60468Y-48184D02*
X60693Y-48184D01*
X60374Y-48090D02*
X60468Y-48184D01*
X60374Y-47607D02*
X60374Y-48090D01*
X60324Y-47557D02*
X60374Y-47607D01*
X57222Y-45767D02*
X57802Y-45767D01*
X57802Y-45767D02*
X57803Y-45768D01*
X56583Y-49264D02*
X56193Y-49654D01*
X56583Y-48421D02*
X56583Y-49264D01*
X56822Y-48182D02*
X56583Y-48421D01*
X56822Y-47886D02*
X56822Y-48182D01*
X56891Y-47817D02*
X56822Y-47886D01*
X57222Y-47817D02*
X56891Y-47817D01*
X57222Y-47557D02*
X56887Y-47557D01*
X56701Y-48134D02*
X56189Y-48646D01*
X56701Y-47743D02*
X56701Y-48134D01*
X56887Y-47557D02*
X56701Y-47743D01*
X60022Y-45257D02*
X60514Y-45257D01*
X60514Y-45257D02*
X60603Y-45168D01*
X60067Y-49713D02*
X60220Y-49866D01*
X59807Y-49713D02*
X60067Y-49713D01*
X60102Y-51697D02*
X60504Y-52099D01*
X60102Y-50976D02*
X60102Y-51697D01*
X60283Y-50795D02*
X60102Y-50976D01*
X59807Y-49713D02*
X59807Y-49835D01*
X57748Y-49713D02*
X57748Y-50709D01*
X57465Y-51673D02*
X57650Y-51858D01*
X57465Y-50992D02*
X57465Y-51673D01*
X57748Y-50709D02*
X57465Y-50992D01*
X59472Y-49713D02*
X59472Y-50027D01*
X59976Y-52359D02*
X60504Y-52887D01*
X59976Y-50819D02*
X59976Y-52359D01*
X59984Y-50811D02*
X59976Y-50819D01*
X59472Y-50027D02*
X59543Y-50098D01*
X57413Y-49713D02*
X57413Y-50709D01*
X57331Y-52485D02*
X56937Y-52879D01*
X57331Y-50791D02*
X57331Y-52485D01*
X57413Y-50709D02*
X57331Y-50791D01*
G54D38*
X52988Y-44075D02*
X53098Y-44185D01*
X52988Y-43745D02*
X52988Y-44075D01*
X53145Y-43745D02*
X53145Y-43948D01*
X53288Y-44091D02*
X53390Y-44091D01*
X53145Y-43948D02*
X53288Y-44091D01*
G54D39*
X53394Y-47142D02*
X53394Y-48035D01*
G54D41*
X57222Y-45497D02*
X58045Y-45497D01*
X58023Y-47047D02*
X57598Y-47047D01*
X58150Y-46920D02*
X58023Y-47047D01*
X58150Y-45602D02*
X58150Y-46920D01*
X58045Y-45497D02*
X58150Y-45602D01*
X57222Y-47047D02*
X57598Y-47047D01*
G54D39*
X57598Y-47047D02*
X57673Y-47047D01*
G54D41*
X57925Y-47299D02*
X57925Y-47988D01*
X57673Y-47047D02*
X57925Y-47299D01*
G54D37*
X47827Y-48980D02*
X47827Y-51045D01*
X47827Y-51045D02*
X47874Y-51092D01*
X53144Y-43746D02*
X53145Y-43745D01*
G54D38*
X51669Y-43053D02*
X51938Y-43053D01*
G54D40*
X54122Y-43327D02*
X54331Y-43327D01*
X54331Y-43327D02*
X54401Y-43397D01*
X54401Y-43397D02*
X54401Y-43745D01*
G54D38*
X54122Y-43260D02*
X54122Y-43327D01*
X53728Y-42866D02*
X54122Y-43260D01*
X52485Y-42866D02*
X53728Y-42866D01*
X52268Y-43083D02*
X52485Y-42866D01*
X51968Y-43083D02*
X52268Y-43083D01*
X51938Y-43053D02*
X51968Y-43083D01*
G54D37*
X51203Y-43053D02*
X51201Y-43051D01*
X51203Y-43053D02*
X51669Y-43053D01*
G54D38*
X51347Y-42665D02*
X51276Y-42594D01*
X51661Y-42665D02*
X51347Y-42665D01*
X51669Y-42657D02*
X51661Y-42665D01*
X51669Y-42582D02*
X51669Y-42657D01*
X57919Y-43054D02*
X57919Y-43062D01*
X51744Y-42657D02*
X51669Y-42582D01*
X53965Y-42657D02*
X51744Y-42657D01*
X54346Y-42276D02*
X53965Y-42657D01*
X56339Y-42276D02*
X54346Y-42276D01*
X57114Y-43051D02*
X56339Y-42276D01*
X57919Y-43062D02*
X57772Y-43209D01*
G54D37*
X51669Y-42582D02*
X51669Y-42739D01*
X57919Y-43050D02*
X57919Y-43054D01*
X51669Y-42578D02*
X51669Y-42582D01*
G54D43*
X59839Y-37510D02*
X60183Y-37510D01*
X60183Y-37510D02*
X60303Y-37630D01*
X58898Y-37500D02*
X59829Y-37500D01*
X58365Y-36570D02*
X58756Y-36961D01*
X58756Y-36961D02*
X58756Y-37358D01*
X58756Y-37358D02*
X58898Y-37500D01*
G54D41*
X58209Y-36570D02*
X58365Y-36570D01*
G54D43*
X59829Y-37500D02*
X59839Y-37510D01*
G54D44*
X61409Y-47866D02*
X61110Y-47866D01*
G54D38*
X61417Y-47858D02*
X61409Y-47866D01*
G54D41*
X60022Y-46027D02*
X59354Y-46027D01*
G54D39*
X59354Y-46027D02*
X59319Y-45992D01*
X60156Y-48794D02*
X60156Y-48461D01*
X60165Y-48803D02*
X60156Y-48794D01*
G54D41*
X60022Y-47307D02*
X60315Y-47307D01*
G54D39*
X60156Y-48461D02*
X60022Y-48327D01*
G54D41*
X60980Y-48461D02*
X60156Y-48461D01*
X61110Y-48331D02*
X60980Y-48461D01*
X61110Y-47346D02*
X61110Y-47866D01*
X61110Y-47866D02*
X61110Y-48331D01*
X61044Y-47280D02*
X61110Y-47346D01*
X60342Y-47280D02*
X61044Y-47280D01*
G54D39*
X60315Y-47307D02*
X60342Y-47280D01*
G54D44*
X61750Y-47589D02*
X61982Y-47589D01*
X62063Y-47508D02*
X61982Y-47589D01*
G54D39*
X47756Y-43772D02*
X47941Y-43772D01*
X48288Y-43425D02*
X48937Y-43425D01*
X47941Y-43772D02*
X48288Y-43425D01*
G54D38*
X58965Y-35434D02*
X59071Y-35434D01*
X64415Y-35487D02*
X64508Y-35487D01*
X64106Y-35796D02*
X64415Y-35487D01*
X64106Y-36182D02*
X64106Y-35796D01*
X64052Y-36236D02*
X64106Y-36182D01*
X62013Y-36236D02*
X64052Y-36236D01*
X61497Y-35720D02*
X62013Y-36236D01*
X59357Y-35720D02*
X61497Y-35720D01*
X59071Y-35434D02*
X59357Y-35720D01*
G54D40*
X62025Y-44961D02*
X62025Y-45211D01*
X61265Y-43195D02*
X61265Y-43622D01*
X61299Y-43161D02*
X61265Y-43195D01*
X62025Y-45211D02*
X61984Y-45252D01*
G54D39*
X58965Y-35434D02*
X58528Y-35434D01*
X58528Y-35434D02*
X58209Y-35753D01*
G54D43*
X50000Y-46082D02*
X49461Y-46082D01*
X45972Y-47743D02*
X45972Y-42917D01*
X46701Y-48472D02*
X45972Y-47743D01*
X48457Y-48472D02*
X46701Y-48472D01*
X49181Y-47748D02*
X48457Y-48472D01*
X49181Y-46362D02*
X49181Y-47748D01*
X49461Y-46082D02*
X49181Y-46362D01*
G54D40*
X52244Y-41378D02*
X52244Y-42283D01*
X52094Y-41228D02*
X52244Y-41378D01*
G54D43*
X58209Y-36570D02*
X57781Y-36570D01*
X47252Y-43268D02*
X47756Y-43772D01*
X46149Y-43268D02*
X47252Y-43268D01*
X45972Y-43091D02*
X46149Y-43268D01*
X45972Y-36296D02*
X45972Y-42917D01*
G54D41*
X45972Y-42917D02*
X45972Y-43091D01*
G54D43*
X46264Y-36004D02*
X45972Y-36296D01*
X48322Y-36004D02*
X46264Y-36004D01*
X48787Y-35539D02*
X48322Y-36004D01*
X48787Y-35115D02*
X48787Y-35539D01*
X49674Y-34228D02*
X48787Y-35115D01*
X52123Y-34228D02*
X49674Y-34228D01*
X52217Y-34134D02*
X52123Y-34228D01*
X57217Y-34134D02*
X52217Y-34134D01*
X57737Y-34654D02*
X57217Y-34134D01*
X57737Y-36526D02*
X57737Y-34654D01*
X57781Y-36570D02*
X57737Y-36526D01*
G54D40*
X57919Y-40385D02*
X57635Y-40385D01*
G54D39*
X53303Y-42283D02*
X52244Y-42283D01*
X53614Y-41972D02*
X53303Y-42283D01*
X56516Y-41972D02*
X53614Y-41972D01*
X57587Y-40901D02*
X56516Y-41972D01*
G54D40*
X57587Y-40433D02*
X57587Y-40901D01*
X57635Y-40385D02*
X57587Y-40433D01*
G54D41*
X63473Y-40910D02*
X63957Y-40910D01*
X63465Y-40902D02*
X63473Y-40910D01*
G54D40*
X58356Y-40385D02*
X57919Y-40385D01*
G54D38*
X58356Y-40385D02*
X58406Y-40335D01*
G54D44*
X63709Y-48098D02*
X62259Y-48098D01*
X61216Y-47055D02*
X61216Y-46557D01*
X62259Y-48098D02*
X61750Y-47589D01*
X61750Y-47589D02*
X61216Y-47055D01*
G54D43*
X63704Y-45052D02*
X64037Y-45052D01*
X64037Y-45052D02*
X64142Y-45157D01*
X63709Y-48098D02*
X63709Y-48398D01*
X64911Y-48512D02*
X65651Y-47772D01*
X63823Y-48512D02*
X64911Y-48512D01*
X63709Y-48398D02*
X63823Y-48512D01*
G54D38*
X62025Y-44961D02*
X62035Y-44961D01*
G54D43*
X63346Y-45052D02*
X63704Y-45052D01*
X63237Y-45161D02*
X63346Y-45052D01*
X62235Y-45161D02*
X63237Y-45161D01*
X62035Y-44961D02*
X62235Y-45161D01*
G54D37*
X51669Y-42425D02*
X52102Y-42425D01*
X52102Y-42425D02*
X52244Y-42283D01*
G54D38*
X52025Y-42896D02*
X51669Y-42896D01*
X52047Y-42874D02*
X52025Y-42896D01*
G54D39*
X58209Y-36570D02*
X58209Y-35753D01*
G54D41*
X61236Y-45934D02*
X61236Y-46537D01*
G54D37*
X61236Y-46537D02*
X61216Y-46557D01*
G54D38*
X56443Y-37495D02*
X56443Y-37860D01*
X56654Y-38071D02*
X57358Y-38071D01*
X56443Y-37860D02*
X56654Y-38071D01*
G54D37*
X57087Y-36698D02*
X57461Y-36698D01*
G54D41*
X53981Y-35217D02*
X53981Y-34567D01*
X57461Y-37810D02*
X57358Y-37913D01*
X57461Y-36698D02*
X57461Y-37810D01*
X57358Y-37913D02*
X57358Y-38071D01*
X57358Y-38071D02*
X57358Y-40697D01*
X57358Y-40697D02*
X57366Y-40705D01*
G54D38*
X53292Y-36752D02*
X53292Y-36472D01*
X54088Y-37178D02*
X54088Y-37495D01*
X53898Y-36988D02*
X54088Y-37178D01*
X53898Y-36693D02*
X53898Y-36988D01*
X53642Y-36437D02*
X53898Y-36693D01*
X53327Y-36437D02*
X53642Y-36437D01*
X53292Y-36472D02*
X53327Y-36437D01*
X54562Y-35217D02*
X54562Y-34907D01*
X54562Y-34907D02*
X54587Y-34882D01*
X53981Y-35217D02*
X54562Y-35217D01*
X55576Y-36634D02*
X55576Y-36929D01*
X55591Y-36909D02*
X55591Y-36929D01*
X55591Y-36914D02*
X55591Y-36909D01*
X55576Y-36929D02*
X55591Y-36914D01*
X56443Y-37495D02*
X56443Y-37231D01*
X55344Y-37077D02*
X55344Y-37495D01*
X55492Y-36929D02*
X55344Y-37077D01*
X55689Y-36929D02*
X55591Y-36929D01*
X55591Y-36929D02*
X55492Y-36929D01*
X55768Y-37008D02*
X55689Y-36929D01*
X56220Y-37008D02*
X55768Y-37008D01*
X56443Y-37231D02*
X56220Y-37008D01*
G54D37*
X56334Y-34843D02*
X56162Y-34843D01*
X56162Y-34843D02*
X56142Y-34823D01*
X53773Y-43745D02*
X53773Y-43458D01*
X53773Y-43458D02*
X53693Y-43378D01*
G54D41*
X56146Y-35669D02*
X56146Y-35645D01*
X56146Y-35645D02*
X56441Y-35350D01*
X56441Y-35350D02*
X57244Y-35350D01*
X57244Y-35350D02*
X57461Y-35567D01*
X57461Y-35567D02*
X57461Y-36698D01*
X53831Y-40701D02*
X53051Y-40701D01*
X55382Y-40705D02*
X53835Y-40705D01*
X53835Y-40705D02*
X53831Y-40701D01*
X56791Y-40705D02*
X55382Y-40705D01*
X57366Y-40705D02*
X56791Y-40705D01*
G54D39*
X56146Y-35669D02*
X56130Y-35685D01*
G54D41*
X56130Y-35685D02*
X54591Y-35685D01*
G54D38*
X54088Y-37495D02*
X54088Y-37718D01*
X54088Y-37718D02*
X54216Y-37846D01*
X54216Y-37846D02*
X54346Y-37846D01*
X55244Y-37846D02*
X55344Y-37746D01*
X55344Y-37746D02*
X55344Y-37495D01*
G54D37*
X56447Y-37495D02*
X56443Y-37495D01*
G54D40*
X52831Y-43745D02*
X52831Y-44086D01*
G54D38*
X52736Y-44181D02*
X52732Y-44181D01*
G54D40*
X52831Y-44086D02*
X52736Y-44181D01*
G54D38*
X51354Y-47941D02*
X51354Y-50854D01*
X52638Y-52138D02*
X52638Y-53571D01*
X52638Y-53571D02*
X52319Y-53890D01*
X51354Y-50854D02*
X52638Y-52138D01*
G54D40*
X52831Y-43745D02*
X52831Y-43464D01*
X53302Y-43452D02*
X53302Y-43745D01*
X53212Y-43362D02*
X53302Y-43452D01*
X52933Y-43362D02*
X53212Y-43362D01*
X52831Y-43464D02*
X52933Y-43362D01*
G54D37*
X52827Y-43749D02*
X52831Y-43745D01*
X53298Y-43745D02*
X53302Y-43745D01*
G54D38*
X55971Y-43745D02*
X55971Y-44155D01*
X55971Y-44155D02*
X55858Y-44268D01*
G54D10*
G36*
X46827Y-43772D02*
X46756Y-43843D01*
X46448Y-44150D01*
X46475Y-44244D01*
X46540Y-44267D01*
X46445Y-44307D01*
X46340Y-44412D01*
X46340Y-44069D01*
X46378Y-44080D01*
X46650Y-43807D01*
X46685Y-43772D01*
X46756Y-43701D01*
X46827Y-43772D01*
X46827Y-43772D01*
G37*
G54D45*
X46827Y-43772D02*
X46756Y-43843D01*
X46448Y-44150D01*
X46475Y-44244D01*
X46540Y-44267D01*
X46445Y-44307D01*
X46340Y-44412D01*
X46340Y-44069D01*
X46378Y-44080D01*
X46650Y-43807D01*
X46685Y-43772D01*
X46756Y-43701D01*
X46827Y-43772D01*
G54D10*
G36*
X46827Y-47772D02*
X46756Y-47843D01*
X46685Y-47772D01*
X46650Y-47737D01*
X46378Y-47464D01*
X46340Y-47474D01*
X46340Y-47132D01*
X46445Y-47237D01*
X46536Y-47274D01*
X46475Y-47300D01*
X46448Y-47394D01*
X46721Y-47666D01*
X46756Y-47701D01*
X46827Y-47772D01*
X46827Y-47772D01*
G37*
G54D45*
X46827Y-47772D02*
X46756Y-47843D01*
X46685Y-47772D01*
X46650Y-47737D01*
X46378Y-47464D01*
X46340Y-47474D01*
X46340Y-47132D01*
X46445Y-47237D01*
X46536Y-47274D01*
X46475Y-47300D01*
X46448Y-47394D01*
X46721Y-47666D01*
X46756Y-47701D01*
X46827Y-47772D01*
G54D10*
G36*
X48963Y-44125D02*
X48863Y-44125D01*
X48813Y-44125D01*
X48600Y-44125D01*
X48538Y-44187D01*
X48539Y-44251D01*
X48539Y-44350D01*
X48544Y-44364D01*
X48538Y-44364D01*
X48237Y-44063D01*
X48231Y-44058D01*
X48305Y-43881D01*
X48305Y-43844D01*
X48415Y-43734D01*
X48566Y-43734D01*
X48539Y-43800D01*
X48539Y-43899D01*
X48538Y-43963D01*
X48600Y-44025D01*
X48813Y-44025D01*
X48863Y-44025D01*
X48963Y-44025D01*
X48963Y-44125D01*
X48963Y-44125D01*
G37*
G54D45*
X48963Y-44125D02*
X48863Y-44125D01*
X48813Y-44125D01*
X48600Y-44125D01*
X48538Y-44187D01*
X48539Y-44251D01*
X48539Y-44350D01*
X48544Y-44364D01*
X48538Y-44364D01*
X48237Y-44063D01*
X48231Y-44058D01*
X48305Y-43881D01*
X48305Y-43844D01*
X48415Y-43734D01*
X48566Y-43734D01*
X48539Y-43800D01*
X48539Y-43899D01*
X48538Y-43963D01*
X48600Y-44025D01*
X48813Y-44025D01*
X48863Y-44025D01*
X48963Y-44025D01*
X48963Y-44125D01*
G54D10*
G36*
X52387Y-36355D02*
X52356Y-36386D01*
X52318Y-36477D01*
X52318Y-36576D01*
X52318Y-36821D01*
X52314Y-36825D01*
X52251Y-36918D01*
X52229Y-37029D01*
X52229Y-37043D01*
X51974Y-36788D01*
X51974Y-36767D01*
X51921Y-36639D01*
X51824Y-36542D01*
X51696Y-36489D01*
X51558Y-36489D01*
X51430Y-36542D01*
X51350Y-36622D01*
X51309Y-36622D01*
X51181Y-36675D01*
X51084Y-36772D01*
X51031Y-36900D01*
X51031Y-37038D01*
X51084Y-37166D01*
X51181Y-37263D01*
X51309Y-37316D01*
X51330Y-37316D01*
X51532Y-37517D01*
X51532Y-37897D01*
X51523Y-37897D01*
X51514Y-37874D01*
X51417Y-37777D01*
X51289Y-37724D01*
X51151Y-37724D01*
X51107Y-37742D01*
X51043Y-37678D01*
X50915Y-37625D01*
X50777Y-37625D01*
X50649Y-37678D01*
X50642Y-37684D01*
X50640Y-37684D01*
X50502Y-37684D01*
X50374Y-37737D01*
X50277Y-37834D01*
X50224Y-37962D01*
X50224Y-37980D01*
X50167Y-37980D01*
X50039Y-38033D01*
X49942Y-38130D01*
X49889Y-38258D01*
X49889Y-38275D01*
X49833Y-38275D01*
X49705Y-38328D01*
X49608Y-38425D01*
X49555Y-38553D01*
X49555Y-38691D01*
X49594Y-38786D01*
X49558Y-38811D01*
X49503Y-38866D01*
X49482Y-38866D01*
X49452Y-38878D01*
X49452Y-37048D01*
X49451Y-37047D01*
X49431Y-36941D01*
X49370Y-36851D01*
X49370Y-36850D01*
X48682Y-36163D01*
X49047Y-35800D01*
X49047Y-35799D01*
X49127Y-35680D01*
X49154Y-35539D01*
X49155Y-35539D01*
X49155Y-35267D01*
X49826Y-34596D01*
X52059Y-34596D01*
X52034Y-34621D01*
X51911Y-34621D01*
X51819Y-34659D01*
X51749Y-34729D01*
X51711Y-34820D01*
X51711Y-34838D01*
X51652Y-34838D01*
X51588Y-34837D01*
X51526Y-34899D01*
X51526Y-35112D01*
X51526Y-35162D01*
X51526Y-35262D01*
X51426Y-35262D01*
X51426Y-35162D01*
X51426Y-34899D01*
X51364Y-34837D01*
X51300Y-34838D01*
X51201Y-34838D01*
X51110Y-34876D01*
X51040Y-34946D01*
X51002Y-35038D01*
X51001Y-35100D01*
X51063Y-35162D01*
X51426Y-35162D01*
X51426Y-35262D01*
X51376Y-35262D01*
X51063Y-35262D01*
X51001Y-35324D01*
X51002Y-35386D01*
X51040Y-35478D01*
X51074Y-35512D01*
X51040Y-35546D01*
X51002Y-35637D01*
X51002Y-35736D01*
X51002Y-35986D01*
X51040Y-36078D01*
X51110Y-36148D01*
X51201Y-36186D01*
X51300Y-36186D01*
X51589Y-36186D01*
X51703Y-36233D01*
X51841Y-36233D01*
X51969Y-36180D01*
X51982Y-36166D01*
X51989Y-36181D01*
X52086Y-36278D01*
X52214Y-36331D01*
X52251Y-36331D01*
X52254Y-36333D01*
X52364Y-36354D01*
X52365Y-36355D01*
X52387Y-36355D01*
X52387Y-36355D01*
G37*
G54D45*
X52387Y-36355D02*
X52356Y-36386D01*
X52318Y-36477D01*
X52318Y-36576D01*
X52318Y-36821D01*
X52314Y-36825D01*
X52251Y-36918D01*
X52229Y-37029D01*
X52229Y-37043D01*
X51974Y-36788D01*
X51974Y-36767D01*
X51921Y-36639D01*
X51824Y-36542D01*
X51696Y-36489D01*
X51558Y-36489D01*
X51430Y-36542D01*
X51350Y-36622D01*
X51309Y-36622D01*
X51181Y-36675D01*
X51084Y-36772D01*
X51031Y-36900D01*
X51031Y-37038D01*
X51084Y-37166D01*
X51181Y-37263D01*
X51309Y-37316D01*
X51330Y-37316D01*
X51532Y-37517D01*
X51532Y-37897D01*
X51523Y-37897D01*
X51514Y-37874D01*
X51417Y-37777D01*
X51289Y-37724D01*
X51151Y-37724D01*
X51107Y-37742D01*
X51043Y-37678D01*
X50915Y-37625D01*
X50777Y-37625D01*
X50649Y-37678D01*
X50642Y-37684D01*
X50640Y-37684D01*
X50502Y-37684D01*
X50374Y-37737D01*
X50277Y-37834D01*
X50224Y-37962D01*
X50224Y-37980D01*
X50167Y-37980D01*
X50039Y-38033D01*
X49942Y-38130D01*
X49889Y-38258D01*
X49889Y-38275D01*
X49833Y-38275D01*
X49705Y-38328D01*
X49608Y-38425D01*
X49555Y-38553D01*
X49555Y-38691D01*
X49594Y-38786D01*
X49558Y-38811D01*
X49503Y-38866D01*
X49482Y-38866D01*
X49452Y-38878D01*
X49452Y-37048D01*
X49451Y-37047D01*
X49431Y-36941D01*
X49370Y-36851D01*
X49370Y-36850D01*
X48682Y-36163D01*
X49047Y-35800D01*
X49047Y-35799D01*
X49127Y-35680D01*
X49154Y-35539D01*
X49155Y-35539D01*
X49155Y-35267D01*
X49826Y-34596D01*
X52059Y-34596D01*
X52034Y-34621D01*
X51911Y-34621D01*
X51819Y-34659D01*
X51749Y-34729D01*
X51711Y-34820D01*
X51711Y-34838D01*
X51652Y-34838D01*
X51588Y-34837D01*
X51526Y-34899D01*
X51526Y-35112D01*
X51526Y-35162D01*
X51526Y-35262D01*
X51426Y-35262D01*
X51426Y-35162D01*
X51426Y-34899D01*
X51364Y-34837D01*
X51300Y-34838D01*
X51201Y-34838D01*
X51110Y-34876D01*
X51040Y-34946D01*
X51002Y-35038D01*
X51001Y-35100D01*
X51063Y-35162D01*
X51426Y-35162D01*
X51426Y-35262D01*
X51376Y-35262D01*
X51063Y-35262D01*
X51001Y-35324D01*
X51002Y-35386D01*
X51040Y-35478D01*
X51074Y-35512D01*
X51040Y-35546D01*
X51002Y-35637D01*
X51002Y-35736D01*
X51002Y-35986D01*
X51040Y-36078D01*
X51110Y-36148D01*
X51201Y-36186D01*
X51300Y-36186D01*
X51589Y-36186D01*
X51703Y-36233D01*
X51841Y-36233D01*
X51969Y-36180D01*
X51982Y-36166D01*
X51989Y-36181D01*
X52086Y-36278D01*
X52214Y-36331D01*
X52251Y-36331D01*
X52254Y-36333D01*
X52364Y-36354D01*
X52365Y-36355D01*
X52387Y-36355D01*
G54D10*
G36*
X54924Y-45912D02*
X54824Y-45912D01*
X54774Y-45912D01*
X54411Y-45912D01*
X54364Y-45959D01*
X54265Y-45959D01*
X54215Y-45959D01*
X54115Y-45959D01*
X54065Y-45959D01*
X53893Y-45959D01*
X53871Y-45937D01*
X53705Y-45937D01*
X53677Y-45937D01*
X53677Y-45837D01*
X53705Y-45837D01*
X53730Y-45837D01*
X53752Y-45859D01*
X54065Y-45859D01*
X54115Y-45859D01*
X54215Y-45859D01*
X54265Y-45859D01*
X54578Y-45859D01*
X54625Y-45812D01*
X54774Y-45812D01*
X54824Y-45812D01*
X54924Y-45812D01*
X54924Y-45912D01*
X54924Y-45912D01*
G37*
G54D45*
X54924Y-45912D02*
X54824Y-45912D01*
X54774Y-45912D01*
X54411Y-45912D01*
X54364Y-45959D01*
X54265Y-45959D01*
X54215Y-45959D01*
X54115Y-45959D01*
X54065Y-45959D01*
X53893Y-45959D01*
X53871Y-45937D01*
X53705Y-45937D01*
X53677Y-45937D01*
X53677Y-45837D01*
X53705Y-45837D01*
X53730Y-45837D01*
X53752Y-45859D01*
X54065Y-45859D01*
X54115Y-45859D01*
X54215Y-45859D01*
X54265Y-45859D01*
X54578Y-45859D01*
X54625Y-45812D01*
X54774Y-45812D01*
X54824Y-45812D01*
X54924Y-45812D01*
X54924Y-45912D01*
G54D10*
G36*
X55026Y-36684D02*
X54926Y-36684D01*
X54926Y-36584D01*
X55026Y-36584D01*
X55026Y-36684D01*
X55026Y-36684D01*
G37*
G54D45*
X55026Y-36684D02*
X54926Y-36684D01*
X54926Y-36584D01*
X55026Y-36584D01*
X55026Y-36684D01*
G54D10*
G36*
X55790Y-44675D02*
X55690Y-44675D01*
X55690Y-44575D01*
X55692Y-44575D01*
X55789Y-44615D01*
X55790Y-44615D01*
X55790Y-44675D01*
X55790Y-44675D01*
G37*
G54D45*
X55790Y-44675D02*
X55690Y-44675D01*
X55690Y-44575D01*
X55692Y-44575D01*
X55789Y-44615D01*
X55790Y-44615D01*
X55790Y-44675D01*
G54D10*
G36*
X55790Y-46581D02*
X55690Y-46581D01*
X55690Y-46481D01*
X55790Y-46481D01*
X55790Y-46581D01*
X55790Y-46581D01*
G37*
G54D45*
X55790Y-46581D02*
X55690Y-46581D01*
X55690Y-46481D01*
X55790Y-46481D01*
X55790Y-46581D01*
G54D10*
G36*
X56058Y-35269D02*
X56027Y-35299D01*
X55927Y-35341D01*
X55911Y-35357D01*
X55536Y-35357D01*
X55537Y-35329D01*
X55537Y-35105D01*
X55536Y-35041D01*
X55536Y-34942D01*
X55498Y-34851D01*
X55428Y-34781D01*
X55336Y-34743D01*
X55274Y-34742D01*
X55212Y-34804D01*
X55212Y-35167D01*
X55475Y-35167D01*
X55537Y-35105D01*
X55537Y-35329D01*
X55475Y-35267D01*
X55262Y-35267D01*
X55212Y-35267D01*
X55112Y-35267D01*
X55112Y-35167D01*
X55112Y-35117D01*
X55112Y-34804D01*
X55050Y-34742D01*
X54988Y-34743D01*
X54917Y-34772D01*
X54881Y-34685D01*
X54784Y-34588D01*
X54656Y-34535D01*
X54518Y-34535D01*
X54390Y-34588D01*
X54355Y-34623D01*
X54355Y-34502D01*
X55987Y-34502D01*
X55982Y-34513D01*
X55945Y-34529D01*
X55848Y-34626D01*
X55795Y-34754D01*
X55795Y-34892D01*
X55848Y-35020D01*
X55945Y-35117D01*
X55963Y-35124D01*
X55998Y-35209D01*
X56058Y-35269D01*
X56058Y-35269D01*
G37*
G54D45*
X56058Y-35269D02*
X56027Y-35299D01*
X55927Y-35341D01*
X55911Y-35357D01*
X55536Y-35357D01*
X55537Y-35329D01*
X55537Y-35105D01*
X55536Y-35041D01*
X55536Y-34942D01*
X55498Y-34851D01*
X55428Y-34781D01*
X55336Y-34743D01*
X55274Y-34742D01*
X55212Y-34804D01*
X55212Y-35167D01*
X55475Y-35167D01*
X55537Y-35105D01*
X55537Y-35329D01*
X55475Y-35267D01*
X55262Y-35267D01*
X55212Y-35267D01*
X55112Y-35267D01*
X55112Y-35167D01*
X55112Y-35117D01*
X55112Y-34804D01*
X55050Y-34742D01*
X54988Y-34743D01*
X54917Y-34772D01*
X54881Y-34685D01*
X54784Y-34588D01*
X54656Y-34535D01*
X54518Y-34535D01*
X54390Y-34588D01*
X54355Y-34623D01*
X54355Y-34502D01*
X55987Y-34502D01*
X55982Y-34513D01*
X55945Y-34529D01*
X55848Y-34626D01*
X55795Y-34754D01*
X55795Y-34892D01*
X55848Y-35020D01*
X55945Y-35117D01*
X55963Y-35124D01*
X55998Y-35209D01*
X56058Y-35269D01*
G54D10*
G36*
X57133Y-36148D02*
X57037Y-36148D01*
X57037Y-36048D01*
X57037Y-35998D01*
X57037Y-35785D01*
X56975Y-35723D01*
X56911Y-35724D01*
X56812Y-35724D01*
X56721Y-35762D01*
X56651Y-35832D01*
X56640Y-35857D01*
X56531Y-35749D01*
X56533Y-35746D01*
X56533Y-35722D01*
X56577Y-35678D01*
X57108Y-35678D01*
X57133Y-35703D01*
X57133Y-36148D01*
X57133Y-36148D01*
G37*
G54D45*
X57133Y-36148D02*
X57037Y-36148D01*
X57037Y-36048D01*
X57037Y-35998D01*
X57037Y-35785D01*
X56975Y-35723D01*
X56911Y-35724D01*
X56812Y-35724D01*
X56721Y-35762D01*
X56651Y-35832D01*
X56640Y-35857D01*
X56531Y-35749D01*
X56533Y-35746D01*
X56533Y-35722D01*
X56577Y-35678D01*
X57108Y-35678D01*
X57133Y-35703D01*
X57133Y-36148D01*
G54D10*
G36*
X57203Y-48656D02*
X57133Y-48726D01*
X57095Y-48817D01*
X57095Y-48916D01*
X57095Y-49270D01*
X57133Y-49362D01*
X57149Y-49378D01*
X57133Y-49395D01*
X57095Y-49486D01*
X57095Y-49585D01*
X57095Y-49939D01*
X57133Y-50031D01*
X57134Y-50032D01*
X57134Y-50594D01*
X57073Y-50684D01*
X57054Y-50778D01*
X57015Y-50764D01*
X56803Y-50776D01*
X56658Y-50836D01*
X56633Y-50929D01*
X56902Y-51198D01*
X56937Y-51233D01*
X57008Y-51304D01*
X56937Y-51375D01*
X56719Y-51592D01*
X56629Y-51630D01*
X56476Y-51783D01*
X56393Y-51983D01*
X56393Y-52199D01*
X56476Y-52399D01*
X56562Y-52485D01*
X56476Y-52571D01*
X56393Y-52771D01*
X56393Y-52987D01*
X56476Y-53187D01*
X56561Y-53272D01*
X56476Y-53358D01*
X56405Y-53527D01*
X56273Y-53395D01*
X56273Y-51756D01*
X56444Y-51585D01*
X56457Y-51554D01*
X56469Y-51583D01*
X56562Y-51608D01*
X56866Y-51304D01*
X56562Y-51000D01*
X56526Y-51009D01*
X56445Y-50812D01*
X56253Y-50620D01*
X56003Y-50515D01*
X55731Y-50515D01*
X55480Y-50619D01*
X55288Y-50811D01*
X55183Y-51061D01*
X55183Y-51333D01*
X55287Y-51584D01*
X55459Y-51756D01*
X55459Y-53395D01*
X55288Y-53566D01*
X55201Y-53773D01*
X55201Y-53008D01*
X55191Y-52762D01*
X55116Y-52582D01*
X55014Y-52546D01*
X54943Y-52617D01*
X54650Y-52910D01*
X55014Y-53274D01*
X55116Y-53238D01*
X55201Y-53008D01*
X55201Y-53773D01*
X55183Y-53816D01*
X55183Y-54088D01*
X55287Y-54339D01*
X55479Y-54531D01*
X55595Y-54580D01*
X52927Y-54580D01*
X52927Y-53571D01*
X52927Y-52138D01*
X52926Y-52137D01*
X52905Y-52027D01*
X52897Y-52015D01*
X52897Y-48020D01*
X52886Y-47807D01*
X52826Y-47660D01*
X52732Y-47633D01*
X52662Y-47703D01*
X52662Y-47563D01*
X52635Y-47469D01*
X52433Y-47398D01*
X52220Y-47409D01*
X52073Y-47469D01*
X52046Y-47563D01*
X52354Y-47870D01*
X52662Y-47563D01*
X52662Y-47703D01*
X52425Y-47941D01*
X52732Y-48249D01*
X52826Y-48222D01*
X52897Y-48020D01*
X52897Y-52015D01*
X52842Y-51934D01*
X52842Y-51933D01*
X52662Y-51753D01*
X52662Y-48319D01*
X52354Y-48012D01*
X52046Y-48319D01*
X52073Y-48413D01*
X52275Y-48484D01*
X52488Y-48473D01*
X52635Y-48413D01*
X52662Y-48319D01*
X52662Y-51753D01*
X51643Y-50734D01*
X51643Y-48490D01*
X51703Y-48490D01*
X51795Y-48452D01*
X51865Y-48382D01*
X51903Y-48291D01*
X51903Y-48228D01*
X51976Y-48249D01*
X52283Y-47941D01*
X51976Y-47633D01*
X51903Y-47653D01*
X51903Y-47592D01*
X51865Y-47500D01*
X51795Y-47430D01*
X51704Y-47392D01*
X51605Y-47392D01*
X51005Y-47392D01*
X50913Y-47430D01*
X50843Y-47500D01*
X50805Y-47591D01*
X50805Y-47690D01*
X50805Y-48290D01*
X50843Y-48382D01*
X50913Y-48452D01*
X51004Y-48490D01*
X51065Y-48490D01*
X51065Y-50854D01*
X51087Y-50965D01*
X51150Y-51058D01*
X52349Y-52257D01*
X52349Y-52579D01*
X52254Y-52546D01*
X52183Y-52617D01*
X52183Y-52475D01*
X52147Y-52373D01*
X51917Y-52288D01*
X51671Y-52298D01*
X51491Y-52373D01*
X51455Y-52475D01*
X51819Y-52839D01*
X52183Y-52475D01*
X52183Y-52617D01*
X51925Y-52875D01*
X51890Y-52910D01*
X51819Y-52981D01*
X51784Y-53016D01*
X51748Y-53052D01*
X51748Y-52910D01*
X51384Y-52546D01*
X51282Y-52582D01*
X51197Y-52812D01*
X51207Y-53058D01*
X51282Y-53238D01*
X51384Y-53274D01*
X51748Y-52910D01*
X51748Y-53052D01*
X51455Y-53345D01*
X51491Y-53447D01*
X51721Y-53532D01*
X51862Y-53526D01*
X51828Y-53561D01*
X51739Y-53774D01*
X51739Y-54005D01*
X51827Y-54218D01*
X51990Y-54381D01*
X52203Y-54470D01*
X52434Y-54470D01*
X52647Y-54382D01*
X52810Y-54219D01*
X52899Y-54006D01*
X52899Y-53775D01*
X52877Y-53722D01*
X52905Y-53682D01*
X52905Y-53681D01*
X52926Y-53571D01*
X52927Y-53571D01*
X52927Y-54580D01*
X51046Y-54580D01*
X51046Y-52822D01*
X51045Y-52356D01*
X51019Y-52293D01*
X51019Y-50226D01*
X51019Y-50002D01*
X51018Y-49863D01*
X51018Y-49764D01*
X50980Y-49673D01*
X50910Y-49603D01*
X50818Y-49565D01*
X50650Y-49564D01*
X50650Y-47494D01*
X50650Y-47270D01*
X50649Y-47033D01*
X50611Y-46941D01*
X50541Y-46871D01*
X50450Y-46833D01*
X50351Y-46833D01*
X50112Y-46832D01*
X50050Y-46894D01*
X50050Y-47332D01*
X50588Y-47332D01*
X50650Y-47270D01*
X50650Y-47494D01*
X50588Y-47432D01*
X50050Y-47432D01*
X50050Y-47870D01*
X50112Y-47932D01*
X50351Y-47931D01*
X50450Y-47931D01*
X50541Y-47893D01*
X50611Y-47823D01*
X50649Y-47731D01*
X50650Y-47494D01*
X50650Y-49564D01*
X50581Y-49564D01*
X50519Y-49626D01*
X50519Y-50064D01*
X50957Y-50064D01*
X51019Y-50002D01*
X51019Y-50226D01*
X50957Y-50164D01*
X50519Y-50164D01*
X50519Y-50602D01*
X50581Y-50664D01*
X50818Y-50663D01*
X50910Y-50625D01*
X50980Y-50555D01*
X51018Y-50464D01*
X51018Y-50365D01*
X51019Y-50226D01*
X51019Y-52293D01*
X50868Y-51932D01*
X50709Y-51828D01*
X50638Y-51899D01*
X49945Y-52592D01*
X50709Y-53356D01*
X50868Y-53252D01*
X51046Y-52822D01*
X51046Y-54580D01*
X50638Y-54580D01*
X48308Y-54580D01*
X48534Y-54486D01*
X48638Y-54327D01*
X47874Y-53563D01*
X47803Y-53634D01*
X47803Y-53492D01*
X47039Y-52728D01*
X46880Y-52832D01*
X46702Y-53262D01*
X46703Y-53728D01*
X46880Y-54152D01*
X47039Y-54256D01*
X47803Y-53492D01*
X47803Y-53634D01*
X47110Y-54327D01*
X47214Y-54486D01*
X47441Y-54580D01*
X46271Y-54580D01*
X46087Y-54457D01*
X45964Y-54272D01*
X45964Y-48255D01*
X46440Y-48732D01*
X46441Y-48732D01*
X46488Y-48763D01*
X46560Y-48812D01*
X46700Y-48839D01*
X46701Y-48840D01*
X47421Y-48840D01*
X47421Y-48872D01*
X47421Y-49186D01*
X47459Y-49278D01*
X47529Y-49348D01*
X47548Y-49355D01*
X47548Y-49898D01*
X46880Y-49898D01*
X46788Y-49936D01*
X46718Y-50006D01*
X46680Y-50097D01*
X46680Y-50196D01*
X46680Y-52086D01*
X46718Y-52178D01*
X46788Y-52248D01*
X46879Y-52286D01*
X46978Y-52286D01*
X48733Y-52286D01*
X48702Y-52362D01*
X48702Y-52599D01*
X48664Y-52561D01*
X48610Y-52614D01*
X48534Y-52498D01*
X48104Y-52320D01*
X47638Y-52321D01*
X47214Y-52498D01*
X47110Y-52657D01*
X47839Y-53386D01*
X47874Y-53421D01*
X47945Y-53492D01*
X47980Y-53527D01*
X48709Y-54256D01*
X48868Y-54152D01*
X49046Y-53722D01*
X49045Y-53484D01*
X49084Y-53523D01*
X49137Y-53469D01*
X49214Y-53586D01*
X49644Y-53764D01*
X50110Y-53763D01*
X50534Y-53586D01*
X50638Y-53427D01*
X49909Y-52698D01*
X49874Y-52663D01*
X49803Y-52592D01*
X49874Y-52521D01*
X49909Y-52486D01*
X50638Y-51757D01*
X50534Y-51598D01*
X50104Y-51420D01*
X49638Y-51421D01*
X49214Y-51598D01*
X49137Y-51714D01*
X49084Y-51661D01*
X49068Y-51677D01*
X49068Y-50489D01*
X49158Y-50579D01*
X49360Y-50663D01*
X49578Y-50663D01*
X49780Y-50579D01*
X49920Y-50439D01*
X49920Y-50464D01*
X49958Y-50555D01*
X50028Y-50625D01*
X50120Y-50663D01*
X50357Y-50664D01*
X50419Y-50602D01*
X50419Y-50214D01*
X50419Y-50164D01*
X50419Y-50064D01*
X50419Y-50014D01*
X50419Y-49626D01*
X50357Y-49564D01*
X50120Y-49565D01*
X50028Y-49603D01*
X50006Y-49625D01*
X50006Y-49088D01*
X50006Y-48864D01*
X50005Y-48800D01*
X50005Y-48701D01*
X49967Y-48610D01*
X49897Y-48540D01*
X49805Y-48502D01*
X49743Y-48501D01*
X49681Y-48563D01*
X49681Y-48926D01*
X49944Y-48926D01*
X50006Y-48864D01*
X50006Y-49088D01*
X49944Y-49026D01*
X49681Y-49026D01*
X49681Y-49389D01*
X49743Y-49451D01*
X49805Y-49450D01*
X49897Y-49412D01*
X49967Y-49342D01*
X50005Y-49251D01*
X50005Y-49152D01*
X50006Y-49088D01*
X50006Y-49625D01*
X49958Y-49673D01*
X49920Y-49764D01*
X49920Y-49789D01*
X49780Y-49649D01*
X49578Y-49565D01*
X49360Y-49565D01*
X49158Y-49649D01*
X49004Y-49803D01*
X48950Y-49931D01*
X48869Y-49898D01*
X48770Y-49898D01*
X48106Y-49898D01*
X48106Y-49355D01*
X48121Y-49349D01*
X48210Y-49386D01*
X48309Y-49386D01*
X48623Y-49386D01*
X48705Y-49352D01*
X48765Y-49412D01*
X48856Y-49450D01*
X48955Y-49450D01*
X49205Y-49450D01*
X49297Y-49412D01*
X49331Y-49378D01*
X49365Y-49412D01*
X49457Y-49450D01*
X49519Y-49451D01*
X49581Y-49389D01*
X49581Y-49076D01*
X49581Y-49026D01*
X49581Y-48926D01*
X49581Y-48876D01*
X49581Y-48563D01*
X49519Y-48501D01*
X49457Y-48502D01*
X49365Y-48540D01*
X49331Y-48574D01*
X49297Y-48540D01*
X49206Y-48502D01*
X49107Y-48502D01*
X48947Y-48502D01*
X49441Y-48009D01*
X49441Y-48008D01*
X49472Y-47960D01*
X49504Y-47912D01*
X49505Y-47912D01*
X49550Y-47931D01*
X49649Y-47931D01*
X49888Y-47932D01*
X49950Y-47870D01*
X49950Y-47482D01*
X49950Y-47432D01*
X49950Y-47332D01*
X49950Y-47282D01*
X49950Y-46894D01*
X49888Y-46832D01*
X49649Y-46833D01*
X49550Y-46833D01*
X49549Y-46833D01*
X49549Y-46630D01*
X49550Y-46631D01*
X49649Y-46631D01*
X50449Y-46631D01*
X50541Y-46593D01*
X50604Y-46529D01*
X50651Y-46530D01*
X50713Y-46468D01*
X50713Y-46155D01*
X50713Y-46105D01*
X50713Y-46005D01*
X50813Y-46005D01*
X50813Y-46105D01*
X50813Y-46155D01*
X50813Y-46468D01*
X50875Y-46530D01*
X50937Y-46529D01*
X51029Y-46491D01*
X51063Y-46457D01*
X51097Y-46491D01*
X51188Y-46529D01*
X51287Y-46529D01*
X51537Y-46529D01*
X51554Y-46521D01*
X51560Y-46524D01*
X51659Y-46524D01*
X52109Y-46524D01*
X52121Y-46518D01*
X52134Y-46524D01*
X52233Y-46524D01*
X52297Y-46525D01*
X52359Y-46463D01*
X52359Y-46250D01*
X52359Y-46200D01*
X52359Y-46100D01*
X52459Y-46100D01*
X52459Y-46200D01*
X52459Y-46250D01*
X52459Y-46463D01*
X52521Y-46525D01*
X52528Y-46524D01*
X52528Y-46740D01*
X52549Y-46847D01*
X52610Y-46937D01*
X52743Y-47071D01*
X52744Y-47071D01*
X52834Y-47132D01*
X52941Y-47153D01*
X53026Y-47153D01*
X53026Y-47215D01*
X53082Y-47350D01*
X53085Y-47353D01*
X53085Y-47823D01*
X53082Y-47826D01*
X53026Y-47962D01*
X53026Y-48108D01*
X53082Y-48243D01*
X53185Y-48347D01*
X53321Y-48403D01*
X53467Y-48403D01*
X53602Y-48347D01*
X53706Y-48244D01*
X53762Y-48108D01*
X53762Y-47962D01*
X53706Y-47827D01*
X53703Y-47823D01*
X53703Y-47353D01*
X53706Y-47351D01*
X53762Y-47215D01*
X53762Y-47153D01*
X54244Y-47153D01*
X54436Y-47345D01*
X54436Y-47395D01*
X54435Y-47459D01*
X54497Y-47521D01*
X54710Y-47521D01*
X54760Y-47521D01*
X54860Y-47521D01*
X54860Y-47621D01*
X54860Y-47671D01*
X54860Y-47733D01*
X54860Y-47984D01*
X54860Y-48046D01*
X54860Y-48096D01*
X54860Y-48196D01*
X54760Y-48196D01*
X54760Y-48096D01*
X54760Y-47984D01*
X54760Y-47733D01*
X54760Y-47621D01*
X54497Y-47621D01*
X54435Y-47683D01*
X54436Y-47747D01*
X54436Y-47846D01*
X54441Y-47858D01*
X54436Y-47871D01*
X54436Y-47970D01*
X54435Y-48034D01*
X54497Y-48096D01*
X54760Y-48096D01*
X54760Y-48196D01*
X54710Y-48196D01*
X54497Y-48196D01*
X54435Y-48258D01*
X54436Y-48322D01*
X54436Y-48421D01*
X54440Y-48431D01*
X54436Y-48442D01*
X54436Y-48541D01*
X54436Y-48991D01*
X54474Y-49083D01*
X53685Y-49873D01*
X53624Y-49963D01*
X53603Y-50070D01*
X53603Y-53556D01*
X53598Y-53561D01*
X53509Y-53774D01*
X53509Y-54005D01*
X53597Y-54218D01*
X53760Y-54381D01*
X53973Y-54470D01*
X54204Y-54470D01*
X54417Y-54382D01*
X54580Y-54219D01*
X54669Y-54006D01*
X54669Y-53775D01*
X54581Y-53562D01*
X54548Y-53529D01*
X54727Y-53522D01*
X54907Y-53447D01*
X54943Y-53345D01*
X54614Y-53016D01*
X54579Y-52981D01*
X54508Y-52910D01*
X54579Y-52839D01*
X54614Y-52804D01*
X54943Y-52475D01*
X54907Y-52373D01*
X54677Y-52288D01*
X54431Y-52298D01*
X54251Y-52373D01*
X54233Y-52423D01*
X54196Y-52386D01*
X54161Y-52421D01*
X54161Y-50185D01*
X54644Y-49702D01*
X54644Y-49763D01*
X54728Y-49965D01*
X54882Y-50119D01*
X55084Y-50203D01*
X55302Y-50203D01*
X55504Y-50119D01*
X55644Y-49979D01*
X55644Y-50003D01*
X55682Y-50095D01*
X55752Y-50165D01*
X55843Y-50203D01*
X55942Y-50203D01*
X56542Y-50203D01*
X56634Y-50165D01*
X56704Y-50095D01*
X56742Y-50004D01*
X56742Y-49905D01*
X56742Y-49499D01*
X56780Y-49462D01*
X56780Y-49461D01*
X56841Y-49371D01*
X56861Y-49264D01*
X56862Y-49264D01*
X56862Y-48630D01*
X56922Y-48656D01*
X57021Y-48656D01*
X57203Y-48656D01*
X57203Y-48656D01*
G37*
G54D45*
X57203Y-48656D02*
X57133Y-48726D01*
X57095Y-48817D01*
X57095Y-48916D01*
X57095Y-49270D01*
X57133Y-49362D01*
X57149Y-49378D01*
X57133Y-49395D01*
X57095Y-49486D01*
X57095Y-49585D01*
X57095Y-49939D01*
X57133Y-50031D01*
X57134Y-50032D01*
X57134Y-50594D01*
X57073Y-50684D01*
X57054Y-50778D01*
X57015Y-50764D01*
X56803Y-50776D01*
X56658Y-50836D01*
X56633Y-50929D01*
X56902Y-51198D01*
X56937Y-51233D01*
X57008Y-51304D01*
X56937Y-51375D01*
X56719Y-51592D01*
X56629Y-51630D01*
X56476Y-51783D01*
X56393Y-51983D01*
X56393Y-52199D01*
X56476Y-52399D01*
X56562Y-52485D01*
X56476Y-52571D01*
X56393Y-52771D01*
X56393Y-52987D01*
X56476Y-53187D01*
X56561Y-53272D01*
X56476Y-53358D01*
X56405Y-53527D01*
X56273Y-53395D01*
X56273Y-51756D01*
X56444Y-51585D01*
X56457Y-51554D01*
X56469Y-51583D01*
X56562Y-51608D01*
X56866Y-51304D01*
X56562Y-51000D01*
X56526Y-51009D01*
X56445Y-50812D01*
X56253Y-50620D01*
X56003Y-50515D01*
X55731Y-50515D01*
X55480Y-50619D01*
X55288Y-50811D01*
X55183Y-51061D01*
X55183Y-51333D01*
X55287Y-51584D01*
X55459Y-51756D01*
X55459Y-53395D01*
X55288Y-53566D01*
X55201Y-53773D01*
X55201Y-53008D01*
X55191Y-52762D01*
X55116Y-52582D01*
X55014Y-52546D01*
X54943Y-52617D01*
X54650Y-52910D01*
X55014Y-53274D01*
X55116Y-53238D01*
X55201Y-53008D01*
X55201Y-53773D01*
X55183Y-53816D01*
X55183Y-54088D01*
X55287Y-54339D01*
X55479Y-54531D01*
X55595Y-54580D01*
X52927Y-54580D01*
X52927Y-53571D01*
X52927Y-52138D01*
X52926Y-52137D01*
X52905Y-52027D01*
X52897Y-52015D01*
X52897Y-48020D01*
X52886Y-47807D01*
X52826Y-47660D01*
X52732Y-47633D01*
X52662Y-47703D01*
X52662Y-47563D01*
X52635Y-47469D01*
X52433Y-47398D01*
X52220Y-47409D01*
X52073Y-47469D01*
X52046Y-47563D01*
X52354Y-47870D01*
X52662Y-47563D01*
X52662Y-47703D01*
X52425Y-47941D01*
X52732Y-48249D01*
X52826Y-48222D01*
X52897Y-48020D01*
X52897Y-52015D01*
X52842Y-51934D01*
X52842Y-51933D01*
X52662Y-51753D01*
X52662Y-48319D01*
X52354Y-48012D01*
X52046Y-48319D01*
X52073Y-48413D01*
X52275Y-48484D01*
X52488Y-48473D01*
X52635Y-48413D01*
X52662Y-48319D01*
X52662Y-51753D01*
X51643Y-50734D01*
X51643Y-48490D01*
X51703Y-48490D01*
X51795Y-48452D01*
X51865Y-48382D01*
X51903Y-48291D01*
X51903Y-48228D01*
X51976Y-48249D01*
X52283Y-47941D01*
X51976Y-47633D01*
X51903Y-47653D01*
X51903Y-47592D01*
X51865Y-47500D01*
X51795Y-47430D01*
X51704Y-47392D01*
X51605Y-47392D01*
X51005Y-47392D01*
X50913Y-47430D01*
X50843Y-47500D01*
X50805Y-47591D01*
X50805Y-47690D01*
X50805Y-48290D01*
X50843Y-48382D01*
X50913Y-48452D01*
X51004Y-48490D01*
X51065Y-48490D01*
X51065Y-50854D01*
X51087Y-50965D01*
X51150Y-51058D01*
X52349Y-52257D01*
X52349Y-52579D01*
X52254Y-52546D01*
X52183Y-52617D01*
X52183Y-52475D01*
X52147Y-52373D01*
X51917Y-52288D01*
X51671Y-52298D01*
X51491Y-52373D01*
X51455Y-52475D01*
X51819Y-52839D01*
X52183Y-52475D01*
X52183Y-52617D01*
X51925Y-52875D01*
X51890Y-52910D01*
X51819Y-52981D01*
X51784Y-53016D01*
X51748Y-53052D01*
X51748Y-52910D01*
X51384Y-52546D01*
X51282Y-52582D01*
X51197Y-52812D01*
X51207Y-53058D01*
X51282Y-53238D01*
X51384Y-53274D01*
X51748Y-52910D01*
X51748Y-53052D01*
X51455Y-53345D01*
X51491Y-53447D01*
X51721Y-53532D01*
X51862Y-53526D01*
X51828Y-53561D01*
X51739Y-53774D01*
X51739Y-54005D01*
X51827Y-54218D01*
X51990Y-54381D01*
X52203Y-54470D01*
X52434Y-54470D01*
X52647Y-54382D01*
X52810Y-54219D01*
X52899Y-54006D01*
X52899Y-53775D01*
X52877Y-53722D01*
X52905Y-53682D01*
X52905Y-53681D01*
X52926Y-53571D01*
X52927Y-53571D01*
X52927Y-54580D01*
X51046Y-54580D01*
X51046Y-52822D01*
X51045Y-52356D01*
X51019Y-52293D01*
X51019Y-50226D01*
X51019Y-50002D01*
X51018Y-49863D01*
X51018Y-49764D01*
X50980Y-49673D01*
X50910Y-49603D01*
X50818Y-49565D01*
X50650Y-49564D01*
X50650Y-47494D01*
X50650Y-47270D01*
X50649Y-47033D01*
X50611Y-46941D01*
X50541Y-46871D01*
X50450Y-46833D01*
X50351Y-46833D01*
X50112Y-46832D01*
X50050Y-46894D01*
X50050Y-47332D01*
X50588Y-47332D01*
X50650Y-47270D01*
X50650Y-47494D01*
X50588Y-47432D01*
X50050Y-47432D01*
X50050Y-47870D01*
X50112Y-47932D01*
X50351Y-47931D01*
X50450Y-47931D01*
X50541Y-47893D01*
X50611Y-47823D01*
X50649Y-47731D01*
X50650Y-47494D01*
X50650Y-49564D01*
X50581Y-49564D01*
X50519Y-49626D01*
X50519Y-50064D01*
X50957Y-50064D01*
X51019Y-50002D01*
X51019Y-50226D01*
X50957Y-50164D01*
X50519Y-50164D01*
X50519Y-50602D01*
X50581Y-50664D01*
X50818Y-50663D01*
X50910Y-50625D01*
X50980Y-50555D01*
X51018Y-50464D01*
X51018Y-50365D01*
X51019Y-50226D01*
X51019Y-52293D01*
X50868Y-51932D01*
X50709Y-51828D01*
X50638Y-51899D01*
X49945Y-52592D01*
X50709Y-53356D01*
X50868Y-53252D01*
X51046Y-52822D01*
X51046Y-54580D01*
X50638Y-54580D01*
X48308Y-54580D01*
X48534Y-54486D01*
X48638Y-54327D01*
X47874Y-53563D01*
X47803Y-53634D01*
X47803Y-53492D01*
X47039Y-52728D01*
X46880Y-52832D01*
X46702Y-53262D01*
X46703Y-53728D01*
X46880Y-54152D01*
X47039Y-54256D01*
X47803Y-53492D01*
X47803Y-53634D01*
X47110Y-54327D01*
X47214Y-54486D01*
X47441Y-54580D01*
X46271Y-54580D01*
X46087Y-54457D01*
X45964Y-54272D01*
X45964Y-48255D01*
X46440Y-48732D01*
X46441Y-48732D01*
X46488Y-48763D01*
X46560Y-48812D01*
X46700Y-48839D01*
X46701Y-48840D01*
X47421Y-48840D01*
X47421Y-48872D01*
X47421Y-49186D01*
X47459Y-49278D01*
X47529Y-49348D01*
X47548Y-49355D01*
X47548Y-49898D01*
X46880Y-49898D01*
X46788Y-49936D01*
X46718Y-50006D01*
X46680Y-50097D01*
X46680Y-50196D01*
X46680Y-52086D01*
X46718Y-52178D01*
X46788Y-52248D01*
X46879Y-52286D01*
X46978Y-52286D01*
X48733Y-52286D01*
X48702Y-52362D01*
X48702Y-52599D01*
X48664Y-52561D01*
X48610Y-52614D01*
X48534Y-52498D01*
X48104Y-52320D01*
X47638Y-52321D01*
X47214Y-52498D01*
X47110Y-52657D01*
X47839Y-53386D01*
X47874Y-53421D01*
X47945Y-53492D01*
X47980Y-53527D01*
X48709Y-54256D01*
X48868Y-54152D01*
X49046Y-53722D01*
X49045Y-53484D01*
X49084Y-53523D01*
X49137Y-53469D01*
X49214Y-53586D01*
X49644Y-53764D01*
X50110Y-53763D01*
X50534Y-53586D01*
X50638Y-53427D01*
X49909Y-52698D01*
X49874Y-52663D01*
X49803Y-52592D01*
X49874Y-52521D01*
X49909Y-52486D01*
X50638Y-51757D01*
X50534Y-51598D01*
X50104Y-51420D01*
X49638Y-51421D01*
X49214Y-51598D01*
X49137Y-51714D01*
X49084Y-51661D01*
X49068Y-51677D01*
X49068Y-50489D01*
X49158Y-50579D01*
X49360Y-50663D01*
X49578Y-50663D01*
X49780Y-50579D01*
X49920Y-50439D01*
X49920Y-50464D01*
X49958Y-50555D01*
X50028Y-50625D01*
X50120Y-50663D01*
X50357Y-50664D01*
X50419Y-50602D01*
X50419Y-50214D01*
X50419Y-50164D01*
X50419Y-50064D01*
X50419Y-50014D01*
X50419Y-49626D01*
X50357Y-49564D01*
X50120Y-49565D01*
X50028Y-49603D01*
X50006Y-49625D01*
X50006Y-49088D01*
X50006Y-48864D01*
X50005Y-48800D01*
X50005Y-48701D01*
X49967Y-48610D01*
X49897Y-48540D01*
X49805Y-48502D01*
X49743Y-48501D01*
X49681Y-48563D01*
X49681Y-48926D01*
X49944Y-48926D01*
X50006Y-48864D01*
X50006Y-49088D01*
X49944Y-49026D01*
X49681Y-49026D01*
X49681Y-49389D01*
X49743Y-49451D01*
X49805Y-49450D01*
X49897Y-49412D01*
X49967Y-49342D01*
X50005Y-49251D01*
X50005Y-49152D01*
X50006Y-49088D01*
X50006Y-49625D01*
X49958Y-49673D01*
X49920Y-49764D01*
X49920Y-49789D01*
X49780Y-49649D01*
X49578Y-49565D01*
X49360Y-49565D01*
X49158Y-49649D01*
X49004Y-49803D01*
X48950Y-49931D01*
X48869Y-49898D01*
X48770Y-49898D01*
X48106Y-49898D01*
X48106Y-49355D01*
X48121Y-49349D01*
X48210Y-49386D01*
X48309Y-49386D01*
X48623Y-49386D01*
X48705Y-49352D01*
X48765Y-49412D01*
X48856Y-49450D01*
X48955Y-49450D01*
X49205Y-49450D01*
X49297Y-49412D01*
X49331Y-49378D01*
X49365Y-49412D01*
X49457Y-49450D01*
X49519Y-49451D01*
X49581Y-49389D01*
X49581Y-49076D01*
X49581Y-49026D01*
X49581Y-48926D01*
X49581Y-48876D01*
X49581Y-48563D01*
X49519Y-48501D01*
X49457Y-48502D01*
X49365Y-48540D01*
X49331Y-48574D01*
X49297Y-48540D01*
X49206Y-48502D01*
X49107Y-48502D01*
X48947Y-48502D01*
X49441Y-48009D01*
X49441Y-48008D01*
X49472Y-47960D01*
X49504Y-47912D01*
X49505Y-47912D01*
X49550Y-47931D01*
X49649Y-47931D01*
X49888Y-47932D01*
X49950Y-47870D01*
X49950Y-47482D01*
X49950Y-47432D01*
X49950Y-47332D01*
X49950Y-47282D01*
X49950Y-46894D01*
X49888Y-46832D01*
X49649Y-46833D01*
X49550Y-46833D01*
X49549Y-46833D01*
X49549Y-46630D01*
X49550Y-46631D01*
X49649Y-46631D01*
X50449Y-46631D01*
X50541Y-46593D01*
X50604Y-46529D01*
X50651Y-46530D01*
X50713Y-46468D01*
X50713Y-46155D01*
X50713Y-46105D01*
X50713Y-46005D01*
X50813Y-46005D01*
X50813Y-46105D01*
X50813Y-46155D01*
X50813Y-46468D01*
X50875Y-46530D01*
X50937Y-46529D01*
X51029Y-46491D01*
X51063Y-46457D01*
X51097Y-46491D01*
X51188Y-46529D01*
X51287Y-46529D01*
X51537Y-46529D01*
X51554Y-46521D01*
X51560Y-46524D01*
X51659Y-46524D01*
X52109Y-46524D01*
X52121Y-46518D01*
X52134Y-46524D01*
X52233Y-46524D01*
X52297Y-46525D01*
X52359Y-46463D01*
X52359Y-46250D01*
X52359Y-46200D01*
X52359Y-46100D01*
X52459Y-46100D01*
X52459Y-46200D01*
X52459Y-46250D01*
X52459Y-46463D01*
X52521Y-46525D01*
X52528Y-46524D01*
X52528Y-46740D01*
X52549Y-46847D01*
X52610Y-46937D01*
X52743Y-47071D01*
X52744Y-47071D01*
X52834Y-47132D01*
X52941Y-47153D01*
X53026Y-47153D01*
X53026Y-47215D01*
X53082Y-47350D01*
X53085Y-47353D01*
X53085Y-47823D01*
X53082Y-47826D01*
X53026Y-47962D01*
X53026Y-48108D01*
X53082Y-48243D01*
X53185Y-48347D01*
X53321Y-48403D01*
X53467Y-48403D01*
X53602Y-48347D01*
X53706Y-48244D01*
X53762Y-48108D01*
X53762Y-47962D01*
X53706Y-47827D01*
X53703Y-47823D01*
X53703Y-47353D01*
X53706Y-47351D01*
X53762Y-47215D01*
X53762Y-47153D01*
X54244Y-47153D01*
X54436Y-47345D01*
X54436Y-47395D01*
X54435Y-47459D01*
X54497Y-47521D01*
X54710Y-47521D01*
X54760Y-47521D01*
X54860Y-47521D01*
X54860Y-47621D01*
X54860Y-47671D01*
X54860Y-47733D01*
X54860Y-47984D01*
X54860Y-48046D01*
X54860Y-48096D01*
X54860Y-48196D01*
X54760Y-48196D01*
X54760Y-48096D01*
X54760Y-47984D01*
X54760Y-47733D01*
X54760Y-47621D01*
X54497Y-47621D01*
X54435Y-47683D01*
X54436Y-47747D01*
X54436Y-47846D01*
X54441Y-47858D01*
X54436Y-47871D01*
X54436Y-47970D01*
X54435Y-48034D01*
X54497Y-48096D01*
X54760Y-48096D01*
X54760Y-48196D01*
X54710Y-48196D01*
X54497Y-48196D01*
X54435Y-48258D01*
X54436Y-48322D01*
X54436Y-48421D01*
X54440Y-48431D01*
X54436Y-48442D01*
X54436Y-48541D01*
X54436Y-48991D01*
X54474Y-49083D01*
X53685Y-49873D01*
X53624Y-49963D01*
X53603Y-50070D01*
X53603Y-53556D01*
X53598Y-53561D01*
X53509Y-53774D01*
X53509Y-54005D01*
X53597Y-54218D01*
X53760Y-54381D01*
X53973Y-54470D01*
X54204Y-54470D01*
X54417Y-54382D01*
X54580Y-54219D01*
X54669Y-54006D01*
X54669Y-53775D01*
X54581Y-53562D01*
X54548Y-53529D01*
X54727Y-53522D01*
X54907Y-53447D01*
X54943Y-53345D01*
X54614Y-53016D01*
X54579Y-52981D01*
X54508Y-52910D01*
X54579Y-52839D01*
X54614Y-52804D01*
X54943Y-52475D01*
X54907Y-52373D01*
X54677Y-52288D01*
X54431Y-52298D01*
X54251Y-52373D01*
X54233Y-52423D01*
X54196Y-52386D01*
X54161Y-52421D01*
X54161Y-50185D01*
X54644Y-49702D01*
X54644Y-49763D01*
X54728Y-49965D01*
X54882Y-50119D01*
X55084Y-50203D01*
X55302Y-50203D01*
X55504Y-50119D01*
X55644Y-49979D01*
X55644Y-50003D01*
X55682Y-50095D01*
X55752Y-50165D01*
X55843Y-50203D01*
X55942Y-50203D01*
X56542Y-50203D01*
X56634Y-50165D01*
X56704Y-50095D01*
X56742Y-50004D01*
X56742Y-49905D01*
X56742Y-49499D01*
X56780Y-49462D01*
X56780Y-49461D01*
X56841Y-49371D01*
X56861Y-49264D01*
X56862Y-49264D01*
X56862Y-48630D01*
X56922Y-48656D01*
X57021Y-48656D01*
X57203Y-48656D01*
G54D10*
G36*
X57369Y-35046D02*
X57308Y-35034D01*
X57308Y-35019D01*
X57309Y-34955D01*
X57247Y-34893D01*
X57034Y-34893D01*
X56984Y-34893D01*
X56884Y-34893D01*
X56884Y-34793D01*
X56984Y-34793D01*
X57034Y-34793D01*
X57247Y-34793D01*
X57301Y-34738D01*
X57369Y-34806D01*
X57369Y-35046D01*
X57369Y-35046D01*
G37*
G54D45*
X57369Y-35046D02*
X57308Y-35034D01*
X57308Y-35019D01*
X57309Y-34955D01*
X57247Y-34893D01*
X57034Y-34893D01*
X56984Y-34893D01*
X56884Y-34893D01*
X56884Y-34793D01*
X56984Y-34793D01*
X57034Y-34793D01*
X57247Y-34793D01*
X57301Y-34738D01*
X57369Y-34806D01*
X57369Y-35046D01*
G54D10*
G36*
X57589Y-44652D02*
X57565Y-44677D01*
X57560Y-44683D01*
X57522Y-44668D01*
X57423Y-44668D01*
X57334Y-44667D01*
X57272Y-44729D01*
X57272Y-44897D01*
X57272Y-44928D01*
X57172Y-44928D01*
X57172Y-44897D01*
X57172Y-44729D01*
X57110Y-44667D01*
X57021Y-44668D01*
X56922Y-44668D01*
X56878Y-44686D01*
X56878Y-44595D01*
X56931Y-44631D01*
X57037Y-44651D01*
X57038Y-44652D01*
X57589Y-44652D01*
X57589Y-44652D01*
G37*
G54D45*
X57589Y-44652D02*
X57565Y-44677D01*
X57560Y-44683D01*
X57522Y-44668D01*
X57423Y-44668D01*
X57334Y-44667D01*
X57272Y-44729D01*
X57272Y-44897D01*
X57272Y-44928D01*
X57172Y-44928D01*
X57172Y-44897D01*
X57172Y-44729D01*
X57110Y-44667D01*
X57021Y-44668D01*
X56922Y-44668D01*
X56878Y-44686D01*
X56878Y-44595D01*
X56931Y-44631D01*
X57037Y-44651D01*
X57038Y-44652D01*
X57589Y-44652D01*
G54D10*
G36*
X59126Y-43314D02*
X59026Y-43314D01*
X59026Y-43214D01*
X59126Y-43214D01*
X59126Y-43314D01*
X59126Y-43314D01*
G37*
G54D45*
X59126Y-43314D02*
X59026Y-43314D01*
X59026Y-43214D01*
X59126Y-43214D01*
X59126Y-43314D01*
G54D10*
G36*
X60747Y-45880D02*
X60647Y-45880D01*
X60647Y-45780D01*
X60747Y-45780D01*
X60747Y-45880D01*
X60747Y-45880D01*
G37*
G54D45*
X60747Y-45880D02*
X60647Y-45880D01*
X60647Y-45780D01*
X60747Y-45780D01*
X60747Y-45880D01*
G54D10*
G36*
X61128Y-49408D02*
X61028Y-49408D01*
X60978Y-49408D01*
X60765Y-49408D01*
X60710Y-49462D01*
X60425Y-49177D01*
X60363Y-49135D01*
X60418Y-49158D01*
X60517Y-49158D01*
X60581Y-49159D01*
X60643Y-49097D01*
X60643Y-48884D01*
X60643Y-48834D01*
X60643Y-48789D01*
X60743Y-48789D01*
X60743Y-48834D01*
X60743Y-48884D01*
X60743Y-48991D01*
X60742Y-48992D01*
X60704Y-49083D01*
X60704Y-49182D01*
X60703Y-49246D01*
X60765Y-49308D01*
X60978Y-49308D01*
X61028Y-49308D01*
X61128Y-49308D01*
X61128Y-49408D01*
X61128Y-49408D01*
G37*
G54D45*
X61128Y-49408D02*
X61028Y-49408D01*
X60978Y-49408D01*
X60765Y-49408D01*
X60710Y-49462D01*
X60425Y-49177D01*
X60363Y-49135D01*
X60418Y-49158D01*
X60517Y-49158D01*
X60581Y-49159D01*
X60643Y-49097D01*
X60643Y-48884D01*
X60643Y-48834D01*
X60643Y-48789D01*
X60743Y-48789D01*
X60743Y-48834D01*
X60743Y-48884D01*
X60743Y-48991D01*
X60742Y-48992D01*
X60704Y-49083D01*
X60704Y-49182D01*
X60703Y-49246D01*
X60765Y-49308D01*
X60978Y-49308D01*
X61028Y-49308D01*
X61128Y-49308D01*
X61128Y-49408D01*
G54D10*
G36*
X61168Y-53403D02*
X61035Y-53535D01*
X60965Y-53366D01*
X60879Y-53280D01*
X60965Y-53195D01*
X61048Y-52995D01*
X61048Y-52779D01*
X60965Y-52579D01*
X60879Y-52493D01*
X60965Y-52407D01*
X61048Y-52207D01*
X61048Y-51991D01*
X60965Y-51791D01*
X60812Y-51638D01*
X60721Y-51600D01*
X60539Y-51418D01*
X60504Y-51383D01*
X60433Y-51312D01*
X60504Y-51241D01*
X60539Y-51206D01*
X60808Y-50937D01*
X60790Y-50873D01*
X60974Y-50873D01*
X60913Y-51017D01*
X60879Y-51008D01*
X60575Y-51312D01*
X60879Y-51616D01*
X60972Y-51591D01*
X60982Y-51560D01*
X60996Y-51592D01*
X61168Y-51764D01*
X61168Y-53403D01*
X61168Y-53403D01*
G37*
G54D45*
X61168Y-53403D02*
X61035Y-53535D01*
X60965Y-53366D01*
X60879Y-53280D01*
X60965Y-53195D01*
X61048Y-52995D01*
X61048Y-52779D01*
X60965Y-52579D01*
X60879Y-52493D01*
X60965Y-52407D01*
X61048Y-52207D01*
X61048Y-51991D01*
X60965Y-51791D01*
X60812Y-51638D01*
X60721Y-51600D01*
X60539Y-51418D01*
X60504Y-51383D01*
X60433Y-51312D01*
X60504Y-51241D01*
X60539Y-51206D01*
X60808Y-50937D01*
X60790Y-50873D01*
X60974Y-50873D01*
X60913Y-51017D01*
X60879Y-51008D01*
X60575Y-51312D01*
X60879Y-51616D01*
X60972Y-51591D01*
X60982Y-51560D01*
X60996Y-51592D01*
X61168Y-51764D01*
X61168Y-53403D01*
G54D10*
G36*
X63755Y-47124D02*
X63435Y-47124D01*
X63343Y-47162D01*
X63325Y-47180D01*
X63292Y-47180D01*
X63230Y-47242D01*
X63231Y-47304D01*
X63236Y-47318D01*
X63235Y-47323D01*
X63235Y-47422D01*
X63235Y-47672D01*
X63267Y-47750D01*
X62403Y-47750D01*
X62385Y-47732D01*
X62391Y-47727D01*
X62450Y-47585D01*
X62450Y-47431D01*
X62391Y-47289D01*
X62282Y-47180D01*
X62278Y-47178D01*
X62312Y-47097D01*
X62312Y-47002D01*
X62338Y-47002D01*
X62343Y-47002D01*
X62437Y-47002D01*
X62588Y-47002D01*
X62593Y-47002D01*
X62687Y-47002D01*
X62838Y-47002D01*
X62843Y-47002D01*
X62937Y-47002D01*
X63093Y-47002D01*
X63185Y-46964D01*
X63255Y-46894D01*
X63287Y-46814D01*
X63303Y-46830D01*
X63269Y-46864D01*
X63231Y-46956D01*
X63230Y-47018D01*
X63292Y-47080D01*
X63605Y-47080D01*
X63655Y-47080D01*
X63755Y-47080D01*
X63755Y-47124D01*
X63755Y-47124D01*
G37*
G54D45*
X63755Y-47124D02*
X63435Y-47124D01*
X63343Y-47162D01*
X63325Y-47180D01*
X63292Y-47180D01*
X63230Y-47242D01*
X63231Y-47304D01*
X63236Y-47318D01*
X63235Y-47323D01*
X63235Y-47422D01*
X63235Y-47672D01*
X63267Y-47750D01*
X62403Y-47750D01*
X62385Y-47732D01*
X62391Y-47727D01*
X62450Y-47585D01*
X62450Y-47431D01*
X62391Y-47289D01*
X62282Y-47180D01*
X62278Y-47178D01*
X62312Y-47097D01*
X62312Y-47002D01*
X62338Y-47002D01*
X62343Y-47002D01*
X62437Y-47002D01*
X62588Y-47002D01*
X62593Y-47002D01*
X62687Y-47002D01*
X62838Y-47002D01*
X62843Y-47002D01*
X62937Y-47002D01*
X63093Y-47002D01*
X63185Y-46964D01*
X63255Y-46894D01*
X63287Y-46814D01*
X63303Y-46830D01*
X63269Y-46864D01*
X63231Y-46956D01*
X63230Y-47018D01*
X63292Y-47080D01*
X63605Y-47080D01*
X63655Y-47080D01*
X63755Y-47080D01*
X63755Y-47124D01*
G54D10*
G36*
X65654Y-33680D02*
X65640Y-33686D01*
X65293Y-34033D01*
X65105Y-34486D01*
X65104Y-34830D01*
X65099Y-34823D01*
X64874Y-34598D01*
X64874Y-34517D01*
X64874Y-34203D01*
X64836Y-34111D01*
X64766Y-34041D01*
X64675Y-34003D01*
X64576Y-34003D01*
X64262Y-34003D01*
X64173Y-34039D01*
X64085Y-34003D01*
X63986Y-34003D01*
X63883Y-34003D01*
X63878Y-34002D01*
X63872Y-34003D01*
X63672Y-34003D01*
X63580Y-34041D01*
X63510Y-34111D01*
X63472Y-34202D01*
X63472Y-34301D01*
X63472Y-34403D01*
X63471Y-34409D01*
X63472Y-34414D01*
X63472Y-34615D01*
X63490Y-34658D01*
X63490Y-34939D01*
X63490Y-34989D01*
X63490Y-35089D01*
X63490Y-35139D01*
X63490Y-35452D01*
X63552Y-35514D01*
X63614Y-35513D01*
X63706Y-35475D01*
X63740Y-35441D01*
X63774Y-35475D01*
X63865Y-35513D01*
X63964Y-35513D01*
X63980Y-35513D01*
X63902Y-35592D01*
X63867Y-35643D01*
X63845Y-35643D01*
X63573Y-35642D01*
X63511Y-35704D01*
X63511Y-35910D01*
X63511Y-35947D01*
X63411Y-35947D01*
X63411Y-35910D01*
X63411Y-35704D01*
X63349Y-35642D01*
X63077Y-35643D01*
X62978Y-35643D01*
X62950Y-35654D01*
X63048Y-35558D01*
X63109Y-35410D01*
X63174Y-35475D01*
X63266Y-35513D01*
X63328Y-35514D01*
X63390Y-35452D01*
X63390Y-35089D01*
X63390Y-34989D01*
X63390Y-34626D01*
X63328Y-34564D01*
X63266Y-34565D01*
X63174Y-34603D01*
X63104Y-34673D01*
X63066Y-34764D01*
X63066Y-34863D01*
X63065Y-34927D01*
X63127Y-34989D01*
X63390Y-34989D01*
X63390Y-35089D01*
X63127Y-35089D01*
X63079Y-35136D01*
X63048Y-35061D01*
X62925Y-34937D01*
X62764Y-34870D01*
X62589Y-34870D01*
X62428Y-34937D01*
X62304Y-35060D01*
X62237Y-35221D01*
X62237Y-35396D01*
X62304Y-35557D01*
X62427Y-35681D01*
X62588Y-35748D01*
X62763Y-35748D01*
X62860Y-35707D01*
X62817Y-35751D01*
X62779Y-35843D01*
X62778Y-35898D01*
X62790Y-35910D01*
X62778Y-35910D01*
X62778Y-35947D01*
X62132Y-35947D01*
X61701Y-35516D01*
X61608Y-35453D01*
X61497Y-35431D01*
X59950Y-35431D01*
X59965Y-35397D01*
X59965Y-35222D01*
X59898Y-35061D01*
X59775Y-34937D01*
X59614Y-34870D01*
X59440Y-34870D01*
X59440Y-34722D01*
X59439Y-34660D01*
X59401Y-34568D01*
X59331Y-34498D01*
X59240Y-34460D01*
X59141Y-34460D01*
X59077Y-34459D01*
X59015Y-34521D01*
X59015Y-34784D01*
X59378Y-34784D01*
X59440Y-34722D01*
X59440Y-34870D01*
X59439Y-34870D01*
X59386Y-34892D01*
X59378Y-34884D01*
X59065Y-34884D01*
X59015Y-34884D01*
X58915Y-34884D01*
X58915Y-34784D01*
X58915Y-34734D01*
X58915Y-34521D01*
X58853Y-34459D01*
X58789Y-34460D01*
X58690Y-34460D01*
X58599Y-34498D01*
X58529Y-34568D01*
X58491Y-34660D01*
X58490Y-34722D01*
X58502Y-34734D01*
X58490Y-34734D01*
X58490Y-34781D01*
X58484Y-34779D01*
X58385Y-34779D01*
X58321Y-34778D01*
X58259Y-34840D01*
X58259Y-35053D01*
X58259Y-35103D01*
X58259Y-35203D01*
X58159Y-35203D01*
X58159Y-35103D01*
X58159Y-35053D01*
X58159Y-34840D01*
X58105Y-34786D01*
X58105Y-34654D01*
X58077Y-34513D01*
X57997Y-34394D01*
X57477Y-33874D01*
X57358Y-33794D01*
X57217Y-33766D01*
X52217Y-33766D01*
X52076Y-33794D01*
X52004Y-33842D01*
X51977Y-33860D01*
X49674Y-33860D01*
X49533Y-33888D01*
X49413Y-33968D01*
X48575Y-34806D01*
X48576Y-34481D01*
X48389Y-34027D01*
X48042Y-33680D01*
X65654Y-33680D01*
X65654Y-33680D01*
G37*
G54D45*
X65654Y-33680D02*
X65640Y-33686D01*
X65293Y-34033D01*
X65105Y-34486D01*
X65104Y-34830D01*
X65099Y-34823D01*
X64874Y-34598D01*
X64874Y-34517D01*
X64874Y-34203D01*
X64836Y-34111D01*
X64766Y-34041D01*
X64675Y-34003D01*
X64576Y-34003D01*
X64262Y-34003D01*
X64173Y-34039D01*
X64085Y-34003D01*
X63986Y-34003D01*
X63883Y-34003D01*
X63878Y-34002D01*
X63872Y-34003D01*
X63672Y-34003D01*
X63580Y-34041D01*
X63510Y-34111D01*
X63472Y-34202D01*
X63472Y-34301D01*
X63472Y-34403D01*
X63471Y-34409D01*
X63472Y-34414D01*
X63472Y-34615D01*
X63490Y-34658D01*
X63490Y-34939D01*
X63490Y-34989D01*
X63490Y-35089D01*
X63490Y-35139D01*
X63490Y-35452D01*
X63552Y-35514D01*
X63614Y-35513D01*
X63706Y-35475D01*
X63740Y-35441D01*
X63774Y-35475D01*
X63865Y-35513D01*
X63964Y-35513D01*
X63980Y-35513D01*
X63902Y-35592D01*
X63867Y-35643D01*
X63845Y-35643D01*
X63573Y-35642D01*
X63511Y-35704D01*
X63511Y-35910D01*
X63511Y-35947D01*
X63411Y-35947D01*
X63411Y-35910D01*
X63411Y-35704D01*
X63349Y-35642D01*
X63077Y-35643D01*
X62978Y-35643D01*
X62950Y-35654D01*
X63048Y-35558D01*
X63109Y-35410D01*
X63174Y-35475D01*
X63266Y-35513D01*
X63328Y-35514D01*
X63390Y-35452D01*
X63390Y-35089D01*
X63390Y-34989D01*
X63390Y-34626D01*
X63328Y-34564D01*
X63266Y-34565D01*
X63174Y-34603D01*
X63104Y-34673D01*
X63066Y-34764D01*
X63066Y-34863D01*
X63065Y-34927D01*
X63127Y-34989D01*
X63390Y-34989D01*
X63390Y-35089D01*
X63127Y-35089D01*
X63079Y-35136D01*
X63048Y-35061D01*
X62925Y-34937D01*
X62764Y-34870D01*
X62589Y-34870D01*
X62428Y-34937D01*
X62304Y-35060D01*
X62237Y-35221D01*
X62237Y-35396D01*
X62304Y-35557D01*
X62427Y-35681D01*
X62588Y-35748D01*
X62763Y-35748D01*
X62860Y-35707D01*
X62817Y-35751D01*
X62779Y-35843D01*
X62778Y-35898D01*
X62790Y-35910D01*
X62778Y-35910D01*
X62778Y-35947D01*
X62132Y-35947D01*
X61701Y-35516D01*
X61608Y-35453D01*
X61497Y-35431D01*
X59950Y-35431D01*
X59965Y-35397D01*
X59965Y-35222D01*
X59898Y-35061D01*
X59775Y-34937D01*
X59614Y-34870D01*
X59440Y-34870D01*
X59440Y-34722D01*
X59439Y-34660D01*
X59401Y-34568D01*
X59331Y-34498D01*
X59240Y-34460D01*
X59141Y-34460D01*
X59077Y-34459D01*
X59015Y-34521D01*
X59015Y-34784D01*
X59378Y-34784D01*
X59440Y-34722D01*
X59440Y-34870D01*
X59439Y-34870D01*
X59386Y-34892D01*
X59378Y-34884D01*
X59065Y-34884D01*
X59015Y-34884D01*
X58915Y-34884D01*
X58915Y-34784D01*
X58915Y-34734D01*
X58915Y-34521D01*
X58853Y-34459D01*
X58789Y-34460D01*
X58690Y-34460D01*
X58599Y-34498D01*
X58529Y-34568D01*
X58491Y-34660D01*
X58490Y-34722D01*
X58502Y-34734D01*
X58490Y-34734D01*
X58490Y-34781D01*
X58484Y-34779D01*
X58385Y-34779D01*
X58321Y-34778D01*
X58259Y-34840D01*
X58259Y-35053D01*
X58259Y-35103D01*
X58259Y-35203D01*
X58159Y-35203D01*
X58159Y-35103D01*
X58159Y-35053D01*
X58159Y-34840D01*
X58105Y-34786D01*
X58105Y-34654D01*
X58077Y-34513D01*
X57997Y-34394D01*
X57477Y-33874D01*
X57358Y-33794D01*
X57217Y-33766D01*
X52217Y-33766D01*
X52076Y-33794D01*
X52004Y-33842D01*
X51977Y-33860D01*
X49674Y-33860D01*
X49533Y-33888D01*
X49413Y-33968D01*
X48575Y-34806D01*
X48576Y-34481D01*
X48389Y-34027D01*
X48042Y-33680D01*
X65654Y-33680D01*
G54D10*
G36*
X67114Y-48598D02*
X66980Y-48464D01*
X66959Y-48455D01*
X66959Y-48150D01*
X66651Y-47843D01*
X66343Y-48150D01*
X66370Y-48244D01*
X66572Y-48315D01*
X66785Y-48304D01*
X66932Y-48244D01*
X66959Y-48150D01*
X66959Y-48455D01*
X66778Y-48380D01*
X66560Y-48380D01*
X66358Y-48464D01*
X66218Y-48604D01*
X66218Y-48580D01*
X66180Y-48488D01*
X66110Y-48418D01*
X66019Y-48380D01*
X65920Y-48380D01*
X65563Y-48380D01*
X65622Y-48321D01*
X65760Y-48321D01*
X65962Y-48237D01*
X66116Y-48083D01*
X66153Y-47991D01*
X66179Y-48053D01*
X66273Y-48080D01*
X66580Y-47772D01*
X66273Y-47464D01*
X66179Y-47491D01*
X66155Y-47556D01*
X66116Y-47461D01*
X65962Y-47307D01*
X65870Y-47269D01*
X65932Y-47244D01*
X65959Y-47150D01*
X65651Y-46843D01*
X65343Y-47150D01*
X65370Y-47244D01*
X65435Y-47267D01*
X65340Y-47307D01*
X65186Y-47461D01*
X65102Y-47663D01*
X65102Y-47800D01*
X65073Y-47829D01*
X65073Y-47469D01*
X65035Y-47377D01*
X64965Y-47307D01*
X64874Y-47269D01*
X64849Y-47269D01*
X64989Y-47129D01*
X65073Y-46927D01*
X65073Y-46709D01*
X65006Y-46549D01*
X65035Y-46569D01*
X65142Y-46590D01*
X65144Y-46590D01*
X65108Y-46693D01*
X65119Y-46906D01*
X65179Y-47053D01*
X65273Y-47080D01*
X65545Y-46807D01*
X65580Y-46772D01*
X65651Y-46701D01*
X65722Y-46772D01*
X65757Y-46807D01*
X66029Y-47080D01*
X66123Y-47053D01*
X66146Y-46987D01*
X66186Y-47083D01*
X66340Y-47237D01*
X66431Y-47274D01*
X66370Y-47300D01*
X66343Y-47394D01*
X66651Y-47701D01*
X66959Y-47394D01*
X66932Y-47300D01*
X66866Y-47276D01*
X66962Y-47237D01*
X67114Y-47085D01*
X67114Y-47488D01*
X67029Y-47464D01*
X66722Y-47772D01*
X67029Y-48080D01*
X67114Y-48055D01*
X67114Y-48598D01*
X67114Y-48598D01*
G37*
G54D45*
X67114Y-48598D02*
X66980Y-48464D01*
X66959Y-48455D01*
X66959Y-48150D01*
X66651Y-47843D01*
X66343Y-48150D01*
X66370Y-48244D01*
X66572Y-48315D01*
X66785Y-48304D01*
X66932Y-48244D01*
X66959Y-48150D01*
X66959Y-48455D01*
X66778Y-48380D01*
X66560Y-48380D01*
X66358Y-48464D01*
X66218Y-48604D01*
X66218Y-48580D01*
X66180Y-48488D01*
X66110Y-48418D01*
X66019Y-48380D01*
X65920Y-48380D01*
X65563Y-48380D01*
X65622Y-48321D01*
X65760Y-48321D01*
X65962Y-48237D01*
X66116Y-48083D01*
X66153Y-47991D01*
X66179Y-48053D01*
X66273Y-48080D01*
X66580Y-47772D01*
X66273Y-47464D01*
X66179Y-47491D01*
X66155Y-47556D01*
X66116Y-47461D01*
X65962Y-47307D01*
X65870Y-47269D01*
X65932Y-47244D01*
X65959Y-47150D01*
X65651Y-46843D01*
X65343Y-47150D01*
X65370Y-47244D01*
X65435Y-47267D01*
X65340Y-47307D01*
X65186Y-47461D01*
X65102Y-47663D01*
X65102Y-47800D01*
X65073Y-47829D01*
X65073Y-47469D01*
X65035Y-47377D01*
X64965Y-47307D01*
X64874Y-47269D01*
X64849Y-47269D01*
X64989Y-47129D01*
X65073Y-46927D01*
X65073Y-46709D01*
X65006Y-46549D01*
X65035Y-46569D01*
X65142Y-46590D01*
X65144Y-46590D01*
X65108Y-46693D01*
X65119Y-46906D01*
X65179Y-47053D01*
X65273Y-47080D01*
X65545Y-46807D01*
X65580Y-46772D01*
X65651Y-46701D01*
X65722Y-46772D01*
X65757Y-46807D01*
X66029Y-47080D01*
X66123Y-47053D01*
X66146Y-46987D01*
X66186Y-47083D01*
X66340Y-47237D01*
X66431Y-47274D01*
X66370Y-47300D01*
X66343Y-47394D01*
X66651Y-47701D01*
X66959Y-47394D01*
X66932Y-47300D01*
X66866Y-47276D01*
X66962Y-47237D01*
X67114Y-47085D01*
X67114Y-47488D01*
X67029Y-47464D01*
X66722Y-47772D01*
X67029Y-48080D01*
X67114Y-48055D01*
X67114Y-48598D01*
G54D10*
G36*
X67114Y-52673D02*
X67062Y-52621D01*
X66690Y-52466D01*
X66803Y-52461D01*
X66950Y-52401D01*
X66977Y-52307D01*
X66669Y-52000D01*
X66361Y-52307D01*
X66388Y-52401D01*
X66478Y-52432D01*
X66118Y-52432D01*
X65664Y-52619D01*
X65317Y-52966D01*
X65129Y-53419D01*
X65128Y-53910D01*
X65315Y-54364D01*
X65531Y-54580D01*
X61864Y-54580D01*
X61961Y-54540D01*
X62153Y-54348D01*
X62258Y-54098D01*
X62258Y-53826D01*
X62154Y-53575D01*
X61982Y-53403D01*
X61982Y-51764D01*
X62153Y-51593D01*
X62258Y-51343D01*
X62258Y-51071D01*
X62175Y-50873D01*
X64635Y-50873D01*
X64888Y-51126D01*
X64889Y-51126D01*
X64979Y-51187D01*
X65085Y-51207D01*
X65086Y-51208D01*
X65190Y-51208D01*
X65204Y-51240D01*
X65358Y-51394D01*
X65442Y-51429D01*
X65358Y-51464D01*
X65204Y-51618D01*
X65120Y-51820D01*
X65120Y-52038D01*
X65204Y-52240D01*
X65358Y-52394D01*
X65560Y-52478D01*
X65778Y-52478D01*
X65980Y-52394D01*
X66134Y-52240D01*
X66171Y-52148D01*
X66197Y-52210D01*
X66291Y-52237D01*
X66598Y-51929D01*
X66291Y-51621D01*
X66197Y-51648D01*
X66173Y-51713D01*
X66134Y-51618D01*
X65980Y-51464D01*
X65895Y-51429D01*
X65980Y-51394D01*
X66134Y-51240D01*
X66169Y-51155D01*
X66204Y-51240D01*
X66358Y-51394D01*
X66449Y-51431D01*
X66388Y-51457D01*
X66361Y-51551D01*
X66669Y-51858D01*
X66977Y-51551D01*
X66950Y-51457D01*
X66884Y-51433D01*
X66980Y-51394D01*
X67114Y-51260D01*
X67114Y-51640D01*
X67047Y-51621D01*
X66740Y-51929D01*
X67047Y-52237D01*
X67114Y-52217D01*
X67114Y-52673D01*
X67114Y-52673D01*
G37*
G54D45*
X67114Y-52673D02*
X67062Y-52621D01*
X66690Y-52466D01*
X66803Y-52461D01*
X66950Y-52401D01*
X66977Y-52307D01*
X66669Y-52000D01*
X66361Y-52307D01*
X66388Y-52401D01*
X66478Y-52432D01*
X66118Y-52432D01*
X65664Y-52619D01*
X65317Y-52966D01*
X65129Y-53419D01*
X65128Y-53910D01*
X65315Y-54364D01*
X65531Y-54580D01*
X61864Y-54580D01*
X61961Y-54540D01*
X62153Y-54348D01*
X62258Y-54098D01*
X62258Y-53826D01*
X62154Y-53575D01*
X61982Y-53403D01*
X61982Y-51764D01*
X62153Y-51593D01*
X62258Y-51343D01*
X62258Y-51071D01*
X62175Y-50873D01*
X64635Y-50873D01*
X64888Y-51126D01*
X64889Y-51126D01*
X64979Y-51187D01*
X65085Y-51207D01*
X65086Y-51208D01*
X65190Y-51208D01*
X65204Y-51240D01*
X65358Y-51394D01*
X65442Y-51429D01*
X65358Y-51464D01*
X65204Y-51618D01*
X65120Y-51820D01*
X65120Y-52038D01*
X65204Y-52240D01*
X65358Y-52394D01*
X65560Y-52478D01*
X65778Y-52478D01*
X65980Y-52394D01*
X66134Y-52240D01*
X66171Y-52148D01*
X66197Y-52210D01*
X66291Y-52237D01*
X66598Y-51929D01*
X66291Y-51621D01*
X66197Y-51648D01*
X66173Y-51713D01*
X66134Y-51618D01*
X65980Y-51464D01*
X65895Y-51429D01*
X65980Y-51394D01*
X66134Y-51240D01*
X66169Y-51155D01*
X66204Y-51240D01*
X66358Y-51394D01*
X66449Y-51431D01*
X66388Y-51457D01*
X66361Y-51551D01*
X66669Y-51858D01*
X66977Y-51551D01*
X66950Y-51457D01*
X66884Y-51433D01*
X66980Y-51394D01*
X67114Y-51260D01*
X67114Y-51640D01*
X67047Y-51621D01*
X66740Y-51929D01*
X67047Y-52237D01*
X67114Y-52217D01*
X67114Y-52673D01*
M02*
