G04 (created by PCBNEW-RS274X (2011-05-31)-stable) date Mon 19 Sep 2011 01:54:13 PM COT*
G01*
G70*
G90*
%MOIN*%
G04 Gerber Fmt 3.4, Leading zero omitted, Abs format*
%FSLAX34Y34*%
G04 APERTURE LIST*
%ADD10C,0.006000*%
%ADD11R,0.035700X0.059300*%
%ADD12R,0.055000X0.028000*%
%ADD13R,0.028000X0.055000*%
%ADD14R,0.045000X0.065000*%
%ADD15R,0.065000X0.045000*%
%ADD16R,0.080000X0.080000*%
%ADD17C,0.080000*%
%ADD18C,0.086000*%
%ADD19C,0.096000*%
%ADD20R,0.100000X0.080000*%
%ADD21R,0.055000X0.075000*%
%ADD22R,0.070000X0.036000*%
%ADD23R,0.039600X0.043600*%
%ADD24R,0.035700X0.051400*%
%ADD25C,0.209000*%
%ADD26R,0.209000X0.209000*%
%ADD27R,0.033800X0.055400*%
%ADD28R,0.075100X0.067200*%
%ADD29C,0.216900*%
%ADD30R,0.051400X0.051400*%
%ADD31R,0.106600X0.043600*%
G04 APERTURE END LIST*
G54D10*
G54D11*
X62966Y-46557D03*
X62716Y-46557D03*
X62466Y-46557D03*
X62216Y-46557D03*
X61966Y-46557D03*
X61716Y-46557D03*
X61466Y-46557D03*
X61216Y-46557D03*
X61216Y-48721D03*
X61466Y-48721D03*
X61716Y-48721D03*
X61966Y-48721D03*
X62216Y-48721D03*
X62466Y-48721D03*
X62716Y-48721D03*
X62966Y-48721D03*
G54D12*
X57919Y-43054D03*
G54D13*
X57228Y-37495D03*
G54D12*
X51669Y-38186D03*
G54D13*
X52360Y-43745D03*
G54D12*
X57919Y-42897D03*
G54D13*
X57071Y-37495D03*
G54D12*
X51669Y-38343D03*
G54D13*
X52517Y-43745D03*
G54D12*
X57919Y-42740D03*
G54D13*
X56914Y-37495D03*
G54D12*
X51669Y-38500D03*
G54D13*
X52674Y-43745D03*
G54D12*
X57919Y-42583D03*
G54D13*
X56757Y-37495D03*
G54D12*
X51669Y-38657D03*
G54D13*
X52831Y-43745D03*
G54D12*
X57919Y-42426D03*
G54D13*
X56600Y-37495D03*
G54D12*
X51669Y-38814D03*
G54D13*
X52988Y-43745D03*
G54D12*
X57919Y-42269D03*
G54D13*
X56443Y-37495D03*
G54D12*
X51669Y-38971D03*
G54D13*
X53145Y-43745D03*
G54D12*
X57919Y-42112D03*
G54D13*
X56286Y-37495D03*
G54D12*
X51669Y-39128D03*
G54D13*
X53302Y-43745D03*
G54D12*
X57919Y-41955D03*
G54D13*
X56129Y-37495D03*
G54D12*
X51669Y-39285D03*
G54D13*
X53459Y-43745D03*
G54D12*
X57919Y-41798D03*
G54D13*
X55972Y-37495D03*
G54D12*
X51669Y-39442D03*
G54D13*
X53616Y-43745D03*
G54D12*
X57919Y-41641D03*
G54D13*
X55815Y-37495D03*
G54D12*
X51669Y-39599D03*
G54D13*
X53773Y-43745D03*
G54D12*
X57919Y-41484D03*
G54D13*
X55658Y-37495D03*
G54D12*
X51669Y-39756D03*
G54D13*
X53930Y-43745D03*
G54D12*
X57919Y-41327D03*
G54D13*
X55501Y-37495D03*
G54D12*
X51669Y-39913D03*
G54D13*
X54087Y-43745D03*
G54D12*
X57919Y-41170D03*
G54D13*
X55344Y-37495D03*
G54D12*
X51669Y-40070D03*
G54D13*
X54244Y-43745D03*
G54D12*
X57919Y-41013D03*
G54D13*
X55187Y-37495D03*
G54D12*
X51669Y-40227D03*
G54D13*
X54401Y-43745D03*
G54D12*
X57919Y-40856D03*
G54D13*
X55030Y-37495D03*
G54D12*
X51669Y-40384D03*
G54D13*
X54558Y-43745D03*
G54D12*
X57919Y-40699D03*
G54D13*
X54873Y-37495D03*
G54D12*
X51669Y-40541D03*
G54D13*
X54715Y-43745D03*
G54D12*
X57919Y-40542D03*
G54D13*
X54716Y-37495D03*
G54D12*
X51669Y-40698D03*
G54D13*
X54872Y-43745D03*
G54D12*
X57919Y-40385D03*
G54D13*
X54559Y-37495D03*
G54D12*
X51669Y-40855D03*
G54D13*
X55029Y-43745D03*
G54D12*
X57919Y-40228D03*
G54D13*
X54402Y-37495D03*
G54D12*
X51669Y-41012D03*
G54D13*
X55186Y-43745D03*
G54D12*
X57919Y-40071D03*
G54D13*
X54245Y-37495D03*
G54D12*
X51669Y-41169D03*
G54D13*
X55343Y-43745D03*
G54D12*
X57919Y-39914D03*
G54D13*
X54088Y-37495D03*
G54D12*
X51669Y-41326D03*
G54D13*
X55500Y-43745D03*
G54D12*
X57919Y-39757D03*
G54D13*
X53931Y-37495D03*
G54D12*
X51669Y-41483D03*
G54D13*
X55657Y-43745D03*
G54D12*
X57919Y-39600D03*
G54D13*
X53774Y-37495D03*
G54D12*
X51669Y-41640D03*
G54D13*
X55814Y-43745D03*
G54D12*
X57919Y-39443D03*
G54D13*
X53617Y-37495D03*
G54D12*
X51669Y-41797D03*
G54D13*
X55971Y-43745D03*
G54D12*
X57919Y-39286D03*
G54D13*
X53460Y-37495D03*
G54D12*
X51669Y-41954D03*
G54D13*
X56128Y-43745D03*
G54D12*
X57919Y-39129D03*
G54D13*
X53303Y-37495D03*
G54D12*
X51669Y-42111D03*
G54D13*
X56285Y-43745D03*
G54D12*
X57919Y-38972D03*
G54D13*
X53146Y-37495D03*
G54D12*
X51669Y-42268D03*
G54D13*
X56442Y-43745D03*
G54D12*
X57919Y-38815D03*
G54D13*
X52989Y-37495D03*
G54D12*
X51669Y-42425D03*
G54D13*
X56599Y-43745D03*
G54D12*
X57919Y-38658D03*
G54D13*
X52832Y-37495D03*
G54D12*
X51669Y-42582D03*
G54D13*
X56756Y-43745D03*
G54D12*
X57919Y-38501D03*
G54D13*
X52675Y-37495D03*
G54D12*
X51669Y-42739D03*
G54D13*
X56913Y-43745D03*
G54D12*
X57919Y-38344D03*
G54D13*
X52518Y-37495D03*
G54D12*
X51669Y-42896D03*
G54D13*
X57070Y-43745D03*
G54D12*
X57919Y-38187D03*
G54D13*
X52361Y-37495D03*
G54D12*
X51669Y-43053D03*
G54D13*
X57227Y-43745D03*
G54D14*
X62515Y-45898D03*
X63115Y-45898D03*
X61836Y-45934D03*
X61236Y-45934D03*
X63143Y-49367D03*
X62543Y-49367D03*
X61678Y-49358D03*
X61078Y-49358D03*
X52692Y-36752D03*
X53292Y-36752D03*
G54D15*
X64508Y-35487D03*
X64508Y-36087D03*
G54D14*
X48913Y-44075D03*
X49513Y-44075D03*
X64040Y-35039D03*
X63440Y-35039D03*
G54D15*
X58209Y-37170D03*
X58209Y-36570D03*
G54D14*
X49631Y-48976D03*
X49031Y-48976D03*
X60269Y-43622D03*
X59669Y-43622D03*
G54D16*
X65651Y-36772D03*
G54D17*
X66651Y-36772D03*
X65651Y-37772D03*
X66651Y-37772D03*
X65651Y-38772D03*
X66651Y-38772D03*
X65651Y-39772D03*
X66651Y-39772D03*
X65651Y-40772D03*
X66651Y-40772D03*
X65651Y-41772D03*
X66651Y-41772D03*
X65651Y-42772D03*
X66651Y-42772D03*
X65651Y-43772D03*
X66651Y-43772D03*
X65651Y-44772D03*
X66651Y-44772D03*
X65651Y-45772D03*
X66651Y-45772D03*
X65651Y-46772D03*
X66651Y-46772D03*
X65651Y-47772D03*
X66651Y-47772D03*
G54D18*
X52319Y-53890D03*
X54089Y-53890D03*
G54D19*
X51819Y-52910D03*
X54579Y-52910D03*
G54D20*
X50000Y-46082D03*
X50000Y-47382D03*
G54D21*
X51938Y-43752D03*
X51188Y-43752D03*
G54D15*
X52185Y-35595D03*
X52185Y-34995D03*
X51476Y-35812D03*
X51476Y-35212D03*
G54D14*
X53981Y-34567D03*
X53381Y-34567D03*
X53981Y-35217D03*
X53381Y-35217D03*
X54562Y-35217D03*
X55162Y-35217D03*
X56334Y-34843D03*
X56934Y-34843D03*
G54D15*
X58209Y-35153D03*
X58209Y-35753D03*
X57087Y-36698D03*
X57087Y-36098D03*
G54D14*
X55576Y-36634D03*
X54976Y-36634D03*
G54D15*
X58965Y-35434D03*
X58965Y-34834D03*
X62025Y-44361D03*
X62025Y-44961D03*
X63705Y-46530D03*
X63705Y-47130D03*
X62025Y-43993D03*
X62025Y-43393D03*
X63957Y-40910D03*
X63957Y-40310D03*
X63704Y-45417D03*
X63704Y-46017D03*
G54D14*
X55410Y-48717D03*
X54810Y-48717D03*
X55410Y-48146D03*
X54810Y-48146D03*
X55410Y-47571D03*
X54810Y-47571D03*
G54D15*
X52409Y-45550D03*
X52409Y-46150D03*
G54D14*
X51363Y-46055D03*
X50763Y-46055D03*
G54D15*
X51835Y-46150D03*
X51835Y-45550D03*
X54165Y-45909D03*
X54165Y-46509D03*
X55740Y-44625D03*
X55740Y-45225D03*
G54D16*
X65669Y-48929D03*
G54D17*
X66669Y-48929D03*
X65669Y-49929D03*
X66669Y-49929D03*
X65669Y-50929D03*
X66669Y-50929D03*
X65669Y-51929D03*
X66669Y-51929D03*
G54D16*
X64524Y-47818D03*
G54D17*
X64524Y-46818D03*
G54D16*
X64523Y-45749D03*
G54D17*
X64523Y-44749D03*
G54D16*
X51354Y-47941D03*
G54D17*
X52354Y-47941D03*
G54D16*
X50469Y-50114D03*
G54D17*
X49469Y-50114D03*
G54D16*
X62851Y-43673D03*
G54D17*
X62851Y-44673D03*
G54D15*
X63704Y-44452D03*
X63704Y-45052D03*
G54D14*
X58476Y-43264D03*
X59076Y-43264D03*
G54D15*
X63709Y-48098D03*
X63709Y-47498D03*
G54D14*
X61265Y-43622D03*
X60665Y-43622D03*
G54D22*
X60022Y-48327D03*
X60022Y-48077D03*
X60022Y-47817D03*
X60022Y-47557D03*
X60022Y-47307D03*
X60022Y-47047D03*
X60022Y-46787D03*
X60022Y-46537D03*
X60022Y-46277D03*
X60022Y-46027D03*
X60022Y-45767D03*
X60022Y-45507D03*
X60022Y-45257D03*
X60022Y-44997D03*
X57222Y-44997D03*
X57222Y-45257D03*
X57222Y-45497D03*
X57222Y-45767D03*
X57222Y-46027D03*
X57222Y-46277D03*
X57222Y-46537D03*
X57222Y-46787D03*
X57222Y-47047D03*
X57222Y-47307D03*
X57222Y-47557D03*
X57222Y-47817D03*
X57222Y-48077D03*
X57222Y-48327D03*
G54D15*
X60693Y-48784D03*
X60693Y-48184D03*
X60697Y-46430D03*
X60697Y-45830D03*
X60697Y-46980D03*
X60697Y-47580D03*
G54D16*
X46756Y-36772D03*
G54D17*
X47756Y-36772D03*
X46756Y-37772D03*
X47756Y-37772D03*
X46756Y-38772D03*
X47756Y-38772D03*
X46756Y-39772D03*
X47756Y-39772D03*
X46756Y-40772D03*
X47756Y-40772D03*
X46756Y-41772D03*
X47756Y-41772D03*
X46756Y-42772D03*
X47756Y-42772D03*
X46756Y-43772D03*
X47756Y-43772D03*
X46756Y-44772D03*
X47756Y-44772D03*
X46756Y-45772D03*
X47756Y-45772D03*
X46756Y-46772D03*
X47756Y-46772D03*
X46756Y-47772D03*
X47756Y-47772D03*
G54D23*
X60603Y-45168D03*
X60995Y-45168D03*
X60799Y-44658D03*
G54D24*
X53605Y-45887D03*
X53350Y-45887D03*
X53095Y-45887D03*
X53095Y-46515D03*
X53350Y-46515D03*
X53605Y-46515D03*
G54D25*
X47874Y-53492D03*
G54D26*
X47874Y-51092D03*
G54D25*
X49874Y-52592D03*
G54D27*
X57413Y-49713D03*
X57413Y-49044D03*
X57748Y-49044D03*
X57748Y-49713D03*
X59472Y-49713D03*
X59472Y-49044D03*
X59807Y-49044D03*
X59807Y-49713D03*
X58764Y-49720D03*
X58764Y-49051D03*
X59099Y-49051D03*
X59099Y-49720D03*
X58083Y-49713D03*
X58083Y-49044D03*
X58418Y-49044D03*
X58418Y-49713D03*
G54D28*
X55740Y-45862D03*
X54874Y-45862D03*
X54874Y-46531D03*
X55740Y-46531D03*
G54D29*
X66338Y-34733D03*
X47342Y-34725D03*
G54D16*
X56189Y-47646D03*
G54D17*
X56189Y-48646D03*
G54D16*
X56193Y-49654D03*
G54D17*
X55193Y-49654D03*
G54D29*
X66362Y-53666D03*
G54D30*
X47827Y-48980D03*
X48417Y-48980D03*
X64468Y-34409D03*
X63878Y-34409D03*
X48937Y-43425D03*
X49527Y-43425D03*
G54D31*
X63461Y-37510D03*
X63461Y-37010D03*
X63461Y-36510D03*
X63461Y-36010D03*
X59839Y-36010D03*
X59839Y-36510D03*
X59839Y-37010D03*
X59839Y-37510D03*
M02*
