G04 (created by PCBNEW-RS274X (2011-05-31)-stable) date Mon 19 Sep 2011 01:54:13 PM COT*
G01*
G70*
G90*
%MOIN*%
G04 Gerber Fmt 3.4, Leading zero omitted, Abs format*
%FSLAX34Y34*%
G04 APERTURE LIST*
%ADD10C,0.006000*%
%ADD11C,0.015000*%
G04 APERTURE END LIST*
G54D10*
G54D11*
X67914Y-34630D02*
X67914Y-53630D01*
X66414Y-33130D02*
X65414Y-33130D01*
X67914Y-34630D02*
X67908Y-34500D01*
X67891Y-34370D01*
X67862Y-34242D01*
X67823Y-34117D01*
X67773Y-33997D01*
X67713Y-33881D01*
X67642Y-33770D01*
X67563Y-33666D01*
X67474Y-33570D01*
X67378Y-33481D01*
X67274Y-33402D01*
X67164Y-33331D01*
X67047Y-33271D01*
X66927Y-33221D01*
X66802Y-33182D01*
X66674Y-33153D01*
X66544Y-33136D01*
X66414Y-33130D01*
X46914Y-33130D02*
X65414Y-33130D01*
X45414Y-52630D02*
X45414Y-34630D01*
X50414Y-55130D02*
X62914Y-55130D01*
X63414Y-55130D02*
X62914Y-55130D01*
X63914Y-55130D02*
X63414Y-55130D01*
X66414Y-55130D02*
X63914Y-55130D01*
X66414Y-55130D02*
X66544Y-55124D01*
X66674Y-55107D01*
X66802Y-55078D01*
X66927Y-55039D01*
X67047Y-54989D01*
X67164Y-54929D01*
X67274Y-54858D01*
X67378Y-54779D01*
X67474Y-54690D01*
X67563Y-54594D01*
X67642Y-54490D01*
X67713Y-54379D01*
X67773Y-54263D01*
X67823Y-54143D01*
X67862Y-54018D01*
X67891Y-53890D01*
X67908Y-53760D01*
X67914Y-53630D01*
X46914Y-55130D02*
X50414Y-55130D01*
X45414Y-53630D02*
X45414Y-52630D01*
X45414Y-53630D02*
X45420Y-53760D01*
X45437Y-53890D01*
X45466Y-54018D01*
X45505Y-54143D01*
X45555Y-54263D01*
X45615Y-54379D01*
X45686Y-54490D01*
X45765Y-54594D01*
X45854Y-54690D01*
X45950Y-54779D01*
X46054Y-54858D01*
X46165Y-54929D01*
X46281Y-54989D01*
X46401Y-55039D01*
X46526Y-55078D01*
X46654Y-55107D01*
X46784Y-55124D01*
X46914Y-55130D01*
X46914Y-33130D02*
X46784Y-33136D01*
X46654Y-33153D01*
X46526Y-33182D01*
X46401Y-33221D01*
X46281Y-33271D01*
X46165Y-33331D01*
X46054Y-33402D01*
X45950Y-33481D01*
X45854Y-33570D01*
X45765Y-33666D01*
X45686Y-33770D01*
X45615Y-33881D01*
X45555Y-33997D01*
X45505Y-34117D01*
X45466Y-34242D01*
X45437Y-34370D01*
X45420Y-34500D01*
X45414Y-34630D01*
M02*
