M48
;DRILL file {PCBnew (2011-05-31)-stable} date Fri 07 Oct 2011 02:27:16 PM COT
;FORMAT={3:3/ absolute / metric / keep zeros}
FMAT,2
METRIC,TZ
T1C0.201
T2C0.300
T3C0.399
T4C0.701
T5C0.813
T6C0.899
T7C0.965
T8C1.016
T9C1.300
T10C1.321
T11C2.997
%
G90
G05
M71
T1
X093342Y131290
X093373Y129959
X093523Y127480
X094676Y112436
X094844Y117927
X095771Y097125
X096931Y105118
X099212Y101730
X099322Y104978
X099891Y096990
X100023Y125870
X100493Y117856
X100513Y132159
X100973Y093599
X101684Y111214
X103454Y108428
X103772Y108999
X104280Y093696
X104333Y098948
X104470Y109253
X104978Y108809
X105011Y131481
X105313Y098499
X105341Y101029
X106035Y117886
X106121Y105634
X106495Y112446
X106502Y108174
X107137Y095918
X108021Y106848
X109296Y096363
X110376Y094013
X110411Y097579
X110813Y099558
X111074Y102078
X111143Y100569
X111511Y106848
X111646Y099728
X111841Y125870
X112027Y102141
X112055Y117897
X112090Y102903
X112852Y102967
X113096Y111128
X113678Y103411
X114313Y096426
X115837Y100490
X116091Y099728
X116345Y098712
X116853Y100998
X116853Y101760
X116853Y104491
X116916Y103665
X118110Y105410
X122060Y099347
X123012Y107094
X123441Y110300
X123449Y111951
X123647Y104173
X123711Y102268
X124155Y103221
X124282Y100808
X125860Y099601
X126561Y099670
X126751Y098100
X126944Y100233
X127041Y118440
X127500Y098049
X127599Y097351
X128349Y097300
X128415Y102433
X128450Y096599
X129149Y096449
X129195Y102426
X129939Y102271
X130051Y109350
X130099Y096700
X130241Y095461
X130241Y108189
X130500Y093901
X131133Y093563
X131501Y091150
X132199Y108900
X132250Y090851
X132304Y097135
X132319Y104719
X132354Y097843
X132380Y098679
X132499Y112230
X132700Y107399
X132799Y091399
X132834Y101895
X132900Y088450
X132941Y099990
X133322Y098699
X134173Y112240
X134750Y103381
X134869Y112230
X134950Y088450
X135199Y096980
X135611Y111991
X135651Y096459
X136149Y093350
X136309Y096911
X136380Y110180
X136411Y111991
X136591Y117160
X136731Y103381
X137003Y099339
X137010Y096789
X137470Y110051
X137660Y093091
X137711Y096731
X138039Y096129
X138049Y099644
X138069Y092560
X138331Y112179
X138570Y108110
X138651Y088600
X138725Y094325
X138781Y093261
X139101Y110081
X139189Y099550
X139924Y099525
X140040Y114379
X140320Y096129
X140449Y088400
X140670Y103391
X140701Y099510
X140980Y108181
X141125Y094348
X141331Y119019
X141600Y110109
X141709Y099550
X141879Y112441
X142601Y088450
X143050Y092601
X143231Y097041
X143353Y099124
X143789Y099746
X144249Y103391
X144343Y099096
X144381Y113000
X144549Y096149
X145070Y109350
X145301Y090899
X145349Y094300
X145710Y103391
X145745Y110904
X146202Y111869
X146520Y121481
X146741Y109751
X146820Y116251
X147681Y122989
X148300Y097521
X148351Y102451
X148410Y087269
X148750Y096799
X148862Y098019
X148920Y123010
X149499Y123530
X149601Y092649
X150190Y129954
X150254Y129256
X150310Y122649
X150650Y120739
X150701Y100701
X150779Y118951
X151059Y121719
X151511Y109591
X151671Y123520
X151699Y101249
X152151Y097600
X152639Y113810
X152999Y097650
X153149Y091951
X153700Y124889
X154150Y094699
X154181Y121610
X154272Y125621
X155219Y113551
X155499Y115550
X155699Y109629
X156319Y114859
X156360Y101869
X157350Y099601
X157439Y114940
X157551Y111089
X158049Y097500
X158399Y100000
X159588Y122334
X160609Y119720
X162319Y129827
X163144Y126144
X163335Y127287
X163525Y130780
X163716Y129827
X163779Y126462
X164605Y127224
T2
X105004Y127490
X105052Y130040
X112113Y132380
X133693Y121651
X135621Y122009
X136251Y119911
X147130Y121890
X150670Y116820
X152819Y123960
T3
X131249Y087851
X138661Y090640
X142611Y090599
X145539Y088080
X146769Y114430
X153170Y095580
X155999Y121559
X156858Y119350
X157640Y120670
X160360Y087300
X160622Y114709
X161049Y115540
X161201Y103891
X164313Y137831
T4
X097152Y127699
X097864Y113647
X102865Y102545
X109245Y113477
X109372Y127848
T5
X087630Y092710
X118110Y092710
X120650Y087630
X166370Y092710
T6
X158062Y130371
X158062Y132370
X158062Y134371
X158062Y136370
T7
X151196Y089685
X159197Y089685
T8
X087630Y095250
X087630Y097790
X087630Y100330
X087630Y102870
X087630Y105410
X087630Y107950
X087630Y110490
X087630Y113030
X087630Y115570
X087630Y118110
X087630Y120650
X090170Y092710
X090170Y095250
X090170Y097790
X090170Y100330
X090170Y102870
X090170Y105410
X090170Y107950
X090170Y110490
X090170Y113030
X090170Y115570
X090170Y118110
X090170Y120650
X092710Y087630
X092710Y090170
X095143Y135131
X095143Y137671
X095250Y087630
X095250Y090170
X095504Y119657
X095504Y122197
X097683Y135131
X097683Y137671
X097790Y087630
X097790Y090170
X098044Y119657
X098044Y122197
X100223Y135131
X100223Y137671
X100330Y087630
X100330Y090170
X100584Y119657
X100584Y122197
X102870Y087630
X102870Y090170
X105410Y087630
X105410Y090170
X106723Y135138
X106723Y137678
X106726Y119657
X106726Y122197
X107950Y087630
X107950Y090170
X109263Y135138
X109263Y137678
X109266Y119657
X109266Y122197
X110490Y087630
X110490Y090170
X111803Y135138
X111803Y137678
X111806Y119657
X111806Y122197
X113030Y087630
X113030Y090170
X115570Y087630
X115570Y090170
X118110Y087630
X118110Y090170
X118110Y095250
X118110Y097790
X118110Y100330
X118110Y102870
X118110Y105410
X118110Y107950
X118110Y110490
X118110Y113030
X118110Y115570
X118110Y118110
X118110Y120650
X118110Y123190
X118110Y125730
X120650Y090170
X120650Y092710
X120650Y095250
X120650Y097790
X120650Y100330
X120650Y102870
X120650Y105410
X120650Y107950
X120650Y110490
X120650Y113030
X120650Y115570
X120650Y118110
X120650Y120650
X120650Y123190
X120650Y125730
X140190Y126121
X142730Y126121
X146322Y136771
X150818Y136771
X159642Y110929
X159642Y113469
X163830Y113030
X163830Y115570
X163830Y118110
X163830Y120650
X166370Y095250
X166370Y097790
X166370Y100330
X166370Y102870
X166370Y105410
X166370Y107950
X166370Y110490
X166370Y113030
X166370Y115570
X166370Y118110
X166370Y120650
X166370Y123190
X166370Y125730
X166370Y128270
X166370Y130810
X168910Y092710
X168910Y095250
X168910Y097790
X168910Y100330
X168910Y102870
X168910Y105410
X168910Y107950
X168910Y110490
X168910Y113030
X168910Y115570
X168910Y118110
X168910Y120650
X168910Y123190
X168910Y125730
X168910Y128270
X168910Y130810
T9
X155341Y130101
X155341Y137099
X160782Y130101
X160782Y137099
T10
X145052Y134282
X152062Y134282
T11
X087630Y087630
X087630Y135890
X168910Y087627
X168910Y135890
T8
X134998Y129774G85X136522Y129774
G05
X134998Y135870G85X136522Y135870
G05
X140840Y134346G85X140840Y132822
G05
T0
M30
