G04 (created by PCBNEW-RS274X (2011-05-31)-stable) date Fri 07 Oct 2011 02:27:11 PM COT*
G01*
G70*
G90*
%MOIN*%
G04 Gerber Fmt 3.4, Leading zero omitted, Abs format*
%FSLAX34Y34*%
G04 APERTURE LIST*
%ADD10C,0.006000*%
%ADD11C,0.216900*%
%ADD12R,0.059300X0.043600*%
%ADD13R,0.046000X0.082000*%
%ADD14R,0.082000X0.074000*%
%ADD15R,0.066000X0.106000*%
%ADD16R,0.066000X0.074000*%
%ADD17R,0.075000X0.055000*%
%ADD18R,0.045000X0.065000*%
%ADD19R,0.065000X0.045000*%
%ADD20R,0.080000X0.080000*%
%ADD21C,0.080000*%
%ADD22C,0.086000*%
%ADD23C,0.096000*%
%ADD24R,0.080000X0.100000*%
%ADD25R,0.100000X0.080000*%
%ADD26R,0.055000X0.075000*%
%ADD27R,0.043600X0.039600*%
%ADD28C,0.209000*%
%ADD29R,0.209000X0.209000*%
%ADD30R,0.032600X0.066000*%
%ADD31R,0.067200X0.075100*%
%ADD32R,0.090900X0.067200*%
%ADD33R,0.075100X0.059300*%
G04 APERTURE END LIST*
G54D10*
G54D11*
X66500Y-53500D03*
X34500Y-34500D03*
X34500Y-53500D03*
X66500Y-34499D03*
G54D12*
X53059Y-48839D03*
X53925Y-48839D03*
G54D13*
X62356Y-39449D03*
X61926Y-39449D03*
X61496Y-39449D03*
X61056Y-39449D03*
X60626Y-39449D03*
X60196Y-39449D03*
X59756Y-39449D03*
X59326Y-39449D03*
X58896Y-39449D03*
G54D14*
X64166Y-39249D03*
G54D15*
X64526Y-35469D03*
X58426Y-35469D03*
G54D16*
X58416Y-39249D03*
G54D17*
X54563Y-42192D03*
X54563Y-42942D03*
G54D18*
X64493Y-42244D03*
X63893Y-42244D03*
G54D19*
X62496Y-47706D03*
X62496Y-47106D03*
G54D20*
X65500Y-36500D03*
G54D21*
X66500Y-36500D03*
X65500Y-37500D03*
X66500Y-37500D03*
X65500Y-38500D03*
X66500Y-38500D03*
X65500Y-39500D03*
X66500Y-39500D03*
X65500Y-40500D03*
X66500Y-40500D03*
X65500Y-41500D03*
X66500Y-41500D03*
X65500Y-42500D03*
X66500Y-42500D03*
X65500Y-43500D03*
X66500Y-43500D03*
X65500Y-44500D03*
X66500Y-44500D03*
X65500Y-45500D03*
X66500Y-45500D03*
X65500Y-46500D03*
X66500Y-46500D03*
X65500Y-47500D03*
X66500Y-47500D03*
G54D22*
X57607Y-53847D03*
X59377Y-53847D03*
G54D23*
X57107Y-52867D03*
X59867Y-52867D03*
G54D24*
X51200Y-46921D03*
X52500Y-46921D03*
G54D25*
X55236Y-47385D03*
X55236Y-48685D03*
G54D24*
X50839Y-43835D03*
X49539Y-43835D03*
G54D25*
X49008Y-42867D03*
X49008Y-41567D03*
G54D18*
X53401Y-34567D03*
X54001Y-34567D03*
X52957Y-34390D03*
X52357Y-34390D03*
G54D19*
X49228Y-40369D03*
X49228Y-40969D03*
X56791Y-40452D03*
X56791Y-41052D03*
X57366Y-40452D03*
X57366Y-41052D03*
X53055Y-40448D03*
X53055Y-41048D03*
X53835Y-40448D03*
X53835Y-41048D03*
X55378Y-40452D03*
X55378Y-41052D03*
X55740Y-44625D03*
X55740Y-45225D03*
G54D18*
X50536Y-43067D03*
X49936Y-43067D03*
G54D19*
X50024Y-51480D03*
X50024Y-52080D03*
X50945Y-50480D03*
X50945Y-51080D03*
X51453Y-45642D03*
X51453Y-46242D03*
G54D18*
X51936Y-44961D03*
X52536Y-44961D03*
X51944Y-45556D03*
X52544Y-45556D03*
X51944Y-46143D03*
X52544Y-46143D03*
X53928Y-48272D03*
X54528Y-48272D03*
X53928Y-47697D03*
X54528Y-47697D03*
X58936Y-40657D03*
X59536Y-40657D03*
G54D19*
X52185Y-42446D03*
X52185Y-41846D03*
X53831Y-42831D03*
X53831Y-42231D03*
X53264Y-42831D03*
X53264Y-42231D03*
X50373Y-42419D03*
X50373Y-41819D03*
G54D18*
X51489Y-42055D03*
X50889Y-42055D03*
G54D19*
X49799Y-42419D03*
X49799Y-41819D03*
X52146Y-43302D03*
X52146Y-43902D03*
G54D18*
X52913Y-41756D03*
X53513Y-41756D03*
G54D19*
X56854Y-42745D03*
X56854Y-42145D03*
G54D20*
X65500Y-48500D03*
G54D21*
X66500Y-48500D03*
X65500Y-49500D03*
X66500Y-49500D03*
X65500Y-50500D03*
X66500Y-50500D03*
X65500Y-51500D03*
X66500Y-51500D03*
G54D20*
X64500Y-47500D03*
G54D21*
X64500Y-46500D03*
G54D20*
X64500Y-45500D03*
G54D21*
X64500Y-44500D03*
G54D20*
X47500Y-48500D03*
G54D21*
X46500Y-48500D03*
G54D20*
X47500Y-49500D03*
G54D21*
X46500Y-49500D03*
G54D20*
X62851Y-43673D03*
G54D21*
X62851Y-44673D03*
G54D24*
X58212Y-44091D03*
X59512Y-44091D03*
G54D19*
X59311Y-46586D03*
X59311Y-47186D03*
G54D18*
X58765Y-45717D03*
X58165Y-45717D03*
X57940Y-48929D03*
X58540Y-48929D03*
X60779Y-47287D03*
X61379Y-47287D03*
X59999Y-45307D03*
X60599Y-45307D03*
X60747Y-48469D03*
X61347Y-48469D03*
X59999Y-45878D03*
X60599Y-45878D03*
X57320Y-44969D03*
X56720Y-44969D03*
X58228Y-48031D03*
X58828Y-48031D03*
X58621Y-43264D03*
X59221Y-43264D03*
G54D20*
X46500Y-36500D03*
G54D21*
X47500Y-36500D03*
X46500Y-37500D03*
X47500Y-37500D03*
X46500Y-38500D03*
X47500Y-38500D03*
X46500Y-39500D03*
X47500Y-39500D03*
X46500Y-40500D03*
X47500Y-40500D03*
X46500Y-41500D03*
X47500Y-41500D03*
X46500Y-42500D03*
X47500Y-42500D03*
X46500Y-43500D03*
X47500Y-43500D03*
X46500Y-44500D03*
X47500Y-44500D03*
X46500Y-45500D03*
X47500Y-45500D03*
X46500Y-46500D03*
X47500Y-46500D03*
X46500Y-47500D03*
X47500Y-47500D03*
G54D17*
X61080Y-52463D03*
X61080Y-53213D03*
X56224Y-42946D03*
X56224Y-42196D03*
G54D26*
X58219Y-44988D03*
X58969Y-44988D03*
G54D17*
X55472Y-42946D03*
X55472Y-42196D03*
G54D25*
X64631Y-53733D03*
X64631Y-52433D03*
G54D27*
X64590Y-49166D03*
X64590Y-49558D03*
X64080Y-49362D03*
X63112Y-52748D03*
X63112Y-52356D03*
X63622Y-52552D03*
X64594Y-51178D03*
X64594Y-51570D03*
X64084Y-51374D03*
X64594Y-50158D03*
X64594Y-50550D03*
X64084Y-50354D03*
G54D28*
X53449Y-53492D03*
G54D29*
X53449Y-51092D03*
G54D28*
X55449Y-52592D03*
G54D30*
X57416Y-39800D03*
X57416Y-35220D03*
X57160Y-39800D03*
X57160Y-35220D03*
X56904Y-39800D03*
X56904Y-35220D03*
X56648Y-39800D03*
X56648Y-35220D03*
X56392Y-39800D03*
X56392Y-35220D03*
X56136Y-39800D03*
X56136Y-35220D03*
X55880Y-39800D03*
X55880Y-35220D03*
X55624Y-39800D03*
X55624Y-35220D03*
X55368Y-39800D03*
X55368Y-35220D03*
X55112Y-39800D03*
X55112Y-35220D03*
X54856Y-39800D03*
X54856Y-35220D03*
X54600Y-39800D03*
X54600Y-35220D03*
X54344Y-39800D03*
X54344Y-35220D03*
X54088Y-39800D03*
X54088Y-35220D03*
X53832Y-39800D03*
X53832Y-35220D03*
X53576Y-39800D03*
X53576Y-35220D03*
X53320Y-39800D03*
X53320Y-35220D03*
X53064Y-39800D03*
X53064Y-35220D03*
X52808Y-39800D03*
X52808Y-35220D03*
X52552Y-39800D03*
X52552Y-35220D03*
X52296Y-39800D03*
X52296Y-35220D03*
X52040Y-39800D03*
X52040Y-35220D03*
X51784Y-39800D03*
X51784Y-35220D03*
X51528Y-39800D03*
X51528Y-35220D03*
X51272Y-39800D03*
X51272Y-35220D03*
X51016Y-39800D03*
X51016Y-35220D03*
X50760Y-39800D03*
X50760Y-35220D03*
X50504Y-39800D03*
X50504Y-35220D03*
X50248Y-39800D03*
X50248Y-35220D03*
X49992Y-39800D03*
X49992Y-35220D03*
X49736Y-39800D03*
X49736Y-35220D03*
X49480Y-39800D03*
X49480Y-35220D03*
X49224Y-39800D03*
X49224Y-35220D03*
G54D31*
X57898Y-47299D03*
X57898Y-46433D03*
X58567Y-46433D03*
X58567Y-47299D03*
G54D17*
X50938Y-51779D03*
X50938Y-52529D03*
G54D26*
X51064Y-41240D03*
X50314Y-41240D03*
G54D20*
X56193Y-49654D03*
G54D21*
X55193Y-49654D03*
G54D26*
X50710Y-34260D03*
X49960Y-34260D03*
X34230Y-51713D03*
X34980Y-51713D03*
X55743Y-34181D03*
X56493Y-34181D03*
X38673Y-37070D03*
X39423Y-37070D03*
G54D17*
X39705Y-38914D03*
X39705Y-38164D03*
G54D26*
X38895Y-38011D03*
X38145Y-38011D03*
G54D18*
X40919Y-38216D03*
X40319Y-38216D03*
X41457Y-38216D03*
X42057Y-38216D03*
X38891Y-38665D03*
X38291Y-38665D03*
X42996Y-42066D03*
X43596Y-42066D03*
X37423Y-38610D03*
X36823Y-38610D03*
X37458Y-41173D03*
X36858Y-41173D03*
G54D19*
X39095Y-41012D03*
X39095Y-40412D03*
X38493Y-40412D03*
X38493Y-41012D03*
G54D25*
X49032Y-51232D03*
X49032Y-52532D03*
G54D20*
X34500Y-36500D03*
G54D21*
X35500Y-36500D03*
X34500Y-37500D03*
X35500Y-37500D03*
X34500Y-38500D03*
X35500Y-38500D03*
X34500Y-39500D03*
X35500Y-39500D03*
X34500Y-40500D03*
X35500Y-40500D03*
X34500Y-41500D03*
X35500Y-41500D03*
X34500Y-42500D03*
X35500Y-42500D03*
X34500Y-43500D03*
X35500Y-43500D03*
X34500Y-44500D03*
X35500Y-44500D03*
X34500Y-45500D03*
X35500Y-45500D03*
X34500Y-46500D03*
X35500Y-46500D03*
X34500Y-47500D03*
X35500Y-47500D03*
G54D20*
X47500Y-34500D03*
G54D21*
X47500Y-35500D03*
X46500Y-34500D03*
X46500Y-35500D03*
X45500Y-34500D03*
X45500Y-35500D03*
X44500Y-34500D03*
X44500Y-35500D03*
X43500Y-34500D03*
X43500Y-35500D03*
X42500Y-34500D03*
X42500Y-35500D03*
X41500Y-34500D03*
X41500Y-35500D03*
X40500Y-34500D03*
X40500Y-35500D03*
X39500Y-34500D03*
X39500Y-35500D03*
X38500Y-34500D03*
X38500Y-35500D03*
X37500Y-34500D03*
X37500Y-35500D03*
X36500Y-34500D03*
X36500Y-35500D03*
G54D32*
X42064Y-39755D03*
X40489Y-39755D03*
X40489Y-38968D03*
X42064Y-38968D03*
G54D19*
X42615Y-37170D03*
X42615Y-36570D03*
X36458Y-50709D03*
X36458Y-50109D03*
X36462Y-51090D03*
X36462Y-51690D03*
G54D33*
X38257Y-50830D03*
X38257Y-51578D03*
X37391Y-51204D03*
X38804Y-49299D03*
X38804Y-50047D03*
X37938Y-49673D03*
G54D19*
X40938Y-51192D03*
X40938Y-51792D03*
X40938Y-50804D03*
X40938Y-50204D03*
G54D33*
X43509Y-49319D03*
X43509Y-50067D03*
X42643Y-49693D03*
X43001Y-50866D03*
X43001Y-51614D03*
X42135Y-51240D03*
X38481Y-45219D03*
X38481Y-45967D03*
X37615Y-45593D03*
X39576Y-43702D03*
X39576Y-44450D03*
X38710Y-44076D03*
G54D20*
X37600Y-48109D03*
G54D21*
X37600Y-47109D03*
X38600Y-48109D03*
X38600Y-47109D03*
X39600Y-48109D03*
X39600Y-47109D03*
G54D20*
X42017Y-54204D03*
G54D21*
X42017Y-53204D03*
X43017Y-54204D03*
X43017Y-53204D03*
X44017Y-54204D03*
X44017Y-53204D03*
G54D20*
X37458Y-54201D03*
G54D21*
X37458Y-53201D03*
X38458Y-54201D03*
X38458Y-53201D03*
X39458Y-54201D03*
X39458Y-53201D03*
G54D20*
X42018Y-48109D03*
G54D21*
X42018Y-47109D03*
X43018Y-48109D03*
X43018Y-47109D03*
X44018Y-48109D03*
X44018Y-47109D03*
G54D33*
X43959Y-43637D03*
X43959Y-44385D03*
X43093Y-44011D03*
X42912Y-45188D03*
X42912Y-45936D03*
X42046Y-45562D03*
M02*
