G04 (created by PCBNEW-RS274X (2011-05-31)-stable) date Fri 07 Oct 2011 02:27:11 PM COT*
G01*
G70*
G90*
%MOIN*%
G04 Gerber Fmt 3.4, Leading zero omitted, Abs format*
%FSLAX34Y34*%
G04 APERTURE LIST*
%ADD10C,0.006000*%
%ADD11C,0.015000*%
G04 APERTURE END LIST*
G54D10*
G54D11*
X32955Y-53471D02*
X32955Y-53932D01*
X32959Y-53475D02*
X32955Y-53471D01*
X32972Y-53966D02*
X32981Y-54085D01*
X33000Y-54202D01*
X33030Y-54317D01*
X33069Y-54429D01*
X33118Y-54538D01*
X33176Y-54641D01*
X33243Y-54739D01*
X33318Y-54831D01*
X33401Y-54916D01*
X33491Y-54994D01*
X33588Y-55063D01*
X33690Y-55124D01*
X33797Y-55175D01*
X33908Y-55217D01*
X34022Y-55250D01*
X34139Y-55272D01*
X34257Y-55283D01*
X34375Y-55285D01*
X67955Y-53463D02*
X67955Y-34463D01*
X34455Y-55310D02*
X66455Y-55310D01*
X32955Y-34463D02*
X32955Y-53463D01*
X66455Y-32963D02*
X34455Y-32963D01*
X67955Y-34463D02*
X67949Y-34333D01*
X67932Y-34203D01*
X67903Y-34075D01*
X67864Y-33950D01*
X67814Y-33830D01*
X67754Y-33714D01*
X67683Y-33603D01*
X67604Y-33499D01*
X67515Y-33403D01*
X67419Y-33314D01*
X67315Y-33235D01*
X67205Y-33164D01*
X67088Y-33104D01*
X66968Y-33054D01*
X66843Y-33015D01*
X66715Y-32986D01*
X66585Y-32969D01*
X66455Y-32963D01*
X34455Y-32963D02*
X34325Y-32969D01*
X34195Y-32986D01*
X34067Y-33015D01*
X33942Y-33054D01*
X33822Y-33104D01*
X33706Y-33164D01*
X33595Y-33235D01*
X33491Y-33314D01*
X33395Y-33403D01*
X33306Y-33499D01*
X33227Y-33603D01*
X33156Y-33714D01*
X33096Y-33830D01*
X33046Y-33950D01*
X33007Y-34075D01*
X32978Y-34203D01*
X32961Y-34333D01*
X32955Y-34463D01*
M02*
