M48
;DRILL file {PCBnew (2011-07-20 BZR 3052)-testing} date Wed 05 Oct 2011 06:02:32 PM COT
;FORMAT={-:-/ absolute / inch / decimal}
FMAT,2
INCH,TZ
T1C0.008
T2C0.012
T3C0.016
T4C0.028
T5C0.032
T6C0.035
T7C0.038
T8C0.040
T9C0.051
T10C0.052
T11C0.118
%
G90
G05
M72
T1
X3.675Y-5.169
X3.676Y-5.117
X3.682Y-5.019
X3.734Y-4.643
X3.771Y-3.824
X3.816Y-4.139
X3.906Y-4.005
X3.910Y-4.133
X3.933Y-3.819
X3.938Y-4.955
X3.956Y-4.640
X3.957Y-5.203
X3.975Y-3.685
X4.003Y-4.378
X4.073Y-4.269
X4.086Y-4.291
X4.106Y-3.689
X4.108Y-3.896
X4.113Y-4.301
X4.133Y-4.284
X4.134Y-5.176
X4.146Y-3.878
X4.147Y-3.978
X4.178Y-4.159
X4.193Y-4.259
X4.218Y-3.776
X4.253Y-4.207
X4.303Y-3.794
X4.346Y-3.701
X4.347Y-3.842
X4.363Y-3.920
X4.373Y-4.019
X4.376Y-3.959
X4.390Y-4.207
X4.396Y-3.926
X4.403Y-4.955
X4.410Y-4.021
X4.413Y-4.051
X4.443Y-4.054
X4.476Y-4.071
X4.501Y-3.796
X4.561Y-3.956
X4.571Y-3.926
X4.580Y-3.886
X4.601Y-3.976
X4.601Y-4.006
X4.601Y-4.114
X4.603Y-4.081
X4.650Y-4.150
X4.791Y-5.266
X4.806Y-3.911
X4.843Y-4.216
X4.860Y-4.343
X4.860Y-4.408
X4.868Y-4.101
X4.870Y-4.026
X4.888Y-4.064
X4.893Y-3.969
X4.955Y-3.921
X4.983Y-3.924
X4.990Y-3.862
X4.998Y-3.946
X5.002Y-4.663
X5.020Y-3.860
X5.024Y-3.833
X5.053Y-3.831
X5.056Y-4.033
X5.057Y-3.803
X5.085Y-3.797
X5.086Y-4.032
X5.116Y-4.026
X5.120Y-4.305
X5.122Y-3.807
X5.128Y-3.758
X5.128Y-4.259
X5.138Y-3.697
X5.163Y-3.684
X5.177Y-3.589
X5.205Y-4.287
X5.207Y-3.577
X5.209Y-3.824
X5.209Y-4.123
X5.211Y-3.852
X5.212Y-3.885
X5.216Y-4.418
X5.224Y-4.228
X5.228Y-3.598
X5.230Y-4.012
X5.232Y-3.482
X5.234Y-3.937
X5.249Y-3.886
X5.282Y-4.419
X5.305Y-4.070
X5.310Y-4.418
X5.313Y-3.482
X5.323Y-3.818
X5.339Y-4.409
X5.341Y-3.798
X5.360Y-3.675
X5.367Y-3.815
X5.369Y-4.338
X5.370Y-4.409
X5.378Y-4.613
X5.383Y-4.070
X5.394Y-3.911
X5.394Y-3.811
X5.412Y-4.333
X5.420Y-3.665
X5.422Y-3.808
X5.435Y-3.785
X5.435Y-3.923
X5.436Y-3.644
X5.446Y-4.417
X5.456Y-4.256
X5.459Y-3.488
X5.462Y-3.714
X5.464Y-3.672
X5.476Y-4.334
X5.480Y-3.919
X5.509Y-3.918
X5.513Y-4.503
X5.524Y-3.785
X5.530Y-3.480
X5.538Y-4.071
X5.539Y-3.918
X5.550Y-4.259
X5.556Y-3.715
X5.564Y-4.686
X5.575Y-4.335
X5.579Y-3.919
X5.586Y-4.427
X5.614Y-3.482
X5.632Y-3.646
X5.639Y-3.821
X5.644Y-3.903
X5.661Y-3.927
X5.679Y-4.071
X5.683Y-3.901
X5.684Y-4.449
X5.691Y-3.785
X5.711Y-4.305
X5.721Y-3.579
X5.722Y-3.713
X5.737Y-4.071
X5.738Y-4.366
X5.756Y-4.404
X5.769Y-4.783
X5.777Y-4.321
X5.780Y-4.577
X5.814Y-4.842
X5.839Y-3.839
X5.841Y-4.034
X5.843Y-3.436
X5.856Y-3.811
X5.861Y-3.859
X5.863Y-4.843
X5.886Y-4.863
X5.890Y-3.648
X5.913Y-5.116
X5.916Y-5.089
X5.918Y-4.829
X5.931Y-4.753
X5.933Y-3.965
X5.936Y-4.683
X5.947Y-4.792
X5.965Y-4.315
X5.971Y-4.863
X5.972Y-3.986
X5.990Y-3.843
X6.009Y-4.481
X6.024Y-3.845
X6.030Y-3.620
X6.051Y-4.917
X6.069Y-3.728
X6.070Y-4.788
X6.074Y-4.946
X6.111Y-4.471
X6.122Y-4.549
X6.130Y-4.316
X6.154Y-4.522
X6.156Y-4.011
X6.195Y-3.921
X6.198Y-4.525
X6.203Y-4.374
X6.222Y-3.839
X6.236Y-3.937
X6.283Y-4.816
X6.323Y-4.713
X6.391Y-5.111
X6.423Y-4.966
X6.431Y-5.011
X6.438Y-5.149
X6.446Y-5.111
X6.448Y-4.979
X6.481Y-5.009
T2
X4.134Y-5.019
X4.136Y-5.120
X4.414Y-5.212
X5.264Y-4.789
X5.339Y-4.804
X5.364Y-4.721
X5.793Y-4.799
X5.932Y-4.599
X6.017Y-4.880
T3
X5.167Y-3.459
X5.459Y-3.569
X5.615Y-3.567
X5.730Y-3.468
X5.778Y-4.505
X6.030Y-3.763
X6.142Y-4.786
X6.176Y-4.699
X6.206Y-4.751
X6.313Y-3.437
X6.324Y-4.516
X6.341Y-4.549
X6.347Y-4.090
X6.469Y-5.426
T4
X3.825Y-5.027
X3.853Y-4.474
X4.306Y-5.033
T5
X3.450Y-3.650
X4.650Y-3.650
X4.750Y-3.450
X6.550Y-3.650
T6
X6.223Y-5.133
X6.223Y-5.211
X6.223Y-5.290
X6.223Y-5.369
T7
X5.953Y-3.531
X6.268Y-3.531
T8
X3.450Y-3.750
X3.450Y-3.850
X3.450Y-3.950
X3.450Y-4.050
X3.450Y-4.150
X3.450Y-4.250
X3.450Y-4.350
X3.450Y-4.450
X3.450Y-4.550
X3.450Y-4.650
X3.450Y-4.750
X3.550Y-3.650
X3.550Y-3.750
X3.550Y-3.850
X3.550Y-3.950
X3.550Y-4.050
X3.550Y-4.150
X3.550Y-4.250
X3.550Y-4.350
X3.550Y-4.450
X3.550Y-4.550
X3.550Y-4.650
X3.550Y-4.750
X3.650Y-3.450
X3.650Y-3.550
X3.746Y-5.320
X3.746Y-5.420
X3.750Y-3.450
X3.750Y-3.550
X3.760Y-4.711
X3.760Y-4.811
X3.846Y-5.320
X3.846Y-5.420
X3.850Y-3.450
X3.850Y-3.550
X3.860Y-4.711
X3.860Y-4.811
X3.946Y-5.320
X3.946Y-5.420
X3.950Y-3.450
X3.950Y-3.550
X3.960Y-4.711
X3.960Y-4.811
X4.050Y-3.450
X4.050Y-3.550
X4.150Y-3.450
X4.150Y-3.550
X4.202Y-5.320
X4.202Y-5.420
X4.250Y-3.450
X4.250Y-3.550
X4.302Y-5.320
X4.302Y-5.420
X4.350Y-3.450
X4.350Y-3.550
X4.402Y-5.320
X4.402Y-5.420
X4.450Y-3.450
X4.450Y-3.550
X4.550Y-3.450
X4.550Y-3.550
X4.650Y-3.450
X4.650Y-3.550
X4.650Y-3.750
X4.650Y-3.850
X4.650Y-3.950
X4.650Y-4.050
X4.650Y-4.150
X4.650Y-4.250
X4.650Y-4.350
X4.650Y-4.450
X4.650Y-4.550
X4.650Y-4.650
X4.650Y-4.750
X4.650Y-4.850
X4.650Y-4.950
X4.750Y-3.550
X4.750Y-3.650
X4.750Y-3.750
X4.750Y-3.850
X4.750Y-3.950
X4.750Y-4.050
X4.750Y-4.150
X4.750Y-4.250
X4.750Y-4.350
X4.750Y-4.450
X4.750Y-4.550
X4.750Y-4.650
X4.750Y-4.750
X4.750Y-4.850
X4.750Y-4.950
X5.519Y-4.965
X5.619Y-4.965
X5.761Y-5.385
X5.938Y-5.385
X6.285Y-4.367
X6.285Y-4.467
X6.450Y-4.450
X6.450Y-4.550
X6.450Y-4.650
X6.450Y-4.750
X6.550Y-3.750
X6.550Y-3.850
X6.550Y-3.950
X6.550Y-4.050
X6.550Y-4.150
X6.550Y-4.250
X6.550Y-4.350
X6.550Y-4.450
X6.550Y-4.550
X6.550Y-4.650
X6.550Y-4.750
X6.550Y-4.850
X6.550Y-4.950
X6.550Y-5.050
X6.550Y-5.150
X6.650Y-3.650
X6.650Y-3.750
X6.650Y-3.850
X6.650Y-3.950
X6.650Y-4.050
X6.650Y-4.150
X6.650Y-4.250
X6.650Y-4.350
X6.650Y-4.450
X6.650Y-4.550
X6.650Y-4.650
X6.650Y-4.750
X6.650Y-4.850
X6.650Y-4.950
X6.650Y-5.050
X6.650Y-5.150
T9
X6.116Y-5.122
X6.116Y-5.398
X6.330Y-5.122
X6.330Y-5.398
T10
X5.711Y-5.287
X5.987Y-5.287
T11
X3.450Y-3.450
X3.450Y-5.350
X6.650Y-3.450
X6.650Y-5.350
T8
X5.315Y-5.109G85X5.375Y-5.109
G05
X5.315Y-5.349G85X5.375Y-5.349
G05
X5.545Y-5.289G85X5.545Y-5.229
G05
T0
M30
