M48
INCH,LZ
T1C0.025
T2C0.035
T3C0.039
T4C0.079
%
G90
G05
T1
X0458Y-02965
X04645Y-02785
X04665Y-02505
X04665Y-02645
X0479Y-03235
X048Y-02955
X048Y-03
X048Y-03045
X0483Y-02925
X0486Y-03235
X0487Y-02875
X0491Y-02855
X04945Y-03065
X0496Y-03165
X05015Y-03
X05015Y-03478
X05078Y-03415
X0509Y-0306
X05115Y-0313
X05135Y-03335
X05135Y-0338
X0521Y-0291
X05245Y-03555
X0531Y-0303
X05315Y-0313
X054Y-0285
X05475Y-03695
X0548Y-03615
X05505Y-0315
T2
X04902Y-03609
X05001Y-03609
X05079Y-03609
X05178Y-03609
T3
X044Y-0235
X044Y-0245
X044Y-0255
X044Y-0265
X044Y-0275
X044Y-0285
X044Y-0295
X044Y-0305
X044Y-0315
X044Y-0325
X044Y-0335
X044Y-0345
X044Y-0355
X044Y-0365
X049Y-026
X05Y-026
X051Y-026
X054Y-03
X054Y-031
X054Y-032
X056Y-0235
X056Y-0245
X056Y-0255
X056Y-0265
X056Y-0275
X056Y-0285
X056Y-0295
X056Y-0305
X056Y-0315
X056Y-0325
X056Y-0335
X056Y-0345
X056Y-0355
X056Y-0365
T4
X04781Y-03716
X05299Y-03716
T0
M30
