G04 (created by PCBNEW-RS274X (2012-02-19 BZR 3421)-stable) date lun 16 abr 2012 11:22:40 COT*
G01*
G70*
G90*
%MOIN*%
G04 Gerber Fmt 3.4, Leading zero omitted, Abs format*
%FSLAX34Y34*%
G04 APERTURE LIST*
%ADD10C,0.001000*%
%ADD11R,0.086600X0.060000*%
%ADD12O,0.086600X0.060000*%
%ADD13C,0.118100*%
%ADD14C,0.059100*%
%ADD15R,0.060000X0.086600*%
%ADD16O,0.060000X0.086600*%
%ADD17C,0.035000*%
%ADD18C,0.010000*%
G04 APERTURE END LIST*
G54D10*
G54D11*
X44000Y-36500D03*
G54D12*
X44000Y-35500D03*
X44000Y-34500D03*
X44000Y-33500D03*
X44000Y-32500D03*
X44000Y-31500D03*
X44000Y-30500D03*
X44000Y-29500D03*
X44000Y-28500D03*
X44000Y-27500D03*
X44000Y-26500D03*
X44000Y-25500D03*
X44000Y-24500D03*
X44000Y-23500D03*
G54D11*
X56000Y-23500D03*
G54D12*
X56000Y-24500D03*
X56000Y-25500D03*
X56000Y-26500D03*
X56000Y-27500D03*
X56000Y-28500D03*
X56000Y-29500D03*
X56000Y-30500D03*
X56000Y-31500D03*
X56000Y-32500D03*
X56000Y-33500D03*
X56000Y-34500D03*
X56000Y-35500D03*
X56000Y-36500D03*
G54D13*
X47813Y-37159D03*
X52987Y-37159D03*
G54D14*
X49022Y-36092D03*
X50006Y-36092D03*
X50794Y-36092D03*
X51778Y-36092D03*
G54D15*
X51000Y-26000D03*
G54D16*
X50000Y-26000D03*
X49000Y-26000D03*
G54D11*
X54000Y-30000D03*
G54D12*
X54000Y-31000D03*
X54000Y-32000D03*
G54D17*
X55050Y-31500D03*
X53150Y-31300D03*
X53100Y-30300D03*
X54000Y-28500D03*
X51150Y-31300D03*
X48000Y-30450D03*
X48000Y-30000D03*
X48000Y-29550D03*
X48300Y-29250D03*
X48700Y-28750D03*
X49100Y-28550D03*
X47900Y-32350D03*
X52450Y-35550D03*
X51350Y-33350D03*
X49600Y-31650D03*
X51350Y-33800D03*
X48600Y-32350D03*
X46650Y-26450D03*
X54750Y-36950D03*
X46650Y-25050D03*
X54800Y-36150D03*
X50150Y-30000D03*
X52100Y-29100D03*
X50900Y-30600D03*
X46450Y-27850D03*
X45800Y-29650D03*
X50150Y-34775D03*
X50775Y-34150D03*
X49450Y-30650D03*
G54D18*
X54550Y-28550D02*
X54000Y-29100D01*
X54550Y-27050D02*
X54550Y-28300D01*
X54000Y-29100D02*
X54000Y-30000D01*
X51000Y-26000D02*
X53200Y-26000D01*
X54550Y-28300D02*
X54550Y-28550D01*
X53200Y-26000D02*
X54550Y-27050D01*
X55050Y-31500D02*
X53550Y-31500D01*
X53550Y-31500D02*
X53350Y-31300D01*
X53350Y-31300D02*
X53150Y-31300D01*
X53100Y-29400D02*
X53100Y-30300D01*
X54000Y-28500D02*
X53100Y-29400D01*
X52650Y-31300D02*
X51150Y-31300D01*
X56000Y-29500D02*
X55700Y-29500D01*
X55700Y-29500D02*
X54700Y-30500D01*
X53450Y-30500D02*
X52650Y-31300D01*
X54700Y-30500D02*
X53450Y-30500D01*
X44000Y-36500D02*
X45300Y-36500D01*
X46000Y-35800D02*
X45300Y-36500D01*
X46000Y-32450D02*
X46000Y-35800D01*
X48000Y-30450D02*
X46000Y-32450D01*
X45750Y-32250D02*
X45750Y-35050D01*
X48000Y-30000D02*
X45750Y-32250D01*
X45300Y-35500D02*
X44000Y-35500D01*
X45750Y-35050D02*
X45300Y-35500D01*
X45550Y-33700D02*
X44750Y-34500D01*
X44750Y-34500D02*
X44000Y-34500D01*
X45550Y-32000D02*
X45550Y-33700D01*
X48000Y-29550D02*
X45550Y-32000D01*
X47850Y-29250D02*
X45300Y-31800D01*
X48100Y-29250D02*
X47850Y-29250D01*
X48300Y-29250D02*
X48100Y-29250D01*
X44750Y-33500D02*
X44000Y-33500D01*
X45300Y-31800D02*
X45300Y-32950D01*
X45300Y-32950D02*
X44750Y-33500D01*
X45000Y-31650D02*
X45000Y-32250D01*
X44750Y-32500D02*
X44000Y-32500D01*
X45000Y-32250D02*
X44750Y-32500D01*
X47850Y-28750D02*
X45000Y-31650D01*
X48750Y-28750D02*
X47850Y-28750D01*
X48700Y-28750D02*
X48750Y-28750D01*
X44750Y-31450D02*
X44050Y-31450D01*
X49100Y-28550D02*
X48850Y-28450D01*
X48850Y-28450D02*
X47800Y-28450D01*
X44900Y-31350D02*
X44800Y-31450D01*
X44050Y-31450D02*
X44000Y-31500D01*
X44800Y-31450D02*
X44750Y-31450D01*
X46950Y-29300D02*
X44900Y-31350D01*
X47800Y-28450D02*
X46950Y-29300D01*
X47900Y-32350D02*
X49800Y-34100D01*
X49800Y-34100D02*
X49800Y-34950D01*
X49950Y-35100D02*
X52000Y-35100D01*
X52000Y-35100D02*
X52450Y-35550D01*
X49800Y-34950D02*
X49950Y-35100D01*
X49600Y-31650D02*
X49597Y-32550D01*
X50397Y-33350D02*
X51350Y-33350D01*
X49597Y-32550D02*
X50397Y-33350D01*
X50000Y-33800D02*
X51350Y-33800D01*
X48600Y-32350D02*
X50000Y-33800D01*
X54750Y-36950D02*
X54800Y-36900D01*
X54800Y-36900D02*
X54800Y-36150D01*
X50900Y-30600D02*
X50300Y-30000D01*
X46650Y-26450D02*
X46650Y-25050D01*
X50300Y-30000D02*
X50150Y-30000D01*
X50900Y-30600D02*
X50900Y-30500D01*
X52100Y-29300D02*
X52100Y-29100D01*
X50900Y-30500D02*
X52100Y-29300D01*
X45800Y-29650D02*
X45850Y-29600D01*
X45850Y-28550D02*
X45850Y-28450D01*
X45850Y-29600D02*
X45850Y-28550D01*
X45850Y-28450D02*
X46450Y-27850D01*
X50150Y-34775D02*
X50775Y-34150D01*
X49000Y-26850D02*
X49000Y-26000D01*
X49450Y-30650D02*
X49450Y-27850D01*
X49450Y-27850D02*
X49000Y-26850D01*
X49000Y-26850D02*
X49000Y-26850D01*
X55050Y-31000D02*
X54000Y-31000D01*
X55050Y-31000D02*
X55350Y-31300D01*
X56000Y-35500D02*
X55800Y-35500D01*
X55350Y-31300D02*
X55350Y-35050D01*
X55800Y-35500D02*
X55350Y-35050D01*
M02*
