G04 (created by PCBNEW-RS274X (2012-02-19 BZR 3421)-stable) date lun 16 abr 2012 11:22:40 COT*
G01*
G70*
G90*
%MOIN*%
G04 Gerber Fmt 3.4, Leading zero omitted, Abs format*
%FSLAX34Y34*%
G04 APERTURE LIST*
%ADD10C,0.001000*%
%ADD11R,0.106600X0.080000*%
%ADD12O,0.106600X0.080000*%
%ADD13C,0.138100*%
%ADD14C,0.079100*%
%ADD15R,0.080000X0.106600*%
%ADD16O,0.080000X0.106600*%
G04 APERTURE END LIST*
G54D10*
G54D11*
X44000Y-36500D03*
G54D12*
X44000Y-35500D03*
X44000Y-34500D03*
X44000Y-33500D03*
X44000Y-32500D03*
X44000Y-31500D03*
X44000Y-30500D03*
X44000Y-29500D03*
X44000Y-28500D03*
X44000Y-27500D03*
X44000Y-26500D03*
X44000Y-25500D03*
X44000Y-24500D03*
X44000Y-23500D03*
G54D11*
X56000Y-23500D03*
G54D12*
X56000Y-24500D03*
X56000Y-25500D03*
X56000Y-26500D03*
X56000Y-27500D03*
X56000Y-28500D03*
X56000Y-29500D03*
X56000Y-30500D03*
X56000Y-31500D03*
X56000Y-32500D03*
X56000Y-33500D03*
X56000Y-34500D03*
X56000Y-35500D03*
X56000Y-36500D03*
G54D13*
X47813Y-37159D03*
X52987Y-37159D03*
G54D14*
X49022Y-36092D03*
X50006Y-36092D03*
X50794Y-36092D03*
X51778Y-36092D03*
G54D15*
X51000Y-26000D03*
G54D16*
X50000Y-26000D03*
X49000Y-26000D03*
G54D11*
X54000Y-30000D03*
G54D12*
X54000Y-31000D03*
X54000Y-32000D03*
M02*
