G04 (created by PCBNEW-RS274X (2011-05-31)-stable) date Fri 24 Feb 2012 05:38:00 PM COT*
G01*
G70*
G90*
%MOIN*%
G04 Gerber Fmt 3.4, Leading zero omitted, Abs format*
%FSLAX34Y34*%
G04 APERTURE LIST*
%ADD10C,0.006000*%
%ADD11C,0.015000*%
G04 APERTURE END LIST*
G54D10*
G54D11*
X66520Y-56256D02*
X66520Y-56252D01*
X66358Y-56256D02*
X66520Y-56256D01*
X67953Y-53472D02*
X67953Y-54854D01*
X66547Y-56251D02*
X66665Y-56249D01*
X66783Y-56238D01*
X66900Y-56216D01*
X67014Y-56183D01*
X67125Y-56141D01*
X67232Y-56090D01*
X67334Y-56029D01*
X67431Y-55960D01*
X67521Y-55882D01*
X67604Y-55797D01*
X67679Y-55705D01*
X67746Y-55607D01*
X67804Y-55504D01*
X67853Y-55395D01*
X67892Y-55283D01*
X67922Y-55168D01*
X67941Y-55051D01*
X67950Y-54932D01*
X32953Y-53933D02*
X32953Y-54933D01*
X32955Y-53471D02*
X32955Y-53932D01*
X32959Y-53475D02*
X32955Y-53471D01*
X32952Y-54939D02*
X32961Y-55058D01*
X32980Y-55175D01*
X33010Y-55290D01*
X33049Y-55402D01*
X33098Y-55511D01*
X33156Y-55614D01*
X33223Y-55712D01*
X33298Y-55804D01*
X33381Y-55889D01*
X33471Y-55967D01*
X33568Y-56036D01*
X33670Y-56097D01*
X33777Y-56148D01*
X33888Y-56190D01*
X34002Y-56223D01*
X34119Y-56245D01*
X34237Y-56256D01*
X34355Y-56258D01*
X67955Y-53463D02*
X67955Y-34463D01*
X34357Y-56258D02*
X66357Y-56258D01*
X32955Y-34463D02*
X32955Y-53463D01*
X66455Y-32963D02*
X34455Y-32963D01*
X67955Y-34463D02*
X67949Y-34333D01*
X67932Y-34203D01*
X67903Y-34075D01*
X67864Y-33950D01*
X67814Y-33830D01*
X67754Y-33714D01*
X67683Y-33603D01*
X67604Y-33499D01*
X67515Y-33403D01*
X67419Y-33314D01*
X67315Y-33235D01*
X67205Y-33164D01*
X67088Y-33104D01*
X66968Y-33054D01*
X66843Y-33015D01*
X66715Y-32986D01*
X66585Y-32969D01*
X66455Y-32963D01*
X34455Y-32963D02*
X34325Y-32969D01*
X34195Y-32986D01*
X34067Y-33015D01*
X33942Y-33054D01*
X33822Y-33104D01*
X33706Y-33164D01*
X33595Y-33235D01*
X33491Y-33314D01*
X33395Y-33403D01*
X33306Y-33499D01*
X33227Y-33603D01*
X33156Y-33714D01*
X33096Y-33830D01*
X33046Y-33950D01*
X33007Y-34075D01*
X32978Y-34203D01*
X32961Y-34333D01*
X32955Y-34463D01*
M02*
