M48
;DRILL file {PCBnew (2011-05-31)-stable} date Fri 24 Feb 2012 05:45:12 PM COT
;FORMAT={-:-/ absolute / inch / decimal}
FMAT,2
INCH,TZ
T1C0.008
T2C0.012
T3C0.016
T4C0.028
T5C0.032
T6C0.036
T7C0.038
T8C0.040
T9C0.055
T10C0.090
T11C0.118
%
G90
G05
M72
T1
X3.735Y4.480
X3.738Y4.702
X3.771Y3.824
X3.807Y5.262
X3.816Y4.139
X3.841Y4.980
X3.860Y4.157
X3.894Y4.981
X3.906Y4.005
X3.927Y4.341
X3.933Y3.819
X3.951Y4.473
X3.965Y4.337
X3.975Y3.685
X3.991Y4.987
X3.999Y4.749
X4.031Y4.344
X4.055Y5.243
X4.076Y4.342
X4.103Y4.332
X4.106Y3.689
X4.112Y3.867
X4.146Y3.871
X4.158Y4.131
X4.178Y4.159
X4.198Y4.640
X4.216Y4.426
X4.218Y3.776
X4.240Y5.168
X4.253Y4.207
X4.303Y3.794
X4.305Y3.667
X4.346Y3.701
X4.347Y3.842
X4.352Y4.261
X4.363Y3.920
X4.373Y4.019
X4.376Y3.959
X4.381Y4.260
X4.390Y4.207
X4.396Y3.926
X4.410Y4.021
X4.413Y4.051
X4.414Y4.874
X4.435Y4.641
X4.443Y4.054
X4.457Y4.873
X4.476Y4.071
X4.476Y4.374
X4.501Y3.796
X4.554Y4.023
X4.566Y3.884
X4.567Y3.843
X4.601Y3.976
X4.601Y4.114
X4.841Y4.015
X4.860Y4.343
X4.860Y4.408
X4.868Y4.101
X4.893Y3.969
X4.900Y5.039
X4.955Y3.921
X4.983Y3.924
X4.990Y3.862
X4.998Y3.946
X5.002Y4.663
X5.020Y3.860
X5.024Y3.833
X5.053Y3.831
X5.056Y4.033
X5.057Y3.803
X5.085Y3.797
X5.086Y4.032
X5.116Y4.026
X5.120Y4.305
X5.122Y3.807
X5.128Y3.758
X5.128Y4.259
X5.138Y3.697
X5.163Y3.684
X5.177Y3.589
X5.205Y4.287
X5.207Y3.577
X5.209Y3.824
X5.209Y4.123
X5.211Y3.852
X5.212Y3.885
X5.216Y4.418
X5.224Y4.228
X5.228Y3.598
X5.230Y4.012
X5.232Y3.482
X5.234Y3.937
X5.249Y3.886
X5.282Y4.419
X5.305Y4.070
X5.310Y4.418
X5.313Y3.482
X5.323Y3.818
X5.339Y4.409
X5.341Y3.798
X5.360Y3.675
X5.367Y3.815
X5.369Y4.338
X5.370Y4.409
X5.378Y4.613
X5.383Y4.070
X5.394Y3.911
X5.394Y3.811
X5.412Y4.333
X5.420Y3.665
X5.422Y3.808
X5.435Y3.785
X5.435Y3.923
X5.436Y3.644
X5.446Y4.417
X5.456Y4.256
X5.459Y3.488
X5.462Y3.714
X5.464Y3.672
X5.476Y4.334
X5.480Y3.919
X5.509Y3.918
X5.513Y4.503
X5.524Y3.785
X5.530Y3.480
X5.538Y4.071
X5.539Y3.918
X5.550Y4.259
X5.556Y3.715
X5.564Y4.686
X5.575Y4.335
X5.579Y3.919
X5.586Y4.427
X5.614Y3.482
X5.632Y3.646
X5.639Y3.821
X5.644Y3.903
X5.661Y3.927
X5.679Y4.071
X5.683Y3.901
X5.684Y4.449
X5.691Y3.785
X5.711Y4.305
X5.721Y3.579
X5.722Y3.713
X5.737Y4.071
X5.738Y4.366
X5.756Y4.404
X5.764Y5.025
X5.769Y4.783
X5.777Y4.321
X5.780Y4.577
X5.796Y5.024
X5.814Y4.842
X5.839Y3.839
X5.841Y4.034
X5.843Y3.436
X5.856Y3.811
X5.861Y3.859
X5.863Y4.843
X5.886Y4.863
X5.890Y3.648
X5.918Y4.829
X5.931Y4.753
X5.933Y3.965
X5.936Y4.683
X5.947Y4.792
X5.965Y4.315
X5.971Y4.863
X5.972Y3.986
X5.990Y3.843
X6.009Y4.481
X6.024Y3.845
X6.030Y3.620
X6.051Y4.917
X6.069Y3.728
X6.070Y4.788
X6.074Y4.946
X6.111Y4.471
X6.122Y4.549
X6.130Y4.316
X6.146Y4.033
X6.154Y4.522
X6.198Y4.525
X6.200Y3.891
X6.203Y4.374
X6.233Y3.782
X6.236Y3.937
X6.253Y3.802
X6.283Y4.816
X6.323Y4.713
X6.391Y5.111
X6.423Y4.966
X6.431Y5.011
X6.438Y5.149
X6.446Y5.111
X6.448Y4.979
X6.481Y5.009
T2
X4.173Y4.098
X4.240Y5.011
X4.242Y5.111
X4.520Y5.203
X5.264Y4.789
X5.339Y4.804
X5.364Y4.721
X5.793Y4.799
X5.932Y4.599
X6.017Y4.880
T3
X5.167Y3.459
X5.459Y3.569
X5.615Y3.567
X5.730Y3.468
X5.778Y4.505
X6.030Y3.763
X6.142Y4.786
X6.176Y4.699
X6.206Y4.751
X6.313Y3.437
X6.324Y4.516
X6.341Y4.549
X6.347Y4.090
T4
X3.507Y4.711
X3.622Y4.767
X3.655Y5.252
X3.904Y4.605
X3.976Y5.140
X4.342Y4.469
X4.431Y5.026
T5
X3.450Y3.650
X4.650Y3.650
X4.750Y3.450
X6.550Y3.650
T6
X5.796Y5.237
X5.894Y5.237
X5.973Y5.237
X6.071Y5.237
T7
X5.953Y3.531
X6.268Y3.531
T8
X3.449Y4.850
X3.449Y4.950
X3.449Y5.050
X3.449Y5.150
X3.449Y5.250
X3.450Y3.750
X3.450Y3.850
X3.450Y3.950
X3.450Y4.050
X3.450Y4.150
X3.450Y4.250
X3.450Y4.350
X3.450Y4.450
X3.450Y4.550
X3.450Y4.650
X3.450Y4.750
X3.549Y4.850
X3.549Y4.950
X3.549Y5.050
X3.549Y5.150
X3.549Y5.250
X3.550Y3.650
X3.550Y3.750
X3.550Y3.850
X3.550Y3.950
X3.550Y4.050
X3.550Y4.150
X3.550Y4.250
X3.550Y4.350
X3.550Y4.450
X3.550Y4.550
X3.550Y4.650
X3.550Y4.750
X3.650Y3.450
X3.650Y3.550
X3.750Y3.450
X3.750Y3.550
X3.850Y3.450
X3.850Y3.550
X3.950Y3.450
X3.950Y3.550
X4.050Y3.450
X4.050Y3.550
X4.150Y3.450
X4.150Y3.550
X4.250Y3.450
X4.250Y3.550
X4.350Y3.450
X4.350Y3.550
X4.450Y3.450
X4.450Y3.550
X4.550Y3.450
X4.550Y3.550
X4.650Y3.450
X4.650Y3.550
X4.650Y3.750
X4.650Y3.850
X4.650Y3.950
X4.650Y4.050
X4.650Y4.150
X4.650Y4.250
X4.650Y4.350
X4.650Y4.450
X4.650Y4.550
X4.650Y4.650
X4.650Y4.750
X4.650Y4.850
X4.750Y3.550
X4.750Y3.650
X4.750Y3.750
X4.750Y3.850
X4.750Y3.950
X4.750Y4.050
X4.750Y4.150
X4.750Y4.250
X4.750Y4.350
X4.750Y4.450
X4.750Y4.550
X4.750Y4.650
X4.750Y4.750
X4.750Y4.850
X5.519Y4.965
X5.619Y4.965
X6.285Y4.367
X6.285Y4.467
X6.450Y4.450
X6.450Y4.550
X6.450Y4.650
X6.450Y4.750
X6.550Y3.750
X6.550Y3.850
X6.550Y3.950
X6.550Y4.050
X6.550Y4.150
X6.550Y4.250
X6.550Y4.350
X6.550Y4.450
X6.550Y4.550
X6.550Y4.650
X6.550Y4.750
X6.550Y4.850
X6.550Y4.950
X6.550Y5.050
X6.550Y5.150
X6.650Y3.650
X6.650Y3.750
X6.650Y3.850
X6.650Y3.950
X6.650Y4.050
X6.650Y4.150
X6.650Y4.250
X6.650Y4.350
X6.650Y4.450
X6.650Y4.550
X6.650Y4.650
X6.650Y4.750
X6.650Y4.850
X6.650Y4.950
X6.650Y5.050
X6.650Y5.150
T9
X4.564Y4.201
X5.188Y5.140
T10
X5.675Y5.344
X6.192Y5.344
T11
X3.420Y5.503
X3.450Y3.450
X6.643Y5.499
X6.650Y3.450
T0
M30
