0
SECTION
2
HEADER
9
$ANGBASE
50
0.0
9
$ANGDIR
70
0
0
ENDSEC
0
SECTION
2
TABLES
0
TABLE
2
LTYPE
70
1
0
LTYPE
2
CONTINUOUS
70
0
3
Solid line
72
65
73
0
40
0.0
0
ENDTAB
0
TABLE
2
LAYER
70
24
0
LAYER
2
BLACK
70
0
62
1
6
CONTINUOUS
0
LAYER
2
BLUE
70
0
62
2
6
CONTINUOUS
0
LAYER
2
GREEN
70
0
62
3
6
CONTINUOUS
0
LAYER
2
CYAN
70
0
62
4
6
CONTINUOUS
0
LAYER
2
RED
70
0
62
5
6
CONTINUOUS
0
LAYER
2
MAGENTA
70
0
62
6
6
CONTINUOUS
0
LAYER
2
BROWN
70
0
62
7
6
CONTINUOUS
0
LAYER
2
GRAY
70
0
62
8
6
CONTINUOUS
0
LAYER
2
DARKGRAY
70
0
62
9
6
CONTINUOUS
0
LAYER
2
LIGHTBLUE
70
0
62
10
6
CONTINUOUS
0
LAYER
2
LIGHTGREEN
70
0
62
11
6
CONTINUOUS
0
LAYER
2
LIGHTCYAN
70
0
62
12
6
CONTINUOUS
0
LAYER
2
LIGHTRED
70
0
62
13
6
CONTINUOUS
0
LAYER
2
LIGHTMAGENTA
70
0
62
14
6
CONTINUOUS
0
LAYER
2
YELLOW
70
0
62
15
6
CONTINUOUS
0
LAYER
2
WHITE
70
0
62
16
6
CONTINUOUS
0
LAYER
2
DARKDARKGRAY
70
0
62
17
6
CONTINUOUS
0
LAYER
2
DARKBLUE
70
0
62
18
6
CONTINUOUS
0
LAYER
2
DARKGREEN
70
0
62
19
6
CONTINUOUS
0
LAYER
2
DARKCYAN
70
0
62
20
6
CONTINUOUS
0
LAYER
2
DARKRED
70
0
62
21
6
CONTINUOUS
0
LAYER
2
DARKMAGENTA
70
0
62
22
6
CONTINUOUS
0
LAYER
2
DARKBROWN
70
0
62
23
6
CONTINUOUS
0
LAYER
2
LIGHTYELLOW
70
0
62
24
6
CONTINUOUS
0
ENDTAB
0
ENDSEC
0
SECTION
2
ENTITIES
0
LINE
8
BLACK
10
33030.0
20
28739.0
11
33030.0
21
29199.0
0
LINE
8
BLACK
10
32880.0
20
28739.0
11
32880.0
21
29199.0
0
ARC
8
BLACK
10
32955.0
20
29199.0
40
75.0
50
360.0
51
540.0
0
ARC
8
BLACK
10
32955.0
20
28739.0
40
75.0
50
180.0
51
360.0
0
LINE
8
BLACK
10
33011.0
20
29249.0
11
33009.0
21
29251.0
0
LINE
8
BLACK
10
32905.0
20
29143.0
11
32903.0
21
29145.0
0
ARC
8
BLACK
10
32956.0
20
29198.0
40
75.0
50
405.0
51
585.0
0
ARC
8
BLACK
10
32958.0
20
29196.0
40
75.0
50
225.0
51
405.0
0
ARC
8
BLACK
10
34333.0
20
28746.0
40
1362.0
50
-178.0
51
-88.0
0
LINE
8
BLACK
10
68030.0
20
29207.0
11
68030.0
21
48207.0
0
LINE
8
BLACK
10
67880.0
20
29207.0
11
67880.0
21
48207.0
0
ARC
8
BLACK
10
67955.0
20
48207.0
40
75.0
50
360.0
51
540.0
0
ARC
8
BLACK
10
67955.0
20
29207.0
40
75.0
50
180.0
51
360.0
0
LINE
8
BLACK
10
34455.0
20
27285.0
11
66455.0
21
27285.0
0
LINE
8
BLACK
10
34455.0
20
27435.0
11
66455.0
21
27435.0
0
ARC
8
BLACK
10
66455.0
20
27360.0
40
75.0
50
270.0
51
450.0
0
ARC
8
BLACK
10
34455.0
20
27360.0
40
75.0
50
90.0
51
270.0
0
LINE
8
BLACK
10
33030.0
20
29207.0
11
33030.0
21
48207.0
0
LINE
8
BLACK
10
32880.0
20
29207.0
11
32880.0
21
48207.0
0
ARC
8
BLACK
10
32955.0
20
48207.0
40
75.0
50
360.0
51
540.0
0
ARC
8
BLACK
10
32955.0
20
29207.0
40
75.0
50
180.0
51
360.0
0
LINE
8
BLACK
10
34455.0
20
49632.0
11
66455.0
21
49632.0
0
LINE
8
BLACK
10
34455.0
20
49782.0
11
66455.0
21
49782.0
0
ARC
8
BLACK
10
66455.0
20
49707.0
40
75.0
50
270.0
51
450.0
0
ARC
8
BLACK
10
34455.0
20
49707.0
40
75.0
50
90.0
51
270.0
0
ARC
8
BLACK
10
66455.0
20
48207.0
40
1500.0
50
0.0
51
90.0
0
ARC
8
BLACK
10
34455.0
20
48207.0
40
1500.0
50
90.0
51
180.0
0
LINE
8
BLACK
10
52863.0
20
33949.0
11
52863.0
21
33713.0
0
LINE
8
BLACK
10
52863.0
20
33713.0
11
53255.0
21
33713.0
0
LINE
8
BLACK
10
53255.0
20
33713.0
11
53255.0
21
33949.0
0
LINE
8
BLACK
10
53255.0
20
33949.0
11
52863.0
21
33949.0
0
LINE
8
BLACK
10
53729.0
20
33949.0
11
53729.0
21
33713.0
0
LINE
8
BLACK
10
53729.0
20
33713.0
11
54121.0
21
33713.0
0
LINE
8
BLACK
10
54121.0
20
33713.0
11
54121.0
21
33949.0
0
LINE
8
BLACK
10
54121.0
20
33949.0
11
53729.0
21
33949.0
0
LINE
8
BLACK
10
62226.0
20
43531.0
11
62226.0
21
42911.0
0
LINE
8
BLACK
10
62226.0
20
42911.0
11
62486.0
21
42911.0
0
LINE
8
BLACK
10
62486.0
20
42911.0
11
62486.0
21
43531.0
0
LINE
8
BLACK
10
62486.0
20
43531.0
11
62226.0
21
43531.0
0
LINE
8
BLACK
10
61796.0
20
43531.0
11
61796.0
21
42911.0
0
LINE
8
BLACK
10
61796.0
20
42911.0
11
62056.0
21
42911.0
0
LINE
8
BLACK
10
62056.0
20
42911.0
11
62056.0
21
43531.0
0
LINE
8
BLACK
10
62056.0
20
43531.0
11
61796.0
21
43531.0
0
LINE
8
BLACK
10
61366.0
20
43531.0
11
61366.0
21
42911.0
0
LINE
8
BLACK
10
61366.0
20
42911.0
11
61626.0
21
42911.0
0
LINE
8
BLACK
10
61626.0
20
42911.0
11
61626.0
21
43531.0
0
LINE
8
BLACK
10
61626.0
20
43531.0
11
61366.0
21
43531.0
0
LINE
8
BLACK
10
60926.0
20
43531.0
11
60926.0
21
42911.0
0
LINE
8
BLACK
10
60926.0
20
42911.0
11
61186.0
21
42911.0
0
LINE
8
BLACK
10
61186.0
20
42911.0
11
61186.0
21
43531.0
0
LINE
8
BLACK
10
61186.0
20
43531.0
11
60926.0
21
43531.0
0
LINE
8
BLACK
10
60496.0
20
43531.0
11
60496.0
21
42911.0
0
LINE
8
BLACK
10
60496.0
20
42911.0
11
60756.0
21
42911.0
0
LINE
8
BLACK
10
60756.0
20
42911.0
11
60756.0
21
43531.0
0
LINE
8
BLACK
10
60756.0
20
43531.0
11
60496.0
21
43531.0
0
LINE
8
BLACK
10
60066.0
20
43531.0
11
60066.0
21
42911.0
0
LINE
8
BLACK
10
60066.0
20
42911.0
11
60326.0
21
42911.0
0
LINE
8
BLACK
10
60326.0
20
42911.0
11
60326.0
21
43531.0
0
LINE
8
BLACK
10
60326.0
20
43531.0
11
60066.0
21
43531.0
0
LINE
8
BLACK
10
59626.0
20
43531.0
11
59626.0
21
42911.0
0
LINE
8
BLACK
10
59626.0
20
42911.0
11
59886.0
21
42911.0
0
LINE
8
BLACK
10
59886.0
20
42911.0
11
59886.0
21
43531.0
0
LINE
8
BLACK
10
59886.0
20
43531.0
11
59626.0
21
43531.0
0
LINE
8
BLACK
10
59196.0
20
43531.0
11
59196.0
21
42911.0
0
LINE
8
BLACK
10
59196.0
20
42911.0
11
59456.0
21
42911.0
0
LINE
8
BLACK
10
59456.0
20
42911.0
11
59456.0
21
43531.0
0
LINE
8
BLACK
10
59456.0
20
43531.0
11
59196.0
21
43531.0
0
LINE
8
BLACK
10
58766.0
20
43531.0
11
58766.0
21
42911.0
0
LINE
8
BLACK
10
58766.0
20
42911.0
11
59026.0
21
42911.0
0
LINE
8
BLACK
10
59026.0
20
42911.0
11
59026.0
21
43531.0
0
LINE
8
BLACK
10
59026.0
20
43531.0
11
58766.0
21
43531.0
0
LINE
8
BLACK
10
63856.0
20
43691.0
11
63856.0
21
43151.0
0
LINE
8
BLACK
10
63856.0
20
43151.0
11
64476.0
21
43151.0
0
LINE
8
BLACK
10
64476.0
20
43151.0
11
64476.0
21
43691.0
0
LINE
8
BLACK
10
64476.0
20
43691.0
11
63856.0
21
43691.0
0
LINE
8
BLACK
10
64296.0
20
47631.0
11
64296.0
21
46771.0
0
LINE
8
BLACK
10
64296.0
20
46771.0
11
64756.0
21
46771.0
0
LINE
8
BLACK
10
64756.0
20
46771.0
11
64756.0
21
47631.0
0
LINE
8
BLACK
10
64756.0
20
47631.0
11
64296.0
21
47631.0
0
LINE
8
BLACK
10
58196.0
20
47631.0
11
58196.0
21
46771.0
0
LINE
8
BLACK
10
58196.0
20
46771.0
11
58656.0
21
46771.0
0
LINE
8
BLACK
10
58656.0
20
46771.0
11
58656.0
21
47631.0
0
LINE
8
BLACK
10
58656.0
20
47631.0
11
58196.0
21
47631.0
0
LINE
8
BLACK
10
58186.0
20
43691.0
11
58186.0
21
43151.0
0
LINE
8
BLACK
10
58186.0
20
43151.0
11
58646.0
21
43151.0
0
LINE
8
BLACK
10
58646.0
20
43151.0
11
58646.0
21
43691.0
0
LINE
8
BLACK
10
58646.0
20
43691.0
11
58186.0
21
43691.0
0
LINE
8
BLACK
10
54838.0
20
40653.0
11
54288.0
21
40653.0
0
LINE
8
BLACK
10
54288.0
20
40653.0
11
54288.0
21
40303.0
0
LINE
8
BLACK
10
54288.0
20
40303.0
11
54838.0
21
40303.0
0
LINE
8
BLACK
10
54838.0
20
40303.0
11
54838.0
21
40653.0
0
LINE
8
BLACK
10
54838.0
20
39903.0
11
54288.0
21
39903.0
0
LINE
8
BLACK
10
54288.0
20
39903.0
11
54288.0
21
39553.0
0
LINE
8
BLACK
10
54288.0
20
39553.0
11
54838.0
21
39553.0
0
LINE
8
BLACK
10
54838.0
20
39553.0
11
54838.0
21
39903.0
0
LINE
8
BLACK
10
64618.0
20
40201.0
11
64618.0
21
40651.0
0
LINE
8
BLACK
10
64618.0
20
40651.0
11
64368.0
21
40651.0
0
LINE
8
BLACK
10
64368.0
20
40651.0
11
64368.0
21
40201.0
0
LINE
8
BLACK
10
64368.0
20
40201.0
11
64618.0
21
40201.0
0
LINE
8
BLACK
10
64018.0
20
40201.0
11
64018.0
21
40651.0
0
LINE
8
BLACK
10
64018.0
20
40651.0
11
63768.0
21
40651.0
0
LINE
8
BLACK
10
63768.0
20
40651.0
11
63768.0
21
40201.0
0
LINE
8
BLACK
10
63768.0
20
40201.0
11
64018.0
21
40201.0
0
LINE
8
BLACK
10
62271.0
20
34839.0
11
62721.0
21
34839.0
0
LINE
8
BLACK
10
62721.0
20
34839.0
11
62721.0
21
35089.0
0
LINE
8
BLACK
10
62721.0
20
35089.0
11
62271.0
21
35089.0
0
LINE
8
BLACK
10
62271.0
20
35089.0
11
62271.0
21
34839.0
0
LINE
8
BLACK
10
62271.0
20
35439.0
11
62721.0
21
35439.0
0
LINE
8
BLACK
10
62721.0
20
35439.0
11
62721.0
21
35689.0
0
LINE
8
BLACK
10
62721.0
20
35689.0
11
62271.0
21
35689.0
0
LINE
8
BLACK
10
62271.0
20
35689.0
11
62271.0
21
35439.0
0
LINE
8
BLACK
10
50900.0
20
36149.0
11
50900.0
21
35349.0
0
LINE
8
BLACK
10
50900.0
20
35349.0
11
51500.0
21
35349.0
0
LINE
8
BLACK
10
51500.0
20
35349.0
11
51500.0
21
36149.0
0
LINE
8
BLACK
10
51500.0
20
36149.0
11
50900.0
21
36149.0
0
LINE
8
BLACK
10
52200.0
20
36149.0
11
52200.0
21
35349.0
0
LINE
8
BLACK
10
52200.0
20
35349.0
11
52800.0
21
35349.0
0
LINE
8
BLACK
10
52800.0
20
35349.0
11
52800.0
21
36149.0
0
LINE
8
BLACK
10
52800.0
20
36149.0
11
52200.0
21
36149.0
0
LINE
8
BLACK
10
55636.0
20
35585.0
11
54836.0
21
35585.0
0
LINE
8
BLACK
10
54836.0
20
35585.0
11
54836.0
21
34985.0
0
LINE
8
BLACK
10
54836.0
20
34985.0
11
55636.0
21
34985.0
0
LINE
8
BLACK
10
55636.0
20
34985.0
11
55636.0
21
35585.0
0
LINE
8
BLACK
10
55636.0
20
34285.0
11
54836.0
21
34285.0
0
LINE
8
BLACK
10
54836.0
20
34285.0
11
54836.0
21
33685.0
0
LINE
8
BLACK
10
54836.0
20
33685.0
11
55636.0
21
33685.0
0
LINE
8
BLACK
10
55636.0
20
33685.0
11
55636.0
21
34285.0
0
LINE
8
BLACK
10
51139.0
20
38435.0
11
51139.0
21
39235.0
0
LINE
8
BLACK
10
51139.0
20
39235.0
11
50539.0
21
39235.0
0
LINE
8
BLACK
10
50539.0
20
39235.0
11
50539.0
21
38435.0
0
LINE
8
BLACK
10
50539.0
20
38435.0
11
51139.0
21
38435.0
0
LINE
8
BLACK
10
49839.0
20
38435.0
11
49839.0
21
39235.0
0
LINE
8
BLACK
10
49839.0
20
39235.0
11
49239.0
21
39235.0
0
LINE
8
BLACK
10
49239.0
20
39235.0
11
49239.0
21
38435.0
0
LINE
8
BLACK
10
49239.0
20
38435.0
11
49839.0
21
38435.0
0
LINE
8
BLACK
10
48608.0
20
39503.0
11
49408.0
21
39503.0
0
LINE
8
BLACK
10
49408.0
20
39503.0
11
49408.0
21
40103.0
0
LINE
8
BLACK
10
49408.0
20
40103.0
11
48608.0
21
40103.0
0
LINE
8
BLACK
10
48608.0
20
40103.0
11
48608.0
21
39503.0
0
LINE
8
BLACK
10
48608.0
20
40803.0
11
49408.0
21
40803.0
0
LINE
8
BLACK
10
49408.0
20
40803.0
11
49408.0
21
41403.0
0
LINE
8
BLACK
10
49408.0
20
41403.0
11
48608.0
21
41403.0
0
LINE
8
BLACK
10
48608.0
20
41403.0
11
48608.0
21
40803.0
0
LINE
8
BLACK
10
53276.0
20
48328.0
11
53276.0
21
47878.0
0
LINE
8
BLACK
10
53276.0
20
47878.0
11
53526.0
21
47878.0
0
LINE
8
BLACK
10
53526.0
20
47878.0
11
53526.0
21
48328.0
0
LINE
8
BLACK
10
53526.0
20
48328.0
11
53276.0
21
48328.0
0
LINE
8
BLACK
10
53876.0
20
48328.0
11
53876.0
21
47878.0
0
LINE
8
BLACK
10
53876.0
20
47878.0
11
54126.0
21
47878.0
0
LINE
8
BLACK
10
54126.0
20
47878.0
11
54126.0
21
48328.0
0
LINE
8
BLACK
10
54126.0
20
48328.0
11
53876.0
21
48328.0
0
LINE
8
BLACK
10
53082.0
20
48055.0
11
53082.0
21
48505.0
0
LINE
8
BLACK
10
53082.0
20
48505.0
11
52832.0
21
48505.0
0
LINE
8
BLACK
10
52832.0
20
48505.0
11
52832.0
21
48055.0
0
LINE
8
BLACK
10
52832.0
20
48055.0
11
53082.0
21
48055.0
0
LINE
8
BLACK
10
52482.0
20
48055.0
11
52482.0
21
48505.0
0
LINE
8
BLACK
10
52482.0
20
48505.0
11
52232.0
21
48505.0
0
LINE
8
BLACK
10
52232.0
20
48505.0
11
52232.0
21
48055.0
0
LINE
8
BLACK
10
52232.0
20
48055.0
11
52482.0
21
48055.0
0
LINE
8
BLACK
10
49453.0
20
42426.0
11
49003.0
21
42426.0
0
LINE
8
BLACK
10
49003.0
20
42426.0
11
49003.0
21
42176.0
0
LINE
8
BLACK
10
49003.0
20
42176.0
11
49453.0
21
42176.0
0
LINE
8
BLACK
10
49453.0
20
42176.0
11
49453.0
21
42426.0
0
LINE
8
BLACK
10
49453.0
20
41826.0
11
49003.0
21
41826.0
0
LINE
8
BLACK
10
49003.0
20
41826.0
11
49003.0
21
41576.0
0
LINE
8
BLACK
10
49003.0
20
41576.0
11
49453.0
21
41576.0
0
LINE
8
BLACK
10
49453.0
20
41576.0
11
49453.0
21
41826.0
0
LINE
8
BLACK
10
57016.0
20
42343.0
11
56566.0
21
42343.0
0
LINE
8
BLACK
10
56566.0
20
42343.0
11
56566.0
21
42093.0
0
LINE
8
BLACK
10
56566.0
20
42093.0
11
57016.0
21
42093.0
0
LINE
8
BLACK
10
57016.0
20
42093.0
11
57016.0
21
42343.0
0
LINE
8
BLACK
10
57016.0
20
41743.0
11
56566.0
21
41743.0
0
LINE
8
BLACK
10
56566.0
20
41743.0
11
56566.0
21
41493.0
0
LINE
8
BLACK
10
56566.0
20
41493.0
11
57016.0
21
41493.0
0
LINE
8
BLACK
10
57016.0
20
41493.0
11
57016.0
21
41743.0
0
LINE
8
BLACK
10
57591.0
20
42343.0
11
57141.0
21
42343.0
0
LINE
8
BLACK
10
57141.0
20
42343.0
11
57141.0
21
42093.0
0
LINE
8
BLACK
10
57141.0
20
42093.0
11
57591.0
21
42093.0
0
LINE
8
BLACK
10
57591.0
20
42093.0
11
57591.0
21
42343.0
0
LINE
8
BLACK
10
57591.0
20
41743.0
11
57141.0
21
41743.0
0
LINE
8
BLACK
10
57141.0
20
41743.0
11
57141.0
21
41493.0
0
LINE
8
BLACK
10
57141.0
20
41493.0
11
57591.0
21
41493.0
0
LINE
8
BLACK
10
57591.0
20
41493.0
11
57591.0
21
41743.0
0
LINE
8
BLACK
10
53280.0
20
42347.0
11
52830.0
21
42347.0
0
LINE
8
BLACK
10
52830.0
20
42347.0
11
52830.0
21
42097.0
0
LINE
8
BLACK
10
52830.0
20
42097.0
11
53280.0
21
42097.0
0
LINE
8
BLACK
10
53280.0
20
42097.0
11
53280.0
21
42347.0
0
LINE
8
BLACK
10
53280.0
20
41747.0
11
52830.0
21
41747.0
0
LINE
8
BLACK
10
52830.0
20
41747.0
11
52830.0
21
41497.0
0
LINE
8
BLACK
10
52830.0
20
41497.0
11
53280.0
21
41497.0
0
LINE
8
BLACK
10
53280.0
20
41497.0
11
53280.0
21
41747.0
0
LINE
8
BLACK
10
54060.0
20
42347.0
11
53610.0
21
42347.0
0
LINE
8
BLACK
10
53610.0
20
42347.0
11
53610.0
21
42097.0
0
LINE
8
BLACK
10
53610.0
20
42097.0
11
54060.0
21
42097.0
0
LINE
8
BLACK
10
54060.0
20
42097.0
11
54060.0
21
42347.0
0
LINE
8
BLACK
10
54060.0
20
41747.0
11
53610.0
21
41747.0
0
LINE
8
BLACK
10
53610.0
20
41747.0
11
53610.0
21
41497.0
0
LINE
8
BLACK
10
53610.0
20
41497.0
11
54060.0
21
41497.0
0
LINE
8
BLACK
10
54060.0
20
41497.0
11
54060.0
21
41747.0
0
LINE
8
BLACK
10
55603.0
20
42343.0
11
55153.0
21
42343.0
0
LINE
8
BLACK
10
55153.0
20
42343.0
11
55153.0
21
42093.0
0
LINE
8
BLACK
10
55153.0
20
42093.0
11
55603.0
21
42093.0
0
LINE
8
BLACK
10
55603.0
20
42093.0
11
55603.0
21
42343.0
0
LINE
8
BLACK
10
55603.0
20
41743.0
11
55153.0
21
41743.0
0
LINE
8
BLACK
10
55153.0
20
41743.0
11
55153.0
21
41493.0
0
LINE
8
BLACK
10
55153.0
20
41493.0
11
55603.0
21
41493.0
0
LINE
8
BLACK
10
55603.0
20
41493.0
11
55603.0
21
41743.0
0
LINE
8
BLACK
10
55965.0
20
38170.0
11
55515.0
21
38170.0
0
LINE
8
BLACK
10
55515.0
20
38170.0
11
55515.0
21
37920.0
0
LINE
8
BLACK
10
55515.0
20
37920.0
11
55965.0
21
37920.0
0
LINE
8
BLACK
10
55965.0
20
37920.0
11
55965.0
21
38170.0
0
LINE
8
BLACK
10
55965.0
20
37570.0
11
55515.0
21
37570.0
0
LINE
8
BLACK
10
55515.0
20
37570.0
11
55515.0
21
37320.0
0
LINE
8
BLACK
10
55515.0
20
37320.0
11
55965.0
21
37320.0
0
LINE
8
BLACK
10
55965.0
20
37320.0
11
55965.0
21
37570.0
0
LINE
8
BLACK
10
50661.0
20
39378.0
11
50661.0
21
39828.0
0
LINE
8
BLACK
10
50661.0
20
39828.0
11
50411.0
21
39828.0
0
LINE
8
BLACK
10
50411.0
20
39828.0
11
50411.0
21
39378.0
0
LINE
8
BLACK
10
50411.0
20
39378.0
11
50661.0
21
39378.0
0
LINE
8
BLACK
10
50061.0
20
39378.0
11
50061.0
21
39828.0
0
LINE
8
BLACK
10
50061.0
20
39828.0
11
49811.0
21
39828.0
0
LINE
8
BLACK
10
49811.0
20
39828.0
11
49811.0
21
39378.0
0
LINE
8
BLACK
10
49811.0
20
39378.0
11
50061.0
21
39378.0
0
LINE
8
BLACK
10
50249.0
20
31315.0
11
49799.0
21
31315.0
0
LINE
8
BLACK
10
49799.0
20
31315.0
11
49799.0
21
31065.0
0
LINE
8
BLACK
10
49799.0
20
31065.0
11
50249.0
21
31065.0
0
LINE
8
BLACK
10
50249.0
20
31065.0
11
50249.0
21
31315.0
0
LINE
8
BLACK
10
50249.0
20
30715.0
11
49799.0
21
30715.0
0
LINE
8
BLACK
10
49799.0
20
30715.0
11
49799.0
21
30465.0
0
LINE
8
BLACK
10
49799.0
20
30465.0
11
50249.0
21
30465.0
0
LINE
8
BLACK
10
50249.0
20
30465.0
11
50249.0
21
30715.0
0
LINE
8
BLACK
10
51170.0
20
32315.0
11
50720.0
21
32315.0
0
LINE
8
BLACK
10
50720.0
20
32315.0
11
50720.0
21
32065.0
0
LINE
8
BLACK
10
50720.0
20
32065.0
11
51170.0
21
32065.0
0
LINE
8
BLACK
10
51170.0
20
32065.0
11
51170.0
21
32315.0
0
LINE
8
BLACK
10
51170.0
20
31715.0
11
50720.0
21
31715.0
0
LINE
8
BLACK
10
50720.0
20
31715.0
11
50720.0
21
31465.0
0
LINE
8
BLACK
10
50720.0
20
31465.0
11
51170.0
21
31465.0
0
LINE
8
BLACK
10
51170.0
20
31465.0
11
51170.0
21
31715.0
0
LINE
8
BLACK
10
51678.0
20
37153.0
11
51228.0
21
37153.0
0
LINE
8
BLACK
10
51228.0
20
37153.0
11
51228.0
21
36903.0
0
LINE
8
BLACK
10
51228.0
20
36903.0
11
51678.0
21
36903.0
0
LINE
8
BLACK
10
51678.0
20
36903.0
11
51678.0
21
37153.0
0
LINE
8
BLACK
10
51678.0
20
36553.0
11
51228.0
21
36553.0
0
LINE
8
BLACK
10
51228.0
20
36553.0
11
51228.0
21
36303.0
0
LINE
8
BLACK
10
51228.0
20
36303.0
11
51678.0
21
36303.0
0
LINE
8
BLACK
10
51678.0
20
36303.0
11
51678.0
21
36553.0
0
LINE
8
BLACK
10
51811.0
20
37934.0
11
51811.0
21
37484.0
0
LINE
8
BLACK
10
51811.0
20
37484.0
11
52061.0
21
37484.0
0
LINE
8
BLACK
10
52061.0
20
37484.0
11
52061.0
21
37934.0
0
LINE
8
BLACK
10
52061.0
20
37934.0
11
51811.0
21
37934.0
0
LINE
8
BLACK
10
52411.0
20
37934.0
11
52411.0
21
37484.0
0
LINE
8
BLACK
10
52411.0
20
37484.0
11
52661.0
21
37484.0
0
LINE
8
BLACK
10
52661.0
20
37484.0
11
52661.0
21
37934.0
0
LINE
8
BLACK
10
52661.0
20
37934.0
11
52411.0
21
37934.0
0
LINE
8
BLACK
10
51819.0
20
37339.0
11
51819.0
21
36889.0
0
LINE
8
BLACK
10
51819.0
20
36889.0
11
52069.0
21
36889.0
0
LINE
8
BLACK
10
52069.0
20
36889.0
11
52069.0
21
37339.0
0
LINE
8
BLACK
10
52069.0
20
37339.0
11
51819.0
21
37339.0
0
LINE
8
BLACK
10
52419.0
20
37339.0
11
52419.0
21
36889.0
0
LINE
8
BLACK
10
52419.0
20
36889.0
11
52669.0
21
36889.0
0
LINE
8
BLACK
10
52669.0
20
36889.0
11
52669.0
21
37339.0
0
LINE
8
BLACK
10
52669.0
20
37339.0
11
52419.0
21
37339.0
0
LINE
8
BLACK
10
51819.0
20
36752.0
11
51819.0
21
36302.0
0
LINE
8
BLACK
10
51819.0
20
36302.0
11
52069.0
21
36302.0
0
LINE
8
BLACK
10
52069.0
20
36302.0
11
52069.0
21
36752.0
0
LINE
8
BLACK
10
52069.0
20
36752.0
11
51819.0
21
36752.0
0
LINE
8
BLACK
10
52419.0
20
36752.0
11
52419.0
21
36302.0
0
LINE
8
BLACK
10
52419.0
20
36302.0
11
52669.0
21
36302.0
0
LINE
8
BLACK
10
52669.0
20
36302.0
11
52669.0
21
36752.0
0
LINE
8
BLACK
10
52669.0
20
36752.0
11
52419.0
21
36752.0
0
LINE
8
BLACK
10
53803.0
20
34623.0
11
53803.0
21
34173.0
0
LINE
8
BLACK
10
53803.0
20
34173.0
11
54053.0
21
34173.0
0
LINE
8
BLACK
10
54053.0
20
34173.0
11
54053.0
21
34623.0
0
LINE
8
BLACK
10
54053.0
20
34623.0
11
53803.0
21
34623.0
0
LINE
8
BLACK
10
54403.0
20
34623.0
11
54403.0
21
34173.0
0
LINE
8
BLACK
10
54403.0
20
34173.0
11
54653.0
21
34173.0
0
LINE
8
BLACK
10
54653.0
20
34173.0
11
54653.0
21
34623.0
0
LINE
8
BLACK
10
54653.0
20
34623.0
11
54403.0
21
34623.0
0
LINE
8
BLACK
10
53803.0
20
35198.0
11
53803.0
21
34748.0
0
LINE
8
BLACK
10
53803.0
20
34748.0
11
54053.0
21
34748.0
0
LINE
8
BLACK
10
54053.0
20
34748.0
11
54053.0
21
35198.0
0
LINE
8
BLACK
10
54053.0
20
35198.0
11
53803.0
21
35198.0
0
LINE
8
BLACK
10
54403.0
20
35198.0
11
54403.0
21
34748.0
0
LINE
8
BLACK
10
54403.0
20
34748.0
11
54653.0
21
34748.0
0
LINE
8
BLACK
10
54653.0
20
34748.0
11
54653.0
21
35198.0
0
LINE
8
BLACK
10
54653.0
20
35198.0
11
54403.0
21
35198.0
0
LINE
8
BLACK
10
58811.0
20
42238.0
11
58811.0
21
41788.0
0
LINE
8
BLACK
10
58811.0
20
41788.0
11
59061.0
21
41788.0
0
LINE
8
BLACK
10
59061.0
20
41788.0
11
59061.0
21
42238.0
0
LINE
8
BLACK
10
59061.0
20
42238.0
11
58811.0
21
42238.0
0
LINE
8
BLACK
10
59411.0
20
42238.0
11
59411.0
21
41788.0
0
LINE
8
BLACK
10
59411.0
20
41788.0
11
59661.0
21
41788.0
0
LINE
8
BLACK
10
59661.0
20
41788.0
11
59661.0
21
42238.0
0
LINE
8
BLACK
10
59661.0
20
42238.0
11
59411.0
21
42238.0
0
LINE
8
BLACK
10
51960.0
20
40099.0
11
52410.0
21
40099.0
0
LINE
8
BLACK
10
52410.0
20
40099.0
11
52410.0
21
40349.0
0
LINE
8
BLACK
10
52410.0
20
40349.0
11
51960.0
21
40349.0
0
LINE
8
BLACK
10
51960.0
20
40349.0
11
51960.0
21
40099.0
0
LINE
8
BLACK
10
51960.0
20
40699.0
11
52410.0
21
40699.0
0
LINE
8
BLACK
10
52410.0
20
40699.0
11
52410.0
21
40949.0
0
LINE
8
BLACK
10
52410.0
20
40949.0
11
51960.0
21
40949.0
0
LINE
8
BLACK
10
51960.0
20
40949.0
11
51960.0
21
40699.0
0
LINE
8
BLACK
10
53606.0
20
39714.0
11
54056.0
21
39714.0
0
LINE
8
BLACK
10
54056.0
20
39714.0
11
54056.0
21
39964.0
0
LINE
8
BLACK
10
54056.0
20
39964.0
11
53606.0
21
39964.0
0
LINE
8
BLACK
10
53606.0
20
39964.0
11
53606.0
21
39714.0
0
LINE
8
BLACK
10
53606.0
20
40314.0
11
54056.0
21
40314.0
0
LINE
8
BLACK
10
54056.0
20
40314.0
11
54056.0
21
40564.0
0
LINE
8
BLACK
10
54056.0
20
40564.0
11
53606.0
21
40564.0
0
LINE
8
BLACK
10
53606.0
20
40564.0
11
53606.0
21
40314.0
0
LINE
8
BLACK
10
53039.0
20
39714.0
11
53489.0
21
39714.0
0
LINE
8
BLACK
10
53489.0
20
39714.0
11
53489.0
21
39964.0
0
LINE
8
BLACK
10
53489.0
20
39964.0
11
53039.0
21
39964.0
0
LINE
8
BLACK
10
53039.0
20
39964.0
11
53039.0
21
39714.0
0
LINE
8
BLACK
10
53039.0
20
40314.0
11
53489.0
21
40314.0
0
LINE
8
BLACK
10
53489.0
20
40314.0
11
53489.0
21
40564.0
0
LINE
8
BLACK
10
53489.0
20
40564.0
11
53039.0
21
40564.0
0
LINE
8
BLACK
10
53039.0
20
40564.0
11
53039.0
21
40314.0
0
LINE
8
BLACK
10
50148.0
20
40126.0
11
50598.0
21
40126.0
0
LINE
8
BLACK
10
50598.0
20
40126.0
11
50598.0
21
40376.0
0
LINE
8
BLACK
10
50598.0
20
40376.0
11
50148.0
21
40376.0
0
LINE
8
BLACK
10
50148.0
20
40376.0
11
50148.0
21
40126.0
0
LINE
8
BLACK
10
50148.0
20
40726.0
11
50598.0
21
40726.0
0
LINE
8
BLACK
10
50598.0
20
40726.0
11
50598.0
21
40976.0
0
LINE
8
BLACK
10
50598.0
20
40976.0
11
50148.0
21
40976.0
0
LINE
8
BLACK
10
50148.0
20
40976.0
11
50148.0
21
40726.0
0
LINE
8
BLACK
10
51614.0
20
40390.0
11
51614.0
21
40840.0
0
LINE
8
BLACK
10
51614.0
20
40840.0
11
51364.0
21
40840.0
0
LINE
8
BLACK
10
51364.0
20
40840.0
11
51364.0
21
40390.0
0
LINE
8
BLACK
10
51364.0
20
40390.0
11
51614.0
21
40390.0
0
LINE
8
BLACK
10
51014.0
20
40390.0
11
51014.0
21
40840.0
0
LINE
8
BLACK
10
51014.0
20
40840.0
11
50764.0
21
40840.0
0
LINE
8
BLACK
10
50764.0
20
40840.0
11
50764.0
21
40390.0
0
LINE
8
BLACK
10
50764.0
20
40390.0
11
51014.0
21
40390.0
0
LINE
8
BLACK
10
49574.0
20
40126.0
11
50024.0
21
40126.0
0
LINE
8
BLACK
10
50024.0
20
40126.0
11
50024.0
21
40376.0
0
LINE
8
BLACK
10
50024.0
20
40376.0
11
49574.0
21
40376.0
0
LINE
8
BLACK
10
49574.0
20
40376.0
11
49574.0
21
40126.0
0
LINE
8
BLACK
10
49574.0
20
40726.0
11
50024.0
21
40726.0
0
LINE
8
BLACK
10
50024.0
20
40726.0
11
50024.0
21
40976.0
0
LINE
8
BLACK
10
50024.0
20
40976.0
11
49574.0
21
40976.0
0
LINE
8
BLACK
10
49574.0
20
40976.0
11
49574.0
21
40726.0
0
LINE
8
BLACK
10
52371.0
20
39493.0
11
51921.0
21
39493.0
0
LINE
8
BLACK
10
51921.0
20
39493.0
11
51921.0
21
39243.0
0
LINE
8
BLACK
10
51921.0
20
39243.0
11
52371.0
21
39243.0
0
LINE
8
BLACK
10
52371.0
20
39243.0
11
52371.0
21
39493.0
0
LINE
8
BLACK
10
52371.0
20
38893.0
11
51921.0
21
38893.0
0
LINE
8
BLACK
10
51921.0
20
38893.0
11
51921.0
21
38643.0
0
LINE
8
BLACK
10
51921.0
20
38643.0
11
52371.0
21
38643.0
0
LINE
8
BLACK
10
52371.0
20
38643.0
11
52371.0
21
38893.0
0
LINE
8
BLACK
10
52788.0
20
41139.0
11
52788.0
21
40689.0
0
LINE
8
BLACK
10
52788.0
20
40689.0
11
53038.0
21
40689.0
0
LINE
8
BLACK
10
53038.0
20
40689.0
11
53038.0
21
41139.0
0
LINE
8
BLACK
10
53038.0
20
41139.0
11
52788.0
21
41139.0
0
LINE
8
BLACK
10
53388.0
20
41139.0
11
53388.0
21
40689.0
0
LINE
8
BLACK
10
53388.0
20
40689.0
11
53638.0
21
40689.0
0
LINE
8
BLACK
10
53638.0
20
40689.0
11
53638.0
21
41139.0
0
LINE
8
BLACK
10
53638.0
20
41139.0
11
53388.0
21
41139.0
0
LINE
8
BLACK
10
56629.0
20
39800.0
11
57079.0
21
39800.0
0
LINE
8
BLACK
10
57079.0
20
39800.0
11
57079.0
21
40050.0
0
LINE
8
BLACK
10
57079.0
20
40050.0
11
56629.0
21
40050.0
0
LINE
8
BLACK
10
56629.0
20
40050.0
11
56629.0
21
39800.0
0
LINE
8
BLACK
10
56629.0
20
40400.0
11
57079.0
21
40400.0
0
LINE
8
BLACK
10
57079.0
20
40400.0
11
57079.0
21
40650.0
0
LINE
8
BLACK
10
57079.0
20
40650.0
11
56629.0
21
40650.0
0
LINE
8
BLACK
10
56629.0
20
40650.0
11
56629.0
21
40400.0
0
LINE
8
BLACK
10
57912.0
20
38979.0
11
57912.0
21
38179.0
0
LINE
8
BLACK
10
57912.0
20
38179.0
11
58512.0
21
38179.0
0
LINE
8
BLACK
10
58512.0
20
38179.0
11
58512.0
21
38979.0
0
LINE
8
BLACK
10
58512.0
20
38979.0
11
57912.0
21
38979.0
0
LINE
8
BLACK
10
59212.0
20
38979.0
11
59212.0
21
38179.0
0
LINE
8
BLACK
10
59212.0
20
38179.0
11
59812.0
21
38179.0
0
LINE
8
BLACK
10
59812.0
20
38179.0
11
59812.0
21
38979.0
0
LINE
8
BLACK
10
59812.0
20
38979.0
11
59212.0
21
38979.0
0
LINE
8
BLACK
10
59536.0
20
36209.0
11
59086.0
21
36209.0
0
LINE
8
BLACK
10
59086.0
20
36209.0
11
59086.0
21
35959.0
0
LINE
8
BLACK
10
59086.0
20
35959.0
11
59536.0
21
35959.0
0
LINE
8
BLACK
10
59536.0
20
35959.0
11
59536.0
21
36209.0
0
LINE
8
BLACK
10
59536.0
20
35609.0
11
59086.0
21
35609.0
0
LINE
8
BLACK
10
59086.0
20
35609.0
11
59086.0
21
35359.0
0
LINE
8
BLACK
10
59086.0
20
35359.0
11
59536.0
21
35359.0
0
LINE
8
BLACK
10
59536.0
20
35359.0
11
59536.0
21
35609.0
0
LINE
8
BLACK
10
58890.0
20
36728.0
11
58890.0
21
37178.0
0
LINE
8
BLACK
10
58890.0
20
37178.0
11
58640.0
21
37178.0
0
LINE
8
BLACK
10
58640.0
20
37178.0
11
58640.0
21
36728.0
0
LINE
8
BLACK
10
58640.0
20
36728.0
11
58890.0
21
36728.0
0
LINE
8
BLACK
10
58290.0
20
36728.0
11
58290.0
21
37178.0
0
LINE
8
BLACK
10
58290.0
20
37178.0
11
58040.0
21
37178.0
0
LINE
8
BLACK
10
58040.0
20
37178.0
11
58040.0
21
36728.0
0
LINE
8
BLACK
10
58040.0
20
36728.0
11
58290.0
21
36728.0
0
LINE
8
BLACK
10
57815.0
20
33966.0
11
57815.0
21
33516.0
0
LINE
8
BLACK
10
57815.0
20
33516.0
11
58065.0
21
33516.0
0
LINE
8
BLACK
10
58065.0
20
33516.0
11
58065.0
21
33966.0
0
LINE
8
BLACK
10
58065.0
20
33966.0
11
57815.0
21
33966.0
0
LINE
8
BLACK
10
58415.0
20
33966.0
11
58415.0
21
33516.0
0
LINE
8
BLACK
10
58415.0
20
33516.0
11
58665.0
21
33516.0
0
LINE
8
BLACK
10
58665.0
20
33516.0
11
58665.0
21
33966.0
0
LINE
8
BLACK
10
58665.0
20
33966.0
11
58415.0
21
33966.0
0
LINE
8
BLACK
10
60654.0
20
35608.0
11
60654.0
21
35158.0
0
LINE
8
BLACK
10
60654.0
20
35158.0
11
60904.0
21
35158.0
0
LINE
8
BLACK
10
60904.0
20
35158.0
11
60904.0
21
35608.0
0
LINE
8
BLACK
10
60904.0
20
35608.0
11
60654.0
21
35608.0
0
LINE
8
BLACK
10
61254.0
20
35608.0
11
61254.0
21
35158.0
0
LINE
8
BLACK
10
61254.0
20
35158.0
11
61504.0
21
35158.0
0
LINE
8
BLACK
10
61504.0
20
35158.0
11
61504.0
21
35608.0
0
LINE
8
BLACK
10
61504.0
20
35608.0
11
61254.0
21
35608.0
0
LINE
8
BLACK
10
59874.0
20
37588.0
11
59874.0
21
37138.0
0
LINE
8
BLACK
10
59874.0
20
37138.0
11
60124.0
21
37138.0
0
LINE
8
BLACK
10
60124.0
20
37138.0
11
60124.0
21
37588.0
0
LINE
8
BLACK
10
60124.0
20
37588.0
11
59874.0
21
37588.0
0
LINE
8
BLACK
10
60474.0
20
37588.0
11
60474.0
21
37138.0
0
LINE
8
BLACK
10
60474.0
20
37138.0
11
60724.0
21
37138.0
0
LINE
8
BLACK
10
60724.0
20
37138.0
11
60724.0
21
37588.0
0
LINE
8
BLACK
10
60724.0
20
37588.0
11
60474.0
21
37588.0
0
LINE
8
BLACK
10
60622.0
20
34426.0
11
60622.0
21
33976.0
0
LINE
8
BLACK
10
60622.0
20
33976.0
11
60872.0
21
33976.0
0
LINE
8
BLACK
10
60872.0
20
33976.0
11
60872.0
21
34426.0
0
LINE
8
BLACK
10
60872.0
20
34426.0
11
60622.0
21
34426.0
0
LINE
8
BLACK
10
61222.0
20
34426.0
11
61222.0
21
33976.0
0
LINE
8
BLACK
10
61222.0
20
33976.0
11
61472.0
21
33976.0
0
LINE
8
BLACK
10
61472.0
20
33976.0
11
61472.0
21
34426.0
0
LINE
8
BLACK
10
61472.0
20
34426.0
11
61222.0
21
34426.0
0
LINE
8
BLACK
10
59874.0
20
37017.0
11
59874.0
21
36567.0
0
LINE
8
BLACK
10
59874.0
20
36567.0
11
60124.0
21
36567.0
0
LINE
8
BLACK
10
60124.0
20
36567.0
11
60124.0
21
37017.0
0
LINE
8
BLACK
10
60124.0
20
37017.0
11
59874.0
21
37017.0
0
LINE
8
BLACK
10
60474.0
20
37017.0
11
60474.0
21
36567.0
0
LINE
8
BLACK
10
60474.0
20
36567.0
11
60724.0
21
36567.0
0
LINE
8
BLACK
10
60724.0
20
36567.0
11
60724.0
21
37017.0
0
LINE
8
BLACK
10
60724.0
20
37017.0
11
60474.0
21
37017.0
0
LINE
8
BLACK
10
57445.0
20
37476.0
11
57445.0
21
37926.0
0
LINE
8
BLACK
10
57445.0
20
37926.0
11
57195.0
21
37926.0
0
LINE
8
BLACK
10
57195.0
20
37926.0
11
57195.0
21
37476.0
0
LINE
8
BLACK
10
57195.0
20
37476.0
11
57445.0
21
37476.0
0
LINE
8
BLACK
10
56845.0
20
37476.0
11
56845.0
21
37926.0
0
LINE
8
BLACK
10
56845.0
20
37926.0
11
56595.0
21
37926.0
0
LINE
8
BLACK
10
56595.0
20
37926.0
11
56595.0
21
37476.0
0
LINE
8
BLACK
10
56595.0
20
37476.0
11
56845.0
21
37476.0
0
LINE
8
BLACK
10
58103.0
20
34864.0
11
58103.0
21
34414.0
0
LINE
8
BLACK
10
58103.0
20
34414.0
11
58353.0
21
34414.0
0
LINE
8
BLACK
10
58353.0
20
34414.0
11
58353.0
21
34864.0
0
LINE
8
BLACK
10
58353.0
20
34864.0
11
58103.0
21
34864.0
0
LINE
8
BLACK
10
58703.0
20
34864.0
11
58703.0
21
34414.0
0
LINE
8
BLACK
10
58703.0
20
34414.0
11
58953.0
21
34414.0
0
LINE
8
BLACK
10
58953.0
20
34414.0
11
58953.0
21
34864.0
0
LINE
8
BLACK
10
58953.0
20
34864.0
11
58703.0
21
34864.0
0
LINE
8
BLACK
10
58496.0
20
39631.0
11
58496.0
21
39181.0
0
LINE
8
BLACK
10
58496.0
20
39181.0
11
58746.0
21
39181.0
0
LINE
8
BLACK
10
58746.0
20
39181.0
11
58746.0
21
39631.0
0
LINE
8
BLACK
10
58746.0
20
39631.0
11
58496.0
21
39631.0
0
LINE
8
BLACK
10
59096.0
20
39631.0
11
59096.0
21
39181.0
0
LINE
8
BLACK
10
59096.0
20
39181.0
11
59346.0
21
39181.0
0
LINE
8
BLACK
10
59346.0
20
39181.0
11
59346.0
21
39631.0
0
LINE
8
BLACK
10
59346.0
20
39631.0
11
59096.0
21
39631.0
0
LINE
8
BLACK
10
61355.0
20
30382.0
11
60805.0
21
30382.0
0
LINE
8
BLACK
10
60805.0
20
30382.0
11
60805.0
21
30032.0
0
LINE
8
BLACK
10
60805.0
20
30032.0
11
61355.0
21
30032.0
0
LINE
8
BLACK
10
61355.0
20
30032.0
11
61355.0
21
30382.0
0
LINE
8
BLACK
10
61355.0
20
29632.0
11
60805.0
21
29632.0
0
LINE
8
BLACK
10
60805.0
20
29632.0
11
60805.0
21
29282.0
0
LINE
8
BLACK
10
60805.0
20
29282.0
11
61355.0
21
29282.0
0
LINE
8
BLACK
10
61355.0
20
29282.0
11
61355.0
21
29632.0
0
LINE
8
BLACK
10
55949.0
20
39549.0
11
56499.0
21
39549.0
0
LINE
8
BLACK
10
56499.0
20
39549.0
11
56499.0
21
39899.0
0
LINE
8
BLACK
10
56499.0
20
39899.0
11
55949.0
21
39899.0
0
LINE
8
BLACK
10
55949.0
20
39899.0
11
55949.0
21
39549.0
0
LINE
8
BLACK
10
55949.0
20
40299.0
11
56499.0
21
40299.0
0
LINE
8
BLACK
10
56499.0
20
40299.0
11
56499.0
21
40649.0
0
LINE
8
BLACK
10
56499.0
20
40649.0
11
55949.0
21
40649.0
0
LINE
8
BLACK
10
55949.0
20
40649.0
11
55949.0
21
40299.0
0
LINE
8
BLACK
10
58044.0
20
37957.0
11
58044.0
21
37407.0
0
LINE
8
BLACK
10
58044.0
20
37407.0
11
58394.0
21
37407.0
0
LINE
8
BLACK
10
58394.0
20
37407.0
11
58394.0
21
37957.0
0
LINE
8
BLACK
10
58394.0
20
37957.0
11
58044.0
21
37957.0
0
LINE
8
BLACK
10
58794.0
20
37957.0
11
58794.0
21
37407.0
0
LINE
8
BLACK
10
58794.0
20
37407.0
11
59144.0
21
37407.0
0
LINE
8
BLACK
10
59144.0
20
37407.0
11
59144.0
21
37957.0
0
LINE
8
BLACK
10
59144.0
20
37957.0
11
58794.0
21
37957.0
0
LINE
8
BLACK
10
55197.0
20
39549.0
11
55747.0
21
39549.0
0
LINE
8
BLACK
10
55747.0
20
39549.0
11
55747.0
21
39899.0
0
LINE
8
BLACK
10
55747.0
20
39899.0
11
55197.0
21
39899.0
0
LINE
8
BLACK
10
55197.0
20
39899.0
11
55197.0
21
39549.0
0
LINE
8
BLACK
10
55197.0
20
40299.0
11
55747.0
21
40299.0
0
LINE
8
BLACK
10
55747.0
20
40299.0
11
55747.0
21
40649.0
0
LINE
8
BLACK
10
55747.0
20
40649.0
11
55197.0
21
40649.0
0
LINE
8
BLACK
10
55197.0
20
40649.0
11
55197.0
21
40299.0
0
LINE
8
BLACK
10
64231.0
20
28637.0
11
65031.0
21
28637.0
0
LINE
8
BLACK
10
65031.0
20
28637.0
11
65031.0
21
29237.0
0
LINE
8
BLACK
10
65031.0
20
29237.0
11
64231.0
21
29237.0
0
LINE
8
BLACK
10
64231.0
20
29237.0
11
64231.0
21
28637.0
0
LINE
8
BLACK
10
64231.0
20
29937.0
11
65031.0
21
29937.0
0
LINE
8
BLACK
10
65031.0
20
29937.0
11
65031.0
21
30537.0
0
LINE
8
BLACK
10
65031.0
20
30537.0
11
64231.0
21
30537.0
0
LINE
8
BLACK
10
64231.0
20
30537.0
11
64231.0
21
29937.0
0
LINE
8
BLACK
10
64708.0
20
33602.0
11
64472.0
21
33602.0
0
LINE
8
BLACK
10
64472.0
20
33602.0
11
64472.0
21
33406.0
0
LINE
8
BLACK
10
64472.0
20
33406.0
11
64708.0
21
33406.0
0
LINE
8
BLACK
10
64708.0
20
33406.0
11
64708.0
21
33602.0
0
LINE
8
BLACK
10
64708.0
20
33210.0
11
64472.0
21
33210.0
0
LINE
8
BLACK
10
64472.0
20
33210.0
11
64472.0
21
33014.0
0
LINE
8
BLACK
10
64472.0
20
33014.0
11
64708.0
21
33014.0
0
LINE
8
BLACK
10
64708.0
20
33014.0
11
64708.0
21
33210.0
0
LINE
8
BLACK
10
64198.0
20
33406.0
11
63962.0
21
33406.0
0
LINE
8
BLACK
10
63962.0
20
33406.0
11
63962.0
21
33210.0
0
LINE
8
BLACK
10
63962.0
20
33210.0
11
64198.0
21
33210.0
0
LINE
8
BLACK
10
64198.0
20
33210.0
11
64198.0
21
33406.0
0
LINE
8
BLACK
10
62994.0
20
29824.0
11
63230.0
21
29824.0
0
LINE
8
BLACK
10
63230.0
20
29824.0
11
63230.0
21
30020.0
0
LINE
8
BLACK
10
63230.0
20
30020.0
11
62994.0
21
30020.0
0
LINE
8
BLACK
10
62994.0
20
30020.0
11
62994.0
21
29824.0
0
LINE
8
BLACK
10
62994.0
20
30216.0
11
63230.0
21
30216.0
0
LINE
8
BLACK
10
63230.0
20
30216.0
11
63230.0
21
30412.0
0
LINE
8
BLACK
10
63230.0
20
30412.0
11
62994.0
21
30412.0
0
LINE
8
BLACK
10
62994.0
20
30412.0
11
62994.0
21
30216.0
0
LINE
8
BLACK
10
63504.0
20
30020.0
11
63740.0
21
30020.0
0
LINE
8
BLACK
10
63740.0
20
30020.0
11
63740.0
21
30216.0
0
LINE
8
BLACK
10
63740.0
20
30216.0
11
63504.0
21
30216.0
0
LINE
8
BLACK
10
63504.0
20
30216.0
11
63504.0
21
30020.0
0
LINE
8
BLACK
10
64712.0
20
31590.0
11
64476.0
21
31590.0
0
LINE
8
BLACK
10
64476.0
20
31590.0
11
64476.0
21
31394.0
0
LINE
8
BLACK
10
64476.0
20
31394.0
11
64712.0
21
31394.0
0
LINE
8
BLACK
10
64712.0
20
31394.0
11
64712.0
21
31590.0
0
LINE
8
BLACK
10
64712.0
20
31198.0
11
64476.0
21
31198.0
0
LINE
8
BLACK
10
64476.0
20
31198.0
11
64476.0
21
31002.0
0
LINE
8
BLACK
10
64476.0
20
31002.0
11
64712.0
21
31002.0
0
LINE
8
BLACK
10
64712.0
20
31002.0
11
64712.0
21
31198.0
0
LINE
8
BLACK
10
64202.0
20
31394.0
11
63966.0
21
31394.0
0
LINE
8
BLACK
10
63966.0
20
31394.0
11
63966.0
21
31198.0
0
LINE
8
BLACK
10
63966.0
20
31198.0
11
64202.0
21
31198.0
0
LINE
8
BLACK
10
64202.0
20
31198.0
11
64202.0
21
31394.0
0
LINE
8
BLACK
10
64712.0
20
32610.0
11
64476.0
21
32610.0
0
LINE
8
BLACK
10
64476.0
20
32610.0
11
64476.0
21
32414.0
0
LINE
8
BLACK
10
64476.0
20
32414.0
11
64712.0
21
32414.0
0
LINE
8
BLACK
10
64712.0
20
32414.0
11
64712.0
21
32610.0
0
LINE
8
BLACK
10
64712.0
20
32218.0
11
64476.0
21
32218.0
0
LINE
8
BLACK
10
64476.0
20
32218.0
11
64476.0
21
32022.0
0
LINE
8
BLACK
10
64476.0
20
32022.0
11
64712.0
21
32022.0
0
LINE
8
BLACK
10
64712.0
20
32022.0
11
64712.0
21
32218.0
0
LINE
8
BLACK
10
64202.0
20
32414.0
11
63966.0
21
32414.0
0
LINE
8
BLACK
10
63966.0
20
32414.0
11
63966.0
21
32218.0
0
LINE
8
BLACK
10
63966.0
20
32218.0
11
64202.0
21
32218.0
0
LINE
8
BLACK
10
64202.0
20
32218.0
11
64202.0
21
32414.0
0
LINE
8
BLACK
10
57479.0
20
42640.0
11
57479.0
21
43100.0
0
LINE
8
BLACK
10
57479.0
20
43100.0
11
57353.0
21
43100.0
0
LINE
8
BLACK
10
57353.0
20
43100.0
11
57353.0
21
42640.0
0
LINE
8
BLACK
10
57353.0
20
42640.0
11
57479.0
21
42640.0
0
LINE
8
BLACK
10
57479.0
20
47220.0
11
57479.0
21
47680.0
0
LINE
8
BLACK
10
57479.0
20
47680.0
11
57353.0
21
47680.0
0
LINE
8
BLACK
10
57353.0
20
47680.0
11
57353.0
21
47220.0
0
LINE
8
BLACK
10
57353.0
20
47220.0
11
57479.0
21
47220.0
0
LINE
8
BLACK
10
57223.0
20
42640.0
11
57223.0
21
43100.0
0
LINE
8
BLACK
10
57223.0
20
43100.0
11
57097.0
21
43100.0
0
LINE
8
BLACK
10
57097.0
20
43100.0
11
57097.0
21
42640.0
0
LINE
8
BLACK
10
57097.0
20
42640.0
11
57223.0
21
42640.0
0
LINE
8
BLACK
10
57223.0
20
47220.0
11
57223.0
21
47680.0
0
LINE
8
BLACK
10
57223.0
20
47680.0
11
57097.0
21
47680.0
0
LINE
8
BLACK
10
57097.0
20
47680.0
11
57097.0
21
47220.0
0
LINE
8
BLACK
10
57097.0
20
47220.0
11
57223.0
21
47220.0
0
LINE
8
BLACK
10
56967.0
20
42640.0
11
56967.0
21
43100.0
0
LINE
8
BLACK
10
56967.0
20
43100.0
11
56841.0
21
43100.0
0
LINE
8
BLACK
10
56841.0
20
43100.0
11
56841.0
21
42640.0
0
LINE
8
BLACK
10
56841.0
20
42640.0
11
56967.0
21
42640.0
0
LINE
8
BLACK
10
56967.0
20
47220.0
11
56967.0
21
47680.0
0
LINE
8
BLACK
10
56967.0
20
47680.0
11
56841.0
21
47680.0
0
LINE
8
BLACK
10
56841.0
20
47680.0
11
56841.0
21
47220.0
0
LINE
8
BLACK
10
56841.0
20
47220.0
11
56967.0
21
47220.0
0
LINE
8
BLACK
10
56711.0
20
42640.0
11
56711.0
21
43100.0
0
LINE
8
BLACK
10
56711.0
20
43100.0
11
56585.0
21
43100.0
0
LINE
8
BLACK
10
56585.0
20
43100.0
11
56585.0
21
42640.0
0
LINE
8
BLACK
10
56585.0
20
42640.0
11
56711.0
21
42640.0
0
LINE
8
BLACK
10
56711.0
20
47220.0
11
56711.0
21
47680.0
0
LINE
8
BLACK
10
56711.0
20
47680.0
11
56585.0
21
47680.0
0
LINE
8
BLACK
10
56585.0
20
47680.0
11
56585.0
21
47220.0
0
LINE
8
BLACK
10
56585.0
20
47220.0
11
56711.0
21
47220.0
0
LINE
8
BLACK
10
56455.0
20
42640.0
11
56455.0
21
43100.0
0
LINE
8
BLACK
10
56455.0
20
43100.0
11
56329.0
21
43100.0
0
LINE
8
BLACK
10
56329.0
20
43100.0
11
56329.0
21
42640.0
0
LINE
8
BLACK
10
56329.0
20
42640.0
11
56455.0
21
42640.0
0
LINE
8
BLACK
10
56455.0
20
47220.0
11
56455.0
21
47680.0
0
LINE
8
BLACK
10
56455.0
20
47680.0
11
56329.0
21
47680.0
0
LINE
8
BLACK
10
56329.0
20
47680.0
11
56329.0
21
47220.0
0
LINE
8
BLACK
10
56329.0
20
47220.0
11
56455.0
21
47220.0
0
LINE
8
BLACK
10
56199.0
20
42640.0
11
56199.0
21
43100.0
0
LINE
8
BLACK
10
56199.0
20
43100.0
11
56073.0
21
43100.0
0
LINE
8
BLACK
10
56073.0
20
43100.0
11
56073.0
21
42640.0
0
LINE
8
BLACK
10
56073.0
20
42640.0
11
56199.0
21
42640.0
0
LINE
8
BLACK
10
56199.0
20
47220.0
11
56199.0
21
47680.0
0
LINE
8
BLACK
10
56199.0
20
47680.0
11
56073.0
21
47680.0
0
LINE
8
BLACK
10
56073.0
20
47680.0
11
56073.0
21
47220.0
0
LINE
8
BLACK
10
56073.0
20
47220.0
11
56199.0
21
47220.0
0
LINE
8
BLACK
10
55943.0
20
42640.0
11
55943.0
21
43100.0
0
LINE
8
BLACK
10
55943.0
20
43100.0
11
55817.0
21
43100.0
0
LINE
8
BLACK
10
55817.0
20
43100.0
11
55817.0
21
42640.0
0
LINE
8
BLACK
10
55817.0
20
42640.0
11
55943.0
21
42640.0
0
LINE
8
BLACK
10
55943.0
20
47220.0
11
55943.0
21
47680.0
0
LINE
8
BLACK
10
55943.0
20
47680.0
11
55817.0
21
47680.0
0
LINE
8
BLACK
10
55817.0
20
47680.0
11
55817.0
21
47220.0
0
LINE
8
BLACK
10
55817.0
20
47220.0
11
55943.0
21
47220.0
0
LINE
8
BLACK
10
55687.0
20
42640.0
11
55687.0
21
43100.0
0
LINE
8
BLACK
10
55687.0
20
43100.0
11
55561.0
21
43100.0
0
LINE
8
BLACK
10
55561.0
20
43100.0
11
55561.0
21
42640.0
0
LINE
8
BLACK
10
55561.0
20
42640.0
11
55687.0
21
42640.0
0
LINE
8
BLACK
10
55687.0
20
47220.0
11
55687.0
21
47680.0
0
LINE
8
BLACK
10
55687.0
20
47680.0
11
55561.0
21
47680.0
0
LINE
8
BLACK
10
55561.0
20
47680.0
11
55561.0
21
47220.0
0
LINE
8
BLACK
10
55561.0
20
47220.0
11
55687.0
21
47220.0
0
LINE
8
BLACK
10
55431.0
20
42640.0
11
55431.0
21
43100.0
0
LINE
8
BLACK
10
55431.0
20
43100.0
11
55305.0
21
43100.0
0
LINE
8
BLACK
10
55305.0
20
43100.0
11
55305.0
21
42640.0
0
LINE
8
BLACK
10
55305.0
20
42640.0
11
55431.0
21
42640.0
0
LINE
8
BLACK
10
55431.0
20
47220.0
11
55431.0
21
47680.0
0
LINE
8
BLACK
10
55431.0
20
47680.0
11
55305.0
21
47680.0
0
LINE
8
BLACK
10
55305.0
20
47680.0
11
55305.0
21
47220.0
0
LINE
8
BLACK
10
55305.0
20
47220.0
11
55431.0
21
47220.0
0
LINE
8
BLACK
10
55175.0
20
42640.0
11
55175.0
21
43100.0
0
LINE
8
BLACK
10
55175.0
20
43100.0
11
55049.0
21
43100.0
0
LINE
8
BLACK
10
55049.0
20
43100.0
11
55049.0
21
42640.0
0
LINE
8
BLACK
10
55049.0
20
42640.0
11
55175.0
21
42640.0
0
LINE
8
BLACK
10
55175.0
20
47220.0
11
55175.0
21
47680.0
0
LINE
8
BLACK
10
55175.0
20
47680.0
11
55049.0
21
47680.0
0
LINE
8
BLACK
10
55049.0
20
47680.0
11
55049.0
21
47220.0
0
LINE
8
BLACK
10
55049.0
20
47220.0
11
55175.0
21
47220.0
0
LINE
8
BLACK
10
54919.0
20
42640.0
11
54919.0
21
43100.0
0
LINE
8
BLACK
10
54919.0
20
43100.0
11
54793.0
21
43100.0
0
LINE
8
BLACK
10
54793.0
20
43100.0
11
54793.0
21
42640.0
0
LINE
8
BLACK
10
54793.0
20
42640.0
11
54919.0
21
42640.0
0
LINE
8
BLACK
10
54919.0
20
47220.0
11
54919.0
21
47680.0
0
LINE
8
BLACK
10
54919.0
20
47680.0
11
54793.0
21
47680.0
0
LINE
8
BLACK
10
54793.0
20
47680.0
11
54793.0
21
47220.0
0
LINE
8
BLACK
10
54793.0
20
47220.0
11
54919.0
21
47220.0
0
LINE
8
BLACK
10
54663.0
20
42640.0
11
54663.0
21
43100.0
0
LINE
8
BLACK
10
54663.0
20
43100.0
11
54537.0
21
43100.0
0
LINE
8
BLACK
10
54537.0
20
43100.0
11
54537.0
21
42640.0
0
LINE
8
BLACK
10
54537.0
20
42640.0
11
54663.0
21
42640.0
0
LINE
8
BLACK
10
54663.0
20
47220.0
11
54663.0
21
47680.0
0
LINE
8
BLACK
10
54663.0
20
47680.0
11
54537.0
21
47680.0
0
LINE
8
BLACK
10
54537.0
20
47680.0
11
54537.0
21
47220.0
0
LINE
8
BLACK
10
54537.0
20
47220.0
11
54663.0
21
47220.0
0
LINE
8
BLACK
10
54407.0
20
42640.0
11
54407.0
21
43100.0
0
LINE
8
BLACK
10
54407.0
20
43100.0
11
54281.0
21
43100.0
0
LINE
8
BLACK
10
54281.0
20
43100.0
11
54281.0
21
42640.0
0
LINE
8
BLACK
10
54281.0
20
42640.0
11
54407.0
21
42640.0
0
LINE
8
BLACK
10
54407.0
20
47220.0
11
54407.0
21
47680.0
0
LINE
8
BLACK
10
54407.0
20
47680.0
11
54281.0
21
47680.0
0
LINE
8
BLACK
10
54281.0
20
47680.0
11
54281.0
21
47220.0
0
LINE
8
BLACK
10
54281.0
20
47220.0
11
54407.0
21
47220.0
0
LINE
8
BLACK
10
54151.0
20
42640.0
11
54151.0
21
43100.0
0
LINE
8
BLACK
10
54151.0
20
43100.0
11
54025.0
21
43100.0
0
LINE
8
BLACK
10
54025.0
20
43100.0
11
54025.0
21
42640.0
0
LINE
8
BLACK
10
54025.0
20
42640.0
11
54151.0
21
42640.0
0
LINE
8
BLACK
10
54151.0
20
47220.0
11
54151.0
21
47680.0
0
LINE
8
BLACK
10
54151.0
20
47680.0
11
54025.0
21
47680.0
0
LINE
8
BLACK
10
54025.0
20
47680.0
11
54025.0
21
47220.0
0
LINE
8
BLACK
10
54025.0
20
47220.0
11
54151.0
21
47220.0
0
LINE
8
BLACK
10
53895.0
20
42640.0
11
53895.0
21
43100.0
0
LINE
8
BLACK
10
53895.0
20
43100.0
11
53769.0
21
43100.0
0
LINE
8
BLACK
10
53769.0
20
43100.0
11
53769.0
21
42640.0
0
LINE
8
BLACK
10
53769.0
20
42640.0
11
53895.0
21
42640.0
0
LINE
8
BLACK
10
53895.0
20
47220.0
11
53895.0
21
47680.0
0
LINE
8
BLACK
10
53895.0
20
47680.0
11
53769.0
21
47680.0
0
LINE
8
BLACK
10
53769.0
20
47680.0
11
53769.0
21
47220.0
0
LINE
8
BLACK
10
53769.0
20
47220.0
11
53895.0
21
47220.0
0
LINE
8
BLACK
10
53639.0
20
42640.0
11
53639.0
21
43100.0
0
LINE
8
BLACK
10
53639.0
20
43100.0
11
53513.0
21
43100.0
0
LINE
8
BLACK
10
53513.0
20
43100.0
11
53513.0
21
42640.0
0
LINE
8
BLACK
10
53513.0
20
42640.0
11
53639.0
21
42640.0
0
LINE
8
BLACK
10
53639.0
20
47220.0
11
53639.0
21
47680.0
0
LINE
8
BLACK
10
53639.0
20
47680.0
11
53513.0
21
47680.0
0
LINE
8
BLACK
10
53513.0
20
47680.0
11
53513.0
21
47220.0
0
LINE
8
BLACK
10
53513.0
20
47220.0
11
53639.0
21
47220.0
0
LINE
8
BLACK
10
53383.0
20
42640.0
11
53383.0
21
43100.0
0
LINE
8
BLACK
10
53383.0
20
43100.0
11
53257.0
21
43100.0
0
LINE
8
BLACK
10
53257.0
20
43100.0
11
53257.0
21
42640.0
0
LINE
8
BLACK
10
53257.0
20
42640.0
11
53383.0
21
42640.0
0
LINE
8
BLACK
10
53383.0
20
47220.0
11
53383.0
21
47680.0
0
LINE
8
BLACK
10
53383.0
20
47680.0
11
53257.0
21
47680.0
0
LINE
8
BLACK
10
53257.0
20
47680.0
11
53257.0
21
47220.0
0
LINE
8
BLACK
10
53257.0
20
47220.0
11
53383.0
21
47220.0
0
LINE
8
BLACK
10
53127.0
20
42640.0
11
53127.0
21
43100.0
0
LINE
8
BLACK
10
53127.0
20
43100.0
11
53001.0
21
43100.0
0
LINE
8
BLACK
10
53001.0
20
43100.0
11
53001.0
21
42640.0
0
LINE
8
BLACK
10
53001.0
20
42640.0
11
53127.0
21
42640.0
0
LINE
8
BLACK
10
53127.0
20
47220.0
11
53127.0
21
47680.0
0
LINE
8
BLACK
10
53127.0
20
47680.0
11
53001.0
21
47680.0
0
LINE
8
BLACK
10
53001.0
20
47680.0
11
53001.0
21
47220.0
0
LINE
8
BLACK
10
53001.0
20
47220.0
11
53127.0
21
47220.0
0
LINE
8
BLACK
10
52871.0
20
42640.0
11
52871.0
21
43100.0
0
LINE
8
BLACK
10
52871.0
20
43100.0
11
52745.0
21
43100.0
0
LINE
8
BLACK
10
52745.0
20
43100.0
11
52745.0
21
42640.0
0
LINE
8
BLACK
10
52745.0
20
42640.0
11
52871.0
21
42640.0
0
LINE
8
BLACK
10
52871.0
20
47220.0
11
52871.0
21
47680.0
0
LINE
8
BLACK
10
52871.0
20
47680.0
11
52745.0
21
47680.0
0
LINE
8
BLACK
10
52745.0
20
47680.0
11
52745.0
21
47220.0
0
LINE
8
BLACK
10
52745.0
20
47220.0
11
52871.0
21
47220.0
0
LINE
8
BLACK
10
52615.0
20
42640.0
11
52615.0
21
43100.0
0
LINE
8
BLACK
10
52615.0
20
43100.0
11
52489.0
21
43100.0
0
LINE
8
BLACK
10
52489.0
20
43100.0
11
52489.0
21
42640.0
0
LINE
8
BLACK
10
52489.0
20
42640.0
11
52615.0
21
42640.0
0
LINE
8
BLACK
10
52615.0
20
47220.0
11
52615.0
21
47680.0
0
LINE
8
BLACK
10
52615.0
20
47680.0
11
52489.0
21
47680.0
0
LINE
8
BLACK
10
52489.0
20
47680.0
11
52489.0
21
47220.0
0
LINE
8
BLACK
10
52489.0
20
47220.0
11
52615.0
21
47220.0
0
LINE
8
BLACK
10
52359.0
20
42640.0
11
52359.0
21
43100.0
0
LINE
8
BLACK
10
52359.0
20
43100.0
11
52233.0
21
43100.0
0
LINE
8
BLACK
10
52233.0
20
43100.0
11
52233.0
21
42640.0
0
LINE
8
BLACK
10
52233.0
20
42640.0
11
52359.0
21
42640.0
0
LINE
8
BLACK
10
52359.0
20
47220.0
11
52359.0
21
47680.0
0
LINE
8
BLACK
10
52359.0
20
47680.0
11
52233.0
21
47680.0
0
LINE
8
BLACK
10
52233.0
20
47680.0
11
52233.0
21
47220.0
0
LINE
8
BLACK
10
52233.0
20
47220.0
11
52359.0
21
47220.0
0
LINE
8
BLACK
10
52103.0
20
42640.0
11
52103.0
21
43100.0
0
LINE
8
BLACK
10
52103.0
20
43100.0
11
51977.0
21
43100.0
0
LINE
8
BLACK
10
51977.0
20
43100.0
11
51977.0
21
42640.0
0
LINE
8
BLACK
10
51977.0
20
42640.0
11
52103.0
21
42640.0
0
LINE
8
BLACK
10
52103.0
20
47220.0
11
52103.0
21
47680.0
0
LINE
8
BLACK
10
52103.0
20
47680.0
11
51977.0
21
47680.0
0
LINE
8
BLACK
10
51977.0
20
47680.0
11
51977.0
21
47220.0
0
LINE
8
BLACK
10
51977.0
20
47220.0
11
52103.0
21
47220.0
0
LINE
8
BLACK
10
51847.0
20
42640.0
11
51847.0
21
43100.0
0
LINE
8
BLACK
10
51847.0
20
43100.0
11
51721.0
21
43100.0
0
LINE
8
BLACK
10
51721.0
20
43100.0
11
51721.0
21
42640.0
0
LINE
8
BLACK
10
51721.0
20
42640.0
11
51847.0
21
42640.0
0
LINE
8
BLACK
10
51847.0
20
47220.0
11
51847.0
21
47680.0
0
LINE
8
BLACK
10
51847.0
20
47680.0
11
51721.0
21
47680.0
0
LINE
8
BLACK
10
51721.0
20
47680.0
11
51721.0
21
47220.0
0
LINE
8
BLACK
10
51721.0
20
47220.0
11
51847.0
21
47220.0
0
LINE
8
BLACK
10
51591.0
20
42640.0
11
51591.0
21
43100.0
0
LINE
8
BLACK
10
51591.0
20
43100.0
11
51465.0
21
43100.0
0
LINE
8
BLACK
10
51465.0
20
43100.0
11
51465.0
21
42640.0
0
LINE
8
BLACK
10
51465.0
20
42640.0
11
51591.0
21
42640.0
0
LINE
8
BLACK
10
51591.0
20
47220.0
11
51591.0
21
47680.0
0
LINE
8
BLACK
10
51591.0
20
47680.0
11
51465.0
21
47680.0
0
LINE
8
BLACK
10
51465.0
20
47680.0
11
51465.0
21
47220.0
0
LINE
8
BLACK
10
51465.0
20
47220.0
11
51591.0
21
47220.0
0
LINE
8
BLACK
10
51335.0
20
42640.0
11
51335.0
21
43100.0
0
LINE
8
BLACK
10
51335.0
20
43100.0
11
51209.0
21
43100.0
0
LINE
8
BLACK
10
51209.0
20
43100.0
11
51209.0
21
42640.0
0
LINE
8
BLACK
10
51209.0
20
42640.0
11
51335.0
21
42640.0
0
LINE
8
BLACK
10
51335.0
20
47220.0
11
51335.0
21
47680.0
0
LINE
8
BLACK
10
51335.0
20
47680.0
11
51209.0
21
47680.0
0
LINE
8
BLACK
10
51209.0
20
47680.0
11
51209.0
21
47220.0
0
LINE
8
BLACK
10
51209.0
20
47220.0
11
51335.0
21
47220.0
0
LINE
8
BLACK
10
51079.0
20
42640.0
11
51079.0
21
43100.0
0
LINE
8
BLACK
10
51079.0
20
43100.0
11
50953.0
21
43100.0
0
LINE
8
BLACK
10
50953.0
20
43100.0
11
50953.0
21
42640.0
0
LINE
8
BLACK
10
50953.0
20
42640.0
11
51079.0
21
42640.0
0
LINE
8
BLACK
10
51079.0
20
47220.0
11
51079.0
21
47680.0
0
LINE
8
BLACK
10
51079.0
20
47680.0
11
50953.0
21
47680.0
0
LINE
8
BLACK
10
50953.0
20
47680.0
11
50953.0
21
47220.0
0
LINE
8
BLACK
10
50953.0
20
47220.0
11
51079.0
21
47220.0
0
LINE
8
BLACK
10
50823.0
20
42640.0
11
50823.0
21
43100.0
0
LINE
8
BLACK
10
50823.0
20
43100.0
11
50697.0
21
43100.0
0
LINE
8
BLACK
10
50697.0
20
43100.0
11
50697.0
21
42640.0
0
LINE
8
BLACK
10
50697.0
20
42640.0
11
50823.0
21
42640.0
0
LINE
8
BLACK
10
50823.0
20
47220.0
11
50823.0
21
47680.0
0
LINE
8
BLACK
10
50823.0
20
47680.0
11
50697.0
21
47680.0
0
LINE
8
BLACK
10
50697.0
20
47680.0
11
50697.0
21
47220.0
0
LINE
8
BLACK
10
50697.0
20
47220.0
11
50823.0
21
47220.0
0
LINE
8
BLACK
10
50567.0
20
42640.0
11
50567.0
21
43100.0
0
LINE
8
BLACK
10
50567.0
20
43100.0
11
50441.0
21
43100.0
0
LINE
8
BLACK
10
50441.0
20
43100.0
11
50441.0
21
42640.0
0
LINE
8
BLACK
10
50441.0
20
42640.0
11
50567.0
21
42640.0
0
LINE
8
BLACK
10
50567.0
20
47220.0
11
50567.0
21
47680.0
0
LINE
8
BLACK
10
50567.0
20
47680.0
11
50441.0
21
47680.0
0
LINE
8
BLACK
10
50441.0
20
47680.0
11
50441.0
21
47220.0
0
LINE
8
BLACK
10
50441.0
20
47220.0
11
50567.0
21
47220.0
0
LINE
8
BLACK
10
50311.0
20
42640.0
11
50311.0
21
43100.0
0
LINE
8
BLACK
10
50311.0
20
43100.0
11
50185.0
21
43100.0
0
LINE
8
BLACK
10
50185.0
20
43100.0
11
50185.0
21
42640.0
0
LINE
8
BLACK
10
50185.0
20
42640.0
11
50311.0
21
42640.0
0
LINE
8
BLACK
10
50311.0
20
47220.0
11
50311.0
21
47680.0
0
LINE
8
BLACK
10
50311.0
20
47680.0
11
50185.0
21
47680.0
0
LINE
8
BLACK
10
50185.0
20
47680.0
11
50185.0
21
47220.0
0
LINE
8
BLACK
10
50185.0
20
47220.0
11
50311.0
21
47220.0
0
LINE
8
BLACK
10
50055.0
20
42640.0
11
50055.0
21
43100.0
0
LINE
8
BLACK
10
50055.0
20
43100.0
11
49929.0
21
43100.0
0
LINE
8
BLACK
10
49929.0
20
43100.0
11
49929.0
21
42640.0
0
LINE
8
BLACK
10
49929.0
20
42640.0
11
50055.0
21
42640.0
0
LINE
8
BLACK
10
50055.0
20
47220.0
11
50055.0
21
47680.0
0
LINE
8
BLACK
10
50055.0
20
47680.0
11
49929.0
21
47680.0
0
LINE
8
BLACK
10
49929.0
20
47680.0
11
49929.0
21
47220.0
0
LINE
8
BLACK
10
49929.0
20
47220.0
11
50055.0
21
47220.0
0
LINE
8
BLACK
10
49799.0
20
42640.0
11
49799.0
21
43100.0
0
LINE
8
BLACK
10
49799.0
20
43100.0
11
49673.0
21
43100.0
0
LINE
8
BLACK
10
49673.0
20
43100.0
11
49673.0
21
42640.0
0
LINE
8
BLACK
10
49673.0
20
42640.0
11
49799.0
21
42640.0
0
LINE
8
BLACK
10
49799.0
20
47220.0
11
49799.0
21
47680.0
0
LINE
8
BLACK
10
49799.0
20
47680.0
11
49673.0
21
47680.0
0
LINE
8
BLACK
10
49673.0
20
47680.0
11
49673.0
21
47220.0
0
LINE
8
BLACK
10
49673.0
20
47220.0
11
49799.0
21
47220.0
0
LINE
8
BLACK
10
49543.0
20
42640.0
11
49543.0
21
43100.0
0
LINE
8
BLACK
10
49543.0
20
43100.0
11
49417.0
21
43100.0
0
LINE
8
BLACK
10
49417.0
20
43100.0
11
49417.0
21
42640.0
0
LINE
8
BLACK
10
49417.0
20
42640.0
11
49543.0
21
42640.0
0
LINE
8
BLACK
10
49543.0
20
47220.0
11
49543.0
21
47680.0
0
LINE
8
BLACK
10
49543.0
20
47680.0
11
49417.0
21
47680.0
0
LINE
8
BLACK
10
49417.0
20
47680.0
11
49417.0
21
47220.0
0
LINE
8
BLACK
10
49417.0
20
47220.0
11
49543.0
21
47220.0
0
LINE
8
BLACK
10
49287.0
20
42640.0
11
49287.0
21
43100.0
0
LINE
8
BLACK
10
49287.0
20
43100.0
11
49161.0
21
43100.0
0
LINE
8
BLACK
10
49161.0
20
43100.0
11
49161.0
21
42640.0
0
LINE
8
BLACK
10
49161.0
20
42640.0
11
49287.0
21
42640.0
0
LINE
8
BLACK
10
49287.0
20
47220.0
11
49287.0
21
47680.0
0
LINE
8
BLACK
10
49287.0
20
47680.0
11
49161.0
21
47680.0
0
LINE
8
BLACK
10
49161.0
20
47680.0
11
49161.0
21
47220.0
0
LINE
8
BLACK
10
49161.0
20
47220.0
11
49287.0
21
47220.0
0
LINE
8
BLACK
10
57662.0
20
35096.0
11
58134.0
21
35096.0
0
LINE
8
BLACK
10
58134.0
20
35096.0
11
58134.0
21
35646.0
0
LINE
8
BLACK
10
58134.0
20
35646.0
11
57662.0
21
35646.0
0
LINE
8
BLACK
10
57662.0
20
35646.0
11
57662.0
21
35096.0
0
LINE
8
BLACK
10
57662.0
20
35962.0
11
58134.0
21
35962.0
0
LINE
8
BLACK
10
58134.0
20
35962.0
11
58134.0
21
36512.0
0
LINE
8
BLACK
10
58134.0
20
36512.0
11
57662.0
21
36512.0
0
LINE
8
BLACK
10
57662.0
20
36512.0
11
57662.0
21
35962.0
0
LINE
8
BLACK
10
58331.0
20
35962.0
11
58803.0
21
35962.0
0
LINE
8
BLACK
10
58803.0
20
35962.0
11
58803.0
21
36512.0
0
LINE
8
BLACK
10
58803.0
20
36512.0
11
58331.0
21
36512.0
0
LINE
8
BLACK
10
58331.0
20
36512.0
11
58331.0
21
35962.0
0
LINE
8
BLACK
10
58331.0
20
35096.0
11
58803.0
21
35096.0
0
LINE
8
BLACK
10
58803.0
20
35096.0
11
58803.0
21
35646.0
0
LINE
8
BLACK
10
58803.0
20
35646.0
11
58331.0
21
35646.0
0
LINE
8
BLACK
10
58331.0
20
35646.0
11
58331.0
21
35096.0
0
LINE
8
BLACK
10
51213.0
20
31066.0
11
50663.0
21
31066.0
0
LINE
8
BLACK
10
50663.0
20
31066.0
11
50663.0
21
30716.0
0
LINE
8
BLACK
10
50663.0
20
30716.0
11
51213.0
21
30716.0
0
LINE
8
BLACK
10
51213.0
20
30716.0
11
51213.0
21
31066.0
0
LINE
8
BLACK
10
51213.0
20
30316.0
11
50663.0
21
30316.0
0
LINE
8
BLACK
10
50663.0
20
30316.0
11
50663.0
21
29966.0
0
LINE
8
BLACK
10
50663.0
20
29966.0
11
51213.0
21
29966.0
0
LINE
8
BLACK
10
51213.0
20
29966.0
11
51213.0
21
30316.0
0
LINE
8
BLACK
10
51239.0
20
41155.0
11
51239.0
21
41705.0
0
LINE
8
BLACK
10
51239.0
20
41705.0
11
50889.0
21
41705.0
0
LINE
8
BLACK
10
50889.0
20
41705.0
11
50889.0
21
41155.0
0
LINE
8
BLACK
10
50889.0
20
41155.0
11
51239.0
21
41155.0
0
LINE
8
BLACK
10
50489.0
20
41155.0
11
50489.0
21
41705.0
0
LINE
8
BLACK
10
50489.0
20
41705.0
11
50139.0
21
41705.0
0
LINE
8
BLACK
10
50139.0
20
41705.0
11
50139.0
21
41155.0
0
LINE
8
BLACK
10
50139.0
20
41155.0
11
50489.0
21
41155.0
0
LINE
8
BLACK
10
50885.0
20
48135.0
11
50885.0
21
48685.0
0
LINE
8
BLACK
10
50885.0
20
48685.0
11
50535.0
21
48685.0
0
LINE
8
BLACK
10
50535.0
20
48685.0
11
50535.0
21
48135.0
0
LINE
8
BLACK
10
50535.0
20
48135.0
11
50885.0
21
48135.0
0
LINE
8
BLACK
10
50135.0
20
48135.0
11
50135.0
21
48685.0
0
LINE
8
BLACK
10
50135.0
20
48685.0
11
49785.0
21
48685.0
0
LINE
8
BLACK
10
49785.0
20
48685.0
11
49785.0
21
48135.0
0
LINE
8
BLACK
10
49785.0
20
48135.0
11
50135.0
21
48135.0
0
LINE
8
BLACK
10
34055.0
20
31232.0
11
34055.0
21
30682.0
0
LINE
8
BLACK
10
34055.0
20
30682.0
11
34405.0
21
30682.0
0
LINE
8
BLACK
10
34405.0
20
30682.0
11
34405.0
21
31232.0
0
LINE
8
BLACK
10
34405.0
20
31232.0
11
34055.0
21
31232.0
0
LINE
8
BLACK
10
34805.0
20
31232.0
11
34805.0
21
30682.0
0
LINE
8
BLACK
10
34805.0
20
30682.0
11
35155.0
21
30682.0
0
LINE
8
BLACK
10
35155.0
20
30682.0
11
35155.0
21
31232.0
0
LINE
8
BLACK
10
35155.0
20
31232.0
11
34805.0
21
31232.0
0
LINE
8
BLACK
10
55568.0
20
48764.0
11
55568.0
21
48214.0
0
LINE
8
BLACK
10
55568.0
20
48214.0
11
55918.0
21
48214.0
0
LINE
8
BLACK
10
55918.0
20
48214.0
11
55918.0
21
48764.0
0
LINE
8
BLACK
10
55918.0
20
48764.0
11
55568.0
21
48764.0
0
LINE
8
BLACK
10
56318.0
20
48764.0
11
56318.0
21
48214.0
0
LINE
8
BLACK
10
56318.0
20
48214.0
11
56668.0
21
48214.0
0
LINE
8
BLACK
10
56668.0
20
48214.0
11
56668.0
21
48764.0
0
LINE
8
BLACK
10
56668.0
20
48764.0
11
56318.0
21
48764.0
0
LINE
8
BLACK
10
38498.0
20
45875.0
11
38498.0
21
45325.0
0
LINE
8
BLACK
10
38498.0
20
45325.0
11
38848.0
21
45325.0
0
LINE
8
BLACK
10
38848.0
20
45325.0
11
38848.0
21
45875.0
0
LINE
8
BLACK
10
38848.0
20
45875.0
11
38498.0
21
45875.0
0
LINE
8
BLACK
10
39248.0
20
45875.0
11
39248.0
21
45325.0
0
LINE
8
BLACK
10
39248.0
20
45325.0
11
39598.0
21
45325.0
0
LINE
8
BLACK
10
39598.0
20
45325.0
11
39598.0
21
45875.0
0
LINE
8
BLACK
10
39598.0
20
45875.0
11
39248.0
21
45875.0
0
LINE
8
BLACK
10
39430.0
20
43581.0
11
39980.0
21
43581.0
0
LINE
8
BLACK
10
39980.0
20
43581.0
11
39980.0
21
43931.0
0
LINE
8
BLACK
10
39980.0
20
43931.0
11
39430.0
21
43931.0
0
LINE
8
BLACK
10
39430.0
20
43931.0
11
39430.0
21
43581.0
0
LINE
8
BLACK
10
39430.0
20
44331.0
11
39980.0
21
44331.0
0
LINE
8
BLACK
10
39980.0
20
44331.0
11
39980.0
21
44681.0
0
LINE
8
BLACK
10
39980.0
20
44681.0
11
39430.0
21
44681.0
0
LINE
8
BLACK
10
39430.0
20
44681.0
11
39430.0
21
44331.0
0
LINE
8
BLACK
10
39070.0
20
44384.0
11
39070.0
21
44934.0
0
LINE
8
BLACK
10
39070.0
20
44934.0
11
38720.0
21
44934.0
0
LINE
8
BLACK
10
38720.0
20
44934.0
11
38720.0
21
44384.0
0
LINE
8
BLACK
10
38720.0
20
44384.0
11
39070.0
21
44384.0
0
LINE
8
BLACK
10
38320.0
20
44384.0
11
38320.0
21
44934.0
0
LINE
8
BLACK
10
38320.0
20
44934.0
11
37970.0
21
44934.0
0
LINE
8
BLACK
10
37970.0
20
44934.0
11
37970.0
21
44384.0
0
LINE
8
BLACK
10
37970.0
20
44384.0
11
38320.0
21
44384.0
0
LINE
8
BLACK
10
41044.0
20
44229.0
11
41044.0
21
44679.0
0
LINE
8
BLACK
10
41044.0
20
44679.0
11
40794.0
21
44679.0
0
LINE
8
BLACK
10
40794.0
20
44679.0
11
40794.0
21
44229.0
0
LINE
8
BLACK
10
40794.0
20
44229.0
11
41044.0
21
44229.0
0
LINE
8
BLACK
10
40444.0
20
44229.0
11
40444.0
21
44679.0
0
LINE
8
BLACK
10
40444.0
20
44679.0
11
40194.0
21
44679.0
0
LINE
8
BLACK
10
40194.0
20
44679.0
11
40194.0
21
44229.0
0
LINE
8
BLACK
10
40194.0
20
44229.0
11
40444.0
21
44229.0
0
LINE
8
BLACK
10
41332.0
20
44679.0
11
41332.0
21
44229.0
0
LINE
8
BLACK
10
41332.0
20
44229.0
11
41582.0
21
44229.0
0
LINE
8
BLACK
10
41582.0
20
44229.0
11
41582.0
21
44679.0
0
LINE
8
BLACK
10
41582.0
20
44679.0
11
41332.0
21
44679.0
0
LINE
8
BLACK
10
41932.0
20
44679.0
11
41932.0
21
44229.0
0
LINE
8
BLACK
10
41932.0
20
44229.0
11
42182.0
21
44229.0
0
LINE
8
BLACK
10
42182.0
20
44229.0
11
42182.0
21
44679.0
0
LINE
8
BLACK
10
42182.0
20
44679.0
11
41932.0
21
44679.0
0
LINE
8
BLACK
10
39016.0
20
43780.0
11
39016.0
21
44230.0
0
LINE
8
BLACK
10
39016.0
20
44230.0
11
38766.0
21
44230.0
0
LINE
8
BLACK
10
38766.0
20
44230.0
11
38766.0
21
43780.0
0
LINE
8
BLACK
10
38766.0
20
43780.0
11
39016.0
21
43780.0
0
LINE
8
BLACK
10
38416.0
20
43780.0
11
38416.0
21
44230.0
0
LINE
8
BLACK
10
38416.0
20
44230.0
11
38166.0
21
44230.0
0
LINE
8
BLACK
10
38166.0
20
44230.0
11
38166.0
21
43780.0
0
LINE
8
BLACK
10
38166.0
20
43780.0
11
38416.0
21
43780.0
0
LINE
8
BLACK
10
42871.0
20
40829.0
11
42871.0
21
40379.0
0
LINE
8
BLACK
10
42871.0
20
40379.0
11
43121.0
21
40379.0
0
LINE
8
BLACK
10
43121.0
20
40379.0
11
43121.0
21
40829.0
0
LINE
8
BLACK
10
43121.0
20
40829.0
11
42871.0
21
40829.0
0
LINE
8
BLACK
10
43471.0
20
40829.0
11
43471.0
21
40379.0
0
LINE
8
BLACK
10
43471.0
20
40379.0
11
43721.0
21
40379.0
0
LINE
8
BLACK
10
43721.0
20
40379.0
11
43721.0
21
40829.0
0
LINE
8
BLACK
10
43721.0
20
40829.0
11
43471.0
21
40829.0
0
LINE
8
BLACK
10
37548.0
20
43835.0
11
37548.0
21
44285.0
0
LINE
8
BLACK
10
37548.0
20
44285.0
11
37298.0
21
44285.0
0
LINE
8
BLACK
10
37298.0
20
44285.0
11
37298.0
21
43835.0
0
LINE
8
BLACK
10
37298.0
20
43835.0
11
37548.0
21
43835.0
0
LINE
8
BLACK
10
36948.0
20
43835.0
11
36948.0
21
44285.0
0
LINE
8
BLACK
10
36948.0
20
44285.0
11
36698.0
21
44285.0
0
LINE
8
BLACK
10
36698.0
20
44285.0
11
36698.0
21
43835.0
0
LINE
8
BLACK
10
36698.0
20
43835.0
11
36948.0
21
43835.0
0
LINE
8
BLACK
10
37583.0
20
41272.0
11
37583.0
21
41722.0
0
LINE
8
BLACK
10
37583.0
20
41722.0
11
37333.0
21
41722.0
0
LINE
8
BLACK
10
37333.0
20
41722.0
11
37333.0
21
41272.0
0
LINE
8
BLACK
10
37333.0
20
41272.0
11
37583.0
21
41272.0
0
LINE
8
BLACK
10
36983.0
20
41272.0
11
36983.0
21
41722.0
0
LINE
8
BLACK
10
36983.0
20
41722.0
11
36733.0
21
41722.0
0
LINE
8
BLACK
10
36733.0
20
41722.0
11
36733.0
21
41272.0
0
LINE
8
BLACK
10
36733.0
20
41272.0
11
36983.0
21
41272.0
0
LINE
8
BLACK
10
38870.0
20
41533.0
11
39320.0
21
41533.0
0
LINE
8
BLACK
10
39320.0
20
41533.0
11
39320.0
21
41783.0
0
LINE
8
BLACK
10
39320.0
20
41783.0
11
38870.0
21
41783.0
0
LINE
8
BLACK
10
38870.0
20
41783.0
11
38870.0
21
41533.0
0
LINE
8
BLACK
10
38870.0
20
42133.0
11
39320.0
21
42133.0
0
LINE
8
BLACK
10
39320.0
20
42133.0
11
39320.0
21
42383.0
0
LINE
8
BLACK
10
39320.0
20
42383.0
11
38870.0
21
42383.0
0
LINE
8
BLACK
10
38870.0
20
42383.0
11
38870.0
21
42133.0
0
LINE
8
BLACK
10
38718.0
20
42383.0
11
38268.0
21
42383.0
0
LINE
8
BLACK
10
38268.0
20
42383.0
11
38268.0
21
42133.0
0
LINE
8
BLACK
10
38268.0
20
42133.0
11
38718.0
21
42133.0
0
LINE
8
BLACK
10
38718.0
20
42133.0
11
38718.0
21
42383.0
0
LINE
8
BLACK
10
38718.0
20
41783.0
11
38268.0
21
41783.0
0
LINE
8
BLACK
10
38268.0
20
41783.0
11
38268.0
21
41533.0
0
LINE
8
BLACK
10
38268.0
20
41533.0
11
38718.0
21
41533.0
0
LINE
8
BLACK
10
38718.0
20
41533.0
11
38718.0
21
41783.0
0
LINE
8
BLACK
10
49432.0
20
31738.0
11
48632.0
21
31738.0
0
LINE
8
BLACK
10
48632.0
20
31738.0
11
48632.0
21
31138.0
0
LINE
8
BLACK
10
48632.0
20
31138.0
11
49432.0
21
31138.0
0
LINE
8
BLACK
10
49432.0
20
31138.0
11
49432.0
21
31738.0
0
LINE
8
BLACK
10
49432.0
20
30438.0
11
48632.0
21
30438.0
0
LINE
8
BLACK
10
48632.0
20
30438.0
11
48632.0
21
29838.0
0
LINE
8
BLACK
10
48632.0
20
29838.0
11
49432.0
21
29838.0
0
LINE
8
BLACK
10
49432.0
20
29838.0
11
49432.0
21
30438.0
0
LINE
8
BLACK
10
42418.0
20
42679.0
11
42418.0
21
43151.0
0
LINE
8
BLACK
10
42418.0
20
43151.0
11
41710.0
21
43151.0
0
LINE
8
BLACK
10
41710.0
20
43151.0
11
41710.0
21
42679.0
0
LINE
8
BLACK
10
41710.0
20
42679.0
11
42418.0
21
42679.0
0
LINE
8
BLACK
10
40843.0
20
42679.0
11
40843.0
21
43151.0
0
LINE
8
BLACK
10
40843.0
20
43151.0
11
40135.0
21
43151.0
0
LINE
8
BLACK
10
40135.0
20
43151.0
11
40135.0
21
42679.0
0
LINE
8
BLACK
10
40135.0
20
42679.0
11
40843.0
21
42679.0
0
LINE
8
BLACK
10
40843.0
20
43466.0
11
40843.0
21
43938.0
0
LINE
8
BLACK
10
40843.0
20
43938.0
11
40135.0
21
43938.0
0
LINE
8
BLACK
10
40135.0
20
43938.0
11
40135.0
21
43466.0
0
LINE
8
BLACK
10
40135.0
20
43466.0
11
40843.0
21
43466.0
0
LINE
8
BLACK
10
42418.0
20
43466.0
11
42418.0
21
43938.0
0
LINE
8
BLACK
10
42418.0
20
43938.0
11
41710.0
21
43938.0
0
LINE
8
BLACK
10
41710.0
20
43938.0
11
41710.0
21
43466.0
0
LINE
8
BLACK
10
41710.0
20
43466.0
11
42418.0
21
43466.0
0
LINE
8
BLACK
10
42390.0
20
45375.0
11
42840.0
21
45375.0
0
LINE
8
BLACK
10
42840.0
20
45375.0
11
42840.0
21
45625.0
0
LINE
8
BLACK
10
42840.0
20
45625.0
11
42390.0
21
45625.0
0
LINE
8
BLACK
10
42390.0
20
45625.0
11
42390.0
21
45375.0
0
LINE
8
BLACK
10
42390.0
20
45975.0
11
42840.0
21
45975.0
0
LINE
8
BLACK
10
42840.0
20
45975.0
11
42840.0
21
46225.0
0
LINE
8
BLACK
10
42840.0
20
46225.0
11
42390.0
21
46225.0
0
LINE
8
BLACK
10
42390.0
20
46225.0
11
42390.0
21
45975.0
0
LINE
8
BLACK
10
36233.0
20
31836.0
11
36683.0
21
31836.0
0
LINE
8
BLACK
10
36683.0
20
31836.0
11
36683.0
21
32086.0
0
LINE
8
BLACK
10
36683.0
20
32086.0
11
36233.0
21
32086.0
0
LINE
8
BLACK
10
36233.0
20
32086.0
11
36233.0
21
31836.0
0
LINE
8
BLACK
10
36233.0
20
32436.0
11
36683.0
21
32436.0
0
LINE
8
BLACK
10
36683.0
20
32436.0
11
36683.0
21
32686.0
0
LINE
8
BLACK
10
36683.0
20
32686.0
11
36233.0
21
32686.0
0
LINE
8
BLACK
10
36233.0
20
32686.0
11
36233.0
21
32436.0
0
LINE
8
BLACK
10
36687.0
20
31705.0
11
36237.0
21
31705.0
0
LINE
8
BLACK
10
36237.0
20
31705.0
11
36237.0
21
31455.0
0
LINE
8
BLACK
10
36237.0
20
31455.0
11
36687.0
21
31455.0
0
LINE
8
BLACK
10
36687.0
20
31455.0
11
36687.0
21
31705.0
0
LINE
8
BLACK
10
36687.0
20
31105.0
11
36237.0
21
31105.0
0
LINE
8
BLACK
10
36237.0
20
31105.0
11
36237.0
21
30855.0
0
LINE
8
BLACK
10
36237.0
20
30855.0
11
36687.0
21
30855.0
0
LINE
8
BLACK
10
36687.0
20
30855.0
11
36687.0
21
31105.0
0
LINE
8
BLACK
10
38532.0
20
32036.0
11
37982.0
21
32036.0
0
LINE
8
BLACK
10
37982.0
20
32036.0
11
37982.0
21
31644.0
0
LINE
8
BLACK
10
37982.0
20
31644.0
11
38532.0
21
31644.0
0
LINE
8
BLACK
10
38532.0
20
31644.0
11
38532.0
21
32036.0
0
LINE
8
BLACK
10
38532.0
20
31288.0
11
37982.0
21
31288.0
0
LINE
8
BLACK
10
37982.0
20
31288.0
11
37982.0
21
30896.0
0
LINE
8
BLACK
10
37982.0
20
30896.0
11
38532.0
21
30896.0
0
LINE
8
BLACK
10
38532.0
20
30896.0
11
38532.0
21
31288.0
0
LINE
8
BLACK
10
37666.0
20
31662.0
11
37116.0
21
31662.0
0
LINE
8
BLACK
10
37116.0
20
31662.0
11
37116.0
21
31270.0
0
LINE
8
BLACK
10
37116.0
20
31270.0
11
37666.0
21
31270.0
0
LINE
8
BLACK
10
37666.0
20
31270.0
11
37666.0
21
31662.0
0
LINE
8
BLACK
10
39079.0
20
33567.0
11
38529.0
21
33567.0
0
LINE
8
BLACK
10
38529.0
20
33567.0
11
38529.0
21
33175.0
0
LINE
8
BLACK
10
38529.0
20
33175.0
11
39079.0
21
33175.0
0
LINE
8
BLACK
10
39079.0
20
33175.0
11
39079.0
21
33567.0
0
LINE
8
BLACK
10
39079.0
20
32819.0
11
38529.0
21
32819.0
0
LINE
8
BLACK
10
38529.0
20
32819.0
11
38529.0
21
32427.0
0
LINE
8
BLACK
10
38529.0
20
32427.0
11
39079.0
21
32427.0
0
LINE
8
BLACK
10
39079.0
20
32427.0
11
39079.0
21
32819.0
0
LINE
8
BLACK
10
38213.0
20
33193.0
11
37663.0
21
33193.0
0
LINE
8
BLACK
10
37663.0
20
33193.0
11
37663.0
21
32801.0
0
LINE
8
BLACK
10
37663.0
20
32801.0
11
38213.0
21
32801.0
0
LINE
8
BLACK
10
38213.0
20
32801.0
11
38213.0
21
33193.0
0
LINE
8
BLACK
10
41163.0
20
31603.0
11
40713.0
21
31603.0
0
LINE
8
BLACK
10
40713.0
20
31603.0
11
40713.0
21
31353.0
0
LINE
8
BLACK
10
40713.0
20
31353.0
11
41163.0
21
31353.0
0
LINE
8
BLACK
10
41163.0
20
31353.0
11
41163.0
21
31603.0
0
LINE
8
BLACK
10
41163.0
20
31003.0
11
40713.0
21
31003.0
0
LINE
8
BLACK
10
40713.0
20
31003.0
11
40713.0
21
30753.0
0
LINE
8
BLACK
10
40713.0
20
30753.0
11
41163.0
21
30753.0
0
LINE
8
BLACK
10
41163.0
20
30753.0
11
41163.0
21
31003.0
0
LINE
8
BLACK
10
40713.0
20
31741.0
11
41163.0
21
31741.0
0
LINE
8
BLACK
10
41163.0
20
31741.0
11
41163.0
21
31991.0
0
LINE
8
BLACK
10
41163.0
20
31991.0
11
40713.0
21
31991.0
0
LINE
8
BLACK
10
40713.0
20
31991.0
11
40713.0
21
31741.0
0
LINE
8
BLACK
10
40713.0
20
32341.0
11
41163.0
21
32341.0
0
LINE
8
BLACK
10
41163.0
20
32341.0
11
41163.0
21
32591.0
0
LINE
8
BLACK
10
41163.0
20
32591.0
11
40713.0
21
32591.0
0
LINE
8
BLACK
10
40713.0
20
32591.0
11
40713.0
21
32341.0
0
LINE
8
BLACK
10
43784.0
20
33547.0
11
43234.0
21
33547.0
0
LINE
8
BLACK
10
43234.0
20
33547.0
11
43234.0
21
33155.0
0
LINE
8
BLACK
10
43234.0
20
33155.0
11
43784.0
21
33155.0
0
LINE
8
BLACK
10
43784.0
20
33155.0
11
43784.0
21
33547.0
0
LINE
8
BLACK
10
43784.0
20
32799.0
11
43234.0
21
32799.0
0
LINE
8
BLACK
10
43234.0
20
32799.0
11
43234.0
21
32407.0
0
LINE
8
BLACK
10
43234.0
20
32407.0
11
43784.0
21
32407.0
0
LINE
8
BLACK
10
43784.0
20
32407.0
11
43784.0
21
32799.0
0
LINE
8
BLACK
10
42918.0
20
33173.0
11
42368.0
21
33173.0
0
LINE
8
BLACK
10
42368.0
20
33173.0
11
42368.0
21
32781.0
0
LINE
8
BLACK
10
42368.0
20
32781.0
11
42918.0
21
32781.0
0
LINE
8
BLACK
10
42918.0
20
32781.0
11
42918.0
21
33173.0
0
LINE
8
BLACK
10
43276.0
20
32000.0
11
42726.0
21
32000.0
0
LINE
8
BLACK
10
42726.0
20
32000.0
11
42726.0
21
31608.0
0
LINE
8
BLACK
10
42726.0
20
31608.0
11
43276.0
21
31608.0
0
LINE
8
BLACK
10
43276.0
20
31608.0
11
43276.0
21
32000.0
0
LINE
8
BLACK
10
43276.0
20
31252.0
11
42726.0
21
31252.0
0
LINE
8
BLACK
10
42726.0
20
31252.0
11
42726.0
21
30860.0
0
LINE
8
BLACK
10
42726.0
20
30860.0
11
43276.0
21
30860.0
0
LINE
8
BLACK
10
43276.0
20
30860.0
11
43276.0
21
31252.0
0
LINE
8
BLACK
10
42410.0
20
31626.0
11
41860.0
21
31626.0
0
LINE
8
BLACK
10
41860.0
20
31626.0
11
41860.0
21
31234.0
0
LINE
8
BLACK
10
41860.0
20
31234.0
11
42410.0
21
31234.0
0
LINE
8
BLACK
10
42410.0
20
31234.0
11
42410.0
21
31626.0
0
LINE
8
BLACK
10
38756.0
20
37647.0
11
38206.0
21
37647.0
0
LINE
8
BLACK
10
38206.0
20
37647.0
11
38206.0
21
37255.0
0
LINE
8
BLACK
10
38206.0
20
37255.0
11
38756.0
21
37255.0
0
LINE
8
BLACK
10
38756.0
20
37255.0
11
38756.0
21
37647.0
0
LINE
8
BLACK
10
38756.0
20
36899.0
11
38206.0
21
36899.0
0
LINE
8
BLACK
10
38206.0
20
36899.0
11
38206.0
21
36507.0
0
LINE
8
BLACK
10
38206.0
20
36507.0
11
38756.0
21
36507.0
0
LINE
8
BLACK
10
38756.0
20
36507.0
11
38756.0
21
36899.0
0
LINE
8
BLACK
10
37890.0
20
37273.0
11
37340.0
21
37273.0
0
LINE
8
BLACK
10
37340.0
20
37273.0
11
37340.0
21
36881.0
0
LINE
8
BLACK
10
37340.0
20
36881.0
11
37890.0
21
36881.0
0
LINE
8
BLACK
10
37890.0
20
36881.0
11
37890.0
21
37273.0
0
LINE
8
BLACK
10
39851.0
20
39164.0
11
39301.0
21
39164.0
0
LINE
8
BLACK
10
39301.0
20
39164.0
11
39301.0
21
38772.0
0
LINE
8
BLACK
10
39301.0
20
38772.0
11
39851.0
21
38772.0
0
LINE
8
BLACK
10
39851.0
20
38772.0
11
39851.0
21
39164.0
0
LINE
8
BLACK
10
39851.0
20
38416.0
11
39301.0
21
38416.0
0
LINE
8
BLACK
10
39301.0
20
38416.0
11
39301.0
21
38024.0
0
LINE
8
BLACK
10
39301.0
20
38024.0
11
39851.0
21
38024.0
0
LINE
8
BLACK
10
39851.0
20
38024.0
11
39851.0
21
38416.0
0
LINE
8
BLACK
10
38985.0
20
38790.0
11
38435.0
21
38790.0
0
LINE
8
BLACK
10
38435.0
20
38790.0
11
38435.0
21
38398.0
0
LINE
8
BLACK
10
38435.0
20
38398.0
11
38985.0
21
38398.0
0
LINE
8
BLACK
10
38985.0
20
38398.0
11
38985.0
21
38790.0
0
LINE
8
BLACK
10
44234.0
20
39229.0
11
43684.0
21
39229.0
0
LINE
8
BLACK
10
43684.0
20
39229.0
11
43684.0
21
38837.0
0
LINE
8
BLACK
10
43684.0
20
38837.0
11
44234.0
21
38837.0
0
LINE
8
BLACK
10
44234.0
20
38837.0
11
44234.0
21
39229.0
0
LINE
8
BLACK
10
44234.0
20
38481.0
11
43684.0
21
38481.0
0
LINE
8
BLACK
10
43684.0
20
38481.0
11
43684.0
21
38089.0
0
LINE
8
BLACK
10
43684.0
20
38089.0
11
44234.0
21
38089.0
0
LINE
8
BLACK
10
44234.0
20
38089.0
11
44234.0
21
38481.0
0
LINE
8
BLACK
10
43368.0
20
38855.0
11
42818.0
21
38855.0
0
LINE
8
BLACK
10
42818.0
20
38855.0
11
42818.0
21
38463.0
0
LINE
8
BLACK
10
42818.0
20
38463.0
11
43368.0
21
38463.0
0
LINE
8
BLACK
10
43368.0
20
38463.0
11
43368.0
21
38855.0
0
LINE
8
BLACK
10
43187.0
20
37678.0
11
42637.0
21
37678.0
0
LINE
8
BLACK
10
42637.0
20
37678.0
11
42637.0
21
37286.0
0
LINE
8
BLACK
10
42637.0
20
37286.0
11
43187.0
21
37286.0
0
LINE
8
BLACK
10
43187.0
20
37286.0
11
43187.0
21
37678.0
0
LINE
8
BLACK
10
43187.0
20
36930.0
11
42637.0
21
36930.0
0
LINE
8
BLACK
10
42637.0
20
36930.0
11
42637.0
21
36538.0
0
LINE
8
BLACK
10
42637.0
20
36538.0
11
43187.0
21
36538.0
0
LINE
8
BLACK
10
43187.0
20
36538.0
11
43187.0
21
36930.0
0
LINE
8
BLACK
10
42321.0
20
37304.0
11
41771.0
21
37304.0
0
LINE
8
BLACK
10
41771.0
20
37304.0
11
41771.0
21
36912.0
0
LINE
8
BLACK
10
41771.0
20
36912.0
11
42321.0
21
36912.0
0
LINE
8
BLACK
10
42321.0
20
36912.0
11
42321.0
21
37304.0
0
ENDSEC
0
EOF
