0
SECTION
2
HEADER
9
$ANGBASE
50
0.0
9
$ANGDIR
70
0
0
ENDSEC
0
SECTION
2
TABLES
0
TABLE
2
LTYPE
70
1
0
LTYPE
2
CONTINUOUS
70
0
3
Solid line
72
65
73
0
40
0.0
0
ENDTAB
0
TABLE
2
LAYER
70
24
0
LAYER
2
BLACK
70
0
62
1
6
CONTINUOUS
0
LAYER
2
BLUE
70
0
62
2
6
CONTINUOUS
0
LAYER
2
GREEN
70
0
62
3
6
CONTINUOUS
0
LAYER
2
CYAN
70
0
62
4
6
CONTINUOUS
0
LAYER
2
RED
70
0
62
5
6
CONTINUOUS
0
LAYER
2
MAGENTA
70
0
62
6
6
CONTINUOUS
0
LAYER
2
BROWN
70
0
62
7
6
CONTINUOUS
0
LAYER
2
GRAY
70
0
62
8
6
CONTINUOUS
0
LAYER
2
DARKGRAY
70
0
62
9
6
CONTINUOUS
0
LAYER
2
LIGHTBLUE
70
0
62
10
6
CONTINUOUS
0
LAYER
2
LIGHTGREEN
70
0
62
11
6
CONTINUOUS
0
LAYER
2
LIGHTCYAN
70
0
62
12
6
CONTINUOUS
0
LAYER
2
LIGHTRED
70
0
62
13
6
CONTINUOUS
0
LAYER
2
LIGHTMAGENTA
70
0
62
14
6
CONTINUOUS
0
LAYER
2
YELLOW
70
0
62
15
6
CONTINUOUS
0
LAYER
2
WHITE
70
0
62
16
6
CONTINUOUS
0
LAYER
2
DARKDARKGRAY
70
0
62
17
6
CONTINUOUS
0
LAYER
2
DARKBLUE
70
0
62
18
6
CONTINUOUS
0
LAYER
2
DARKGREEN
70
0
62
19
6
CONTINUOUS
0
LAYER
2
DARKCYAN
70
0
62
20
6
CONTINUOUS
0
LAYER
2
DARKRED
70
0
62
21
6
CONTINUOUS
0
LAYER
2
DARKMAGENTA
70
0
62
22
6
CONTINUOUS
0
LAYER
2
DARKBROWN
70
0
62
23
6
CONTINUOUS
0
LAYER
2
LIGHTYELLOW
70
0
62
24
6
CONTINUOUS
0
ENDTAB
0
ENDSEC
0
SECTION
2
ENTITIES
0
LINE
8
BLACK
10
33030.0
20
28739.0
11
33030.0
21
29199.0
0
LINE
8
BLACK
10
32880.0
20
28739.0
11
32880.0
21
29199.0
0
ARC
8
BLACK
10
32955.0
20
29199.0
40
75.0
50
360.0
51
540.0
0
ARC
8
BLACK
10
32955.0
20
28739.0
40
75.0
50
180.0
51
360.0
0
LINE
8
BLACK
10
33011.0
20
29249.0
11
33009.0
21
29251.0
0
LINE
8
BLACK
10
32905.0
20
29143.0
11
32903.0
21
29145.0
0
ARC
8
BLACK
10
32956.0
20
29198.0
40
75.0
50
405.0
51
585.0
0
ARC
8
BLACK
10
32958.0
20
29196.0
40
75.0
50
225.0
51
405.0
0
ARC
8
BLACK
10
34333.0
20
28746.0
40
1362.0
50
-178.0
51
-88.0
0
LINE
8
BLACK
10
68030.0
20
29207.0
11
68030.0
21
48207.0
0
LINE
8
BLACK
10
67880.0
20
29207.0
11
67880.0
21
48207.0
0
ARC
8
BLACK
10
67955.0
20
48207.0
40
75.0
50
360.0
51
540.0
0
ARC
8
BLACK
10
67955.0
20
29207.0
40
75.0
50
180.0
51
360.0
0
LINE
8
BLACK
10
34455.0
20
27285.0
11
66455.0
21
27285.0
0
LINE
8
BLACK
10
34455.0
20
27435.0
11
66455.0
21
27435.0
0
ARC
8
BLACK
10
66455.0
20
27360.0
40
75.0
50
270.0
51
450.0
0
ARC
8
BLACK
10
34455.0
20
27360.0
40
75.0
50
90.0
51
270.0
0
LINE
8
BLACK
10
33030.0
20
29207.0
11
33030.0
21
48207.0
0
LINE
8
BLACK
10
32880.0
20
29207.0
11
32880.0
21
48207.0
0
ARC
8
BLACK
10
32955.0
20
48207.0
40
75.0
50
360.0
51
540.0
0
ARC
8
BLACK
10
32955.0
20
29207.0
40
75.0
50
180.0
51
360.0
0
LINE
8
BLACK
10
34455.0
20
49632.0
11
66455.0
21
49632.0
0
LINE
8
BLACK
10
34455.0
20
49782.0
11
66455.0
21
49782.0
0
ARC
8
BLACK
10
66455.0
20
49707.0
40
75.0
50
270.0
51
450.0
0
ARC
8
BLACK
10
34455.0
20
49707.0
40
75.0
50
90.0
51
270.0
0
ARC
8
BLACK
10
66455.0
20
48207.0
40
1500.0
50
0.0
51
90.0
0
ARC
8
BLACK
10
34455.0
20
48207.0
40
1500.0
50
90.0
51
180.0
0
CIRCLE
8
BLACK
10
66500.0
20
29170.0
40
1084
0
CIRCLE
8
BLACK
10
34500.0
20
48170.0
40
1084
0
CIRCLE
8
BLACK
10
34500.0
20
29170.0
40
1084
0
CIRCLE
8
BLACK
10
66500.0
20
48171.0
40
1084
0
LINE
8
BLACK
10
52763.0
20
34049.0
11
52763.0
21
33613.0
0
LINE
8
BLACK
10
52763.0
20
33613.0
11
53355.0
21
33613.0
0
LINE
8
BLACK
10
53355.0
20
33613.0
11
53355.0
21
34049.0
0
LINE
8
BLACK
10
53355.0
20
34049.0
11
52763.0
21
34049.0
0
LINE
8
BLACK
10
53629.0
20
34049.0
11
53629.0
21
33613.0
0
LINE
8
BLACK
10
53629.0
20
33613.0
11
54221.0
21
33613.0
0
LINE
8
BLACK
10
54221.0
20
33613.0
11
54221.0
21
34049.0
0
LINE
8
BLACK
10
54221.0
20
34049.0
11
53629.0
21
34049.0
0
LINE
8
BLACK
10
62126.0
20
43631.0
11
62126.0
21
42811.0
0
LINE
8
BLACK
10
62126.0
20
42811.0
11
62586.0
21
42811.0
0
LINE
8
BLACK
10
62586.0
20
42811.0
11
62586.0
21
43631.0
0
LINE
8
BLACK
10
62586.0
20
43631.0
11
62126.0
21
43631.0
0
LINE
8
BLACK
10
61696.0
20
43631.0
11
61696.0
21
42811.0
0
LINE
8
BLACK
10
61696.0
20
42811.0
11
62156.0
21
42811.0
0
LINE
8
BLACK
10
62156.0
20
42811.0
11
62156.0
21
43631.0
0
LINE
8
BLACK
10
62156.0
20
43631.0
11
61696.0
21
43631.0
0
LINE
8
BLACK
10
61266.0
20
43631.0
11
61266.0
21
42811.0
0
LINE
8
BLACK
10
61266.0
20
42811.0
11
61726.0
21
42811.0
0
LINE
8
BLACK
10
61726.0
20
42811.0
11
61726.0
21
43631.0
0
LINE
8
BLACK
10
61726.0
20
43631.0
11
61266.0
21
43631.0
0
LINE
8
BLACK
10
60826.0
20
43631.0
11
60826.0
21
42811.0
0
LINE
8
BLACK
10
60826.0
20
42811.0
11
61286.0
21
42811.0
0
LINE
8
BLACK
10
61286.0
20
42811.0
11
61286.0
21
43631.0
0
LINE
8
BLACK
10
61286.0
20
43631.0
11
60826.0
21
43631.0
0
LINE
8
BLACK
10
60396.0
20
43631.0
11
60396.0
21
42811.0
0
LINE
8
BLACK
10
60396.0
20
42811.0
11
60856.0
21
42811.0
0
LINE
8
BLACK
10
60856.0
20
42811.0
11
60856.0
21
43631.0
0
LINE
8
BLACK
10
60856.0
20
43631.0
11
60396.0
21
43631.0
0
LINE
8
BLACK
10
59966.0
20
43631.0
11
59966.0
21
42811.0
0
LINE
8
BLACK
10
59966.0
20
42811.0
11
60426.0
21
42811.0
0
LINE
8
BLACK
10
60426.0
20
42811.0
11
60426.0
21
43631.0
0
LINE
8
BLACK
10
60426.0
20
43631.0
11
59966.0
21
43631.0
0
LINE
8
BLACK
10
59526.0
20
43631.0
11
59526.0
21
42811.0
0
LINE
8
BLACK
10
59526.0
20
42811.0
11
59986.0
21
42811.0
0
LINE
8
BLACK
10
59986.0
20
42811.0
11
59986.0
21
43631.0
0
LINE
8
BLACK
10
59986.0
20
43631.0
11
59526.0
21
43631.0
0
LINE
8
BLACK
10
59096.0
20
43631.0
11
59096.0
21
42811.0
0
LINE
8
BLACK
10
59096.0
20
42811.0
11
59556.0
21
42811.0
0
LINE
8
BLACK
10
59556.0
20
42811.0
11
59556.0
21
43631.0
0
LINE
8
BLACK
10
59556.0
20
43631.0
11
59096.0
21
43631.0
0
LINE
8
BLACK
10
58666.0
20
43631.0
11
58666.0
21
42811.0
0
LINE
8
BLACK
10
58666.0
20
42811.0
11
59126.0
21
42811.0
0
LINE
8
BLACK
10
59126.0
20
42811.0
11
59126.0
21
43631.0
0
LINE
8
BLACK
10
59126.0
20
43631.0
11
58666.0
21
43631.0
0
LINE
8
BLACK
10
63756.0
20
43791.0
11
63756.0
21
43051.0
0
LINE
8
BLACK
10
63756.0
20
43051.0
11
64576.0
21
43051.0
0
LINE
8
BLACK
10
64576.0
20
43051.0
11
64576.0
21
43791.0
0
LINE
8
BLACK
10
64576.0
20
43791.0
11
63756.0
21
43791.0
0
LINE
8
BLACK
10
64196.0
20
47731.0
11
64196.0
21
46671.0
0
LINE
8
BLACK
10
64196.0
20
46671.0
11
64856.0
21
46671.0
0
LINE
8
BLACK
10
64856.0
20
46671.0
11
64856.0
21
47731.0
0
LINE
8
BLACK
10
64856.0
20
47731.0
11
64196.0
21
47731.0
0
LINE
8
BLACK
10
58096.0
20
47731.0
11
58096.0
21
46671.0
0
LINE
8
BLACK
10
58096.0
20
46671.0
11
58756.0
21
46671.0
0
LINE
8
BLACK
10
58756.0
20
46671.0
11
58756.0
21
47731.0
0
LINE
8
BLACK
10
58756.0
20
47731.0
11
58096.0
21
47731.0
0
LINE
8
BLACK
10
58086.0
20
43791.0
11
58086.0
21
43051.0
0
LINE
8
BLACK
10
58086.0
20
43051.0
11
58746.0
21
43051.0
0
LINE
8
BLACK
10
58746.0
20
43051.0
11
58746.0
21
43791.0
0
LINE
8
BLACK
10
58746.0
20
43791.0
11
58086.0
21
43791.0
0
LINE
8
BLACK
10
54938.0
20
40753.0
11
54188.0
21
40753.0
0
LINE
8
BLACK
10
54188.0
20
40753.0
11
54188.0
21
40203.0
0
LINE
8
BLACK
10
54188.0
20
40203.0
11
54938.0
21
40203.0
0
LINE
8
BLACK
10
54938.0
20
40203.0
11
54938.0
21
40753.0
0
LINE
8
BLACK
10
54938.0
20
40003.0
11
54188.0
21
40003.0
0
LINE
8
BLACK
10
54188.0
20
40003.0
11
54188.0
21
39453.0
0
LINE
8
BLACK
10
54188.0
20
39453.0
11
54938.0
21
39453.0
0
LINE
8
BLACK
10
54938.0
20
39453.0
11
54938.0
21
40003.0
0
LINE
8
BLACK
10
64718.0
20
40101.0
11
64718.0
21
40751.0
0
LINE
8
BLACK
10
64718.0
20
40751.0
11
64268.0
21
40751.0
0
LINE
8
BLACK
10
64268.0
20
40751.0
11
64268.0
21
40101.0
0
LINE
8
BLACK
10
64268.0
20
40101.0
11
64718.0
21
40101.0
0
LINE
8
BLACK
10
64118.0
20
40101.0
11
64118.0
21
40751.0
0
LINE
8
BLACK
10
64118.0
20
40751.0
11
63668.0
21
40751.0
0
LINE
8
BLACK
10
63668.0
20
40751.0
11
63668.0
21
40101.0
0
LINE
8
BLACK
10
63668.0
20
40101.0
11
64118.0
21
40101.0
0
LINE
8
BLACK
10
62171.0
20
34739.0
11
62821.0
21
34739.0
0
LINE
8
BLACK
10
62821.0
20
34739.0
11
62821.0
21
35189.0
0
LINE
8
BLACK
10
62821.0
20
35189.0
11
62171.0
21
35189.0
0
LINE
8
BLACK
10
62171.0
20
35189.0
11
62171.0
21
34739.0
0
LINE
8
BLACK
10
62171.0
20
35339.0
11
62821.0
21
35339.0
0
LINE
8
BLACK
10
62821.0
20
35339.0
11
62821.0
21
35789.0
0
LINE
8
BLACK
10
62821.0
20
35789.0
11
62171.0
21
35789.0
0
LINE
8
BLACK
10
62171.0
20
35789.0
11
62171.0
21
35339.0
0
LINE
8
BLACK
10
65900.0
20
46570.0
11
65100.0
21
46570.0
0
LINE
8
BLACK
10
65100.0
20
46570.0
11
65100.0
21
45770.0
0
LINE
8
BLACK
10
65100.0
20
45770.0
11
65900.0
21
45770.0
0
LINE
8
BLACK
10
65900.0
20
45770.0
11
65900.0
21
46570.0
0
CIRCLE
8
BLACK
10
66500.0
20
46170.0
40
400
0
CIRCLE
8
BLACK
10
65500.0
20
45170.0
40
400
0
CIRCLE
8
BLACK
10
66500.0
20
45170.0
40
400
0
CIRCLE
8
BLACK
10
65500.0
20
44170.0
40
400
0
CIRCLE
8
BLACK
10
66500.0
20
44170.0
40
400
0
CIRCLE
8
BLACK
10
65500.0
20
43170.0
40
400
0
CIRCLE
8
BLACK
10
66500.0
20
43170.0
40
400
0
CIRCLE
8
BLACK
10
65500.0
20
42170.0
40
400
0
CIRCLE
8
BLACK
10
66500.0
20
42170.0
40
400
0
CIRCLE
8
BLACK
10
65500.0
20
41170.0
40
400
0
CIRCLE
8
BLACK
10
66500.0
20
41170.0
40
400
0
CIRCLE
8
BLACK
10
65500.0
20
40170.0
40
400
0
CIRCLE
8
BLACK
10
66500.0
20
40170.0
40
400
0
CIRCLE
8
BLACK
10
65500.0
20
39170.0
40
400
0
CIRCLE
8
BLACK
10
66500.0
20
39170.0
40
400
0
CIRCLE
8
BLACK
10
65500.0
20
38170.0
40
400
0
CIRCLE
8
BLACK
10
66500.0
20
38170.0
40
400
0
CIRCLE
8
BLACK
10
65500.0
20
37170.0
40
400
0
CIRCLE
8
BLACK
10
66500.0
20
37170.0
40
400
0
CIRCLE
8
BLACK
10
65500.0
20
36170.0
40
400
0
CIRCLE
8
BLACK
10
66500.0
20
36170.0
40
400
0
CIRCLE
8
BLACK
10
65500.0
20
35170.0
40
400
0
CIRCLE
8
BLACK
10
66500.0
20
35170.0
40
400
0
CIRCLE
8
BLACK
10
57607.0
20
28823.0
40
430
0
CIRCLE
8
BLACK
10
59377.0
20
28823.0
40
430
0
CIRCLE
8
BLACK
10
57107.0
20
29803.0
40
480
0
CIRCLE
8
BLACK
10
59867.0
20
29803.0
40
480
0
LINE
8
BLACK
10
50800.0
20
36249.0
11
50800.0
21
35249.0
0
LINE
8
BLACK
10
50800.0
20
35249.0
11
51600.0
21
35249.0
0
LINE
8
BLACK
10
51600.0
20
35249.0
11
51600.0
21
36249.0
0
LINE
8
BLACK
10
51600.0
20
36249.0
11
50800.0
21
36249.0
0
LINE
8
BLACK
10
52100.0
20
36249.0
11
52100.0
21
35249.0
0
LINE
8
BLACK
10
52100.0
20
35249.0
11
52900.0
21
35249.0
0
LINE
8
BLACK
10
52900.0
20
35249.0
11
52900.0
21
36249.0
0
LINE
8
BLACK
10
52900.0
20
36249.0
11
52100.0
21
36249.0
0
LINE
8
BLACK
10
55736.0
20
35685.0
11
54736.0
21
35685.0
0
LINE
8
BLACK
10
54736.0
20
35685.0
11
54736.0
21
34885.0
0
LINE
8
BLACK
10
54736.0
20
34885.0
11
55736.0
21
34885.0
0
LINE
8
BLACK
10
55736.0
20
34885.0
11
55736.0
21
35685.0
0
LINE
8
BLACK
10
55736.0
20
34385.0
11
54736.0
21
34385.0
0
LINE
8
BLACK
10
54736.0
20
34385.0
11
54736.0
21
33585.0
0
LINE
8
BLACK
10
54736.0
20
33585.0
11
55736.0
21
33585.0
0
LINE
8
BLACK
10
55736.0
20
33585.0
11
55736.0
21
34385.0
0
LINE
8
BLACK
10
51239.0
20
38335.0
11
51239.0
21
39335.0
0
LINE
8
BLACK
10
51239.0
20
39335.0
11
50439.0
21
39335.0
0
LINE
8
BLACK
10
50439.0
20
39335.0
11
50439.0
21
38335.0
0
LINE
8
BLACK
10
50439.0
20
38335.0
11
51239.0
21
38335.0
0
LINE
8
BLACK
10
49939.0
20
38335.0
11
49939.0
21
39335.0
0
LINE
8
BLACK
10
49939.0
20
39335.0
11
49139.0
21
39335.0
0
LINE
8
BLACK
10
49139.0
20
39335.0
11
49139.0
21
38335.0
0
LINE
8
BLACK
10
49139.0
20
38335.0
11
49939.0
21
38335.0
0
LINE
8
BLACK
10
48508.0
20
39403.0
11
49508.0
21
39403.0
0
LINE
8
BLACK
10
49508.0
20
39403.0
11
49508.0
21
40203.0
0
LINE
8
BLACK
10
49508.0
20
40203.0
11
48508.0
21
40203.0
0
LINE
8
BLACK
10
48508.0
20
40203.0
11
48508.0
21
39403.0
0
LINE
8
BLACK
10
48508.0
20
40703.0
11
49508.0
21
40703.0
0
LINE
8
BLACK
10
49508.0
20
40703.0
11
49508.0
21
41503.0
0
LINE
8
BLACK
10
49508.0
20
41503.0
11
48508.0
21
41503.0
0
LINE
8
BLACK
10
48508.0
20
41503.0
11
48508.0
21
40703.0
0
LINE
8
BLACK
10
53176.0
20
48428.0
11
53176.0
21
47778.0
0
LINE
8
BLACK
10
53176.0
20
47778.0
11
53626.0
21
47778.0
0
LINE
8
BLACK
10
53626.0
20
47778.0
11
53626.0
21
48428.0
0
LINE
8
BLACK
10
53626.0
20
48428.0
11
53176.0
21
48428.0
0
LINE
8
BLACK
10
53776.0
20
48428.0
11
53776.0
21
47778.0
0
LINE
8
BLACK
10
53776.0
20
47778.0
11
54226.0
21
47778.0
0
LINE
8
BLACK
10
54226.0
20
47778.0
11
54226.0
21
48428.0
0
LINE
8
BLACK
10
54226.0
20
48428.0
11
53776.0
21
48428.0
0
LINE
8
BLACK
10
53182.0
20
47955.0
11
53182.0
21
48605.0
0
LINE
8
BLACK
10
53182.0
20
48605.0
11
52732.0
21
48605.0
0
LINE
8
BLACK
10
52732.0
20
48605.0
11
52732.0
21
47955.0
0
LINE
8
BLACK
10
52732.0
20
47955.0
11
53182.0
21
47955.0
0
LINE
8
BLACK
10
52582.0
20
47955.0
11
52582.0
21
48605.0
0
LINE
8
BLACK
10
52582.0
20
48605.0
11
52132.0
21
48605.0
0
LINE
8
BLACK
10
52132.0
20
48605.0
11
52132.0
21
47955.0
0
LINE
8
BLACK
10
52132.0
20
47955.0
11
52582.0
21
47955.0
0
LINE
8
BLACK
10
49553.0
20
42526.0
11
48903.0
21
42526.0
0
LINE
8
BLACK
10
48903.0
20
42526.0
11
48903.0
21
42076.0
0
LINE
8
BLACK
10
48903.0
20
42076.0
11
49553.0
21
42076.0
0
LINE
8
BLACK
10
49553.0
20
42076.0
11
49553.0
21
42526.0
0
LINE
8
BLACK
10
49553.0
20
41926.0
11
48903.0
21
41926.0
0
LINE
8
BLACK
10
48903.0
20
41926.0
11
48903.0
21
41476.0
0
LINE
8
BLACK
10
48903.0
20
41476.0
11
49553.0
21
41476.0
0
LINE
8
BLACK
10
49553.0
20
41476.0
11
49553.0
21
41926.0
0
LINE
8
BLACK
10
57116.0
20
42443.0
11
56466.0
21
42443.0
0
LINE
8
BLACK
10
56466.0
20
42443.0
11
56466.0
21
41993.0
0
LINE
8
BLACK
10
56466.0
20
41993.0
11
57116.0
21
41993.0
0
LINE
8
BLACK
10
57116.0
20
41993.0
11
57116.0
21
42443.0
0
LINE
8
BLACK
10
57116.0
20
41843.0
11
56466.0
21
41843.0
0
LINE
8
BLACK
10
56466.0
20
41843.0
11
56466.0
21
41393.0
0
LINE
8
BLACK
10
56466.0
20
41393.0
11
57116.0
21
41393.0
0
LINE
8
BLACK
10
57116.0
20
41393.0
11
57116.0
21
41843.0
0
LINE
8
BLACK
10
57691.0
20
42443.0
11
57041.0
21
42443.0
0
LINE
8
BLACK
10
57041.0
20
42443.0
11
57041.0
21
41993.0
0
LINE
8
BLACK
10
57041.0
20
41993.0
11
57691.0
21
41993.0
0
LINE
8
BLACK
10
57691.0
20
41993.0
11
57691.0
21
42443.0
0
LINE
8
BLACK
10
57691.0
20
41843.0
11
57041.0
21
41843.0
0
LINE
8
BLACK
10
57041.0
20
41843.0
11
57041.0
21
41393.0
0
LINE
8
BLACK
10
57041.0
20
41393.0
11
57691.0
21
41393.0
0
LINE
8
BLACK
10
57691.0
20
41393.0
11
57691.0
21
41843.0
0
LINE
8
BLACK
10
53380.0
20
42447.0
11
52730.0
21
42447.0
0
LINE
8
BLACK
10
52730.0
20
42447.0
11
52730.0
21
41997.0
0
LINE
8
BLACK
10
52730.0
20
41997.0
11
53380.0
21
41997.0
0
LINE
8
BLACK
10
53380.0
20
41997.0
11
53380.0
21
42447.0
0
LINE
8
BLACK
10
53380.0
20
41847.0
11
52730.0
21
41847.0
0
LINE
8
BLACK
10
52730.0
20
41847.0
11
52730.0
21
41397.0
0
LINE
8
BLACK
10
52730.0
20
41397.0
11
53380.0
21
41397.0
0
LINE
8
BLACK
10
53380.0
20
41397.0
11
53380.0
21
41847.0
0
LINE
8
BLACK
10
54160.0
20
42447.0
11
53510.0
21
42447.0
0
LINE
8
BLACK
10
53510.0
20
42447.0
11
53510.0
21
41997.0
0
LINE
8
BLACK
10
53510.0
20
41997.0
11
54160.0
21
41997.0
0
LINE
8
BLACK
10
54160.0
20
41997.0
11
54160.0
21
42447.0
0
LINE
8
BLACK
10
54160.0
20
41847.0
11
53510.0
21
41847.0
0
LINE
8
BLACK
10
53510.0
20
41847.0
11
53510.0
21
41397.0
0
LINE
8
BLACK
10
53510.0
20
41397.0
11
54160.0
21
41397.0
0
LINE
8
BLACK
10
54160.0
20
41397.0
11
54160.0
21
41847.0
0
LINE
8
BLACK
10
55703.0
20
42443.0
11
55053.0
21
42443.0
0
LINE
8
BLACK
10
55053.0
20
42443.0
11
55053.0
21
41993.0
0
LINE
8
BLACK
10
55053.0
20
41993.0
11
55703.0
21
41993.0
0
LINE
8
BLACK
10
55703.0
20
41993.0
11
55703.0
21
42443.0
0
LINE
8
BLACK
10
55703.0
20
41843.0
11
55053.0
21
41843.0
0
LINE
8
BLACK
10
55053.0
20
41843.0
11
55053.0
21
41393.0
0
LINE
8
BLACK
10
55053.0
20
41393.0
11
55703.0
21
41393.0
0
LINE
8
BLACK
10
55703.0
20
41393.0
11
55703.0
21
41843.0
0
LINE
8
BLACK
10
56065.0
20
38270.0
11
55415.0
21
38270.0
0
LINE
8
BLACK
10
55415.0
20
38270.0
11
55415.0
21
37820.0
0
LINE
8
BLACK
10
55415.0
20
37820.0
11
56065.0
21
37820.0
0
LINE
8
BLACK
10
56065.0
20
37820.0
11
56065.0
21
38270.0
0
LINE
8
BLACK
10
56065.0
20
37670.0
11
55415.0
21
37670.0
0
LINE
8
BLACK
10
55415.0
20
37670.0
11
55415.0
21
37220.0
0
LINE
8
BLACK
10
55415.0
20
37220.0
11
56065.0
21
37220.0
0
LINE
8
BLACK
10
56065.0
20
37220.0
11
56065.0
21
37670.0
0
LINE
8
BLACK
10
50761.0
20
39278.0
11
50761.0
21
39928.0
0
LINE
8
BLACK
10
50761.0
20
39928.0
11
50311.0
21
39928.0
0
LINE
8
BLACK
10
50311.0
20
39928.0
11
50311.0
21
39278.0
0
LINE
8
BLACK
10
50311.0
20
39278.0
11
50761.0
21
39278.0
0
LINE
8
BLACK
10
50161.0
20
39278.0
11
50161.0
21
39928.0
0
LINE
8
BLACK
10
50161.0
20
39928.0
11
49711.0
21
39928.0
0
LINE
8
BLACK
10
49711.0
20
39928.0
11
49711.0
21
39278.0
0
LINE
8
BLACK
10
49711.0
20
39278.0
11
50161.0
21
39278.0
0
LINE
8
BLACK
10
50349.0
20
31415.0
11
49699.0
21
31415.0
0
LINE
8
BLACK
10
49699.0
20
31415.0
11
49699.0
21
30965.0
0
LINE
8
BLACK
10
49699.0
20
30965.0
11
50349.0
21
30965.0
0
LINE
8
BLACK
10
50349.0
20
30965.0
11
50349.0
21
31415.0
0
LINE
8
BLACK
10
50349.0
20
30815.0
11
49699.0
21
30815.0
0
LINE
8
BLACK
10
49699.0
20
30815.0
11
49699.0
21
30365.0
0
LINE
8
BLACK
10
49699.0
20
30365.0
11
50349.0
21
30365.0
0
LINE
8
BLACK
10
50349.0
20
30365.0
11
50349.0
21
30815.0
0
LINE
8
BLACK
10
51270.0
20
32415.0
11
50620.0
21
32415.0
0
LINE
8
BLACK
10
50620.0
20
32415.0
11
50620.0
21
31965.0
0
LINE
8
BLACK
10
50620.0
20
31965.0
11
51270.0
21
31965.0
0
LINE
8
BLACK
10
51270.0
20
31965.0
11
51270.0
21
32415.0
0
LINE
8
BLACK
10
51270.0
20
31815.0
11
50620.0
21
31815.0
0
LINE
8
BLACK
10
50620.0
20
31815.0
11
50620.0
21
31365.0
0
LINE
8
BLACK
10
50620.0
20
31365.0
11
51270.0
21
31365.0
0
LINE
8
BLACK
10
51270.0
20
31365.0
11
51270.0
21
31815.0
0
LINE
8
BLACK
10
51778.0
20
37253.0
11
51128.0
21
37253.0
0
LINE
8
BLACK
10
51128.0
20
37253.0
11
51128.0
21
36803.0
0
LINE
8
BLACK
10
51128.0
20
36803.0
11
51778.0
21
36803.0
0
LINE
8
BLACK
10
51778.0
20
36803.0
11
51778.0
21
37253.0
0
LINE
8
BLACK
10
51778.0
20
36653.0
11
51128.0
21
36653.0
0
LINE
8
BLACK
10
51128.0
20
36653.0
11
51128.0
21
36203.0
0
LINE
8
BLACK
10
51128.0
20
36203.0
11
51778.0
21
36203.0
0
LINE
8
BLACK
10
51778.0
20
36203.0
11
51778.0
21
36653.0
0
LINE
8
BLACK
10
51711.0
20
38034.0
11
51711.0
21
37384.0
0
LINE
8
BLACK
10
51711.0
20
37384.0
11
52161.0
21
37384.0
0
LINE
8
BLACK
10
52161.0
20
37384.0
11
52161.0
21
38034.0
0
LINE
8
BLACK
10
52161.0
20
38034.0
11
51711.0
21
38034.0
0
LINE
8
BLACK
10
52311.0
20
38034.0
11
52311.0
21
37384.0
0
LINE
8
BLACK
10
52311.0
20
37384.0
11
52761.0
21
37384.0
0
LINE
8
BLACK
10
52761.0
20
37384.0
11
52761.0
21
38034.0
0
LINE
8
BLACK
10
52761.0
20
38034.0
11
52311.0
21
38034.0
0
LINE
8
BLACK
10
51719.0
20
37439.0
11
51719.0
21
36789.0
0
LINE
8
BLACK
10
51719.0
20
36789.0
11
52169.0
21
36789.0
0
LINE
8
BLACK
10
52169.0
20
36789.0
11
52169.0
21
37439.0
0
LINE
8
BLACK
10
52169.0
20
37439.0
11
51719.0
21
37439.0
0
LINE
8
BLACK
10
52319.0
20
37439.0
11
52319.0
21
36789.0
0
LINE
8
BLACK
10
52319.0
20
36789.0
11
52769.0
21
36789.0
0
LINE
8
BLACK
10
52769.0
20
36789.0
11
52769.0
21
37439.0
0
LINE
8
BLACK
10
52769.0
20
37439.0
11
52319.0
21
37439.0
0
LINE
8
BLACK
10
51719.0
20
36852.0
11
51719.0
21
36202.0
0
LINE
8
BLACK
10
51719.0
20
36202.0
11
52169.0
21
36202.0
0
LINE
8
BLACK
10
52169.0
20
36202.0
11
52169.0
21
36852.0
0
LINE
8
BLACK
10
52169.0
20
36852.0
11
51719.0
21
36852.0
0
LINE
8
BLACK
10
52319.0
20
36852.0
11
52319.0
21
36202.0
0
LINE
8
BLACK
10
52319.0
20
36202.0
11
52769.0
21
36202.0
0
LINE
8
BLACK
10
52769.0
20
36202.0
11
52769.0
21
36852.0
0
LINE
8
BLACK
10
52769.0
20
36852.0
11
52319.0
21
36852.0
0
LINE
8
BLACK
10
53703.0
20
34723.0
11
53703.0
21
34073.0
0
LINE
8
BLACK
10
53703.0
20
34073.0
11
54153.0
21
34073.0
0
LINE
8
BLACK
10
54153.0
20
34073.0
11
54153.0
21
34723.0
0
LINE
8
BLACK
10
54153.0
20
34723.0
11
53703.0
21
34723.0
0
LINE
8
BLACK
10
54303.0
20
34723.0
11
54303.0
21
34073.0
0
LINE
8
BLACK
10
54303.0
20
34073.0
11
54753.0
21
34073.0
0
LINE
8
BLACK
10
54753.0
20
34073.0
11
54753.0
21
34723.0
0
LINE
8
BLACK
10
54753.0
20
34723.0
11
54303.0
21
34723.0
0
LINE
8
BLACK
10
53703.0
20
35298.0
11
53703.0
21
34648.0
0
LINE
8
BLACK
10
53703.0
20
34648.0
11
54153.0
21
34648.0
0
LINE
8
BLACK
10
54153.0
20
34648.0
11
54153.0
21
35298.0
0
LINE
8
BLACK
10
54153.0
20
35298.0
11
53703.0
21
35298.0
0
LINE
8
BLACK
10
54303.0
20
35298.0
11
54303.0
21
34648.0
0
LINE
8
BLACK
10
54303.0
20
34648.0
11
54753.0
21
34648.0
0
LINE
8
BLACK
10
54753.0
20
34648.0
11
54753.0
21
35298.0
0
LINE
8
BLACK
10
54753.0
20
35298.0
11
54303.0
21
35298.0
0
LINE
8
BLACK
10
58711.0
20
42338.0
11
58711.0
21
41688.0
0
LINE
8
BLACK
10
58711.0
20
41688.0
11
59161.0
21
41688.0
0
LINE
8
BLACK
10
59161.0
20
41688.0
11
59161.0
21
42338.0
0
LINE
8
BLACK
10
59161.0
20
42338.0
11
58711.0
21
42338.0
0
LINE
8
BLACK
10
59311.0
20
42338.0
11
59311.0
21
41688.0
0
LINE
8
BLACK
10
59311.0
20
41688.0
11
59761.0
21
41688.0
0
LINE
8
BLACK
10
59761.0
20
41688.0
11
59761.0
21
42338.0
0
LINE
8
BLACK
10
59761.0
20
42338.0
11
59311.0
21
42338.0
0
LINE
8
BLACK
10
51860.0
20
39999.0
11
52510.0
21
39999.0
0
LINE
8
BLACK
10
52510.0
20
39999.0
11
52510.0
21
40449.0
0
LINE
8
BLACK
10
52510.0
20
40449.0
11
51860.0
21
40449.0
0
LINE
8
BLACK
10
51860.0
20
40449.0
11
51860.0
21
39999.0
0
LINE
8
BLACK
10
51860.0
20
40599.0
11
52510.0
21
40599.0
0
LINE
8
BLACK
10
52510.0
20
40599.0
11
52510.0
21
41049.0
0
LINE
8
BLACK
10
52510.0
20
41049.0
11
51860.0
21
41049.0
0
LINE
8
BLACK
10
51860.0
20
41049.0
11
51860.0
21
40599.0
0
LINE
8
BLACK
10
53506.0
20
39614.0
11
54156.0
21
39614.0
0
LINE
8
BLACK
10
54156.0
20
39614.0
11
54156.0
21
40064.0
0
LINE
8
BLACK
10
54156.0
20
40064.0
11
53506.0
21
40064.0
0
LINE
8
BLACK
10
53506.0
20
40064.0
11
53506.0
21
39614.0
0
LINE
8
BLACK
10
53506.0
20
40214.0
11
54156.0
21
40214.0
0
LINE
8
BLACK
10
54156.0
20
40214.0
11
54156.0
21
40664.0
0
LINE
8
BLACK
10
54156.0
20
40664.0
11
53506.0
21
40664.0
0
LINE
8
BLACK
10
53506.0
20
40664.0
11
53506.0
21
40214.0
0
LINE
8
BLACK
10
52939.0
20
39614.0
11
53589.0
21
39614.0
0
LINE
8
BLACK
10
53589.0
20
39614.0
11
53589.0
21
40064.0
0
LINE
8
BLACK
10
53589.0
20
40064.0
11
52939.0
21
40064.0
0
LINE
8
BLACK
10
52939.0
20
40064.0
11
52939.0
21
39614.0
0
LINE
8
BLACK
10
52939.0
20
40214.0
11
53589.0
21
40214.0
0
LINE
8
BLACK
10
53589.0
20
40214.0
11
53589.0
21
40664.0
0
LINE
8
BLACK
10
53589.0
20
40664.0
11
52939.0
21
40664.0
0
LINE
8
BLACK
10
52939.0
20
40664.0
11
52939.0
21
40214.0
0
LINE
8
BLACK
10
50048.0
20
40026.0
11
50698.0
21
40026.0
0
LINE
8
BLACK
10
50698.0
20
40026.0
11
50698.0
21
40476.0
0
LINE
8
BLACK
10
50698.0
20
40476.0
11
50048.0
21
40476.0
0
LINE
8
BLACK
10
50048.0
20
40476.0
11
50048.0
21
40026.0
0
LINE
8
BLACK
10
50048.0
20
40626.0
11
50698.0
21
40626.0
0
LINE
8
BLACK
10
50698.0
20
40626.0
11
50698.0
21
41076.0
0
LINE
8
BLACK
10
50698.0
20
41076.0
11
50048.0
21
41076.0
0
LINE
8
BLACK
10
50048.0
20
41076.0
11
50048.0
21
40626.0
0
LINE
8
BLACK
10
51714.0
20
40290.0
11
51714.0
21
40940.0
0
LINE
8
BLACK
10
51714.0
20
40940.0
11
51264.0
21
40940.0
0
LINE
8
BLACK
10
51264.0
20
40940.0
11
51264.0
21
40290.0
0
LINE
8
BLACK
10
51264.0
20
40290.0
11
51714.0
21
40290.0
0
LINE
8
BLACK
10
51114.0
20
40290.0
11
51114.0
21
40940.0
0
LINE
8
BLACK
10
51114.0
20
40940.0
11
50664.0
21
40940.0
0
LINE
8
BLACK
10
50664.0
20
40940.0
11
50664.0
21
40290.0
0
LINE
8
BLACK
10
50664.0
20
40290.0
11
51114.0
21
40290.0
0
LINE
8
BLACK
10
49474.0
20
40026.0
11
50124.0
21
40026.0
0
LINE
8
BLACK
10
50124.0
20
40026.0
11
50124.0
21
40476.0
0
LINE
8
BLACK
10
50124.0
20
40476.0
11
49474.0
21
40476.0
0
LINE
8
BLACK
10
49474.0
20
40476.0
11
49474.0
21
40026.0
0
LINE
8
BLACK
10
49474.0
20
40626.0
11
50124.0
21
40626.0
0
LINE
8
BLACK
10
50124.0
20
40626.0
11
50124.0
21
41076.0
0
LINE
8
BLACK
10
50124.0
20
41076.0
11
49474.0
21
41076.0
0
LINE
8
BLACK
10
49474.0
20
41076.0
11
49474.0
21
40626.0
0
LINE
8
BLACK
10
52471.0
20
39593.0
11
51821.0
21
39593.0
0
LINE
8
BLACK
10
51821.0
20
39593.0
11
51821.0
21
39143.0
0
LINE
8
BLACK
10
51821.0
20
39143.0
11
52471.0
21
39143.0
0
LINE
8
BLACK
10
52471.0
20
39143.0
11
52471.0
21
39593.0
0
LINE
8
BLACK
10
52471.0
20
38993.0
11
51821.0
21
38993.0
0
LINE
8
BLACK
10
51821.0
20
38993.0
11
51821.0
21
38543.0
0
LINE
8
BLACK
10
51821.0
20
38543.0
11
52471.0
21
38543.0
0
LINE
8
BLACK
10
52471.0
20
38543.0
11
52471.0
21
38993.0
0
LINE
8
BLACK
10
52688.0
20
41239.0
11
52688.0
21
40589.0
0
LINE
8
BLACK
10
52688.0
20
40589.0
11
53138.0
21
40589.0
0
LINE
8
BLACK
10
53138.0
20
40589.0
11
53138.0
21
41239.0
0
LINE
8
BLACK
10
53138.0
20
41239.0
11
52688.0
21
41239.0
0
LINE
8
BLACK
10
53288.0
20
41239.0
11
53288.0
21
40589.0
0
LINE
8
BLACK
10
53288.0
20
40589.0
11
53738.0
21
40589.0
0
LINE
8
BLACK
10
53738.0
20
40589.0
11
53738.0
21
41239.0
0
LINE
8
BLACK
10
53738.0
20
41239.0
11
53288.0
21
41239.0
0
LINE
8
BLACK
10
56529.0
20
39700.0
11
57179.0
21
39700.0
0
LINE
8
BLACK
10
57179.0
20
39700.0
11
57179.0
21
40150.0
0
LINE
8
BLACK
10
57179.0
20
40150.0
11
56529.0
21
40150.0
0
LINE
8
BLACK
10
56529.0
20
40150.0
11
56529.0
21
39700.0
0
LINE
8
BLACK
10
56529.0
20
40300.0
11
57179.0
21
40300.0
0
LINE
8
BLACK
10
57179.0
20
40300.0
11
57179.0
21
40750.0
0
LINE
8
BLACK
10
57179.0
20
40750.0
11
56529.0
21
40750.0
0
LINE
8
BLACK
10
56529.0
20
40750.0
11
56529.0
21
40300.0
0
LINE
8
BLACK
10
65900.0
20
34570.0
11
65100.0
21
34570.0
0
LINE
8
BLACK
10
65100.0
20
34570.0
11
65100.0
21
33770.0
0
LINE
8
BLACK
10
65100.0
20
33770.0
11
65900.0
21
33770.0
0
LINE
8
BLACK
10
65900.0
20
33770.0
11
65900.0
21
34570.0
0
CIRCLE
8
BLACK
10
66500.0
20
34170.0
40
400
0
CIRCLE
8
BLACK
10
65500.0
20
33170.0
40
400
0
CIRCLE
8
BLACK
10
66500.0
20
33170.0
40
400
0
CIRCLE
8
BLACK
10
65500.0
20
32170.0
40
400
0
CIRCLE
8
BLACK
10
66500.0
20
32170.0
40
400
0
CIRCLE
8
BLACK
10
65500.0
20
31170.0
40
400
0
CIRCLE
8
BLACK
10
66500.0
20
31170.0
40
400
0
LINE
8
BLACK
10
64100.0
20
34770.0
11
64900.0
21
34770.0
0
LINE
8
BLACK
10
64900.0
20
34770.0
11
64900.0
21
35570.0
0
LINE
8
BLACK
10
64900.0
20
35570.0
11
64100.0
21
35570.0
0
LINE
8
BLACK
10
64100.0
20
35570.0
11
64100.0
21
34770.0
0
CIRCLE
8
BLACK
10
64500.0
20
36170.0
40
400
0
LINE
8
BLACK
10
64100.0
20
36770.0
11
64900.0
21
36770.0
0
LINE
8
BLACK
10
64900.0
20
36770.0
11
64900.0
21
37570.0
0
LINE
8
BLACK
10
64900.0
20
37570.0
11
64100.0
21
37570.0
0
LINE
8
BLACK
10
64100.0
20
37570.0
11
64100.0
21
36770.0
0
CIRCLE
8
BLACK
10
64500.0
20
38170.0
40
400
0
LINE
8
BLACK
10
47900.0
20
33770.0
11
47900.0
21
34570.0
0
LINE
8
BLACK
10
47900.0
20
34570.0
11
47100.0
21
34570.0
0
LINE
8
BLACK
10
47100.0
20
34570.0
11
47100.0
21
33770.0
0
LINE
8
BLACK
10
47100.0
20
33770.0
11
47900.0
21
33770.0
0
CIRCLE
8
BLACK
10
46500.0
20
34170.0
40
400
0
LINE
8
BLACK
10
47900.0
20
32770.0
11
47900.0
21
33570.0
0
LINE
8
BLACK
10
47900.0
20
33570.0
11
47100.0
21
33570.0
0
LINE
8
BLACK
10
47100.0
20
33570.0
11
47100.0
21
32770.0
0
LINE
8
BLACK
10
47100.0
20
32770.0
11
47900.0
21
32770.0
0
CIRCLE
8
BLACK
10
46500.0
20
33170.0
40
400
0
LINE
8
BLACK
10
63251.0
20
39397.0
11
62451.0
21
39397.0
0
LINE
8
BLACK
10
62451.0
20
39397.0
11
62451.0
21
38597.0
0
LINE
8
BLACK
10
62451.0
20
38597.0
11
63251.0
21
38597.0
0
LINE
8
BLACK
10
63251.0
20
38597.0
11
63251.0
21
39397.0
0
CIRCLE
8
BLACK
10
62851.0
20
37997.0
40
400
0
LINE
8
BLACK
10
57812.0
20
39079.0
11
57812.0
21
38079.0
0
LINE
8
BLACK
10
57812.0
20
38079.0
11
58612.0
21
38079.0
0
LINE
8
BLACK
10
58612.0
20
38079.0
11
58612.0
21
39079.0
0
LINE
8
BLACK
10
58612.0
20
39079.0
11
57812.0
21
39079.0
0
LINE
8
BLACK
10
59112.0
20
39079.0
11
59112.0
21
38079.0
0
LINE
8
BLACK
10
59112.0
20
38079.0
11
59912.0
21
38079.0
0
LINE
8
BLACK
10
59912.0
20
38079.0
11
59912.0
21
39079.0
0
LINE
8
BLACK
10
59912.0
20
39079.0
11
59112.0
21
39079.0
0
LINE
8
BLACK
10
59636.0
20
36309.0
11
58986.0
21
36309.0
0
LINE
8
BLACK
10
58986.0
20
36309.0
11
58986.0
21
35859.0
0
LINE
8
BLACK
10
58986.0
20
35859.0
11
59636.0
21
35859.0
0
LINE
8
BLACK
10
59636.0
20
35859.0
11
59636.0
21
36309.0
0
LINE
8
BLACK
10
59636.0
20
35709.0
11
58986.0
21
35709.0
0
LINE
8
BLACK
10
58986.0
20
35709.0
11
58986.0
21
35259.0
0
LINE
8
BLACK
10
58986.0
20
35259.0
11
59636.0
21
35259.0
0
LINE
8
BLACK
10
59636.0
20
35259.0
11
59636.0
21
35709.0
0
LINE
8
BLACK
10
58990.0
20
36628.0
11
58990.0
21
37278.0
0
LINE
8
BLACK
10
58990.0
20
37278.0
11
58540.0
21
37278.0
0
LINE
8
BLACK
10
58540.0
20
37278.0
11
58540.0
21
36628.0
0
LINE
8
BLACK
10
58540.0
20
36628.0
11
58990.0
21
36628.0
0
LINE
8
BLACK
10
58390.0
20
36628.0
11
58390.0
21
37278.0
0
LINE
8
BLACK
10
58390.0
20
37278.0
11
57940.0
21
37278.0
0
LINE
8
BLACK
10
57940.0
20
37278.0
11
57940.0
21
36628.0
0
LINE
8
BLACK
10
57940.0
20
36628.0
11
58390.0
21
36628.0
0
LINE
8
BLACK
10
57715.0
20
34066.0
11
57715.0
21
33416.0
0
LINE
8
BLACK
10
57715.0
20
33416.0
11
58165.0
21
33416.0
0
LINE
8
BLACK
10
58165.0
20
33416.0
11
58165.0
21
34066.0
0
LINE
8
BLACK
10
58165.0
20
34066.0
11
57715.0
21
34066.0
0
LINE
8
BLACK
10
58315.0
20
34066.0
11
58315.0
21
33416.0
0
LINE
8
BLACK
10
58315.0
20
33416.0
11
58765.0
21
33416.0
0
LINE
8
BLACK
10
58765.0
20
33416.0
11
58765.0
21
34066.0
0
LINE
8
BLACK
10
58765.0
20
34066.0
11
58315.0
21
34066.0
0
LINE
8
BLACK
10
60554.0
20
35708.0
11
60554.0
21
35058.0
0
LINE
8
BLACK
10
60554.0
20
35058.0
11
61004.0
21
35058.0
0
LINE
8
BLACK
10
61004.0
20
35058.0
11
61004.0
21
35708.0
0
LINE
8
BLACK
10
61004.0
20
35708.0
11
60554.0
21
35708.0
0
LINE
8
BLACK
10
61154.0
20
35708.0
11
61154.0
21
35058.0
0
LINE
8
BLACK
10
61154.0
20
35058.0
11
61604.0
21
35058.0
0
LINE
8
BLACK
10
61604.0
20
35058.0
11
61604.0
21
35708.0
0
LINE
8
BLACK
10
61604.0
20
35708.0
11
61154.0
21
35708.0
0
LINE
8
BLACK
10
59774.0
20
37688.0
11
59774.0
21
37038.0
0
LINE
8
BLACK
10
59774.0
20
37038.0
11
60224.0
21
37038.0
0
LINE
8
BLACK
10
60224.0
20
37038.0
11
60224.0
21
37688.0
0
LINE
8
BLACK
10
60224.0
20
37688.0
11
59774.0
21
37688.0
0
LINE
8
BLACK
10
60374.0
20
37688.0
11
60374.0
21
37038.0
0
LINE
8
BLACK
10
60374.0
20
37038.0
11
60824.0
21
37038.0
0
LINE
8
BLACK
10
60824.0
20
37038.0
11
60824.0
21
37688.0
0
LINE
8
BLACK
10
60824.0
20
37688.0
11
60374.0
21
37688.0
0
LINE
8
BLACK
10
60522.0
20
34526.0
11
60522.0
21
33876.0
0
LINE
8
BLACK
10
60522.0
20
33876.0
11
60972.0
21
33876.0
0
LINE
8
BLACK
10
60972.0
20
33876.0
11
60972.0
21
34526.0
0
LINE
8
BLACK
10
60972.0
20
34526.0
11
60522.0
21
34526.0
0
LINE
8
BLACK
10
61122.0
20
34526.0
11
61122.0
21
33876.0
0
LINE
8
BLACK
10
61122.0
20
33876.0
11
61572.0
21
33876.0
0
LINE
8
BLACK
10
61572.0
20
33876.0
11
61572.0
21
34526.0
0
LINE
8
BLACK
10
61572.0
20
34526.0
11
61122.0
21
34526.0
0
LINE
8
BLACK
10
59774.0
20
37117.0
11
59774.0
21
36467.0
0
LINE
8
BLACK
10
59774.0
20
36467.0
11
60224.0
21
36467.0
0
LINE
8
BLACK
10
60224.0
20
36467.0
11
60224.0
21
37117.0
0
LINE
8
BLACK
10
60224.0
20
37117.0
11
59774.0
21
37117.0
0
LINE
8
BLACK
10
60374.0
20
37117.0
11
60374.0
21
36467.0
0
LINE
8
BLACK
10
60374.0
20
36467.0
11
60824.0
21
36467.0
0
LINE
8
BLACK
10
60824.0
20
36467.0
11
60824.0
21
37117.0
0
LINE
8
BLACK
10
60824.0
20
37117.0
11
60374.0
21
37117.0
0
LINE
8
BLACK
10
57545.0
20
37376.0
11
57545.0
21
38026.0
0
LINE
8
BLACK
10
57545.0
20
38026.0
11
57095.0
21
38026.0
0
LINE
8
BLACK
10
57095.0
20
38026.0
11
57095.0
21
37376.0
0
LINE
8
BLACK
10
57095.0
20
37376.0
11
57545.0
21
37376.0
0
LINE
8
BLACK
10
56945.0
20
37376.0
11
56945.0
21
38026.0
0
LINE
8
BLACK
10
56945.0
20
38026.0
11
56495.0
21
38026.0
0
LINE
8
BLACK
10
56495.0
20
38026.0
11
56495.0
21
37376.0
0
LINE
8
BLACK
10
56495.0
20
37376.0
11
56945.0
21
37376.0
0
LINE
8
BLACK
10
58003.0
20
34964.0
11
58003.0
21
34314.0
0
LINE
8
BLACK
10
58003.0
20
34314.0
11
58453.0
21
34314.0
0
LINE
8
BLACK
10
58453.0
20
34314.0
11
58453.0
21
34964.0
0
LINE
8
BLACK
10
58453.0
20
34964.0
11
58003.0
21
34964.0
0
LINE
8
BLACK
10
58603.0
20
34964.0
11
58603.0
21
34314.0
0
LINE
8
BLACK
10
58603.0
20
34314.0
11
59053.0
21
34314.0
0
LINE
8
BLACK
10
59053.0
20
34314.0
11
59053.0
21
34964.0
0
LINE
8
BLACK
10
59053.0
20
34964.0
11
58603.0
21
34964.0
0
LINE
8
BLACK
10
58396.0
20
39731.0
11
58396.0
21
39081.0
0
LINE
8
BLACK
10
58396.0
20
39081.0
11
58846.0
21
39081.0
0
LINE
8
BLACK
10
58846.0
20
39081.0
11
58846.0
21
39731.0
0
LINE
8
BLACK
10
58846.0
20
39731.0
11
58396.0
21
39731.0
0
LINE
8
BLACK
10
58996.0
20
39731.0
11
58996.0
21
39081.0
0
LINE
8
BLACK
10
58996.0
20
39081.0
11
59446.0
21
39081.0
0
LINE
8
BLACK
10
59446.0
20
39081.0
11
59446.0
21
39731.0
0
LINE
8
BLACK
10
59446.0
20
39731.0
11
58996.0
21
39731.0
0
LINE
8
BLACK
10
46900.0
20
46570.0
11
46100.0
21
46570.0
0
LINE
8
BLACK
10
46100.0
20
46570.0
11
46100.0
21
45770.0
0
LINE
8
BLACK
10
46100.0
20
45770.0
11
46900.0
21
45770.0
0
LINE
8
BLACK
10
46900.0
20
45770.0
11
46900.0
21
46570.0
0
CIRCLE
8
BLACK
10
47500.0
20
46170.0
40
400
0
CIRCLE
8
BLACK
10
46500.0
20
45170.0
40
400
0
CIRCLE
8
BLACK
10
47500.0
20
45170.0
40
400
0
CIRCLE
8
BLACK
10
46500.0
20
44170.0
40
400
0
CIRCLE
8
BLACK
10
47500.0
20
44170.0
40
400
0
CIRCLE
8
BLACK
10
46500.0
20
43170.0
40
400
0
CIRCLE
8
BLACK
10
47500.0
20
43170.0
40
400
0
CIRCLE
8
BLACK
10
46500.0
20
42170.0
40
400
0
CIRCLE
8
BLACK
10
47500.0
20
42170.0
40
400
0
CIRCLE
8
BLACK
10
46500.0
20
41170.0
40
400
0
CIRCLE
8
BLACK
10
47500.0
20
41170.0
40
400
0
CIRCLE
8
BLACK
10
46500.0
20
40170.0
40
400
0
CIRCLE
8
BLACK
10
47500.0
20
40170.0
40
400
0
CIRCLE
8
BLACK
10
46500.0
20
39170.0
40
400
0
CIRCLE
8
BLACK
10
47500.0
20
39170.0
40
400
0
CIRCLE
8
BLACK
10
46500.0
20
38170.0
40
400
0
CIRCLE
8
BLACK
10
47500.0
20
38170.0
40
400
0
CIRCLE
8
BLACK
10
46500.0
20
37170.0
40
400
0
CIRCLE
8
BLACK
10
47500.0
20
37170.0
40
400
0
CIRCLE
8
BLACK
10
46500.0
20
36170.0
40
400
0
CIRCLE
8
BLACK
10
47500.0
20
36170.0
40
400
0
CIRCLE
8
BLACK
10
46500.0
20
35170.0
40
400
0
CIRCLE
8
BLACK
10
47500.0
20
35170.0
40
400
0
LINE
8
BLACK
10
61455.0
20
30482.0
11
60705.0
21
30482.0
0
LINE
8
BLACK
10
60705.0
20
30482.0
11
60705.0
21
29932.0
0
LINE
8
BLACK
10
60705.0
20
29932.0
11
61455.0
21
29932.0
0
LINE
8
BLACK
10
61455.0
20
29932.0
11
61455.0
21
30482.0
0
LINE
8
BLACK
10
61455.0
20
29732.0
11
60705.0
21
29732.0
0
LINE
8
BLACK
10
60705.0
20
29732.0
11
60705.0
21
29182.0
0
LINE
8
BLACK
10
60705.0
20
29182.0
11
61455.0
21
29182.0
0
LINE
8
BLACK
10
61455.0
20
29182.0
11
61455.0
21
29732.0
0
LINE
8
BLACK
10
55849.0
20
39449.0
11
56599.0
21
39449.0
0
LINE
8
BLACK
10
56599.0
20
39449.0
11
56599.0
21
39999.0
0
LINE
8
BLACK
10
56599.0
20
39999.0
11
55849.0
21
39999.0
0
LINE
8
BLACK
10
55849.0
20
39999.0
11
55849.0
21
39449.0
0
LINE
8
BLACK
10
55849.0
20
40199.0
11
56599.0
21
40199.0
0
LINE
8
BLACK
10
56599.0
20
40199.0
11
56599.0
21
40749.0
0
LINE
8
BLACK
10
56599.0
20
40749.0
11
55849.0
21
40749.0
0
LINE
8
BLACK
10
55849.0
20
40749.0
11
55849.0
21
40199.0
0
LINE
8
BLACK
10
57944.0
20
38057.0
11
57944.0
21
37307.0
0
LINE
8
BLACK
10
57944.0
20
37307.0
11
58494.0
21
37307.0
0
LINE
8
BLACK
10
58494.0
20
37307.0
11
58494.0
21
38057.0
0
LINE
8
BLACK
10
58494.0
20
38057.0
11
57944.0
21
38057.0
0
LINE
8
BLACK
10
58694.0
20
38057.0
11
58694.0
21
37307.0
0
LINE
8
BLACK
10
58694.0
20
37307.0
11
59244.0
21
37307.0
0
LINE
8
BLACK
10
59244.0
20
37307.0
11
59244.0
21
38057.0
0
LINE
8
BLACK
10
59244.0
20
38057.0
11
58694.0
21
38057.0
0
LINE
8
BLACK
10
55097.0
20
39449.0
11
55847.0
21
39449.0
0
LINE
8
BLACK
10
55847.0
20
39449.0
11
55847.0
21
39999.0
0
LINE
8
BLACK
10
55847.0
20
39999.0
11
55097.0
21
39999.0
0
LINE
8
BLACK
10
55097.0
20
39999.0
11
55097.0
21
39449.0
0
LINE
8
BLACK
10
55097.0
20
40199.0
11
55847.0
21
40199.0
0
LINE
8
BLACK
10
55847.0
20
40199.0
11
55847.0
21
40749.0
0
LINE
8
BLACK
10
55847.0
20
40749.0
11
55097.0
21
40749.0
0
LINE
8
BLACK
10
55097.0
20
40749.0
11
55097.0
21
40199.0
0
LINE
8
BLACK
10
64131.0
20
28537.0
11
65131.0
21
28537.0
0
LINE
8
BLACK
10
65131.0
20
28537.0
11
65131.0
21
29337.0
0
LINE
8
BLACK
10
65131.0
20
29337.0
11
64131.0
21
29337.0
0
LINE
8
BLACK
10
64131.0
20
29337.0
11
64131.0
21
28537.0
0
LINE
8
BLACK
10
64131.0
20
29837.0
11
65131.0
21
29837.0
0
LINE
8
BLACK
10
65131.0
20
29837.0
11
65131.0
21
30637.0
0
LINE
8
BLACK
10
65131.0
20
30637.0
11
64131.0
21
30637.0
0
LINE
8
BLACK
10
64131.0
20
30637.0
11
64131.0
21
29837.0
0
LINE
8
BLACK
10
64808.0
20
33702.0
11
64372.0
21
33702.0
0
LINE
8
BLACK
10
64372.0
20
33702.0
11
64372.0
21
33306.0
0
LINE
8
BLACK
10
64372.0
20
33306.0
11
64808.0
21
33306.0
0
LINE
8
BLACK
10
64808.0
20
33306.0
11
64808.0
21
33702.0
0
LINE
8
BLACK
10
64808.0
20
33310.0
11
64372.0
21
33310.0
0
LINE
8
BLACK
10
64372.0
20
33310.0
11
64372.0
21
32914.0
0
LINE
8
BLACK
10
64372.0
20
32914.0
11
64808.0
21
32914.0
0
LINE
8
BLACK
10
64808.0
20
32914.0
11
64808.0
21
33310.0
0
LINE
8
BLACK
10
64298.0
20
33506.0
11
63862.0
21
33506.0
0
LINE
8
BLACK
10
63862.0
20
33506.0
11
63862.0
21
33110.0
0
LINE
8
BLACK
10
63862.0
20
33110.0
11
64298.0
21
33110.0
0
LINE
8
BLACK
10
64298.0
20
33110.0
11
64298.0
21
33506.0
0
LINE
8
BLACK
10
62894.0
20
29724.0
11
63330.0
21
29724.0
0
LINE
8
BLACK
10
63330.0
20
29724.0
11
63330.0
21
30120.0
0
LINE
8
BLACK
10
63330.0
20
30120.0
11
62894.0
21
30120.0
0
LINE
8
BLACK
10
62894.0
20
30120.0
11
62894.0
21
29724.0
0
LINE
8
BLACK
10
62894.0
20
30116.0
11
63330.0
21
30116.0
0
LINE
8
BLACK
10
63330.0
20
30116.0
11
63330.0
21
30512.0
0
LINE
8
BLACK
10
63330.0
20
30512.0
11
62894.0
21
30512.0
0
LINE
8
BLACK
10
62894.0
20
30512.0
11
62894.0
21
30116.0
0
LINE
8
BLACK
10
63404.0
20
29920.0
11
63840.0
21
29920.0
0
LINE
8
BLACK
10
63840.0
20
29920.0
11
63840.0
21
30316.0
0
LINE
8
BLACK
10
63840.0
20
30316.0
11
63404.0
21
30316.0
0
LINE
8
BLACK
10
63404.0
20
30316.0
11
63404.0
21
29920.0
0
LINE
8
BLACK
10
64812.0
20
31690.0
11
64376.0
21
31690.0
0
LINE
8
BLACK
10
64376.0
20
31690.0
11
64376.0
21
31294.0
0
LINE
8
BLACK
10
64376.0
20
31294.0
11
64812.0
21
31294.0
0
LINE
8
BLACK
10
64812.0
20
31294.0
11
64812.0
21
31690.0
0
LINE
8
BLACK
10
64812.0
20
31298.0
11
64376.0
21
31298.0
0
LINE
8
BLACK
10
64376.0
20
31298.0
11
64376.0
21
30902.0
0
LINE
8
BLACK
10
64376.0
20
30902.0
11
64812.0
21
30902.0
0
LINE
8
BLACK
10
64812.0
20
30902.0
11
64812.0
21
31298.0
0
LINE
8
BLACK
10
64302.0
20
31494.0
11
63866.0
21
31494.0
0
LINE
8
BLACK
10
63866.0
20
31494.0
11
63866.0
21
31098.0
0
LINE
8
BLACK
10
63866.0
20
31098.0
11
64302.0
21
31098.0
0
LINE
8
BLACK
10
64302.0
20
31098.0
11
64302.0
21
31494.0
0
LINE
8
BLACK
10
64812.0
20
32710.0
11
64376.0
21
32710.0
0
LINE
8
BLACK
10
64376.0
20
32710.0
11
64376.0
21
32314.0
0
LINE
8
BLACK
10
64376.0
20
32314.0
11
64812.0
21
32314.0
0
LINE
8
BLACK
10
64812.0
20
32314.0
11
64812.0
21
32710.0
0
LINE
8
BLACK
10
64812.0
20
32318.0
11
64376.0
21
32318.0
0
LINE
8
BLACK
10
64376.0
20
32318.0
11
64376.0
21
31922.0
0
LINE
8
BLACK
10
64376.0
20
31922.0
11
64812.0
21
31922.0
0
LINE
8
BLACK
10
64812.0
20
31922.0
11
64812.0
21
32318.0
0
LINE
8
BLACK
10
64302.0
20
32514.0
11
63866.0
21
32514.0
0
LINE
8
BLACK
10
63866.0
20
32514.0
11
63866.0
21
32118.0
0
LINE
8
BLACK
10
63866.0
20
32118.0
11
64302.0
21
32118.0
0
LINE
8
BLACK
10
64302.0
20
32118.0
11
64302.0
21
32514.0
0
CIRCLE
8
BLACK
10
53449.0
20
29178.0
40
1045
0
LINE
8
BLACK
10
52404.0
20
30533.0
11
54494.0
21
30533.0
0
LINE
8
BLACK
10
54494.0
20
30533.0
11
54494.0
21
32623.0
0
LINE
8
BLACK
10
54494.0
20
32623.0
11
52404.0
21
32623.0
0
LINE
8
BLACK
10
52404.0
20
32623.0
11
52404.0
21
30533.0
0
CIRCLE
8
BLACK
10
55449.0
20
30078.0
40
1045
0
LINE
8
BLACK
10
57579.0
20
42540.0
11
57579.0
21
43200.0
0
LINE
8
BLACK
10
57579.0
20
43200.0
11
57253.0
21
43200.0
0
LINE
8
BLACK
10
57253.0
20
43200.0
11
57253.0
21
42540.0
0
LINE
8
BLACK
10
57253.0
20
42540.0
11
57579.0
21
42540.0
0
LINE
8
BLACK
10
57579.0
20
47120.0
11
57579.0
21
47780.0
0
LINE
8
BLACK
10
57579.0
20
47780.0
11
57253.0
21
47780.0
0
LINE
8
BLACK
10
57253.0
20
47780.0
11
57253.0
21
47120.0
0
LINE
8
BLACK
10
57253.0
20
47120.0
11
57579.0
21
47120.0
0
LINE
8
BLACK
10
57323.0
20
42540.0
11
57323.0
21
43200.0
0
LINE
8
BLACK
10
57323.0
20
43200.0
11
56997.0
21
43200.0
0
LINE
8
BLACK
10
56997.0
20
43200.0
11
56997.0
21
42540.0
0
LINE
8
BLACK
10
56997.0
20
42540.0
11
57323.0
21
42540.0
0
LINE
8
BLACK
10
57323.0
20
47120.0
11
57323.0
21
47780.0
0
LINE
8
BLACK
10
57323.0
20
47780.0
11
56997.0
21
47780.0
0
LINE
8
BLACK
10
56997.0
20
47780.0
11
56997.0
21
47120.0
0
LINE
8
BLACK
10
56997.0
20
47120.0
11
57323.0
21
47120.0
0
LINE
8
BLACK
10
57067.0
20
42540.0
11
57067.0
21
43200.0
0
LINE
8
BLACK
10
57067.0
20
43200.0
11
56741.0
21
43200.0
0
LINE
8
BLACK
10
56741.0
20
43200.0
11
56741.0
21
42540.0
0
LINE
8
BLACK
10
56741.0
20
42540.0
11
57067.0
21
42540.0
0
LINE
8
BLACK
10
57067.0
20
47120.0
11
57067.0
21
47780.0
0
LINE
8
BLACK
10
57067.0
20
47780.0
11
56741.0
21
47780.0
0
LINE
8
BLACK
10
56741.0
20
47780.0
11
56741.0
21
47120.0
0
LINE
8
BLACK
10
56741.0
20
47120.0
11
57067.0
21
47120.0
0
LINE
8
BLACK
10
56811.0
20
42540.0
11
56811.0
21
43200.0
0
LINE
8
BLACK
10
56811.0
20
43200.0
11
56485.0
21
43200.0
0
LINE
8
BLACK
10
56485.0
20
43200.0
11
56485.0
21
42540.0
0
LINE
8
BLACK
10
56485.0
20
42540.0
11
56811.0
21
42540.0
0
LINE
8
BLACK
10
56811.0
20
47120.0
11
56811.0
21
47780.0
0
LINE
8
BLACK
10
56811.0
20
47780.0
11
56485.0
21
47780.0
0
LINE
8
BLACK
10
56485.0
20
47780.0
11
56485.0
21
47120.0
0
LINE
8
BLACK
10
56485.0
20
47120.0
11
56811.0
21
47120.0
0
LINE
8
BLACK
10
56555.0
20
42540.0
11
56555.0
21
43200.0
0
LINE
8
BLACK
10
56555.0
20
43200.0
11
56229.0
21
43200.0
0
LINE
8
BLACK
10
56229.0
20
43200.0
11
56229.0
21
42540.0
0
LINE
8
BLACK
10
56229.0
20
42540.0
11
56555.0
21
42540.0
0
LINE
8
BLACK
10
56555.0
20
47120.0
11
56555.0
21
47780.0
0
LINE
8
BLACK
10
56555.0
20
47780.0
11
56229.0
21
47780.0
0
LINE
8
BLACK
10
56229.0
20
47780.0
11
56229.0
21
47120.0
0
LINE
8
BLACK
10
56229.0
20
47120.0
11
56555.0
21
47120.0
0
LINE
8
BLACK
10
56299.0
20
42540.0
11
56299.0
21
43200.0
0
LINE
8
BLACK
10
56299.0
20
43200.0
11
55973.0
21
43200.0
0
LINE
8
BLACK
10
55973.0
20
43200.0
11
55973.0
21
42540.0
0
LINE
8
BLACK
10
55973.0
20
42540.0
11
56299.0
21
42540.0
0
LINE
8
BLACK
10
56299.0
20
47120.0
11
56299.0
21
47780.0
0
LINE
8
BLACK
10
56299.0
20
47780.0
11
55973.0
21
47780.0
0
LINE
8
BLACK
10
55973.0
20
47780.0
11
55973.0
21
47120.0
0
LINE
8
BLACK
10
55973.0
20
47120.0
11
56299.0
21
47120.0
0
LINE
8
BLACK
10
56043.0
20
42540.0
11
56043.0
21
43200.0
0
LINE
8
BLACK
10
56043.0
20
43200.0
11
55717.0
21
43200.0
0
LINE
8
BLACK
10
55717.0
20
43200.0
11
55717.0
21
42540.0
0
LINE
8
BLACK
10
55717.0
20
42540.0
11
56043.0
21
42540.0
0
LINE
8
BLACK
10
56043.0
20
47120.0
11
56043.0
21
47780.0
0
LINE
8
BLACK
10
56043.0
20
47780.0
11
55717.0
21
47780.0
0
LINE
8
BLACK
10
55717.0
20
47780.0
11
55717.0
21
47120.0
0
LINE
8
BLACK
10
55717.0
20
47120.0
11
56043.0
21
47120.0
0
LINE
8
BLACK
10
55787.0
20
42540.0
11
55787.0
21
43200.0
0
LINE
8
BLACK
10
55787.0
20
43200.0
11
55461.0
21
43200.0
0
LINE
8
BLACK
10
55461.0
20
43200.0
11
55461.0
21
42540.0
0
LINE
8
BLACK
10
55461.0
20
42540.0
11
55787.0
21
42540.0
0
LINE
8
BLACK
10
55787.0
20
47120.0
11
55787.0
21
47780.0
0
LINE
8
BLACK
10
55787.0
20
47780.0
11
55461.0
21
47780.0
0
LINE
8
BLACK
10
55461.0
20
47780.0
11
55461.0
21
47120.0
0
LINE
8
BLACK
10
55461.0
20
47120.0
11
55787.0
21
47120.0
0
LINE
8
BLACK
10
55531.0
20
42540.0
11
55531.0
21
43200.0
0
LINE
8
BLACK
10
55531.0
20
43200.0
11
55205.0
21
43200.0
0
LINE
8
BLACK
10
55205.0
20
43200.0
11
55205.0
21
42540.0
0
LINE
8
BLACK
10
55205.0
20
42540.0
11
55531.0
21
42540.0
0
LINE
8
BLACK
10
55531.0
20
47120.0
11
55531.0
21
47780.0
0
LINE
8
BLACK
10
55531.0
20
47780.0
11
55205.0
21
47780.0
0
LINE
8
BLACK
10
55205.0
20
47780.0
11
55205.0
21
47120.0
0
LINE
8
BLACK
10
55205.0
20
47120.0
11
55531.0
21
47120.0
0
LINE
8
BLACK
10
55275.0
20
42540.0
11
55275.0
21
43200.0
0
LINE
8
BLACK
10
55275.0
20
43200.0
11
54949.0
21
43200.0
0
LINE
8
BLACK
10
54949.0
20
43200.0
11
54949.0
21
42540.0
0
LINE
8
BLACK
10
54949.0
20
42540.0
11
55275.0
21
42540.0
0
LINE
8
BLACK
10
55275.0
20
47120.0
11
55275.0
21
47780.0
0
LINE
8
BLACK
10
55275.0
20
47780.0
11
54949.0
21
47780.0
0
LINE
8
BLACK
10
54949.0
20
47780.0
11
54949.0
21
47120.0
0
LINE
8
BLACK
10
54949.0
20
47120.0
11
55275.0
21
47120.0
0
LINE
8
BLACK
10
55019.0
20
42540.0
11
55019.0
21
43200.0
0
LINE
8
BLACK
10
55019.0
20
43200.0
11
54693.0
21
43200.0
0
LINE
8
BLACK
10
54693.0
20
43200.0
11
54693.0
21
42540.0
0
LINE
8
BLACK
10
54693.0
20
42540.0
11
55019.0
21
42540.0
0
LINE
8
BLACK
10
55019.0
20
47120.0
11
55019.0
21
47780.0
0
LINE
8
BLACK
10
55019.0
20
47780.0
11
54693.0
21
47780.0
0
LINE
8
BLACK
10
54693.0
20
47780.0
11
54693.0
21
47120.0
0
LINE
8
BLACK
10
54693.0
20
47120.0
11
55019.0
21
47120.0
0
LINE
8
BLACK
10
54763.0
20
42540.0
11
54763.0
21
43200.0
0
LINE
8
BLACK
10
54763.0
20
43200.0
11
54437.0
21
43200.0
0
LINE
8
BLACK
10
54437.0
20
43200.0
11
54437.0
21
42540.0
0
LINE
8
BLACK
10
54437.0
20
42540.0
11
54763.0
21
42540.0
0
LINE
8
BLACK
10
54763.0
20
47120.0
11
54763.0
21
47780.0
0
LINE
8
BLACK
10
54763.0
20
47780.0
11
54437.0
21
47780.0
0
LINE
8
BLACK
10
54437.0
20
47780.0
11
54437.0
21
47120.0
0
LINE
8
BLACK
10
54437.0
20
47120.0
11
54763.0
21
47120.0
0
LINE
8
BLACK
10
54507.0
20
42540.0
11
54507.0
21
43200.0
0
LINE
8
BLACK
10
54507.0
20
43200.0
11
54181.0
21
43200.0
0
LINE
8
BLACK
10
54181.0
20
43200.0
11
54181.0
21
42540.0
0
LINE
8
BLACK
10
54181.0
20
42540.0
11
54507.0
21
42540.0
0
LINE
8
BLACK
10
54507.0
20
47120.0
11
54507.0
21
47780.0
0
LINE
8
BLACK
10
54507.0
20
47780.0
11
54181.0
21
47780.0
0
LINE
8
BLACK
10
54181.0
20
47780.0
11
54181.0
21
47120.0
0
LINE
8
BLACK
10
54181.0
20
47120.0
11
54507.0
21
47120.0
0
LINE
8
BLACK
10
54251.0
20
42540.0
11
54251.0
21
43200.0
0
LINE
8
BLACK
10
54251.0
20
43200.0
11
53925.0
21
43200.0
0
LINE
8
BLACK
10
53925.0
20
43200.0
11
53925.0
21
42540.0
0
LINE
8
BLACK
10
53925.0
20
42540.0
11
54251.0
21
42540.0
0
LINE
8
BLACK
10
54251.0
20
47120.0
11
54251.0
21
47780.0
0
LINE
8
BLACK
10
54251.0
20
47780.0
11
53925.0
21
47780.0
0
LINE
8
BLACK
10
53925.0
20
47780.0
11
53925.0
21
47120.0
0
LINE
8
BLACK
10
53925.0
20
47120.0
11
54251.0
21
47120.0
0
LINE
8
BLACK
10
53995.0
20
42540.0
11
53995.0
21
43200.0
0
LINE
8
BLACK
10
53995.0
20
43200.0
11
53669.0
21
43200.0
0
LINE
8
BLACK
10
53669.0
20
43200.0
11
53669.0
21
42540.0
0
LINE
8
BLACK
10
53669.0
20
42540.0
11
53995.0
21
42540.0
0
LINE
8
BLACK
10
53995.0
20
47120.0
11
53995.0
21
47780.0
0
LINE
8
BLACK
10
53995.0
20
47780.0
11
53669.0
21
47780.0
0
LINE
8
BLACK
10
53669.0
20
47780.0
11
53669.0
21
47120.0
0
LINE
8
BLACK
10
53669.0
20
47120.0
11
53995.0
21
47120.0
0
LINE
8
BLACK
10
53739.0
20
42540.0
11
53739.0
21
43200.0
0
LINE
8
BLACK
10
53739.0
20
43200.0
11
53413.0
21
43200.0
0
LINE
8
BLACK
10
53413.0
20
43200.0
11
53413.0
21
42540.0
0
LINE
8
BLACK
10
53413.0
20
42540.0
11
53739.0
21
42540.0
0
LINE
8
BLACK
10
53739.0
20
47120.0
11
53739.0
21
47780.0
0
LINE
8
BLACK
10
53739.0
20
47780.0
11
53413.0
21
47780.0
0
LINE
8
BLACK
10
53413.0
20
47780.0
11
53413.0
21
47120.0
0
LINE
8
BLACK
10
53413.0
20
47120.0
11
53739.0
21
47120.0
0
LINE
8
BLACK
10
53483.0
20
42540.0
11
53483.0
21
43200.0
0
LINE
8
BLACK
10
53483.0
20
43200.0
11
53157.0
21
43200.0
0
LINE
8
BLACK
10
53157.0
20
43200.0
11
53157.0
21
42540.0
0
LINE
8
BLACK
10
53157.0
20
42540.0
11
53483.0
21
42540.0
0
LINE
8
BLACK
10
53483.0
20
47120.0
11
53483.0
21
47780.0
0
LINE
8
BLACK
10
53483.0
20
47780.0
11
53157.0
21
47780.0
0
LINE
8
BLACK
10
53157.0
20
47780.0
11
53157.0
21
47120.0
0
LINE
8
BLACK
10
53157.0
20
47120.0
11
53483.0
21
47120.0
0
LINE
8
BLACK
10
53227.0
20
42540.0
11
53227.0
21
43200.0
0
LINE
8
BLACK
10
53227.0
20
43200.0
11
52901.0
21
43200.0
0
LINE
8
BLACK
10
52901.0
20
43200.0
11
52901.0
21
42540.0
0
LINE
8
BLACK
10
52901.0
20
42540.0
11
53227.0
21
42540.0
0
LINE
8
BLACK
10
53227.0
20
47120.0
11
53227.0
21
47780.0
0
LINE
8
BLACK
10
53227.0
20
47780.0
11
52901.0
21
47780.0
0
LINE
8
BLACK
10
52901.0
20
47780.0
11
52901.0
21
47120.0
0
LINE
8
BLACK
10
52901.0
20
47120.0
11
53227.0
21
47120.0
0
LINE
8
BLACK
10
52971.0
20
42540.0
11
52971.0
21
43200.0
0
LINE
8
BLACK
10
52971.0
20
43200.0
11
52645.0
21
43200.0
0
LINE
8
BLACK
10
52645.0
20
43200.0
11
52645.0
21
42540.0
0
LINE
8
BLACK
10
52645.0
20
42540.0
11
52971.0
21
42540.0
0
LINE
8
BLACK
10
52971.0
20
47120.0
11
52971.0
21
47780.0
0
LINE
8
BLACK
10
52971.0
20
47780.0
11
52645.0
21
47780.0
0
LINE
8
BLACK
10
52645.0
20
47780.0
11
52645.0
21
47120.0
0
LINE
8
BLACK
10
52645.0
20
47120.0
11
52971.0
21
47120.0
0
LINE
8
BLACK
10
52715.0
20
42540.0
11
52715.0
21
43200.0
0
LINE
8
BLACK
10
52715.0
20
43200.0
11
52389.0
21
43200.0
0
LINE
8
BLACK
10
52389.0
20
43200.0
11
52389.0
21
42540.0
0
LINE
8
BLACK
10
52389.0
20
42540.0
11
52715.0
21
42540.0
0
LINE
8
BLACK
10
52715.0
20
47120.0
11
52715.0
21
47780.0
0
LINE
8
BLACK
10
52715.0
20
47780.0
11
52389.0
21
47780.0
0
LINE
8
BLACK
10
52389.0
20
47780.0
11
52389.0
21
47120.0
0
LINE
8
BLACK
10
52389.0
20
47120.0
11
52715.0
21
47120.0
0
LINE
8
BLACK
10
52459.0
20
42540.0
11
52459.0
21
43200.0
0
LINE
8
BLACK
10
52459.0
20
43200.0
11
52133.0
21
43200.0
0
LINE
8
BLACK
10
52133.0
20
43200.0
11
52133.0
21
42540.0
0
LINE
8
BLACK
10
52133.0
20
42540.0
11
52459.0
21
42540.0
0
LINE
8
BLACK
10
52459.0
20
47120.0
11
52459.0
21
47780.0
0
LINE
8
BLACK
10
52459.0
20
47780.0
11
52133.0
21
47780.0
0
LINE
8
BLACK
10
52133.0
20
47780.0
11
52133.0
21
47120.0
0
LINE
8
BLACK
10
52133.0
20
47120.0
11
52459.0
21
47120.0
0
LINE
8
BLACK
10
52203.0
20
42540.0
11
52203.0
21
43200.0
0
LINE
8
BLACK
10
52203.0
20
43200.0
11
51877.0
21
43200.0
0
LINE
8
BLACK
10
51877.0
20
43200.0
11
51877.0
21
42540.0
0
LINE
8
BLACK
10
51877.0
20
42540.0
11
52203.0
21
42540.0
0
LINE
8
BLACK
10
52203.0
20
47120.0
11
52203.0
21
47780.0
0
LINE
8
BLACK
10
52203.0
20
47780.0
11
51877.0
21
47780.0
0
LINE
8
BLACK
10
51877.0
20
47780.0
11
51877.0
21
47120.0
0
LINE
8
BLACK
10
51877.0
20
47120.0
11
52203.0
21
47120.0
0
LINE
8
BLACK
10
51947.0
20
42540.0
11
51947.0
21
43200.0
0
LINE
8
BLACK
10
51947.0
20
43200.0
11
51621.0
21
43200.0
0
LINE
8
BLACK
10
51621.0
20
43200.0
11
51621.0
21
42540.0
0
LINE
8
BLACK
10
51621.0
20
42540.0
11
51947.0
21
42540.0
0
LINE
8
BLACK
10
51947.0
20
47120.0
11
51947.0
21
47780.0
0
LINE
8
BLACK
10
51947.0
20
47780.0
11
51621.0
21
47780.0
0
LINE
8
BLACK
10
51621.0
20
47780.0
11
51621.0
21
47120.0
0
LINE
8
BLACK
10
51621.0
20
47120.0
11
51947.0
21
47120.0
0
LINE
8
BLACK
10
51691.0
20
42540.0
11
51691.0
21
43200.0
0
LINE
8
BLACK
10
51691.0
20
43200.0
11
51365.0
21
43200.0
0
LINE
8
BLACK
10
51365.0
20
43200.0
11
51365.0
21
42540.0
0
LINE
8
BLACK
10
51365.0
20
42540.0
11
51691.0
21
42540.0
0
LINE
8
BLACK
10
51691.0
20
47120.0
11
51691.0
21
47780.0
0
LINE
8
BLACK
10
51691.0
20
47780.0
11
51365.0
21
47780.0
0
LINE
8
BLACK
10
51365.0
20
47780.0
11
51365.0
21
47120.0
0
LINE
8
BLACK
10
51365.0
20
47120.0
11
51691.0
21
47120.0
0
LINE
8
BLACK
10
51435.0
20
42540.0
11
51435.0
21
43200.0
0
LINE
8
BLACK
10
51435.0
20
43200.0
11
51109.0
21
43200.0
0
LINE
8
BLACK
10
51109.0
20
43200.0
11
51109.0
21
42540.0
0
LINE
8
BLACK
10
51109.0
20
42540.0
11
51435.0
21
42540.0
0
LINE
8
BLACK
10
51435.0
20
47120.0
11
51435.0
21
47780.0
0
LINE
8
BLACK
10
51435.0
20
47780.0
11
51109.0
21
47780.0
0
LINE
8
BLACK
10
51109.0
20
47780.0
11
51109.0
21
47120.0
0
LINE
8
BLACK
10
51109.0
20
47120.0
11
51435.0
21
47120.0
0
LINE
8
BLACK
10
51179.0
20
42540.0
11
51179.0
21
43200.0
0
LINE
8
BLACK
10
51179.0
20
43200.0
11
50853.0
21
43200.0
0
LINE
8
BLACK
10
50853.0
20
43200.0
11
50853.0
21
42540.0
0
LINE
8
BLACK
10
50853.0
20
42540.0
11
51179.0
21
42540.0
0
LINE
8
BLACK
10
51179.0
20
47120.0
11
51179.0
21
47780.0
0
LINE
8
BLACK
10
51179.0
20
47780.0
11
50853.0
21
47780.0
0
LINE
8
BLACK
10
50853.0
20
47780.0
11
50853.0
21
47120.0
0
LINE
8
BLACK
10
50853.0
20
47120.0
11
51179.0
21
47120.0
0
LINE
8
BLACK
10
50923.0
20
42540.0
11
50923.0
21
43200.0
0
LINE
8
BLACK
10
50923.0
20
43200.0
11
50597.0
21
43200.0
0
LINE
8
BLACK
10
50597.0
20
43200.0
11
50597.0
21
42540.0
0
LINE
8
BLACK
10
50597.0
20
42540.0
11
50923.0
21
42540.0
0
LINE
8
BLACK
10
50923.0
20
47120.0
11
50923.0
21
47780.0
0
LINE
8
BLACK
10
50923.0
20
47780.0
11
50597.0
21
47780.0
0
LINE
8
BLACK
10
50597.0
20
47780.0
11
50597.0
21
47120.0
0
LINE
8
BLACK
10
50597.0
20
47120.0
11
50923.0
21
47120.0
0
LINE
8
BLACK
10
50667.0
20
42540.0
11
50667.0
21
43200.0
0
LINE
8
BLACK
10
50667.0
20
43200.0
11
50341.0
21
43200.0
0
LINE
8
BLACK
10
50341.0
20
43200.0
11
50341.0
21
42540.0
0
LINE
8
BLACK
10
50341.0
20
42540.0
11
50667.0
21
42540.0
0
LINE
8
BLACK
10
50667.0
20
47120.0
11
50667.0
21
47780.0
0
LINE
8
BLACK
10
50667.0
20
47780.0
11
50341.0
21
47780.0
0
LINE
8
BLACK
10
50341.0
20
47780.0
11
50341.0
21
47120.0
0
LINE
8
BLACK
10
50341.0
20
47120.0
11
50667.0
21
47120.0
0
LINE
8
BLACK
10
50411.0
20
42540.0
11
50411.0
21
43200.0
0
LINE
8
BLACK
10
50411.0
20
43200.0
11
50085.0
21
43200.0
0
LINE
8
BLACK
10
50085.0
20
43200.0
11
50085.0
21
42540.0
0
LINE
8
BLACK
10
50085.0
20
42540.0
11
50411.0
21
42540.0
0
LINE
8
BLACK
10
50411.0
20
47120.0
11
50411.0
21
47780.0
0
LINE
8
BLACK
10
50411.0
20
47780.0
11
50085.0
21
47780.0
0
LINE
8
BLACK
10
50085.0
20
47780.0
11
50085.0
21
47120.0
0
LINE
8
BLACK
10
50085.0
20
47120.0
11
50411.0
21
47120.0
0
LINE
8
BLACK
10
50155.0
20
42540.0
11
50155.0
21
43200.0
0
LINE
8
BLACK
10
50155.0
20
43200.0
11
49829.0
21
43200.0
0
LINE
8
BLACK
10
49829.0
20
43200.0
11
49829.0
21
42540.0
0
LINE
8
BLACK
10
49829.0
20
42540.0
11
50155.0
21
42540.0
0
LINE
8
BLACK
10
50155.0
20
47120.0
11
50155.0
21
47780.0
0
LINE
8
BLACK
10
50155.0
20
47780.0
11
49829.0
21
47780.0
0
LINE
8
BLACK
10
49829.0
20
47780.0
11
49829.0
21
47120.0
0
LINE
8
BLACK
10
49829.0
20
47120.0
11
50155.0
21
47120.0
0
LINE
8
BLACK
10
49899.0
20
42540.0
11
49899.0
21
43200.0
0
LINE
8
BLACK
10
49899.0
20
43200.0
11
49573.0
21
43200.0
0
LINE
8
BLACK
10
49573.0
20
43200.0
11
49573.0
21
42540.0
0
LINE
8
BLACK
10
49573.0
20
42540.0
11
49899.0
21
42540.0
0
LINE
8
BLACK
10
49899.0
20
47120.0
11
49899.0
21
47780.0
0
LINE
8
BLACK
10
49899.0
20
47780.0
11
49573.0
21
47780.0
0
LINE
8
BLACK
10
49573.0
20
47780.0
11
49573.0
21
47120.0
0
LINE
8
BLACK
10
49573.0
20
47120.0
11
49899.0
21
47120.0
0
LINE
8
BLACK
10
49643.0
20
42540.0
11
49643.0
21
43200.0
0
LINE
8
BLACK
10
49643.0
20
43200.0
11
49317.0
21
43200.0
0
LINE
8
BLACK
10
49317.0
20
43200.0
11
49317.0
21
42540.0
0
LINE
8
BLACK
10
49317.0
20
42540.0
11
49643.0
21
42540.0
0
LINE
8
BLACK
10
49643.0
20
47120.0
11
49643.0
21
47780.0
0
LINE
8
BLACK
10
49643.0
20
47780.0
11
49317.0
21
47780.0
0
LINE
8
BLACK
10
49317.0
20
47780.0
11
49317.0
21
47120.0
0
LINE
8
BLACK
10
49317.0
20
47120.0
11
49643.0
21
47120.0
0
LINE
8
BLACK
10
49387.0
20
42540.0
11
49387.0
21
43200.0
0
LINE
8
BLACK
10
49387.0
20
43200.0
11
49061.0
21
43200.0
0
LINE
8
BLACK
10
49061.0
20
43200.0
11
49061.0
21
42540.0
0
LINE
8
BLACK
10
49061.0
20
42540.0
11
49387.0
21
42540.0
0
LINE
8
BLACK
10
49387.0
20
47120.0
11
49387.0
21
47780.0
0
LINE
8
BLACK
10
49387.0
20
47780.0
11
49061.0
21
47780.0
0
LINE
8
BLACK
10
49061.0
20
47780.0
11
49061.0
21
47120.0
0
LINE
8
BLACK
10
49061.0
20
47120.0
11
49387.0
21
47120.0
0
LINE
8
BLACK
10
57562.0
20
34996.0
11
58234.0
21
34996.0
0
LINE
8
BLACK
10
58234.0
20
34996.0
11
58234.0
21
35746.0
0
LINE
8
BLACK
10
58234.0
20
35746.0
11
57562.0
21
35746.0
0
LINE
8
BLACK
10
57562.0
20
35746.0
11
57562.0
21
34996.0
0
LINE
8
BLACK
10
57562.0
20
35862.0
11
58234.0
21
35862.0
0
LINE
8
BLACK
10
58234.0
20
35862.0
11
58234.0
21
36612.0
0
LINE
8
BLACK
10
58234.0
20
36612.0
11
57562.0
21
36612.0
0
LINE
8
BLACK
10
57562.0
20
36612.0
11
57562.0
21
35862.0
0
LINE
8
BLACK
10
58231.0
20
35862.0
11
58903.0
21
35862.0
0
LINE
8
BLACK
10
58903.0
20
35862.0
11
58903.0
21
36612.0
0
LINE
8
BLACK
10
58903.0
20
36612.0
11
58231.0
21
36612.0
0
LINE
8
BLACK
10
58231.0
20
36612.0
11
58231.0
21
35862.0
0
LINE
8
BLACK
10
58231.0
20
34996.0
11
58903.0
21
34996.0
0
LINE
8
BLACK
10
58903.0
20
34996.0
11
58903.0
21
35746.0
0
LINE
8
BLACK
10
58903.0
20
35746.0
11
58231.0
21
35746.0
0
LINE
8
BLACK
10
58231.0
20
35746.0
11
58231.0
21
34996.0
0
LINE
8
BLACK
10
51313.0
20
31166.0
11
50563.0
21
31166.0
0
LINE
8
BLACK
10
50563.0
20
31166.0
11
50563.0
21
30616.0
0
LINE
8
BLACK
10
50563.0
20
30616.0
11
51313.0
21
30616.0
0
LINE
8
BLACK
10
51313.0
20
30616.0
11
51313.0
21
31166.0
0
LINE
8
BLACK
10
51313.0
20
30416.0
11
50563.0
21
30416.0
0
LINE
8
BLACK
10
50563.0
20
30416.0
11
50563.0
21
29866.0
0
LINE
8
BLACK
10
50563.0
20
29866.0
11
51313.0
21
29866.0
0
LINE
8
BLACK
10
51313.0
20
29866.0
11
51313.0
21
30416.0
0
LINE
8
BLACK
10
51339.0
20
41055.0
11
51339.0
21
41805.0
0
LINE
8
BLACK
10
51339.0
20
41805.0
11
50789.0
21
41805.0
0
LINE
8
BLACK
10
50789.0
20
41805.0
11
50789.0
21
41055.0
0
LINE
8
BLACK
10
50789.0
20
41055.0
11
51339.0
21
41055.0
0
LINE
8
BLACK
10
50589.0
20
41055.0
11
50589.0
21
41805.0
0
LINE
8
BLACK
10
50589.0
20
41805.0
11
50039.0
21
41805.0
0
LINE
8
BLACK
10
50039.0
20
41805.0
11
50039.0
21
41055.0
0
LINE
8
BLACK
10
50039.0
20
41055.0
11
50589.0
21
41055.0
0
LINE
8
BLACK
10
56593.0
20
32616.0
11
56593.0
21
33416.0
0
LINE
8
BLACK
10
56593.0
20
33416.0
11
55793.0
21
33416.0
0
LINE
8
BLACK
10
55793.0
20
33416.0
11
55793.0
21
32616.0
0
LINE
8
BLACK
10
55793.0
20
32616.0
11
56593.0
21
32616.0
0
CIRCLE
8
BLACK
10
55193.0
20
33016.0
40
400
0
LINE
8
BLACK
10
50985.0
20
48035.0
11
50985.0
21
48785.0
0
LINE
8
BLACK
10
50985.0
20
48785.0
11
50435.0
21
48785.0
0
LINE
8
BLACK
10
50435.0
20
48785.0
11
50435.0
21
48035.0
0
LINE
8
BLACK
10
50435.0
20
48035.0
11
50985.0
21
48035.0
0
LINE
8
BLACK
10
50235.0
20
48035.0
11
50235.0
21
48785.0
0
LINE
8
BLACK
10
50235.0
20
48785.0
11
49685.0
21
48785.0
0
LINE
8
BLACK
10
49685.0
20
48785.0
11
49685.0
21
48035.0
0
LINE
8
BLACK
10
49685.0
20
48035.0
11
50235.0
21
48035.0
0
LINE
8
BLACK
10
33955.0
20
31332.0
11
33955.0
21
30582.0
0
LINE
8
BLACK
10
33955.0
20
30582.0
11
34505.0
21
30582.0
0
LINE
8
BLACK
10
34505.0
20
30582.0
11
34505.0
21
31332.0
0
LINE
8
BLACK
10
34505.0
20
31332.0
11
33955.0
21
31332.0
0
LINE
8
BLACK
10
34705.0
20
31332.0
11
34705.0
21
30582.0
0
LINE
8
BLACK
10
34705.0
20
30582.0
11
35255.0
21
30582.0
0
LINE
8
BLACK
10
35255.0
20
30582.0
11
35255.0
21
31332.0
0
LINE
8
BLACK
10
35255.0
20
31332.0
11
34705.0
21
31332.0
0
LINE
8
BLACK
10
55468.0
20
48864.0
11
55468.0
21
48114.0
0
LINE
8
BLACK
10
55468.0
20
48114.0
11
56018.0
21
48114.0
0
LINE
8
BLACK
10
56018.0
20
48114.0
11
56018.0
21
48864.0
0
LINE
8
BLACK
10
56018.0
20
48864.0
11
55468.0
21
48864.0
0
LINE
8
BLACK
10
56218.0
20
48864.0
11
56218.0
21
48114.0
0
LINE
8
BLACK
10
56218.0
20
48114.0
11
56768.0
21
48114.0
0
LINE
8
BLACK
10
56768.0
20
48114.0
11
56768.0
21
48864.0
0
LINE
8
BLACK
10
56768.0
20
48864.0
11
56218.0
21
48864.0
0
LINE
8
BLACK
10
38398.0
20
45975.0
11
38398.0
21
45225.0
0
LINE
8
BLACK
10
38398.0
20
45225.0
11
38948.0
21
45225.0
0
LINE
8
BLACK
10
38948.0
20
45225.0
11
38948.0
21
45975.0
0
LINE
8
BLACK
10
38948.0
20
45975.0
11
38398.0
21
45975.0
0
LINE
8
BLACK
10
39148.0
20
45975.0
11
39148.0
21
45225.0
0
LINE
8
BLACK
10
39148.0
20
45225.0
11
39698.0
21
45225.0
0
LINE
8
BLACK
10
39698.0
20
45225.0
11
39698.0
21
45975.0
0
LINE
8
BLACK
10
39698.0
20
45975.0
11
39148.0
21
45975.0
0
LINE
8
BLACK
10
39330.0
20
43481.0
11
40080.0
21
43481.0
0
LINE
8
BLACK
10
40080.0
20
43481.0
11
40080.0
21
44031.0
0
LINE
8
BLACK
10
40080.0
20
44031.0
11
39330.0
21
44031.0
0
LINE
8
BLACK
10
39330.0
20
44031.0
11
39330.0
21
43481.0
0
LINE
8
BLACK
10
39330.0
20
44231.0
11
40080.0
21
44231.0
0
LINE
8
BLACK
10
40080.0
20
44231.0
11
40080.0
21
44781.0
0
LINE
8
BLACK
10
40080.0
20
44781.0
11
39330.0
21
44781.0
0
LINE
8
BLACK
10
39330.0
20
44781.0
11
39330.0
21
44231.0
0
LINE
8
BLACK
10
39170.0
20
44284.0
11
39170.0
21
45034.0
0
LINE
8
BLACK
10
39170.0
20
45034.0
11
38620.0
21
45034.0
0
LINE
8
BLACK
10
38620.0
20
45034.0
11
38620.0
21
44284.0
0
LINE
8
BLACK
10
38620.0
20
44284.0
11
39170.0
21
44284.0
0
LINE
8
BLACK
10
38420.0
20
44284.0
11
38420.0
21
45034.0
0
LINE
8
BLACK
10
38420.0
20
45034.0
11
37870.0
21
45034.0
0
LINE
8
BLACK
10
37870.0
20
45034.0
11
37870.0
21
44284.0
0
LINE
8
BLACK
10
37870.0
20
44284.0
11
38420.0
21
44284.0
0
LINE
8
BLACK
10
41144.0
20
44129.0
11
41144.0
21
44779.0
0
LINE
8
BLACK
10
41144.0
20
44779.0
11
40694.0
21
44779.0
0
LINE
8
BLACK
10
40694.0
20
44779.0
11
40694.0
21
44129.0
0
LINE
8
BLACK
10
40694.0
20
44129.0
11
41144.0
21
44129.0
0
LINE
8
BLACK
10
40544.0
20
44129.0
11
40544.0
21
44779.0
0
LINE
8
BLACK
10
40544.0
20
44779.0
11
40094.0
21
44779.0
0
LINE
8
BLACK
10
40094.0
20
44779.0
11
40094.0
21
44129.0
0
LINE
8
BLACK
10
40094.0
20
44129.0
11
40544.0
21
44129.0
0
LINE
8
BLACK
10
41232.0
20
44779.0
11
41232.0
21
44129.0
0
LINE
8
BLACK
10
41232.0
20
44129.0
11
41682.0
21
44129.0
0
LINE
8
BLACK
10
41682.0
20
44129.0
11
41682.0
21
44779.0
0
LINE
8
BLACK
10
41682.0
20
44779.0
11
41232.0
21
44779.0
0
LINE
8
BLACK
10
41832.0
20
44779.0
11
41832.0
21
44129.0
0
LINE
8
BLACK
10
41832.0
20
44129.0
11
42282.0
21
44129.0
0
LINE
8
BLACK
10
42282.0
20
44129.0
11
42282.0
21
44779.0
0
LINE
8
BLACK
10
42282.0
20
44779.0
11
41832.0
21
44779.0
0
LINE
8
BLACK
10
39116.0
20
43680.0
11
39116.0
21
44330.0
0
LINE
8
BLACK
10
39116.0
20
44330.0
11
38666.0
21
44330.0
0
LINE
8
BLACK
10
38666.0
20
44330.0
11
38666.0
21
43680.0
0
LINE
8
BLACK
10
38666.0
20
43680.0
11
39116.0
21
43680.0
0
LINE
8
BLACK
10
38516.0
20
43680.0
11
38516.0
21
44330.0
0
LINE
8
BLACK
10
38516.0
20
44330.0
11
38066.0
21
44330.0
0
LINE
8
BLACK
10
38066.0
20
44330.0
11
38066.0
21
43680.0
0
LINE
8
BLACK
10
38066.0
20
43680.0
11
38516.0
21
43680.0
0
LINE
8
BLACK
10
42771.0
20
40929.0
11
42771.0
21
40279.0
0
LINE
8
BLACK
10
42771.0
20
40279.0
11
43221.0
21
40279.0
0
LINE
8
BLACK
10
43221.0
20
40279.0
11
43221.0
21
40929.0
0
LINE
8
BLACK
10
43221.0
20
40929.0
11
42771.0
21
40929.0
0
LINE
8
BLACK
10
43371.0
20
40929.0
11
43371.0
21
40279.0
0
LINE
8
BLACK
10
43371.0
20
40279.0
11
43821.0
21
40279.0
0
LINE
8
BLACK
10
43821.0
20
40279.0
11
43821.0
21
40929.0
0
LINE
8
BLACK
10
43821.0
20
40929.0
11
43371.0
21
40929.0
0
LINE
8
BLACK
10
37648.0
20
43735.0
11
37648.0
21
44385.0
0
LINE
8
BLACK
10
37648.0
20
44385.0
11
37198.0
21
44385.0
0
LINE
8
BLACK
10
37198.0
20
44385.0
11
37198.0
21
43735.0
0
LINE
8
BLACK
10
37198.0
20
43735.0
11
37648.0
21
43735.0
0
LINE
8
BLACK
10
37048.0
20
43735.0
11
37048.0
21
44385.0
0
LINE
8
BLACK
10
37048.0
20
44385.0
11
36598.0
21
44385.0
0
LINE
8
BLACK
10
36598.0
20
44385.0
11
36598.0
21
43735.0
0
LINE
8
BLACK
10
36598.0
20
43735.0
11
37048.0
21
43735.0
0
LINE
8
BLACK
10
37683.0
20
41172.0
11
37683.0
21
41822.0
0
LINE
8
BLACK
10
37683.0
20
41822.0
11
37233.0
21
41822.0
0
LINE
8
BLACK
10
37233.0
20
41822.0
11
37233.0
21
41172.0
0
LINE
8
BLACK
10
37233.0
20
41172.0
11
37683.0
21
41172.0
0
LINE
8
BLACK
10
37083.0
20
41172.0
11
37083.0
21
41822.0
0
LINE
8
BLACK
10
37083.0
20
41822.0
11
36633.0
21
41822.0
0
LINE
8
BLACK
10
36633.0
20
41822.0
11
36633.0
21
41172.0
0
LINE
8
BLACK
10
36633.0
20
41172.0
11
37083.0
21
41172.0
0
LINE
8
BLACK
10
38770.0
20
41433.0
11
39420.0
21
41433.0
0
LINE
8
BLACK
10
39420.0
20
41433.0
11
39420.0
21
41883.0
0
LINE
8
BLACK
10
39420.0
20
41883.0
11
38770.0
21
41883.0
0
LINE
8
BLACK
10
38770.0
20
41883.0
11
38770.0
21
41433.0
0
LINE
8
BLACK
10
38770.0
20
42033.0
11
39420.0
21
42033.0
0
LINE
8
BLACK
10
39420.0
20
42033.0
11
39420.0
21
42483.0
0
LINE
8
BLACK
10
39420.0
20
42483.0
11
38770.0
21
42483.0
0
LINE
8
BLACK
10
38770.0
20
42483.0
11
38770.0
21
42033.0
0
LINE
8
BLACK
10
38818.0
20
42483.0
11
38168.0
21
42483.0
0
LINE
8
BLACK
10
38168.0
20
42483.0
11
38168.0
21
42033.0
0
LINE
8
BLACK
10
38168.0
20
42033.0
11
38818.0
21
42033.0
0
LINE
8
BLACK
10
38818.0
20
42033.0
11
38818.0
21
42483.0
0
LINE
8
BLACK
10
38818.0
20
41883.0
11
38168.0
21
41883.0
0
LINE
8
BLACK
10
38168.0
20
41883.0
11
38168.0
21
41433.0
0
LINE
8
BLACK
10
38168.0
20
41433.0
11
38818.0
21
41433.0
0
LINE
8
BLACK
10
38818.0
20
41433.0
11
38818.0
21
41883.0
0
LINE
8
BLACK
10
49532.0
20
31838.0
11
48532.0
21
31838.0
0
LINE
8
BLACK
10
48532.0
20
31838.0
11
48532.0
21
31038.0
0
LINE
8
BLACK
10
48532.0
20
31038.0
11
49532.0
21
31038.0
0
LINE
8
BLACK
10
49532.0
20
31038.0
11
49532.0
21
31838.0
0
LINE
8
BLACK
10
49532.0
20
30538.0
11
48532.0
21
30538.0
0
LINE
8
BLACK
10
48532.0
20
30538.0
11
48532.0
21
29738.0
0
LINE
8
BLACK
10
48532.0
20
29738.0
11
49532.0
21
29738.0
0
LINE
8
BLACK
10
49532.0
20
29738.0
11
49532.0
21
30538.0
0
LINE
8
BLACK
10
34900.0
20
46570.0
11
34100.0
21
46570.0
0
LINE
8
BLACK
10
34100.0
20
46570.0
11
34100.0
21
45770.0
0
LINE
8
BLACK
10
34100.0
20
45770.0
11
34900.0
21
45770.0
0
LINE
8
BLACK
10
34900.0
20
45770.0
11
34900.0
21
46570.0
0
CIRCLE
8
BLACK
10
35500.0
20
46170.0
40
400
0
CIRCLE
8
BLACK
10
34500.0
20
45170.0
40
400
0
CIRCLE
8
BLACK
10
35500.0
20
45170.0
40
400
0
CIRCLE
8
BLACK
10
34500.0
20
44170.0
40
400
0
CIRCLE
8
BLACK
10
35500.0
20
44170.0
40
400
0
CIRCLE
8
BLACK
10
34500.0
20
43170.0
40
400
0
CIRCLE
8
BLACK
10
35500.0
20
43170.0
40
400
0
CIRCLE
8
BLACK
10
34500.0
20
42170.0
40
400
0
CIRCLE
8
BLACK
10
35500.0
20
42170.0
40
400
0
CIRCLE
8
BLACK
10
34500.0
20
41170.0
40
400
0
CIRCLE
8
BLACK
10
35500.0
20
41170.0
40
400
0
CIRCLE
8
BLACK
10
34500.0
20
40170.0
40
400
0
CIRCLE
8
BLACK
10
35500.0
20
40170.0
40
400
0
CIRCLE
8
BLACK
10
34500.0
20
39170.0
40
400
0
CIRCLE
8
BLACK
10
35500.0
20
39170.0
40
400
0
CIRCLE
8
BLACK
10
34500.0
20
38170.0
40
400
0
CIRCLE
8
BLACK
10
35500.0
20
38170.0
40
400
0
CIRCLE
8
BLACK
10
34500.0
20
37170.0
40
400
0
CIRCLE
8
BLACK
10
35500.0
20
37170.0
40
400
0
CIRCLE
8
BLACK
10
34500.0
20
36170.0
40
400
0
CIRCLE
8
BLACK
10
35500.0
20
36170.0
40
400
0
CIRCLE
8
BLACK
10
34500.0
20
35170.0
40
400
0
CIRCLE
8
BLACK
10
35500.0
20
35170.0
40
400
0
LINE
8
BLACK
10
47900.0
20
47770.0
11
47900.0
21
48570.0
0
LINE
8
BLACK
10
47900.0
20
48570.0
11
47100.0
21
48570.0
0
LINE
8
BLACK
10
47100.0
20
48570.0
11
47100.0
21
47770.0
0
LINE
8
BLACK
10
47100.0
20
47770.0
11
47900.0
21
47770.0
0
CIRCLE
8
BLACK
10
47500.0
20
47170.0
40
400
0
CIRCLE
8
BLACK
10
46500.0
20
48170.0
40
400
0
CIRCLE
8
BLACK
10
46500.0
20
47170.0
40
400
0
CIRCLE
8
BLACK
10
45500.0
20
48170.0
40
400
0
CIRCLE
8
BLACK
10
45500.0
20
47170.0
40
400
0
CIRCLE
8
BLACK
10
44500.0
20
48170.0
40
400
0
CIRCLE
8
BLACK
10
44500.0
20
47170.0
40
400
0
CIRCLE
8
BLACK
10
43500.0
20
48170.0
40
400
0
CIRCLE
8
BLACK
10
43500.0
20
47170.0
40
400
0
CIRCLE
8
BLACK
10
42500.0
20
48170.0
40
400
0
CIRCLE
8
BLACK
10
42500.0
20
47170.0
40
400
0
CIRCLE
8
BLACK
10
41500.0
20
48170.0
40
400
0
CIRCLE
8
BLACK
10
41500.0
20
47170.0
40
400
0
CIRCLE
8
BLACK
10
40500.0
20
48170.0
40
400
0
CIRCLE
8
BLACK
10
40500.0
20
47170.0
40
400
0
CIRCLE
8
BLACK
10
39500.0
20
48170.0
40
400
0
CIRCLE
8
BLACK
10
39500.0
20
47170.0
40
400
0
CIRCLE
8
BLACK
10
38500.0
20
48170.0
40
400
0
CIRCLE
8
BLACK
10
38500.0
20
47170.0
40
400
0
CIRCLE
8
BLACK
10
37500.0
20
48170.0
40
400
0
CIRCLE
8
BLACK
10
37500.0
20
47170.0
40
400
0
CIRCLE
8
BLACK
10
36500.0
20
48170.0
40
400
0
CIRCLE
8
BLACK
10
36500.0
20
47170.0
40
400
0
LINE
8
BLACK
10
42518.0
20
42579.0
11
42518.0
21
43251.0
0
LINE
8
BLACK
10
42518.0
20
43251.0
11
41610.0
21
43251.0
0
LINE
8
BLACK
10
41610.0
20
43251.0
11
41610.0
21
42579.0
0
LINE
8
BLACK
10
41610.0
20
42579.0
11
42518.0
21
42579.0
0
LINE
8
BLACK
10
40943.0
20
42579.0
11
40943.0
21
43251.0
0
LINE
8
BLACK
10
40943.0
20
43251.0
11
40035.0
21
43251.0
0
LINE
8
BLACK
10
40035.0
20
43251.0
11
40035.0
21
42579.0
0
LINE
8
BLACK
10
40035.0
20
42579.0
11
40943.0
21
42579.0
0
LINE
8
BLACK
10
40943.0
20
43366.0
11
40943.0
21
44038.0
0
LINE
8
BLACK
10
40943.0
20
44038.0
11
40035.0
21
44038.0
0
LINE
8
BLACK
10
40035.0
20
44038.0
11
40035.0
21
43366.0
0
LINE
8
BLACK
10
40035.0
20
43366.0
11
40943.0
21
43366.0
0
LINE
8
BLACK
10
42518.0
20
43366.0
11
42518.0
21
44038.0
0
LINE
8
BLACK
10
42518.0
20
44038.0
11
41610.0
21
44038.0
0
LINE
8
BLACK
10
41610.0
20
44038.0
11
41610.0
21
43366.0
0
LINE
8
BLACK
10
41610.0
20
43366.0
11
42518.0
21
43366.0
0
LINE
8
BLACK
10
42290.0
20
45275.0
11
42940.0
21
45275.0
0
LINE
8
BLACK
10
42940.0
20
45275.0
11
42940.0
21
45725.0
0
LINE
8
BLACK
10
42940.0
20
45725.0
11
42290.0
21
45725.0
0
LINE
8
BLACK
10
42290.0
20
45725.0
11
42290.0
21
45275.0
0
LINE
8
BLACK
10
42290.0
20
45875.0
11
42940.0
21
45875.0
0
LINE
8
BLACK
10
42940.0
20
45875.0
11
42940.0
21
46325.0
0
LINE
8
BLACK
10
42940.0
20
46325.0
11
42290.0
21
46325.0
0
LINE
8
BLACK
10
42290.0
20
46325.0
11
42290.0
21
45875.0
0
LINE
8
BLACK
10
36133.0
20
31736.0
11
36783.0
21
31736.0
0
LINE
8
BLACK
10
36783.0
20
31736.0
11
36783.0
21
32186.0
0
LINE
8
BLACK
10
36783.0
20
32186.0
11
36133.0
21
32186.0
0
LINE
8
BLACK
10
36133.0
20
32186.0
11
36133.0
21
31736.0
0
LINE
8
BLACK
10
36133.0
20
32336.0
11
36783.0
21
32336.0
0
LINE
8
BLACK
10
36783.0
20
32336.0
11
36783.0
21
32786.0
0
LINE
8
BLACK
10
36783.0
20
32786.0
11
36133.0
21
32786.0
0
LINE
8
BLACK
10
36133.0
20
32786.0
11
36133.0
21
32336.0
0
LINE
8
BLACK
10
36787.0
20
31805.0
11
36137.0
21
31805.0
0
LINE
8
BLACK
10
36137.0
20
31805.0
11
36137.0
21
31355.0
0
LINE
8
BLACK
10
36137.0
20
31355.0
11
36787.0
21
31355.0
0
LINE
8
BLACK
10
36787.0
20
31355.0
11
36787.0
21
31805.0
0
LINE
8
BLACK
10
36787.0
20
31205.0
11
36137.0
21
31205.0
0
LINE
8
BLACK
10
36137.0
20
31205.0
11
36137.0
21
30755.0
0
LINE
8
BLACK
10
36137.0
20
30755.0
11
36787.0
21
30755.0
0
LINE
8
BLACK
10
36787.0
20
30755.0
11
36787.0
21
31205.0
0
LINE
8
BLACK
10
38632.0
20
32136.0
11
37882.0
21
32136.0
0
LINE
8
BLACK
10
37882.0
20
32136.0
11
37882.0
21
31544.0
0
LINE
8
BLACK
10
37882.0
20
31544.0
11
38632.0
21
31544.0
0
LINE
8
BLACK
10
38632.0
20
31544.0
11
38632.0
21
32136.0
0
LINE
8
BLACK
10
38632.0
20
31388.0
11
37882.0
21
31388.0
0
LINE
8
BLACK
10
37882.0
20
31388.0
11
37882.0
21
30796.0
0
LINE
8
BLACK
10
37882.0
20
30796.0
11
38632.0
21
30796.0
0
LINE
8
BLACK
10
38632.0
20
30796.0
11
38632.0
21
31388.0
0
LINE
8
BLACK
10
37766.0
20
31762.0
11
37016.0
21
31762.0
0
LINE
8
BLACK
10
37016.0
20
31762.0
11
37016.0
21
31170.0
0
LINE
8
BLACK
10
37016.0
20
31170.0
11
37766.0
21
31170.0
0
LINE
8
BLACK
10
37766.0
20
31170.0
11
37766.0
21
31762.0
0
LINE
8
BLACK
10
39179.0
20
33667.0
11
38429.0
21
33667.0
0
LINE
8
BLACK
10
38429.0
20
33667.0
11
38429.0
21
33075.0
0
LINE
8
BLACK
10
38429.0
20
33075.0
11
39179.0
21
33075.0
0
LINE
8
BLACK
10
39179.0
20
33075.0
11
39179.0
21
33667.0
0
LINE
8
BLACK
10
39179.0
20
32919.0
11
38429.0
21
32919.0
0
LINE
8
BLACK
10
38429.0
20
32919.0
11
38429.0
21
32327.0
0
LINE
8
BLACK
10
38429.0
20
32327.0
11
39179.0
21
32327.0
0
LINE
8
BLACK
10
39179.0
20
32327.0
11
39179.0
21
32919.0
0
LINE
8
BLACK
10
38313.0
20
33293.0
11
37563.0
21
33293.0
0
LINE
8
BLACK
10
37563.0
20
33293.0
11
37563.0
21
32701.0
0
LINE
8
BLACK
10
37563.0
20
32701.0
11
38313.0
21
32701.0
0
LINE
8
BLACK
10
38313.0
20
32701.0
11
38313.0
21
33293.0
0
LINE
8
BLACK
10
41263.0
20
31703.0
11
40613.0
21
31703.0
0
LINE
8
BLACK
10
40613.0
20
31703.0
11
40613.0
21
31253.0
0
LINE
8
BLACK
10
40613.0
20
31253.0
11
41263.0
21
31253.0
0
LINE
8
BLACK
10
41263.0
20
31253.0
11
41263.0
21
31703.0
0
LINE
8
BLACK
10
41263.0
20
31103.0
11
40613.0
21
31103.0
0
LINE
8
BLACK
10
40613.0
20
31103.0
11
40613.0
21
30653.0
0
LINE
8
BLACK
10
40613.0
20
30653.0
11
41263.0
21
30653.0
0
LINE
8
BLACK
10
41263.0
20
30653.0
11
41263.0
21
31103.0
0
LINE
8
BLACK
10
40613.0
20
31641.0
11
41263.0
21
31641.0
0
LINE
8
BLACK
10
41263.0
20
31641.0
11
41263.0
21
32091.0
0
LINE
8
BLACK
10
41263.0
20
32091.0
11
40613.0
21
32091.0
0
LINE
8
BLACK
10
40613.0
20
32091.0
11
40613.0
21
31641.0
0
LINE
8
BLACK
10
40613.0
20
32241.0
11
41263.0
21
32241.0
0
LINE
8
BLACK
10
41263.0
20
32241.0
11
41263.0
21
32691.0
0
LINE
8
BLACK
10
41263.0
20
32691.0
11
40613.0
21
32691.0
0
LINE
8
BLACK
10
40613.0
20
32691.0
11
40613.0
21
32241.0
0
LINE
8
BLACK
10
43884.0
20
33647.0
11
43134.0
21
33647.0
0
LINE
8
BLACK
10
43134.0
20
33647.0
11
43134.0
21
33055.0
0
LINE
8
BLACK
10
43134.0
20
33055.0
11
43884.0
21
33055.0
0
LINE
8
BLACK
10
43884.0
20
33055.0
11
43884.0
21
33647.0
0
LINE
8
BLACK
10
43884.0
20
32899.0
11
43134.0
21
32899.0
0
LINE
8
BLACK
10
43134.0
20
32899.0
11
43134.0
21
32307.0
0
LINE
8
BLACK
10
43134.0
20
32307.0
11
43884.0
21
32307.0
0
LINE
8
BLACK
10
43884.0
20
32307.0
11
43884.0
21
32899.0
0
LINE
8
BLACK
10
43018.0
20
33273.0
11
42268.0
21
33273.0
0
LINE
8
BLACK
10
42268.0
20
33273.0
11
42268.0
21
32681.0
0
LINE
8
BLACK
10
42268.0
20
32681.0
11
43018.0
21
32681.0
0
LINE
8
BLACK
10
43018.0
20
32681.0
11
43018.0
21
33273.0
0
LINE
8
BLACK
10
43376.0
20
32100.0
11
42626.0
21
32100.0
0
LINE
8
BLACK
10
42626.0
20
32100.0
11
42626.0
21
31508.0
0
LINE
8
BLACK
10
42626.0
20
31508.0
11
43376.0
21
31508.0
0
LINE
8
BLACK
10
43376.0
20
31508.0
11
43376.0
21
32100.0
0
LINE
8
BLACK
10
43376.0
20
31352.0
11
42626.0
21
31352.0
0
LINE
8
BLACK
10
42626.0
20
31352.0
11
42626.0
21
30760.0
0
LINE
8
BLACK
10
42626.0
20
30760.0
11
43376.0
21
30760.0
0
LINE
8
BLACK
10
43376.0
20
30760.0
11
43376.0
21
31352.0
0
LINE
8
BLACK
10
42510.0
20
31726.0
11
41760.0
21
31726.0
0
LINE
8
BLACK
10
41760.0
20
31726.0
11
41760.0
21
31134.0
0
LINE
8
BLACK
10
41760.0
20
31134.0
11
42510.0
21
31134.0
0
LINE
8
BLACK
10
42510.0
20
31134.0
11
42510.0
21
31726.0
0
LINE
8
BLACK
10
38856.0
20
37747.0
11
38106.0
21
37747.0
0
LINE
8
BLACK
10
38106.0
20
37747.0
11
38106.0
21
37155.0
0
LINE
8
BLACK
10
38106.0
20
37155.0
11
38856.0
21
37155.0
0
LINE
8
BLACK
10
38856.0
20
37155.0
11
38856.0
21
37747.0
0
LINE
8
BLACK
10
38856.0
20
36999.0
11
38106.0
21
36999.0
0
LINE
8
BLACK
10
38106.0
20
36999.0
11
38106.0
21
36407.0
0
LINE
8
BLACK
10
38106.0
20
36407.0
11
38856.0
21
36407.0
0
LINE
8
BLACK
10
38856.0
20
36407.0
11
38856.0
21
36999.0
0
LINE
8
BLACK
10
37990.0
20
37373.0
11
37240.0
21
37373.0
0
LINE
8
BLACK
10
37240.0
20
37373.0
11
37240.0
21
36781.0
0
LINE
8
BLACK
10
37240.0
20
36781.0
11
37990.0
21
36781.0
0
LINE
8
BLACK
10
37990.0
20
36781.0
11
37990.0
21
37373.0
0
LINE
8
BLACK
10
39951.0
20
39264.0
11
39201.0
21
39264.0
0
LINE
8
BLACK
10
39201.0
20
39264.0
11
39201.0
21
38672.0
0
LINE
8
BLACK
10
39201.0
20
38672.0
11
39951.0
21
38672.0
0
LINE
8
BLACK
10
39951.0
20
38672.0
11
39951.0
21
39264.0
0
LINE
8
BLACK
10
39951.0
20
38516.0
11
39201.0
21
38516.0
0
LINE
8
BLACK
10
39201.0
20
38516.0
11
39201.0
21
37924.0
0
LINE
8
BLACK
10
39201.0
20
37924.0
11
39951.0
21
37924.0
0
LINE
8
BLACK
10
39951.0
20
37924.0
11
39951.0
21
38516.0
0
LINE
8
BLACK
10
39085.0
20
38890.0
11
38335.0
21
38890.0
0
LINE
8
BLACK
10
38335.0
20
38890.0
11
38335.0
21
38298.0
0
LINE
8
BLACK
10
38335.0
20
38298.0
11
39085.0
21
38298.0
0
LINE
8
BLACK
10
39085.0
20
38298.0
11
39085.0
21
38890.0
0
LINE
8
BLACK
10
37200.0
20
34961.0
11
37200.0
21
34161.0
0
LINE
8
BLACK
10
37200.0
20
34161.0
11
38000.0
21
34161.0
0
LINE
8
BLACK
10
38000.0
20
34161.0
11
38000.0
21
34961.0
0
LINE
8
BLACK
10
38000.0
20
34961.0
11
37200.0
21
34961.0
0
CIRCLE
8
BLACK
10
37600.0
20
35561.0
40
400
0
CIRCLE
8
BLACK
10
38600.0
20
34561.0
40
400
0
CIRCLE
8
BLACK
10
38600.0
20
35561.0
40
400
0
CIRCLE
8
BLACK
10
39600.0
20
34561.0
40
400
0
CIRCLE
8
BLACK
10
39600.0
20
35561.0
40
400
0
LINE
8
BLACK
10
41617.0
20
28866.0
11
41617.0
21
28066.0
0
LINE
8
BLACK
10
41617.0
20
28066.0
11
42417.0
21
28066.0
0
LINE
8
BLACK
10
42417.0
20
28066.0
11
42417.0
21
28866.0
0
LINE
8
BLACK
10
42417.0
20
28866.0
11
41617.0
21
28866.0
0
CIRCLE
8
BLACK
10
42017.0
20
29466.0
40
400
0
CIRCLE
8
BLACK
10
43017.0
20
28466.0
40
400
0
CIRCLE
8
BLACK
10
43017.0
20
29466.0
40
400
0
CIRCLE
8
BLACK
10
44017.0
20
28466.0
40
400
0
CIRCLE
8
BLACK
10
44017.0
20
29466.0
40
400
0
LINE
8
BLACK
10
37058.0
20
28869.0
11
37058.0
21
28069.0
0
LINE
8
BLACK
10
37058.0
20
28069.0
11
37858.0
21
28069.0
0
LINE
8
BLACK
10
37858.0
20
28069.0
11
37858.0
21
28869.0
0
LINE
8
BLACK
10
37858.0
20
28869.0
11
37058.0
21
28869.0
0
CIRCLE
8
BLACK
10
37458.0
20
29469.0
40
400
0
CIRCLE
8
BLACK
10
38458.0
20
28469.0
40
400
0
CIRCLE
8
BLACK
10
38458.0
20
29469.0
40
400
0
CIRCLE
8
BLACK
10
39458.0
20
28469.0
40
400
0
CIRCLE
8
BLACK
10
39458.0
20
29469.0
40
400
0
LINE
8
BLACK
10
41618.0
20
34961.0
11
41618.0
21
34161.0
0
LINE
8
BLACK
10
41618.0
20
34161.0
11
42418.0
21
34161.0
0
LINE
8
BLACK
10
42418.0
20
34161.0
11
42418.0
21
34961.0
0
LINE
8
BLACK
10
42418.0
20
34961.0
11
41618.0
21
34961.0
0
CIRCLE
8
BLACK
10
42018.0
20
35561.0
40
400
0
CIRCLE
8
BLACK
10
43018.0
20
34561.0
40
400
0
CIRCLE
8
BLACK
10
43018.0
20
35561.0
40
400
0
CIRCLE
8
BLACK
10
44018.0
20
34561.0
40
400
0
CIRCLE
8
BLACK
10
44018.0
20
35561.0
40
400
0
LINE
8
BLACK
10
44334.0
20
39329.0
11
43584.0
21
39329.0
0
LINE
8
BLACK
10
43584.0
20
39329.0
11
43584.0
21
38737.0
0
LINE
8
BLACK
10
43584.0
20
38737.0
11
44334.0
21
38737.0
0
LINE
8
BLACK
10
44334.0
20
38737.0
11
44334.0
21
39329.0
0
LINE
8
BLACK
10
44334.0
20
38581.0
11
43584.0
21
38581.0
0
LINE
8
BLACK
10
43584.0
20
38581.0
11
43584.0
21
37989.0
0
LINE
8
BLACK
10
43584.0
20
37989.0
11
44334.0
21
37989.0
0
LINE
8
BLACK
10
44334.0
20
37989.0
11
44334.0
21
38581.0
0
LINE
8
BLACK
10
43468.0
20
38955.0
11
42718.0
21
38955.0
0
LINE
8
BLACK
10
42718.0
20
38955.0
11
42718.0
21
38363.0
0
LINE
8
BLACK
10
42718.0
20
38363.0
11
43468.0
21
38363.0
0
LINE
8
BLACK
10
43468.0
20
38363.0
11
43468.0
21
38955.0
0
LINE
8
BLACK
10
43287.0
20
37778.0
11
42537.0
21
37778.0
0
LINE
8
BLACK
10
42537.0
20
37778.0
11
42537.0
21
37186.0
0
LINE
8
BLACK
10
42537.0
20
37186.0
11
43287.0
21
37186.0
0
LINE
8
BLACK
10
43287.0
20
37186.0
11
43287.0
21
37778.0
0
LINE
8
BLACK
10
43287.0
20
37030.0
11
42537.0
21
37030.0
0
LINE
8
BLACK
10
42537.0
20
37030.0
11
42537.0
21
36438.0
0
LINE
8
BLACK
10
42537.0
20
36438.0
11
43287.0
21
36438.0
0
LINE
8
BLACK
10
43287.0
20
36438.0
11
43287.0
21
37030.0
0
LINE
8
BLACK
10
42421.0
20
37404.0
11
41671.0
21
37404.0
0
LINE
8
BLACK
10
41671.0
20
37404.0
11
41671.0
21
36812.0
0
LINE
8
BLACK
10
41671.0
20
36812.0
11
42421.0
21
36812.0
0
LINE
8
BLACK
10
42421.0
20
36812.0
11
42421.0
21
37404.0
0
ENDSEC
0
EOF
