0
SECTION
2
HEADER
9
$ANGBASE
50
0.0
9
$ANGDIR
70
0
0
ENDSEC
0
SECTION
2
TABLES
0
TABLE
2
LTYPE
70
1
0
LTYPE
2
CONTINUOUS
70
0
3
Solid line
72
65
73
0
40
0.0
0
ENDTAB
0
TABLE
2
LAYER
70
24
0
LAYER
2
BLACK
70
0
62
1
6
CONTINUOUS
0
LAYER
2
BLUE
70
0
62
2
6
CONTINUOUS
0
LAYER
2
GREEN
70
0
62
3
6
CONTINUOUS
0
LAYER
2
CYAN
70
0
62
4
6
CONTINUOUS
0
LAYER
2
RED
70
0
62
5
6
CONTINUOUS
0
LAYER
2
MAGENTA
70
0
62
6
6
CONTINUOUS
0
LAYER
2
BROWN
70
0
62
7
6
CONTINUOUS
0
LAYER
2
GRAY
70
0
62
8
6
CONTINUOUS
0
LAYER
2
DARKGRAY
70
0
62
9
6
CONTINUOUS
0
LAYER
2
LIGHTBLUE
70
0
62
10
6
CONTINUOUS
0
LAYER
2
LIGHTGREEN
70
0
62
11
6
CONTINUOUS
0
LAYER
2
LIGHTCYAN
70
0
62
12
6
CONTINUOUS
0
LAYER
2
LIGHTRED
70
0
62
13
6
CONTINUOUS
0
LAYER
2
LIGHTMAGENTA
70
0
62
14
6
CONTINUOUS
0
LAYER
2
YELLOW
70
0
62
15
6
CONTINUOUS
0
LAYER
2
WHITE
70
0
62
16
6
CONTINUOUS
0
LAYER
2
DARKDARKGRAY
70
0
62
17
6
CONTINUOUS
0
LAYER
2
DARKBLUE
70
0
62
18
6
CONTINUOUS
0
LAYER
2
DARKGREEN
70
0
62
19
6
CONTINUOUS
0
LAYER
2
DARKCYAN
70
0
62
20
6
CONTINUOUS
0
LAYER
2
DARKRED
70
0
62
21
6
CONTINUOUS
0
LAYER
2
DARKMAGENTA
70
0
62
22
6
CONTINUOUS
0
LAYER
2
DARKBROWN
70
0
62
23
6
CONTINUOUS
0
LAYER
2
LIGHTYELLOW
70
0
62
24
6
CONTINUOUS
0
ENDTAB
0
ENDSEC
0
SECTION
2
ENTITIES
0
LINE
8
BLACK
10
33030.0
20
28739.0
11
33030.0
21
29199.0
0
LINE
8
BLACK
10
32880.0
20
28739.0
11
32880.0
21
29199.0
0
ARC
8
BLACK
10
32955.0
20
29199.0
40
75.0
50
360.0
51
540.0
0
ARC
8
BLACK
10
32955.0
20
28739.0
40
75.0
50
180.0
51
360.0
0
LINE
8
BLACK
10
33011.0
20
29249.0
11
33009.0
21
29251.0
0
LINE
8
BLACK
10
32905.0
20
29143.0
11
32903.0
21
29145.0
0
ARC
8
BLACK
10
32956.0
20
29198.0
40
75.0
50
405.0
51
585.0
0
ARC
8
BLACK
10
32958.0
20
29196.0
40
75.0
50
225.0
51
405.0
0
ARC
8
BLACK
10
34333.0
20
28746.0
40
1362.0
50
-178.0
51
-88.0
0
LINE
8
BLACK
10
68030.0
20
29207.0
11
68030.0
21
48207.0
0
LINE
8
BLACK
10
67880.0
20
29207.0
11
67880.0
21
48207.0
0
ARC
8
BLACK
10
67955.0
20
48207.0
40
75.0
50
360.0
51
540.0
0
ARC
8
BLACK
10
67955.0
20
29207.0
40
75.0
50
180.0
51
360.0
0
LINE
8
BLACK
10
34455.0
20
27285.0
11
66455.0
21
27285.0
0
LINE
8
BLACK
10
34455.0
20
27435.0
11
66455.0
21
27435.0
0
ARC
8
BLACK
10
66455.0
20
27360.0
40
75.0
50
270.0
51
450.0
0
ARC
8
BLACK
10
34455.0
20
27360.0
40
75.0
50
90.0
51
270.0
0
LINE
8
BLACK
10
33030.0
20
29207.0
11
33030.0
21
48207.0
0
LINE
8
BLACK
10
32880.0
20
29207.0
11
32880.0
21
48207.0
0
ARC
8
BLACK
10
32955.0
20
48207.0
40
75.0
50
360.0
51
540.0
0
ARC
8
BLACK
10
32955.0
20
29207.0
40
75.0
50
180.0
51
360.0
0
LINE
8
BLACK
10
34455.0
20
49632.0
11
66455.0
21
49632.0
0
LINE
8
BLACK
10
34455.0
20
49782.0
11
66455.0
21
49782.0
0
ARC
8
BLACK
10
66455.0
20
49707.0
40
75.0
50
270.0
51
450.0
0
ARC
8
BLACK
10
34455.0
20
49707.0
40
75.0
50
90.0
51
270.0
0
ARC
8
BLACK
10
66455.0
20
48207.0
40
1500.0
50
0.0
51
90.0
0
ARC
8
BLACK
10
34455.0
20
48207.0
40
1500.0
50
90.0
51
180.0
0
LINE
8
BLACK
10
43549.0
20
36445.0
11
44415.0
21
36445.0
0
LINE
8
BLACK
10
44415.0
20
36445.0
11
44415.0
21
36681.0
0
LINE
8
BLACK
10
44415.0
20
36681.0
11
43549.0
21
36681.0
0
LINE
8
BLACK
10
43549.0
20
36681.0
11
43549.0
21
36445.0
0
LINE
8
BLACK
10
43549.0
20
36945.0
11
44415.0
21
36945.0
0
LINE
8
BLACK
10
44415.0
20
36945.0
11
44415.0
21
37181.0
0
LINE
8
BLACK
10
44415.0
20
37181.0
11
43549.0
21
37181.0
0
LINE
8
BLACK
10
43549.0
20
37181.0
11
43549.0
21
36945.0
0
LINE
8
BLACK
10
43549.0
20
37445.0
11
44415.0
21
37445.0
0
LINE
8
BLACK
10
44415.0
20
37445.0
11
44415.0
21
37681.0
0
LINE
8
BLACK
10
44415.0
20
37681.0
11
43549.0
21
37681.0
0
LINE
8
BLACK
10
43549.0
20
37681.0
11
43549.0
21
37445.0
0
LINE
8
BLACK
10
43549.0
20
37945.0
11
44415.0
21
37945.0
0
LINE
8
BLACK
10
44415.0
20
37945.0
11
44415.0
21
38181.0
0
LINE
8
BLACK
10
44415.0
20
38181.0
11
43549.0
21
38181.0
0
LINE
8
BLACK
10
43549.0
20
38181.0
11
43549.0
21
37945.0
0
LINE
8
BLACK
10
41503.0
20
37945.0
11
42369.0
21
37945.0
0
LINE
8
BLACK
10
42369.0
20
37945.0
11
42369.0
21
38181.0
0
LINE
8
BLACK
10
42369.0
20
38181.0
11
41503.0
21
38181.0
0
LINE
8
BLACK
10
41503.0
20
38181.0
11
41503.0
21
37945.0
0
LINE
8
BLACK
10
41503.0
20
37445.0
11
42369.0
21
37445.0
0
LINE
8
BLACK
10
42369.0
20
37445.0
11
42369.0
21
37681.0
0
LINE
8
BLACK
10
42369.0
20
37681.0
11
41503.0
21
37681.0
0
LINE
8
BLACK
10
41503.0
20
37681.0
11
41503.0
21
37445.0
0
LINE
8
BLACK
10
41503.0
20
36945.0
11
42369.0
21
36945.0
0
LINE
8
BLACK
10
42369.0
20
36945.0
11
42369.0
21
37181.0
0
LINE
8
BLACK
10
42369.0
20
37181.0
11
41503.0
21
37181.0
0
LINE
8
BLACK
10
41503.0
20
37181.0
11
41503.0
21
36945.0
0
LINE
8
BLACK
10
41503.0
20
36445.0
11
42369.0
21
36445.0
0
LINE
8
BLACK
10
42369.0
20
36445.0
11
42369.0
21
36681.0
0
LINE
8
BLACK
10
42369.0
20
36681.0
11
41503.0
21
36681.0
0
LINE
8
BLACK
10
41503.0
20
36681.0
11
41503.0
21
36445.0
0
LINE
8
BLACK
10
63028.0
20
45042.0
11
63894.0
21
45042.0
0
LINE
8
BLACK
10
63894.0
20
45042.0
11
63894.0
21
45278.0
0
LINE
8
BLACK
10
63894.0
20
45278.0
11
63028.0
21
45278.0
0
LINE
8
BLACK
10
63028.0
20
45278.0
11
63028.0
21
45042.0
0
LINE
8
BLACK
10
63028.0
20
45542.0
11
63894.0
21
45542.0
0
LINE
8
BLACK
10
63894.0
20
45542.0
11
63894.0
21
45778.0
0
LINE
8
BLACK
10
63894.0
20
45778.0
11
63028.0
21
45778.0
0
LINE
8
BLACK
10
63028.0
20
45778.0
11
63028.0
21
45542.0
0
LINE
8
BLACK
10
63028.0
20
46042.0
11
63894.0
21
46042.0
0
LINE
8
BLACK
10
63894.0
20
46042.0
11
63894.0
21
46278.0
0
LINE
8
BLACK
10
63894.0
20
46278.0
11
63028.0
21
46278.0
0
LINE
8
BLACK
10
63028.0
20
46278.0
11
63028.0
21
46042.0
0
LINE
8
BLACK
10
63028.0
20
46542.0
11
63894.0
21
46542.0
0
LINE
8
BLACK
10
63894.0
20
46542.0
11
63894.0
21
46778.0
0
LINE
8
BLACK
10
63894.0
20
46778.0
11
63028.0
21
46778.0
0
LINE
8
BLACK
10
63028.0
20
46778.0
11
63028.0
21
46542.0
0
LINE
8
BLACK
10
59406.0
20
46542.0
11
60272.0
21
46542.0
0
LINE
8
BLACK
10
60272.0
20
46542.0
11
60272.0
21
46778.0
0
LINE
8
BLACK
10
60272.0
20
46778.0
11
59406.0
21
46778.0
0
LINE
8
BLACK
10
59406.0
20
46778.0
11
59406.0
21
46542.0
0
LINE
8
BLACK
10
59406.0
20
46042.0
11
60272.0
21
46042.0
0
LINE
8
BLACK
10
60272.0
20
46042.0
11
60272.0
21
46278.0
0
LINE
8
BLACK
10
60272.0
20
46278.0
11
59406.0
21
46278.0
0
LINE
8
BLACK
10
59406.0
20
46278.0
11
59406.0
21
46042.0
0
LINE
8
BLACK
10
59406.0
20
45542.0
11
60272.0
21
45542.0
0
LINE
8
BLACK
10
60272.0
20
45542.0
11
60272.0
21
45778.0
0
LINE
8
BLACK
10
60272.0
20
45778.0
11
59406.0
21
45778.0
0
LINE
8
BLACK
10
59406.0
20
45778.0
11
59406.0
21
45542.0
0
LINE
8
BLACK
10
59406.0
20
45042.0
11
60272.0
21
45042.0
0
LINE
8
BLACK
10
60272.0
20
45042.0
11
60272.0
21
45278.0
0
LINE
8
BLACK
10
60272.0
20
45278.0
11
59406.0
21
45278.0
0
LINE
8
BLACK
10
59406.0
20
45278.0
11
59406.0
21
45042.0
0
LINE
8
BLACK
10
39107.0
20
36445.0
11
39973.0
21
36445.0
0
LINE
8
BLACK
10
39973.0
20
36445.0
11
39973.0
21
36681.0
0
LINE
8
BLACK
10
39973.0
20
36681.0
11
39107.0
21
36681.0
0
LINE
8
BLACK
10
39107.0
20
36681.0
11
39107.0
21
36445.0
0
LINE
8
BLACK
10
39107.0
20
36945.0
11
39973.0
21
36945.0
0
LINE
8
BLACK
10
39973.0
20
36945.0
11
39973.0
21
37181.0
0
LINE
8
BLACK
10
39973.0
20
37181.0
11
39107.0
21
37181.0
0
LINE
8
BLACK
10
39107.0
20
37181.0
11
39107.0
21
36945.0
0
LINE
8
BLACK
10
39107.0
20
37445.0
11
39973.0
21
37445.0
0
LINE
8
BLACK
10
39973.0
20
37445.0
11
39973.0
21
37681.0
0
LINE
8
BLACK
10
39973.0
20
37681.0
11
39107.0
21
37681.0
0
LINE
8
BLACK
10
39107.0
20
37681.0
11
39107.0
21
37445.0
0
LINE
8
BLACK
10
39107.0
20
37945.0
11
39973.0
21
37945.0
0
LINE
8
BLACK
10
39973.0
20
37945.0
11
39973.0
21
38181.0
0
LINE
8
BLACK
10
39973.0
20
38181.0
11
39107.0
21
38181.0
0
LINE
8
BLACK
10
39107.0
20
38181.0
11
39107.0
21
37945.0
0
LINE
8
BLACK
10
37061.0
20
37945.0
11
37927.0
21
37945.0
0
LINE
8
BLACK
10
37927.0
20
37945.0
11
37927.0
21
38181.0
0
LINE
8
BLACK
10
37927.0
20
38181.0
11
37061.0
21
38181.0
0
LINE
8
BLACK
10
37061.0
20
38181.0
11
37061.0
21
37945.0
0
LINE
8
BLACK
10
37061.0
20
37445.0
11
37927.0
21
37445.0
0
LINE
8
BLACK
10
37927.0
20
37445.0
11
37927.0
21
37681.0
0
LINE
8
BLACK
10
37927.0
20
37681.0
11
37061.0
21
37681.0
0
LINE
8
BLACK
10
37061.0
20
37681.0
11
37061.0
21
37445.0
0
LINE
8
BLACK
10
37061.0
20
36945.0
11
37927.0
21
36945.0
0
LINE
8
BLACK
10
37927.0
20
36945.0
11
37927.0
21
37181.0
0
LINE
8
BLACK
10
37927.0
20
37181.0
11
37061.0
21
37181.0
0
LINE
8
BLACK
10
37061.0
20
37181.0
11
37061.0
21
36945.0
0
LINE
8
BLACK
10
37061.0
20
36445.0
11
37927.0
21
36445.0
0
LINE
8
BLACK
10
37927.0
20
36445.0
11
37927.0
21
36681.0
0
LINE
8
BLACK
10
37927.0
20
36681.0
11
37061.0
21
36681.0
0
LINE
8
BLACK
10
37061.0
20
36681.0
11
37061.0
21
36445.0
0
LINE
8
BLACK
10
43575.0
20
30861.0
11
44441.0
21
30861.0
0
LINE
8
BLACK
10
44441.0
20
30861.0
11
44441.0
21
31097.0
0
LINE
8
BLACK
10
44441.0
20
31097.0
11
43575.0
21
31097.0
0
LINE
8
BLACK
10
43575.0
20
31097.0
11
43575.0
21
30861.0
0
LINE
8
BLACK
10
43575.0
20
31361.0
11
44441.0
21
31361.0
0
LINE
8
BLACK
10
44441.0
20
31361.0
11
44441.0
21
31597.0
0
LINE
8
BLACK
10
44441.0
20
31597.0
11
43575.0
21
31597.0
0
LINE
8
BLACK
10
43575.0
20
31597.0
11
43575.0
21
31361.0
0
LINE
8
BLACK
10
43575.0
20
31861.0
11
44441.0
21
31861.0
0
LINE
8
BLACK
10
44441.0
20
31861.0
11
44441.0
21
32097.0
0
LINE
8
BLACK
10
44441.0
20
32097.0
11
43575.0
21
32097.0
0
LINE
8
BLACK
10
43575.0
20
32097.0
11
43575.0
21
31861.0
0
LINE
8
BLACK
10
43575.0
20
32361.0
11
44441.0
21
32361.0
0
LINE
8
BLACK
10
44441.0
20
32361.0
11
44441.0
21
32597.0
0
LINE
8
BLACK
10
44441.0
20
32597.0
11
43575.0
21
32597.0
0
LINE
8
BLACK
10
43575.0
20
32597.0
11
43575.0
21
32361.0
0
LINE
8
BLACK
10
41529.0
20
32361.0
11
42395.0
21
32361.0
0
LINE
8
BLACK
10
42395.0
20
32361.0
11
42395.0
21
32597.0
0
LINE
8
BLACK
10
42395.0
20
32597.0
11
41529.0
21
32597.0
0
LINE
8
BLACK
10
41529.0
20
32597.0
11
41529.0
21
32361.0
0
LINE
8
BLACK
10
41529.0
20
31861.0
11
42395.0
21
31861.0
0
LINE
8
BLACK
10
42395.0
20
31861.0
11
42395.0
21
32097.0
0
LINE
8
BLACK
10
42395.0
20
32097.0
11
41529.0
21
32097.0
0
LINE
8
BLACK
10
41529.0
20
32097.0
11
41529.0
21
31861.0
0
LINE
8
BLACK
10
41529.0
20
31361.0
11
42395.0
21
31361.0
0
LINE
8
BLACK
10
42395.0
20
31361.0
11
42395.0
21
31597.0
0
LINE
8
BLACK
10
42395.0
20
31597.0
11
41529.0
21
31597.0
0
LINE
8
BLACK
10
41529.0
20
31597.0
11
41529.0
21
31361.0
0
LINE
8
BLACK
10
41529.0
20
30861.0
11
42395.0
21
30861.0
0
LINE
8
BLACK
10
42395.0
20
30861.0
11
42395.0
21
31097.0
0
LINE
8
BLACK
10
42395.0
20
31097.0
11
41529.0
21
31097.0
0
LINE
8
BLACK
10
41529.0
20
31097.0
11
41529.0
21
30861.0
0
LINE
8
BLACK
10
38985.0
20
30865.0
11
39851.0
21
30865.0
0
LINE
8
BLACK
10
39851.0
20
30865.0
11
39851.0
21
31101.0
0
LINE
8
BLACK
10
39851.0
20
31101.0
11
38985.0
21
31101.0
0
LINE
8
BLACK
10
38985.0
20
31101.0
11
38985.0
21
30865.0
0
LINE
8
BLACK
10
38985.0
20
31365.0
11
39851.0
21
31365.0
0
LINE
8
BLACK
10
39851.0
20
31365.0
11
39851.0
21
31601.0
0
LINE
8
BLACK
10
39851.0
20
31601.0
11
38985.0
21
31601.0
0
LINE
8
BLACK
10
38985.0
20
31601.0
11
38985.0
21
31365.0
0
LINE
8
BLACK
10
38985.0
20
31865.0
11
39851.0
21
31865.0
0
LINE
8
BLACK
10
39851.0
20
31865.0
11
39851.0
21
32101.0
0
LINE
8
BLACK
10
39851.0
20
32101.0
11
38985.0
21
32101.0
0
LINE
8
BLACK
10
38985.0
20
32101.0
11
38985.0
21
31865.0
0
LINE
8
BLACK
10
38985.0
20
32365.0
11
39851.0
21
32365.0
0
LINE
8
BLACK
10
39851.0
20
32365.0
11
39851.0
21
32601.0
0
LINE
8
BLACK
10
39851.0
20
32601.0
11
38985.0
21
32601.0
0
LINE
8
BLACK
10
38985.0
20
32601.0
11
38985.0
21
32365.0
0
LINE
8
BLACK
10
36939.0
20
32365.0
11
37805.0
21
32365.0
0
LINE
8
BLACK
10
37805.0
20
32365.0
11
37805.0
21
32601.0
0
LINE
8
BLACK
10
37805.0
20
32601.0
11
36939.0
21
32601.0
0
LINE
8
BLACK
10
36939.0
20
32601.0
11
36939.0
21
32365.0
0
LINE
8
BLACK
10
36939.0
20
31865.0
11
37805.0
21
31865.0
0
LINE
8
BLACK
10
37805.0
20
31865.0
11
37805.0
21
32101.0
0
LINE
8
BLACK
10
37805.0
20
32101.0
11
36939.0
21
32101.0
0
LINE
8
BLACK
10
36939.0
20
32101.0
11
36939.0
21
31865.0
0
LINE
8
BLACK
10
36939.0
20
31365.0
11
37805.0
21
31365.0
0
LINE
8
BLACK
10
37805.0
20
31365.0
11
37805.0
21
31601.0
0
LINE
8
BLACK
10
37805.0
20
31601.0
11
36939.0
21
31601.0
0
LINE
8
BLACK
10
36939.0
20
31601.0
11
36939.0
21
31365.0
0
LINE
8
BLACK
10
36939.0
20
30865.0
11
37805.0
21
30865.0
0
LINE
8
BLACK
10
37805.0
20
30865.0
11
37805.0
21
31101.0
0
LINE
8
BLACK
10
37805.0
20
31101.0
11
36939.0
21
31101.0
0
LINE
8
BLACK
10
36939.0
20
31101.0
11
36939.0
21
30865.0
0
LINE
8
BLACK
10
50501.0
20
29136.0
11
51381.0
21
29136.0
0
LINE
8
BLACK
10
51381.0
20
29136.0
11
51381.0
21
29616.0
0
LINE
8
BLACK
10
51381.0
20
29616.0
11
50501.0
21
29616.0
0
LINE
8
BLACK
10
50501.0
20
29616.0
11
50501.0
21
29136.0
0
LINE
8
BLACK
10
50501.0
20
30036.0
11
51381.0
21
30036.0
0
LINE
8
BLACK
10
51381.0
20
30036.0
11
51381.0
21
30516.0
0
LINE
8
BLACK
10
51381.0
20
30516.0
11
50501.0
21
30516.0
0
LINE
8
BLACK
10
50501.0
20
30516.0
11
50501.0
21
30036.0
0
LINE
8
BLACK
10
50501.0
20
30936.0
11
51381.0
21
30936.0
0
LINE
8
BLACK
10
51381.0
20
30936.0
11
51381.0
21
31416.0
0
LINE
8
BLACK
10
51381.0
20
31416.0
11
50501.0
21
31416.0
0
LINE
8
BLACK
10
50501.0
20
31416.0
11
50501.0
21
30936.0
0
LINE
8
BLACK
10
48061.0
20
29566.0
11
48941.0
21
29566.0
0
LINE
8
BLACK
10
48941.0
20
29566.0
11
48941.0
21
30986.0
0
LINE
8
BLACK
10
48941.0
20
30986.0
11
48061.0
21
30986.0
0
LINE
8
BLACK
10
48061.0
20
30986.0
11
48061.0
21
29566.0
0
LINE
8
BLACK
10
63946.0
20
30249.0
11
64496.0
21
30249.0
0
LINE
8
BLACK
10
64496.0
20
30249.0
11
64496.0
21
30799.0
0
LINE
8
BLACK
10
64496.0
20
30799.0
11
63946.0
21
30799.0
0
LINE
8
BLACK
10
63946.0
20
30799.0
11
63946.0
21
30249.0
0
LINE
8
BLACK
10
63946.0
20
28753.0
11
64496.0
21
28753.0
0
LINE
8
BLACK
10
64496.0
20
28753.0
11
64496.0
21
29303.0
0
LINE
8
BLACK
10
64496.0
20
29303.0
11
63946.0
21
29303.0
0
LINE
8
BLACK
10
63946.0
20
29303.0
11
63946.0
21
28753.0
0
LINE
8
BLACK
10
63044.0
20
35917.0
11
63044.0
21
36309.0
0
LINE
8
BLACK
10
63044.0
20
36309.0
11
62888.0
21
36309.0
0
LINE
8
BLACK
10
62888.0
20
36309.0
11
62888.0
21
35917.0
0
LINE
8
BLACK
10
62888.0
20
35917.0
11
63044.0
21
35917.0
0
LINE
8
BLACK
10
62794.0
20
35917.0
11
62794.0
21
36309.0
0
LINE
8
BLACK
10
62794.0
20
36309.0
11
62638.0
21
36309.0
0
LINE
8
BLACK
10
62638.0
20
36309.0
11
62638.0
21
35917.0
0
LINE
8
BLACK
10
62638.0
20
35917.0
11
62794.0
21
35917.0
0
LINE
8
BLACK
10
62544.0
20
35917.0
11
62544.0
21
36309.0
0
LINE
8
BLACK
10
62544.0
20
36309.0
11
62388.0
21
36309.0
0
LINE
8
BLACK
10
62388.0
20
36309.0
11
62388.0
21
35917.0
0
LINE
8
BLACK
10
62388.0
20
35917.0
11
62544.0
21
35917.0
0
LINE
8
BLACK
10
62294.0
20
35917.0
11
62294.0
21
36309.0
0
LINE
8
BLACK
10
62294.0
20
36309.0
11
62138.0
21
36309.0
0
LINE
8
BLACK
10
62138.0
20
36309.0
11
62138.0
21
35917.0
0
LINE
8
BLACK
10
62138.0
20
35917.0
11
62294.0
21
35917.0
0
LINE
8
BLACK
10
62044.0
20
35917.0
11
62044.0
21
36309.0
0
LINE
8
BLACK
10
62044.0
20
36309.0
11
61888.0
21
36309.0
0
LINE
8
BLACK
10
61888.0
20
36309.0
11
61888.0
21
35917.0
0
LINE
8
BLACK
10
61888.0
20
35917.0
11
62044.0
21
35917.0
0
LINE
8
BLACK
10
61794.0
20
35917.0
11
61794.0
21
36309.0
0
LINE
8
BLACK
10
61794.0
20
36309.0
11
61638.0
21
36309.0
0
LINE
8
BLACK
10
61638.0
20
36309.0
11
61638.0
21
35917.0
0
LINE
8
BLACK
10
61638.0
20
35917.0
11
61794.0
21
35917.0
0
LINE
8
BLACK
10
61544.0
20
35917.0
11
61544.0
21
36309.0
0
LINE
8
BLACK
10
61544.0
20
36309.0
11
61388.0
21
36309.0
0
LINE
8
BLACK
10
61388.0
20
36309.0
11
61388.0
21
35917.0
0
LINE
8
BLACK
10
61388.0
20
35917.0
11
61544.0
21
35917.0
0
LINE
8
BLACK
10
61294.0
20
35917.0
11
61294.0
21
36309.0
0
LINE
8
BLACK
10
61294.0
20
36309.0
11
61138.0
21
36309.0
0
LINE
8
BLACK
10
61138.0
20
36309.0
11
61138.0
21
35917.0
0
LINE
8
BLACK
10
61138.0
20
35917.0
11
61294.0
21
35917.0
0
LINE
8
BLACK
10
61294.0
20
33753.0
11
61294.0
21
34145.0
0
LINE
8
BLACK
10
61294.0
20
34145.0
11
61138.0
21
34145.0
0
LINE
8
BLACK
10
61138.0
20
34145.0
11
61138.0
21
33753.0
0
LINE
8
BLACK
10
61138.0
20
33753.0
11
61294.0
21
33753.0
0
LINE
8
BLACK
10
61544.0
20
33753.0
11
61544.0
21
34145.0
0
LINE
8
BLACK
10
61544.0
20
34145.0
11
61388.0
21
34145.0
0
LINE
8
BLACK
10
61388.0
20
34145.0
11
61388.0
21
33753.0
0
LINE
8
BLACK
10
61388.0
20
33753.0
11
61544.0
21
33753.0
0
LINE
8
BLACK
10
61794.0
20
33753.0
11
61794.0
21
34145.0
0
LINE
8
BLACK
10
61794.0
20
34145.0
11
61638.0
21
34145.0
0
LINE
8
BLACK
10
61638.0
20
34145.0
11
61638.0
21
33753.0
0
LINE
8
BLACK
10
61638.0
20
33753.0
11
61794.0
21
33753.0
0
LINE
8
BLACK
10
62044.0
20
33753.0
11
62044.0
21
34145.0
0
LINE
8
BLACK
10
62044.0
20
34145.0
11
61888.0
21
34145.0
0
LINE
8
BLACK
10
61888.0
20
34145.0
11
61888.0
21
33753.0
0
LINE
8
BLACK
10
61888.0
20
33753.0
11
62044.0
21
33753.0
0
LINE
8
BLACK
10
62294.0
20
33753.0
11
62294.0
21
34145.0
0
LINE
8
BLACK
10
62294.0
20
34145.0
11
62138.0
21
34145.0
0
LINE
8
BLACK
10
62138.0
20
34145.0
11
62138.0
21
33753.0
0
LINE
8
BLACK
10
62138.0
20
33753.0
11
62294.0
21
33753.0
0
LINE
8
BLACK
10
62544.0
20
33753.0
11
62544.0
21
34145.0
0
LINE
8
BLACK
10
62544.0
20
34145.0
11
62388.0
21
34145.0
0
LINE
8
BLACK
10
62388.0
20
34145.0
11
62388.0
21
33753.0
0
LINE
8
BLACK
10
62388.0
20
33753.0
11
62544.0
21
33753.0
0
LINE
8
BLACK
10
62794.0
20
33753.0
11
62794.0
21
34145.0
0
LINE
8
BLACK
10
62794.0
20
34145.0
11
62638.0
21
34145.0
0
LINE
8
BLACK
10
62638.0
20
34145.0
11
62638.0
21
33753.0
0
LINE
8
BLACK
10
62638.0
20
33753.0
11
62794.0
21
33753.0
0
LINE
8
BLACK
10
63044.0
20
33753.0
11
63044.0
21
34145.0
0
LINE
8
BLACK
10
63044.0
20
34145.0
11
62888.0
21
34145.0
0
LINE
8
BLACK
10
62888.0
20
34145.0
11
62888.0
21
33753.0
0
LINE
8
BLACK
10
62888.0
20
33753.0
11
63044.0
21
33753.0
0
LINE
8
BLACK
10
58094.0
20
39656.0
11
57744.0
21
39656.0
0
LINE
8
BLACK
10
57744.0
20
39656.0
11
57744.0
21
39576.0
0
LINE
8
BLACK
10
57744.0
20
39576.0
11
58094.0
21
39576.0
0
LINE
8
BLACK
10
58094.0
20
39576.0
11
58094.0
21
39656.0
0
LINE
8
BLACK
10
57268.0
20
45000.0
11
57268.0
21
45350.0
0
LINE
8
BLACK
10
57268.0
20
45350.0
11
57188.0
21
45350.0
0
LINE
8
BLACK
10
57188.0
20
45350.0
11
57188.0
21
45000.0
0
LINE
8
BLACK
10
57188.0
20
45000.0
11
57268.0
21
45000.0
0
LINE
8
BLACK
10
51494.0
20
44444.0
11
51844.0
21
44444.0
0
LINE
8
BLACK
10
51844.0
20
44444.0
11
51844.0
21
44524.0
0
LINE
8
BLACK
10
51844.0
20
44524.0
11
51494.0
21
44524.0
0
LINE
8
BLACK
10
51494.0
20
44524.0
11
51494.0
21
44444.0
0
LINE
8
BLACK
10
52400.0
20
38750.0
11
52400.0
21
39100.0
0
LINE
8
BLACK
10
52400.0
20
39100.0
11
52320.0
21
39100.0
0
LINE
8
BLACK
10
52320.0
20
39100.0
11
52320.0
21
38750.0
0
LINE
8
BLACK
10
52320.0
20
38750.0
11
52400.0
21
38750.0
0
LINE
8
BLACK
10
58094.0
20
39813.0
11
57744.0
21
39813.0
0
LINE
8
BLACK
10
57744.0
20
39813.0
11
57744.0
21
39733.0
0
LINE
8
BLACK
10
57744.0
20
39733.0
11
58094.0
21
39733.0
0
LINE
8
BLACK
10
58094.0
20
39733.0
11
58094.0
21
39813.0
0
LINE
8
BLACK
10
57111.0
20
45000.0
11
57111.0
21
45350.0
0
LINE
8
BLACK
10
57111.0
20
45350.0
11
57031.0
21
45350.0
0
LINE
8
BLACK
10
57031.0
20
45350.0
11
57031.0
21
45000.0
0
LINE
8
BLACK
10
57031.0
20
45000.0
11
57111.0
21
45000.0
0
LINE
8
BLACK
10
51494.0
20
44287.0
11
51844.0
21
44287.0
0
LINE
8
BLACK
10
51844.0
20
44287.0
11
51844.0
21
44367.0
0
LINE
8
BLACK
10
51844.0
20
44367.0
11
51494.0
21
44367.0
0
LINE
8
BLACK
10
51494.0
20
44367.0
11
51494.0
21
44287.0
0
LINE
8
BLACK
10
52557.0
20
38750.0
11
52557.0
21
39100.0
0
LINE
8
BLACK
10
52557.0
20
39100.0
11
52477.0
21
39100.0
0
LINE
8
BLACK
10
52477.0
20
39100.0
11
52477.0
21
38750.0
0
LINE
8
BLACK
10
52477.0
20
38750.0
11
52557.0
21
38750.0
0
LINE
8
BLACK
10
58094.0
20
39970.0
11
57744.0
21
39970.0
0
LINE
8
BLACK
10
57744.0
20
39970.0
11
57744.0
21
39890.0
0
LINE
8
BLACK
10
57744.0
20
39890.0
11
58094.0
21
39890.0
0
LINE
8
BLACK
10
58094.0
20
39890.0
11
58094.0
21
39970.0
0
LINE
8
BLACK
10
56954.0
20
45000.0
11
56954.0
21
45350.0
0
LINE
8
BLACK
10
56954.0
20
45350.0
11
56874.0
21
45350.0
0
LINE
8
BLACK
10
56874.0
20
45350.0
11
56874.0
21
45000.0
0
LINE
8
BLACK
10
56874.0
20
45000.0
11
56954.0
21
45000.0
0
LINE
8
BLACK
10
51494.0
20
44130.0
11
51844.0
21
44130.0
0
LINE
8
BLACK
10
51844.0
20
44130.0
11
51844.0
21
44210.0
0
LINE
8
BLACK
10
51844.0
20
44210.0
11
51494.0
21
44210.0
0
LINE
8
BLACK
10
51494.0
20
44210.0
11
51494.0
21
44130.0
0
LINE
8
BLACK
10
52714.0
20
38750.0
11
52714.0
21
39100.0
0
LINE
8
BLACK
10
52714.0
20
39100.0
11
52634.0
21
39100.0
0
LINE
8
BLACK
10
52634.0
20
39100.0
11
52634.0
21
38750.0
0
LINE
8
BLACK
10
52634.0
20
38750.0
11
52714.0
21
38750.0
0
LINE
8
BLACK
10
58094.0
20
40127.0
11
57744.0
21
40127.0
0
LINE
8
BLACK
10
57744.0
20
40127.0
11
57744.0
21
40047.0
0
LINE
8
BLACK
10
57744.0
20
40047.0
11
58094.0
21
40047.0
0
LINE
8
BLACK
10
58094.0
20
40047.0
11
58094.0
21
40127.0
0
LINE
8
BLACK
10
56797.0
20
45000.0
11
56797.0
21
45350.0
0
LINE
8
BLACK
10
56797.0
20
45350.0
11
56717.0
21
45350.0
0
LINE
8
BLACK
10
56717.0
20
45350.0
11
56717.0
21
45000.0
0
LINE
8
BLACK
10
56717.0
20
45000.0
11
56797.0
21
45000.0
0
LINE
8
BLACK
10
51494.0
20
43973.0
11
51844.0
21
43973.0
0
LINE
8
BLACK
10
51844.0
20
43973.0
11
51844.0
21
44053.0
0
LINE
8
BLACK
10
51844.0
20
44053.0
11
51494.0
21
44053.0
0
LINE
8
BLACK
10
51494.0
20
44053.0
11
51494.0
21
43973.0
0
LINE
8
BLACK
10
52871.0
20
38750.0
11
52871.0
21
39100.0
0
LINE
8
BLACK
10
52871.0
20
39100.0
11
52791.0
21
39100.0
0
LINE
8
BLACK
10
52791.0
20
39100.0
11
52791.0
21
38750.0
0
LINE
8
BLACK
10
52791.0
20
38750.0
11
52871.0
21
38750.0
0
LINE
8
BLACK
10
58094.0
20
40284.0
11
57744.0
21
40284.0
0
LINE
8
BLACK
10
57744.0
20
40284.0
11
57744.0
21
40204.0
0
LINE
8
BLACK
10
57744.0
20
40204.0
11
58094.0
21
40204.0
0
LINE
8
BLACK
10
58094.0
20
40204.0
11
58094.0
21
40284.0
0
LINE
8
BLACK
10
56640.0
20
45000.0
11
56640.0
21
45350.0
0
LINE
8
BLACK
10
56640.0
20
45350.0
11
56560.0
21
45350.0
0
LINE
8
BLACK
10
56560.0
20
45350.0
11
56560.0
21
45000.0
0
LINE
8
BLACK
10
56560.0
20
45000.0
11
56640.0
21
45000.0
0
LINE
8
BLACK
10
51494.0
20
43816.0
11
51844.0
21
43816.0
0
LINE
8
BLACK
10
51844.0
20
43816.0
11
51844.0
21
43896.0
0
LINE
8
BLACK
10
51844.0
20
43896.0
11
51494.0
21
43896.0
0
LINE
8
BLACK
10
51494.0
20
43896.0
11
51494.0
21
43816.0
0
LINE
8
BLACK
10
53028.0
20
38750.0
11
53028.0
21
39100.0
0
LINE
8
BLACK
10
53028.0
20
39100.0
11
52948.0
21
39100.0
0
LINE
8
BLACK
10
52948.0
20
39100.0
11
52948.0
21
38750.0
0
LINE
8
BLACK
10
52948.0
20
38750.0
11
53028.0
21
38750.0
0
LINE
8
BLACK
10
58094.0
20
40441.0
11
57744.0
21
40441.0
0
LINE
8
BLACK
10
57744.0
20
40441.0
11
57744.0
21
40361.0
0
LINE
8
BLACK
10
57744.0
20
40361.0
11
58094.0
21
40361.0
0
LINE
8
BLACK
10
58094.0
20
40361.0
11
58094.0
21
40441.0
0
LINE
8
BLACK
10
56483.0
20
45000.0
11
56483.0
21
45350.0
0
LINE
8
BLACK
10
56483.0
20
45350.0
11
56403.0
21
45350.0
0
LINE
8
BLACK
10
56403.0
20
45350.0
11
56403.0
21
45000.0
0
LINE
8
BLACK
10
56403.0
20
45000.0
11
56483.0
21
45000.0
0
LINE
8
BLACK
10
51494.0
20
43659.0
11
51844.0
21
43659.0
0
LINE
8
BLACK
10
51844.0
20
43659.0
11
51844.0
21
43739.0
0
LINE
8
BLACK
10
51844.0
20
43739.0
11
51494.0
21
43739.0
0
LINE
8
BLACK
10
51494.0
20
43739.0
11
51494.0
21
43659.0
0
LINE
8
BLACK
10
53185.0
20
38750.0
11
53185.0
21
39100.0
0
LINE
8
BLACK
10
53185.0
20
39100.0
11
53105.0
21
39100.0
0
LINE
8
BLACK
10
53105.0
20
39100.0
11
53105.0
21
38750.0
0
LINE
8
BLACK
10
53105.0
20
38750.0
11
53185.0
21
38750.0
0
LINE
8
BLACK
10
58094.0
20
40598.0
11
57744.0
21
40598.0
0
LINE
8
BLACK
10
57744.0
20
40598.0
11
57744.0
21
40518.0
0
LINE
8
BLACK
10
57744.0
20
40518.0
11
58094.0
21
40518.0
0
LINE
8
BLACK
10
58094.0
20
40518.0
11
58094.0
21
40598.0
0
LINE
8
BLACK
10
56326.0
20
45000.0
11
56326.0
21
45350.0
0
LINE
8
BLACK
10
56326.0
20
45350.0
11
56246.0
21
45350.0
0
LINE
8
BLACK
10
56246.0
20
45350.0
11
56246.0
21
45000.0
0
LINE
8
BLACK
10
56246.0
20
45000.0
11
56326.0
21
45000.0
0
LINE
8
BLACK
10
51494.0
20
43502.0
11
51844.0
21
43502.0
0
LINE
8
BLACK
10
51844.0
20
43502.0
11
51844.0
21
43582.0
0
LINE
8
BLACK
10
51844.0
20
43582.0
11
51494.0
21
43582.0
0
LINE
8
BLACK
10
51494.0
20
43582.0
11
51494.0
21
43502.0
0
LINE
8
BLACK
10
53342.0
20
38750.0
11
53342.0
21
39100.0
0
LINE
8
BLACK
10
53342.0
20
39100.0
11
53262.0
21
39100.0
0
LINE
8
BLACK
10
53262.0
20
39100.0
11
53262.0
21
38750.0
0
LINE
8
BLACK
10
53262.0
20
38750.0
11
53342.0
21
38750.0
0
LINE
8
BLACK
10
58094.0
20
40755.0
11
57744.0
21
40755.0
0
LINE
8
BLACK
10
57744.0
20
40755.0
11
57744.0
21
40675.0
0
LINE
8
BLACK
10
57744.0
20
40675.0
11
58094.0
21
40675.0
0
LINE
8
BLACK
10
58094.0
20
40675.0
11
58094.0
21
40755.0
0
LINE
8
BLACK
10
56169.0
20
45000.0
11
56169.0
21
45350.0
0
LINE
8
BLACK
10
56169.0
20
45350.0
11
56089.0
21
45350.0
0
LINE
8
BLACK
10
56089.0
20
45350.0
11
56089.0
21
45000.0
0
LINE
8
BLACK
10
56089.0
20
45000.0
11
56169.0
21
45000.0
0
LINE
8
BLACK
10
51494.0
20
43345.0
11
51844.0
21
43345.0
0
LINE
8
BLACK
10
51844.0
20
43345.0
11
51844.0
21
43425.0
0
LINE
8
BLACK
10
51844.0
20
43425.0
11
51494.0
21
43425.0
0
LINE
8
BLACK
10
51494.0
20
43425.0
11
51494.0
21
43345.0
0
LINE
8
BLACK
10
53499.0
20
38750.0
11
53499.0
21
39100.0
0
LINE
8
BLACK
10
53499.0
20
39100.0
11
53419.0
21
39100.0
0
LINE
8
BLACK
10
53419.0
20
39100.0
11
53419.0
21
38750.0
0
LINE
8
BLACK
10
53419.0
20
38750.0
11
53499.0
21
38750.0
0
LINE
8
BLACK
10
58094.0
20
40912.0
11
57744.0
21
40912.0
0
LINE
8
BLACK
10
57744.0
20
40912.0
11
57744.0
21
40832.0
0
LINE
8
BLACK
10
57744.0
20
40832.0
11
58094.0
21
40832.0
0
LINE
8
BLACK
10
58094.0
20
40832.0
11
58094.0
21
40912.0
0
LINE
8
BLACK
10
56012.0
20
45000.0
11
56012.0
21
45350.0
0
LINE
8
BLACK
10
56012.0
20
45350.0
11
55932.0
21
45350.0
0
LINE
8
BLACK
10
55932.0
20
45350.0
11
55932.0
21
45000.0
0
LINE
8
BLACK
10
55932.0
20
45000.0
11
56012.0
21
45000.0
0
LINE
8
BLACK
10
51494.0
20
43188.0
11
51844.0
21
43188.0
0
LINE
8
BLACK
10
51844.0
20
43188.0
11
51844.0
21
43268.0
0
LINE
8
BLACK
10
51844.0
20
43268.0
11
51494.0
21
43268.0
0
LINE
8
BLACK
10
51494.0
20
43268.0
11
51494.0
21
43188.0
0
LINE
8
BLACK
10
53656.0
20
38750.0
11
53656.0
21
39100.0
0
LINE
8
BLACK
10
53656.0
20
39100.0
11
53576.0
21
39100.0
0
LINE
8
BLACK
10
53576.0
20
39100.0
11
53576.0
21
38750.0
0
LINE
8
BLACK
10
53576.0
20
38750.0
11
53656.0
21
38750.0
0
LINE
8
BLACK
10
58094.0
20
41069.0
11
57744.0
21
41069.0
0
LINE
8
BLACK
10
57744.0
20
41069.0
11
57744.0
21
40989.0
0
LINE
8
BLACK
10
57744.0
20
40989.0
11
58094.0
21
40989.0
0
LINE
8
BLACK
10
58094.0
20
40989.0
11
58094.0
21
41069.0
0
LINE
8
BLACK
10
55855.0
20
45000.0
11
55855.0
21
45350.0
0
LINE
8
BLACK
10
55855.0
20
45350.0
11
55775.0
21
45350.0
0
LINE
8
BLACK
10
55775.0
20
45350.0
11
55775.0
21
45000.0
0
LINE
8
BLACK
10
55775.0
20
45000.0
11
55855.0
21
45000.0
0
LINE
8
BLACK
10
51494.0
20
43031.0
11
51844.0
21
43031.0
0
LINE
8
BLACK
10
51844.0
20
43031.0
11
51844.0
21
43111.0
0
LINE
8
BLACK
10
51844.0
20
43111.0
11
51494.0
21
43111.0
0
LINE
8
BLACK
10
51494.0
20
43111.0
11
51494.0
21
43031.0
0
LINE
8
BLACK
10
53813.0
20
38750.0
11
53813.0
21
39100.0
0
LINE
8
BLACK
10
53813.0
20
39100.0
11
53733.0
21
39100.0
0
LINE
8
BLACK
10
53733.0
20
39100.0
11
53733.0
21
38750.0
0
LINE
8
BLACK
10
53733.0
20
38750.0
11
53813.0
21
38750.0
0
LINE
8
BLACK
10
58094.0
20
41226.0
11
57744.0
21
41226.0
0
LINE
8
BLACK
10
57744.0
20
41226.0
11
57744.0
21
41146.0
0
LINE
8
BLACK
10
57744.0
20
41146.0
11
58094.0
21
41146.0
0
LINE
8
BLACK
10
58094.0
20
41146.0
11
58094.0
21
41226.0
0
LINE
8
BLACK
10
55698.0
20
45000.0
11
55698.0
21
45350.0
0
LINE
8
BLACK
10
55698.0
20
45350.0
11
55618.0
21
45350.0
0
LINE
8
BLACK
10
55618.0
20
45350.0
11
55618.0
21
45000.0
0
LINE
8
BLACK
10
55618.0
20
45000.0
11
55698.0
21
45000.0
0
LINE
8
BLACK
10
51494.0
20
42874.0
11
51844.0
21
42874.0
0
LINE
8
BLACK
10
51844.0
20
42874.0
11
51844.0
21
42954.0
0
LINE
8
BLACK
10
51844.0
20
42954.0
11
51494.0
21
42954.0
0
LINE
8
BLACK
10
51494.0
20
42954.0
11
51494.0
21
42874.0
0
LINE
8
BLACK
10
53970.0
20
38750.0
11
53970.0
21
39100.0
0
LINE
8
BLACK
10
53970.0
20
39100.0
11
53890.0
21
39100.0
0
LINE
8
BLACK
10
53890.0
20
39100.0
11
53890.0
21
38750.0
0
LINE
8
BLACK
10
53890.0
20
38750.0
11
53970.0
21
38750.0
0
LINE
8
BLACK
10
58094.0
20
41383.0
11
57744.0
21
41383.0
0
LINE
8
BLACK
10
57744.0
20
41383.0
11
57744.0
21
41303.0
0
LINE
8
BLACK
10
57744.0
20
41303.0
11
58094.0
21
41303.0
0
LINE
8
BLACK
10
58094.0
20
41303.0
11
58094.0
21
41383.0
0
LINE
8
BLACK
10
55541.0
20
45000.0
11
55541.0
21
45350.0
0
LINE
8
BLACK
10
55541.0
20
45350.0
11
55461.0
21
45350.0
0
LINE
8
BLACK
10
55461.0
20
45350.0
11
55461.0
21
45000.0
0
LINE
8
BLACK
10
55461.0
20
45000.0
11
55541.0
21
45000.0
0
LINE
8
BLACK
10
51494.0
20
42717.0
11
51844.0
21
42717.0
0
LINE
8
BLACK
10
51844.0
20
42717.0
11
51844.0
21
42797.0
0
LINE
8
BLACK
10
51844.0
20
42797.0
11
51494.0
21
42797.0
0
LINE
8
BLACK
10
51494.0
20
42797.0
11
51494.0
21
42717.0
0
LINE
8
BLACK
10
54127.0
20
38750.0
11
54127.0
21
39100.0
0
LINE
8
BLACK
10
54127.0
20
39100.0
11
54047.0
21
39100.0
0
LINE
8
BLACK
10
54047.0
20
39100.0
11
54047.0
21
38750.0
0
LINE
8
BLACK
10
54047.0
20
38750.0
11
54127.0
21
38750.0
0
LINE
8
BLACK
10
58094.0
20
41540.0
11
57744.0
21
41540.0
0
LINE
8
BLACK
10
57744.0
20
41540.0
11
57744.0
21
41460.0
0
LINE
8
BLACK
10
57744.0
20
41460.0
11
58094.0
21
41460.0
0
LINE
8
BLACK
10
58094.0
20
41460.0
11
58094.0
21
41540.0
0
LINE
8
BLACK
10
55384.0
20
45000.0
11
55384.0
21
45350.0
0
LINE
8
BLACK
10
55384.0
20
45350.0
11
55304.0
21
45350.0
0
LINE
8
BLACK
10
55304.0
20
45350.0
11
55304.0
21
45000.0
0
LINE
8
BLACK
10
55304.0
20
45000.0
11
55384.0
21
45000.0
0
LINE
8
BLACK
10
51494.0
20
42560.0
11
51844.0
21
42560.0
0
LINE
8
BLACK
10
51844.0
20
42560.0
11
51844.0
21
42640.0
0
LINE
8
BLACK
10
51844.0
20
42640.0
11
51494.0
21
42640.0
0
LINE
8
BLACK
10
51494.0
20
42640.0
11
51494.0
21
42560.0
0
LINE
8
BLACK
10
54284.0
20
38750.0
11
54284.0
21
39100.0
0
LINE
8
BLACK
10
54284.0
20
39100.0
11
54204.0
21
39100.0
0
LINE
8
BLACK
10
54204.0
20
39100.0
11
54204.0
21
38750.0
0
LINE
8
BLACK
10
54204.0
20
38750.0
11
54284.0
21
38750.0
0
LINE
8
BLACK
10
58094.0
20
41697.0
11
57744.0
21
41697.0
0
LINE
8
BLACK
10
57744.0
20
41697.0
11
57744.0
21
41617.0
0
LINE
8
BLACK
10
57744.0
20
41617.0
11
58094.0
21
41617.0
0
LINE
8
BLACK
10
58094.0
20
41617.0
11
58094.0
21
41697.0
0
LINE
8
BLACK
10
55227.0
20
45000.0
11
55227.0
21
45350.0
0
LINE
8
BLACK
10
55227.0
20
45350.0
11
55147.0
21
45350.0
0
LINE
8
BLACK
10
55147.0
20
45350.0
11
55147.0
21
45000.0
0
LINE
8
BLACK
10
55147.0
20
45000.0
11
55227.0
21
45000.0
0
LINE
8
BLACK
10
51494.0
20
42403.0
11
51844.0
21
42403.0
0
LINE
8
BLACK
10
51844.0
20
42403.0
11
51844.0
21
42483.0
0
LINE
8
BLACK
10
51844.0
20
42483.0
11
51494.0
21
42483.0
0
LINE
8
BLACK
10
51494.0
20
42483.0
11
51494.0
21
42403.0
0
LINE
8
BLACK
10
54441.0
20
38750.0
11
54441.0
21
39100.0
0
LINE
8
BLACK
10
54441.0
20
39100.0
11
54361.0
21
39100.0
0
LINE
8
BLACK
10
54361.0
20
39100.0
11
54361.0
21
38750.0
0
LINE
8
BLACK
10
54361.0
20
38750.0
11
54441.0
21
38750.0
0
LINE
8
BLACK
10
58094.0
20
41854.0
11
57744.0
21
41854.0
0
LINE
8
BLACK
10
57744.0
20
41854.0
11
57744.0
21
41774.0
0
LINE
8
BLACK
10
57744.0
20
41774.0
11
58094.0
21
41774.0
0
LINE
8
BLACK
10
58094.0
20
41774.0
11
58094.0
21
41854.0
0
LINE
8
BLACK
10
55070.0
20
45000.0
11
55070.0
21
45350.0
0
LINE
8
BLACK
10
55070.0
20
45350.0
11
54990.0
21
45350.0
0
LINE
8
BLACK
10
54990.0
20
45350.0
11
54990.0
21
45000.0
0
LINE
8
BLACK
10
54990.0
20
45000.0
11
55070.0
21
45000.0
0
LINE
8
BLACK
10
51494.0
20
42246.0
11
51844.0
21
42246.0
0
LINE
8
BLACK
10
51844.0
20
42246.0
11
51844.0
21
42326.0
0
LINE
8
BLACK
10
51844.0
20
42326.0
11
51494.0
21
42326.0
0
LINE
8
BLACK
10
51494.0
20
42326.0
11
51494.0
21
42246.0
0
LINE
8
BLACK
10
54598.0
20
38750.0
11
54598.0
21
39100.0
0
LINE
8
BLACK
10
54598.0
20
39100.0
11
54518.0
21
39100.0
0
LINE
8
BLACK
10
54518.0
20
39100.0
11
54518.0
21
38750.0
0
LINE
8
BLACK
10
54518.0
20
38750.0
11
54598.0
21
38750.0
0
LINE
8
BLACK
10
58094.0
20
42011.0
11
57744.0
21
42011.0
0
LINE
8
BLACK
10
57744.0
20
42011.0
11
57744.0
21
41931.0
0
LINE
8
BLACK
10
57744.0
20
41931.0
11
58094.0
21
41931.0
0
LINE
8
BLACK
10
58094.0
20
41931.0
11
58094.0
21
42011.0
0
LINE
8
BLACK
10
54913.0
20
45000.0
11
54913.0
21
45350.0
0
LINE
8
BLACK
10
54913.0
20
45350.0
11
54833.0
21
45350.0
0
LINE
8
BLACK
10
54833.0
20
45350.0
11
54833.0
21
45000.0
0
LINE
8
BLACK
10
54833.0
20
45000.0
11
54913.0
21
45000.0
0
LINE
8
BLACK
10
51494.0
20
42089.0
11
51844.0
21
42089.0
0
LINE
8
BLACK
10
51844.0
20
42089.0
11
51844.0
21
42169.0
0
LINE
8
BLACK
10
51844.0
20
42169.0
11
51494.0
21
42169.0
0
LINE
8
BLACK
10
51494.0
20
42169.0
11
51494.0
21
42089.0
0
LINE
8
BLACK
10
54755.0
20
38750.0
11
54755.0
21
39100.0
0
LINE
8
BLACK
10
54755.0
20
39100.0
11
54675.0
21
39100.0
0
LINE
8
BLACK
10
54675.0
20
39100.0
11
54675.0
21
38750.0
0
LINE
8
BLACK
10
54675.0
20
38750.0
11
54755.0
21
38750.0
0
LINE
8
BLACK
10
58094.0
20
42168.0
11
57744.0
21
42168.0
0
LINE
8
BLACK
10
57744.0
20
42168.0
11
57744.0
21
42088.0
0
LINE
8
BLACK
10
57744.0
20
42088.0
11
58094.0
21
42088.0
0
LINE
8
BLACK
10
58094.0
20
42088.0
11
58094.0
21
42168.0
0
LINE
8
BLACK
10
54756.0
20
45000.0
11
54756.0
21
45350.0
0
LINE
8
BLACK
10
54756.0
20
45350.0
11
54676.0
21
45350.0
0
LINE
8
BLACK
10
54676.0
20
45350.0
11
54676.0
21
45000.0
0
LINE
8
BLACK
10
54676.0
20
45000.0
11
54756.0
21
45000.0
0
LINE
8
BLACK
10
51494.0
20
41932.0
11
51844.0
21
41932.0
0
LINE
8
BLACK
10
51844.0
20
41932.0
11
51844.0
21
42012.0
0
LINE
8
BLACK
10
51844.0
20
42012.0
11
51494.0
21
42012.0
0
LINE
8
BLACK
10
51494.0
20
42012.0
11
51494.0
21
41932.0
0
LINE
8
BLACK
10
54912.0
20
38750.0
11
54912.0
21
39100.0
0
LINE
8
BLACK
10
54912.0
20
39100.0
11
54832.0
21
39100.0
0
LINE
8
BLACK
10
54832.0
20
39100.0
11
54832.0
21
38750.0
0
LINE
8
BLACK
10
54832.0
20
38750.0
11
54912.0
21
38750.0
0
LINE
8
BLACK
10
58094.0
20
42325.0
11
57744.0
21
42325.0
0
LINE
8
BLACK
10
57744.0
20
42325.0
11
57744.0
21
42245.0
0
LINE
8
BLACK
10
57744.0
20
42245.0
11
58094.0
21
42245.0
0
LINE
8
BLACK
10
58094.0
20
42245.0
11
58094.0
21
42325.0
0
LINE
8
BLACK
10
54599.0
20
45000.0
11
54599.0
21
45350.0
0
LINE
8
BLACK
10
54599.0
20
45350.0
11
54519.0
21
45350.0
0
LINE
8
BLACK
10
54519.0
20
45350.0
11
54519.0
21
45000.0
0
LINE
8
BLACK
10
54519.0
20
45000.0
11
54599.0
21
45000.0
0
LINE
8
BLACK
10
51494.0
20
41775.0
11
51844.0
21
41775.0
0
LINE
8
BLACK
10
51844.0
20
41775.0
11
51844.0
21
41855.0
0
LINE
8
BLACK
10
51844.0
20
41855.0
11
51494.0
21
41855.0
0
LINE
8
BLACK
10
51494.0
20
41855.0
11
51494.0
21
41775.0
0
LINE
8
BLACK
10
55069.0
20
38750.0
11
55069.0
21
39100.0
0
LINE
8
BLACK
10
55069.0
20
39100.0
11
54989.0
21
39100.0
0
LINE
8
BLACK
10
54989.0
20
39100.0
11
54989.0
21
38750.0
0
LINE
8
BLACK
10
54989.0
20
38750.0
11
55069.0
21
38750.0
0
LINE
8
BLACK
10
58094.0
20
42482.0
11
57744.0
21
42482.0
0
LINE
8
BLACK
10
57744.0
20
42482.0
11
57744.0
21
42402.0
0
LINE
8
BLACK
10
57744.0
20
42402.0
11
58094.0
21
42402.0
0
LINE
8
BLACK
10
58094.0
20
42402.0
11
58094.0
21
42482.0
0
LINE
8
BLACK
10
54442.0
20
45000.0
11
54442.0
21
45350.0
0
LINE
8
BLACK
10
54442.0
20
45350.0
11
54362.0
21
45350.0
0
LINE
8
BLACK
10
54362.0
20
45350.0
11
54362.0
21
45000.0
0
LINE
8
BLACK
10
54362.0
20
45000.0
11
54442.0
21
45000.0
0
LINE
8
BLACK
10
51494.0
20
41618.0
11
51844.0
21
41618.0
0
LINE
8
BLACK
10
51844.0
20
41618.0
11
51844.0
21
41698.0
0
LINE
8
BLACK
10
51844.0
20
41698.0
11
51494.0
21
41698.0
0
LINE
8
BLACK
10
51494.0
20
41698.0
11
51494.0
21
41618.0
0
LINE
8
BLACK
10
55226.0
20
38750.0
11
55226.0
21
39100.0
0
LINE
8
BLACK
10
55226.0
20
39100.0
11
55146.0
21
39100.0
0
LINE
8
BLACK
10
55146.0
20
39100.0
11
55146.0
21
38750.0
0
LINE
8
BLACK
10
55146.0
20
38750.0
11
55226.0
21
38750.0
0
LINE
8
BLACK
10
58094.0
20
42639.0
11
57744.0
21
42639.0
0
LINE
8
BLACK
10
57744.0
20
42639.0
11
57744.0
21
42559.0
0
LINE
8
BLACK
10
57744.0
20
42559.0
11
58094.0
21
42559.0
0
LINE
8
BLACK
10
58094.0
20
42559.0
11
58094.0
21
42639.0
0
LINE
8
BLACK
10
54285.0
20
45000.0
11
54285.0
21
45350.0
0
LINE
8
BLACK
10
54285.0
20
45350.0
11
54205.0
21
45350.0
0
LINE
8
BLACK
10
54205.0
20
45350.0
11
54205.0
21
45000.0
0
LINE
8
BLACK
10
54205.0
20
45000.0
11
54285.0
21
45000.0
0
LINE
8
BLACK
10
51494.0
20
41461.0
11
51844.0
21
41461.0
0
LINE
8
BLACK
10
51844.0
20
41461.0
11
51844.0
21
41541.0
0
LINE
8
BLACK
10
51844.0
20
41541.0
11
51494.0
21
41541.0
0
LINE
8
BLACK
10
51494.0
20
41541.0
11
51494.0
21
41461.0
0
LINE
8
BLACK
10
55383.0
20
38750.0
11
55383.0
21
39100.0
0
LINE
8
BLACK
10
55383.0
20
39100.0
11
55303.0
21
39100.0
0
LINE
8
BLACK
10
55303.0
20
39100.0
11
55303.0
21
38750.0
0
LINE
8
BLACK
10
55303.0
20
38750.0
11
55383.0
21
38750.0
0
LINE
8
BLACK
10
58094.0
20
42796.0
11
57744.0
21
42796.0
0
LINE
8
BLACK
10
57744.0
20
42796.0
11
57744.0
21
42716.0
0
LINE
8
BLACK
10
57744.0
20
42716.0
11
58094.0
21
42716.0
0
LINE
8
BLACK
10
58094.0
20
42716.0
11
58094.0
21
42796.0
0
LINE
8
BLACK
10
54128.0
20
45000.0
11
54128.0
21
45350.0
0
LINE
8
BLACK
10
54128.0
20
45350.0
11
54048.0
21
45350.0
0
LINE
8
BLACK
10
54048.0
20
45350.0
11
54048.0
21
45000.0
0
LINE
8
BLACK
10
54048.0
20
45000.0
11
54128.0
21
45000.0
0
LINE
8
BLACK
10
51494.0
20
41304.0
11
51844.0
21
41304.0
0
LINE
8
BLACK
10
51844.0
20
41304.0
11
51844.0
21
41384.0
0
LINE
8
BLACK
10
51844.0
20
41384.0
11
51494.0
21
41384.0
0
LINE
8
BLACK
10
51494.0
20
41384.0
11
51494.0
21
41304.0
0
LINE
8
BLACK
10
55540.0
20
38750.0
11
55540.0
21
39100.0
0
LINE
8
BLACK
10
55540.0
20
39100.0
11
55460.0
21
39100.0
0
LINE
8
BLACK
10
55460.0
20
39100.0
11
55460.0
21
38750.0
0
LINE
8
BLACK
10
55460.0
20
38750.0
11
55540.0
21
38750.0
0
LINE
8
BLACK
10
58094.0
20
42953.0
11
57744.0
21
42953.0
0
LINE
8
BLACK
10
57744.0
20
42953.0
11
57744.0
21
42873.0
0
LINE
8
BLACK
10
57744.0
20
42873.0
11
58094.0
21
42873.0
0
LINE
8
BLACK
10
58094.0
20
42873.0
11
58094.0
21
42953.0
0
LINE
8
BLACK
10
53971.0
20
45000.0
11
53971.0
21
45350.0
0
LINE
8
BLACK
10
53971.0
20
45350.0
11
53891.0
21
45350.0
0
LINE
8
BLACK
10
53891.0
20
45350.0
11
53891.0
21
45000.0
0
LINE
8
BLACK
10
53891.0
20
45000.0
11
53971.0
21
45000.0
0
LINE
8
BLACK
10
51494.0
20
41147.0
11
51844.0
21
41147.0
0
LINE
8
BLACK
10
51844.0
20
41147.0
11
51844.0
21
41227.0
0
LINE
8
BLACK
10
51844.0
20
41227.0
11
51494.0
21
41227.0
0
LINE
8
BLACK
10
51494.0
20
41227.0
11
51494.0
21
41147.0
0
LINE
8
BLACK
10
55697.0
20
38750.0
11
55697.0
21
39100.0
0
LINE
8
BLACK
10
55697.0
20
39100.0
11
55617.0
21
39100.0
0
LINE
8
BLACK
10
55617.0
20
39100.0
11
55617.0
21
38750.0
0
LINE
8
BLACK
10
55617.0
20
38750.0
11
55697.0
21
38750.0
0
LINE
8
BLACK
10
58094.0
20
43110.0
11
57744.0
21
43110.0
0
LINE
8
BLACK
10
57744.0
20
43110.0
11
57744.0
21
43030.0
0
LINE
8
BLACK
10
57744.0
20
43030.0
11
58094.0
21
43030.0
0
LINE
8
BLACK
10
58094.0
20
43030.0
11
58094.0
21
43110.0
0
LINE
8
BLACK
10
53814.0
20
45000.0
11
53814.0
21
45350.0
0
LINE
8
BLACK
10
53814.0
20
45350.0
11
53734.0
21
45350.0
0
LINE
8
BLACK
10
53734.0
20
45350.0
11
53734.0
21
45000.0
0
LINE
8
BLACK
10
53734.0
20
45000.0
11
53814.0
21
45000.0
0
LINE
8
BLACK
10
51494.0
20
40990.0
11
51844.0
21
40990.0
0
LINE
8
BLACK
10
51844.0
20
40990.0
11
51844.0
21
41070.0
0
LINE
8
BLACK
10
51844.0
20
41070.0
11
51494.0
21
41070.0
0
LINE
8
BLACK
10
51494.0
20
41070.0
11
51494.0
21
40990.0
0
LINE
8
BLACK
10
55854.0
20
38750.0
11
55854.0
21
39100.0
0
LINE
8
BLACK
10
55854.0
20
39100.0
11
55774.0
21
39100.0
0
LINE
8
BLACK
10
55774.0
20
39100.0
11
55774.0
21
38750.0
0
LINE
8
BLACK
10
55774.0
20
38750.0
11
55854.0
21
38750.0
0
LINE
8
BLACK
10
58094.0
20
43267.0
11
57744.0
21
43267.0
0
LINE
8
BLACK
10
57744.0
20
43267.0
11
57744.0
21
43187.0
0
LINE
8
BLACK
10
57744.0
20
43187.0
11
58094.0
21
43187.0
0
LINE
8
BLACK
10
58094.0
20
43187.0
11
58094.0
21
43267.0
0
LINE
8
BLACK
10
53657.0
20
45000.0
11
53657.0
21
45350.0
0
LINE
8
BLACK
10
53657.0
20
45350.0
11
53577.0
21
45350.0
0
LINE
8
BLACK
10
53577.0
20
45350.0
11
53577.0
21
45000.0
0
LINE
8
BLACK
10
53577.0
20
45000.0
11
53657.0
21
45000.0
0
LINE
8
BLACK
10
51494.0
20
40833.0
11
51844.0
21
40833.0
0
LINE
8
BLACK
10
51844.0
20
40833.0
11
51844.0
21
40913.0
0
LINE
8
BLACK
10
51844.0
20
40913.0
11
51494.0
21
40913.0
0
LINE
8
BLACK
10
51494.0
20
40913.0
11
51494.0
21
40833.0
0
LINE
8
BLACK
10
56011.0
20
38750.0
11
56011.0
21
39100.0
0
LINE
8
BLACK
10
56011.0
20
39100.0
11
55931.0
21
39100.0
0
LINE
8
BLACK
10
55931.0
20
39100.0
11
55931.0
21
38750.0
0
LINE
8
BLACK
10
55931.0
20
38750.0
11
56011.0
21
38750.0
0
LINE
8
BLACK
10
58094.0
20
43424.0
11
57744.0
21
43424.0
0
LINE
8
BLACK
10
57744.0
20
43424.0
11
57744.0
21
43344.0
0
LINE
8
BLACK
10
57744.0
20
43344.0
11
58094.0
21
43344.0
0
LINE
8
BLACK
10
58094.0
20
43344.0
11
58094.0
21
43424.0
0
LINE
8
BLACK
10
53500.0
20
45000.0
11
53500.0
21
45350.0
0
LINE
8
BLACK
10
53500.0
20
45350.0
11
53420.0
21
45350.0
0
LINE
8
BLACK
10
53420.0
20
45350.0
11
53420.0
21
45000.0
0
LINE
8
BLACK
10
53420.0
20
45000.0
11
53500.0
21
45000.0
0
LINE
8
BLACK
10
51494.0
20
40676.0
11
51844.0
21
40676.0
0
LINE
8
BLACK
10
51844.0
20
40676.0
11
51844.0
21
40756.0
0
LINE
8
BLACK
10
51844.0
20
40756.0
11
51494.0
21
40756.0
0
LINE
8
BLACK
10
51494.0
20
40756.0
11
51494.0
21
40676.0
0
LINE
8
BLACK
10
56168.0
20
38750.0
11
56168.0
21
39100.0
0
LINE
8
BLACK
10
56168.0
20
39100.0
11
56088.0
21
39100.0
0
LINE
8
BLACK
10
56088.0
20
39100.0
11
56088.0
21
38750.0
0
LINE
8
BLACK
10
56088.0
20
38750.0
11
56168.0
21
38750.0
0
LINE
8
BLACK
10
58094.0
20
43581.0
11
57744.0
21
43581.0
0
LINE
8
BLACK
10
57744.0
20
43581.0
11
57744.0
21
43501.0
0
LINE
8
BLACK
10
57744.0
20
43501.0
11
58094.0
21
43501.0
0
LINE
8
BLACK
10
58094.0
20
43501.0
11
58094.0
21
43581.0
0
LINE
8
BLACK
10
53343.0
20
45000.0
11
53343.0
21
45350.0
0
LINE
8
BLACK
10
53343.0
20
45350.0
11
53263.0
21
45350.0
0
LINE
8
BLACK
10
53263.0
20
45350.0
11
53263.0
21
45000.0
0
LINE
8
BLACK
10
53263.0
20
45000.0
11
53343.0
21
45000.0
0
LINE
8
BLACK
10
51494.0
20
40519.0
11
51844.0
21
40519.0
0
LINE
8
BLACK
10
51844.0
20
40519.0
11
51844.0
21
40599.0
0
LINE
8
BLACK
10
51844.0
20
40599.0
11
51494.0
21
40599.0
0
LINE
8
BLACK
10
51494.0
20
40599.0
11
51494.0
21
40519.0
0
LINE
8
BLACK
10
56325.0
20
38750.0
11
56325.0
21
39100.0
0
LINE
8
BLACK
10
56325.0
20
39100.0
11
56245.0
21
39100.0
0
LINE
8
BLACK
10
56245.0
20
39100.0
11
56245.0
21
38750.0
0
LINE
8
BLACK
10
56245.0
20
38750.0
11
56325.0
21
38750.0
0
LINE
8
BLACK
10
58094.0
20
43738.0
11
57744.0
21
43738.0
0
LINE
8
BLACK
10
57744.0
20
43738.0
11
57744.0
21
43658.0
0
LINE
8
BLACK
10
57744.0
20
43658.0
11
58094.0
21
43658.0
0
LINE
8
BLACK
10
58094.0
20
43658.0
11
58094.0
21
43738.0
0
LINE
8
BLACK
10
53186.0
20
45000.0
11
53186.0
21
45350.0
0
LINE
8
BLACK
10
53186.0
20
45350.0
11
53106.0
21
45350.0
0
LINE
8
BLACK
10
53106.0
20
45350.0
11
53106.0
21
45000.0
0
LINE
8
BLACK
10
53106.0
20
45000.0
11
53186.0
21
45000.0
0
LINE
8
BLACK
10
51494.0
20
40362.0
11
51844.0
21
40362.0
0
LINE
8
BLACK
10
51844.0
20
40362.0
11
51844.0
21
40442.0
0
LINE
8
BLACK
10
51844.0
20
40442.0
11
51494.0
21
40442.0
0
LINE
8
BLACK
10
51494.0
20
40442.0
11
51494.0
21
40362.0
0
LINE
8
BLACK
10
56482.0
20
38750.0
11
56482.0
21
39100.0
0
LINE
8
BLACK
10
56482.0
20
39100.0
11
56402.0
21
39100.0
0
LINE
8
BLACK
10
56402.0
20
39100.0
11
56402.0
21
38750.0
0
LINE
8
BLACK
10
56402.0
20
38750.0
11
56482.0
21
38750.0
0
LINE
8
BLACK
10
58094.0
20
43895.0
11
57744.0
21
43895.0
0
LINE
8
BLACK
10
57744.0
20
43895.0
11
57744.0
21
43815.0
0
LINE
8
BLACK
10
57744.0
20
43815.0
11
58094.0
21
43815.0
0
LINE
8
BLACK
10
58094.0
20
43815.0
11
58094.0
21
43895.0
0
LINE
8
BLACK
10
53029.0
20
45000.0
11
53029.0
21
45350.0
0
LINE
8
BLACK
10
53029.0
20
45350.0
11
52949.0
21
45350.0
0
LINE
8
BLACK
10
52949.0
20
45350.0
11
52949.0
21
45000.0
0
LINE
8
BLACK
10
52949.0
20
45000.0
11
53029.0
21
45000.0
0
LINE
8
BLACK
10
51494.0
20
40205.0
11
51844.0
21
40205.0
0
LINE
8
BLACK
10
51844.0
20
40205.0
11
51844.0
21
40285.0
0
LINE
8
BLACK
10
51844.0
20
40285.0
11
51494.0
21
40285.0
0
LINE
8
BLACK
10
51494.0
20
40285.0
11
51494.0
21
40205.0
0
LINE
8
BLACK
10
56639.0
20
38750.0
11
56639.0
21
39100.0
0
LINE
8
BLACK
10
56639.0
20
39100.0
11
56559.0
21
39100.0
0
LINE
8
BLACK
10
56559.0
20
39100.0
11
56559.0
21
38750.0
0
LINE
8
BLACK
10
56559.0
20
38750.0
11
56639.0
21
38750.0
0
LINE
8
BLACK
10
58094.0
20
44052.0
11
57744.0
21
44052.0
0
LINE
8
BLACK
10
57744.0
20
44052.0
11
57744.0
21
43972.0
0
LINE
8
BLACK
10
57744.0
20
43972.0
11
58094.0
21
43972.0
0
LINE
8
BLACK
10
58094.0
20
43972.0
11
58094.0
21
44052.0
0
LINE
8
BLACK
10
52872.0
20
45000.0
11
52872.0
21
45350.0
0
LINE
8
BLACK
10
52872.0
20
45350.0
11
52792.0
21
45350.0
0
LINE
8
BLACK
10
52792.0
20
45350.0
11
52792.0
21
45000.0
0
LINE
8
BLACK
10
52792.0
20
45000.0
11
52872.0
21
45000.0
0
LINE
8
BLACK
10
51494.0
20
40048.0
11
51844.0
21
40048.0
0
LINE
8
BLACK
10
51844.0
20
40048.0
11
51844.0
21
40128.0
0
LINE
8
BLACK
10
51844.0
20
40128.0
11
51494.0
21
40128.0
0
LINE
8
BLACK
10
51494.0
20
40128.0
11
51494.0
21
40048.0
0
LINE
8
BLACK
10
56796.0
20
38750.0
11
56796.0
21
39100.0
0
LINE
8
BLACK
10
56796.0
20
39100.0
11
56716.0
21
39100.0
0
LINE
8
BLACK
10
56716.0
20
39100.0
11
56716.0
21
38750.0
0
LINE
8
BLACK
10
56716.0
20
38750.0
11
56796.0
21
38750.0
0
LINE
8
BLACK
10
58094.0
20
44209.0
11
57744.0
21
44209.0
0
LINE
8
BLACK
10
57744.0
20
44209.0
11
57744.0
21
44129.0
0
LINE
8
BLACK
10
57744.0
20
44129.0
11
58094.0
21
44129.0
0
LINE
8
BLACK
10
58094.0
20
44129.0
11
58094.0
21
44209.0
0
LINE
8
BLACK
10
52715.0
20
45000.0
11
52715.0
21
45350.0
0
LINE
8
BLACK
10
52715.0
20
45350.0
11
52635.0
21
45350.0
0
LINE
8
BLACK
10
52635.0
20
45350.0
11
52635.0
21
45000.0
0
LINE
8
BLACK
10
52635.0
20
45000.0
11
52715.0
21
45000.0
0
LINE
8
BLACK
10
51494.0
20
39891.0
11
51844.0
21
39891.0
0
LINE
8
BLACK
10
51844.0
20
39891.0
11
51844.0
21
39971.0
0
LINE
8
BLACK
10
51844.0
20
39971.0
11
51494.0
21
39971.0
0
LINE
8
BLACK
10
51494.0
20
39971.0
11
51494.0
21
39891.0
0
LINE
8
BLACK
10
56953.0
20
38750.0
11
56953.0
21
39100.0
0
LINE
8
BLACK
10
56953.0
20
39100.0
11
56873.0
21
39100.0
0
LINE
8
BLACK
10
56873.0
20
39100.0
11
56873.0
21
38750.0
0
LINE
8
BLACK
10
56873.0
20
38750.0
11
56953.0
21
38750.0
0
LINE
8
BLACK
10
58094.0
20
44366.0
11
57744.0
21
44366.0
0
LINE
8
BLACK
10
57744.0
20
44366.0
11
57744.0
21
44286.0
0
LINE
8
BLACK
10
57744.0
20
44286.0
11
58094.0
21
44286.0
0
LINE
8
BLACK
10
58094.0
20
44286.0
11
58094.0
21
44366.0
0
LINE
8
BLACK
10
52558.0
20
45000.0
11
52558.0
21
45350.0
0
LINE
8
BLACK
10
52558.0
20
45350.0
11
52478.0
21
45350.0
0
LINE
8
BLACK
10
52478.0
20
45350.0
11
52478.0
21
45000.0
0
LINE
8
BLACK
10
52478.0
20
45000.0
11
52558.0
21
45000.0
0
LINE
8
BLACK
10
51494.0
20
39734.0
11
51844.0
21
39734.0
0
LINE
8
BLACK
10
51844.0
20
39734.0
11
51844.0
21
39814.0
0
LINE
8
BLACK
10
51844.0
20
39814.0
11
51494.0
21
39814.0
0
LINE
8
BLACK
10
51494.0
20
39814.0
11
51494.0
21
39734.0
0
LINE
8
BLACK
10
57110.0
20
38750.0
11
57110.0
21
39100.0
0
LINE
8
BLACK
10
57110.0
20
39100.0
11
57030.0
21
39100.0
0
LINE
8
BLACK
10
57030.0
20
39100.0
11
57030.0
21
38750.0
0
LINE
8
BLACK
10
57030.0
20
38750.0
11
57110.0
21
38750.0
0
LINE
8
BLACK
10
58094.0
20
44523.0
11
57744.0
21
44523.0
0
LINE
8
BLACK
10
57744.0
20
44523.0
11
57744.0
21
44443.0
0
LINE
8
BLACK
10
57744.0
20
44443.0
11
58094.0
21
44443.0
0
LINE
8
BLACK
10
58094.0
20
44443.0
11
58094.0
21
44523.0
0
LINE
8
BLACK
10
52401.0
20
45000.0
11
52401.0
21
45350.0
0
LINE
8
BLACK
10
52401.0
20
45350.0
11
52321.0
21
45350.0
0
LINE
8
BLACK
10
52321.0
20
45350.0
11
52321.0
21
45000.0
0
LINE
8
BLACK
10
52321.0
20
45000.0
11
52401.0
21
45000.0
0
LINE
8
BLACK
10
51494.0
20
39577.0
11
51844.0
21
39577.0
0
LINE
8
BLACK
10
51844.0
20
39577.0
11
51844.0
21
39657.0
0
LINE
8
BLACK
10
51844.0
20
39657.0
11
51494.0
21
39657.0
0
LINE
8
BLACK
10
51494.0
20
39657.0
11
51494.0
21
39577.0
0
LINE
8
BLACK
10
57267.0
20
38750.0
11
57267.0
21
39100.0
0
LINE
8
BLACK
10
57267.0
20
39100.0
11
57187.0
21
39100.0
0
LINE
8
BLACK
10
57187.0
20
39100.0
11
57187.0
21
38750.0
0
LINE
8
BLACK
10
57187.0
20
38750.0
11
57267.0
21
38750.0
0
LINE
8
BLACK
10
62390.0
20
36997.0
11
62390.0
21
36547.0
0
LINE
8
BLACK
10
62390.0
20
36547.0
11
62640.0
21
36547.0
0
LINE
8
BLACK
10
62640.0
20
36547.0
11
62640.0
21
36997.0
0
LINE
8
BLACK
10
62640.0
20
36997.0
11
62390.0
21
36997.0
0
LINE
8
BLACK
10
62990.0
20
36997.0
11
62990.0
21
36547.0
0
LINE
8
BLACK
10
62990.0
20
36547.0
11
63240.0
21
36547.0
0
LINE
8
BLACK
10
63240.0
20
36547.0
11
63240.0
21
36997.0
0
LINE
8
BLACK
10
63240.0
20
36997.0
11
62990.0
21
36997.0
0
LINE
8
BLACK
10
61961.0
20
36511.0
11
61961.0
21
36961.0
0
LINE
8
BLACK
10
61961.0
20
36961.0
11
61711.0
21
36961.0
0
LINE
8
BLACK
10
61711.0
20
36961.0
11
61711.0
21
36511.0
0
LINE
8
BLACK
10
61711.0
20
36511.0
11
61961.0
21
36511.0
0
LINE
8
BLACK
10
61361.0
20
36511.0
11
61361.0
21
36961.0
0
LINE
8
BLACK
10
61361.0
20
36961.0
11
61111.0
21
36961.0
0
LINE
8
BLACK
10
61111.0
20
36961.0
11
61111.0
21
36511.0
0
LINE
8
BLACK
10
61111.0
20
36511.0
11
61361.0
21
36511.0
0
LINE
8
BLACK
10
63268.0
20
33078.0
11
63268.0
21
33528.0
0
LINE
8
BLACK
10
63268.0
20
33528.0
11
63018.0
21
33528.0
0
LINE
8
BLACK
10
63018.0
20
33528.0
11
63018.0
21
33078.0
0
LINE
8
BLACK
10
63018.0
20
33078.0
11
63268.0
21
33078.0
0
LINE
8
BLACK
10
62668.0
20
33078.0
11
62668.0
21
33528.0
0
LINE
8
BLACK
10
62668.0
20
33528.0
11
62418.0
21
33528.0
0
LINE
8
BLACK
10
62418.0
20
33528.0
11
62418.0
21
33078.0
0
LINE
8
BLACK
10
62418.0
20
33078.0
11
62668.0
21
33078.0
0
LINE
8
BLACK
10
61803.0
20
33087.0
11
61803.0
21
33537.0
0
LINE
8
BLACK
10
61803.0
20
33537.0
11
61553.0
21
33537.0
0
LINE
8
BLACK
10
61553.0
20
33537.0
11
61553.0
21
33087.0
0
LINE
8
BLACK
10
61553.0
20
33087.0
11
61803.0
21
33087.0
0
LINE
8
BLACK
10
61203.0
20
33087.0
11
61203.0
21
33537.0
0
LINE
8
BLACK
10
61203.0
20
33537.0
11
60953.0
21
33537.0
0
LINE
8
BLACK
10
60953.0
20
33537.0
11
60953.0
21
33087.0
0
LINE
8
BLACK
10
60953.0
20
33087.0
11
61203.0
21
33087.0
0
LINE
8
BLACK
10
52567.0
20
46143.0
11
52567.0
21
45693.0
0
LINE
8
BLACK
10
52567.0
20
45693.0
11
52817.0
21
45693.0
0
LINE
8
BLACK
10
52817.0
20
45693.0
11
52817.0
21
46143.0
0
LINE
8
BLACK
10
52817.0
20
46143.0
11
52567.0
21
46143.0
0
LINE
8
BLACK
10
53167.0
20
46143.0
11
53167.0
21
45693.0
0
LINE
8
BLACK
10
53167.0
20
45693.0
11
53417.0
21
45693.0
0
LINE
8
BLACK
10
53417.0
20
45693.0
11
53417.0
21
46143.0
0
LINE
8
BLACK
10
53417.0
20
46143.0
11
53167.0
21
46143.0
0
LINE
8
BLACK
10
64733.0
20
47308.0
11
64283.0
21
47308.0
0
LINE
8
BLACK
10
64283.0
20
47308.0
11
64283.0
21
47058.0
0
LINE
8
BLACK
10
64283.0
20
47058.0
11
64733.0
21
47058.0
0
LINE
8
BLACK
10
64733.0
20
47058.0
11
64733.0
21
47308.0
0
LINE
8
BLACK
10
64733.0
20
46708.0
11
64283.0
21
46708.0
0
LINE
8
BLACK
10
64283.0
20
46708.0
11
64283.0
21
46458.0
0
LINE
8
BLACK
10
64283.0
20
46458.0
11
64733.0
21
46458.0
0
LINE
8
BLACK
10
64733.0
20
46458.0
11
64733.0
21
46708.0
0
LINE
8
BLACK
10
48788.0
20
38820.0
11
48788.0
21
38370.0
0
LINE
8
BLACK
10
48788.0
20
38370.0
11
49038.0
21
38370.0
0
LINE
8
BLACK
10
49038.0
20
38370.0
11
49038.0
21
38820.0
0
LINE
8
BLACK
10
49038.0
20
38820.0
11
48788.0
21
38820.0
0
LINE
8
BLACK
10
49388.0
20
38820.0
11
49388.0
21
38370.0
0
LINE
8
BLACK
10
49388.0
20
38370.0
11
49638.0
21
38370.0
0
LINE
8
BLACK
10
49638.0
20
38370.0
11
49638.0
21
38820.0
0
LINE
8
BLACK
10
49638.0
20
38820.0
11
49388.0
21
38820.0
0
LINE
8
BLACK
10
64165.0
20
47406.0
11
64165.0
21
47856.0
0
LINE
8
BLACK
10
64165.0
20
47856.0
11
63915.0
21
47856.0
0
LINE
8
BLACK
10
63915.0
20
47856.0
11
63915.0
21
47406.0
0
LINE
8
BLACK
10
63915.0
20
47406.0
11
64165.0
21
47406.0
0
LINE
8
BLACK
10
63565.0
20
47406.0
11
63565.0
21
47856.0
0
LINE
8
BLACK
10
63565.0
20
47856.0
11
63315.0
21
47856.0
0
LINE
8
BLACK
10
63315.0
20
47856.0
11
63315.0
21
47406.0
0
LINE
8
BLACK
10
63315.0
20
47406.0
11
63565.0
21
47406.0
0
LINE
8
BLACK
10
57984.0
20
45375.0
11
58434.0
21
45375.0
0
LINE
8
BLACK
10
58434.0
20
45375.0
11
58434.0
21
45625.0
0
LINE
8
BLACK
10
58434.0
20
45625.0
11
57984.0
21
45625.0
0
LINE
8
BLACK
10
57984.0
20
45625.0
11
57984.0
21
45375.0
0
LINE
8
BLACK
10
57984.0
20
45975.0
11
58434.0
21
45975.0
0
LINE
8
BLACK
10
58434.0
20
45975.0
11
58434.0
21
46225.0
0
LINE
8
BLACK
10
58434.0
20
46225.0
11
57984.0
21
46225.0
0
LINE
8
BLACK
10
57984.0
20
46225.0
11
57984.0
21
45975.0
0
LINE
8
BLACK
10
51336.0
20
33264.0
11
51336.0
21
33714.0
0
LINE
8
BLACK
10
51336.0
20
33714.0
11
51086.0
21
33714.0
0
LINE
8
BLACK
10
51086.0
20
33714.0
11
51086.0
21
33264.0
0
LINE
8
BLACK
10
51086.0
20
33264.0
11
51336.0
21
33264.0
0
LINE
8
BLACK
10
50736.0
20
33264.0
11
50736.0
21
33714.0
0
LINE
8
BLACK
10
50736.0
20
33714.0
11
50486.0
21
33714.0
0
LINE
8
BLACK
10
50486.0
20
33714.0
11
50486.0
21
33264.0
0
LINE
8
BLACK
10
50486.0
20
33264.0
11
50736.0
21
33264.0
0
LINE
8
BLACK
10
60394.0
20
38823.0
11
60394.0
21
39273.0
0
LINE
8
BLACK
10
60394.0
20
39273.0
11
60144.0
21
39273.0
0
LINE
8
BLACK
10
60144.0
20
39273.0
11
60144.0
21
38823.0
0
LINE
8
BLACK
10
60144.0
20
38823.0
11
60394.0
21
38823.0
0
LINE
8
BLACK
10
59794.0
20
38823.0
11
59794.0
21
39273.0
0
LINE
8
BLACK
10
59794.0
20
39273.0
11
59544.0
21
39273.0
0
LINE
8
BLACK
10
59544.0
20
39273.0
11
59544.0
21
38823.0
0
LINE
8
BLACK
10
59544.0
20
38823.0
11
59794.0
21
38823.0
0
LINE
8
BLACK
10
50400.0
20
36888.0
11
49600.0
21
36888.0
0
LINE
8
BLACK
10
49600.0
20
36888.0
11
49600.0
21
36288.0
0
LINE
8
BLACK
10
49600.0
20
36288.0
11
50400.0
21
36288.0
0
LINE
8
BLACK
10
50400.0
20
36288.0
11
50400.0
21
36888.0
0
LINE
8
BLACK
10
50400.0
20
35588.0
11
49600.0
21
35588.0
0
LINE
8
BLACK
10
49600.0
20
35588.0
11
49600.0
21
34988.0
0
LINE
8
BLACK
10
49600.0
20
34988.0
11
50400.0
21
34988.0
0
LINE
8
BLACK
10
50400.0
20
34988.0
11
50400.0
21
35588.0
0
LINE
8
BLACK
10
52113.0
20
38643.0
11
52113.0
21
39193.0
0
LINE
8
BLACK
10
52113.0
20
39193.0
11
51763.0
21
39193.0
0
LINE
8
BLACK
10
51763.0
20
39193.0
11
51763.0
21
38643.0
0
LINE
8
BLACK
10
51763.0
20
38643.0
11
52113.0
21
38643.0
0
LINE
8
BLACK
10
51363.0
20
38643.0
11
51363.0
21
39193.0
0
LINE
8
BLACK
10
51363.0
20
39193.0
11
51013.0
21
39193.0
0
LINE
8
BLACK
10
51013.0
20
39193.0
11
51013.0
21
38643.0
0
LINE
8
BLACK
10
51013.0
20
38643.0
11
51363.0
21
38643.0
0
LINE
8
BLACK
10
51960.0
20
46950.0
11
52410.0
21
46950.0
0
LINE
8
BLACK
10
52410.0
20
46950.0
11
52410.0
21
47200.0
0
LINE
8
BLACK
10
52410.0
20
47200.0
11
51960.0
21
47200.0
0
LINE
8
BLACK
10
51960.0
20
47200.0
11
51960.0
21
46950.0
0
LINE
8
BLACK
10
51960.0
20
47550.0
11
52410.0
21
47550.0
0
LINE
8
BLACK
10
52410.0
20
47550.0
11
52410.0
21
47800.0
0
LINE
8
BLACK
10
52410.0
20
47800.0
11
51960.0
21
47800.0
0
LINE
8
BLACK
10
51960.0
20
47800.0
11
51960.0
21
47550.0
0
LINE
8
BLACK
10
51251.0
20
46733.0
11
51701.0
21
46733.0
0
LINE
8
BLACK
10
51701.0
20
46733.0
11
51701.0
21
46983.0
0
LINE
8
BLACK
10
51701.0
20
46983.0
11
51251.0
21
46983.0
0
LINE
8
BLACK
10
51251.0
20
46983.0
11
51251.0
21
46733.0
0
LINE
8
BLACK
10
51251.0
20
47333.0
11
51701.0
21
47333.0
0
LINE
8
BLACK
10
51701.0
20
47333.0
11
51701.0
21
47583.0
0
LINE
8
BLACK
10
51701.0
20
47583.0
11
51251.0
21
47583.0
0
LINE
8
BLACK
10
51251.0
20
47583.0
11
51251.0
21
47333.0
0
LINE
8
BLACK
10
54106.0
20
47878.0
11
54106.0
21
48328.0
0
LINE
8
BLACK
10
54106.0
20
48328.0
11
53856.0
21
48328.0
0
LINE
8
BLACK
10
53856.0
20
48328.0
11
53856.0
21
47878.0
0
LINE
8
BLACK
10
53856.0
20
47878.0
11
54106.0
21
47878.0
0
LINE
8
BLACK
10
53506.0
20
47878.0
11
53506.0
21
48328.0
0
LINE
8
BLACK
10
53506.0
20
48328.0
11
53256.0
21
48328.0
0
LINE
8
BLACK
10
53256.0
20
48328.0
11
53256.0
21
47878.0
0
LINE
8
BLACK
10
53256.0
20
47878.0
11
53506.0
21
47878.0
0
LINE
8
BLACK
10
54106.0
20
47228.0
11
54106.0
21
47678.0
0
LINE
8
BLACK
10
54106.0
20
47678.0
11
53856.0
21
47678.0
0
LINE
8
BLACK
10
53856.0
20
47678.0
11
53856.0
21
47228.0
0
LINE
8
BLACK
10
53856.0
20
47228.0
11
54106.0
21
47228.0
0
LINE
8
BLACK
10
53506.0
20
47228.0
11
53506.0
21
47678.0
0
LINE
8
BLACK
10
53506.0
20
47678.0
11
53256.0
21
47678.0
0
LINE
8
BLACK
10
53256.0
20
47678.0
11
53256.0
21
47228.0
0
LINE
8
BLACK
10
53256.0
20
47228.0
11
53506.0
21
47228.0
0
LINE
8
BLACK
10
54437.0
20
47678.0
11
54437.0
21
47228.0
0
LINE
8
BLACK
10
54437.0
20
47228.0
11
54687.0
21
47228.0
0
LINE
8
BLACK
10
54687.0
20
47228.0
11
54687.0
21
47678.0
0
LINE
8
BLACK
10
54687.0
20
47678.0
11
54437.0
21
47678.0
0
LINE
8
BLACK
10
55037.0
20
47678.0
11
55037.0
21
47228.0
0
LINE
8
BLACK
10
55037.0
20
47228.0
11
55287.0
21
47228.0
0
LINE
8
BLACK
10
55287.0
20
47228.0
11
55287.0
21
47678.0
0
LINE
8
BLACK
10
55287.0
20
47678.0
11
55037.0
21
47678.0
0
LINE
8
BLACK
10
56209.0
20
48052.0
11
56209.0
21
47602.0
0
LINE
8
BLACK
10
56209.0
20
47602.0
11
56459.0
21
47602.0
0
LINE
8
BLACK
10
56459.0
20
47602.0
11
56459.0
21
48052.0
0
LINE
8
BLACK
10
56459.0
20
48052.0
11
56209.0
21
48052.0
0
LINE
8
BLACK
10
56809.0
20
48052.0
11
56809.0
21
47602.0
0
LINE
8
BLACK
10
56809.0
20
47602.0
11
57059.0
21
47602.0
0
LINE
8
BLACK
10
57059.0
20
47602.0
11
57059.0
21
48052.0
0
LINE
8
BLACK
10
57059.0
20
48052.0
11
56809.0
21
48052.0
0
LINE
8
BLACK
10
58434.0
20
47642.0
11
57984.0
21
47642.0
0
LINE
8
BLACK
10
57984.0
20
47642.0
11
57984.0
21
47392.0
0
LINE
8
BLACK
10
57984.0
20
47392.0
11
58434.0
21
47392.0
0
LINE
8
BLACK
10
58434.0
20
47392.0
11
58434.0
21
47642.0
0
LINE
8
BLACK
10
58434.0
20
47042.0
11
57984.0
21
47042.0
0
LINE
8
BLACK
10
57984.0
20
47042.0
11
57984.0
21
46792.0
0
LINE
8
BLACK
10
57984.0
20
46792.0
11
58434.0
21
46792.0
0
LINE
8
BLACK
10
58434.0
20
46792.0
11
58434.0
21
47042.0
0
LINE
8
BLACK
10
56862.0
20
45847.0
11
57312.0
21
45847.0
0
LINE
8
BLACK
10
57312.0
20
45847.0
11
57312.0
21
46097.0
0
LINE
8
BLACK
10
57312.0
20
46097.0
11
56862.0
21
46097.0
0
LINE
8
BLACK
10
56862.0
20
46097.0
11
56862.0
21
45847.0
0
LINE
8
BLACK
10
56862.0
20
46447.0
11
57312.0
21
46447.0
0
LINE
8
BLACK
10
57312.0
20
46447.0
11
57312.0
21
46697.0
0
LINE
8
BLACK
10
57312.0
20
46697.0
11
56862.0
21
46697.0
0
LINE
8
BLACK
10
56862.0
20
46697.0
11
56862.0
21
46447.0
0
LINE
8
BLACK
10
55701.0
20
45811.0
11
55701.0
21
46261.0
0
LINE
8
BLACK
10
55701.0
20
46261.0
11
55451.0
21
46261.0
0
LINE
8
BLACK
10
55451.0
20
46261.0
11
55451.0
21
45811.0
0
LINE
8
BLACK
10
55451.0
20
45811.0
11
55701.0
21
45811.0
0
LINE
8
BLACK
10
55101.0
20
45811.0
11
55101.0
21
46261.0
0
LINE
8
BLACK
10
55101.0
20
46261.0
11
54851.0
21
46261.0
0
LINE
8
BLACK
10
54851.0
20
46261.0
11
54851.0
21
45811.0
0
LINE
8
BLACK
10
54851.0
20
45811.0
11
55101.0
21
45811.0
0
LINE
8
BLACK
10
58740.0
20
47111.0
11
59190.0
21
47111.0
0
LINE
8
BLACK
10
59190.0
20
47111.0
11
59190.0
21
47361.0
0
LINE
8
BLACK
10
59190.0
20
47361.0
11
58740.0
21
47361.0
0
LINE
8
BLACK
10
58740.0
20
47361.0
11
58740.0
21
47111.0
0
LINE
8
BLACK
10
58740.0
20
47711.0
11
59190.0
21
47711.0
0
LINE
8
BLACK
10
59190.0
20
47711.0
11
59190.0
21
47961.0
0
LINE
8
BLACK
10
59190.0
20
47961.0
11
58740.0
21
47961.0
0
LINE
8
BLACK
10
58740.0
20
47961.0
11
58740.0
21
47711.0
0
LINE
8
BLACK
10
62250.0
20
38434.0
11
61800.0
21
38434.0
0
LINE
8
BLACK
10
61800.0
20
38434.0
11
61800.0
21
38184.0
0
LINE
8
BLACK
10
61800.0
20
38184.0
11
62250.0
21
38184.0
0
LINE
8
BLACK
10
62250.0
20
38184.0
11
62250.0
21
38434.0
0
LINE
8
BLACK
10
62250.0
20
37834.0
11
61800.0
21
37834.0
0
LINE
8
BLACK
10
61800.0
20
37834.0
11
61800.0
21
37584.0
0
LINE
8
BLACK
10
61800.0
20
37584.0
11
62250.0
21
37584.0
0
LINE
8
BLACK
10
62250.0
20
37584.0
11
62250.0
21
37834.0
0
LINE
8
BLACK
10
63930.0
20
36265.0
11
63480.0
21
36265.0
0
LINE
8
BLACK
10
63480.0
20
36265.0
11
63480.0
21
36015.0
0
LINE
8
BLACK
10
63480.0
20
36015.0
11
63930.0
21
36015.0
0
LINE
8
BLACK
10
63930.0
20
36015.0
11
63930.0
21
36265.0
0
LINE
8
BLACK
10
63930.0
20
35665.0
11
63480.0
21
35665.0
0
LINE
8
BLACK
10
63480.0
20
35665.0
11
63480.0
21
35415.0
0
LINE
8
BLACK
10
63480.0
20
35415.0
11
63930.0
21
35415.0
0
LINE
8
BLACK
10
63930.0
20
35415.0
11
63930.0
21
35665.0
0
LINE
8
BLACK
10
61800.0
20
38552.0
11
62250.0
21
38552.0
0
LINE
8
BLACK
10
62250.0
20
38552.0
11
62250.0
21
38802.0
0
LINE
8
BLACK
10
62250.0
20
38802.0
11
61800.0
21
38802.0
0
LINE
8
BLACK
10
61800.0
20
38802.0
11
61800.0
21
38552.0
0
LINE
8
BLACK
10
61800.0
20
39152.0
11
62250.0
21
39152.0
0
LINE
8
BLACK
10
62250.0
20
39152.0
11
62250.0
21
39402.0
0
LINE
8
BLACK
10
62250.0
20
39402.0
11
61800.0
21
39402.0
0
LINE
8
BLACK
10
61800.0
20
39402.0
11
61800.0
21
39152.0
0
LINE
8
BLACK
10
63732.0
20
41635.0
11
64182.0
21
41635.0
0
LINE
8
BLACK
10
64182.0
20
41635.0
11
64182.0
21
41885.0
0
LINE
8
BLACK
10
64182.0
20
41885.0
11
63732.0
21
41885.0
0
LINE
8
BLACK
10
63732.0
20
41885.0
11
63732.0
21
41635.0
0
LINE
8
BLACK
10
63732.0
20
42235.0
11
64182.0
21
42235.0
0
LINE
8
BLACK
10
64182.0
20
42235.0
11
64182.0
21
42485.0
0
LINE
8
BLACK
10
64182.0
20
42485.0
11
63732.0
21
42485.0
0
LINE
8
BLACK
10
63732.0
20
42485.0
11
63732.0
21
42235.0
0
LINE
8
BLACK
10
63929.0
20
37378.0
11
63479.0
21
37378.0
0
LINE
8
BLACK
10
63479.0
20
37378.0
11
63479.0
21
37128.0
0
LINE
8
BLACK
10
63479.0
20
37128.0
11
63929.0
21
37128.0
0
LINE
8
BLACK
10
63929.0
20
37128.0
11
63929.0
21
37378.0
0
LINE
8
BLACK
10
63929.0
20
36778.0
11
63479.0
21
36778.0
0
LINE
8
BLACK
10
63479.0
20
36778.0
11
63479.0
21
36528.0
0
LINE
8
BLACK
10
63479.0
20
36528.0
11
63929.0
21
36528.0
0
LINE
8
BLACK
10
63929.0
20
36528.0
11
63929.0
21
36778.0
0
LINE
8
BLACK
10
55535.0
20
33728.0
11
55535.0
21
34178.0
0
LINE
8
BLACK
10
55535.0
20
34178.0
11
55285.0
21
34178.0
0
LINE
8
BLACK
10
55285.0
20
34178.0
11
55285.0
21
33728.0
0
LINE
8
BLACK
10
55285.0
20
33728.0
11
55535.0
21
33728.0
0
LINE
8
BLACK
10
54935.0
20
33728.0
11
54935.0
21
34178.0
0
LINE
8
BLACK
10
54935.0
20
34178.0
11
54685.0
21
34178.0
0
LINE
8
BLACK
10
54685.0
20
34178.0
11
54685.0
21
33728.0
0
LINE
8
BLACK
10
54685.0
20
33728.0
11
54935.0
21
33728.0
0
LINE
8
BLACK
10
55535.0
20
34299.0
11
55535.0
21
34749.0
0
LINE
8
BLACK
10
55535.0
20
34749.0
11
55285.0
21
34749.0
0
LINE
8
BLACK
10
55285.0
20
34749.0
11
55285.0
21
34299.0
0
LINE
8
BLACK
10
55285.0
20
34299.0
11
55535.0
21
34299.0
0
LINE
8
BLACK
10
54935.0
20
34299.0
11
54935.0
21
34749.0
0
LINE
8
BLACK
10
54935.0
20
34749.0
11
54685.0
21
34749.0
0
LINE
8
BLACK
10
54685.0
20
34749.0
11
54685.0
21
34299.0
0
LINE
8
BLACK
10
54685.0
20
34299.0
11
54935.0
21
34299.0
0
LINE
8
BLACK
10
55535.0
20
34874.0
11
55535.0
21
35324.0
0
LINE
8
BLACK
10
55535.0
20
35324.0
11
55285.0
21
35324.0
0
LINE
8
BLACK
10
55285.0
20
35324.0
11
55285.0
21
34874.0
0
LINE
8
BLACK
10
55285.0
20
34874.0
11
55535.0
21
34874.0
0
LINE
8
BLACK
10
54935.0
20
34874.0
11
54935.0
21
35324.0
0
LINE
8
BLACK
10
54935.0
20
35324.0
11
54685.0
21
35324.0
0
LINE
8
BLACK
10
54685.0
20
35324.0
11
54685.0
21
34874.0
0
LINE
8
BLACK
10
54685.0
20
34874.0
11
54935.0
21
34874.0
0
LINE
8
BLACK
10
52634.0
20
37245.0
11
52184.0
21
37245.0
0
LINE
8
BLACK
10
52184.0
20
37245.0
11
52184.0
21
36995.0
0
LINE
8
BLACK
10
52184.0
20
36995.0
11
52634.0
21
36995.0
0
LINE
8
BLACK
10
52634.0
20
36995.0
11
52634.0
21
37245.0
0
LINE
8
BLACK
10
52634.0
20
36645.0
11
52184.0
21
36645.0
0
LINE
8
BLACK
10
52184.0
20
36645.0
11
52184.0
21
36395.0
0
LINE
8
BLACK
10
52184.0
20
36395.0
11
52634.0
21
36395.0
0
LINE
8
BLACK
10
52634.0
20
36395.0
11
52634.0
21
36645.0
0
LINE
8
BLACK
10
51488.0
20
36390.0
11
51488.0
21
36840.0
0
LINE
8
BLACK
10
51488.0
20
36840.0
11
51238.0
21
36840.0
0
LINE
8
BLACK
10
51238.0
20
36840.0
11
51238.0
21
36390.0
0
LINE
8
BLACK
10
51238.0
20
36390.0
11
51488.0
21
36390.0
0
LINE
8
BLACK
10
50888.0
20
36390.0
11
50888.0
21
36840.0
0
LINE
8
BLACK
10
50888.0
20
36840.0
11
50638.0
21
36840.0
0
LINE
8
BLACK
10
50638.0
20
36840.0
11
50638.0
21
36390.0
0
LINE
8
BLACK
10
50638.0
20
36390.0
11
50888.0
21
36390.0
0
LINE
8
BLACK
10
51610.0
20
36395.0
11
52060.0
21
36395.0
0
LINE
8
BLACK
10
52060.0
20
36395.0
11
52060.0
21
36645.0
0
LINE
8
BLACK
10
52060.0
20
36645.0
11
51610.0
21
36645.0
0
LINE
8
BLACK
10
51610.0
20
36645.0
11
51610.0
21
36395.0
0
LINE
8
BLACK
10
51610.0
20
36995.0
11
52060.0
21
36995.0
0
LINE
8
BLACK
10
52060.0
20
36995.0
11
52060.0
21
37245.0
0
LINE
8
BLACK
10
52060.0
20
37245.0
11
51610.0
21
37245.0
0
LINE
8
BLACK
10
51610.0
20
37245.0
11
51610.0
21
36995.0
0
LINE
8
BLACK
10
54390.0
20
36886.0
11
53940.0
21
36886.0
0
LINE
8
BLACK
10
53940.0
20
36886.0
11
53940.0
21
36636.0
0
LINE
8
BLACK
10
53940.0
20
36636.0
11
54390.0
21
36636.0
0
LINE
8
BLACK
10
54390.0
20
36636.0
11
54390.0
21
36886.0
0
LINE
8
BLACK
10
54390.0
20
36286.0
11
53940.0
21
36286.0
0
LINE
8
BLACK
10
53940.0
20
36286.0
11
53940.0
21
36036.0
0
LINE
8
BLACK
10
53940.0
20
36036.0
11
54390.0
21
36036.0
0
LINE
8
BLACK
10
54390.0
20
36036.0
11
54390.0
21
36286.0
0
LINE
8
BLACK
10
55965.0
20
38170.0
11
55515.0
21
38170.0
0
LINE
8
BLACK
10
55515.0
20
38170.0
11
55515.0
21
37920.0
0
LINE
8
BLACK
10
55515.0
20
37920.0
11
55965.0
21
37920.0
0
LINE
8
BLACK
10
55965.0
20
37920.0
11
55965.0
21
38170.0
0
LINE
8
BLACK
10
55965.0
20
37570.0
11
55515.0
21
37570.0
0
LINE
8
BLACK
10
55515.0
20
37570.0
11
55515.0
21
37320.0
0
LINE
8
BLACK
10
55515.0
20
37320.0
11
55965.0
21
37320.0
0
LINE
8
BLACK
10
55965.0
20
37320.0
11
55965.0
21
37570.0
0
LINE
8
BLACK
10
63929.0
20
38343.0
11
63479.0
21
38343.0
0
LINE
8
BLACK
10
63479.0
20
38343.0
11
63479.0
21
38093.0
0
LINE
8
BLACK
10
63479.0
20
38093.0
11
63929.0
21
38093.0
0
LINE
8
BLACK
10
63929.0
20
38093.0
11
63929.0
21
38343.0
0
LINE
8
BLACK
10
63929.0
20
37743.0
11
63479.0
21
37743.0
0
LINE
8
BLACK
10
63479.0
20
37743.0
11
63479.0
21
37493.0
0
LINE
8
BLACK
10
63479.0
20
37493.0
11
63929.0
21
37493.0
0
LINE
8
BLACK
10
63929.0
20
37493.0
11
63929.0
21
37743.0
0
LINE
8
BLACK
10
58351.0
20
39631.0
11
58351.0
21
39181.0
0
LINE
8
BLACK
10
58351.0
20
39181.0
11
58601.0
21
39181.0
0
LINE
8
BLACK
10
58601.0
20
39181.0
11
58601.0
21
39631.0
0
LINE
8
BLACK
10
58601.0
20
39631.0
11
58351.0
21
39631.0
0
LINE
8
BLACK
10
58951.0
20
39631.0
11
58951.0
21
39181.0
0
LINE
8
BLACK
10
58951.0
20
39181.0
11
59201.0
21
39181.0
0
LINE
8
BLACK
10
59201.0
20
39181.0
11
59201.0
21
39631.0
0
LINE
8
BLACK
10
59201.0
20
39631.0
11
58951.0
21
39631.0
0
LINE
8
BLACK
10
63484.0
20
34447.0
11
63934.0
21
34447.0
0
LINE
8
BLACK
10
63934.0
20
34447.0
11
63934.0
21
34697.0
0
LINE
8
BLACK
10
63934.0
20
34697.0
11
63484.0
21
34697.0
0
LINE
8
BLACK
10
63484.0
20
34697.0
11
63484.0
21
34447.0
0
LINE
8
BLACK
10
63484.0
20
35047.0
11
63934.0
21
35047.0
0
LINE
8
BLACK
10
63934.0
20
35047.0
11
63934.0
21
35297.0
0
LINE
8
BLACK
10
63934.0
20
35297.0
11
63484.0
21
35297.0
0
LINE
8
BLACK
10
63484.0
20
35297.0
11
63484.0
21
35047.0
0
LINE
8
BLACK
10
61390.0
20
38823.0
11
61390.0
21
39273.0
0
LINE
8
BLACK
10
61390.0
20
39273.0
11
61140.0
21
39273.0
0
LINE
8
BLACK
10
61140.0
20
39273.0
11
61140.0
21
38823.0
0
LINE
8
BLACK
10
61140.0
20
38823.0
11
61390.0
21
38823.0
0
LINE
8
BLACK
10
60790.0
20
38823.0
11
60790.0
21
39273.0
0
LINE
8
BLACK
10
60790.0
20
39273.0
11
60540.0
21
39273.0
0
LINE
8
BLACK
10
60540.0
20
39273.0
11
60540.0
21
38823.0
0
LINE
8
BLACK
10
60540.0
20
38823.0
11
60790.0
21
38823.0
0
LINE
8
BLACK
10
59772.0
20
34263.0
11
60272.0
21
34263.0
0
LINE
8
BLACK
10
60272.0
20
34263.0
11
60272.0
21
34423.0
0
LINE
8
BLACK
10
60272.0
20
34423.0
11
59772.0
21
34423.0
0
LINE
8
BLACK
10
59772.0
20
34423.0
11
59772.0
21
34263.0
0
LINE
8
BLACK
10
59772.0
20
34513.0
11
60272.0
21
34513.0
0
LINE
8
BLACK
10
60272.0
20
34513.0
11
60272.0
21
34673.0
0
LINE
8
BLACK
10
60272.0
20
34673.0
11
59772.0
21
34673.0
0
LINE
8
BLACK
10
59772.0
20
34673.0
11
59772.0
21
34513.0
0
LINE
8
BLACK
10
59772.0
20
34773.0
11
60272.0
21
34773.0
0
LINE
8
BLACK
10
60272.0
20
34773.0
11
60272.0
21
34933.0
0
LINE
8
BLACK
10
60272.0
20
34933.0
11
59772.0
21
34933.0
0
LINE
8
BLACK
10
59772.0
20
34933.0
11
59772.0
21
34773.0
0
LINE
8
BLACK
10
59772.0
20
35033.0
11
60272.0
21
35033.0
0
LINE
8
BLACK
10
60272.0
20
35033.0
11
60272.0
21
35193.0
0
LINE
8
BLACK
10
60272.0
20
35193.0
11
59772.0
21
35193.0
0
LINE
8
BLACK
10
59772.0
20
35193.0
11
59772.0
21
35033.0
0
LINE
8
BLACK
10
59772.0
20
35283.0
11
60272.0
21
35283.0
0
LINE
8
BLACK
10
60272.0
20
35283.0
11
60272.0
21
35443.0
0
LINE
8
BLACK
10
60272.0
20
35443.0
11
59772.0
21
35443.0
0
LINE
8
BLACK
10
59772.0
20
35443.0
11
59772.0
21
35283.0
0
LINE
8
BLACK
10
59772.0
20
35543.0
11
60272.0
21
35543.0
0
LINE
8
BLACK
10
60272.0
20
35543.0
11
60272.0
21
35703.0
0
LINE
8
BLACK
10
60272.0
20
35703.0
11
59772.0
21
35703.0
0
LINE
8
BLACK
10
59772.0
20
35703.0
11
59772.0
21
35543.0
0
LINE
8
BLACK
10
59772.0
20
35803.0
11
60272.0
21
35803.0
0
LINE
8
BLACK
10
60272.0
20
35803.0
11
60272.0
21
35963.0
0
LINE
8
BLACK
10
60272.0
20
35963.0
11
59772.0
21
35963.0
0
LINE
8
BLACK
10
59772.0
20
35963.0
11
59772.0
21
35803.0
0
LINE
8
BLACK
10
59772.0
20
36053.0
11
60272.0
21
36053.0
0
LINE
8
BLACK
10
60272.0
20
36053.0
11
60272.0
21
36213.0
0
LINE
8
BLACK
10
60272.0
20
36213.0
11
59772.0
21
36213.0
0
LINE
8
BLACK
10
59772.0
20
36213.0
11
59772.0
21
36053.0
0
LINE
8
BLACK
10
59772.0
20
36313.0
11
60272.0
21
36313.0
0
LINE
8
BLACK
10
60272.0
20
36313.0
11
60272.0
21
36473.0
0
LINE
8
BLACK
10
60272.0
20
36473.0
11
59772.0
21
36473.0
0
LINE
8
BLACK
10
59772.0
20
36473.0
11
59772.0
21
36313.0
0
LINE
8
BLACK
10
59772.0
20
36563.0
11
60272.0
21
36563.0
0
LINE
8
BLACK
10
60272.0
20
36563.0
11
60272.0
21
36723.0
0
LINE
8
BLACK
10
60272.0
20
36723.0
11
59772.0
21
36723.0
0
LINE
8
BLACK
10
59772.0
20
36723.0
11
59772.0
21
36563.0
0
LINE
8
BLACK
10
59772.0
20
36823.0
11
60272.0
21
36823.0
0
LINE
8
BLACK
10
60272.0
20
36823.0
11
60272.0
21
36983.0
0
LINE
8
BLACK
10
60272.0
20
36983.0
11
59772.0
21
36983.0
0
LINE
8
BLACK
10
59772.0
20
36983.0
11
59772.0
21
36823.0
0
LINE
8
BLACK
10
59772.0
20
37083.0
11
60272.0
21
37083.0
0
LINE
8
BLACK
10
60272.0
20
37083.0
11
60272.0
21
37243.0
0
LINE
8
BLACK
10
60272.0
20
37243.0
11
59772.0
21
37243.0
0
LINE
8
BLACK
10
59772.0
20
37243.0
11
59772.0
21
37083.0
0
LINE
8
BLACK
10
59772.0
20
37333.0
11
60272.0
21
37333.0
0
LINE
8
BLACK
10
60272.0
20
37333.0
11
60272.0
21
37493.0
0
LINE
8
BLACK
10
60272.0
20
37493.0
11
59772.0
21
37493.0
0
LINE
8
BLACK
10
59772.0
20
37493.0
11
59772.0
21
37333.0
0
LINE
8
BLACK
10
59772.0
20
37593.0
11
60272.0
21
37593.0
0
LINE
8
BLACK
10
60272.0
20
37593.0
11
60272.0
21
37753.0
0
LINE
8
BLACK
10
60272.0
20
37753.0
11
59772.0
21
37753.0
0
LINE
8
BLACK
10
59772.0
20
37753.0
11
59772.0
21
37593.0
0
LINE
8
BLACK
10
56972.0
20
37593.0
11
57472.0
21
37593.0
0
LINE
8
BLACK
10
57472.0
20
37593.0
11
57472.0
21
37753.0
0
LINE
8
BLACK
10
57472.0
20
37753.0
11
56972.0
21
37753.0
0
LINE
8
BLACK
10
56972.0
20
37753.0
11
56972.0
21
37593.0
0
LINE
8
BLACK
10
56972.0
20
37333.0
11
57472.0
21
37333.0
0
LINE
8
BLACK
10
57472.0
20
37333.0
11
57472.0
21
37493.0
0
LINE
8
BLACK
10
57472.0
20
37493.0
11
56972.0
21
37493.0
0
LINE
8
BLACK
10
56972.0
20
37493.0
11
56972.0
21
37333.0
0
LINE
8
BLACK
10
56972.0
20
37093.0
11
57472.0
21
37093.0
0
LINE
8
BLACK
10
57472.0
20
37093.0
11
57472.0
21
37253.0
0
LINE
8
BLACK
10
57472.0
20
37253.0
11
56972.0
21
37253.0
0
LINE
8
BLACK
10
56972.0
20
37253.0
11
56972.0
21
37093.0
0
LINE
8
BLACK
10
56972.0
20
36823.0
11
57472.0
21
36823.0
0
LINE
8
BLACK
10
57472.0
20
36823.0
11
57472.0
21
36983.0
0
LINE
8
BLACK
10
57472.0
20
36983.0
11
56972.0
21
36983.0
0
LINE
8
BLACK
10
56972.0
20
36983.0
11
56972.0
21
36823.0
0
LINE
8
BLACK
10
56972.0
20
36563.0
11
57472.0
21
36563.0
0
LINE
8
BLACK
10
57472.0
20
36563.0
11
57472.0
21
36723.0
0
LINE
8
BLACK
10
57472.0
20
36723.0
11
56972.0
21
36723.0
0
LINE
8
BLACK
10
56972.0
20
36723.0
11
56972.0
21
36563.0
0
LINE
8
BLACK
10
56972.0
20
36313.0
11
57472.0
21
36313.0
0
LINE
8
BLACK
10
57472.0
20
36313.0
11
57472.0
21
36473.0
0
LINE
8
BLACK
10
57472.0
20
36473.0
11
56972.0
21
36473.0
0
LINE
8
BLACK
10
56972.0
20
36473.0
11
56972.0
21
36313.0
0
LINE
8
BLACK
10
56972.0
20
36053.0
11
57472.0
21
36053.0
0
LINE
8
BLACK
10
57472.0
20
36053.0
11
57472.0
21
36213.0
0
LINE
8
BLACK
10
57472.0
20
36213.0
11
56972.0
21
36213.0
0
LINE
8
BLACK
10
56972.0
20
36213.0
11
56972.0
21
36053.0
0
LINE
8
BLACK
10
56972.0
20
35803.0
11
57472.0
21
35803.0
0
LINE
8
BLACK
10
57472.0
20
35803.0
11
57472.0
21
35963.0
0
LINE
8
BLACK
10
57472.0
20
35963.0
11
56972.0
21
35963.0
0
LINE
8
BLACK
10
56972.0
20
35963.0
11
56972.0
21
35803.0
0
LINE
8
BLACK
10
56972.0
20
35543.0
11
57472.0
21
35543.0
0
LINE
8
BLACK
10
57472.0
20
35543.0
11
57472.0
21
35703.0
0
LINE
8
BLACK
10
57472.0
20
35703.0
11
56972.0
21
35703.0
0
LINE
8
BLACK
10
56972.0
20
35703.0
11
56972.0
21
35543.0
0
LINE
8
BLACK
10
56972.0
20
35283.0
11
57472.0
21
35283.0
0
LINE
8
BLACK
10
57472.0
20
35283.0
11
57472.0
21
35443.0
0
LINE
8
BLACK
10
57472.0
20
35443.0
11
56972.0
21
35443.0
0
LINE
8
BLACK
10
56972.0
20
35443.0
11
56972.0
21
35283.0
0
LINE
8
BLACK
10
56972.0
20
35033.0
11
57472.0
21
35033.0
0
LINE
8
BLACK
10
57472.0
20
35033.0
11
57472.0
21
35193.0
0
LINE
8
BLACK
10
57472.0
20
35193.0
11
56972.0
21
35193.0
0
LINE
8
BLACK
10
56972.0
20
35193.0
11
56972.0
21
35033.0
0
LINE
8
BLACK
10
56972.0
20
34773.0
11
57472.0
21
34773.0
0
LINE
8
BLACK
10
57472.0
20
34773.0
11
57472.0
21
34933.0
0
LINE
8
BLACK
10
57472.0
20
34933.0
11
56972.0
21
34933.0
0
LINE
8
BLACK
10
56972.0
20
34933.0
11
56972.0
21
34773.0
0
LINE
8
BLACK
10
56972.0
20
34513.0
11
57472.0
21
34513.0
0
LINE
8
BLACK
10
57472.0
20
34513.0
11
57472.0
21
34673.0
0
LINE
8
BLACK
10
57472.0
20
34673.0
11
56972.0
21
34673.0
0
LINE
8
BLACK
10
56972.0
20
34673.0
11
56972.0
21
34513.0
0
LINE
8
BLACK
10
56972.0
20
34263.0
11
57472.0
21
34263.0
0
LINE
8
BLACK
10
57472.0
20
34263.0
11
57472.0
21
34423.0
0
LINE
8
BLACK
10
57472.0
20
34423.0
11
56972.0
21
34423.0
0
LINE
8
BLACK
10
56972.0
20
34423.0
11
56972.0
21
34263.0
0
LINE
8
BLACK
10
60468.0
20
33761.0
11
60918.0
21
33761.0
0
LINE
8
BLACK
10
60918.0
20
33761.0
11
60918.0
21
34011.0
0
LINE
8
BLACK
10
60918.0
20
34011.0
11
60468.0
21
34011.0
0
LINE
8
BLACK
10
60468.0
20
34011.0
11
60468.0
21
33761.0
0
LINE
8
BLACK
10
60468.0
20
34361.0
11
60918.0
21
34361.0
0
LINE
8
BLACK
10
60918.0
20
34361.0
11
60918.0
21
34611.0
0
LINE
8
BLACK
10
60918.0
20
34611.0
11
60468.0
21
34611.0
0
LINE
8
BLACK
10
60468.0
20
34611.0
11
60468.0
21
34361.0
0
LINE
8
BLACK
10
60472.0
20
36115.0
11
60922.0
21
36115.0
0
LINE
8
BLACK
10
60922.0
20
36115.0
11
60922.0
21
36365.0
0
LINE
8
BLACK
10
60922.0
20
36365.0
11
60472.0
21
36365.0
0
LINE
8
BLACK
10
60472.0
20
36365.0
11
60472.0
21
36115.0
0
LINE
8
BLACK
10
60472.0
20
36715.0
11
60922.0
21
36715.0
0
LINE
8
BLACK
10
60922.0
20
36715.0
11
60922.0
21
36965.0
0
LINE
8
BLACK
10
60922.0
20
36965.0
11
60472.0
21
36965.0
0
LINE
8
BLACK
10
60472.0
20
36965.0
11
60472.0
21
36715.0
0
LINE
8
BLACK
10
60922.0
20
35815.0
11
60472.0
21
35815.0
0
LINE
8
BLACK
10
60472.0
20
35815.0
11
60472.0
21
35565.0
0
LINE
8
BLACK
10
60472.0
20
35565.0
11
60922.0
21
35565.0
0
LINE
8
BLACK
10
60922.0
20
35565.0
11
60922.0
21
35815.0
0
LINE
8
BLACK
10
60922.0
20
35215.0
11
60472.0
21
35215.0
0
LINE
8
BLACK
10
60472.0
20
35215.0
11
60472.0
21
34965.0
0
LINE
8
BLACK
10
60472.0
20
34965.0
11
60922.0
21
34965.0
0
LINE
8
BLACK
10
60922.0
20
34965.0
11
60922.0
21
35215.0
0
LINE
8
BLACK
10
64772.0
20
29194.0
11
65222.0
21
29194.0
0
LINE
8
BLACK
10
65222.0
20
29194.0
11
65222.0
21
29444.0
0
LINE
8
BLACK
10
65222.0
20
29444.0
11
64772.0
21
29444.0
0
LINE
8
BLACK
10
64772.0
20
29444.0
11
64772.0
21
29194.0
0
LINE
8
BLACK
10
64772.0
20
29794.0
11
65222.0
21
29794.0
0
LINE
8
BLACK
10
65222.0
20
29794.0
11
65222.0
21
30044.0
0
LINE
8
BLACK
10
65222.0
20
30044.0
11
64772.0
21
30044.0
0
LINE
8
BLACK
10
64772.0
20
30044.0
11
64772.0
21
29794.0
0
LINE
8
BLACK
10
60505.0
20
37620.0
11
60505.0
21
37384.0
0
LINE
8
BLACK
10
60505.0
20
37384.0
11
60701.0
21
37384.0
0
LINE
8
BLACK
10
60701.0
20
37384.0
11
60701.0
21
37620.0
0
LINE
8
BLACK
10
60701.0
20
37620.0
11
60505.0
21
37620.0
0
LINE
8
BLACK
10
60897.0
20
37620.0
11
60897.0
21
37384.0
0
LINE
8
BLACK
10
60897.0
20
37384.0
11
61093.0
21
37384.0
0
LINE
8
BLACK
10
61093.0
20
37384.0
11
61093.0
21
37620.0
0
LINE
8
BLACK
10
61093.0
20
37620.0
11
60897.0
21
37620.0
0
LINE
8
BLACK
10
60701.0
20
38130.0
11
60701.0
21
37894.0
0
LINE
8
BLACK
10
60701.0
20
37894.0
11
60897.0
21
37894.0
0
LINE
8
BLACK
10
60897.0
20
37894.0
11
60897.0
21
38130.0
0
LINE
8
BLACK
10
60897.0
20
38130.0
11
60701.0
21
38130.0
0
LINE
8
BLACK
10
53683.0
20
36626.0
11
53683.0
21
36940.0
0
LINE
8
BLACK
10
53683.0
20
36940.0
11
53527.0
21
36940.0
0
LINE
8
BLACK
10
53527.0
20
36940.0
11
53527.0
21
36626.0
0
LINE
8
BLACK
10
53527.0
20
36626.0
11
53683.0
21
36626.0
0
LINE
8
BLACK
10
53428.0
20
36626.0
11
53428.0
21
36940.0
0
LINE
8
BLACK
10
53428.0
20
36940.0
11
53272.0
21
36940.0
0
LINE
8
BLACK
10
53272.0
20
36940.0
11
53272.0
21
36626.0
0
LINE
8
BLACK
10
53272.0
20
36626.0
11
53428.0
21
36626.0
0
LINE
8
BLACK
10
53173.0
20
36626.0
11
53173.0
21
36940.0
0
LINE
8
BLACK
10
53173.0
20
36940.0
11
53017.0
21
36940.0
0
LINE
8
BLACK
10
53017.0
20
36940.0
11
53017.0
21
36626.0
0
LINE
8
BLACK
10
53017.0
20
36626.0
11
53173.0
21
36626.0
0
LINE
8
BLACK
10
53173.0
20
35998.0
11
53173.0
21
36312.0
0
LINE
8
BLACK
10
53173.0
20
36312.0
11
53017.0
21
36312.0
0
LINE
8
BLACK
10
53017.0
20
36312.0
11
53017.0
21
35998.0
0
LINE
8
BLACK
10
53017.0
20
35998.0
11
53173.0
21
35998.0
0
LINE
8
BLACK
10
53428.0
20
35998.0
11
53428.0
21
36312.0
0
LINE
8
BLACK
10
53428.0
20
36312.0
11
53272.0
21
36312.0
0
LINE
8
BLACK
10
53272.0
20
36312.0
11
53272.0
21
35998.0
0
LINE
8
BLACK
10
53272.0
20
35998.0
11
53428.0
21
35998.0
0
LINE
8
BLACK
10
53683.0
20
35998.0
11
53683.0
21
36312.0
0
LINE
8
BLACK
10
53683.0
20
36312.0
11
53527.0
21
36312.0
0
LINE
8
BLACK
10
53527.0
20
36312.0
11
53527.0
21
35998.0
0
LINE
8
BLACK
10
53527.0
20
35998.0
11
53683.0
21
35998.0
0
LINE
8
BLACK
10
57344.0
20
32780.0
11
57482.0
21
32780.0
0
LINE
8
BLACK
10
57482.0
20
32780.0
11
57482.0
21
33134.0
0
LINE
8
BLACK
10
57482.0
20
33134.0
11
57344.0
21
33134.0
0
LINE
8
BLACK
10
57344.0
20
33134.0
11
57344.0
21
32780.0
0
LINE
8
BLACK
10
57344.0
20
33449.0
11
57482.0
21
33449.0
0
LINE
8
BLACK
10
57482.0
20
33449.0
11
57482.0
21
33803.0
0
LINE
8
BLACK
10
57482.0
20
33803.0
11
57344.0
21
33803.0
0
LINE
8
BLACK
10
57344.0
20
33803.0
11
57344.0
21
33449.0
0
LINE
8
BLACK
10
57679.0
20
33449.0
11
57817.0
21
33449.0
0
LINE
8
BLACK
10
57817.0
20
33449.0
11
57817.0
21
33803.0
0
LINE
8
BLACK
10
57817.0
20
33803.0
11
57679.0
21
33803.0
0
LINE
8
BLACK
10
57679.0
20
33803.0
11
57679.0
21
33449.0
0
LINE
8
BLACK
10
57679.0
20
32780.0
11
57817.0
21
32780.0
0
LINE
8
BLACK
10
57817.0
20
32780.0
11
57817.0
21
33134.0
0
LINE
8
BLACK
10
57817.0
20
33134.0
11
57679.0
21
33134.0
0
LINE
8
BLACK
10
57679.0
20
33134.0
11
57679.0
21
32780.0
0
LINE
8
BLACK
10
59403.0
20
32780.0
11
59541.0
21
32780.0
0
LINE
8
BLACK
10
59541.0
20
32780.0
11
59541.0
21
33134.0
0
LINE
8
BLACK
10
59541.0
20
33134.0
11
59403.0
21
33134.0
0
LINE
8
BLACK
10
59403.0
20
33134.0
11
59403.0
21
32780.0
0
LINE
8
BLACK
10
59403.0
20
33449.0
11
59541.0
21
33449.0
0
LINE
8
BLACK
10
59541.0
20
33449.0
11
59541.0
21
33803.0
0
LINE
8
BLACK
10
59541.0
20
33803.0
11
59403.0
21
33803.0
0
LINE
8
BLACK
10
59403.0
20
33803.0
11
59403.0
21
33449.0
0
LINE
8
BLACK
10
59738.0
20
33449.0
11
59876.0
21
33449.0
0
LINE
8
BLACK
10
59876.0
20
33449.0
11
59876.0
21
33803.0
0
LINE
8
BLACK
10
59876.0
20
33803.0
11
59738.0
21
33803.0
0
LINE
8
BLACK
10
59738.0
20
33803.0
11
59738.0
21
33449.0
0
LINE
8
BLACK
10
59738.0
20
32780.0
11
59876.0
21
32780.0
0
LINE
8
BLACK
10
59876.0
20
32780.0
11
59876.0
21
33134.0
0
LINE
8
BLACK
10
59876.0
20
33134.0
11
59738.0
21
33134.0
0
LINE
8
BLACK
10
59738.0
20
33134.0
11
59738.0
21
32780.0
0
LINE
8
BLACK
10
58695.0
20
32773.0
11
58833.0
21
32773.0
0
LINE
8
BLACK
10
58833.0
20
32773.0
11
58833.0
21
33127.0
0
LINE
8
BLACK
10
58833.0
20
33127.0
11
58695.0
21
33127.0
0
LINE
8
BLACK
10
58695.0
20
33127.0
11
58695.0
21
32773.0
0
LINE
8
BLACK
10
58695.0
20
33442.0
11
58833.0
21
33442.0
0
LINE
8
BLACK
10
58833.0
20
33442.0
11
58833.0
21
33796.0
0
LINE
8
BLACK
10
58833.0
20
33796.0
11
58695.0
21
33796.0
0
LINE
8
BLACK
10
58695.0
20
33796.0
11
58695.0
21
33442.0
0
LINE
8
BLACK
10
59030.0
20
33442.0
11
59168.0
21
33442.0
0
LINE
8
BLACK
10
59168.0
20
33442.0
11
59168.0
21
33796.0
0
LINE
8
BLACK
10
59168.0
20
33796.0
11
59030.0
21
33796.0
0
LINE
8
BLACK
10
59030.0
20
33796.0
11
59030.0
21
33442.0
0
LINE
8
BLACK
10
59030.0
20
32773.0
11
59168.0
21
32773.0
0
LINE
8
BLACK
10
59168.0
20
32773.0
11
59168.0
21
33127.0
0
LINE
8
BLACK
10
59168.0
20
33127.0
11
59030.0
21
33127.0
0
LINE
8
BLACK
10
59030.0
20
33127.0
11
59030.0
21
32773.0
0
LINE
8
BLACK
10
58014.0
20
32780.0
11
58152.0
21
32780.0
0
LINE
8
BLACK
10
58152.0
20
32780.0
11
58152.0
21
33134.0
0
LINE
8
BLACK
10
58152.0
20
33134.0
11
58014.0
21
33134.0
0
LINE
8
BLACK
10
58014.0
20
33134.0
11
58014.0
21
32780.0
0
LINE
8
BLACK
10
58014.0
20
33449.0
11
58152.0
21
33449.0
0
LINE
8
BLACK
10
58152.0
20
33449.0
11
58152.0
21
33803.0
0
LINE
8
BLACK
10
58152.0
20
33803.0
11
58014.0
21
33803.0
0
LINE
8
BLACK
10
58014.0
20
33803.0
11
58014.0
21
33449.0
0
LINE
8
BLACK
10
58349.0
20
33449.0
11
58487.0
21
33449.0
0
LINE
8
BLACK
10
58487.0
20
33449.0
11
58487.0
21
33803.0
0
LINE
8
BLACK
10
58487.0
20
33803.0
11
58349.0
21
33803.0
0
LINE
8
BLACK
10
58349.0
20
33803.0
11
58349.0
21
33449.0
0
LINE
8
BLACK
10
58349.0
20
32780.0
11
58487.0
21
32780.0
0
LINE
8
BLACK
10
58487.0
20
32780.0
11
58487.0
21
33134.0
0
LINE
8
BLACK
10
58487.0
20
33134.0
11
58349.0
21
33134.0
0
LINE
8
BLACK
10
58349.0
20
33134.0
11
58349.0
21
32780.0
0
LINE
8
BLACK
10
56015.0
20
36572.0
11
56015.0
21
37044.0
0
LINE
8
BLACK
10
56015.0
20
37044.0
11
55465.0
21
37044.0
0
LINE
8
BLACK
10
55465.0
20
37044.0
11
55465.0
21
36572.0
0
LINE
8
BLACK
10
55465.0
20
36572.0
11
56015.0
21
36572.0
0
LINE
8
BLACK
10
55149.0
20
36572.0
11
55149.0
21
37044.0
0
LINE
8
BLACK
10
55149.0
20
37044.0
11
54599.0
21
37044.0
0
LINE
8
BLACK
10
54599.0
20
37044.0
11
54599.0
21
36572.0
0
LINE
8
BLACK
10
54599.0
20
36572.0
11
55149.0
21
36572.0
0
LINE
8
BLACK
10
55149.0
20
35903.0
11
55149.0
21
36375.0
0
LINE
8
BLACK
10
55149.0
20
36375.0
11
54599.0
21
36375.0
0
LINE
8
BLACK
10
54599.0
20
36375.0
11
54599.0
21
35903.0
0
LINE
8
BLACK
10
54599.0
20
35903.0
11
55149.0
21
35903.0
0
LINE
8
BLACK
10
56015.0
20
35903.0
11
56015.0
21
36375.0
0
LINE
8
BLACK
10
56015.0
20
36375.0
11
55465.0
21
36375.0
0
LINE
8
BLACK
10
55465.0
20
36375.0
11
55465.0
21
35903.0
0
LINE
8
BLACK
10
55465.0
20
35903.0
11
56015.0
21
35903.0
0
LINE
8
BLACK
10
49258.0
20
33646.0
11
49258.0
21
33332.0
0
LINE
8
BLACK
10
49258.0
20
33332.0
11
49572.0
21
33332.0
0
LINE
8
BLACK
10
49572.0
20
33332.0
11
49572.0
21
33646.0
0
LINE
8
BLACK
10
49572.0
20
33646.0
11
49258.0
21
33646.0
0
LINE
8
BLACK
10
49848.0
20
33646.0
11
49848.0
21
33332.0
0
LINE
8
BLACK
10
49848.0
20
33332.0
11
50162.0
21
33332.0
0
LINE
8
BLACK
10
50162.0
20
33332.0
11
50162.0
21
33646.0
0
LINE
8
BLACK
10
50162.0
20
33646.0
11
49848.0
21
33646.0
0
LINE
8
BLACK
10
64625.0
20
48104.0
11
64625.0
21
48418.0
0
LINE
8
BLACK
10
64625.0
20
48418.0
11
64311.0
21
48418.0
0
LINE
8
BLACK
10
64311.0
20
48418.0
11
64311.0
21
48104.0
0
LINE
8
BLACK
10
64311.0
20
48104.0
11
64625.0
21
48104.0
0
LINE
8
BLACK
10
64035.0
20
48104.0
11
64035.0
21
48418.0
0
LINE
8
BLACK
10
64035.0
20
48418.0
11
63721.0
21
48418.0
0
LINE
8
BLACK
10
63721.0
20
48418.0
11
63721.0
21
48104.0
0
LINE
8
BLACK
10
63721.0
20
48104.0
11
64035.0
21
48104.0
0
LINE
8
BLACK
10
48780.0
20
39402.0
11
48780.0
21
39088.0
0
LINE
8
BLACK
10
48780.0
20
39088.0
11
49094.0
21
39088.0
0
LINE
8
BLACK
10
49094.0
20
39088.0
11
49094.0
21
39402.0
0
LINE
8
BLACK
10
49094.0
20
39402.0
11
48780.0
21
39402.0
0
LINE
8
BLACK
10
49370.0
20
39402.0
11
49370.0
21
39088.0
0
LINE
8
BLACK
10
49370.0
20
39088.0
11
49684.0
21
39088.0
0
LINE
8
BLACK
10
49684.0
20
39088.0
11
49684.0
21
39402.0
0
LINE
8
BLACK
10
49684.0
20
39402.0
11
49370.0
21
39402.0
0
LINE
8
BLACK
10
35005.0
20
33457.0
11
34205.0
21
33457.0
0
LINE
8
BLACK
10
34205.0
20
33457.0
11
34205.0
21
32857.0
0
LINE
8
BLACK
10
34205.0
20
32857.0
11
35005.0
21
32857.0
0
LINE
8
BLACK
10
35005.0
20
32857.0
11
35005.0
21
33457.0
0
LINE
8
BLACK
10
35005.0
20
32157.0
11
34205.0
21
32157.0
0
LINE
8
BLACK
10
34205.0
20
32157.0
11
34205.0
21
31557.0
0
LINE
8
BLACK
10
34205.0
20
31557.0
11
35005.0
21
31557.0
0
LINE
8
BLACK
10
35005.0
20
31557.0
11
35005.0
21
32157.0
0
LINE
8
BLACK
10
50020.0
20
28382.0
11
50020.0
21
28832.0
0
LINE
8
BLACK
10
50020.0
20
28832.0
11
49770.0
21
28832.0
0
LINE
8
BLACK
10
49770.0
20
28832.0
11
49770.0
21
28382.0
0
LINE
8
BLACK
10
49770.0
20
28382.0
11
50020.0
21
28382.0
0
LINE
8
BLACK
10
49420.0
20
28382.0
11
49420.0
21
28832.0
0
LINE
8
BLACK
10
49420.0
20
28832.0
11
49170.0
21
28832.0
0
LINE
8
BLACK
10
49170.0
20
28832.0
11
49170.0
21
28382.0
0
LINE
8
BLACK
10
49170.0
20
28382.0
11
49420.0
21
28382.0
0
LINE
8
BLACK
10
48104.0
20
28832.0
11
48104.0
21
28382.0
0
LINE
8
BLACK
10
48104.0
20
28382.0
11
48354.0
21
28382.0
0
LINE
8
BLACK
10
48354.0
20
28382.0
11
48354.0
21
28832.0
0
LINE
8
BLACK
10
48354.0
20
28832.0
11
48104.0
21
28832.0
0
LINE
8
BLACK
10
48704.0
20
28832.0
11
48704.0
21
28382.0
0
LINE
8
BLACK
10
48704.0
20
28382.0
11
48954.0
21
28382.0
0
LINE
8
BLACK
10
48954.0
20
28382.0
11
48954.0
21
28832.0
0
LINE
8
BLACK
10
48954.0
20
28832.0
11
48704.0
21
28832.0
0
LINE
8
BLACK
10
45305.0
20
45857.0
11
45305.0
21
46307.0
0
LINE
8
BLACK
10
45305.0
20
46307.0
11
45055.0
21
46307.0
0
LINE
8
BLACK
10
45055.0
20
46307.0
11
45055.0
21
45857.0
0
LINE
8
BLACK
10
45055.0
20
45857.0
11
45305.0
21
45857.0
0
LINE
8
BLACK
10
44705.0
20
45857.0
11
44705.0
21
46307.0
0
LINE
8
BLACK
10
44705.0
20
46307.0
11
44455.0
21
46307.0
0
LINE
8
BLACK
10
44455.0
20
46307.0
11
44455.0
21
45857.0
0
LINE
8
BLACK
10
44455.0
20
45857.0
11
44705.0
21
45857.0
0
LINE
8
BLACK
10
43405.0
20
46332.0
11
43405.0
21
45882.0
0
LINE
8
BLACK
10
43405.0
20
45882.0
11
43655.0
21
45882.0
0
LINE
8
BLACK
10
43655.0
20
45882.0
11
43655.0
21
46332.0
0
LINE
8
BLACK
10
43655.0
20
46332.0
11
43405.0
21
46332.0
0
LINE
8
BLACK
10
44005.0
20
46332.0
11
44005.0
21
45882.0
0
LINE
8
BLACK
10
44005.0
20
45882.0
11
44255.0
21
45882.0
0
LINE
8
BLACK
10
44255.0
20
45882.0
11
44255.0
21
46332.0
0
LINE
8
BLACK
10
44255.0
20
46332.0
11
44005.0
21
46332.0
0
LINE
8
BLACK
10
44480.0
20
44532.0
11
44480.0
21
44082.0
0
LINE
8
BLACK
10
44480.0
20
44082.0
11
44730.0
21
44082.0
0
LINE
8
BLACK
10
44730.0
20
44082.0
11
44730.0
21
44532.0
0
LINE
8
BLACK
10
44730.0
20
44532.0
11
44480.0
21
44532.0
0
LINE
8
BLACK
10
45080.0
20
44532.0
11
45080.0
21
44082.0
0
LINE
8
BLACK
10
45080.0
20
44082.0
11
45330.0
21
44082.0
0
LINE
8
BLACK
10
45330.0
20
44082.0
11
45330.0
21
44532.0
0
LINE
8
BLACK
10
45330.0
20
44532.0
11
45080.0
21
44532.0
0
LINE
8
BLACK
10
42164.0
20
44989.0
11
42164.0
21
45589.0
0
LINE
8
BLACK
10
42164.0
20
45589.0
11
42066.0
21
45589.0
0
LINE
8
BLACK
10
42066.0
20
45589.0
11
42066.0
21
44989.0
0
LINE
8
BLACK
10
42066.0
20
44989.0
11
42164.0
21
44989.0
0
LINE
8
BLACK
10
41967.0
20
45038.0
11
41967.0
21
45540.0
0
LINE
8
BLACK
10
41869.0
20
45038.0
11
41869.0
21
45540.0
0
ARC
8
BLACK
10
41918.0
20
45540.0
40
49.0
50
360.0
51
540.0
0
ARC
8
BLACK
10
41918.0
20
45038.0
40
49.0
50
180.0
51
360.0
0
LINE
8
BLACK
10
41770.0
20
45038.0
11
41770.0
21
45540.0
0
LINE
8
BLACK
10
41672.0
20
45038.0
11
41672.0
21
45540.0
0
ARC
8
BLACK
10
41721.0
20
45540.0
40
49.0
50
360.0
51
540.0
0
ARC
8
BLACK
10
41721.0
20
45038.0
40
49.0
50
180.0
51
360.0
0
LINE
8
BLACK
10
41573.0
20
45038.0
11
41573.0
21
45540.0
0
LINE
8
BLACK
10
41475.0
20
45038.0
11
41475.0
21
45540.0
0
ARC
8
BLACK
10
41524.0
20
45540.0
40
49.0
50
360.0
51
540.0
0
ARC
8
BLACK
10
41524.0
20
45038.0
40
49.0
50
180.0
51
360.0
0
LINE
8
BLACK
10
41376.0
20
45038.0
11
41376.0
21
45540.0
0
LINE
8
BLACK
10
41278.0
20
45038.0
11
41278.0
21
45540.0
0
ARC
8
BLACK
10
41327.0
20
45540.0
40
49.0
50
360.0
51
540.0
0
ARC
8
BLACK
10
41327.0
20
45038.0
40
49.0
50
180.0
51
360.0
0
LINE
8
BLACK
10
41180.0
20
45038.0
11
41180.0
21
45540.0
0
LINE
8
BLACK
10
41082.0
20
45038.0
11
41082.0
21
45540.0
0
ARC
8
BLACK
10
41131.0
20
45540.0
40
49.0
50
360.0
51
540.0
0
ARC
8
BLACK
10
41131.0
20
45038.0
40
49.0
50
180.0
51
360.0
0
LINE
8
BLACK
10
40983.0
20
45038.0
11
40983.0
21
45540.0
0
LINE
8
BLACK
10
40885.0
20
45038.0
11
40885.0
21
45540.0
0
ARC
8
BLACK
10
40934.0
20
45540.0
40
49.0
50
360.0
51
540.0
0
ARC
8
BLACK
10
40934.0
20
45038.0
40
49.0
50
180.0
51
360.0
0
LINE
8
BLACK
10
40786.0
20
45038.0
11
40786.0
21
45540.0
0
LINE
8
BLACK
10
40688.0
20
45038.0
11
40688.0
21
45540.0
0
ARC
8
BLACK
10
40737.0
20
45540.0
40
49.0
50
360.0
51
540.0
0
ARC
8
BLACK
10
40737.0
20
45038.0
40
49.0
50
180.0
51
360.0
0
LINE
8
BLACK
10
40589.0
20
45038.0
11
40589.0
21
45540.0
0
LINE
8
BLACK
10
40491.0
20
45038.0
11
40491.0
21
45540.0
0
ARC
8
BLACK
10
40540.0
20
45540.0
40
49.0
50
360.0
51
540.0
0
ARC
8
BLACK
10
40540.0
20
45038.0
40
49.0
50
180.0
51
360.0
0
LINE
8
BLACK
10
40392.0
20
45038.0
11
40392.0
21
45540.0
0
LINE
8
BLACK
10
40294.0
20
45038.0
11
40294.0
21
45540.0
0
ARC
8
BLACK
10
40343.0
20
45540.0
40
49.0
50
360.0
51
540.0
0
ARC
8
BLACK
10
40343.0
20
45038.0
40
49.0
50
180.0
51
360.0
0
LINE
8
BLACK
10
40195.0
20
45038.0
11
40195.0
21
45540.0
0
LINE
8
BLACK
10
40097.0
20
45038.0
11
40097.0
21
45540.0
0
ARC
8
BLACK
10
40146.0
20
45540.0
40
49.0
50
360.0
51
540.0
0
ARC
8
BLACK
10
40146.0
20
45038.0
40
49.0
50
180.0
51
360.0
0
LINE
8
BLACK
10
39999.0
20
45038.0
11
39999.0
21
45540.0
0
LINE
8
BLACK
10
39901.0
20
45038.0
11
39901.0
21
45540.0
0
ARC
8
BLACK
10
39950.0
20
45540.0
40
49.0
50
360.0
51
540.0
0
ARC
8
BLACK
10
39950.0
20
45038.0
40
49.0
50
180.0
51
360.0
0
LINE
8
BLACK
10
39802.0
20
45038.0
11
39802.0
21
45540.0
0
LINE
8
BLACK
10
39704.0
20
45038.0
11
39704.0
21
45540.0
0
ARC
8
BLACK
10
39753.0
20
45540.0
40
49.0
50
360.0
51
540.0
0
ARC
8
BLACK
10
39753.0
20
45038.0
40
49.0
50
180.0
51
360.0
0
LINE
8
BLACK
10
39605.0
20
45038.0
11
39605.0
21
45540.0
0
LINE
8
BLACK
10
39507.0
20
45038.0
11
39507.0
21
45540.0
0
ARC
8
BLACK
10
39556.0
20
45540.0
40
49.0
50
360.0
51
540.0
0
ARC
8
BLACK
10
39556.0
20
45038.0
40
49.0
50
180.0
51
360.0
0
LINE
8
BLACK
10
39408.0
20
45038.0
11
39408.0
21
45540.0
0
LINE
8
BLACK
10
39310.0
20
45038.0
11
39310.0
21
45540.0
0
ARC
8
BLACK
10
39359.0
20
45540.0
40
49.0
50
360.0
51
540.0
0
ARC
8
BLACK
10
39359.0
20
45038.0
40
49.0
50
180.0
51
360.0
0
LINE
8
BLACK
10
39211.0
20
45038.0
11
39211.0
21
45540.0
0
LINE
8
BLACK
10
39113.0
20
45038.0
11
39113.0
21
45540.0
0
ARC
8
BLACK
10
39162.0
20
45540.0
40
49.0
50
360.0
51
540.0
0
ARC
8
BLACK
10
39162.0
20
45038.0
40
49.0
50
180.0
51
360.0
0
LINE
8
BLACK
10
38515.0
20
44503.0
11
38013.0
21
44503.0
0
LINE
8
BLACK
10
38515.0
20
44405.0
11
38013.0
21
44405.0
0
ARC
8
BLACK
10
38013.0
20
44454.0
40
49.0
50
450.0
51
630.0
0
ARC
8
BLACK
10
38515.0
20
44454.0
40
49.0
50
270.0
51
450.0
0
LINE
8
BLACK
10
38515.0
20
44306.0
11
38013.0
21
44306.0
0
LINE
8
BLACK
10
38515.0
20
44208.0
11
38013.0
21
44208.0
0
ARC
8
BLACK
10
38013.0
20
44257.0
40
49.0
50
450.0
51
630.0
0
ARC
8
BLACK
10
38515.0
20
44257.0
40
49.0
50
270.0
51
450.0
0
LINE
8
BLACK
10
38515.0
20
44109.0
11
38013.0
21
44109.0
0
LINE
8
BLACK
10
38515.0
20
44011.0
11
38013.0
21
44011.0
0
ARC
8
BLACK
10
38013.0
20
44060.0
40
49.0
50
450.0
51
630.0
0
ARC
8
BLACK
10
38515.0
20
44060.0
40
49.0
50
270.0
51
450.0
0
LINE
8
BLACK
10
38515.0
20
43912.0
11
38013.0
21
43912.0
0
LINE
8
BLACK
10
38515.0
20
43814.0
11
38013.0
21
43814.0
0
ARC
8
BLACK
10
38013.0
20
43863.0
40
49.0
50
450.0
51
630.0
0
ARC
8
BLACK
10
38515.0
20
43863.0
40
49.0
50
270.0
51
450.0
0
LINE
8
BLACK
10
38515.0
20
43715.0
11
38013.0
21
43715.0
0
LINE
8
BLACK
10
38515.0
20
43617.0
11
38013.0
21
43617.0
0
ARC
8
BLACK
10
38013.0
20
43666.0
40
49.0
50
450.0
51
630.0
0
ARC
8
BLACK
10
38515.0
20
43666.0
40
49.0
50
270.0
51
450.0
0
LINE
8
BLACK
10
38515.0
20
43519.0
11
38013.0
21
43519.0
0
LINE
8
BLACK
10
38515.0
20
43421.0
11
38013.0
21
43421.0
0
ARC
8
BLACK
10
38013.0
20
43470.0
40
49.0
50
450.0
51
630.0
0
ARC
8
BLACK
10
38515.0
20
43470.0
40
49.0
50
270.0
51
450.0
0
LINE
8
BLACK
10
38515.0
20
43322.0
11
38013.0
21
43322.0
0
LINE
8
BLACK
10
38515.0
20
43224.0
11
38013.0
21
43224.0
0
ARC
8
BLACK
10
38013.0
20
43273.0
40
49.0
50
450.0
51
630.0
0
ARC
8
BLACK
10
38515.0
20
43273.0
40
49.0
50
270.0
51
450.0
0
LINE
8
BLACK
10
38515.0
20
43125.0
11
38013.0
21
43125.0
0
LINE
8
BLACK
10
38515.0
20
43027.0
11
38013.0
21
43027.0
0
ARC
8
BLACK
10
38013.0
20
43076.0
40
49.0
50
450.0
51
630.0
0
ARC
8
BLACK
10
38515.0
20
43076.0
40
49.0
50
270.0
51
450.0
0
LINE
8
BLACK
10
38515.0
20
42928.0
11
38013.0
21
42928.0
0
LINE
8
BLACK
10
38515.0
20
42830.0
11
38013.0
21
42830.0
0
ARC
8
BLACK
10
38013.0
20
42879.0
40
49.0
50
450.0
51
630.0
0
ARC
8
BLACK
10
38515.0
20
42879.0
40
49.0
50
270.0
51
450.0
0
LINE
8
BLACK
10
38515.0
20
42731.0
11
38013.0
21
42731.0
0
LINE
8
BLACK
10
38515.0
20
42633.0
11
38013.0
21
42633.0
0
ARC
8
BLACK
10
38013.0
20
42682.0
40
49.0
50
450.0
51
630.0
0
ARC
8
BLACK
10
38515.0
20
42682.0
40
49.0
50
270.0
51
450.0
0
LINE
8
BLACK
10
38515.0
20
42534.0
11
38013.0
21
42534.0
0
LINE
8
BLACK
10
38515.0
20
42436.0
11
38013.0
21
42436.0
0
ARC
8
BLACK
10
38013.0
20
42485.0
40
49.0
50
450.0
51
630.0
0
ARC
8
BLACK
10
38515.0
20
42485.0
40
49.0
50
270.0
51
450.0
0
LINE
8
BLACK
10
38515.0
20
42338.0
11
38013.0
21
42338.0
0
LINE
8
BLACK
10
38515.0
20
42240.0
11
38013.0
21
42240.0
0
ARC
8
BLACK
10
38013.0
20
42289.0
40
49.0
50
450.0
51
630.0
0
ARC
8
BLACK
10
38515.0
20
42289.0
40
49.0
50
270.0
51
450.0
0
LINE
8
BLACK
10
38515.0
20
42141.0
11
38013.0
21
42141.0
0
LINE
8
BLACK
10
38515.0
20
42043.0
11
38013.0
21
42043.0
0
ARC
8
BLACK
10
38013.0
20
42092.0
40
49.0
50
450.0
51
630.0
0
ARC
8
BLACK
10
38515.0
20
42092.0
40
49.0
50
270.0
51
450.0
0
LINE
8
BLACK
10
38515.0
20
41944.0
11
38013.0
21
41944.0
0
LINE
8
BLACK
10
38515.0
20
41846.0
11
38013.0
21
41846.0
0
ARC
8
BLACK
10
38013.0
20
41895.0
40
49.0
50
450.0
51
630.0
0
ARC
8
BLACK
10
38515.0
20
41895.0
40
49.0
50
270.0
51
450.0
0
LINE
8
BLACK
10
38515.0
20
41747.0
11
38013.0
21
41747.0
0
LINE
8
BLACK
10
38515.0
20
41649.0
11
38013.0
21
41649.0
0
ARC
8
BLACK
10
38013.0
20
41698.0
40
49.0
50
450.0
51
630.0
0
ARC
8
BLACK
10
38515.0
20
41698.0
40
49.0
50
270.0
51
450.0
0
LINE
8
BLACK
10
38515.0
20
41550.0
11
38013.0
21
41550.0
0
LINE
8
BLACK
10
38515.0
20
41452.0
11
38013.0
21
41452.0
0
ARC
8
BLACK
10
38013.0
20
41501.0
40
49.0
50
450.0
51
630.0
0
ARC
8
BLACK
10
38515.0
20
41501.0
40
49.0
50
270.0
51
450.0
0
LINE
8
BLACK
10
39211.0
20
40352.0
11
39211.0
21
40854.0
0
LINE
8
BLACK
10
39113.0
20
40352.0
11
39113.0
21
40854.0
0
ARC
8
BLACK
10
39162.0
20
40854.0
40
49.0
50
360.0
51
540.0
0
ARC
8
BLACK
10
39162.0
20
40352.0
40
49.0
50
180.0
51
360.0
0
LINE
8
BLACK
10
39408.0
20
40352.0
11
39408.0
21
40854.0
0
LINE
8
BLACK
10
39310.0
20
40352.0
11
39310.0
21
40854.0
0
ARC
8
BLACK
10
39359.0
20
40854.0
40
49.0
50
360.0
51
540.0
0
ARC
8
BLACK
10
39359.0
20
40352.0
40
49.0
50
180.0
51
360.0
0
LINE
8
BLACK
10
39605.0
20
40352.0
11
39605.0
21
40854.0
0
LINE
8
BLACK
10
39507.0
20
40352.0
11
39507.0
21
40854.0
0
ARC
8
BLACK
10
39556.0
20
40854.0
40
49.0
50
360.0
51
540.0
0
ARC
8
BLACK
10
39556.0
20
40352.0
40
49.0
50
180.0
51
360.0
0
LINE
8
BLACK
10
39802.0
20
40352.0
11
39802.0
21
40854.0
0
LINE
8
BLACK
10
39704.0
20
40352.0
11
39704.0
21
40854.0
0
ARC
8
BLACK
10
39753.0
20
40854.0
40
49.0
50
360.0
51
540.0
0
ARC
8
BLACK
10
39753.0
20
40352.0
40
49.0
50
180.0
51
360.0
0
LINE
8
BLACK
10
39999.0
20
40352.0
11
39999.0
21
40854.0
0
LINE
8
BLACK
10
39901.0
20
40352.0
11
39901.0
21
40854.0
0
ARC
8
BLACK
10
39950.0
20
40854.0
40
49.0
50
360.0
51
540.0
0
ARC
8
BLACK
10
39950.0
20
40352.0
40
49.0
50
180.0
51
360.0
0
LINE
8
BLACK
10
40195.0
20
40352.0
11
40195.0
21
40854.0
0
LINE
8
BLACK
10
40097.0
20
40352.0
11
40097.0
21
40854.0
0
ARC
8
BLACK
10
40146.0
20
40854.0
40
49.0
50
360.0
51
540.0
0
ARC
8
BLACK
10
40146.0
20
40352.0
40
49.0
50
180.0
51
360.0
0
LINE
8
BLACK
10
40392.0
20
40352.0
11
40392.0
21
40854.0
0
LINE
8
BLACK
10
40294.0
20
40352.0
11
40294.0
21
40854.0
0
ARC
8
BLACK
10
40343.0
20
40854.0
40
49.0
50
360.0
51
540.0
0
ARC
8
BLACK
10
40343.0
20
40352.0
40
49.0
50
180.0
51
360.0
0
LINE
8
BLACK
10
40589.0
20
40352.0
11
40589.0
21
40854.0
0
LINE
8
BLACK
10
40491.0
20
40352.0
11
40491.0
21
40854.0
0
ARC
8
BLACK
10
40540.0
20
40854.0
40
49.0
50
360.0
51
540.0
0
ARC
8
BLACK
10
40540.0
20
40352.0
40
49.0
50
180.0
51
360.0
0
LINE
8
BLACK
10
40786.0
20
40352.0
11
40786.0
21
40854.0
0
LINE
8
BLACK
10
40688.0
20
40352.0
11
40688.0
21
40854.0
0
ARC
8
BLACK
10
40737.0
20
40854.0
40
49.0
50
360.0
51
540.0
0
ARC
8
BLACK
10
40737.0
20
40352.0
40
49.0
50
180.0
51
360.0
0
LINE
8
BLACK
10
40983.0
20
40352.0
11
40983.0
21
40854.0
0
LINE
8
BLACK
10
40885.0
20
40352.0
11
40885.0
21
40854.0
0
ARC
8
BLACK
10
40934.0
20
40854.0
40
49.0
50
360.0
51
540.0
0
ARC
8
BLACK
10
40934.0
20
40352.0
40
49.0
50
180.0
51
360.0
0
LINE
8
BLACK
10
41180.0
20
40352.0
11
41180.0
21
40854.0
0
LINE
8
BLACK
10
41082.0
20
40352.0
11
41082.0
21
40854.0
0
ARC
8
BLACK
10
41131.0
20
40854.0
40
49.0
50
360.0
51
540.0
0
ARC
8
BLACK
10
41131.0
20
40352.0
40
49.0
50
180.0
51
360.0
0
LINE
8
BLACK
10
41376.0
20
40352.0
11
41376.0
21
40854.0
0
LINE
8
BLACK
10
41278.0
20
40352.0
11
41278.0
21
40854.0
0
ARC
8
BLACK
10
41327.0
20
40854.0
40
49.0
50
360.0
51
540.0
0
ARC
8
BLACK
10
41327.0
20
40352.0
40
49.0
50
180.0
51
360.0
0
LINE
8
BLACK
10
41573.0
20
40352.0
11
41573.0
21
40854.0
0
LINE
8
BLACK
10
41475.0
20
40352.0
11
41475.0
21
40854.0
0
ARC
8
BLACK
10
41524.0
20
40854.0
40
49.0
50
360.0
51
540.0
0
ARC
8
BLACK
10
41524.0
20
40352.0
40
49.0
50
180.0
51
360.0
0
LINE
8
BLACK
10
41770.0
20
40352.0
11
41770.0
21
40854.0
0
LINE
8
BLACK
10
41672.0
20
40352.0
11
41672.0
21
40854.0
0
ARC
8
BLACK
10
41721.0
20
40854.0
40
49.0
50
360.0
51
540.0
0
ARC
8
BLACK
10
41721.0
20
40352.0
40
49.0
50
180.0
51
360.0
0
LINE
8
BLACK
10
41967.0
20
40352.0
11
41967.0
21
40854.0
0
LINE
8
BLACK
10
41869.0
20
40352.0
11
41869.0
21
40854.0
0
ARC
8
BLACK
10
41918.0
20
40854.0
40
49.0
50
360.0
51
540.0
0
ARC
8
BLACK
10
41918.0
20
40352.0
40
49.0
50
180.0
51
360.0
0
LINE
8
BLACK
10
42164.0
20
40352.0
11
42164.0
21
40854.0
0
LINE
8
BLACK
10
42066.0
20
40352.0
11
42066.0
21
40854.0
0
ARC
8
BLACK
10
42115.0
20
40854.0
40
49.0
50
360.0
51
540.0
0
ARC
8
BLACK
10
42115.0
20
40352.0
40
49.0
50
180.0
51
360.0
0
LINE
8
BLACK
10
43201.0
20
41550.0
11
42699.0
21
41550.0
0
LINE
8
BLACK
10
43201.0
20
41452.0
11
42699.0
21
41452.0
0
ARC
8
BLACK
10
42699.0
20
41501.0
40
49.0
50
450.0
51
630.0
0
ARC
8
BLACK
10
43201.0
20
41501.0
40
49.0
50
270.0
51
450.0
0
LINE
8
BLACK
10
43201.0
20
41747.0
11
42699.0
21
41747.0
0
LINE
8
BLACK
10
43201.0
20
41649.0
11
42699.0
21
41649.0
0
ARC
8
BLACK
10
42699.0
20
41698.0
40
49.0
50
450.0
51
630.0
0
ARC
8
BLACK
10
43201.0
20
41698.0
40
49.0
50
270.0
51
450.0
0
LINE
8
BLACK
10
43201.0
20
42141.0
11
42699.0
21
42141.0
0
LINE
8
BLACK
10
43201.0
20
42043.0
11
42699.0
21
42043.0
0
ARC
8
BLACK
10
42699.0
20
42092.0
40
49.0
50
450.0
51
630.0
0
ARC
8
BLACK
10
43201.0
20
42092.0
40
49.0
50
270.0
51
450.0
0
LINE
8
BLACK
10
43208.0
20
41944.0
11
42706.0
21
41944.0
0
LINE
8
BLACK
10
43208.0
20
41846.0
11
42706.0
21
41846.0
0
ARC
8
BLACK
10
42706.0
20
41895.0
40
49.0
50
450.0
51
630.0
0
ARC
8
BLACK
10
43208.0
20
41895.0
40
49.0
50
270.0
51
450.0
0
LINE
8
BLACK
10
43201.0
20
42338.0
11
42699.0
21
42338.0
0
LINE
8
BLACK
10
43201.0
20
42240.0
11
42699.0
21
42240.0
0
ARC
8
BLACK
10
42699.0
20
42289.0
40
49.0
50
450.0
51
630.0
0
ARC
8
BLACK
10
43201.0
20
42289.0
40
49.0
50
270.0
51
450.0
0
LINE
8
BLACK
10
43201.0
20
42534.0
11
42699.0
21
42534.0
0
LINE
8
BLACK
10
43201.0
20
42436.0
11
42699.0
21
42436.0
0
ARC
8
BLACK
10
42699.0
20
42485.0
40
49.0
50
450.0
51
630.0
0
ARC
8
BLACK
10
43201.0
20
42485.0
40
49.0
50
270.0
51
450.0
0
LINE
8
BLACK
10
43201.0
20
42731.0
11
42699.0
21
42731.0
0
LINE
8
BLACK
10
43201.0
20
42633.0
11
42699.0
21
42633.0
0
ARC
8
BLACK
10
42699.0
20
42682.0
40
49.0
50
450.0
51
630.0
0
ARC
8
BLACK
10
43201.0
20
42682.0
40
49.0
50
270.0
51
450.0
0
LINE
8
BLACK
10
43201.0
20
42928.0
11
42699.0
21
42928.0
0
LINE
8
BLACK
10
43201.0
20
42830.0
11
42699.0
21
42830.0
0
ARC
8
BLACK
10
42699.0
20
42879.0
40
49.0
50
450.0
51
630.0
0
ARC
8
BLACK
10
43201.0
20
42879.0
40
49.0
50
270.0
51
450.0
0
LINE
8
BLACK
10
43201.0
20
43125.0
11
42699.0
21
43125.0
0
LINE
8
BLACK
10
43201.0
20
43027.0
11
42699.0
21
43027.0
0
ARC
8
BLACK
10
42699.0
20
43076.0
40
49.0
50
450.0
51
630.0
0
ARC
8
BLACK
10
43201.0
20
43076.0
40
49.0
50
270.0
51
450.0
0
LINE
8
BLACK
10
43201.0
20
43322.0
11
42699.0
21
43322.0
0
LINE
8
BLACK
10
43201.0
20
43224.0
11
42699.0
21
43224.0
0
ARC
8
BLACK
10
42699.0
20
43273.0
40
49.0
50
450.0
51
630.0
0
ARC
8
BLACK
10
43201.0
20
43273.0
40
49.0
50
270.0
51
450.0
0
LINE
8
BLACK
10
43201.0
20
43516.0
11
42699.0
21
43516.0
0
LINE
8
BLACK
10
43201.0
20
43418.0
11
42699.0
21
43418.0
0
ARC
8
BLACK
10
42699.0
20
43467.0
40
49.0
50
450.0
51
630.0
0
ARC
8
BLACK
10
43201.0
20
43467.0
40
49.0
50
270.0
51
450.0
0
LINE
8
BLACK
10
43201.0
20
43713.0
11
42699.0
21
43713.0
0
LINE
8
BLACK
10
43201.0
20
43615.0
11
42699.0
21
43615.0
0
ARC
8
BLACK
10
42699.0
20
43664.0
40
49.0
50
450.0
51
630.0
0
ARC
8
BLACK
10
43201.0
20
43664.0
40
49.0
50
270.0
51
450.0
0
LINE
8
BLACK
10
43201.0
20
43910.0
11
42699.0
21
43910.0
0
LINE
8
BLACK
10
43201.0
20
43812.0
11
42699.0
21
43812.0
0
ARC
8
BLACK
10
42699.0
20
43861.0
40
49.0
50
450.0
51
630.0
0
ARC
8
BLACK
10
43201.0
20
43861.0
40
49.0
50
270.0
51
450.0
0
LINE
8
BLACK
10
43201.0
20
44107.0
11
42699.0
21
44107.0
0
LINE
8
BLACK
10
43201.0
20
44009.0
11
42699.0
21
44009.0
0
ARC
8
BLACK
10
42699.0
20
44058.0
40
49.0
50
450.0
51
630.0
0
ARC
8
BLACK
10
43201.0
20
44058.0
40
49.0
50
270.0
51
450.0
0
LINE
8
BLACK
10
43201.0
20
44303.0
11
42699.0
21
44303.0
0
LINE
8
BLACK
10
43201.0
20
44205.0
11
42699.0
21
44205.0
0
ARC
8
BLACK
10
42699.0
20
44254.0
40
49.0
50
450.0
51
630.0
0
ARC
8
BLACK
10
43201.0
20
44254.0
40
49.0
50
270.0
51
450.0
0
LINE
8
BLACK
10
43201.0
20
44500.0
11
42699.0
21
44500.0
0
LINE
8
BLACK
10
43201.0
20
44402.0
11
42699.0
21
44402.0
0
ARC
8
BLACK
10
42699.0
20
44451.0
40
49.0
50
450.0
51
630.0
0
ARC
8
BLACK
10
43201.0
20
44451.0
40
49.0
50
270.0
51
450.0
0
LINE
8
BLACK
10
47798.0
20
30573.0
11
46998.0
21
30573.0
0
LINE
8
BLACK
10
46998.0
20
30573.0
11
46998.0
21
29973.0
0
LINE
8
BLACK
10
46998.0
20
29973.0
11
47798.0
21
29973.0
0
LINE
8
BLACK
10
47798.0
20
29973.0
11
47798.0
21
30573.0
0
LINE
8
BLACK
10
47798.0
20
29273.0
11
46998.0
21
29273.0
0
LINE
8
BLACK
10
46998.0
20
29273.0
11
46998.0
21
28673.0
0
LINE
8
BLACK
10
46998.0
20
28673.0
11
47798.0
21
28673.0
0
LINE
8
BLACK
10
47798.0
20
28673.0
11
47798.0
21
29273.0
0
LINE
8
BLACK
10
47169.0
20
30757.0
11
47619.0
21
30757.0
0
LINE
8
BLACK
10
47619.0
20
30757.0
11
47619.0
21
31007.0
0
LINE
8
BLACK
10
47619.0
20
31007.0
11
47169.0
21
31007.0
0
LINE
8
BLACK
10
47169.0
20
31007.0
11
47169.0
21
30757.0
0
LINE
8
BLACK
10
47169.0
20
31357.0
11
47619.0
21
31357.0
0
LINE
8
BLACK
10
47619.0
20
31357.0
11
47619.0
21
31607.0
0
LINE
8
BLACK
10
47619.0
20
31607.0
11
47169.0
21
31607.0
0
LINE
8
BLACK
10
47169.0
20
31607.0
11
47169.0
21
31357.0
0
LINE
8
BLACK
10
36380.0
20
37407.0
11
36830.0
21
37407.0
0
LINE
8
BLACK
10
36830.0
20
37407.0
11
36830.0
21
37657.0
0
LINE
8
BLACK
10
36830.0
20
37657.0
11
36380.0
21
37657.0
0
LINE
8
BLACK
10
36380.0
20
37657.0
11
36380.0
21
37407.0
0
LINE
8
BLACK
10
36380.0
20
38007.0
11
36830.0
21
38007.0
0
LINE
8
BLACK
10
36830.0
20
38007.0
11
36830.0
21
38257.0
0
LINE
8
BLACK
10
36830.0
20
38257.0
11
36380.0
21
38257.0
0
LINE
8
BLACK
10
36380.0
20
38257.0
11
36380.0
21
38007.0
0
LINE
8
BLACK
10
36830.0
20
37182.0
11
36380.0
21
37182.0
0
LINE
8
BLACK
10
36380.0
20
37182.0
11
36380.0
21
36932.0
0
LINE
8
BLACK
10
36380.0
20
36932.0
11
36830.0
21
36932.0
0
LINE
8
BLACK
10
36830.0
20
36932.0
11
36830.0
21
37182.0
0
LINE
8
BLACK
10
36830.0
20
36582.0
11
36380.0
21
36582.0
0
LINE
8
BLACK
10
36380.0
20
36582.0
11
36380.0
21
36332.0
0
LINE
8
BLACK
10
36380.0
20
36332.0
11
36830.0
21
36332.0
0
LINE
8
BLACK
10
36830.0
20
36332.0
11
36830.0
21
36582.0
0
LINE
8
BLACK
10
56745.0
20
34039.0
11
56745.0
21
34489.0
0
LINE
8
BLACK
10
56745.0
20
34489.0
11
56495.0
21
34489.0
0
LINE
8
BLACK
10
56495.0
20
34489.0
11
56495.0
21
34039.0
0
LINE
8
BLACK
10
56495.0
20
34039.0
11
56745.0
21
34039.0
0
LINE
8
BLACK
10
56145.0
20
34039.0
11
56145.0
21
34489.0
0
LINE
8
BLACK
10
56145.0
20
34489.0
11
55895.0
21
34489.0
0
LINE
8
BLACK
10
55895.0
20
34489.0
11
55895.0
21
34039.0
0
LINE
8
BLACK
10
55895.0
20
34039.0
11
56145.0
21
34039.0
0
LINE
8
BLACK
10
56737.0
20
34843.0
11
56737.0
21
35293.0
0
LINE
8
BLACK
10
56737.0
20
35293.0
11
56487.0
21
35293.0
0
LINE
8
BLACK
10
56487.0
20
35293.0
11
56487.0
21
34843.0
0
LINE
8
BLACK
10
56487.0
20
34843.0
11
56737.0
21
34843.0
0
LINE
8
BLACK
10
56137.0
20
34843.0
11
56137.0
21
35293.0
0
LINE
8
BLACK
10
56137.0
20
35293.0
11
55887.0
21
35293.0
0
LINE
8
BLACK
10
55887.0
20
35293.0
11
55887.0
21
34843.0
0
LINE
8
BLACK
10
55887.0
20
34843.0
11
56137.0
21
34843.0
0
LINE
8
BLACK
10
41271.0
20
37195.0
11
40821.0
21
37195.0
0
LINE
8
BLACK
10
40821.0
20
37195.0
11
40821.0
21
36945.0
0
LINE
8
BLACK
10
40821.0
20
36945.0
11
41271.0
21
36945.0
0
LINE
8
BLACK
10
41271.0
20
36945.0
11
41271.0
21
37195.0
0
LINE
8
BLACK
10
41271.0
20
36595.0
11
40821.0
21
36595.0
0
LINE
8
BLACK
10
40821.0
20
36595.0
11
40821.0
21
36345.0
0
LINE
8
BLACK
10
40821.0
20
36345.0
11
41271.0
21
36345.0
0
LINE
8
BLACK
10
41271.0
20
36345.0
11
41271.0
21
36595.0
0
LINE
8
BLACK
10
40813.0
20
37333.0
11
41263.0
21
37333.0
0
LINE
8
BLACK
10
41263.0
20
37333.0
11
41263.0
21
37583.0
0
LINE
8
BLACK
10
41263.0
20
37583.0
11
40813.0
21
37583.0
0
LINE
8
BLACK
10
40813.0
20
37583.0
11
40813.0
21
37333.0
0
LINE
8
BLACK
10
40813.0
20
37933.0
11
41263.0
21
37933.0
0
LINE
8
BLACK
10
41263.0
20
37933.0
11
41263.0
21
38183.0
0
LINE
8
BLACK
10
41263.0
20
38183.0
11
40813.0
21
38183.0
0
LINE
8
BLACK
10
40813.0
20
38183.0
11
40813.0
21
37933.0
0
ENDSEC
0
EOF
