G04 (created by PCBNEW-RS274X (2011-05-31)-stable) date Fri 24 Feb 2012 05:38:00 PM COT*
G01*
G70*
G90*
%MOIN*%
G04 Gerber Fmt 3.4, Leading zero omitted, Abs format*
%FSLAX34Y34*%
G04 APERTURE LIST*
%ADD10C,0.006000*%
%ADD11C,0.007900*%
%ADD12C,0.005900*%
%ADD13C,0.004300*%
%ADD14C,0.004500*%
%ADD15C,0.003900*%
%ADD16C,0.007000*%
%ADD17C,0.005000*%
%ADD18C,0.008000*%
%ADD19C,0.002600*%
%ADD20C,0.002000*%
%ADD21C,0.004000*%
%ADD22C,0.003500*%
G04 APERTURE END LIST*
G54D10*
G54D11*
X67152Y-40543D02*
X67414Y-40663D01*
X67227Y-40783D01*
X67414Y-40903D01*
X67152Y-41023D01*
X67152Y-41203D02*
X67414Y-41323D01*
X67227Y-41443D01*
X67414Y-41563D01*
X67152Y-41683D01*
X67152Y-41863D02*
X67414Y-41983D01*
X67227Y-42103D01*
X67414Y-42223D01*
X67152Y-42343D01*
X67377Y-42583D02*
X67396Y-42613D01*
X67414Y-42583D01*
X67396Y-42553D01*
X67377Y-42583D01*
X67414Y-42583D01*
X67414Y-42973D02*
X67396Y-42913D01*
X67358Y-42883D01*
X67020Y-42883D01*
X67414Y-43213D02*
X67152Y-43213D01*
X67020Y-43213D02*
X67039Y-43183D01*
X67058Y-43213D01*
X67039Y-43243D01*
X67020Y-43213D01*
X67058Y-43213D01*
X67152Y-43513D02*
X67414Y-43513D01*
X67189Y-43513D02*
X67171Y-43543D01*
X67152Y-43603D01*
X67152Y-43693D01*
X67171Y-43753D01*
X67208Y-43783D01*
X67414Y-43783D01*
X67152Y-44353D02*
X67414Y-44353D01*
X67152Y-44083D02*
X67358Y-44083D01*
X67396Y-44113D01*
X67414Y-44173D01*
X67414Y-44263D01*
X67396Y-44323D01*
X67377Y-44353D01*
X67414Y-44593D02*
X67152Y-44923D01*
X67152Y-44593D02*
X67414Y-44923D01*
X67396Y-45403D02*
X67414Y-45343D01*
X67414Y-45223D01*
X67396Y-45163D01*
X67358Y-45133D01*
X67208Y-45133D01*
X67171Y-45163D01*
X67152Y-45223D01*
X67152Y-45343D01*
X67171Y-45403D01*
X67208Y-45433D01*
X67246Y-45433D01*
X67283Y-45133D01*
X67152Y-45703D02*
X67414Y-45703D01*
X67189Y-45703D02*
X67171Y-45733D01*
X67152Y-45793D01*
X67152Y-45883D01*
X67171Y-45943D01*
X67208Y-45973D01*
X67414Y-45973D01*
X67396Y-46543D02*
X67414Y-46483D01*
X67414Y-46363D01*
X67396Y-46303D01*
X67377Y-46273D01*
X67339Y-46243D01*
X67227Y-46243D01*
X67189Y-46273D01*
X67171Y-46303D01*
X67152Y-46363D01*
X67152Y-46483D01*
X67171Y-46543D01*
X67414Y-47083D02*
X67208Y-47083D01*
X67171Y-47053D01*
X67152Y-46993D01*
X67152Y-46873D01*
X67171Y-46813D01*
X67396Y-47083D02*
X67414Y-47023D01*
X67414Y-46873D01*
X67396Y-46813D01*
X67358Y-46783D01*
X67321Y-46783D01*
X67283Y-46813D01*
X67264Y-46873D01*
X67264Y-47023D01*
X67246Y-47083D01*
X67152Y-47383D02*
X67490Y-47383D01*
X67527Y-47353D01*
X67546Y-47293D01*
X67546Y-47263D01*
X67020Y-47383D02*
X67039Y-47353D01*
X67058Y-47383D01*
X67039Y-47413D01*
X67020Y-47383D01*
X67058Y-47383D01*
X67414Y-47953D02*
X67208Y-47953D01*
X67171Y-47923D01*
X67152Y-47863D01*
X67152Y-47743D01*
X67171Y-47683D01*
X67396Y-47953D02*
X67414Y-47893D01*
X67414Y-47743D01*
X67396Y-47683D01*
X67358Y-47653D01*
X67321Y-47653D01*
X67283Y-47683D01*
X67264Y-47743D01*
X67264Y-47893D01*
X67246Y-47953D01*
X67377Y-48253D02*
X67396Y-48283D01*
X67414Y-48253D01*
X67396Y-48223D01*
X67377Y-48253D01*
X67414Y-48253D01*
X67152Y-48553D02*
X67414Y-48553D01*
X67189Y-48553D02*
X67171Y-48583D01*
X67152Y-48643D01*
X67152Y-48733D01*
X67171Y-48793D01*
X67208Y-48823D01*
X67414Y-48823D01*
X67396Y-49363D02*
X67414Y-49303D01*
X67414Y-49183D01*
X67396Y-49123D01*
X67358Y-49093D01*
X67208Y-49093D01*
X67171Y-49123D01*
X67152Y-49183D01*
X67152Y-49303D01*
X67171Y-49363D01*
X67208Y-49393D01*
X67246Y-49393D01*
X67283Y-49093D01*
X67152Y-49573D02*
X67152Y-49813D01*
X67020Y-49663D02*
X67358Y-49663D01*
X67396Y-49693D01*
X67414Y-49753D01*
X67414Y-49813D01*
G54D12*
X62221Y-41931D02*
X62221Y-41655D01*
X62136Y-41655D01*
X62086Y-41668D01*
X62052Y-41694D01*
X62035Y-41720D01*
X62018Y-41773D01*
X62018Y-41812D01*
X62035Y-41865D01*
X62052Y-41891D01*
X62086Y-41918D01*
X62136Y-41931D01*
X62221Y-41931D01*
X61732Y-41918D02*
X61766Y-41931D01*
X61833Y-41931D01*
X61867Y-41918D01*
X61884Y-41891D01*
X61884Y-41786D01*
X61867Y-41760D01*
X61833Y-41747D01*
X61766Y-41747D01*
X61732Y-41760D01*
X61715Y-41786D01*
X61715Y-41812D01*
X61884Y-41839D01*
X61581Y-41918D02*
X61547Y-41931D01*
X61479Y-41931D01*
X61446Y-41918D01*
X61429Y-41891D01*
X61429Y-41878D01*
X61446Y-41852D01*
X61479Y-41839D01*
X61530Y-41839D01*
X61564Y-41826D01*
X61581Y-41799D01*
X61581Y-41786D01*
X61564Y-41760D01*
X61530Y-41747D01*
X61479Y-41747D01*
X61446Y-41760D01*
X61277Y-41931D02*
X61277Y-41747D01*
X61277Y-41655D02*
X61294Y-41668D01*
X61277Y-41681D01*
X61260Y-41668D01*
X61277Y-41655D01*
X61277Y-41681D01*
X60956Y-41747D02*
X60956Y-41970D01*
X60973Y-41996D01*
X60990Y-42010D01*
X61023Y-42023D01*
X61074Y-42023D01*
X61108Y-42010D01*
X60956Y-41918D02*
X60990Y-41931D01*
X61057Y-41931D01*
X61091Y-41918D01*
X61108Y-41904D01*
X61125Y-41878D01*
X61125Y-41799D01*
X61108Y-41773D01*
X61091Y-41760D01*
X61057Y-41747D01*
X60990Y-41747D01*
X60956Y-41760D01*
X60788Y-41747D02*
X60788Y-41931D01*
X60788Y-41773D02*
X60771Y-41760D01*
X60737Y-41747D01*
X60687Y-41747D01*
X60653Y-41760D01*
X60636Y-41786D01*
X60636Y-41931D01*
X60333Y-41918D02*
X60367Y-41931D01*
X60434Y-41931D01*
X60468Y-41918D01*
X60485Y-41891D01*
X60485Y-41786D01*
X60468Y-41760D01*
X60434Y-41747D01*
X60367Y-41747D01*
X60333Y-41760D01*
X60316Y-41786D01*
X60316Y-41812D01*
X60485Y-41839D01*
X60013Y-41931D02*
X60013Y-41655D01*
X60013Y-41918D02*
X60047Y-41931D01*
X60114Y-41931D01*
X60148Y-41918D01*
X60165Y-41904D01*
X60182Y-41878D01*
X60182Y-41799D01*
X60165Y-41773D01*
X60148Y-41760D01*
X60114Y-41747D01*
X60047Y-41747D01*
X60013Y-41760D01*
X59575Y-41931D02*
X59575Y-41655D01*
X59575Y-41760D02*
X59541Y-41747D01*
X59474Y-41747D01*
X59440Y-41760D01*
X59423Y-41773D01*
X59406Y-41799D01*
X59406Y-41878D01*
X59423Y-41904D01*
X59440Y-41918D01*
X59474Y-41931D01*
X59541Y-41931D01*
X59575Y-41918D01*
X59288Y-41747D02*
X59204Y-41931D01*
X59120Y-41747D02*
X59204Y-41931D01*
X59238Y-41996D01*
X59255Y-42010D01*
X59288Y-42023D01*
X63475Y-42349D02*
X63492Y-42363D01*
X63543Y-42376D01*
X63577Y-42376D01*
X63627Y-42363D01*
X63661Y-42336D01*
X63678Y-42310D01*
X63695Y-42257D01*
X63695Y-42218D01*
X63678Y-42165D01*
X63661Y-42139D01*
X63627Y-42113D01*
X63577Y-42100D01*
X63543Y-42100D01*
X63492Y-42113D01*
X63475Y-42126D01*
X63341Y-42297D02*
X63172Y-42297D01*
X63374Y-42376D02*
X63256Y-42100D01*
X63138Y-42376D01*
X63021Y-42376D02*
X63021Y-42100D01*
X62852Y-42376D02*
X62852Y-42100D01*
X62649Y-42376D01*
X62649Y-42100D01*
X62396Y-42468D02*
X62396Y-42073D01*
X61941Y-42349D02*
X61958Y-42363D01*
X62009Y-42376D01*
X62043Y-42376D01*
X62093Y-42363D01*
X62127Y-42336D01*
X62144Y-42310D01*
X62161Y-42257D01*
X62161Y-42218D01*
X62144Y-42165D01*
X62127Y-42139D01*
X62093Y-42113D01*
X62043Y-42100D01*
X62009Y-42100D01*
X61958Y-42113D01*
X61941Y-42126D01*
X61739Y-42376D02*
X61773Y-42363D01*
X61790Y-42349D01*
X61807Y-42323D01*
X61807Y-42244D01*
X61790Y-42218D01*
X61773Y-42205D01*
X61739Y-42192D01*
X61689Y-42192D01*
X61655Y-42205D01*
X61638Y-42218D01*
X61621Y-42244D01*
X61621Y-42323D01*
X61638Y-42349D01*
X61655Y-42363D01*
X61689Y-42376D01*
X61739Y-42376D01*
X61470Y-42376D02*
X61470Y-42192D01*
X61470Y-42244D02*
X61453Y-42218D01*
X61436Y-42205D01*
X61402Y-42192D01*
X61369Y-42192D01*
X61251Y-42376D02*
X61251Y-42192D01*
X61251Y-42244D02*
X61234Y-42218D01*
X61217Y-42205D01*
X61183Y-42192D01*
X61150Y-42192D01*
X60897Y-42363D02*
X60931Y-42376D01*
X60998Y-42376D01*
X61032Y-42363D01*
X61049Y-42336D01*
X61049Y-42231D01*
X61032Y-42205D01*
X60998Y-42192D01*
X60931Y-42192D01*
X60897Y-42205D01*
X60880Y-42231D01*
X60880Y-42257D01*
X61049Y-42284D01*
X60560Y-42376D02*
X60729Y-42376D01*
X60729Y-42100D01*
X60442Y-42376D02*
X60442Y-42192D01*
X60442Y-42100D02*
X60459Y-42113D01*
X60442Y-42126D01*
X60425Y-42113D01*
X60442Y-42100D01*
X60442Y-42126D01*
X60273Y-42376D02*
X60273Y-42100D01*
X60273Y-42205D02*
X60239Y-42192D01*
X60172Y-42192D01*
X60138Y-42205D01*
X60121Y-42218D01*
X60104Y-42244D01*
X60104Y-42323D01*
X60121Y-42349D01*
X60138Y-42363D01*
X60172Y-42376D01*
X60239Y-42376D01*
X60273Y-42363D01*
X59953Y-42376D02*
X59953Y-42192D01*
X59953Y-42244D02*
X59936Y-42218D01*
X59919Y-42205D01*
X59885Y-42192D01*
X59852Y-42192D01*
X59599Y-42363D02*
X59633Y-42376D01*
X59700Y-42376D01*
X59734Y-42363D01*
X59751Y-42336D01*
X59751Y-42231D01*
X59734Y-42205D01*
X59700Y-42192D01*
X59633Y-42192D01*
X59599Y-42205D01*
X59582Y-42231D01*
X59582Y-42257D01*
X59751Y-42284D01*
X59346Y-42468D02*
X59346Y-42073D01*
X58959Y-42363D02*
X58993Y-42376D01*
X59060Y-42376D01*
X59094Y-42363D01*
X59111Y-42336D01*
X59111Y-42231D01*
X59094Y-42205D01*
X59060Y-42192D01*
X58993Y-42192D01*
X58959Y-42205D01*
X58942Y-42231D01*
X58942Y-42257D01*
X59111Y-42284D01*
X58791Y-42376D02*
X58791Y-42192D01*
X58791Y-42218D02*
X58774Y-42205D01*
X58740Y-42192D01*
X58690Y-42192D01*
X58656Y-42205D01*
X58639Y-42231D01*
X58639Y-42376D01*
X58639Y-42231D02*
X58622Y-42205D01*
X58588Y-42192D01*
X58538Y-42192D01*
X58504Y-42205D01*
X58487Y-42231D01*
X58487Y-42376D01*
X58083Y-42402D02*
X58116Y-42389D01*
X58150Y-42363D01*
X58201Y-42323D01*
X58234Y-42310D01*
X58268Y-42310D01*
X58251Y-42376D02*
X58285Y-42363D01*
X58319Y-42336D01*
X58336Y-42284D01*
X58336Y-42192D01*
X58319Y-42139D01*
X58285Y-42113D01*
X58251Y-42100D01*
X58184Y-42100D01*
X58150Y-42113D01*
X58116Y-42139D01*
X58100Y-42192D01*
X58100Y-42284D01*
X58116Y-42336D01*
X58150Y-42363D01*
X58184Y-42376D01*
X58251Y-42376D01*
X57948Y-42376D02*
X57948Y-42100D01*
X57948Y-42205D02*
X57914Y-42192D01*
X57847Y-42192D01*
X57813Y-42205D01*
X57796Y-42218D01*
X57779Y-42244D01*
X57779Y-42323D01*
X57796Y-42349D01*
X57813Y-42363D01*
X57847Y-42376D01*
X57914Y-42376D01*
X57948Y-42363D01*
X57628Y-42376D02*
X57628Y-42192D01*
X57628Y-42100D02*
X57645Y-42113D01*
X57628Y-42126D01*
X57611Y-42113D01*
X57628Y-42100D01*
X57628Y-42126D01*
X57509Y-42192D02*
X57374Y-42192D01*
X57459Y-42100D02*
X57459Y-42336D01*
X57442Y-42363D01*
X57408Y-42376D01*
X57374Y-42376D01*
G54D13*
X60703Y-54143D02*
X60572Y-54143D01*
X60730Y-54222D02*
X60638Y-53946D01*
X60546Y-54222D01*
X52605Y-48907D02*
X52474Y-48907D01*
X52632Y-48986D02*
X52540Y-48710D01*
X52448Y-48986D01*
X60211Y-43747D02*
X60001Y-43747D01*
X60106Y-43852D02*
X60106Y-43641D01*
X58270Y-51038D02*
X58060Y-51038D01*
X58165Y-51143D02*
X58165Y-50932D01*
X51527Y-51751D02*
X51317Y-51751D01*
X51422Y-51856D02*
X51422Y-51645D01*
X48542Y-43487D02*
X48332Y-43487D01*
X48437Y-43592D02*
X48437Y-43381D01*
X54904Y-46802D02*
X54694Y-46802D01*
X54799Y-46907D02*
X54799Y-46696D01*
X50971Y-44487D02*
X50761Y-44487D01*
X50866Y-44592D02*
X50866Y-44381D01*
G54D14*
X50718Y-46944D02*
X50581Y-46944D01*
X50650Y-47050D02*
X50650Y-46837D01*
G54D15*
X58146Y-53725D02*
X58146Y-54433D01*
X58146Y-54433D02*
X58185Y-54453D01*
X58185Y-54453D02*
X58185Y-54433D01*
X58185Y-53705D02*
X58146Y-53725D01*
X58953Y-53705D02*
X58953Y-54433D01*
X58953Y-54433D02*
X58992Y-54433D01*
X58992Y-54433D02*
X58992Y-53705D01*
X59681Y-53705D02*
X58185Y-53705D01*
X58185Y-53705D02*
X58185Y-54433D01*
X58185Y-54433D02*
X58185Y-54453D01*
X58185Y-54453D02*
X60429Y-54453D01*
X60429Y-54453D02*
X60429Y-53705D01*
X60429Y-53705D02*
X59681Y-53705D01*
G54D11*
X52752Y-49107D02*
X54205Y-49103D01*
X54216Y-49083D02*
X54216Y-48607D01*
X54216Y-48607D02*
X52756Y-48611D01*
X52756Y-48611D02*
X52756Y-49071D01*
G54D16*
X58026Y-38889D02*
X58026Y-34029D01*
X58026Y-34029D02*
X58076Y-33979D01*
X58076Y-33979D02*
X64816Y-33979D01*
X64816Y-33979D02*
X64816Y-39689D01*
X64816Y-39689D02*
X63806Y-39689D01*
X63806Y-39689D02*
X63806Y-39919D01*
X63806Y-39919D02*
X58576Y-39919D01*
X58576Y-39919D02*
X58576Y-39709D01*
X58576Y-39709D02*
X58016Y-39709D01*
X58016Y-39709D02*
X58016Y-38859D01*
G54D17*
X54913Y-41917D02*
X54912Y-41926D01*
X54909Y-41936D01*
X54904Y-41944D01*
X54898Y-41952D01*
X54890Y-41958D01*
X54882Y-41963D01*
X54873Y-41965D01*
X54863Y-41966D01*
X54854Y-41966D01*
X54845Y-41963D01*
X54836Y-41958D01*
X54829Y-41952D01*
X54822Y-41945D01*
X54818Y-41936D01*
X54815Y-41927D01*
X54814Y-41917D01*
X54814Y-41908D01*
X54817Y-41899D01*
X54821Y-41890D01*
X54828Y-41883D01*
X54835Y-41876D01*
X54843Y-41872D01*
X54853Y-41869D01*
X54862Y-41868D01*
X54871Y-41868D01*
X54881Y-41871D01*
X54889Y-41875D01*
X54897Y-41881D01*
X54903Y-41889D01*
X54908Y-41897D01*
X54911Y-41906D01*
X54912Y-41916D01*
X54913Y-41917D01*
X54863Y-42367D02*
X54863Y-41967D01*
X54863Y-41967D02*
X54263Y-41967D01*
X54263Y-41967D02*
X54263Y-42367D01*
X54263Y-42767D02*
X54263Y-43167D01*
X54263Y-43167D02*
X54863Y-43167D01*
X54863Y-43167D02*
X54863Y-42767D01*
X64643Y-41994D02*
X63743Y-41994D01*
X63743Y-41994D02*
X63743Y-42494D01*
X63743Y-42494D02*
X64643Y-42494D01*
X64643Y-42494D02*
X64643Y-41994D01*
X62746Y-47856D02*
X62746Y-46956D01*
X62746Y-46956D02*
X62246Y-46956D01*
X62246Y-46956D02*
X62246Y-47856D01*
X62246Y-47856D02*
X62746Y-47856D01*
X50850Y-47371D02*
X50850Y-46471D01*
X50850Y-46471D02*
X51500Y-46471D01*
X52200Y-47371D02*
X52850Y-47371D01*
X52850Y-47371D02*
X52850Y-46471D01*
X52850Y-46471D02*
X52200Y-46471D01*
X51500Y-47371D02*
X50850Y-47371D01*
X54786Y-47035D02*
X55686Y-47035D01*
X55686Y-47035D02*
X55686Y-47685D01*
X54786Y-48385D02*
X54786Y-49035D01*
X54786Y-49035D02*
X55686Y-49035D01*
X55686Y-49035D02*
X55686Y-48385D01*
X54786Y-47685D02*
X54786Y-47035D01*
X51189Y-43385D02*
X51189Y-44285D01*
X51189Y-44285D02*
X50539Y-44285D01*
X49839Y-43385D02*
X49189Y-43385D01*
X49189Y-43385D02*
X49189Y-44285D01*
X49189Y-44285D02*
X49839Y-44285D01*
X50539Y-43385D02*
X51189Y-43385D01*
X49458Y-43217D02*
X48558Y-43217D01*
X48558Y-43217D02*
X48558Y-42567D01*
X49458Y-41867D02*
X49458Y-41217D01*
X49458Y-41217D02*
X48558Y-41217D01*
X48558Y-41217D02*
X48558Y-41867D01*
X49458Y-42567D02*
X49458Y-43217D01*
X53251Y-34817D02*
X54151Y-34817D01*
X54151Y-34817D02*
X54151Y-34317D01*
X54151Y-34317D02*
X53251Y-34317D01*
X53251Y-34317D02*
X53251Y-34817D01*
X53107Y-34140D02*
X52207Y-34140D01*
X52207Y-34140D02*
X52207Y-34640D01*
X52207Y-34640D02*
X53107Y-34640D01*
X53107Y-34640D02*
X53107Y-34140D01*
X48978Y-40219D02*
X48978Y-41119D01*
X48978Y-41119D02*
X49478Y-41119D01*
X49478Y-41119D02*
X49478Y-40219D01*
X49478Y-40219D02*
X48978Y-40219D01*
X56541Y-40302D02*
X56541Y-41202D01*
X56541Y-41202D02*
X57041Y-41202D01*
X57041Y-41202D02*
X57041Y-40302D01*
X57041Y-40302D02*
X56541Y-40302D01*
X57116Y-40302D02*
X57116Y-41202D01*
X57116Y-41202D02*
X57616Y-41202D01*
X57616Y-41202D02*
X57616Y-40302D01*
X57616Y-40302D02*
X57116Y-40302D01*
X52805Y-40298D02*
X52805Y-41198D01*
X52805Y-41198D02*
X53305Y-41198D01*
X53305Y-41198D02*
X53305Y-40298D01*
X53305Y-40298D02*
X52805Y-40298D01*
X53585Y-40298D02*
X53585Y-41198D01*
X53585Y-41198D02*
X54085Y-41198D01*
X54085Y-41198D02*
X54085Y-40298D01*
X54085Y-40298D02*
X53585Y-40298D01*
X55128Y-40302D02*
X55128Y-41202D01*
X55128Y-41202D02*
X55628Y-41202D01*
X55628Y-41202D02*
X55628Y-40302D01*
X55628Y-40302D02*
X55128Y-40302D01*
X55490Y-44475D02*
X55490Y-45375D01*
X55490Y-45375D02*
X55990Y-45375D01*
X55990Y-45375D02*
X55990Y-44475D01*
X55990Y-44475D02*
X55490Y-44475D01*
X50686Y-42817D02*
X49786Y-42817D01*
X49786Y-42817D02*
X49786Y-43317D01*
X49786Y-43317D02*
X50686Y-43317D01*
X50686Y-43317D02*
X50686Y-42817D01*
X49774Y-51330D02*
X49774Y-52230D01*
X49774Y-52230D02*
X50274Y-52230D01*
X50274Y-52230D02*
X50274Y-51330D01*
X50274Y-51330D02*
X49774Y-51330D01*
X50695Y-50330D02*
X50695Y-51230D01*
X50695Y-51230D02*
X51195Y-51230D01*
X51195Y-51230D02*
X51195Y-50330D01*
X51195Y-50330D02*
X50695Y-50330D01*
X51203Y-45492D02*
X51203Y-46392D01*
X51203Y-46392D02*
X51703Y-46392D01*
X51703Y-46392D02*
X51703Y-45492D01*
X51703Y-45492D02*
X51203Y-45492D01*
X51786Y-45211D02*
X52686Y-45211D01*
X52686Y-45211D02*
X52686Y-44711D01*
X52686Y-44711D02*
X51786Y-44711D01*
X51786Y-44711D02*
X51786Y-45211D01*
X51794Y-45806D02*
X52694Y-45806D01*
X52694Y-45806D02*
X52694Y-45306D01*
X52694Y-45306D02*
X51794Y-45306D01*
X51794Y-45306D02*
X51794Y-45806D01*
X51794Y-46393D02*
X52694Y-46393D01*
X52694Y-46393D02*
X52694Y-45893D01*
X52694Y-45893D02*
X51794Y-45893D01*
X51794Y-45893D02*
X51794Y-46393D01*
X53778Y-48522D02*
X54678Y-48522D01*
X54678Y-48522D02*
X54678Y-48022D01*
X54678Y-48022D02*
X53778Y-48022D01*
X53778Y-48022D02*
X53778Y-48522D01*
X53778Y-47947D02*
X54678Y-47947D01*
X54678Y-47947D02*
X54678Y-47447D01*
X54678Y-47447D02*
X53778Y-47447D01*
X53778Y-47447D02*
X53778Y-47947D01*
X58786Y-40907D02*
X59686Y-40907D01*
X59686Y-40907D02*
X59686Y-40407D01*
X59686Y-40407D02*
X58786Y-40407D01*
X58786Y-40407D02*
X58786Y-40907D01*
X52435Y-42596D02*
X52435Y-41696D01*
X52435Y-41696D02*
X51935Y-41696D01*
X51935Y-41696D02*
X51935Y-42596D01*
X51935Y-42596D02*
X52435Y-42596D01*
X54081Y-42981D02*
X54081Y-42081D01*
X54081Y-42081D02*
X53581Y-42081D01*
X53581Y-42081D02*
X53581Y-42981D01*
X53581Y-42981D02*
X54081Y-42981D01*
X53514Y-42981D02*
X53514Y-42081D01*
X53514Y-42081D02*
X53014Y-42081D01*
X53014Y-42081D02*
X53014Y-42981D01*
X53014Y-42981D02*
X53514Y-42981D01*
X50623Y-42569D02*
X50623Y-41669D01*
X50623Y-41669D02*
X50123Y-41669D01*
X50123Y-41669D02*
X50123Y-42569D01*
X50123Y-42569D02*
X50623Y-42569D01*
X51639Y-41805D02*
X50739Y-41805D01*
X50739Y-41805D02*
X50739Y-42305D01*
X50739Y-42305D02*
X51639Y-42305D01*
X51639Y-42305D02*
X51639Y-41805D01*
X50049Y-42569D02*
X50049Y-41669D01*
X50049Y-41669D02*
X49549Y-41669D01*
X49549Y-41669D02*
X49549Y-42569D01*
X49549Y-42569D02*
X50049Y-42569D01*
X51896Y-43152D02*
X51896Y-44052D01*
X51896Y-44052D02*
X52396Y-44052D01*
X52396Y-44052D02*
X52396Y-43152D01*
X52396Y-43152D02*
X51896Y-43152D01*
X52763Y-42006D02*
X53663Y-42006D01*
X53663Y-42006D02*
X53663Y-41506D01*
X53663Y-41506D02*
X52763Y-41506D01*
X52763Y-41506D02*
X52763Y-42006D01*
X57104Y-42895D02*
X57104Y-41995D01*
X57104Y-41995D02*
X56604Y-41995D01*
X56604Y-41995D02*
X56604Y-42895D01*
X56604Y-42895D02*
X57104Y-42895D01*
X57862Y-44541D02*
X57862Y-43641D01*
X57862Y-43641D02*
X58512Y-43641D01*
X59212Y-44541D02*
X59862Y-44541D01*
X59862Y-44541D02*
X59862Y-43641D01*
X59862Y-43641D02*
X59212Y-43641D01*
X58512Y-44541D02*
X57862Y-44541D01*
X59061Y-46436D02*
X59061Y-47336D01*
X59061Y-47336D02*
X59561Y-47336D01*
X59561Y-47336D02*
X59561Y-46436D01*
X59561Y-46436D02*
X59061Y-46436D01*
X58915Y-45467D02*
X58015Y-45467D01*
X58015Y-45467D02*
X58015Y-45967D01*
X58015Y-45967D02*
X58915Y-45967D01*
X58915Y-45967D02*
X58915Y-45467D01*
X57790Y-49179D02*
X58690Y-49179D01*
X58690Y-49179D02*
X58690Y-48679D01*
X58690Y-48679D02*
X57790Y-48679D01*
X57790Y-48679D02*
X57790Y-49179D01*
X60629Y-47537D02*
X61529Y-47537D01*
X61529Y-47537D02*
X61529Y-47037D01*
X61529Y-47037D02*
X60629Y-47037D01*
X60629Y-47037D02*
X60629Y-47537D01*
X59849Y-45557D02*
X60749Y-45557D01*
X60749Y-45557D02*
X60749Y-45057D01*
X60749Y-45057D02*
X59849Y-45057D01*
X59849Y-45057D02*
X59849Y-45557D01*
X60597Y-48719D02*
X61497Y-48719D01*
X61497Y-48719D02*
X61497Y-48219D01*
X61497Y-48219D02*
X60597Y-48219D01*
X60597Y-48219D02*
X60597Y-48719D01*
X59849Y-46128D02*
X60749Y-46128D01*
X60749Y-46128D02*
X60749Y-45628D01*
X60749Y-45628D02*
X59849Y-45628D01*
X59849Y-45628D02*
X59849Y-46128D01*
X57470Y-44719D02*
X56570Y-44719D01*
X56570Y-44719D02*
X56570Y-45219D01*
X56570Y-45219D02*
X57470Y-45219D01*
X57470Y-45219D02*
X57470Y-44719D01*
X58078Y-48281D02*
X58978Y-48281D01*
X58978Y-48281D02*
X58978Y-47781D01*
X58978Y-47781D02*
X58078Y-47781D01*
X58078Y-47781D02*
X58078Y-48281D01*
X58471Y-43514D02*
X59371Y-43514D01*
X59371Y-43514D02*
X59371Y-43014D01*
X59371Y-43014D02*
X58471Y-43014D01*
X58471Y-43014D02*
X58471Y-43514D01*
X57999Y-53608D02*
X58899Y-53608D01*
X58899Y-53608D02*
X58899Y-53108D01*
X58899Y-53108D02*
X57999Y-53108D01*
X57999Y-53108D02*
X57999Y-53608D01*
X56547Y-51299D02*
X56546Y-51308D01*
X56543Y-51318D01*
X56538Y-51326D01*
X56532Y-51334D01*
X56524Y-51340D01*
X56516Y-51345D01*
X56507Y-51347D01*
X56497Y-51348D01*
X56488Y-51348D01*
X56479Y-51345D01*
X56470Y-51340D01*
X56463Y-51334D01*
X56456Y-51327D01*
X56452Y-51318D01*
X56449Y-51309D01*
X56448Y-51299D01*
X56448Y-51290D01*
X56451Y-51281D01*
X56455Y-51272D01*
X56462Y-51265D01*
X56469Y-51258D01*
X56477Y-51254D01*
X56487Y-51251D01*
X56496Y-51250D01*
X56505Y-51250D01*
X56515Y-51253D01*
X56523Y-51257D01*
X56531Y-51263D01*
X56537Y-51271D01*
X56542Y-51279D01*
X56545Y-51288D01*
X56546Y-51298D01*
X56547Y-51299D01*
X56497Y-51749D02*
X56497Y-51349D01*
X56497Y-51349D02*
X55897Y-51349D01*
X55897Y-51349D02*
X55897Y-51749D01*
X55897Y-52149D02*
X55897Y-52549D01*
X55897Y-52549D02*
X56497Y-52549D01*
X56497Y-52549D02*
X56497Y-52149D01*
X55974Y-43221D02*
X55973Y-43230D01*
X55970Y-43240D01*
X55965Y-43248D01*
X55959Y-43256D01*
X55951Y-43262D01*
X55943Y-43267D01*
X55934Y-43269D01*
X55924Y-43270D01*
X55915Y-43270D01*
X55906Y-43267D01*
X55897Y-43262D01*
X55890Y-43256D01*
X55883Y-43249D01*
X55879Y-43240D01*
X55876Y-43231D01*
X55875Y-43221D01*
X55875Y-43212D01*
X55878Y-43203D01*
X55882Y-43194D01*
X55889Y-43187D01*
X55896Y-43180D01*
X55904Y-43176D01*
X55914Y-43173D01*
X55923Y-43172D01*
X55932Y-43172D01*
X55942Y-43175D01*
X55950Y-43179D01*
X55958Y-43185D01*
X55964Y-43193D01*
X55969Y-43201D01*
X55972Y-43210D01*
X55973Y-43220D01*
X55974Y-43221D01*
X55924Y-42771D02*
X55924Y-43171D01*
X55924Y-43171D02*
X56524Y-43171D01*
X56524Y-43171D02*
X56524Y-42771D01*
X56524Y-42371D02*
X56524Y-41971D01*
X56524Y-41971D02*
X55924Y-41971D01*
X55924Y-41971D02*
X55924Y-42371D01*
X57994Y-44688D02*
X57993Y-44697D01*
X57990Y-44707D01*
X57985Y-44715D01*
X57979Y-44723D01*
X57971Y-44729D01*
X57963Y-44734D01*
X57954Y-44736D01*
X57944Y-44737D01*
X57935Y-44737D01*
X57926Y-44734D01*
X57917Y-44729D01*
X57910Y-44723D01*
X57903Y-44716D01*
X57899Y-44707D01*
X57896Y-44698D01*
X57895Y-44688D01*
X57895Y-44679D01*
X57898Y-44670D01*
X57902Y-44661D01*
X57909Y-44654D01*
X57916Y-44647D01*
X57924Y-44643D01*
X57934Y-44640D01*
X57943Y-44639D01*
X57952Y-44639D01*
X57962Y-44642D01*
X57970Y-44646D01*
X57978Y-44652D01*
X57984Y-44660D01*
X57989Y-44668D01*
X57992Y-44677D01*
X57993Y-44687D01*
X57994Y-44688D01*
X58394Y-44688D02*
X57994Y-44688D01*
X57994Y-44688D02*
X57994Y-45288D01*
X57994Y-45288D02*
X58394Y-45288D01*
X58794Y-45288D02*
X59194Y-45288D01*
X59194Y-45288D02*
X59194Y-44688D01*
X59194Y-44688D02*
X58794Y-44688D01*
X55222Y-43221D02*
X55221Y-43230D01*
X55218Y-43240D01*
X55213Y-43248D01*
X55207Y-43256D01*
X55199Y-43262D01*
X55191Y-43267D01*
X55182Y-43269D01*
X55172Y-43270D01*
X55163Y-43270D01*
X55154Y-43267D01*
X55145Y-43262D01*
X55138Y-43256D01*
X55131Y-43249D01*
X55127Y-43240D01*
X55124Y-43231D01*
X55123Y-43221D01*
X55123Y-43212D01*
X55126Y-43203D01*
X55130Y-43194D01*
X55137Y-43187D01*
X55144Y-43180D01*
X55152Y-43176D01*
X55162Y-43173D01*
X55171Y-43172D01*
X55180Y-43172D01*
X55190Y-43175D01*
X55198Y-43179D01*
X55206Y-43185D01*
X55212Y-43193D01*
X55217Y-43201D01*
X55220Y-43210D01*
X55221Y-43220D01*
X55222Y-43221D01*
X55172Y-42771D02*
X55172Y-43171D01*
X55172Y-43171D02*
X55772Y-43171D01*
X55772Y-43171D02*
X55772Y-42771D01*
X55772Y-42371D02*
X55772Y-41971D01*
X55772Y-41971D02*
X55172Y-41971D01*
X55172Y-41971D02*
X55172Y-42371D01*
X58398Y-51761D02*
X58398Y-50861D01*
X58398Y-50861D02*
X59048Y-50861D01*
X59748Y-51761D02*
X60398Y-51761D01*
X60398Y-51761D02*
X60398Y-50861D01*
X60398Y-50861D02*
X59748Y-50861D01*
X59048Y-51761D02*
X58398Y-51761D01*
X64809Y-48969D02*
X64809Y-49755D01*
X64809Y-49755D02*
X63861Y-49755D01*
X63861Y-49755D02*
X63861Y-48969D01*
X63861Y-48969D02*
X64809Y-48969D01*
X58973Y-52766D02*
X59759Y-52766D01*
X59759Y-52766D02*
X59759Y-53714D01*
X59759Y-53714D02*
X58973Y-53714D01*
X58973Y-53714D02*
X58973Y-52766D01*
X64813Y-50981D02*
X64813Y-51767D01*
X64813Y-51767D02*
X63865Y-51767D01*
X63865Y-51767D02*
X63865Y-50981D01*
X63865Y-50981D02*
X64813Y-50981D01*
X64813Y-49961D02*
X64813Y-50747D01*
X64813Y-50747D02*
X63865Y-50747D01*
X63865Y-50747D02*
X63865Y-49961D01*
X63865Y-49961D02*
X64813Y-49961D01*
G54D18*
X57338Y-38691D02*
X57332Y-38744D01*
X57317Y-38796D01*
X57291Y-38844D01*
X57257Y-38886D01*
X57215Y-38921D01*
X57167Y-38947D01*
X57115Y-38963D01*
X57061Y-38968D01*
X57008Y-38964D01*
X56956Y-38948D01*
X56908Y-38923D01*
X56866Y-38889D01*
X56831Y-38848D01*
X56805Y-38800D01*
X56789Y-38748D01*
X56783Y-38694D01*
X56787Y-38641D01*
X56802Y-38589D01*
X56827Y-38541D01*
X56861Y-38498D01*
X56902Y-38463D01*
X56949Y-38437D01*
X57001Y-38420D01*
X57055Y-38414D01*
X57108Y-38418D01*
X57160Y-38432D01*
X57208Y-38457D01*
X57251Y-38490D01*
X57287Y-38531D01*
X57313Y-38578D01*
X57331Y-38630D01*
X57337Y-38684D01*
X57338Y-38691D01*
X57355Y-36919D02*
X57651Y-36919D01*
X57355Y-36132D02*
X57651Y-36132D01*
X49285Y-37018D02*
X48989Y-37018D01*
X49285Y-36230D02*
X48989Y-36230D01*
X49302Y-37017D02*
X49335Y-36982D01*
X49365Y-36943D01*
X49391Y-36902D01*
X49413Y-36859D01*
X49432Y-36814D01*
X49447Y-36768D01*
X49457Y-36720D01*
X49463Y-36672D01*
X49466Y-36624D01*
X49463Y-36576D01*
X49457Y-36528D01*
X49447Y-36480D01*
X49432Y-36434D01*
X49413Y-36389D01*
X49391Y-36346D01*
X49365Y-36305D01*
X49335Y-36266D01*
X49302Y-36231D01*
X57338Y-36133D02*
X57305Y-36168D01*
X57275Y-36207D01*
X57249Y-36248D01*
X57227Y-36291D01*
X57208Y-36336D01*
X57193Y-36382D01*
X57183Y-36430D01*
X57177Y-36478D01*
X57174Y-36526D01*
X57177Y-36574D01*
X57183Y-36622D01*
X57193Y-36670D01*
X57208Y-36716D01*
X57227Y-36761D01*
X57249Y-36804D01*
X57275Y-36845D01*
X57305Y-36884D01*
X57338Y-36919D01*
X57690Y-39510D02*
X57513Y-39510D01*
X48950Y-39510D02*
X49127Y-39510D01*
X48950Y-35510D02*
X49127Y-35510D01*
X57690Y-35510D02*
X57513Y-35510D01*
X57694Y-35510D02*
X57694Y-39510D01*
X48946Y-35510D02*
X48946Y-39510D01*
G54D11*
X57504Y-47890D02*
X57504Y-46000D01*
X57504Y-46000D02*
X58961Y-46000D01*
X58961Y-46000D02*
X58961Y-47771D01*
X58961Y-47771D02*
X57426Y-47771D01*
X57426Y-47771D02*
X57347Y-47771D01*
X57347Y-47771D02*
X57347Y-47890D01*
X57347Y-47890D02*
X57465Y-47890D01*
G54D17*
X51288Y-51504D02*
X51287Y-51513D01*
X51284Y-51523D01*
X51279Y-51531D01*
X51273Y-51539D01*
X51265Y-51545D01*
X51257Y-51550D01*
X51248Y-51552D01*
X51238Y-51553D01*
X51229Y-51553D01*
X51220Y-51550D01*
X51211Y-51545D01*
X51204Y-51539D01*
X51197Y-51532D01*
X51193Y-51523D01*
X51190Y-51514D01*
X51189Y-51504D01*
X51189Y-51495D01*
X51192Y-51486D01*
X51196Y-51477D01*
X51203Y-51470D01*
X51210Y-51463D01*
X51218Y-51459D01*
X51228Y-51456D01*
X51237Y-51455D01*
X51246Y-51455D01*
X51256Y-51458D01*
X51264Y-51462D01*
X51272Y-51468D01*
X51278Y-51476D01*
X51283Y-51484D01*
X51286Y-51493D01*
X51287Y-51503D01*
X51288Y-51504D01*
X51238Y-51954D02*
X51238Y-51554D01*
X51238Y-51554D02*
X50638Y-51554D01*
X50638Y-51554D02*
X50638Y-51954D01*
X50638Y-52354D02*
X50638Y-52754D01*
X50638Y-52754D02*
X51238Y-52754D01*
X51238Y-52754D02*
X51238Y-52354D01*
X51389Y-41540D02*
X51388Y-41549D01*
X51385Y-41559D01*
X51380Y-41567D01*
X51374Y-41575D01*
X51366Y-41581D01*
X51358Y-41586D01*
X51349Y-41588D01*
X51339Y-41589D01*
X51330Y-41589D01*
X51321Y-41586D01*
X51312Y-41581D01*
X51305Y-41575D01*
X51298Y-41568D01*
X51294Y-41559D01*
X51291Y-41550D01*
X51290Y-41540D01*
X51290Y-41531D01*
X51293Y-41522D01*
X51297Y-41513D01*
X51304Y-41506D01*
X51311Y-41499D01*
X51319Y-41495D01*
X51329Y-41492D01*
X51338Y-41491D01*
X51347Y-41491D01*
X51357Y-41494D01*
X51365Y-41498D01*
X51373Y-41504D01*
X51379Y-41512D01*
X51384Y-41520D01*
X51387Y-41529D01*
X51388Y-41539D01*
X51389Y-41540D01*
X50889Y-41540D02*
X51289Y-41540D01*
X51289Y-41540D02*
X51289Y-40940D01*
X51289Y-40940D02*
X50889Y-40940D01*
X50489Y-40940D02*
X50089Y-40940D01*
X50089Y-40940D02*
X50089Y-41540D01*
X50089Y-41540D02*
X50489Y-41540D01*
X51035Y-34560D02*
X51034Y-34569D01*
X51031Y-34579D01*
X51026Y-34587D01*
X51020Y-34595D01*
X51012Y-34601D01*
X51004Y-34606D01*
X50995Y-34608D01*
X50985Y-34609D01*
X50976Y-34609D01*
X50967Y-34606D01*
X50958Y-34601D01*
X50951Y-34595D01*
X50944Y-34588D01*
X50940Y-34579D01*
X50937Y-34570D01*
X50936Y-34560D01*
X50936Y-34551D01*
X50939Y-34542D01*
X50943Y-34533D01*
X50950Y-34526D01*
X50957Y-34519D01*
X50965Y-34515D01*
X50975Y-34512D01*
X50984Y-34511D01*
X50993Y-34511D01*
X51003Y-34514D01*
X51011Y-34518D01*
X51019Y-34524D01*
X51025Y-34532D01*
X51030Y-34540D01*
X51033Y-34549D01*
X51034Y-34559D01*
X51035Y-34560D01*
X50535Y-34560D02*
X50935Y-34560D01*
X50935Y-34560D02*
X50935Y-33960D01*
X50935Y-33960D02*
X50535Y-33960D01*
X50135Y-33960D02*
X49735Y-33960D01*
X49735Y-33960D02*
X49735Y-34560D01*
X49735Y-34560D02*
X50135Y-34560D01*
X34538Y-53279D02*
X34537Y-53288D01*
X34534Y-53298D01*
X34529Y-53306D01*
X34523Y-53314D01*
X34515Y-53320D01*
X34507Y-53325D01*
X34498Y-53327D01*
X34488Y-53328D01*
X34479Y-53328D01*
X34470Y-53325D01*
X34461Y-53320D01*
X34454Y-53314D01*
X34447Y-53307D01*
X34443Y-53298D01*
X34440Y-53289D01*
X34439Y-53279D01*
X34439Y-53270D01*
X34442Y-53261D01*
X34446Y-53252D01*
X34453Y-53245D01*
X34460Y-53238D01*
X34468Y-53234D01*
X34478Y-53231D01*
X34487Y-53230D01*
X34496Y-53230D01*
X34506Y-53233D01*
X34514Y-53237D01*
X34522Y-53243D01*
X34528Y-53251D01*
X34533Y-53259D01*
X34536Y-53268D01*
X34537Y-53278D01*
X34538Y-53279D01*
X34938Y-53279D02*
X34538Y-53279D01*
X34538Y-53279D02*
X34538Y-53879D01*
X34538Y-53879D02*
X34938Y-53879D01*
X35338Y-53879D02*
X35738Y-53879D01*
X35738Y-53879D02*
X35738Y-53279D01*
X35738Y-53279D02*
X35338Y-53279D01*
X55518Y-33881D02*
X55517Y-33890D01*
X55514Y-33900D01*
X55509Y-33908D01*
X55503Y-33916D01*
X55495Y-33922D01*
X55487Y-33927D01*
X55478Y-33929D01*
X55468Y-33930D01*
X55459Y-33930D01*
X55450Y-33927D01*
X55441Y-33922D01*
X55434Y-33916D01*
X55427Y-33909D01*
X55423Y-33900D01*
X55420Y-33891D01*
X55419Y-33881D01*
X55419Y-33872D01*
X55422Y-33863D01*
X55426Y-33854D01*
X55433Y-33847D01*
X55440Y-33840D01*
X55448Y-33836D01*
X55458Y-33833D01*
X55467Y-33832D01*
X55476Y-33832D01*
X55486Y-33835D01*
X55494Y-33839D01*
X55502Y-33845D01*
X55508Y-33853D01*
X55513Y-33861D01*
X55516Y-33870D01*
X55517Y-33880D01*
X55518Y-33881D01*
X55918Y-33881D02*
X55518Y-33881D01*
X55518Y-33881D02*
X55518Y-34481D01*
X55518Y-34481D02*
X55918Y-34481D01*
X56318Y-34481D02*
X56718Y-34481D01*
X56718Y-34481D02*
X56718Y-33881D01*
X56718Y-33881D02*
X56318Y-33881D01*
X38448Y-36770D02*
X38447Y-36779D01*
X38444Y-36789D01*
X38439Y-36797D01*
X38433Y-36805D01*
X38425Y-36811D01*
X38417Y-36816D01*
X38408Y-36818D01*
X38398Y-36819D01*
X38389Y-36819D01*
X38380Y-36816D01*
X38371Y-36811D01*
X38364Y-36805D01*
X38357Y-36798D01*
X38353Y-36789D01*
X38350Y-36780D01*
X38349Y-36770D01*
X38349Y-36761D01*
X38352Y-36752D01*
X38356Y-36743D01*
X38363Y-36736D01*
X38370Y-36729D01*
X38378Y-36725D01*
X38388Y-36722D01*
X38397Y-36721D01*
X38406Y-36721D01*
X38416Y-36724D01*
X38424Y-36728D01*
X38432Y-36734D01*
X38438Y-36742D01*
X38443Y-36750D01*
X38446Y-36759D01*
X38447Y-36769D01*
X38448Y-36770D01*
X38848Y-36770D02*
X38448Y-36770D01*
X38448Y-36770D02*
X38448Y-37370D01*
X38448Y-37370D02*
X38848Y-37370D01*
X39248Y-37370D02*
X39648Y-37370D01*
X39648Y-37370D02*
X39648Y-36770D01*
X39648Y-36770D02*
X39248Y-36770D01*
X39455Y-39189D02*
X39454Y-39198D01*
X39451Y-39208D01*
X39446Y-39216D01*
X39440Y-39224D01*
X39432Y-39230D01*
X39424Y-39235D01*
X39415Y-39237D01*
X39405Y-39238D01*
X39396Y-39238D01*
X39387Y-39235D01*
X39378Y-39230D01*
X39371Y-39224D01*
X39364Y-39217D01*
X39360Y-39208D01*
X39357Y-39199D01*
X39356Y-39189D01*
X39356Y-39180D01*
X39359Y-39171D01*
X39363Y-39162D01*
X39370Y-39155D01*
X39377Y-39148D01*
X39385Y-39144D01*
X39395Y-39141D01*
X39404Y-39140D01*
X39413Y-39140D01*
X39423Y-39143D01*
X39431Y-39147D01*
X39439Y-39153D01*
X39445Y-39161D01*
X39450Y-39169D01*
X39453Y-39178D01*
X39454Y-39188D01*
X39455Y-39189D01*
X39405Y-38739D02*
X39405Y-39139D01*
X39405Y-39139D02*
X40005Y-39139D01*
X40005Y-39139D02*
X40005Y-38739D01*
X40005Y-38339D02*
X40005Y-37939D01*
X40005Y-37939D02*
X39405Y-37939D01*
X39405Y-37939D02*
X39405Y-38339D01*
X39220Y-38311D02*
X39219Y-38320D01*
X39216Y-38330D01*
X39211Y-38338D01*
X39205Y-38346D01*
X39197Y-38352D01*
X39189Y-38357D01*
X39180Y-38359D01*
X39170Y-38360D01*
X39161Y-38360D01*
X39152Y-38357D01*
X39143Y-38352D01*
X39136Y-38346D01*
X39129Y-38339D01*
X39125Y-38330D01*
X39122Y-38321D01*
X39121Y-38311D01*
X39121Y-38302D01*
X39124Y-38293D01*
X39128Y-38284D01*
X39135Y-38277D01*
X39142Y-38270D01*
X39150Y-38266D01*
X39160Y-38263D01*
X39169Y-38262D01*
X39178Y-38262D01*
X39188Y-38265D01*
X39196Y-38269D01*
X39204Y-38275D01*
X39210Y-38283D01*
X39215Y-38291D01*
X39218Y-38300D01*
X39219Y-38310D01*
X39220Y-38311D01*
X38720Y-38311D02*
X39120Y-38311D01*
X39120Y-38311D02*
X39120Y-37711D01*
X39120Y-37711D02*
X38720Y-37711D01*
X38320Y-37711D02*
X37920Y-37711D01*
X37920Y-37711D02*
X37920Y-38311D01*
X37920Y-38311D02*
X38320Y-38311D01*
X41069Y-37966D02*
X40169Y-37966D01*
X40169Y-37966D02*
X40169Y-38466D01*
X40169Y-38466D02*
X41069Y-38466D01*
X41069Y-38466D02*
X41069Y-37966D01*
X41307Y-38466D02*
X42207Y-38466D01*
X42207Y-38466D02*
X42207Y-37966D01*
X42207Y-37966D02*
X41307Y-37966D01*
X41307Y-37966D02*
X41307Y-38466D01*
X39041Y-38415D02*
X38141Y-38415D01*
X38141Y-38415D02*
X38141Y-38915D01*
X38141Y-38915D02*
X39041Y-38915D01*
X39041Y-38915D02*
X39041Y-38415D01*
X42846Y-42316D02*
X43746Y-42316D01*
X43746Y-42316D02*
X43746Y-41816D01*
X43746Y-41816D02*
X42846Y-41816D01*
X42846Y-41816D02*
X42846Y-42316D01*
X37573Y-38360D02*
X36673Y-38360D01*
X36673Y-38360D02*
X36673Y-38860D01*
X36673Y-38860D02*
X37573Y-38860D01*
X37573Y-38860D02*
X37573Y-38360D01*
X37608Y-40923D02*
X36708Y-40923D01*
X36708Y-40923D02*
X36708Y-41423D01*
X36708Y-41423D02*
X37608Y-41423D01*
X37608Y-41423D02*
X37608Y-40923D01*
X39345Y-41162D02*
X39345Y-40262D01*
X39345Y-40262D02*
X38845Y-40262D01*
X38845Y-40262D02*
X38845Y-41162D01*
X38845Y-41162D02*
X39345Y-41162D01*
X43838Y-37359D02*
X42938Y-37359D01*
X42938Y-37359D02*
X42938Y-37859D01*
X42938Y-37859D02*
X43838Y-37859D01*
X43838Y-37859D02*
X43838Y-37359D01*
X48582Y-50882D02*
X49482Y-50882D01*
X49482Y-50882D02*
X49482Y-51532D01*
X48582Y-52232D02*
X48582Y-52882D01*
X48582Y-52882D02*
X49482Y-52882D01*
X49482Y-52882D02*
X49482Y-52232D01*
X48582Y-51532D02*
X48582Y-50882D01*
X42865Y-37320D02*
X42865Y-36420D01*
X42865Y-36420D02*
X42365Y-36420D01*
X42365Y-36420D02*
X42365Y-37320D01*
X42365Y-37320D02*
X42865Y-37320D01*
X39243Y-49760D02*
X40143Y-49760D01*
X40143Y-49760D02*
X40143Y-49260D01*
X40143Y-49260D02*
X39243Y-49260D01*
X39243Y-49260D02*
X39243Y-49760D01*
X39162Y-49264D02*
X38262Y-49264D01*
X38262Y-49264D02*
X38262Y-49764D01*
X38262Y-49764D02*
X39162Y-49764D01*
X39162Y-49764D02*
X39162Y-49264D01*
G54D19*
X38988Y-50596D02*
X38808Y-50596D01*
X38808Y-50596D02*
X38808Y-50367D01*
X38988Y-50367D02*
X38808Y-50367D01*
X38988Y-50596D02*
X38988Y-50367D01*
X38324Y-50974D02*
X38324Y-50738D01*
X39476Y-50979D02*
X39476Y-50743D01*
G54D20*
X39674Y-50096D02*
X38122Y-50096D01*
X38122Y-51656D02*
X39674Y-51656D01*
X39674Y-51656D02*
X39674Y-50096D01*
X38122Y-50096D02*
X38122Y-51656D01*
G54D10*
X38335Y-50973D02*
X39453Y-50973D01*
X39457Y-50751D02*
X38339Y-50751D01*
G54D19*
X40519Y-51143D02*
X40339Y-51143D01*
X40339Y-51143D02*
X40339Y-50914D01*
X40519Y-50914D02*
X40339Y-50914D01*
X40519Y-51143D02*
X40519Y-50914D01*
X39855Y-51521D02*
X39855Y-51285D01*
X41007Y-51526D02*
X41007Y-51290D01*
G54D20*
X41205Y-50643D02*
X39653Y-50643D01*
X39653Y-52203D02*
X41205Y-52203D01*
X41205Y-52203D02*
X41205Y-50643D01*
X39653Y-50643D02*
X39653Y-52203D01*
G54D10*
X39866Y-51520D02*
X40984Y-51520D01*
X40988Y-51298D02*
X39870Y-51298D01*
G54D17*
X41750Y-50957D02*
X41750Y-51857D01*
X41750Y-51857D02*
X42250Y-51857D01*
X42250Y-51857D02*
X42250Y-50957D01*
X42250Y-50957D02*
X41750Y-50957D01*
X42250Y-50869D02*
X42250Y-49969D01*
X42250Y-49969D02*
X41750Y-49969D01*
X41750Y-49969D02*
X41750Y-50869D01*
X41750Y-50869D02*
X42250Y-50869D01*
G54D19*
X43858Y-49518D02*
X43858Y-49698D01*
X43858Y-49698D02*
X43629Y-49698D01*
X43629Y-49518D02*
X43629Y-49698D01*
X43858Y-49518D02*
X43629Y-49518D01*
X44236Y-50182D02*
X44000Y-50182D01*
X44241Y-49030D02*
X44005Y-49030D01*
G54D20*
X43358Y-48832D02*
X43358Y-50384D01*
X44918Y-50384D02*
X44918Y-48832D01*
X44918Y-48832D02*
X43358Y-48832D01*
X43358Y-50384D02*
X44918Y-50384D01*
G54D10*
X44235Y-50171D02*
X44235Y-49053D01*
X44013Y-49049D02*
X44013Y-50167D01*
G54D19*
X43350Y-51065D02*
X43350Y-51245D01*
X43350Y-51245D02*
X43121Y-51245D01*
X43121Y-51065D02*
X43121Y-51245D01*
X43350Y-51065D02*
X43121Y-51065D01*
X43728Y-51729D02*
X43492Y-51729D01*
X43733Y-50577D02*
X43497Y-50577D01*
G54D20*
X42850Y-50379D02*
X42850Y-51931D01*
X44410Y-51931D02*
X44410Y-50379D01*
X44410Y-50379D02*
X42850Y-50379D01*
X42850Y-51931D02*
X44410Y-51931D01*
G54D10*
X43727Y-51718D02*
X43727Y-50600D01*
X43505Y-50596D02*
X43505Y-51714D01*
G54D19*
X38277Y-45226D02*
X38097Y-45226D01*
X38097Y-45226D02*
X38097Y-44997D01*
X38277Y-44997D02*
X38097Y-44997D01*
X38277Y-45226D02*
X38277Y-44997D01*
X37613Y-45604D02*
X37613Y-45368D01*
X38765Y-45609D02*
X38765Y-45373D01*
G54D20*
X38963Y-44726D02*
X37411Y-44726D01*
X37411Y-46286D02*
X38963Y-46286D01*
X38963Y-46286D02*
X38963Y-44726D01*
X37411Y-44726D02*
X37411Y-46286D01*
G54D10*
X37624Y-45603D02*
X38742Y-45603D01*
X38746Y-45381D02*
X37628Y-45381D01*
G54D19*
X40079Y-46058D02*
X39899Y-46058D01*
X39899Y-46058D02*
X39899Y-45829D01*
X40079Y-45829D02*
X39899Y-45829D01*
X40079Y-46058D02*
X40079Y-45829D01*
X39415Y-46436D02*
X39415Y-46200D01*
X40567Y-46441D02*
X40567Y-46205D01*
G54D20*
X40765Y-45558D02*
X39213Y-45558D01*
X39213Y-47118D02*
X40765Y-47118D01*
X40765Y-47118D02*
X40765Y-45558D01*
X39213Y-45558D02*
X39213Y-47118D01*
G54D10*
X39426Y-46435D02*
X40544Y-46435D01*
X40548Y-46213D02*
X39430Y-46213D01*
G54D19*
X43482Y-43910D02*
X43482Y-44090D01*
X43482Y-44090D02*
X43253Y-44090D01*
X43253Y-43910D02*
X43253Y-44090D01*
X43482Y-43910D02*
X43253Y-43910D01*
X43860Y-44574D02*
X43624Y-44574D01*
X43865Y-43422D02*
X43629Y-43422D01*
G54D20*
X42982Y-43224D02*
X42982Y-44776D01*
X44542Y-44776D02*
X44542Y-43224D01*
X44542Y-43224D02*
X42982Y-43224D01*
X42982Y-44776D02*
X44542Y-44776D01*
G54D10*
X43859Y-44563D02*
X43859Y-43445D01*
X43637Y-43441D02*
X43637Y-44559D01*
G54D19*
X42435Y-45461D02*
X42435Y-45641D01*
X42435Y-45641D02*
X42206Y-45641D01*
X42206Y-45461D02*
X42206Y-45641D01*
X42435Y-45461D02*
X42206Y-45461D01*
X42813Y-46125D02*
X42577Y-46125D01*
X42818Y-44973D02*
X42582Y-44973D01*
G54D20*
X41935Y-44775D02*
X41935Y-46327D01*
X43495Y-46327D02*
X43495Y-44775D01*
X43495Y-44775D02*
X41935Y-44775D01*
X41935Y-46327D02*
X43495Y-46327D01*
G54D10*
X42812Y-46114D02*
X42812Y-44996D01*
X42590Y-44992D02*
X42590Y-46110D01*
G54D17*
X42224Y-36186D02*
X41324Y-36186D01*
X41324Y-36186D02*
X41324Y-36686D01*
X41324Y-36686D02*
X42224Y-36686D01*
X42224Y-36686D02*
X42224Y-36186D01*
G54D11*
X42451Y-38687D02*
X42451Y-40577D01*
X42451Y-40577D02*
X40994Y-40577D01*
X40994Y-40577D02*
X40994Y-38806D01*
X40994Y-38806D02*
X42529Y-38806D01*
X42529Y-38806D02*
X42608Y-38806D01*
X42608Y-38806D02*
X42608Y-38687D01*
X42608Y-38687D02*
X42490Y-38687D01*
G54D17*
X38822Y-41251D02*
X38821Y-41260D01*
X38818Y-41270D01*
X38813Y-41278D01*
X38807Y-41286D01*
X38799Y-41292D01*
X38791Y-41297D01*
X38782Y-41299D01*
X38772Y-41300D01*
X38763Y-41300D01*
X38754Y-41297D01*
X38745Y-41292D01*
X38738Y-41286D01*
X38731Y-41279D01*
X38727Y-41270D01*
X38724Y-41261D01*
X38723Y-41251D01*
X38723Y-41242D01*
X38726Y-41233D01*
X38730Y-41224D01*
X38737Y-41217D01*
X38744Y-41210D01*
X38752Y-41206D01*
X38762Y-41203D01*
X38771Y-41202D01*
X38780Y-41202D01*
X38790Y-41205D01*
X38798Y-41209D01*
X38806Y-41215D01*
X38812Y-41223D01*
X38817Y-41231D01*
X38820Y-41240D01*
X38821Y-41250D01*
X38822Y-41251D01*
X39222Y-41251D02*
X38822Y-41251D01*
X38822Y-41251D02*
X38822Y-41851D01*
X38822Y-41851D02*
X39222Y-41851D01*
X39622Y-41851D02*
X40022Y-41851D01*
X40022Y-41851D02*
X40022Y-41251D01*
X40022Y-41251D02*
X39622Y-41251D01*
X41484Y-41607D02*
X41483Y-41616D01*
X41480Y-41626D01*
X41475Y-41634D01*
X41469Y-41642D01*
X41461Y-41648D01*
X41453Y-41653D01*
X41444Y-41655D01*
X41434Y-41656D01*
X41425Y-41656D01*
X41416Y-41653D01*
X41407Y-41648D01*
X41400Y-41642D01*
X41393Y-41635D01*
X41389Y-41626D01*
X41386Y-41617D01*
X41385Y-41607D01*
X41385Y-41598D01*
X41388Y-41589D01*
X41392Y-41580D01*
X41399Y-41573D01*
X41406Y-41566D01*
X41414Y-41562D01*
X41424Y-41559D01*
X41433Y-41558D01*
X41442Y-41558D01*
X41452Y-41561D01*
X41460Y-41565D01*
X41468Y-41571D01*
X41474Y-41579D01*
X41479Y-41587D01*
X41482Y-41596D01*
X41483Y-41606D01*
X41484Y-41607D01*
X40984Y-41607D02*
X41384Y-41607D01*
X41384Y-41607D02*
X41384Y-41007D01*
X41384Y-41007D02*
X40984Y-41007D01*
X40584Y-41007D02*
X40184Y-41007D01*
X40184Y-41007D02*
X40184Y-41607D01*
X40184Y-41607D02*
X40584Y-41607D01*
G54D13*
X59542Y-54781D02*
X59542Y-54505D01*
X59477Y-54505D01*
X59437Y-54518D01*
X59411Y-54544D01*
X59398Y-54570D01*
X59385Y-54623D01*
X59385Y-54662D01*
X59398Y-54715D01*
X59411Y-54741D01*
X59437Y-54768D01*
X59477Y-54781D01*
X59542Y-54781D01*
X59148Y-54505D02*
X59201Y-54505D01*
X59227Y-54518D01*
X59240Y-54531D01*
X59266Y-54570D01*
X59279Y-54623D01*
X59279Y-54728D01*
X59266Y-54754D01*
X59253Y-54768D01*
X59227Y-54781D01*
X59174Y-54781D01*
X59148Y-54768D01*
X59135Y-54754D01*
X59122Y-54728D01*
X59122Y-54662D01*
X59135Y-54636D01*
X59148Y-54623D01*
X59174Y-54610D01*
X59227Y-54610D01*
X59253Y-54623D01*
X59266Y-54636D01*
X59279Y-54662D01*
G54D14*
X53589Y-49495D02*
X53589Y-49215D01*
X53546Y-49215D01*
X53521Y-49229D01*
X53503Y-49255D01*
X53495Y-49282D01*
X53486Y-49335D01*
X53486Y-49375D01*
X53495Y-49429D01*
X53503Y-49455D01*
X53521Y-49482D01*
X53546Y-49495D01*
X53589Y-49495D01*
X53315Y-49495D02*
X53418Y-49495D01*
X53366Y-49495D02*
X53366Y-49215D01*
X53383Y-49255D01*
X53401Y-49282D01*
X53418Y-49295D01*
G54D15*
X62426Y-40139D02*
X62426Y-40336D01*
X62440Y-40375D01*
X62466Y-40402D01*
X62505Y-40415D01*
X62532Y-40415D01*
X62151Y-40415D02*
X62308Y-40415D01*
X62230Y-40415D02*
X62230Y-40139D01*
X62256Y-40178D01*
X62282Y-40204D01*
X62308Y-40218D01*
G54D17*
X54618Y-41864D02*
X54737Y-41864D01*
X54737Y-41614D01*
X54547Y-41638D02*
X54535Y-41626D01*
X54512Y-41614D01*
X54452Y-41614D01*
X54428Y-41626D01*
X54416Y-41638D01*
X54405Y-41662D01*
X54405Y-41686D01*
X54416Y-41721D01*
X54559Y-41864D01*
X54405Y-41864D01*
G54D14*
X64302Y-42919D02*
X64362Y-42786D01*
X64405Y-42919D02*
X64405Y-42639D01*
X64337Y-42639D01*
X64319Y-42653D01*
X64311Y-42666D01*
X64302Y-42693D01*
X64302Y-42733D01*
X64311Y-42759D01*
X64319Y-42773D01*
X64337Y-42786D01*
X64405Y-42786D01*
X64242Y-42639D02*
X64131Y-42639D01*
X64191Y-42746D01*
X64165Y-42746D01*
X64148Y-42759D01*
X64139Y-42773D01*
X64131Y-42799D01*
X64131Y-42866D01*
X64139Y-42893D01*
X64148Y-42906D01*
X64165Y-42919D01*
X64217Y-42919D01*
X64234Y-42906D01*
X64242Y-42893D01*
X64063Y-42666D02*
X64054Y-42653D01*
X64037Y-42639D01*
X63994Y-42639D01*
X63977Y-42653D01*
X63968Y-42666D01*
X63960Y-42693D01*
X63960Y-42719D01*
X63968Y-42759D01*
X64071Y-42919D01*
X63960Y-42919D01*
X63134Y-47333D02*
X63147Y-47324D01*
X63160Y-47298D01*
X63160Y-47281D01*
X63147Y-47256D01*
X63120Y-47238D01*
X63094Y-47230D01*
X63040Y-47221D01*
X63000Y-47221D01*
X62947Y-47230D01*
X62920Y-47238D01*
X62894Y-47256D01*
X62880Y-47281D01*
X62880Y-47298D01*
X62894Y-47324D01*
X62907Y-47333D01*
X62880Y-47393D02*
X62880Y-47504D01*
X62987Y-47444D01*
X62987Y-47470D01*
X63000Y-47487D01*
X63014Y-47496D01*
X63040Y-47504D01*
X63107Y-47504D01*
X63134Y-47496D01*
X63147Y-47487D01*
X63160Y-47470D01*
X63160Y-47418D01*
X63147Y-47401D01*
X63134Y-47393D01*
X53324Y-47016D02*
X53333Y-47029D01*
X53359Y-47042D01*
X53376Y-47042D01*
X53401Y-47029D01*
X53419Y-47002D01*
X53427Y-46976D01*
X53436Y-46922D01*
X53436Y-46882D01*
X53427Y-46829D01*
X53419Y-46802D01*
X53401Y-46776D01*
X53376Y-46762D01*
X53359Y-46762D01*
X53333Y-46776D01*
X53324Y-46789D01*
X53170Y-46856D02*
X53170Y-47042D01*
X53213Y-46749D02*
X53256Y-46949D01*
X53144Y-46949D01*
X53042Y-46762D02*
X53025Y-46762D01*
X53008Y-46776D01*
X52999Y-46789D01*
X52990Y-46816D01*
X52982Y-46869D01*
X52982Y-46936D01*
X52990Y-46989D01*
X52999Y-47016D01*
X53008Y-47029D01*
X53025Y-47042D01*
X53042Y-47042D01*
X53059Y-47029D01*
X53068Y-47016D01*
X53076Y-46989D01*
X53085Y-46936D01*
X53085Y-46869D01*
X53076Y-46816D01*
X53068Y-46789D01*
X53059Y-46776D01*
X53042Y-46762D01*
X55308Y-46926D02*
X55317Y-46939D01*
X55343Y-46952D01*
X55360Y-46952D01*
X55385Y-46939D01*
X55403Y-46912D01*
X55411Y-46886D01*
X55420Y-46832D01*
X55420Y-46792D01*
X55411Y-46739D01*
X55403Y-46712D01*
X55385Y-46686D01*
X55360Y-46672D01*
X55343Y-46672D01*
X55317Y-46686D01*
X55308Y-46699D01*
X55154Y-46766D02*
X55154Y-46952D01*
X55197Y-46659D02*
X55240Y-46859D01*
X55128Y-46859D01*
X55034Y-46792D02*
X55052Y-46779D01*
X55060Y-46766D01*
X55069Y-46739D01*
X55069Y-46726D01*
X55060Y-46699D01*
X55052Y-46686D01*
X55034Y-46672D01*
X55000Y-46672D01*
X54983Y-46686D01*
X54974Y-46699D01*
X54966Y-46726D01*
X54966Y-46739D01*
X54974Y-46766D01*
X54983Y-46779D01*
X55000Y-46792D01*
X55034Y-46792D01*
X55052Y-46806D01*
X55060Y-46819D01*
X55069Y-46846D01*
X55069Y-46899D01*
X55060Y-46926D01*
X55052Y-46939D01*
X55034Y-46952D01*
X55000Y-46952D01*
X54983Y-46939D01*
X54974Y-46926D01*
X54966Y-46899D01*
X54966Y-46846D01*
X54974Y-46819D01*
X54983Y-46806D01*
X55000Y-46792D01*
X50328Y-44595D02*
X50337Y-44608D01*
X50363Y-44621D01*
X50380Y-44621D01*
X50405Y-44608D01*
X50423Y-44581D01*
X50431Y-44555D01*
X50440Y-44501D01*
X50440Y-44461D01*
X50431Y-44408D01*
X50423Y-44381D01*
X50405Y-44355D01*
X50380Y-44341D01*
X50363Y-44341D01*
X50337Y-44355D01*
X50328Y-44368D01*
X50268Y-44341D02*
X50157Y-44341D01*
X50217Y-44448D01*
X50191Y-44448D01*
X50174Y-44461D01*
X50165Y-44475D01*
X50157Y-44501D01*
X50157Y-44568D01*
X50165Y-44595D01*
X50174Y-44608D01*
X50191Y-44621D01*
X50243Y-44621D01*
X50260Y-44608D01*
X50268Y-44595D01*
X49994Y-44341D02*
X50080Y-44341D01*
X50089Y-44475D01*
X50080Y-44461D01*
X50063Y-44448D01*
X50020Y-44448D01*
X50003Y-44461D01*
X49994Y-44475D01*
X49986Y-44501D01*
X49986Y-44568D01*
X49994Y-44595D01*
X50003Y-44608D01*
X50020Y-44621D01*
X50063Y-44621D01*
X50080Y-44608D01*
X50089Y-44595D01*
X48392Y-42577D02*
X48405Y-42568D01*
X48418Y-42542D01*
X48418Y-42525D01*
X48405Y-42500D01*
X48378Y-42482D01*
X48352Y-42474D01*
X48298Y-42465D01*
X48258Y-42465D01*
X48205Y-42474D01*
X48178Y-42482D01*
X48152Y-42500D01*
X48138Y-42525D01*
X48138Y-42542D01*
X48152Y-42568D01*
X48165Y-42577D01*
X48138Y-42637D02*
X48138Y-42748D01*
X48245Y-42688D01*
X48245Y-42714D01*
X48258Y-42731D01*
X48272Y-42740D01*
X48298Y-42748D01*
X48365Y-42748D01*
X48392Y-42740D01*
X48405Y-42731D01*
X48418Y-42714D01*
X48418Y-42662D01*
X48405Y-42645D01*
X48392Y-42637D01*
X48418Y-42833D02*
X48418Y-42868D01*
X48405Y-42885D01*
X48392Y-42893D01*
X48352Y-42911D01*
X48298Y-42919D01*
X48192Y-42919D01*
X48165Y-42911D01*
X48152Y-42902D01*
X48138Y-42885D01*
X48138Y-42851D01*
X48152Y-42833D01*
X48165Y-42825D01*
X48192Y-42816D01*
X48258Y-42816D01*
X48285Y-42825D01*
X48298Y-42833D01*
X48312Y-42851D01*
X48312Y-42885D01*
X48298Y-42902D01*
X48285Y-42911D01*
X48258Y-42919D01*
X53835Y-34219D02*
X53895Y-34086D01*
X53938Y-34219D02*
X53938Y-33939D01*
X53870Y-33939D01*
X53852Y-33953D01*
X53844Y-33966D01*
X53835Y-33993D01*
X53835Y-34033D01*
X53844Y-34059D01*
X53852Y-34073D01*
X53870Y-34086D01*
X53938Y-34086D01*
X53767Y-33966D02*
X53758Y-33953D01*
X53741Y-33939D01*
X53698Y-33939D01*
X53681Y-33953D01*
X53672Y-33966D01*
X53664Y-33993D01*
X53664Y-34019D01*
X53672Y-34059D01*
X53775Y-34219D01*
X53664Y-34219D01*
X53501Y-33939D02*
X53587Y-33939D01*
X53596Y-34073D01*
X53587Y-34059D01*
X53570Y-34046D01*
X53527Y-34046D01*
X53510Y-34059D01*
X53501Y-34073D01*
X53493Y-34099D01*
X53493Y-34166D01*
X53501Y-34193D01*
X53510Y-34206D01*
X53527Y-34219D01*
X53570Y-34219D01*
X53587Y-34206D01*
X53596Y-34193D01*
X52771Y-33995D02*
X52780Y-34008D01*
X52806Y-34021D01*
X52823Y-34021D01*
X52848Y-34008D01*
X52866Y-33981D01*
X52874Y-33955D01*
X52883Y-33901D01*
X52883Y-33861D01*
X52874Y-33808D01*
X52866Y-33781D01*
X52848Y-33755D01*
X52823Y-33741D01*
X52806Y-33741D01*
X52780Y-33755D01*
X52771Y-33768D01*
X52711Y-33741D02*
X52591Y-33741D01*
X52668Y-34021D01*
X52429Y-34021D02*
X52532Y-34021D01*
X52480Y-34021D02*
X52480Y-33741D01*
X52497Y-33781D01*
X52515Y-33808D01*
X52532Y-33821D01*
X48692Y-40533D02*
X48705Y-40524D01*
X48718Y-40498D01*
X48718Y-40481D01*
X48705Y-40456D01*
X48678Y-40438D01*
X48652Y-40430D01*
X48598Y-40421D01*
X48558Y-40421D01*
X48505Y-40430D01*
X48478Y-40438D01*
X48452Y-40456D01*
X48438Y-40481D01*
X48438Y-40498D01*
X48452Y-40524D01*
X48465Y-40533D01*
X48438Y-40687D02*
X48438Y-40653D01*
X48452Y-40636D01*
X48465Y-40627D01*
X48505Y-40610D01*
X48558Y-40601D01*
X48665Y-40601D01*
X48692Y-40610D01*
X48705Y-40618D01*
X48718Y-40636D01*
X48718Y-40670D01*
X48705Y-40687D01*
X48692Y-40696D01*
X48665Y-40704D01*
X48598Y-40704D01*
X48572Y-40696D01*
X48558Y-40687D01*
X48545Y-40670D01*
X48545Y-40636D01*
X48558Y-40618D01*
X48572Y-40610D01*
X48598Y-40601D01*
X48718Y-40875D02*
X48718Y-40772D01*
X48718Y-40824D02*
X48438Y-40824D01*
X48478Y-40807D01*
X48505Y-40789D01*
X48518Y-40772D01*
X56861Y-41406D02*
X56874Y-41397D01*
X56887Y-41371D01*
X56887Y-41354D01*
X56874Y-41329D01*
X56847Y-41311D01*
X56821Y-41303D01*
X56767Y-41294D01*
X56727Y-41294D01*
X56674Y-41303D01*
X56647Y-41311D01*
X56621Y-41329D01*
X56607Y-41354D01*
X56607Y-41371D01*
X56621Y-41397D01*
X56634Y-41406D01*
X56607Y-41560D02*
X56607Y-41526D01*
X56621Y-41509D01*
X56634Y-41500D01*
X56674Y-41483D01*
X56727Y-41474D01*
X56834Y-41474D01*
X56861Y-41483D01*
X56874Y-41491D01*
X56887Y-41509D01*
X56887Y-41543D01*
X56874Y-41560D01*
X56861Y-41569D01*
X56834Y-41577D01*
X56767Y-41577D01*
X56741Y-41569D01*
X56727Y-41560D01*
X56714Y-41543D01*
X56714Y-41509D01*
X56727Y-41491D01*
X56741Y-41483D01*
X56767Y-41474D01*
X56634Y-41645D02*
X56621Y-41654D01*
X56607Y-41671D01*
X56607Y-41714D01*
X56621Y-41731D01*
X56634Y-41740D01*
X56661Y-41748D01*
X56687Y-41748D01*
X56727Y-41740D01*
X56887Y-41637D01*
X56887Y-41748D01*
X57493Y-41413D02*
X57506Y-41404D01*
X57519Y-41378D01*
X57519Y-41361D01*
X57506Y-41336D01*
X57479Y-41318D01*
X57453Y-41310D01*
X57399Y-41301D01*
X57359Y-41301D01*
X57306Y-41310D01*
X57279Y-41318D01*
X57253Y-41336D01*
X57239Y-41361D01*
X57239Y-41378D01*
X57253Y-41404D01*
X57266Y-41413D01*
X57239Y-41567D02*
X57239Y-41533D01*
X57253Y-41516D01*
X57266Y-41507D01*
X57306Y-41490D01*
X57359Y-41481D01*
X57466Y-41481D01*
X57493Y-41490D01*
X57506Y-41498D01*
X57519Y-41516D01*
X57519Y-41550D01*
X57506Y-41567D01*
X57493Y-41576D01*
X57466Y-41584D01*
X57399Y-41584D01*
X57373Y-41576D01*
X57359Y-41567D01*
X57346Y-41550D01*
X57346Y-41516D01*
X57359Y-41498D01*
X57373Y-41490D01*
X57399Y-41481D01*
X57239Y-41644D02*
X57239Y-41755D01*
X57346Y-41695D01*
X57346Y-41721D01*
X57359Y-41738D01*
X57373Y-41747D01*
X57399Y-41755D01*
X57466Y-41755D01*
X57493Y-41747D01*
X57506Y-41738D01*
X57519Y-41721D01*
X57519Y-41669D01*
X57506Y-41652D01*
X57493Y-41644D01*
X52654Y-40613D02*
X52667Y-40604D01*
X52680Y-40578D01*
X52680Y-40561D01*
X52667Y-40536D01*
X52640Y-40518D01*
X52614Y-40510D01*
X52560Y-40501D01*
X52520Y-40501D01*
X52467Y-40510D01*
X52440Y-40518D01*
X52414Y-40536D01*
X52400Y-40561D01*
X52400Y-40578D01*
X52414Y-40604D01*
X52427Y-40613D01*
X52400Y-40767D02*
X52400Y-40733D01*
X52414Y-40716D01*
X52427Y-40707D01*
X52467Y-40690D01*
X52520Y-40681D01*
X52627Y-40681D01*
X52654Y-40690D01*
X52667Y-40698D01*
X52680Y-40716D01*
X52680Y-40750D01*
X52667Y-40767D01*
X52654Y-40776D01*
X52627Y-40784D01*
X52560Y-40784D01*
X52534Y-40776D01*
X52520Y-40767D01*
X52507Y-40750D01*
X52507Y-40716D01*
X52520Y-40698D01*
X52534Y-40690D01*
X52560Y-40681D01*
X52680Y-40869D02*
X52680Y-40904D01*
X52667Y-40921D01*
X52654Y-40929D01*
X52614Y-40947D01*
X52560Y-40955D01*
X52454Y-40955D01*
X52427Y-40947D01*
X52414Y-40938D01*
X52400Y-40921D01*
X52400Y-40887D01*
X52414Y-40869D01*
X52427Y-40861D01*
X52454Y-40852D01*
X52520Y-40852D01*
X52547Y-40861D01*
X52560Y-40869D01*
X52574Y-40887D01*
X52574Y-40921D01*
X52560Y-40938D01*
X52547Y-40947D01*
X52520Y-40955D01*
X54453Y-40637D02*
X54466Y-40628D01*
X54479Y-40602D01*
X54479Y-40585D01*
X54466Y-40560D01*
X54439Y-40542D01*
X54413Y-40534D01*
X54359Y-40525D01*
X54319Y-40525D01*
X54266Y-40534D01*
X54239Y-40542D01*
X54213Y-40560D01*
X54199Y-40585D01*
X54199Y-40602D01*
X54213Y-40628D01*
X54226Y-40637D01*
X54199Y-40791D02*
X54199Y-40757D01*
X54213Y-40740D01*
X54226Y-40731D01*
X54266Y-40714D01*
X54319Y-40705D01*
X54426Y-40705D01*
X54453Y-40714D01*
X54466Y-40722D01*
X54479Y-40740D01*
X54479Y-40774D01*
X54466Y-40791D01*
X54453Y-40800D01*
X54426Y-40808D01*
X54359Y-40808D01*
X54333Y-40800D01*
X54319Y-40791D01*
X54306Y-40774D01*
X54306Y-40740D01*
X54319Y-40722D01*
X54333Y-40714D01*
X54359Y-40705D01*
X54199Y-40868D02*
X54199Y-40988D01*
X54479Y-40911D01*
X55521Y-41552D02*
X55530Y-41565D01*
X55556Y-41578D01*
X55573Y-41578D01*
X55598Y-41565D01*
X55616Y-41538D01*
X55624Y-41512D01*
X55633Y-41458D01*
X55633Y-41418D01*
X55624Y-41365D01*
X55616Y-41338D01*
X55598Y-41312D01*
X55573Y-41298D01*
X55556Y-41298D01*
X55530Y-41312D01*
X55521Y-41325D01*
X55367Y-41298D02*
X55401Y-41298D01*
X55418Y-41312D01*
X55427Y-41325D01*
X55444Y-41365D01*
X55453Y-41418D01*
X55453Y-41525D01*
X55444Y-41552D01*
X55436Y-41565D01*
X55418Y-41578D01*
X55384Y-41578D01*
X55367Y-41565D01*
X55358Y-41552D01*
X55350Y-41525D01*
X55350Y-41458D01*
X55358Y-41432D01*
X55367Y-41418D01*
X55384Y-41405D01*
X55418Y-41405D01*
X55436Y-41418D01*
X55444Y-41432D01*
X55453Y-41458D01*
X55196Y-41298D02*
X55230Y-41298D01*
X55247Y-41312D01*
X55256Y-41325D01*
X55273Y-41365D01*
X55282Y-41418D01*
X55282Y-41525D01*
X55273Y-41552D01*
X55265Y-41565D01*
X55247Y-41578D01*
X55213Y-41578D01*
X55196Y-41565D01*
X55187Y-41552D01*
X55179Y-41525D01*
X55179Y-41458D01*
X55187Y-41432D01*
X55196Y-41418D01*
X55213Y-41405D01*
X55247Y-41405D01*
X55265Y-41418D01*
X55273Y-41432D01*
X55282Y-41458D01*
X55859Y-45717D02*
X55868Y-45730D01*
X55894Y-45743D01*
X55911Y-45743D01*
X55936Y-45730D01*
X55954Y-45703D01*
X55962Y-45677D01*
X55971Y-45623D01*
X55971Y-45583D01*
X55962Y-45530D01*
X55954Y-45503D01*
X55936Y-45477D01*
X55911Y-45463D01*
X55894Y-45463D01*
X55868Y-45477D01*
X55859Y-45490D01*
X55791Y-45490D02*
X55782Y-45477D01*
X55765Y-45463D01*
X55722Y-45463D01*
X55705Y-45477D01*
X55696Y-45490D01*
X55688Y-45517D01*
X55688Y-45543D01*
X55696Y-45583D01*
X55799Y-45743D01*
X55688Y-45743D01*
X55628Y-45463D02*
X55517Y-45463D01*
X55577Y-45570D01*
X55551Y-45570D01*
X55534Y-45583D01*
X55525Y-45597D01*
X55517Y-45623D01*
X55517Y-45690D01*
X55525Y-45717D01*
X55534Y-45730D01*
X55551Y-45743D01*
X55603Y-45743D01*
X55620Y-45730D01*
X55628Y-45717D01*
X51121Y-43200D02*
X51130Y-43213D01*
X51156Y-43226D01*
X51173Y-43226D01*
X51198Y-43213D01*
X51216Y-43186D01*
X51224Y-43160D01*
X51233Y-43106D01*
X51233Y-43066D01*
X51224Y-43013D01*
X51216Y-42986D01*
X51198Y-42960D01*
X51173Y-42946D01*
X51156Y-42946D01*
X51130Y-42960D01*
X51121Y-42973D01*
X51053Y-42973D02*
X51044Y-42960D01*
X51027Y-42946D01*
X50984Y-42946D01*
X50967Y-42960D01*
X50958Y-42973D01*
X50950Y-43000D01*
X50950Y-43026D01*
X50958Y-43066D01*
X51061Y-43226D01*
X50950Y-43226D01*
X50865Y-43226D02*
X50830Y-43226D01*
X50813Y-43213D01*
X50805Y-43200D01*
X50787Y-43160D01*
X50779Y-43106D01*
X50779Y-43000D01*
X50787Y-42973D01*
X50796Y-42960D01*
X50813Y-42946D01*
X50847Y-42946D01*
X50865Y-42960D01*
X50873Y-42973D01*
X50882Y-43000D01*
X50882Y-43066D01*
X50873Y-43093D01*
X50865Y-43106D01*
X50847Y-43120D01*
X50813Y-43120D01*
X50796Y-43106D01*
X50787Y-43093D01*
X50779Y-43066D01*
X50074Y-50881D02*
X50087Y-50872D01*
X50100Y-50846D01*
X50100Y-50829D01*
X50087Y-50804D01*
X50060Y-50786D01*
X50034Y-50778D01*
X49980Y-50769D01*
X49940Y-50769D01*
X49887Y-50778D01*
X49860Y-50786D01*
X49834Y-50804D01*
X49820Y-50829D01*
X49820Y-50846D01*
X49834Y-50872D01*
X49847Y-50881D01*
X49820Y-50941D02*
X49820Y-51052D01*
X49927Y-50992D01*
X49927Y-51018D01*
X49940Y-51035D01*
X49954Y-51044D01*
X49980Y-51052D01*
X50047Y-51052D01*
X50074Y-51044D01*
X50087Y-51035D01*
X50100Y-51018D01*
X50100Y-50966D01*
X50087Y-50949D01*
X50074Y-50941D01*
X49847Y-51120D02*
X49834Y-51129D01*
X49820Y-51146D01*
X49820Y-51189D01*
X49834Y-51206D01*
X49847Y-51215D01*
X49874Y-51223D01*
X49900Y-51223D01*
X49940Y-51215D01*
X50100Y-51112D01*
X50100Y-51223D01*
X51089Y-49992D02*
X50956Y-49932D01*
X51089Y-49889D02*
X50809Y-49889D01*
X50809Y-49957D01*
X50823Y-49975D01*
X50836Y-49983D01*
X50863Y-49992D01*
X50903Y-49992D01*
X50929Y-49983D01*
X50943Y-49975D01*
X50956Y-49957D01*
X50956Y-49889D01*
X51089Y-50163D02*
X51089Y-50060D01*
X51089Y-50112D02*
X50809Y-50112D01*
X50849Y-50095D01*
X50876Y-50077D01*
X50889Y-50060D01*
X51490Y-45400D02*
X51550Y-45267D01*
X51593Y-45400D02*
X51593Y-45120D01*
X51525Y-45120D01*
X51507Y-45134D01*
X51499Y-45147D01*
X51490Y-45174D01*
X51490Y-45214D01*
X51499Y-45240D01*
X51507Y-45254D01*
X51525Y-45267D01*
X51593Y-45267D01*
X51422Y-45147D02*
X51413Y-45134D01*
X51396Y-45120D01*
X51353Y-45120D01*
X51336Y-45134D01*
X51327Y-45147D01*
X51319Y-45174D01*
X51319Y-45200D01*
X51327Y-45240D01*
X51430Y-45400D01*
X51319Y-45400D01*
X53123Y-45091D02*
X53132Y-45104D01*
X53158Y-45117D01*
X53175Y-45117D01*
X53200Y-45104D01*
X53218Y-45077D01*
X53226Y-45051D01*
X53235Y-44997D01*
X53235Y-44957D01*
X53226Y-44904D01*
X53218Y-44877D01*
X53200Y-44851D01*
X53175Y-44837D01*
X53158Y-44837D01*
X53132Y-44851D01*
X53123Y-44864D01*
X52969Y-44931D02*
X52969Y-45117D01*
X53012Y-44824D02*
X53055Y-45024D01*
X52943Y-45024D01*
X52781Y-45117D02*
X52884Y-45117D01*
X52832Y-45117D02*
X52832Y-44837D01*
X52849Y-44877D01*
X52867Y-44904D01*
X52884Y-44917D01*
X53119Y-45622D02*
X53128Y-45635D01*
X53154Y-45648D01*
X53171Y-45648D01*
X53196Y-45635D01*
X53214Y-45608D01*
X53222Y-45582D01*
X53231Y-45528D01*
X53231Y-45488D01*
X53222Y-45435D01*
X53214Y-45408D01*
X53196Y-45382D01*
X53171Y-45368D01*
X53154Y-45368D01*
X53128Y-45382D01*
X53119Y-45395D01*
X52965Y-45462D02*
X52965Y-45648D01*
X53008Y-45355D02*
X53051Y-45555D01*
X52939Y-45555D01*
X52888Y-45368D02*
X52777Y-45368D01*
X52837Y-45475D01*
X52811Y-45475D01*
X52794Y-45488D01*
X52785Y-45502D01*
X52777Y-45528D01*
X52777Y-45595D01*
X52785Y-45622D01*
X52794Y-45635D01*
X52811Y-45648D01*
X52863Y-45648D01*
X52880Y-45635D01*
X52888Y-45622D01*
X53115Y-46221D02*
X53124Y-46234D01*
X53150Y-46247D01*
X53167Y-46247D01*
X53192Y-46234D01*
X53210Y-46207D01*
X53218Y-46181D01*
X53227Y-46127D01*
X53227Y-46087D01*
X53218Y-46034D01*
X53210Y-46007D01*
X53192Y-45981D01*
X53167Y-45967D01*
X53150Y-45967D01*
X53124Y-45981D01*
X53115Y-45994D01*
X52961Y-46061D02*
X52961Y-46247D01*
X53004Y-45954D02*
X53047Y-46154D01*
X52935Y-46154D01*
X52781Y-45967D02*
X52867Y-45967D01*
X52876Y-46101D01*
X52867Y-46087D01*
X52850Y-46074D01*
X52807Y-46074D01*
X52790Y-46087D01*
X52781Y-46101D01*
X52773Y-46127D01*
X52773Y-46194D01*
X52781Y-46221D01*
X52790Y-46234D01*
X52807Y-46247D01*
X52850Y-46247D01*
X52867Y-46234D01*
X52876Y-46221D01*
X53525Y-48381D02*
X53585Y-48248D01*
X53628Y-48381D02*
X53628Y-48101D01*
X53560Y-48101D01*
X53542Y-48115D01*
X53534Y-48128D01*
X53525Y-48155D01*
X53525Y-48195D01*
X53534Y-48221D01*
X53542Y-48235D01*
X53560Y-48248D01*
X53628Y-48248D01*
X53465Y-48101D02*
X53354Y-48101D01*
X53414Y-48208D01*
X53388Y-48208D01*
X53371Y-48221D01*
X53362Y-48235D01*
X53354Y-48261D01*
X53354Y-48328D01*
X53362Y-48355D01*
X53371Y-48368D01*
X53388Y-48381D01*
X53440Y-48381D01*
X53457Y-48368D01*
X53465Y-48355D01*
X53548Y-47811D02*
X53557Y-47824D01*
X53583Y-47837D01*
X53600Y-47837D01*
X53625Y-47824D01*
X53643Y-47797D01*
X53651Y-47771D01*
X53660Y-47717D01*
X53660Y-47677D01*
X53651Y-47624D01*
X53643Y-47597D01*
X53625Y-47571D01*
X53600Y-47557D01*
X53583Y-47557D01*
X53557Y-47571D01*
X53548Y-47584D01*
X53385Y-47557D02*
X53471Y-47557D01*
X53480Y-47691D01*
X53471Y-47677D01*
X53454Y-47664D01*
X53411Y-47664D01*
X53394Y-47677D01*
X53385Y-47691D01*
X53377Y-47717D01*
X53377Y-47784D01*
X53385Y-47811D01*
X53394Y-47824D01*
X53411Y-47837D01*
X53454Y-47837D01*
X53471Y-47824D01*
X53480Y-47811D01*
X53266Y-47557D02*
X53249Y-47557D01*
X53232Y-47571D01*
X53223Y-47584D01*
X53214Y-47611D01*
X53206Y-47664D01*
X53206Y-47731D01*
X53214Y-47784D01*
X53223Y-47811D01*
X53232Y-47824D01*
X53249Y-47837D01*
X53266Y-47837D01*
X53283Y-47824D01*
X53292Y-47811D01*
X53300Y-47784D01*
X53309Y-47731D01*
X53309Y-47664D01*
X53300Y-47611D01*
X53292Y-47584D01*
X53283Y-47571D01*
X53266Y-47557D01*
X59371Y-41252D02*
X59380Y-41265D01*
X59406Y-41278D01*
X59423Y-41278D01*
X59448Y-41265D01*
X59466Y-41238D01*
X59474Y-41212D01*
X59483Y-41158D01*
X59483Y-41118D01*
X59474Y-41065D01*
X59466Y-41038D01*
X59448Y-41012D01*
X59423Y-40998D01*
X59406Y-40998D01*
X59380Y-41012D01*
X59371Y-41025D01*
X59303Y-41025D02*
X59294Y-41012D01*
X59277Y-40998D01*
X59234Y-40998D01*
X59217Y-41012D01*
X59208Y-41025D01*
X59200Y-41052D01*
X59200Y-41078D01*
X59208Y-41118D01*
X59311Y-41278D01*
X59200Y-41278D01*
X59132Y-41025D02*
X59123Y-41012D01*
X59106Y-40998D01*
X59063Y-40998D01*
X59046Y-41012D01*
X59037Y-41025D01*
X59029Y-41052D01*
X59029Y-41078D01*
X59037Y-41118D01*
X59140Y-41278D01*
X59029Y-41278D01*
X52800Y-42224D02*
X52813Y-42215D01*
X52826Y-42189D01*
X52826Y-42172D01*
X52813Y-42147D01*
X52786Y-42129D01*
X52760Y-42121D01*
X52706Y-42112D01*
X52666Y-42112D01*
X52613Y-42121D01*
X52586Y-42129D01*
X52560Y-42147D01*
X52546Y-42172D01*
X52546Y-42189D01*
X52560Y-42215D01*
X52573Y-42224D01*
X52573Y-42292D02*
X52560Y-42301D01*
X52546Y-42318D01*
X52546Y-42361D01*
X52560Y-42378D01*
X52573Y-42387D01*
X52600Y-42395D01*
X52626Y-42395D01*
X52666Y-42387D01*
X52826Y-42284D01*
X52826Y-42395D01*
X52640Y-42549D02*
X52826Y-42549D01*
X52533Y-42506D02*
X52733Y-42463D01*
X52733Y-42575D01*
X53894Y-43255D02*
X53907Y-43246D01*
X53920Y-43220D01*
X53920Y-43203D01*
X53907Y-43178D01*
X53880Y-43160D01*
X53854Y-43152D01*
X53800Y-43143D01*
X53760Y-43143D01*
X53707Y-43152D01*
X53680Y-43160D01*
X53654Y-43178D01*
X53640Y-43203D01*
X53640Y-43220D01*
X53654Y-43246D01*
X53667Y-43255D01*
X53640Y-43315D02*
X53640Y-43426D01*
X53747Y-43366D01*
X53747Y-43392D01*
X53760Y-43409D01*
X53774Y-43418D01*
X53800Y-43426D01*
X53867Y-43426D01*
X53894Y-43418D01*
X53907Y-43409D01*
X53920Y-43392D01*
X53920Y-43340D01*
X53907Y-43323D01*
X53894Y-43315D01*
X53920Y-43597D02*
X53920Y-43494D01*
X53920Y-43546D02*
X53640Y-43546D01*
X53680Y-43529D01*
X53707Y-43511D01*
X53720Y-43494D01*
X54099Y-41863D02*
X54108Y-41876D01*
X54134Y-41889D01*
X54151Y-41889D01*
X54176Y-41876D01*
X54194Y-41849D01*
X54202Y-41823D01*
X54211Y-41769D01*
X54211Y-41729D01*
X54202Y-41676D01*
X54194Y-41649D01*
X54176Y-41623D01*
X54151Y-41609D01*
X54134Y-41609D01*
X54108Y-41623D01*
X54099Y-41636D01*
X54039Y-41609D02*
X53928Y-41609D01*
X53988Y-41716D01*
X53962Y-41716D01*
X53945Y-41729D01*
X53936Y-41743D01*
X53928Y-41769D01*
X53928Y-41836D01*
X53936Y-41863D01*
X53945Y-41876D01*
X53962Y-41889D01*
X54014Y-41889D01*
X54031Y-41876D01*
X54039Y-41863D01*
X53817Y-41609D02*
X53800Y-41609D01*
X53783Y-41623D01*
X53774Y-41636D01*
X53765Y-41663D01*
X53757Y-41716D01*
X53757Y-41783D01*
X53765Y-41836D01*
X53774Y-41863D01*
X53783Y-41876D01*
X53800Y-41889D01*
X53817Y-41889D01*
X53834Y-41876D01*
X53843Y-41863D01*
X53851Y-41836D01*
X53860Y-41783D01*
X53860Y-41716D01*
X53851Y-41663D01*
X53843Y-41636D01*
X53834Y-41623D01*
X53817Y-41609D01*
X51080Y-42697D02*
X51089Y-42710D01*
X51115Y-42723D01*
X51132Y-42723D01*
X51157Y-42710D01*
X51175Y-42683D01*
X51183Y-42657D01*
X51192Y-42603D01*
X51192Y-42563D01*
X51183Y-42510D01*
X51175Y-42483D01*
X51157Y-42457D01*
X51132Y-42443D01*
X51115Y-42443D01*
X51089Y-42457D01*
X51080Y-42470D01*
X51020Y-42443D02*
X50909Y-42443D01*
X50969Y-42550D01*
X50943Y-42550D01*
X50926Y-42563D01*
X50917Y-42577D01*
X50909Y-42603D01*
X50909Y-42670D01*
X50917Y-42697D01*
X50926Y-42710D01*
X50943Y-42723D01*
X50995Y-42723D01*
X51012Y-42710D01*
X51020Y-42697D01*
X50755Y-42443D02*
X50789Y-42443D01*
X50806Y-42457D01*
X50815Y-42470D01*
X50832Y-42510D01*
X50841Y-42563D01*
X50841Y-42670D01*
X50832Y-42697D01*
X50824Y-42710D01*
X50806Y-42723D01*
X50772Y-42723D01*
X50755Y-42710D01*
X50746Y-42697D01*
X50738Y-42670D01*
X50738Y-42603D01*
X50746Y-42577D01*
X50755Y-42563D01*
X50772Y-42550D01*
X50806Y-42550D01*
X50824Y-42563D01*
X50832Y-42577D01*
X50841Y-42603D01*
X51780Y-41342D02*
X51793Y-41333D01*
X51806Y-41307D01*
X51806Y-41290D01*
X51793Y-41265D01*
X51766Y-41247D01*
X51740Y-41239D01*
X51686Y-41230D01*
X51646Y-41230D01*
X51593Y-41239D01*
X51566Y-41247D01*
X51540Y-41265D01*
X51526Y-41290D01*
X51526Y-41307D01*
X51540Y-41333D01*
X51553Y-41342D01*
X51526Y-41402D02*
X51526Y-41513D01*
X51633Y-41453D01*
X51633Y-41479D01*
X51646Y-41496D01*
X51660Y-41505D01*
X51686Y-41513D01*
X51753Y-41513D01*
X51780Y-41505D01*
X51793Y-41496D01*
X51806Y-41479D01*
X51806Y-41427D01*
X51793Y-41410D01*
X51780Y-41402D01*
X51526Y-41573D02*
X51526Y-41693D01*
X51806Y-41616D01*
X49910Y-41184D02*
X49923Y-41175D01*
X49936Y-41149D01*
X49936Y-41132D01*
X49923Y-41107D01*
X49896Y-41089D01*
X49870Y-41081D01*
X49816Y-41072D01*
X49776Y-41072D01*
X49723Y-41081D01*
X49696Y-41089D01*
X49670Y-41107D01*
X49656Y-41132D01*
X49656Y-41149D01*
X49670Y-41175D01*
X49683Y-41184D01*
X49656Y-41244D02*
X49656Y-41355D01*
X49763Y-41295D01*
X49763Y-41321D01*
X49776Y-41338D01*
X49790Y-41347D01*
X49816Y-41355D01*
X49883Y-41355D01*
X49910Y-41347D01*
X49923Y-41338D01*
X49936Y-41321D01*
X49936Y-41269D01*
X49923Y-41252D01*
X49910Y-41244D01*
X49776Y-41458D02*
X49763Y-41440D01*
X49750Y-41432D01*
X49723Y-41423D01*
X49710Y-41423D01*
X49683Y-41432D01*
X49670Y-41440D01*
X49656Y-41458D01*
X49656Y-41492D01*
X49670Y-41509D01*
X49683Y-41518D01*
X49710Y-41526D01*
X49723Y-41526D01*
X49750Y-41518D01*
X49763Y-41509D01*
X49776Y-41492D01*
X49776Y-41458D01*
X49790Y-41440D01*
X49803Y-41432D01*
X49830Y-41423D01*
X49883Y-41423D01*
X49910Y-41432D01*
X49923Y-41440D01*
X49936Y-41458D01*
X49936Y-41492D01*
X49923Y-41509D01*
X49910Y-41518D01*
X49883Y-41526D01*
X49830Y-41526D01*
X49803Y-41518D01*
X49790Y-41509D01*
X49776Y-41492D01*
X52780Y-43499D02*
X52793Y-43490D01*
X52806Y-43464D01*
X52806Y-43447D01*
X52793Y-43422D01*
X52766Y-43404D01*
X52740Y-43396D01*
X52686Y-43387D01*
X52646Y-43387D01*
X52593Y-43396D01*
X52566Y-43404D01*
X52540Y-43422D01*
X52526Y-43447D01*
X52526Y-43464D01*
X52540Y-43490D01*
X52553Y-43499D01*
X52620Y-43653D02*
X52806Y-43653D01*
X52513Y-43610D02*
X52713Y-43567D01*
X52713Y-43679D01*
X52526Y-43730D02*
X52526Y-43850D01*
X52806Y-43773D01*
X53402Y-43243D02*
X53415Y-43234D01*
X53428Y-43208D01*
X53428Y-43191D01*
X53415Y-43166D01*
X53388Y-43148D01*
X53362Y-43140D01*
X53308Y-43131D01*
X53268Y-43131D01*
X53215Y-43140D01*
X53188Y-43148D01*
X53162Y-43166D01*
X53148Y-43191D01*
X53148Y-43208D01*
X53162Y-43234D01*
X53175Y-43243D01*
X53242Y-43397D02*
X53428Y-43397D01*
X53135Y-43354D02*
X53335Y-43311D01*
X53335Y-43423D01*
X53175Y-43482D02*
X53162Y-43491D01*
X53148Y-43508D01*
X53148Y-43551D01*
X53162Y-43568D01*
X53175Y-43577D01*
X53202Y-43585D01*
X53228Y-43585D01*
X53268Y-43577D01*
X53428Y-43474D01*
X53428Y-43585D01*
X56969Y-43172D02*
X56982Y-43163D01*
X56995Y-43137D01*
X56995Y-43120D01*
X56982Y-43095D01*
X56955Y-43077D01*
X56929Y-43069D01*
X56875Y-43060D01*
X56835Y-43060D01*
X56782Y-43069D01*
X56755Y-43077D01*
X56729Y-43095D01*
X56715Y-43120D01*
X56715Y-43137D01*
X56729Y-43163D01*
X56742Y-43172D01*
X56715Y-43335D02*
X56715Y-43249D01*
X56849Y-43240D01*
X56835Y-43249D01*
X56822Y-43266D01*
X56822Y-43309D01*
X56835Y-43326D01*
X56849Y-43335D01*
X56875Y-43343D01*
X56942Y-43343D01*
X56969Y-43335D01*
X56982Y-43326D01*
X56995Y-43309D01*
X56995Y-43266D01*
X56982Y-43249D01*
X56969Y-43240D01*
X56995Y-43514D02*
X56995Y-43411D01*
X56995Y-43463D02*
X56715Y-43463D01*
X56755Y-43446D01*
X56782Y-43428D01*
X56795Y-43411D01*
G54D17*
X60539Y-44207D02*
X60553Y-44221D01*
X60596Y-44235D01*
X60625Y-44235D01*
X60668Y-44221D01*
X60696Y-44193D01*
X60711Y-44164D01*
X60725Y-44107D01*
X60725Y-44064D01*
X60711Y-44007D01*
X60696Y-43978D01*
X60668Y-43950D01*
X60625Y-43935D01*
X60596Y-43935D01*
X60553Y-43950D01*
X60539Y-43964D01*
X60253Y-44235D02*
X60425Y-44235D01*
X60339Y-44235D02*
X60339Y-43935D01*
X60368Y-43978D01*
X60396Y-44007D01*
X60425Y-44021D01*
X59996Y-44035D02*
X59996Y-44235D01*
X60067Y-43921D02*
X60139Y-44135D01*
X59953Y-44135D01*
G54D14*
X59944Y-46771D02*
X59811Y-46711D01*
X59944Y-46668D02*
X59664Y-46668D01*
X59664Y-46736D01*
X59678Y-46754D01*
X59691Y-46762D01*
X59718Y-46771D01*
X59758Y-46771D01*
X59784Y-46762D01*
X59798Y-46754D01*
X59811Y-46736D01*
X59811Y-46668D01*
X59691Y-46839D02*
X59678Y-46848D01*
X59664Y-46865D01*
X59664Y-46908D01*
X59678Y-46925D01*
X59691Y-46934D01*
X59718Y-46942D01*
X59744Y-46942D01*
X59784Y-46934D01*
X59944Y-46831D01*
X59944Y-46942D01*
X59664Y-47053D02*
X59664Y-47070D01*
X59678Y-47087D01*
X59691Y-47096D01*
X59718Y-47105D01*
X59771Y-47113D01*
X59838Y-47113D01*
X59891Y-47105D01*
X59918Y-47096D01*
X59931Y-47087D01*
X59944Y-47070D01*
X59944Y-47053D01*
X59931Y-47036D01*
X59918Y-47027D01*
X59891Y-47019D01*
X59838Y-47010D01*
X59771Y-47010D01*
X59718Y-47019D01*
X59691Y-47027D01*
X59678Y-47036D01*
X59664Y-47053D01*
X59322Y-45773D02*
X59382Y-45640D01*
X59425Y-45773D02*
X59425Y-45493D01*
X59357Y-45493D01*
X59339Y-45507D01*
X59331Y-45520D01*
X59322Y-45547D01*
X59322Y-45587D01*
X59331Y-45613D01*
X59339Y-45627D01*
X59357Y-45640D01*
X59425Y-45640D01*
X59254Y-45520D02*
X59245Y-45507D01*
X59228Y-45493D01*
X59185Y-45493D01*
X59168Y-45507D01*
X59159Y-45520D01*
X59151Y-45547D01*
X59151Y-45573D01*
X59159Y-45613D01*
X59262Y-45773D01*
X59151Y-45773D01*
X58980Y-45773D02*
X59083Y-45773D01*
X59031Y-45773D02*
X59031Y-45493D01*
X59048Y-45533D01*
X59066Y-45560D01*
X59083Y-45573D01*
X58371Y-49528D02*
X58380Y-49541D01*
X58406Y-49554D01*
X58423Y-49554D01*
X58448Y-49541D01*
X58466Y-49514D01*
X58474Y-49488D01*
X58483Y-49434D01*
X58483Y-49394D01*
X58474Y-49341D01*
X58466Y-49314D01*
X58448Y-49288D01*
X58423Y-49274D01*
X58406Y-49274D01*
X58380Y-49288D01*
X58371Y-49301D01*
X58200Y-49554D02*
X58303Y-49554D01*
X58251Y-49554D02*
X58251Y-49274D01*
X58268Y-49314D01*
X58286Y-49341D01*
X58303Y-49354D01*
X58046Y-49274D02*
X58080Y-49274D01*
X58097Y-49288D01*
X58106Y-49301D01*
X58123Y-49341D01*
X58132Y-49394D01*
X58132Y-49501D01*
X58123Y-49528D01*
X58115Y-49541D01*
X58097Y-49554D01*
X58063Y-49554D01*
X58046Y-49541D01*
X58037Y-49528D01*
X58029Y-49501D01*
X58029Y-49434D01*
X58037Y-49408D01*
X58046Y-49394D01*
X58063Y-49381D01*
X58097Y-49381D01*
X58115Y-49394D01*
X58123Y-49408D01*
X58132Y-49434D01*
X61190Y-46933D02*
X61199Y-46946D01*
X61225Y-46959D01*
X61242Y-46959D01*
X61267Y-46946D01*
X61285Y-46919D01*
X61293Y-46893D01*
X61302Y-46839D01*
X61302Y-46799D01*
X61293Y-46746D01*
X61285Y-46719D01*
X61267Y-46693D01*
X61242Y-46679D01*
X61225Y-46679D01*
X61199Y-46693D01*
X61190Y-46706D01*
X61019Y-46959D02*
X61122Y-46959D01*
X61070Y-46959D02*
X61070Y-46679D01*
X61087Y-46719D01*
X61105Y-46746D01*
X61122Y-46759D01*
X60908Y-46679D02*
X60891Y-46679D01*
X60874Y-46693D01*
X60865Y-46706D01*
X60856Y-46733D01*
X60848Y-46786D01*
X60848Y-46853D01*
X60856Y-46906D01*
X60865Y-46933D01*
X60874Y-46946D01*
X60891Y-46959D01*
X60908Y-46959D01*
X60925Y-46946D01*
X60934Y-46933D01*
X60942Y-46906D01*
X60951Y-46853D01*
X60951Y-46786D01*
X60942Y-46733D01*
X60934Y-46706D01*
X60925Y-46693D01*
X60908Y-46679D01*
X60649Y-44916D02*
X60658Y-44929D01*
X60684Y-44942D01*
X60701Y-44942D01*
X60726Y-44929D01*
X60744Y-44902D01*
X60752Y-44876D01*
X60761Y-44822D01*
X60761Y-44782D01*
X60752Y-44729D01*
X60744Y-44702D01*
X60726Y-44676D01*
X60701Y-44662D01*
X60684Y-44662D01*
X60658Y-44676D01*
X60649Y-44689D01*
X60478Y-44942D02*
X60581Y-44942D01*
X60529Y-44942D02*
X60529Y-44662D01*
X60546Y-44702D01*
X60564Y-44729D01*
X60581Y-44742D01*
X60307Y-44942D02*
X60410Y-44942D01*
X60358Y-44942D02*
X60358Y-44662D01*
X60375Y-44702D01*
X60393Y-44729D01*
X60410Y-44742D01*
X61084Y-49075D02*
X61093Y-49088D01*
X61119Y-49101D01*
X61136Y-49101D01*
X61161Y-49088D01*
X61179Y-49061D01*
X61187Y-49035D01*
X61196Y-48981D01*
X61196Y-48941D01*
X61187Y-48888D01*
X61179Y-48861D01*
X61161Y-48835D01*
X61136Y-48821D01*
X61119Y-48821D01*
X61093Y-48835D01*
X61084Y-48848D01*
X60999Y-49101D02*
X60964Y-49101D01*
X60947Y-49088D01*
X60939Y-49075D01*
X60921Y-49035D01*
X60913Y-48981D01*
X60913Y-48875D01*
X60921Y-48848D01*
X60930Y-48835D01*
X60947Y-48821D01*
X60981Y-48821D01*
X60999Y-48835D01*
X61007Y-48848D01*
X61016Y-48875D01*
X61016Y-48941D01*
X61007Y-48968D01*
X60999Y-48981D01*
X60981Y-48995D01*
X60947Y-48995D01*
X60930Y-48981D01*
X60921Y-48968D01*
X60913Y-48941D01*
X60340Y-46457D02*
X60349Y-46470D01*
X60375Y-46483D01*
X60392Y-46483D01*
X60417Y-46470D01*
X60435Y-46443D01*
X60443Y-46417D01*
X60452Y-46363D01*
X60452Y-46323D01*
X60443Y-46270D01*
X60435Y-46243D01*
X60417Y-46217D01*
X60392Y-46203D01*
X60375Y-46203D01*
X60349Y-46217D01*
X60340Y-46230D01*
X60237Y-46323D02*
X60255Y-46310D01*
X60263Y-46297D01*
X60272Y-46270D01*
X60272Y-46257D01*
X60263Y-46230D01*
X60255Y-46217D01*
X60237Y-46203D01*
X60203Y-46203D01*
X60186Y-46217D01*
X60177Y-46230D01*
X60169Y-46257D01*
X60169Y-46270D01*
X60177Y-46297D01*
X60186Y-46310D01*
X60203Y-46323D01*
X60237Y-46323D01*
X60255Y-46337D01*
X60263Y-46350D01*
X60272Y-46377D01*
X60272Y-46430D01*
X60263Y-46457D01*
X60255Y-46470D01*
X60237Y-46483D01*
X60203Y-46483D01*
X60186Y-46470D01*
X60177Y-46457D01*
X60169Y-46430D01*
X60169Y-46377D01*
X60177Y-46350D01*
X60186Y-46337D01*
X60203Y-46323D01*
X57135Y-45556D02*
X57144Y-45569D01*
X57170Y-45582D01*
X57187Y-45582D01*
X57212Y-45569D01*
X57230Y-45542D01*
X57238Y-45516D01*
X57247Y-45462D01*
X57247Y-45422D01*
X57238Y-45369D01*
X57230Y-45342D01*
X57212Y-45316D01*
X57187Y-45302D01*
X57170Y-45302D01*
X57144Y-45316D01*
X57135Y-45329D01*
X56964Y-45582D02*
X57067Y-45582D01*
X57015Y-45582D02*
X57015Y-45302D01*
X57032Y-45342D01*
X57050Y-45369D01*
X57067Y-45382D01*
X56896Y-45329D02*
X56887Y-45316D01*
X56870Y-45302D01*
X56827Y-45302D01*
X56810Y-45316D01*
X56801Y-45329D01*
X56793Y-45356D01*
X56793Y-45382D01*
X56801Y-45422D01*
X56904Y-45582D01*
X56793Y-45582D01*
X58658Y-48614D02*
X58667Y-48627D01*
X58693Y-48640D01*
X58710Y-48640D01*
X58735Y-48627D01*
X58753Y-48600D01*
X58761Y-48574D01*
X58770Y-48520D01*
X58770Y-48480D01*
X58761Y-48427D01*
X58753Y-48400D01*
X58735Y-48374D01*
X58710Y-48360D01*
X58693Y-48360D01*
X58667Y-48374D01*
X58658Y-48387D01*
X58487Y-48640D02*
X58590Y-48640D01*
X58538Y-48640D02*
X58538Y-48360D01*
X58555Y-48400D01*
X58573Y-48427D01*
X58590Y-48440D01*
X58427Y-48360D02*
X58316Y-48360D01*
X58376Y-48467D01*
X58350Y-48467D01*
X58333Y-48480D01*
X58324Y-48494D01*
X58316Y-48520D01*
X58316Y-48587D01*
X58324Y-48614D01*
X58333Y-48627D01*
X58350Y-48640D01*
X58402Y-48640D01*
X58419Y-48627D01*
X58427Y-48614D01*
X59021Y-42902D02*
X59030Y-42915D01*
X59056Y-42928D01*
X59073Y-42928D01*
X59098Y-42915D01*
X59116Y-42888D01*
X59124Y-42862D01*
X59133Y-42808D01*
X59133Y-42768D01*
X59124Y-42715D01*
X59116Y-42688D01*
X59098Y-42662D01*
X59073Y-42648D01*
X59056Y-42648D01*
X59030Y-42662D01*
X59021Y-42675D01*
X58850Y-42928D02*
X58953Y-42928D01*
X58901Y-42928D02*
X58901Y-42648D01*
X58918Y-42688D01*
X58936Y-42715D01*
X58953Y-42728D01*
X58687Y-42648D02*
X58773Y-42648D01*
X58782Y-42782D01*
X58773Y-42768D01*
X58756Y-42755D01*
X58713Y-42755D01*
X58696Y-42768D01*
X58687Y-42782D01*
X58679Y-42808D01*
X58679Y-42875D01*
X58687Y-42902D01*
X58696Y-42915D01*
X58713Y-42928D01*
X58756Y-42928D01*
X58773Y-42915D01*
X58782Y-42902D01*
X58584Y-52996D02*
X58593Y-53009D01*
X58619Y-53022D01*
X58636Y-53022D01*
X58661Y-53009D01*
X58679Y-52982D01*
X58687Y-52956D01*
X58696Y-52902D01*
X58696Y-52862D01*
X58687Y-52809D01*
X58679Y-52782D01*
X58661Y-52756D01*
X58636Y-52742D01*
X58619Y-52742D01*
X58593Y-52756D01*
X58584Y-52769D01*
X58516Y-52769D02*
X58507Y-52756D01*
X58490Y-52742D01*
X58447Y-52742D01*
X58430Y-52756D01*
X58421Y-52769D01*
X58413Y-52796D01*
X58413Y-52822D01*
X58421Y-52862D01*
X58524Y-53022D01*
X58413Y-53022D01*
X58302Y-52742D02*
X58285Y-52742D01*
X58268Y-52756D01*
X58259Y-52769D01*
X58250Y-52796D01*
X58242Y-52849D01*
X58242Y-52916D01*
X58250Y-52969D01*
X58259Y-52996D01*
X58268Y-53009D01*
X58285Y-53022D01*
X58302Y-53022D01*
X58319Y-53009D01*
X58328Y-52996D01*
X58336Y-52969D01*
X58345Y-52916D01*
X58345Y-52849D01*
X58336Y-52796D01*
X58328Y-52769D01*
X58319Y-52756D01*
X58302Y-52742D01*
G54D17*
X55612Y-52042D02*
X55731Y-52042D01*
X55731Y-51792D01*
X55518Y-52042D02*
X55470Y-52042D01*
X55446Y-52030D01*
X55434Y-52018D01*
X55410Y-51983D01*
X55399Y-51935D01*
X55399Y-51840D01*
X55410Y-51816D01*
X55422Y-51804D01*
X55446Y-51792D01*
X55494Y-51792D01*
X55518Y-51804D01*
X55529Y-51816D01*
X55541Y-51840D01*
X55541Y-51899D01*
X55529Y-51923D01*
X55518Y-51935D01*
X55494Y-51947D01*
X55446Y-51947D01*
X55422Y-51935D01*
X55410Y-51923D01*
X55399Y-51899D01*
X56357Y-43416D02*
X56357Y-43297D01*
X56107Y-43297D01*
X56214Y-43534D02*
X56202Y-43510D01*
X56191Y-43499D01*
X56167Y-43487D01*
X56155Y-43487D01*
X56131Y-43499D01*
X56119Y-43510D01*
X56107Y-43534D01*
X56107Y-43582D01*
X56119Y-43606D01*
X56131Y-43618D01*
X56155Y-43629D01*
X56167Y-43629D01*
X56191Y-43618D01*
X56202Y-43606D01*
X56214Y-43582D01*
X56214Y-43534D01*
X56226Y-43510D01*
X56238Y-43499D01*
X56262Y-43487D01*
X56310Y-43487D01*
X56333Y-43499D01*
X56345Y-43510D01*
X56357Y-43534D01*
X56357Y-43582D01*
X56345Y-43606D01*
X56333Y-43618D01*
X56310Y-43629D01*
X56262Y-43629D01*
X56238Y-43618D01*
X56226Y-43606D01*
X56214Y-43582D01*
X59513Y-45097D02*
X59632Y-45097D01*
X59632Y-44847D01*
X59454Y-44847D02*
X59288Y-44847D01*
X59395Y-45097D01*
X55605Y-43430D02*
X55617Y-43418D01*
X55629Y-43383D01*
X55629Y-43359D01*
X55617Y-43323D01*
X55593Y-43299D01*
X55570Y-43288D01*
X55522Y-43276D01*
X55486Y-43276D01*
X55439Y-43288D01*
X55415Y-43299D01*
X55391Y-43323D01*
X55379Y-43359D01*
X55379Y-43383D01*
X55391Y-43418D01*
X55403Y-43430D01*
X55629Y-43668D02*
X55629Y-43526D01*
X55629Y-43597D02*
X55379Y-43597D01*
X55415Y-43573D01*
X55439Y-43549D01*
X55451Y-43526D01*
X55379Y-43752D02*
X55379Y-43918D01*
X55629Y-43811D01*
X59618Y-50723D02*
X59632Y-50737D01*
X59675Y-50751D01*
X59704Y-50751D01*
X59747Y-50737D01*
X59775Y-50709D01*
X59790Y-50680D01*
X59804Y-50623D01*
X59804Y-50580D01*
X59790Y-50523D01*
X59775Y-50494D01*
X59747Y-50466D01*
X59704Y-50451D01*
X59675Y-50451D01*
X59632Y-50466D01*
X59618Y-50480D01*
X59332Y-50751D02*
X59504Y-50751D01*
X59418Y-50751D02*
X59418Y-50451D01*
X59447Y-50494D01*
X59475Y-50523D01*
X59504Y-50537D01*
X59161Y-50580D02*
X59189Y-50566D01*
X59204Y-50551D01*
X59218Y-50523D01*
X59218Y-50509D01*
X59204Y-50480D01*
X59189Y-50466D01*
X59161Y-50451D01*
X59104Y-50451D01*
X59075Y-50466D01*
X59061Y-50480D01*
X59046Y-50509D01*
X59046Y-50523D01*
X59061Y-50551D01*
X59075Y-50566D01*
X59104Y-50580D01*
X59161Y-50580D01*
X59189Y-50594D01*
X59204Y-50609D01*
X59218Y-50637D01*
X59218Y-50694D01*
X59204Y-50723D01*
X59189Y-50737D01*
X59161Y-50751D01*
X59104Y-50751D01*
X59075Y-50737D01*
X59061Y-50723D01*
X59046Y-50694D01*
X59046Y-50637D01*
X59061Y-50609D01*
X59075Y-50594D01*
X59104Y-50580D01*
G54D21*
X63743Y-49259D02*
X63743Y-49421D01*
X63734Y-49440D01*
X63724Y-49449D01*
X63705Y-49459D01*
X63667Y-49459D01*
X63648Y-49449D01*
X63639Y-49440D01*
X63629Y-49421D01*
X63629Y-49259D01*
X63505Y-49345D02*
X63524Y-49335D01*
X63533Y-49326D01*
X63543Y-49307D01*
X63543Y-49297D01*
X63533Y-49278D01*
X63524Y-49268D01*
X63505Y-49259D01*
X63467Y-49259D01*
X63448Y-49268D01*
X63438Y-49278D01*
X63429Y-49297D01*
X63429Y-49307D01*
X63438Y-49326D01*
X63448Y-49335D01*
X63467Y-49345D01*
X63505Y-49345D01*
X63524Y-49354D01*
X63533Y-49364D01*
X63543Y-49383D01*
X63543Y-49421D01*
X63533Y-49440D01*
X63524Y-49449D01*
X63505Y-49459D01*
X63467Y-49459D01*
X63448Y-49449D01*
X63438Y-49440D01*
X63429Y-49421D01*
X63429Y-49383D01*
X63438Y-49364D01*
X63448Y-49354D01*
X63467Y-49345D01*
X59842Y-53116D02*
X60004Y-53116D01*
X60023Y-53125D01*
X60032Y-53135D01*
X60042Y-53154D01*
X60042Y-53192D01*
X60032Y-53211D01*
X60023Y-53220D01*
X60004Y-53230D01*
X59842Y-53230D01*
X59842Y-53307D02*
X59842Y-53440D01*
X60042Y-53354D01*
X63778Y-51251D02*
X63778Y-51413D01*
X63769Y-51432D01*
X63759Y-51441D01*
X63740Y-51451D01*
X63702Y-51451D01*
X63683Y-51441D01*
X63674Y-51432D01*
X63664Y-51413D01*
X63664Y-51251D01*
X63483Y-51251D02*
X63521Y-51251D01*
X63540Y-51260D01*
X63549Y-51270D01*
X63568Y-51299D01*
X63578Y-51337D01*
X63578Y-51413D01*
X63568Y-51432D01*
X63559Y-51441D01*
X63540Y-51451D01*
X63502Y-51451D01*
X63483Y-51441D01*
X63473Y-51432D01*
X63464Y-51413D01*
X63464Y-51365D01*
X63473Y-51346D01*
X63483Y-51337D01*
X63502Y-51327D01*
X63540Y-51327D01*
X63559Y-51337D01*
X63568Y-51346D01*
X63578Y-51365D01*
X63743Y-50275D02*
X63743Y-50437D01*
X63734Y-50456D01*
X63724Y-50465D01*
X63705Y-50475D01*
X63667Y-50475D01*
X63648Y-50465D01*
X63639Y-50456D01*
X63629Y-50437D01*
X63629Y-50275D01*
X63438Y-50275D02*
X63533Y-50275D01*
X63543Y-50370D01*
X63533Y-50361D01*
X63514Y-50351D01*
X63467Y-50351D01*
X63448Y-50361D01*
X63438Y-50370D01*
X63429Y-50389D01*
X63429Y-50437D01*
X63438Y-50456D01*
X63448Y-50465D01*
X63467Y-50475D01*
X63514Y-50475D01*
X63533Y-50465D01*
X63543Y-50456D01*
G54D18*
X58193Y-39849D02*
X58193Y-40140D01*
X58178Y-40174D01*
X58162Y-40192D01*
X58132Y-40209D01*
X58071Y-40209D01*
X58040Y-40192D01*
X58025Y-40174D01*
X58010Y-40140D01*
X58010Y-39849D01*
X57873Y-39883D02*
X57858Y-39866D01*
X57827Y-39849D01*
X57751Y-39849D01*
X57721Y-39866D01*
X57705Y-39883D01*
X57690Y-39917D01*
X57690Y-39952D01*
X57705Y-40003D01*
X57888Y-40209D01*
X57690Y-40209D01*
G54D15*
X57369Y-46773D02*
X57133Y-47127D01*
X57133Y-46773D02*
X57369Y-47127D01*
X57016Y-46807D02*
X56999Y-46790D01*
X56965Y-46773D01*
X56881Y-46773D01*
X56847Y-46790D01*
X56830Y-46807D01*
X56813Y-46841D01*
X56813Y-46874D01*
X56830Y-46925D01*
X57032Y-47127D01*
X56813Y-47127D01*
G54D17*
X51723Y-51981D02*
X51735Y-51969D01*
X51747Y-51934D01*
X51747Y-51910D01*
X51735Y-51874D01*
X51711Y-51850D01*
X51688Y-51839D01*
X51640Y-51827D01*
X51604Y-51827D01*
X51557Y-51839D01*
X51533Y-51850D01*
X51509Y-51874D01*
X51497Y-51910D01*
X51497Y-51934D01*
X51509Y-51969D01*
X51521Y-51981D01*
X51497Y-52065D02*
X51497Y-52219D01*
X51592Y-52136D01*
X51592Y-52172D01*
X51604Y-52196D01*
X51616Y-52208D01*
X51640Y-52219D01*
X51700Y-52219D01*
X51723Y-52208D01*
X51735Y-52196D01*
X51747Y-52172D01*
X51747Y-52100D01*
X51735Y-52077D01*
X51723Y-52065D01*
X51581Y-52434D02*
X51747Y-52434D01*
X51485Y-52374D02*
X51664Y-52315D01*
X51664Y-52469D01*
X50850Y-40790D02*
X50862Y-40802D01*
X50897Y-40814D01*
X50921Y-40814D01*
X50957Y-40802D01*
X50981Y-40778D01*
X50992Y-40755D01*
X51004Y-40707D01*
X51004Y-40671D01*
X50992Y-40624D01*
X50981Y-40600D01*
X50957Y-40576D01*
X50921Y-40564D01*
X50897Y-40564D01*
X50862Y-40576D01*
X50850Y-40588D01*
X50754Y-40588D02*
X50742Y-40576D01*
X50719Y-40564D01*
X50659Y-40564D01*
X50635Y-40576D01*
X50623Y-40588D01*
X50612Y-40612D01*
X50612Y-40636D01*
X50623Y-40671D01*
X50766Y-40814D01*
X50612Y-40814D01*
X50385Y-40564D02*
X50504Y-40564D01*
X50516Y-40683D01*
X50504Y-40671D01*
X50481Y-40659D01*
X50421Y-40659D01*
X50397Y-40671D01*
X50385Y-40683D01*
X50374Y-40707D01*
X50374Y-40767D01*
X50385Y-40790D01*
X50397Y-40802D01*
X50421Y-40814D01*
X50481Y-40814D01*
X50504Y-40802D01*
X50516Y-40790D01*
X49451Y-34345D02*
X49570Y-34345D01*
X49570Y-34095D01*
X49238Y-34345D02*
X49380Y-34345D01*
X49309Y-34345D02*
X49309Y-34095D01*
X49333Y-34131D01*
X49357Y-34155D01*
X49380Y-34167D01*
X49154Y-34095D02*
X49000Y-34095D01*
X49083Y-34190D01*
X49047Y-34190D01*
X49023Y-34202D01*
X49011Y-34214D01*
X49000Y-34238D01*
X49000Y-34298D01*
X49011Y-34321D01*
X49023Y-34333D01*
X49047Y-34345D01*
X49119Y-34345D01*
X49142Y-34333D01*
X49154Y-34321D01*
X36357Y-53743D02*
X36476Y-53743D01*
X36476Y-53493D01*
X36144Y-53743D02*
X36286Y-53743D01*
X36215Y-53743D02*
X36215Y-53493D01*
X36239Y-53529D01*
X36263Y-53553D01*
X36286Y-53565D01*
X36048Y-53517D02*
X36036Y-53505D01*
X36013Y-53493D01*
X35953Y-53493D01*
X35929Y-53505D01*
X35917Y-53517D01*
X35906Y-53541D01*
X35906Y-53565D01*
X35917Y-53600D01*
X36060Y-53743D01*
X35906Y-53743D01*
X57329Y-34270D02*
X57448Y-34270D01*
X57448Y-34020D01*
X57116Y-34270D02*
X57258Y-34270D01*
X57187Y-34270D02*
X57187Y-34020D01*
X57211Y-34056D01*
X57235Y-34080D01*
X57258Y-34092D01*
X56878Y-34270D02*
X57020Y-34270D01*
X56949Y-34270D02*
X56949Y-34020D01*
X56973Y-34056D01*
X56997Y-34080D01*
X57020Y-34092D01*
X39208Y-36652D02*
X39327Y-36652D01*
X39327Y-36402D01*
X38995Y-36652D02*
X39137Y-36652D01*
X39066Y-36652D02*
X39066Y-36402D01*
X39090Y-36438D01*
X39114Y-36462D01*
X39137Y-36474D01*
X38768Y-36402D02*
X38887Y-36402D01*
X38899Y-36521D01*
X38887Y-36509D01*
X38864Y-36497D01*
X38804Y-36497D01*
X38780Y-36509D01*
X38768Y-36521D01*
X38757Y-36545D01*
X38757Y-36605D01*
X38768Y-36628D01*
X38780Y-36640D01*
X38804Y-36652D01*
X38864Y-36652D01*
X38887Y-36640D01*
X38899Y-36628D01*
X39838Y-37849D02*
X39957Y-37849D01*
X39957Y-37599D01*
X39625Y-37849D02*
X39767Y-37849D01*
X39696Y-37849D02*
X39696Y-37599D01*
X39720Y-37635D01*
X39744Y-37659D01*
X39767Y-37671D01*
X39410Y-37683D02*
X39410Y-37849D01*
X39470Y-37587D02*
X39529Y-37766D01*
X39375Y-37766D01*
X37618Y-38081D02*
X37630Y-38093D01*
X37665Y-38105D01*
X37689Y-38105D01*
X37725Y-38093D01*
X37749Y-38069D01*
X37760Y-38046D01*
X37772Y-37998D01*
X37772Y-37962D01*
X37760Y-37915D01*
X37749Y-37891D01*
X37725Y-37867D01*
X37689Y-37855D01*
X37665Y-37855D01*
X37630Y-37867D01*
X37618Y-37879D01*
X37534Y-37855D02*
X37368Y-37855D01*
X37475Y-38105D01*
X37296Y-37855D02*
X37142Y-37855D01*
X37225Y-37950D01*
X37189Y-37950D01*
X37165Y-37962D01*
X37153Y-37974D01*
X37142Y-37998D01*
X37142Y-38058D01*
X37153Y-38081D01*
X37165Y-38093D01*
X37189Y-38105D01*
X37261Y-38105D01*
X37284Y-38093D01*
X37296Y-38081D01*
G54D14*
X40722Y-37850D02*
X40731Y-37863D01*
X40757Y-37876D01*
X40774Y-37876D01*
X40799Y-37863D01*
X40817Y-37836D01*
X40825Y-37810D01*
X40834Y-37756D01*
X40834Y-37716D01*
X40825Y-37663D01*
X40817Y-37636D01*
X40799Y-37610D01*
X40774Y-37596D01*
X40757Y-37596D01*
X40731Y-37610D01*
X40722Y-37623D01*
X40654Y-37623D02*
X40645Y-37610D01*
X40628Y-37596D01*
X40585Y-37596D01*
X40568Y-37610D01*
X40559Y-37623D01*
X40551Y-37650D01*
X40551Y-37676D01*
X40559Y-37716D01*
X40662Y-37876D01*
X40551Y-37876D01*
X40448Y-37716D02*
X40466Y-37703D01*
X40474Y-37690D01*
X40483Y-37663D01*
X40483Y-37650D01*
X40474Y-37623D01*
X40466Y-37610D01*
X40448Y-37596D01*
X40414Y-37596D01*
X40397Y-37610D01*
X40388Y-37623D01*
X40380Y-37650D01*
X40380Y-37663D01*
X40388Y-37690D01*
X40397Y-37703D01*
X40414Y-37716D01*
X40448Y-37716D01*
X40466Y-37730D01*
X40474Y-37743D01*
X40483Y-37770D01*
X40483Y-37823D01*
X40474Y-37850D01*
X40466Y-37863D01*
X40448Y-37876D01*
X40414Y-37876D01*
X40397Y-37863D01*
X40388Y-37850D01*
X40380Y-37823D01*
X40380Y-37770D01*
X40388Y-37743D01*
X40397Y-37730D01*
X40414Y-37716D01*
X41864Y-37831D02*
X41873Y-37844D01*
X41899Y-37857D01*
X41916Y-37857D01*
X41941Y-37844D01*
X41959Y-37817D01*
X41967Y-37791D01*
X41976Y-37737D01*
X41976Y-37697D01*
X41967Y-37644D01*
X41959Y-37617D01*
X41941Y-37591D01*
X41916Y-37577D01*
X41899Y-37577D01*
X41873Y-37591D01*
X41864Y-37604D01*
X41796Y-37604D02*
X41787Y-37591D01*
X41770Y-37577D01*
X41727Y-37577D01*
X41710Y-37591D01*
X41701Y-37604D01*
X41693Y-37631D01*
X41693Y-37657D01*
X41701Y-37697D01*
X41804Y-37857D01*
X41693Y-37857D01*
X41539Y-37577D02*
X41573Y-37577D01*
X41590Y-37591D01*
X41599Y-37604D01*
X41616Y-37644D01*
X41625Y-37697D01*
X41625Y-37804D01*
X41616Y-37831D01*
X41608Y-37844D01*
X41590Y-37857D01*
X41556Y-37857D01*
X41539Y-37844D01*
X41530Y-37831D01*
X41522Y-37804D01*
X41522Y-37737D01*
X41530Y-37711D01*
X41539Y-37697D01*
X41556Y-37684D01*
X41590Y-37684D01*
X41608Y-37697D01*
X41616Y-37711D01*
X41625Y-37737D01*
X38702Y-39287D02*
X38711Y-39300D01*
X38737Y-39313D01*
X38754Y-39313D01*
X38779Y-39300D01*
X38797Y-39273D01*
X38805Y-39247D01*
X38814Y-39193D01*
X38814Y-39153D01*
X38805Y-39100D01*
X38797Y-39073D01*
X38779Y-39047D01*
X38754Y-39033D01*
X38737Y-39033D01*
X38711Y-39047D01*
X38702Y-39060D01*
X38642Y-39033D02*
X38522Y-39033D01*
X38599Y-39313D01*
X38463Y-39060D02*
X38454Y-39047D01*
X38437Y-39033D01*
X38394Y-39033D01*
X38377Y-39047D01*
X38368Y-39060D01*
X38360Y-39087D01*
X38360Y-39113D01*
X38368Y-39153D01*
X38471Y-39313D01*
X38360Y-39313D01*
X43431Y-41689D02*
X43440Y-41702D01*
X43466Y-41715D01*
X43483Y-41715D01*
X43508Y-41702D01*
X43526Y-41675D01*
X43534Y-41649D01*
X43543Y-41595D01*
X43543Y-41555D01*
X43534Y-41502D01*
X43526Y-41475D01*
X43508Y-41449D01*
X43483Y-41435D01*
X43466Y-41435D01*
X43440Y-41449D01*
X43431Y-41462D01*
X43268Y-41435D02*
X43354Y-41435D01*
X43363Y-41569D01*
X43354Y-41555D01*
X43337Y-41542D01*
X43294Y-41542D01*
X43277Y-41555D01*
X43268Y-41569D01*
X43260Y-41595D01*
X43260Y-41662D01*
X43268Y-41689D01*
X43277Y-41702D01*
X43294Y-41715D01*
X43337Y-41715D01*
X43354Y-41702D01*
X43363Y-41689D01*
X43157Y-41555D02*
X43175Y-41542D01*
X43183Y-41529D01*
X43192Y-41502D01*
X43192Y-41489D01*
X43183Y-41462D01*
X43175Y-41449D01*
X43157Y-41435D01*
X43123Y-41435D01*
X43106Y-41449D01*
X43097Y-41462D01*
X43089Y-41489D01*
X43089Y-41502D01*
X43097Y-41529D01*
X43106Y-41542D01*
X43123Y-41555D01*
X43157Y-41555D01*
X43175Y-41569D01*
X43183Y-41582D01*
X43192Y-41609D01*
X43192Y-41662D01*
X43183Y-41689D01*
X43175Y-41702D01*
X43157Y-41715D01*
X43123Y-41715D01*
X43106Y-41702D01*
X43097Y-41689D01*
X43089Y-41662D01*
X43089Y-41609D01*
X43097Y-41582D01*
X43106Y-41569D01*
X43123Y-41555D01*
X37261Y-39260D02*
X37270Y-39273D01*
X37296Y-39286D01*
X37313Y-39286D01*
X37338Y-39273D01*
X37356Y-39246D01*
X37364Y-39220D01*
X37373Y-39166D01*
X37373Y-39126D01*
X37364Y-39073D01*
X37356Y-39046D01*
X37338Y-39020D01*
X37313Y-39006D01*
X37296Y-39006D01*
X37270Y-39020D01*
X37261Y-39033D01*
X37098Y-39006D02*
X37184Y-39006D01*
X37193Y-39140D01*
X37184Y-39126D01*
X37167Y-39113D01*
X37124Y-39113D01*
X37107Y-39126D01*
X37098Y-39140D01*
X37090Y-39166D01*
X37090Y-39233D01*
X37098Y-39260D01*
X37107Y-39273D01*
X37124Y-39286D01*
X37167Y-39286D01*
X37184Y-39273D01*
X37193Y-39260D01*
X36927Y-39006D02*
X37013Y-39006D01*
X37022Y-39140D01*
X37013Y-39126D01*
X36996Y-39113D01*
X36953Y-39113D01*
X36936Y-39126D01*
X36927Y-39140D01*
X36919Y-39166D01*
X36919Y-39233D01*
X36927Y-39260D01*
X36936Y-39273D01*
X36953Y-39286D01*
X36996Y-39286D01*
X37013Y-39273D01*
X37022Y-39260D01*
X37305Y-40807D02*
X37314Y-40820D01*
X37340Y-40833D01*
X37357Y-40833D01*
X37382Y-40820D01*
X37400Y-40793D01*
X37408Y-40767D01*
X37417Y-40713D01*
X37417Y-40673D01*
X37408Y-40620D01*
X37400Y-40593D01*
X37382Y-40567D01*
X37357Y-40553D01*
X37340Y-40553D01*
X37314Y-40567D01*
X37305Y-40580D01*
X37142Y-40553D02*
X37228Y-40553D01*
X37237Y-40687D01*
X37228Y-40673D01*
X37211Y-40660D01*
X37168Y-40660D01*
X37151Y-40673D01*
X37142Y-40687D01*
X37134Y-40713D01*
X37134Y-40780D01*
X37142Y-40807D01*
X37151Y-40820D01*
X37168Y-40833D01*
X37211Y-40833D01*
X37228Y-40820D01*
X37237Y-40807D01*
X36980Y-40553D02*
X37014Y-40553D01*
X37031Y-40567D01*
X37040Y-40580D01*
X37057Y-40620D01*
X37066Y-40673D01*
X37066Y-40780D01*
X37057Y-40807D01*
X37049Y-40820D01*
X37031Y-40833D01*
X36997Y-40833D01*
X36980Y-40820D01*
X36971Y-40807D01*
X36963Y-40780D01*
X36963Y-40713D01*
X36971Y-40687D01*
X36980Y-40673D01*
X36997Y-40660D01*
X37031Y-40660D01*
X37049Y-40673D01*
X37057Y-40687D01*
X37066Y-40713D01*
X39714Y-40549D02*
X39581Y-40489D01*
X39714Y-40446D02*
X39434Y-40446D01*
X39434Y-40514D01*
X39448Y-40532D01*
X39461Y-40540D01*
X39488Y-40549D01*
X39528Y-40549D01*
X39554Y-40540D01*
X39568Y-40532D01*
X39581Y-40514D01*
X39581Y-40446D01*
X39434Y-40609D02*
X39434Y-40720D01*
X39541Y-40660D01*
X39541Y-40686D01*
X39554Y-40703D01*
X39568Y-40712D01*
X39594Y-40720D01*
X39661Y-40720D01*
X39688Y-40712D01*
X39701Y-40703D01*
X39714Y-40686D01*
X39714Y-40634D01*
X39701Y-40617D01*
X39688Y-40609D01*
X39528Y-40874D02*
X39714Y-40874D01*
X39421Y-40831D02*
X39621Y-40788D01*
X39621Y-40900D01*
X44190Y-37502D02*
X44057Y-37442D01*
X44190Y-37399D02*
X43910Y-37399D01*
X43910Y-37467D01*
X43924Y-37485D01*
X43937Y-37493D01*
X43964Y-37502D01*
X44004Y-37502D01*
X44030Y-37493D01*
X44044Y-37485D01*
X44057Y-37467D01*
X44057Y-37399D01*
X43937Y-37570D02*
X43924Y-37579D01*
X43910Y-37596D01*
X43910Y-37639D01*
X43924Y-37656D01*
X43937Y-37665D01*
X43964Y-37673D01*
X43990Y-37673D01*
X44030Y-37665D01*
X44190Y-37562D01*
X44190Y-37673D01*
X43910Y-37827D02*
X43910Y-37793D01*
X43924Y-37776D01*
X43937Y-37767D01*
X43977Y-37750D01*
X44030Y-37741D01*
X44137Y-37741D01*
X44164Y-37750D01*
X44177Y-37758D01*
X44190Y-37776D01*
X44190Y-37810D01*
X44177Y-37827D01*
X44164Y-37836D01*
X44137Y-37844D01*
X44070Y-37844D01*
X44044Y-37836D01*
X44030Y-37827D01*
X44017Y-37810D01*
X44017Y-37776D01*
X44030Y-37758D01*
X44044Y-37750D01*
X44070Y-37741D01*
G54D17*
X48436Y-51657D02*
X48450Y-51643D01*
X48464Y-51600D01*
X48464Y-51571D01*
X48450Y-51528D01*
X48422Y-51500D01*
X48393Y-51485D01*
X48336Y-51471D01*
X48293Y-51471D01*
X48236Y-51485D01*
X48207Y-51500D01*
X48179Y-51528D01*
X48164Y-51571D01*
X48164Y-51600D01*
X48179Y-51643D01*
X48193Y-51657D01*
X48164Y-51757D02*
X48164Y-51957D01*
X48464Y-51828D01*
X48264Y-52200D02*
X48464Y-52200D01*
X48150Y-52129D02*
X48364Y-52057D01*
X48364Y-52243D01*
G54D14*
X43235Y-36758D02*
X43248Y-36749D01*
X43261Y-36723D01*
X43261Y-36706D01*
X43248Y-36681D01*
X43221Y-36663D01*
X43195Y-36655D01*
X43141Y-36646D01*
X43101Y-36646D01*
X43048Y-36655D01*
X43021Y-36663D01*
X42995Y-36681D01*
X42981Y-36706D01*
X42981Y-36723D01*
X42995Y-36749D01*
X43008Y-36758D01*
X42981Y-36921D02*
X42981Y-36835D01*
X43115Y-36826D01*
X43101Y-36835D01*
X43088Y-36852D01*
X43088Y-36895D01*
X43101Y-36912D01*
X43115Y-36921D01*
X43141Y-36929D01*
X43208Y-36929D01*
X43235Y-36921D01*
X43248Y-36912D01*
X43261Y-36895D01*
X43261Y-36852D01*
X43248Y-36835D01*
X43235Y-36826D01*
X43075Y-37083D02*
X43261Y-37083D01*
X42968Y-37040D02*
X43168Y-36997D01*
X43168Y-37109D01*
X39832Y-49172D02*
X39892Y-49039D01*
X39935Y-49172D02*
X39935Y-48892D01*
X39867Y-48892D01*
X39849Y-48906D01*
X39841Y-48919D01*
X39832Y-48946D01*
X39832Y-48986D01*
X39841Y-49012D01*
X39849Y-49026D01*
X39867Y-49039D01*
X39935Y-49039D01*
X39772Y-48892D02*
X39661Y-48892D01*
X39721Y-48999D01*
X39695Y-48999D01*
X39678Y-49012D01*
X39669Y-49026D01*
X39661Y-49052D01*
X39661Y-49119D01*
X39669Y-49146D01*
X39678Y-49159D01*
X39695Y-49172D01*
X39747Y-49172D01*
X39764Y-49159D01*
X39772Y-49146D01*
X39601Y-48892D02*
X39481Y-48892D01*
X39558Y-49172D01*
X38911Y-49184D02*
X38971Y-49051D01*
X39014Y-49184D02*
X39014Y-48904D01*
X38946Y-48904D01*
X38928Y-48918D01*
X38920Y-48931D01*
X38911Y-48958D01*
X38911Y-48998D01*
X38920Y-49024D01*
X38928Y-49038D01*
X38946Y-49051D01*
X39014Y-49051D01*
X38851Y-48904D02*
X38740Y-48904D01*
X38800Y-49011D01*
X38774Y-49011D01*
X38757Y-49024D01*
X38748Y-49038D01*
X38740Y-49064D01*
X38740Y-49131D01*
X38748Y-49158D01*
X38757Y-49171D01*
X38774Y-49184D01*
X38826Y-49184D01*
X38843Y-49171D01*
X38851Y-49158D01*
X38577Y-48904D02*
X38663Y-48904D01*
X38672Y-49038D01*
X38663Y-49024D01*
X38646Y-49011D01*
X38603Y-49011D01*
X38586Y-49024D01*
X38577Y-49038D01*
X38569Y-49064D01*
X38569Y-49131D01*
X38577Y-49158D01*
X38586Y-49171D01*
X38603Y-49184D01*
X38646Y-49184D01*
X38663Y-49171D01*
X38672Y-49158D01*
G54D22*
X38927Y-52033D02*
X38954Y-52020D01*
X38980Y-51994D01*
X39019Y-51954D01*
X39046Y-51941D01*
X39072Y-51941D01*
X39059Y-52007D02*
X39085Y-51994D01*
X39111Y-51967D01*
X39124Y-51915D01*
X39124Y-51823D01*
X39111Y-51770D01*
X39085Y-51744D01*
X39059Y-51731D01*
X39006Y-51731D01*
X38980Y-51744D01*
X38954Y-51770D01*
X38940Y-51823D01*
X38940Y-51915D01*
X38954Y-51967D01*
X38980Y-51994D01*
X39006Y-52007D01*
X39059Y-52007D01*
X38849Y-51731D02*
X38678Y-51731D01*
X38770Y-51836D01*
X38730Y-51836D01*
X38704Y-51849D01*
X38691Y-51862D01*
X38678Y-51888D01*
X38678Y-51954D01*
X38691Y-51980D01*
X38704Y-51994D01*
X38730Y-52007D01*
X38809Y-52007D01*
X38835Y-51994D01*
X38849Y-51980D01*
X40392Y-52702D02*
X40419Y-52689D01*
X40445Y-52663D01*
X40484Y-52623D01*
X40511Y-52610D01*
X40537Y-52610D01*
X40524Y-52676D02*
X40550Y-52663D01*
X40576Y-52636D01*
X40589Y-52584D01*
X40589Y-52492D01*
X40576Y-52439D01*
X40550Y-52413D01*
X40524Y-52400D01*
X40471Y-52400D01*
X40445Y-52413D01*
X40419Y-52439D01*
X40405Y-52492D01*
X40405Y-52584D01*
X40419Y-52636D01*
X40445Y-52663D01*
X40471Y-52676D01*
X40524Y-52676D01*
X40300Y-52426D02*
X40287Y-52413D01*
X40261Y-52400D01*
X40195Y-52400D01*
X40169Y-52413D01*
X40156Y-52426D01*
X40143Y-52452D01*
X40143Y-52479D01*
X40156Y-52518D01*
X40314Y-52676D01*
X40143Y-52676D01*
G54D14*
X42142Y-52237D02*
X42202Y-52104D01*
X42245Y-52237D02*
X42245Y-51957D01*
X42177Y-51957D01*
X42159Y-51971D01*
X42151Y-51984D01*
X42142Y-52011D01*
X42142Y-52051D01*
X42151Y-52077D01*
X42159Y-52091D01*
X42177Y-52104D01*
X42245Y-52104D01*
X42082Y-51957D02*
X41971Y-51957D01*
X42031Y-52064D01*
X42005Y-52064D01*
X41988Y-52077D01*
X41979Y-52091D01*
X41971Y-52117D01*
X41971Y-52184D01*
X41979Y-52211D01*
X41988Y-52224D01*
X42005Y-52237D01*
X42057Y-52237D01*
X42074Y-52224D01*
X42082Y-52211D01*
X41868Y-52077D02*
X41886Y-52064D01*
X41894Y-52051D01*
X41903Y-52024D01*
X41903Y-52011D01*
X41894Y-51984D01*
X41886Y-51971D01*
X41868Y-51957D01*
X41834Y-51957D01*
X41817Y-51971D01*
X41808Y-51984D01*
X41800Y-52011D01*
X41800Y-52024D01*
X41808Y-52051D01*
X41817Y-52064D01*
X41834Y-52077D01*
X41868Y-52077D01*
X41886Y-52091D01*
X41894Y-52104D01*
X41903Y-52131D01*
X41903Y-52184D01*
X41894Y-52211D01*
X41886Y-52224D01*
X41868Y-52237D01*
X41834Y-52237D01*
X41817Y-52224D01*
X41808Y-52211D01*
X41800Y-52184D01*
X41800Y-52131D01*
X41808Y-52104D01*
X41817Y-52091D01*
X41834Y-52077D01*
X42130Y-49898D02*
X42190Y-49765D01*
X42233Y-49898D02*
X42233Y-49618D01*
X42165Y-49618D01*
X42147Y-49632D01*
X42139Y-49645D01*
X42130Y-49672D01*
X42130Y-49712D01*
X42139Y-49738D01*
X42147Y-49752D01*
X42165Y-49765D01*
X42233Y-49765D01*
X42070Y-49618D02*
X41959Y-49618D01*
X42019Y-49725D01*
X41993Y-49725D01*
X41976Y-49738D01*
X41967Y-49752D01*
X41959Y-49778D01*
X41959Y-49845D01*
X41967Y-49872D01*
X41976Y-49885D01*
X41993Y-49898D01*
X42045Y-49898D01*
X42062Y-49885D01*
X42070Y-49872D01*
X41874Y-49898D02*
X41839Y-49898D01*
X41822Y-49885D01*
X41814Y-49872D01*
X41796Y-49832D01*
X41788Y-49778D01*
X41788Y-49672D01*
X41796Y-49645D01*
X41805Y-49632D01*
X41822Y-49618D01*
X41856Y-49618D01*
X41874Y-49632D01*
X41882Y-49645D01*
X41891Y-49672D01*
X41891Y-49738D01*
X41882Y-49765D01*
X41874Y-49778D01*
X41856Y-49792D01*
X41822Y-49792D01*
X41805Y-49778D01*
X41796Y-49765D01*
X41788Y-49738D01*
G54D22*
X45283Y-49767D02*
X45270Y-49740D01*
X45244Y-49714D01*
X45204Y-49675D01*
X45191Y-49648D01*
X45191Y-49622D01*
X45257Y-49635D02*
X45244Y-49609D01*
X45217Y-49583D01*
X45165Y-49570D01*
X45073Y-49570D01*
X45020Y-49583D01*
X44994Y-49609D01*
X44981Y-49635D01*
X44981Y-49688D01*
X44994Y-49714D01*
X45020Y-49740D01*
X45073Y-49754D01*
X45165Y-49754D01*
X45217Y-49740D01*
X45244Y-49714D01*
X45257Y-49688D01*
X45257Y-49635D01*
X45073Y-49990D02*
X45257Y-49990D01*
X44968Y-49924D02*
X45165Y-49859D01*
X45165Y-50029D01*
X44783Y-51121D02*
X44770Y-51094D01*
X44744Y-51068D01*
X44704Y-51029D01*
X44691Y-51002D01*
X44691Y-50976D01*
X44757Y-50989D02*
X44744Y-50963D01*
X44717Y-50937D01*
X44665Y-50924D01*
X44573Y-50924D01*
X44520Y-50937D01*
X44494Y-50963D01*
X44481Y-50989D01*
X44481Y-51042D01*
X44494Y-51068D01*
X44520Y-51094D01*
X44573Y-51108D01*
X44665Y-51108D01*
X44717Y-51094D01*
X44744Y-51068D01*
X44757Y-51042D01*
X44757Y-50989D01*
X44481Y-51357D02*
X44481Y-51226D01*
X44612Y-51213D01*
X44599Y-51226D01*
X44586Y-51252D01*
X44586Y-51318D01*
X44599Y-51344D01*
X44612Y-51357D01*
X44638Y-51370D01*
X44704Y-51370D01*
X44730Y-51357D01*
X44744Y-51344D01*
X44757Y-51318D01*
X44757Y-51252D01*
X44744Y-51226D01*
X44730Y-51213D01*
X38205Y-46813D02*
X38232Y-46800D01*
X38258Y-46774D01*
X38297Y-46734D01*
X38324Y-46721D01*
X38350Y-46721D01*
X38337Y-46787D02*
X38363Y-46774D01*
X38389Y-46747D01*
X38402Y-46695D01*
X38402Y-46603D01*
X38389Y-46550D01*
X38363Y-46524D01*
X38337Y-46511D01*
X38284Y-46511D01*
X38258Y-46524D01*
X38232Y-46550D01*
X38218Y-46603D01*
X38218Y-46695D01*
X38232Y-46747D01*
X38258Y-46774D01*
X38284Y-46787D01*
X38337Y-46787D01*
X38127Y-46511D02*
X37943Y-46511D01*
X38061Y-46787D01*
X39857Y-47617D02*
X39884Y-47604D01*
X39910Y-47578D01*
X39949Y-47538D01*
X39976Y-47525D01*
X40002Y-47525D01*
X39989Y-47591D02*
X40015Y-47578D01*
X40041Y-47551D01*
X40054Y-47499D01*
X40054Y-47407D01*
X40041Y-47354D01*
X40015Y-47328D01*
X39989Y-47315D01*
X39936Y-47315D01*
X39910Y-47328D01*
X39884Y-47354D01*
X39870Y-47407D01*
X39870Y-47499D01*
X39884Y-47551D01*
X39910Y-47578D01*
X39936Y-47591D01*
X39989Y-47591D01*
X39634Y-47315D02*
X39687Y-47315D01*
X39713Y-47328D01*
X39726Y-47341D01*
X39752Y-47380D01*
X39765Y-47433D01*
X39765Y-47538D01*
X39752Y-47564D01*
X39739Y-47578D01*
X39713Y-47591D01*
X39660Y-47591D01*
X39634Y-47578D01*
X39621Y-47564D01*
X39608Y-47538D01*
X39608Y-47472D01*
X39621Y-47446D01*
X39634Y-47433D01*
X39660Y-47420D01*
X39713Y-47420D01*
X39739Y-47433D01*
X39752Y-47446D01*
X39765Y-47472D01*
X44912Y-43926D02*
X44899Y-43899D01*
X44873Y-43873D01*
X44833Y-43834D01*
X44820Y-43807D01*
X44820Y-43781D01*
X44886Y-43794D02*
X44873Y-43768D01*
X44846Y-43742D01*
X44794Y-43729D01*
X44702Y-43729D01*
X44649Y-43742D01*
X44623Y-43768D01*
X44610Y-43794D01*
X44610Y-43847D01*
X44623Y-43873D01*
X44649Y-43899D01*
X44702Y-43913D01*
X44794Y-43913D01*
X44846Y-43899D01*
X44873Y-43873D01*
X44886Y-43847D01*
X44886Y-43794D01*
X44728Y-44070D02*
X44715Y-44044D01*
X44702Y-44031D01*
X44675Y-44018D01*
X44662Y-44018D01*
X44636Y-44031D01*
X44623Y-44044D01*
X44610Y-44070D01*
X44610Y-44123D01*
X44623Y-44149D01*
X44636Y-44162D01*
X44662Y-44175D01*
X44675Y-44175D01*
X44702Y-44162D01*
X44715Y-44149D01*
X44728Y-44123D01*
X44728Y-44070D01*
X44741Y-44044D01*
X44754Y-44031D01*
X44781Y-44018D01*
X44833Y-44018D01*
X44859Y-44031D01*
X44873Y-44044D01*
X44886Y-44070D01*
X44886Y-44123D01*
X44873Y-44149D01*
X44859Y-44162D01*
X44833Y-44175D01*
X44781Y-44175D01*
X44754Y-44162D01*
X44741Y-44149D01*
X44728Y-44123D01*
X43892Y-45493D02*
X43879Y-45466D01*
X43853Y-45440D01*
X43813Y-45401D01*
X43800Y-45374D01*
X43800Y-45348D01*
X43866Y-45361D02*
X43853Y-45335D01*
X43826Y-45309D01*
X43774Y-45296D01*
X43682Y-45296D01*
X43629Y-45309D01*
X43603Y-45335D01*
X43590Y-45361D01*
X43590Y-45414D01*
X43603Y-45440D01*
X43629Y-45466D01*
X43682Y-45480D01*
X43774Y-45480D01*
X43826Y-45466D01*
X43853Y-45440D01*
X43866Y-45414D01*
X43866Y-45361D01*
X43866Y-45611D02*
X43866Y-45663D01*
X43853Y-45690D01*
X43839Y-45703D01*
X43800Y-45729D01*
X43747Y-45742D01*
X43642Y-45742D01*
X43616Y-45729D01*
X43603Y-45716D01*
X43590Y-45690D01*
X43590Y-45637D01*
X43603Y-45611D01*
X43616Y-45598D01*
X43642Y-45585D01*
X43708Y-45585D01*
X43734Y-45598D01*
X43747Y-45611D01*
X43761Y-45637D01*
X43761Y-45690D01*
X43747Y-45716D01*
X43734Y-45729D01*
X43708Y-45742D01*
G54D14*
X41090Y-36541D02*
X41150Y-36408D01*
X41193Y-36541D02*
X41193Y-36261D01*
X41125Y-36261D01*
X41107Y-36275D01*
X41099Y-36288D01*
X41090Y-36315D01*
X41090Y-36355D01*
X41099Y-36381D01*
X41107Y-36395D01*
X41125Y-36408D01*
X41193Y-36408D01*
X40936Y-36355D02*
X40936Y-36541D01*
X40979Y-36248D02*
X41022Y-36448D01*
X40910Y-36448D01*
X40859Y-36261D02*
X40739Y-36261D01*
X40816Y-36541D01*
G54D15*
X42024Y-40650D02*
X41788Y-41004D01*
X41788Y-40650D02*
X42024Y-41004D01*
X41687Y-40650D02*
X41468Y-40650D01*
X41586Y-40785D01*
X41536Y-40785D01*
X41502Y-40802D01*
X41485Y-40819D01*
X41468Y-40853D01*
X41468Y-40937D01*
X41485Y-40971D01*
X41502Y-40987D01*
X41536Y-41004D01*
X41637Y-41004D01*
X41671Y-40987D01*
X41687Y-40971D01*
X42987Y-38680D02*
X42987Y-38477D01*
X42987Y-38579D02*
X42633Y-38579D01*
X42684Y-38545D01*
X42718Y-38511D01*
X42734Y-38477D01*
X42667Y-38814D02*
X42650Y-38831D01*
X42633Y-38865D01*
X42633Y-38949D01*
X42650Y-38983D01*
X42667Y-39000D01*
X42701Y-39017D01*
X42734Y-39017D01*
X42785Y-39000D01*
X42987Y-38798D01*
X42987Y-39017D01*
X42987Y-39168D02*
X42633Y-39168D01*
X42886Y-39286D01*
X42633Y-39404D01*
X42987Y-39404D01*
X42987Y-39573D02*
X42633Y-39573D01*
X42802Y-39573D02*
X42802Y-39776D01*
X42987Y-39776D02*
X42633Y-39776D01*
X42751Y-39911D02*
X42751Y-40096D01*
X42987Y-39911D01*
X42987Y-40096D01*
G54D17*
X39595Y-42124D02*
X39607Y-42136D01*
X39642Y-42148D01*
X39666Y-42148D01*
X39702Y-42136D01*
X39726Y-42112D01*
X39737Y-42089D01*
X39749Y-42041D01*
X39749Y-42005D01*
X39737Y-41958D01*
X39726Y-41934D01*
X39702Y-41910D01*
X39666Y-41898D01*
X39642Y-41898D01*
X39607Y-41910D01*
X39595Y-41922D01*
X39499Y-41922D02*
X39487Y-41910D01*
X39464Y-41898D01*
X39404Y-41898D01*
X39380Y-41910D01*
X39368Y-41922D01*
X39357Y-41946D01*
X39357Y-41970D01*
X39368Y-42005D01*
X39511Y-42148D01*
X39357Y-42148D01*
X39119Y-42148D02*
X39261Y-42148D01*
X39190Y-42148D02*
X39190Y-41898D01*
X39214Y-41934D01*
X39238Y-41958D01*
X39261Y-41970D01*
X40949Y-40904D02*
X40961Y-40916D01*
X40996Y-40928D01*
X41020Y-40928D01*
X41056Y-40916D01*
X41080Y-40892D01*
X41091Y-40869D01*
X41103Y-40821D01*
X41103Y-40785D01*
X41091Y-40738D01*
X41080Y-40714D01*
X41056Y-40690D01*
X41020Y-40678D01*
X40996Y-40678D01*
X40961Y-40690D01*
X40949Y-40702D01*
X40711Y-40928D02*
X40853Y-40928D01*
X40782Y-40928D02*
X40782Y-40678D01*
X40806Y-40714D01*
X40830Y-40738D01*
X40853Y-40750D01*
X40592Y-40928D02*
X40544Y-40928D01*
X40520Y-40916D01*
X40508Y-40904D01*
X40484Y-40869D01*
X40473Y-40821D01*
X40473Y-40726D01*
X40484Y-40702D01*
X40496Y-40690D01*
X40520Y-40678D01*
X40568Y-40678D01*
X40592Y-40690D01*
X40603Y-40702D01*
X40615Y-40726D01*
X40615Y-40785D01*
X40603Y-40809D01*
X40592Y-40821D01*
X40568Y-40833D01*
X40520Y-40833D01*
X40496Y-40821D01*
X40484Y-40809D01*
X40473Y-40785D01*
M02*
